<svg version="1.1" xmlns="http://www.w3.org/2000/svg" width="800" height="600"><defs><clipPath id="fPnIRfNOUawV"><path fill="none" stroke="none" d="M 6.5 39.5 L 790.5 39.5 L 790.5 594.5 L 6.5 594.5 L 6.5 39.5"/></clipPath><clipPath id="unaTuTzAODln"><path fill="none" stroke="none" d="M 6.5 39.5 L 790.5 39.5 L 790.5 594.5 L 6.5 594.5 L 6.5 39.5"/></clipPath><clipPath id="QymSnOCQFIqQ"><path fill="none" stroke="none" d="M 6.5 39.5 L 790.5 39.5 L 790.5 594.5 L 6.5 594.5 L 6.5 39.5"/></clipPath><clipPath id="ZdKuDZqqnmBn"><path fill="none" stroke="none" d="M 6.5 39.5 L 790.5 39.5 L 790.5 594.5 L 6.5 594.5 L 6.5 39.5"/></clipPath><clipPath id="bNhnSGLXMpHJ"><path fill="none" stroke="none" d="M 6.5 39.5 L 790.5 39.5 L 790.5 594.5 L 6.5 594.5 L 6.5 39.5"/></clipPath><clipPath id="TntPErqTzXNe"><path fill="none" stroke="none" d="M 6.5 39.5 L 790.5 39.5 L 790.5 594.5 L 6.5 594.5 L 6.5 39.5"/></clipPath><clipPath id="uAEHTqmalqGQ"><path fill="none" stroke="none" d="M 6.5 39.5 L 790.5 39.5 L 790.5 594.5 L 6.5 594.5 L 6.5 39.5"/></clipPath><clipPath id="GpZTdoZHuFir"><path fill="none" stroke="none" d="M 6.5 39.5 L 790.5 39.5 L 790.5 594.5 L 6.5 594.5 L 6.5 39.5"/></clipPath><clipPath id="KwcbykmGgwhk"><path fill="none" stroke="none" d="M 6.5 39.5 L 790.5 39.5 L 790.5 594.5 L 6.5 594.5 L 6.5 39.5"/></clipPath><clipPath id="JaIDXEvGnFZM"><path fill="none" stroke="none" d="M 6.5 39.5 L 790.5 39.5 L 790.5 594.5 L 6.5 594.5 L 6.5 39.5"/></clipPath><clipPath id="iWUNAnbraama"><path fill="none" stroke="none" d="M 6.5 39.5 L 790.5 39.5 L 790.5 594.5 L 6.5 594.5 L 6.5 39.5"/></clipPath><clipPath id="pNKriWszgKle"><path fill="none" stroke="none" d="M 6.5 39.5 L 790.5 39.5 L 790.5 594.5 L 6.5 594.5 L 6.5 39.5"/></clipPath></defs><path fill="rgb(255,255,255)" stroke="none" paint-order="stroke" d="M 0.5 0.5 L 800.5 0.5 L 800.5 600.5 L 0.5 600.5 L 0.5 0.5" fill-opacity="1"/><rect fill="#FFFFFF" stroke="none" x="6" y="39" width="784" height="555" transform="matrix(1, 0, 0, 1, 0.5, 0.5)"/><path fill="rgb(255,255,255)" stroke="none" paint-order="stroke" d="M 6.5 39.5 L 790.5 39.5 L 790.5 594.5 L 6.5 594.5 L 6.5 39.5" fill-opacity="1"/><text fill="rgb(68,68,68)" stroke="none" font-family="helvetica" font-size="15pt" font-style="normal" font-weight="normal" text-decoration="normal" x="187" y="85.5" text-anchor="start" dominant-baseline="alphabetic" clip-path="url(#QymSnOCQFIqQ)" transform="matrix(1, 0, 0, 1, 0.5, 0.5)" fill-opacity="1">MELFTGVVPILVELDGDVNGHKFS</text><text fill="rgb(68,68,68)" stroke="none" font-family="helvetica" font-size="15pt" font-style="normal" font-weight="normal" text-decoration="normal" x="187" y="141" text-anchor="start" dominant-baseline="alphabetic" clip-path="url(#ZdKuDZqqnmBn)" transform="matrix(1, 0, 0, 1, 0.5, 0.5)" fill-opacity="1">SGEGEGDATYGKLTLKFICTTGKL</text><text fill="rgb(68,68,68)" stroke="none" font-family="helvetica" font-size="15pt" font-style="normal" font-weight="normal" text-decoration="normal" x="187" y="196.5" text-anchor="start" dominant-baseline="alphabetic" clip-path="url(#bNhnSGLXMpHJ)" transform="matrix(1, 0, 0, 1, 0.5, 0.5)" fill-opacity="1">VPWPTLVTTLTYGVQCFSRYPDHM</text><text fill="rgb(68,68,68)" stroke="none" font-family="helvetica" font-size="15pt" font-style="normal" font-weight="normal" text-decoration="normal" x="187" y="252" text-anchor="start" dominant-baseline="alphabetic" clip-path="url(#TntPErqTzXNe)" transform="matrix(1, 0, 0, 1, 0.5, 0.5)" fill-opacity="1">QHDFFKSAMPEGYVQERTIFFKDD</text><text fill="rgb(68,68,68)" stroke="none" font-family="helvetica" font-size="15pt" font-style="normal" font-weight="normal" text-decoration="normal" x="187" y="307.5" text-anchor="start" dominant-baseline="alphabetic" clip-path="url(#uAEHTqmalqGQ)" transform="matrix(1, 0, 0, 1, 0.5, 0.5)" fill-opacity="1">NYKTRAEVKFEGDTLVNRIELKGI</text><text fill="rgb(68,68,68)" stroke="none" font-family="helvetica" font-size="15pt" font-style="normal" font-weight="normal" text-decoration="normal" x="187" y="363" text-anchor="start" dominant-baseline="alphabetic" clip-path="url(#GpZTdoZHuFir)" transform="matrix(1, 0, 0, 1, 0.5, 0.5)" fill-opacity="1">FKEDGNILGHKLEYNYNSHNVYIM</text><text fill="rgb(68,68,68)" stroke="none" font-family="helvetica" font-size="15pt" font-style="normal" font-weight="normal" text-decoration="normal" x="187" y="418.5" text-anchor="start" dominant-baseline="alphabetic" clip-path="url(#KwcbykmGgwhk)" transform="matrix(1, 0, 0, 1, 0.5, 0.5)" fill-opacity="1">DKQKNGIKVNFKIRHNIEDGSVQL</text><text fill="rgb(68,68,68)" stroke="none" font-family="helvetica" font-size="15pt" font-style="normal" font-weight="normal" text-decoration="normal" x="187" y="474" text-anchor="start" dominant-baseline="alphabetic" clip-path="url(#JaIDXEvGnFZM)" transform="matrix(1, 0, 0, 1, 0.5, 0.5)" fill-opacity="1">DHYQQNTPIGDGPVLLPDNHYLST</text><text fill="rgb(68,68,68)" stroke="none" font-family="helvetica" font-size="15pt" font-style="normal" font-weight="normal" text-decoration="normal" x="187" y="529.5" text-anchor="start" dominant-baseline="alphabetic" clip-path="url(#iWUNAnbraama)" transform="matrix(1, 0, 0, 1, 0.5, 0.5)" fill-opacity="1">SALSKDPNEKRDHMVLLEFVTAAG</text><text fill="rgb(68,68,68)" stroke="none" font-family="helvetica" font-size="0pt" font-style="normal" font-weight="normal" text-decoration="normal" x="6" y="605" text-anchor="start" dominant-baseline="alphabetic" transform="matrix(1, 0, 0, 1, 0.5, 0.5)" fill-opacity="1">−3</text><text fill="rgb(68,68,68)" stroke="none" font-family="helvetica" font-size="0pt" font-style="normal" font-weight="normal" text-decoration="normal" x="136.6666717529297" y="605" text-anchor="start" dominant-baseline="alphabetic" transform="matrix(1, 0, 0, 1, 0.5, 0.5)" fill-opacity="1">−2</text><text fill="rgb(68,68,68)" stroke="none" font-family="helvetica" font-size="0pt" font-style="normal" font-weight="normal" text-decoration="normal" x="267.3333435058594" y="605" text-anchor="start" dominant-baseline="alphabetic" transform="matrix(1, 0, 0, 1, 0.5, 0.5)" fill-opacity="1">−1</text><text fill="rgb(68,68,68)" stroke="none" font-family="helvetica" font-size="0pt" font-style="normal" font-weight="normal" text-decoration="normal" x="398" y="605" text-anchor="start" dominant-baseline="alphabetic" transform="matrix(1, 0, 0, 1, 0.5, 0.5)" fill-opacity="1">0</text><text fill="rgb(68,68,68)" stroke="none" font-family="helvetica" font-size="0pt" font-style="normal" font-weight="normal" text-decoration="normal" x="528.6666870117188" y="605" text-anchor="start" dominant-baseline="alphabetic" transform="matrix(1, 0, 0, 1, 0.5, 0.5)" fill-opacity="1">1</text><text fill="rgb(68,68,68)" stroke="none" font-family="helvetica" font-size="0pt" font-style="normal" font-weight="normal" text-decoration="normal" x="659.3333129882812" y="605" text-anchor="start" dominant-baseline="alphabetic" transform="matrix(1, 0, 0, 1, 0.5, 0.5)" fill-opacity="1">2</text><text fill="rgb(68,68,68)" stroke="none" font-family="helvetica" font-size="0pt" font-style="normal" font-weight="normal" text-decoration="normal" x="790" y="605" text-anchor="start" dominant-baseline="alphabetic" transform="matrix(1, 0, 0, 1, 0.5, 0.5)" fill-opacity="1">3</text><text fill="rgb(68,68,68)" stroke="none" font-family="helvetica" font-size="0pt" font-style="normal" font-weight="normal" text-decoration="normal" x="-5" y="557" text-anchor="start" dominant-baseline="alphabetic" transform="matrix(1, 0, 0, 1, 0.5, 0.5)" fill-opacity="1">−4</text><text fill="rgb(68,68,68)" stroke="none" font-family="helvetica" font-size="0pt" font-style="normal" font-weight="normal" text-decoration="normal" x="-5" y="483" text-anchor="start" dominant-baseline="alphabetic" transform="matrix(1, 0, 0, 1, 0.5, 0.5)" fill-opacity="1">−2</text><text fill="rgb(68,68,68)" stroke="none" font-family="helvetica" font-size="0pt" font-style="normal" font-weight="normal" text-decoration="normal" x="-5" y="409" text-anchor="start" dominant-baseline="alphabetic" transform="matrix(1, 0, 0, 1, 0.5, 0.5)" fill-opacity="1">0</text><text fill="rgb(68,68,68)" stroke="none" font-family="helvetica" font-size="0pt" font-style="normal" font-weight="normal" text-decoration="normal" x="-5" y="335" text-anchor="start" dominant-baseline="alphabetic" transform="matrix(1, 0, 0, 1, 0.5, 0.5)" fill-opacity="1">2</text><text fill="rgb(68,68,68)" stroke="none" font-family="helvetica" font-size="0pt" font-style="normal" font-weight="normal" text-decoration="normal" x="-5" y="261" text-anchor="start" dominant-baseline="alphabetic" transform="matrix(1, 0, 0, 1, 0.5, 0.5)" fill-opacity="1">4</text><text fill="rgb(68,68,68)" stroke="none" font-family="helvetica" font-size="0pt" font-style="normal" font-weight="normal" text-decoration="normal" x="-5" y="187" text-anchor="start" dominant-baseline="alphabetic" transform="matrix(1, 0, 0, 1, 0.5, 0.5)" fill-opacity="1">6</text><text fill="rgb(68,68,68)" stroke="none" font-family="helvetica" font-size="0pt" font-style="normal" font-weight="normal" text-decoration="normal" x="-5" y="113" text-anchor="start" dominant-baseline="alphabetic" transform="matrix(1, 0, 0, 1, 0.5, 0.5)" fill-opacity="1">8</text><text fill="rgb(68,68,68)" stroke="none" font-family="helvetica" font-size="0pt" font-style="normal" font-weight="normal" text-decoration="normal" x="-5" y="39" text-anchor="start" dominant-baseline="alphabetic" transform="matrix(1, 0, 0, 1, 0.5, 0.5)" fill-opacity="1">10</text><text fill="rgb(68,68,68)" stroke="none" font-family="helvetica" font-size="18pt" font-style="normal" font-weight="bold" text-decoration="normal" x="6" y="29" text-anchor="start" dominant-baseline="alphabetic" transform="matrix(1, 0, 0, 1, 0.5, 0.5)" fill-opacity="1">Amino acids list of deGFP:</text></svg>