<svg version="1.1" xmlns="http://www.w3.org/2000/svg" width="600" height="400"><defs><clipPath id="uZTZyuaqRNfc"><path fill="none" stroke="none" d="M 74.5 39.5 L 590.5 39.5 L 590.5 333.5 L 74.5 333.5 L 74.5 39.5"/></clipPath><clipPath id="lCSKTukBKTxw"><path fill="none" stroke="none" d="M 74.5 39.5 L 590.5 39.5 L 590.5 333.5 L 74.5 333.5 L 74.5 39.5"/></clipPath><clipPath id="ECwdNHZBTAiS"><path fill="none" stroke="none" d="M 74.5 39.5 L 590.5 39.5 L 590.5 333.5 L 74.5 333.5 L 74.5 39.5"/></clipPath><clipPath id="TZrHDXAxPEqJ"><path fill="none" stroke="none" d="M 74.5 39.5 L 590.5 39.5 L 590.5 333.5 L 74.5 333.5 L 74.5 39.5"/></clipPath><clipPath id="zXTksQzQwzMV"><path fill="none" stroke="none" d="M 74.5 39.5 L 590.5 39.5 L 590.5 333.5 L 74.5 333.5 L 74.5 39.5"/></clipPath><clipPath id="SepXOfxncVJK"><path fill="none" stroke="none" d="M 74.5 39.5 L 590.5 39.5 L 590.5 333.5 L 74.5 333.5 L 74.5 39.5"/></clipPath><clipPath id="qnMhTqiNqoxE"><path fill="none" stroke="none" d="M 74.5 39.5 L 590.5 39.5 L 590.5 333.5 L 74.5 333.5 L 74.5 39.5"/></clipPath><clipPath id="kAvEhwnIcRcc"><path fill="none" stroke="none" d="M 74.5 39.5 L 590.5 39.5 L 590.5 333.5 L 74.5 333.5 L 74.5 39.5"/></clipPath><clipPath id="hzcdrXAkEgIc"><path fill="none" stroke="none" d="M 74.5 39.5 L 590.5 39.5 L 590.5 333.5 L 74.5 333.5 L 74.5 39.5"/></clipPath><clipPath id="KwddKJRvUAUB"><path fill="none" stroke="none" d="M 74.5 39.5 L 590.5 39.5 L 590.5 333.5 L 74.5 333.5 L 74.5 39.5"/></clipPath><clipPath id="FguQtdEgakQX"><path fill="none" stroke="none" d="M 74.5 39.5 L 590.5 39.5 L 590.5 333.5 L 74.5 333.5 L 74.5 39.5"/></clipPath><clipPath id="aPbEUETNhdoz"><path fill="none" stroke="none" d="M 74.5 39.5 L 590.5 39.5 L 590.5 333.5 L 74.5 333.5 L 74.5 39.5"/></clipPath></defs><path fill="rgb(255,255,255)" stroke="none" paint-order="stroke" d="M 0.5 0.5 L 600.5 0.5 L 600.5 400.5 L 0.5 400.5 L 0.5 0.5" fill-opacity="1"/><rect fill="#FFFFFF" stroke="none" x="74" y="39" width="516" height="294" transform="matrix(1, 0, 0, 1, 0.5, 0.5)"/><path fill="rgb(255,255,255)" stroke="none" paint-order="stroke" d="M 74.5 39.5 L 590.5 39.5 L 590.5 333.5 L 74.5 333.5 L 74.5 39.5" fill-opacity="1"/><text fill="rgb(68,68,68)" stroke="none" font-family="helvetica" font-size="15pt" font-style="normal" font-weight="normal" text-decoration="normal" x="188" y="68.1" text-anchor="start" dominant-baseline="alphabetic" clip-path="url(#ECwdNHZBTAiS)" transform="matrix(1, 0, 0, 1, 0.5, 0.5)" fill-opacity="1">MELFTGVVPILVELDGDVNGHKFS</text><text fill="rgb(68,68,68)" stroke="none" font-family="helvetica" font-size="15pt" font-style="normal" font-weight="normal" text-decoration="normal" x="188" y="97.5" text-anchor="start" dominant-baseline="alphabetic" clip-path="url(#TZrHDXAxPEqJ)" transform="matrix(1, 0, 0, 1, 0.5, 0.5)" fill-opacity="1">SGEGEGDATYGKLTLKFICTTGKL</text><text fill="rgb(68,68,68)" stroke="none" font-family="helvetica" font-size="15pt" font-style="normal" font-weight="normal" text-decoration="normal" x="188" y="126.89999999999998" text-anchor="start" dominant-baseline="alphabetic" clip-path="url(#zXTksQzQwzMV)" transform="matrix(1, 0, 0, 1, 0.5, 0.5)" fill-opacity="1">VPWPTLVTTLTYGVQCFSRYPDHM</text><text fill="rgb(68,68,68)" stroke="none" font-family="helvetica" font-size="15pt" font-style="normal" font-weight="normal" text-decoration="normal" x="188" y="156.3" text-anchor="start" dominant-baseline="alphabetic" clip-path="url(#SepXOfxncVJK)" transform="matrix(1, 0, 0, 1, 0.5, 0.5)" fill-opacity="1">QHDFFKSAMPEGYVQERTIFFKDD</text><text fill="rgb(68,68,68)" stroke="none" font-family="helvetica" font-size="15pt" font-style="normal" font-weight="normal" text-decoration="normal" x="188" y="185.7" text-anchor="start" dominant-baseline="alphabetic" clip-path="url(#qnMhTqiNqoxE)" transform="matrix(1, 0, 0, 1, 0.5, 0.5)" fill-opacity="1">NYKTRAEVKFEGDTLVNRIELKGI</text><text fill="rgb(68,68,68)" stroke="none" font-family="helvetica" font-size="15pt" font-style="normal" font-weight="normal" text-decoration="normal" x="188" y="215.1" text-anchor="start" dominant-baseline="alphabetic" clip-path="url(#kAvEhwnIcRcc)" transform="matrix(1, 0, 0, 1, 0.5, 0.5)" fill-opacity="1">FKEDGNILGHKLEYNYNSHNVYIM</text><text fill="rgb(68,68,68)" stroke="none" font-family="helvetica" font-size="15pt" font-style="normal" font-weight="normal" text-decoration="normal" x="188" y="244.5" text-anchor="start" dominant-baseline="alphabetic" clip-path="url(#hzcdrXAkEgIc)" transform="matrix(1, 0, 0, 1, 0.5, 0.5)" fill-opacity="1">DKQKNGIKVNFKIRHNIEDGSVQL</text><text fill="rgb(68,68,68)" stroke="none" font-family="helvetica" font-size="15pt" font-style="normal" font-weight="normal" text-decoration="normal" x="188" y="273.9" text-anchor="start" dominant-baseline="alphabetic" clip-path="url(#KwddKJRvUAUB)" transform="matrix(1, 0, 0, 1, 0.5, 0.5)" fill-opacity="1">DHYQQNTPIGDGPVLLPDNHYLST</text><text fill="rgb(68,68,68)" stroke="none" font-family="helvetica" font-size="15pt" font-style="normal" font-weight="normal" text-decoration="normal" x="188" y="303.3" text-anchor="start" dominant-baseline="alphabetic" clip-path="url(#FguQtdEgakQX)" transform="matrix(1, 0, 0, 1, 0.5, 0.5)" fill-opacity="1">SALSKDPNEKRDHMVLLEFVTAAG</text><text fill="rgb(68,68,68)" stroke="none" font-family="helvetica" font-size="0pt" font-style="normal" font-weight="normal" text-decoration="normal" x="74" y="344" text-anchor="start" dominant-baseline="alphabetic" transform="matrix(1, 0, 0, 1, 0.5, 0.5)" fill-opacity="1">−3</text><text fill="rgb(68,68,68)" stroke="none" font-family="helvetica" font-size="0pt" font-style="normal" font-weight="normal" text-decoration="normal" x="160" y="344" text-anchor="start" dominant-baseline="alphabetic" transform="matrix(1, 0, 0, 1, 0.5, 0.5)" fill-opacity="1">−2</text><text fill="rgb(68,68,68)" stroke="none" font-family="helvetica" font-size="0pt" font-style="normal" font-weight="normal" text-decoration="normal" x="246" y="344" text-anchor="start" dominant-baseline="alphabetic" transform="matrix(1, 0, 0, 1, 0.5, 0.5)" fill-opacity="1">−1</text><text fill="rgb(68,68,68)" stroke="none" font-family="helvetica" font-size="0pt" font-style="normal" font-weight="normal" text-decoration="normal" x="332" y="344" text-anchor="start" dominant-baseline="alphabetic" transform="matrix(1, 0, 0, 1, 0.5, 0.5)" fill-opacity="1">0</text><text fill="rgb(68,68,68)" stroke="none" font-family="helvetica" font-size="0pt" font-style="normal" font-weight="normal" text-decoration="normal" x="418" y="344" text-anchor="start" dominant-baseline="alphabetic" transform="matrix(1, 0, 0, 1, 0.5, 0.5)" fill-opacity="1">1</text><text fill="rgb(68,68,68)" stroke="none" font-family="helvetica" font-size="0pt" font-style="normal" font-weight="normal" text-decoration="normal" x="504" y="344" text-anchor="start" dominant-baseline="alphabetic" transform="matrix(1, 0, 0, 1, 0.5, 0.5)" fill-opacity="1">2</text><text fill="rgb(68,68,68)" stroke="none" font-family="helvetica" font-size="0pt" font-style="normal" font-weight="normal" text-decoration="normal" x="590" y="344" text-anchor="start" dominant-baseline="alphabetic" transform="matrix(1, 0, 0, 1, 0.5, 0.5)" fill-opacity="1">3</text><text fill="rgb(68,68,68)" stroke="none" font-family="helvetica" font-size="0pt" font-style="normal" font-weight="normal" text-decoration="normal" x="63" y="313.3999938964844" text-anchor="start" dominant-baseline="alphabetic" transform="matrix(1, 0, 0, 1, 0.5, 0.5)" fill-opacity="1">−4</text><text fill="rgb(68,68,68)" stroke="none" font-family="helvetica" font-size="0pt" font-style="normal" font-weight="normal" text-decoration="normal" x="63" y="274.20001220703125" text-anchor="start" dominant-baseline="alphabetic" transform="matrix(1, 0, 0, 1, 0.5, 0.5)" fill-opacity="1">−2</text><text fill="rgb(68,68,68)" stroke="none" font-family="helvetica" font-size="0pt" font-style="normal" font-weight="normal" text-decoration="normal" x="63" y="235" text-anchor="start" dominant-baseline="alphabetic" transform="matrix(1, 0, 0, 1, 0.5, 0.5)" fill-opacity="1">0</text><text fill="rgb(68,68,68)" stroke="none" font-family="helvetica" font-size="0pt" font-style="normal" font-weight="normal" text-decoration="normal" x="63" y="195.8000030517578" text-anchor="start" dominant-baseline="alphabetic" transform="matrix(1, 0, 0, 1, 0.5, 0.5)" fill-opacity="1">2</text><text fill="rgb(68,68,68)" stroke="none" font-family="helvetica" font-size="0pt" font-style="normal" font-weight="normal" text-decoration="normal" x="63" y="156.60000610351562" text-anchor="start" dominant-baseline="alphabetic" transform="matrix(1, 0, 0, 1, 0.5, 0.5)" fill-opacity="1">4</text><text fill="rgb(68,68,68)" stroke="none" font-family="helvetica" font-size="0pt" font-style="normal" font-weight="normal" text-decoration="normal" x="63" y="117.4000015258789" text-anchor="start" dominant-baseline="alphabetic" transform="matrix(1, 0, 0, 1, 0.5, 0.5)" fill-opacity="1">6</text><text fill="rgb(68,68,68)" stroke="none" font-family="helvetica" font-size="0pt" font-style="normal" font-weight="normal" text-decoration="normal" x="63" y="78.19999694824219" text-anchor="start" dominant-baseline="alphabetic" transform="matrix(1, 0, 0, 1, 0.5, 0.5)" fill-opacity="1">8</text><text fill="rgb(68,68,68)" stroke="none" font-family="helvetica" font-size="0pt" font-style="normal" font-weight="normal" text-decoration="normal" x="63" y="39" text-anchor="start" dominant-baseline="alphabetic" transform="matrix(1, 0, 0, 1, 0.5, 0.5)" fill-opacity="1">10</text><text fill="rgb(68,68,68)" stroke="none" font-family="helvetica" font-size="18pt" font-style="normal" font-weight="bold" text-decoration="normal" x="74" y="29" text-anchor="start" dominant-baseline="alphabetic" transform="matrix(1, 0, 0, 1, 0.5, 0.5)" fill-opacity="1">Amino acids list of deGFP:</text></svg>