<svg version="1.1" xmlns="http://www.w3.org/2000/svg" width="600" height="400"><defs><clipPath id="DHAWQyQxHBux"><path fill="none" stroke="none" d="M 84.5 39.5 L 590.5 39.5 L 590.5 333.5 L 84.5 333.5 L 84.5 39.5"/></clipPath><clipPath id="ZETVoSMTDxlH"><path fill="none" stroke="none" d="M 84.5 39.5 L 590.5 39.5 L 590.5 333.5 L 84.5 333.5 L 84.5 39.5"/></clipPath><clipPath id="bLRpOMwBrhAE"><path fill="none" stroke="none" d="M 84.5 39.5 L 590.5 39.5 L 590.5 333.5 L 84.5 333.5 L 84.5 39.5"/></clipPath><clipPath id="VIuyDaKAOzko"><path fill="none" stroke="none" d="M 84.5 39.5 L 590.5 39.5 L 590.5 333.5 L 84.5 333.5 L 84.5 39.5"/></clipPath><clipPath id="XXTEKUgSnvOR"><path fill="none" stroke="none" d="M 84.5 39.5 L 590.5 39.5 L 590.5 333.5 L 84.5 333.5 L 84.5 39.5"/></clipPath><clipPath id="CHWhPmFoOVyA"><path fill="none" stroke="none" d="M 84.5 39.5 L 590.5 39.5 L 590.5 333.5 L 84.5 333.5 L 84.5 39.5"/></clipPath></defs><path fill="rgb(255,255,255)" stroke="none" paint-order="stroke" d="M 0.5 0.5 L 600.5 0.5 L 600.5 400.5 L 0.5 400.5 L 0.5 0.5" fill-opacity="1"/><rect fill="#FFFFFF" stroke="none" x="84" y="39" width="506" height="294" transform="matrix(1, 0, 0, 1, 0.5, 0.5)"/><path fill="rgb(255,255,255)" stroke="none" paint-order="stroke" d="M 84.5 39.5 L 590.5 39.5 L 590.5 333.5 L 84.5 333.5 L 84.5 39.5" fill-opacity="1"/><path fill="rgb(0,0,128)" stroke="rgb(0,0,128)" paint-order="fill" d="M 88.3923077583313 333.5 A 3.892307758331299 3.892307758331299 0 1 1 88.39230581217758 333.4961076928904" fill-opacity="0.5019607843137255" clip-path="url(#bLRpOMwBrhAE)" stroke-opacity="1" stroke-linejoin="bevel" stroke-miterlimit="10" stroke-dasharray=""/><path fill="rgb(0,0,128)" stroke="rgb(0,0,128)" paint-order="fill" d="M 98.80423402786255 322.62200927734375 A 3.892307758331299 3.892307758331299 0 1 1 98.80423208170883 322.61811697023415" fill-opacity="0.5019607843137255" clip-path="url(#bLRpOMwBrhAE)" stroke-opacity="1" stroke-linejoin="bevel" stroke-miterlimit="10" stroke-dasharray=""/><path fill="rgb(0,0,128)" stroke="rgb(0,0,128)" paint-order="fill" d="M 104.01019716262817 333.1080017089844 A 3.892307758331299 3.892307758331299 0 1 1 104.01019521647446 333.1041094018748" fill-opacity="0.5019607843137255" clip-path="url(#bLRpOMwBrhAE)" stroke-opacity="1" stroke-linejoin="bevel" stroke-miterlimit="10" stroke-dasharray=""/><path fill="rgb(0,0,128)" stroke="rgb(0,0,128)" paint-order="fill" d="M 109.21616792678833 328.40399169921875 A 3.892307758331299 3.892307758331299 0 1 1 109.21616598063461 328.40009939210915" fill-opacity="0.5019607843137255" clip-path="url(#bLRpOMwBrhAE)" stroke-opacity="1" stroke-linejoin="bevel" stroke-miterlimit="10" stroke-dasharray=""/><path fill="rgb(0,0,128)" stroke="rgb(0,0,128)" paint-order="fill" d="M 114.42213106155396 318.9960021972656 A 3.892307758331299 3.892307758331299 0 1 1 114.42212911540024 318.99210989015603" fill-opacity="0.5019607843137255" clip-path="url(#bLRpOMwBrhAE)" stroke-opacity="1" stroke-linejoin="bevel" stroke-miterlimit="10" stroke-dasharray=""/><path fill="rgb(0,0,128)" stroke="rgb(0,0,128)" paint-order="fill" d="M 119.62809419631958 326.00299072265625 A 3.892307758331299 3.892307758331299 0 1 1 119.62809225016586 325.99909841554665" fill-opacity="0.5019607843137255" clip-path="url(#bLRpOMwBrhAE)" stroke-opacity="1" stroke-linejoin="bevel" stroke-miterlimit="10" stroke-dasharray=""/><path fill="rgb(0,0,128)" stroke="rgb(0,0,128)" paint-order="fill" d="M 124.8340573310852 333.6960144042969 A 3.892307758331299 3.892307758331299 0 1 1 124.83405538493149 333.6921220971873" fill-opacity="0.5019607843137255" clip-path="url(#bLRpOMwBrhAE)" stroke-opacity="1" stroke-linejoin="bevel" stroke-miterlimit="10" stroke-dasharray=""/><path fill="rgb(0,0,128)" stroke="rgb(0,0,128)" paint-order="fill" d="M 130.04002046585083 311.7929992675781 A 3.892307758331299 3.892307758331299 0 1 1 130.0400185196971 311.78910696046853" fill-opacity="0.5019607843137255" clip-path="url(#bLRpOMwBrhAE)" stroke-opacity="1" stroke-linejoin="bevel" stroke-miterlimit="10" stroke-dasharray=""/><path fill="rgb(0,0,128)" stroke="rgb(0,0,128)" paint-order="fill" d="M 135.245991230011 331.63800048828125 A 3.892307758331299 3.892307758331299 0 1 1 135.24598928385726 331.63410818117165" fill-opacity="0.5019607843137255" clip-path="url(#bLRpOMwBrhAE)" stroke-opacity="1" stroke-linejoin="bevel" stroke-miterlimit="10" stroke-dasharray=""/><path fill="rgb(0,0,128)" stroke="rgb(0,0,128)" paint-order="fill" d="M 140.4519543647766 326.052001953125 A 3.892307758331299 3.892307758331299 0 1 1 140.45195241862288 326.0481096460154" fill-opacity="0.5019607843137255" clip-path="url(#bLRpOMwBrhAE)" stroke-opacity="1" stroke-linejoin="bevel" stroke-miterlimit="10" stroke-dasharray=""/><path fill="rgb(0,0,128)" stroke="rgb(0,0,128)" paint-order="fill" d="M 160.31680727005005 312.2340087890625 A 3.892307758331299 3.892307758331299 0 1 1 160.31680532389632 312.2301164819529" fill-opacity="0.5019607843137255" clip-path="url(#bLRpOMwBrhAE)" stroke-opacity="1" stroke-linejoin="bevel" stroke-miterlimit="10" stroke-dasharray=""/><path fill="rgb(0,0,128)" stroke="rgb(0,0,128)" paint-order="fill" d="M 184.291645526886 291.3599853515625 A 3.892307758331299 3.892307758331299 0 1 1 184.29164358073226 291.3560930444529" fill-opacity="0.5019607843137255" clip-path="url(#bLRpOMwBrhAE)" stroke-opacity="1" stroke-linejoin="bevel" stroke-miterlimit="10" stroke-dasharray=""/><path fill="rgb(0,0,128)" stroke="rgb(0,0,128)" paint-order="fill" d="M 208.26648378372192 285.87200927734375 A 3.892307758331299 3.892307758331299 0 1 1 208.2664818375682 285.86811697023415" fill-opacity="0.5019607843137255" clip-path="url(#bLRpOMwBrhAE)" stroke-opacity="1" stroke-linejoin="bevel" stroke-miterlimit="10" stroke-dasharray=""/><path fill="rgb(0,0,128)" stroke="rgb(0,0,128)" paint-order="fill" d="M 232.24132204055786 274.7980041503906 A 3.892307758331299 3.892307758331299 0 1 1 232.24132009440413 274.79411184328103" fill-opacity="0.5019607843137255" clip-path="url(#bLRpOMwBrhAE)" stroke-opacity="1" stroke-linejoin="bevel" stroke-miterlimit="10" stroke-dasharray=""/><path fill="rgb(0,0,128)" stroke="rgb(0,0,128)" paint-order="fill" d="M 280.1909832954407 238.53799438476562 A 3.892307758331299 3.892307758331299 0 1 1 280.190981349287 238.534102077656" fill-opacity="0.5019607843137255" clip-path="url(#bLRpOMwBrhAE)" stroke-opacity="1" stroke-linejoin="bevel" stroke-miterlimit="10" stroke-dasharray=""/><path fill="rgb(0,0,128)" stroke="rgb(0,0,128)" paint-order="fill" d="M 328.14065980911255 198.60299682617188 A 3.892307758331299 3.892307758331299 0 1 1 328.14065786295885 198.59910451906225" fill-opacity="0.5019607843137255" clip-path="url(#bLRpOMwBrhAE)" stroke-opacity="1" stroke-linejoin="bevel" stroke-miterlimit="10" stroke-dasharray=""/><path fill="rgb(0,0,128)" stroke="rgb(0,0,128)" paint-order="fill" d="M 448.0148358345032 128.43499755859375 A 3.892307758331299 3.892307758331299 0 1 1 448.0148338883495 128.43110525148415" fill-opacity="0.5019607843137255" clip-path="url(#bLRpOMwBrhAE)" stroke-opacity="1" stroke-linejoin="bevel" stroke-miterlimit="10" stroke-dasharray=""/><path fill="rgb(0,0,128)" stroke="rgb(0,0,128)" paint-order="fill" d="M 567.8890118598938 60.32500076293945 A 3.892307758331299 3.892307758331299 0 1 1 567.8890099137401 60.32110845582984" fill-opacity="0.5019607843137255" clip-path="url(#bLRpOMwBrhAE)" stroke-opacity="1" stroke-linejoin="bevel" stroke-miterlimit="10" stroke-dasharray=""/><path fill="none" stroke="rgb(217,91,67)" paint-order="fill" d="M 84.5 345.32513427734375 L 89.70596313476562 342.27587890625 L 94.91192626953125 339.2265930175781 L 100.11788940429688 336.1773376464844 L 105.32386016845703 333.1280517578125 L 110.52982330322266 330.0787658691406 L 115.73578643798828 327.0295104980469 L 120.9417495727539 323.980224609375 L 126.14771270751953 320.9309387207031 L 131.3536834716797 317.8816833496094 L 136.5596466064453 314.8323974609375 L 156.42449951171875 303.197021484375 L 180.3993377685547 289.154296875 L 204.37417602539062 275.111572265625 L 228.34901428222656 261.0688781738281 L 276.2986755371094 232.9834442138672 L 324.24835205078125 204.89801025390625 L 444.1225280761719 134.68443298339844 L 563.9967041015625 64.47087097167969" stroke-opacity="1" stroke-linejoin="bevel" stroke-miterlimit="10" stroke-width="2" stroke-dasharray="6" clip-path="url(#VIuyDaKAOzko)"/><path fill="none" stroke="rgb(0,0,0)" paint-order="fill" d="M 84.5 333.5 L 590.5 333.5" stroke-opacity="1" stroke-linejoin="bevel" stroke-miterlimit="10" stroke-dasharray=""/><path fill="none" stroke="rgb(0,0,0)" paint-order="fill" d="M 84.5 339.5 L 84.5 331.5 M 162.5 339.5 L 162.5 331.5 M 240.5 339.5 L 240.5 331.5 M 318.5 339.5 L 318.5 331.5 M 395.5 339.5 L 395.5 331.5 M 473.5 339.5 L 473.5 331.5 M 551.5 339.5 L 551.5 331.5" stroke-opacity="1" stroke-linejoin="bevel" stroke-miterlimit="10" stroke-dasharray=""/><path fill="none" stroke="rgb(0,0,0)" paint-order="fill" d="M 84.5 337.5 L 84.5 333.5 M 100.5 337.5 L 100.5 333.5 M 115.5 337.5 L 115.5 333.5 M 131.5 337.5 L 131.5 333.5 M 146.5 337.5 L 146.5 333.5 M 162.5 337.5 L 162.5 333.5 M 177.5 337.5 L 177.5 333.5 M 193.5 337.5 L 193.5 333.5 M 209.5 337.5 L 209.5 333.5 M 224.5 337.5 L 224.5 333.5 M 240.5 337.5 L 240.5 333.5 M 255.5 337.5 L 255.5 333.5 M 271.5 337.5 L 271.5 333.5 M 286.5 337.5 L 286.5 333.5 M 302.5 337.5 L 302.5 333.5 M 318.5 337.5 L 318.5 333.5 M 333.5 337.5 L 333.5 333.5 M 349.5 337.5 L 349.5 333.5 M 364.5 337.5 L 364.5 333.5 M 380.5 337.5 L 380.5 333.5 M 395.5 337.5 L 395.5 333.5 M 411.5 337.5 L 411.5 333.5 M 427.5 337.5 L 427.5 333.5 M 442.5 337.5 L 442.5 333.5 M 458.5 337.5 L 458.5 333.5 M 473.5 337.5 L 473.5 333.5 M 489.5 337.5 L 489.5 333.5 M 504.5 337.5 L 504.5 333.5 M 520.5 337.5 L 520.5 333.5 M 536.5 337.5 L 536.5 333.5 M 551.5 337.5 L 551.5 333.5 M 567.5 337.5 L 567.5 333.5 M 582.5 337.5 L 582.5 333.5" stroke-opacity="1" stroke-linejoin="bevel" stroke-miterlimit="10" stroke-dasharray=""/><text fill="rgb(68,68,68)" stroke="none" font-family="Work Sans" font-size="15pt" font-style="normal" font-weight="normal" text-decoration="normal" x="79" y="357" text-anchor="start" dominant-baseline="alphabetic" transform="matrix(1, 0, 0, 1, 0.5, 0.5)" fill-opacity="1">0</text><text fill="rgb(68,68,68)" stroke="none" font-family="Work Sans" font-size="15pt" font-style="normal" font-weight="normal" text-decoration="normal" x="151.84616088867188" y="357" text-anchor="start" dominant-baseline="alphabetic" transform="matrix(1, 0, 0, 1, 0.5, 0.5)" fill-opacity="1">10</text><text fill="rgb(68,68,68)" stroke="none" font-family="Work Sans" font-size="15pt" font-style="normal" font-weight="normal" text-decoration="normal" x="229.6923065185547" y="357" text-anchor="start" dominant-baseline="alphabetic" transform="matrix(1, 0, 0, 1, 0.5, 0.5)" fill-opacity="1">20</text><text fill="rgb(68,68,68)" stroke="none" font-family="Work Sans" font-size="15pt" font-style="normal" font-weight="normal" text-decoration="normal" x="307.5384521484375" y="357" text-anchor="start" dominant-baseline="alphabetic" transform="matrix(1, 0, 0, 1, 0.5, 0.5)" fill-opacity="1">30</text><text fill="rgb(68,68,68)" stroke="none" font-family="Work Sans" font-size="15pt" font-style="normal" font-weight="normal" text-decoration="normal" x="385.3846130371094" y="357" text-anchor="start" dominant-baseline="alphabetic" transform="matrix(1, 0, 0, 1, 0.5, 0.5)" fill-opacity="1">40</text><text fill="rgb(68,68,68)" stroke="none" font-family="Work Sans" font-size="15pt" font-style="normal" font-weight="normal" text-decoration="normal" x="463.23077392578125" y="357" text-anchor="start" dominant-baseline="alphabetic" transform="matrix(1, 0, 0, 1, 0.5, 0.5)" fill-opacity="1">50</text><text fill="rgb(68,68,68)" stroke="none" font-family="Work Sans" font-size="15pt" font-style="normal" font-weight="normal" text-decoration="normal" x="541.076904296875" y="357" text-anchor="start" dominant-baseline="alphabetic" transform="matrix(1, 0, 0, 1, 0.5, 0.5)" fill-opacity="1">60</text><text fill="rgb(68,68,68)" stroke="none" font-family="helvetica" font-size="15pt" font-style="normal" font-weight="normal" text-decoration="normal" x="284.2265625" y="393" text-anchor="start" dominant-baseline="alphabetic" transform="matrix(1, 0, 0, 1, 0.5, 0.5)" fill-opacity="1">mRNA (nM)</text><path fill="none" stroke="rgb(0,0,0)" paint-order="fill" d="M 84.5 333.5 L 84.5 39.5" stroke-opacity="1" stroke-linejoin="bevel" stroke-miterlimit="10" stroke-dasharray=""/><path fill="none" stroke="rgb(0,0,0)" paint-order="fill" d="M 78.5 333.5 L 86.5 333.5 M 78.5 284.5 L 86.5 284.5 M 78.5 235.5 L 86.5 235.5 M 78.5 186.5 L 86.5 186.5 M 78.5 137.5 L 86.5 137.5 M 78.5 88.5 L 86.5 88.5 M 78.5 39.5 L 86.5 39.5" stroke-opacity="1" stroke-linejoin="bevel" stroke-miterlimit="10" stroke-dasharray=""/><path fill="none" stroke="rgb(0,0,0)" paint-order="fill" d="M 80.5 333.5 L 84.5 333.5 M 80.5 323.5 L 84.5 323.5 M 80.5 313.5 L 84.5 313.5 M 80.5 304.5 L 84.5 304.5 M 80.5 294.5 L 84.5 294.5 M 80.5 284.5 L 84.5 284.5 M 80.5 274.5 L 84.5 274.5 M 80.5 264.5 L 84.5 264.5 M 80.5 255.5 L 84.5 255.5 M 80.5 245.5 L 84.5 245.5 M 80.5 235.5 L 84.5 235.5 M 80.5 225.5 L 84.5 225.5 M 80.5 215.5 L 84.5 215.5 M 80.5 206.5 L 84.5 206.5 M 80.5 196.5 L 84.5 196.5 M 80.5 186.5 L 84.5 186.5 M 80.5 176.5 L 84.5 176.5 M 80.5 166.5 L 84.5 166.5 M 80.5 157.5 L 84.5 157.5 M 80.5 147.5 L 84.5 147.5 M 80.5 137.5 L 84.5 137.5 M 80.5 127.5 L 84.5 127.5 M 80.5 117.5 L 84.5 117.5 M 80.5 108.5 L 84.5 108.5 M 80.5 98.5 L 84.5 98.5 M 80.5 88.5 L 84.5 88.5 M 80.5 78.5 L 84.5 78.5 M 80.5 68.5 L 84.5 68.5 M 80.5 59.5 L 84.5 59.5 M 80.5 49.5 L 84.5 49.5 M 80.5 39.5 L 84.5 39.5" stroke-opacity="1" stroke-linejoin="bevel" stroke-miterlimit="10" stroke-dasharray=""/><text fill="rgb(68,68,68)" stroke="none" font-family="Work Sans" font-size="15pt" font-style="normal" font-weight="normal" text-decoration="normal" x="63" y="339.5" text-anchor="start" dominant-baseline="alphabetic" transform="matrix(1, 0, 0, 1, 0.5, 0.5)" fill-opacity="1">0</text><text fill="rgb(68,68,68)" stroke="none" font-family="Work Sans" font-size="15pt" font-style="normal" font-weight="normal" text-decoration="normal" x="53" y="290.5" text-anchor="start" dominant-baseline="alphabetic" transform="matrix(1, 0, 0, 1, 0.5, 0.5)" fill-opacity="1">50</text><text fill="rgb(68,68,68)" stroke="none" font-family="Work Sans" font-size="15pt" font-style="normal" font-weight="normal" text-decoration="normal" x="43" y="241.5" text-anchor="start" dominant-baseline="alphabetic" transform="matrix(1, 0, 0, 1, 0.5, 0.5)" fill-opacity="1">100</text><text fill="rgb(68,68,68)" stroke="none" font-family="Work Sans" font-size="15pt" font-style="normal" font-weight="normal" text-decoration="normal" x="43" y="192.5" text-anchor="start" dominant-baseline="alphabetic" transform="matrix(1, 0, 0, 1, 0.5, 0.5)" fill-opacity="1">150</text><text fill="rgb(68,68,68)" stroke="none" font-family="Work Sans" font-size="15pt" font-style="normal" font-weight="normal" text-decoration="normal" x="43" y="143.5" text-anchor="start" dominant-baseline="alphabetic" transform="matrix(1, 0, 0, 1, 0.5, 0.5)" fill-opacity="1">200</text><text fill="rgb(68,68,68)" stroke="none" font-family="Work Sans" font-size="15pt" font-style="normal" font-weight="normal" text-decoration="normal" x="43" y="94.5" text-anchor="start" dominant-baseline="alphabetic" transform="matrix(1, 0, 0, 1, 0.5, 0.5)" fill-opacity="1">250</text><text fill="rgb(68,68,68)" stroke="none" font-family="Work Sans" font-size="15pt" font-style="normal" font-weight="normal" text-decoration="normal" x="43" y="45.5" text-anchor="start" dominant-baseline="alphabetic" transform="matrix(1, 0, 0, 1, 0.5, 0.5)" fill-opacity="1">300</text><text fill="rgb(68,68,68)" stroke="none" font-family="helvetica" font-size="15pt" font-style="normal" font-weight="normal" text-decoration="normal" x="-61.1474609375" y="182" text-anchor="start" dominant-baseline="alphabetic" transform="matrix(6.123233995736766e-17, -1, 1, 6.123233995736766e-17, -160.5, 211.5)" fill-opacity="1">Fluorescence (a.u.)</text><path fill="rgb(255,255,255)" stroke="none" paint-order="stroke" d="M 284.5 212.5 L 429.7344207763672 212.5 L 429.7344207763672 233.5 L 284.5 233.5 Z" fill-opacity="1" clip-path="url(#XXTEKUgSnvOR)"/><text fill="rgb(68,68,68)" stroke="none" font-family="helvetica" font-size="14pt" font-style="normal" font-weight="normal" text-decoration="normal" x="284" y="229" text-anchor="start" dominant-baseline="alphabetic" clip-path="url(#XXTEKUgSnvOR)" transform="matrix(1, 0, 0, 1, 0.5, 0.5)" fill-opacity="1">y= 4.65x + -12.07</text><text fill="rgb(68,68,68)" stroke="none" font-family="helvetica" font-size="18pt" font-style="normal" font-weight="bold" text-decoration="normal" x="14" y="29" text-anchor="start" dominant-baseline="alphabetic" transform="matrix(1, 0, 0, 1, 0.5, 0.5)" fill-opacity="1">A) MGapt Calibration: Ex/Em 610/650, Gain 150 </text></svg>