<svg version="1.1" xmlns="http://www.w3.org/2000/svg" width="600" height="400"><defs><clipPath id="SUhlyoLMzKsL"><path fill="none" stroke="none" d="M 74.5 39.5 L 548.5 39.5 L 548.5 333.5 L 74.5 333.5 L 74.5 39.5"/></clipPath><clipPath id="iqCSzPddCZqm"><path fill="none" stroke="none" d="M 74.5 39.5 L 548.5 39.5 L 548.5 333.5 L 74.5 333.5 L 74.5 39.5"/></clipPath><clipPath id="xobZaGObWShl"><path fill="none" stroke="none" d="M 74.5 39.5 L 548.5 39.5 L 548.5 333.5 L 74.5 333.5 L 74.5 39.5"/></clipPath><clipPath id="yOucgsEeCFKT"><path fill="none" stroke="none" d="M 74.5 39.5 L 548.5 39.5 L 548.5 333.5 L 74.5 333.5 L 74.5 39.5"/></clipPath><clipPath id="dtUZMxpTPQFm"><path fill="none" stroke="none" d="M 74.5 39.5 L 548.5 39.5 L 548.5 333.5 L 74.5 333.5 L 74.5 39.5"/></clipPath><clipPath id="bCTBxAkrFvAd"><path fill="none" stroke="none" d="M 74.5 39.5 L 548.5 39.5 L 548.5 333.5 L 74.5 333.5 L 74.5 39.5"/></clipPath></defs><path fill="rgb(255,255,255)" stroke="none" paint-order="stroke" d="M 0.5 0.5 L 600.5 0.5 L 600.5 400.5 L 0.5 400.5 L 0.5 0.5" fill-opacity="1"/><rect fill="#FFFFFF" stroke="none" x="74" y="39" width="474" height="294" transform="matrix(1, 0, 0, 1, 0.5, 0.5)"/><path fill="rgb(255,255,255)" stroke="none" paint-order="stroke" d="M 74.5 39.5 L 548.5 39.5 L 548.5 333.5 L 74.5 333.5 L 74.5 39.5" fill-opacity="1"/><path fill="none" stroke="rgb(255,0,255)" paint-order="fill" d="M 74.5 333.5 L 75.5554428100586 333.5 L 76.61088562011719 333.5 L 77.66633605957031 333.5 L 78.7217788696289 333.5 L 79.7772216796875 333.47613525390625 L 80.8326644897461 331.4151916503906 L 81.88810729980469 328.4664001464844 L 82.94355773925781 327.4639587402344 L 83.9990005493164 327.333251953125 L 85.054443359375 327.3253479003906 L 86.1098861694336 327.0767517089844 L 87.16532897949219 325.2129821777344 L 88.22077178955078 322.9267272949219 L 89.2762222290039 321.7773132324219 L 90.3316650390625 321.3749694824219 L 91.3871078491211 321.22467041015625 L 92.44255065917969 320.7916259765625 L 93.49799346923828 319.2101745605469 L 94.5534439086914 317.3028259277344 L 95.60888671875 316.08935546875 L 96.6643295288086 315.49566650390625 L 97.71977233886719 315.18438720703125 L 98.77521514892578 314.63397216796875 L 99.8306655883789 313.26983642578125 L 100.8861083984375 311.61187744140625 L 101.9415512084961 310.3820495605469 L 102.99699401855469 309.6537780761719 L 104.05243682861328 309.1949462890625 L 105.10787963867188 308.56158447265625 L 106.163330078125 307.3476257324219 L 107.2187728881836 305.86871337890625 L 108.27421569824219 304.6504211425781 L 109.32965850830078 303.8280944824219 L 110.38510131835938 303.24566650390625 L 111.4405517578125 302.5481872558594 L 112.4959945678711 301.4342956542969 L 113.55143737792969 300.0884094238281 L 114.60688018798828 298.89556884765625 L 115.66232299804688 298.00836181640625 L 116.71776580810547 297.3270263671875 L 117.7732162475586 296.5774841308594 L 118.82865905761719 295.52880859375 L 119.88410186767578 294.2828063964844 L 120.93954467773438 293.1207275390625 L 121.99498748779297 292.1898193359375 L 123.0504379272461 291.431396484375 L 124.10588073730469 290.638671875 L 125.16132354736328 289.63153076171875 L 126.21676635742188 288.4605407714844 L 127.27220916748047 287.32958984375 L 128.32765197753906 286.3702392578125 L 129.3831024169922 285.5528869628906 L 130.43853759765625 284.7242126464844 L 131.49398803710938 283.7426452636719 L 132.5494384765625 282.62774658203125 L 133.60487365722656 281.5257873535156 L 134.6603240966797 280.54888916015625 L 135.71575927734375 279.6871337890625 L 136.77120971679688 278.8286437988281 L 137.82666015625 277.86212158203125 L 138.88209533691406 276.788818359375 L 139.9375457763672 275.7125244140625 L 140.99298095703125 274.7256774902344 L 142.04843139648438 273.8309020996094 L 143.1038818359375 272.94793701171875 L 144.15931701660156 271.98956298828125 L 145.2147674560547 270.9468994140625 L 146.27020263671875 269.89251708984375 L 147.32565307617188 268.9009094238281 L 148.381103515625 267.9819641113281 L 149.43653869628906 267.0791320800781 L 150.4919891357422 266.1244812011719 L 151.54742431640625 265.10418701171875 L 152.60287475585938 264.0680847167969 L 153.65830993652344 263.0751037597656 L 154.71376037597656 262.13873291015625 L 155.7692108154297 261.2199401855469 L 156.82464599609375 260.2663269042969 L 157.88009643554688 259.2621765136719 L 158.93553161621094 258.2410888671875 L 159.99098205566406 257.2488098144531 L 161.0464324951172 256.30010986328125 L 162.10186767578125 255.36874389648438 L 163.15731811523438 254.41456604003906 L 164.21275329589844 253.4219970703125 L 165.26820373535156 252.41299438476562 L 166.3236541748047 251.4226531982422 L 167.37908935546875 250.46543884277344 L 168.43453979492188 249.52426147460938 L 169.48997497558594 248.5687255859375 L 170.54542541503906 247.58433532714844 L 171.6008758544922 246.58499145507812 L 172.65631103515625 245.5972137451172 L 173.71176147460938 244.63430786132812 L 174.76719665527344 243.68560791015625 L 175.82264709472656 242.72837829589844 L 176.8780975341797 241.74972534179688 L 177.93353271484375 240.75804138183594 L 178.98898315429688 239.77304077148438 L 180.04441833496094 238.80648803710938 L 181.09986877441406 237.85214233398438 L 182.15530395507812 236.89315795898438 L 183.21075439453125 235.91851806640625 L 184.26620483398438 234.93283081054688 L 185.32164001464844 233.95062255859375 L 186.37709045410156 232.9818878173828 L 187.43252563476562 232.0233917236328 L 188.48797607421875 231.0628204345703 L 189.54342651367188 230.09095764160156 L 190.59886169433594 229.10997009277344 L 191.65431213378906 228.13040161132812 L 192.70974731445312 227.16053771972656 L 193.76519775390625 226.1990509033203 L 194.82064819335938 225.2371368408203 L 195.87608337402344 224.2672119140625 L 196.93153381347656 223.2899169921875 L 197.98696899414062 222.31275939941406 L 199.04241943359375 221.3424835205078 L 200.09786987304688 220.3789825439453 L 201.15330505371094 219.41598510742188 L 202.20875549316406 218.44741821289062 L 203.26419067382812 217.47303771972656 L 204.31964111328125 216.498046875 L 205.3750762939453 215.5278778076172 L 206.43052673339844 214.5630645751953 L 207.48597717285156 213.59927368164062 L 208.54141235351562 212.63172912597656 L 209.59686279296875 211.65963745117188 L 210.6522979736328 210.6865997314453 L 211.70774841308594 209.7168426513672 L 212.76319885253906 208.75128173828125 L 213.81863403320312 207.7869873046875 L 214.87408447265625 206.82022094726562 L 215.9295196533203 205.84999084472656 L 216.98497009277344 204.87867736816406 L 218.04042053222656 203.90957641601562 L 219.09585571289062 202.94371032714844 L 220.15130615234375 201.97914123535156 L 221.2067413330078 201.01304626464844 L 222.26219177246094 200.04434204101562 L 223.31764221191406 199.0745849609375 L 224.37307739257812 198.10626220703125 L 225.42852783203125 197.14041137695312 L 226.4839630126953 196.17581176757812 L 227.53941345214844 195.2103271484375 L 228.59486389160156 194.242919921875 L 229.65029907226562 193.27455139160156 L 230.70574951171875 192.30711364746094 L 231.7611846923828 191.34153747558594 L 232.81663513183594 190.37709045410156 L 233.8720703125 189.41220092773438 L 234.92752075195312 188.44595336914062 L 235.98297119140625 187.47886657714844 L 237.0384063720703 186.51235961914062 L 238.09385681152344 185.5472412109375 L 239.1492919921875 184.58314514160156 L 240.20474243164062 183.61888122558594 L 241.26019287109375 182.65365600585938 L 242.3156280517578 181.6877899169922 L 243.37107849121094 180.7222442626953 L 244.426513671875 179.75775146484375 L 245.48196411132812 178.79412841796875 L 246.53741455078125 177.83053588867188 L 247.5928497314453 176.8663330078125 L 248.64830017089844 175.90159606933594 L 249.7037353515625 174.9370574951172 L 250.75918579101562 173.9733123779297 L 251.81463623046875 173.0102996826172 L 252.8700714111328 172.04745483398438 L 253.92552185058594 171.08421325683594 L 254.98095703125 170.12060546875 L 256.0364074707031 169.1571044921875 L 257.09185791015625 168.1942138671875 L 258.1473083496094 167.23193359375 L 259.2027282714844 166.2698974609375 L 260.2581787109375 165.30764770507812 L 261.3136291503906 164.34515380859375 L 262.36907958984375 163.38275146484375 L 263.4245300292969 162.42079162597656 L 264.4799499511719 161.45938110351562 L 265.535400390625 160.49822998046875 L 266.5908508300781 159.53701782226562 L 267.64630126953125 158.57565307617188 L 268.7017517089844 157.6143798828125 L 269.7571716308594 156.65347290039062 L 270.8126220703125 155.69302368164062 L 271.8680725097656 154.7328643798828 L 272.92352294921875 153.7727508544922 L 273.9789733886719 152.8125762939453 L 275.0343933105469 151.85250854492188 L 276.08984375 150.8927459716797 L 277.1452941894531 149.93338012695312 L 278.20074462890625 148.97433471679688 L 279.25616455078125 148.01539611816406 L 280.3116149902344 147.05650329589844 L 281.3670654296875 146.09771728515625 L 282.4225158691406 145.1392059326172 L 283.47796630859375 144.1810760498047 L 284.53338623046875 143.2232666015625 L 285.5888366699219 142.26564025878906 L 286.644287109375 141.30812072753906 L 287.6997375488281 140.35073852539062 L 288.75518798828125 139.39364624023438 L 289.81060791015625 138.43690490722656 L 290.8660583496094 137.48049926757812 L 291.9215087890625 136.52432250976562 L 292.9769592285156 135.56832885742188 L 294.03240966796875 134.61251831054688 L 295.08782958984375 133.65701293945312 L 296.1432800292969 132.7018585205078 L 297.19873046875 131.74705505371094 L 298.2541809082031 130.7925567626953 L 299.30963134765625 129.83828735351562 L 300.36505126953125 128.88427734375 L 301.4205017089844 127.93059539794922 L 302.4759521484375 126.97728729248047 L 303.5314025878906 126.02437591552734 L 304.58685302734375 125.07181549072266 L 305.64227294921875 124.11957550048828 L 306.6977233886719 123.16766357421875 L 307.753173828125 122.21612548828125 L 308.8086242675781 121.26502227783203 L 309.86407470703125 120.31436920166016 L 310.91949462890625 119.36415100097656 L 311.9749450683594 118.41434478759766 L 313.0303955078125 117.4649658203125 L 314.0858459472656 116.51604461669922 L 315.14129638671875 115.5676498413086 L 316.19671630859375 114.61979675292969 L 317.2521667480469 113.67249298095703 L 318.3076171875 112.72573852539062 L 319.3630676269531 111.779541015625 L 320.41851806640625 110.83395385742188 L 321.47393798828125 109.88902282714844 L 322.5293884277344 108.9448013305664 L 323.5848388671875 108.00130462646484 L 324.6402893066406 107.05854797363281 L 325.69573974609375 106.11658477783203 L 326.75115966796875 105.17545318603516 L 327.8066101074219 104.2352294921875 L 328.862060546875 103.29597473144531 L 329.9175109863281 102.35775756835938 L 330.9729309082031 101.4206314086914 L 332.02838134765625 100.48466491699219 L 333.0838317871094 99.5499496459961 L 334.1392822265625 98.61659240722656 L 335.1947326660156 97.68472290039062 L 336.2501525878906 96.75446319580078 L 337.30560302734375 95.82594299316406 L 338.3610534667969 94.89932250976562 L 339.41650390625 93.97477722167969 L 340.4719543457031 93.05253601074219 L 341.5273742675781 92.1328353881836 L 342.58282470703125 91.21595001220703 L 343.6382751464844 90.30219268798828 L 344.6937255859375 89.39191436767578 L 345.7491760253906 88.48550415039062 L 346.8045959472656 87.58341217041016 L 347.86004638671875 86.68611907958984 L 348.9154968261719 85.79414367675781 L 349.970947265625 84.90797424316406 L 351.0263977050781 84.02808380126953 L 352.0818176269531 83.15487670898438 L 353.13726806640625 82.28861999511719 L 354.1927185058594 81.42945861816406 L 355.2481689453125 80.577392578125 L 356.3036193847656 79.7322998046875 L 357.3590393066406 78.89399719238281 L 358.41448974609375 78.06230926513672 L 359.4699401855469 77.23713684082031 L 360.525390625 76.41846466064453 L 361.5808410644531 75.60636138916016 L 362.6362609863281 74.8010025024414 L 363.69171142578125 74.00262451171875 L 364.7471618652344 73.21157836914062 L 365.8026123046875 72.4283218383789 L 366.8580627441406 71.65345001220703 L 367.9134826660156 70.88771057128906 L 368.96893310546875 70.13201141357422 L 370.0243835449219 69.38743591308594 L 371.079833984375 68.6552734375 L 372.1352844238281 67.93702697753906 L 373.1907043457031 67.2343978881836 L 374.24615478515625 66.54932403564453 L 375.3016052246094 65.8839111328125 L 376.3570556640625 65.24041748046875 L 377.4125061035156 64.62113952636719 L 378.4679260253906 64.02836608886719 L 379.52337646484375 63.4642448425293 L 380.5788269042969 62.930694580078125 L 381.63427734375 62.429283142089844 L 382.6897277832031 61.96115493774414 L 383.7451477050781 61.526954650878906 L 384.80059814453125 61.12678146362305 L 385.8560485839844 60.76020050048828 L 386.9114990234375 60.4262580871582 L 387.9669189453125 60.12355041503906 L 389.0223693847656 59.85032653808594 L 390.07781982421875 59.60456466674805 L 391.1332702636719 59.38408279418945 L 392.188720703125 59.18663787841797 L 393.244140625 59.00999450683594 L 394.2995910644531 58.85200119018555 L 395.35504150390625 58.71061706542969 L 396.4104919433594 58.583953857421875 L 397.4659423828125 58.47028732299805 L 398.5213623046875 58.36806106567383 L 399.5768127441406 58.2758903503418 L 400.63226318359375 58.19253921508789 L 401.6877136230469 58.11692428588867 L 402.7431640625 58.048099517822266 L 403.798583984375 57.98523712158203 L 404.8540344238281 57.9276123046875 L 405.90948486328125 57.87459945678711 L 406.9649353027344 57.825653076171875 L 408.0203857421875 57.78030776977539 L 409.0758056640625 57.73815155029297 L 410.1312561035156 57.69883346557617 L 411.18670654296875 57.662044525146484 L 412.2421569824219 57.62752151489258 L 413.297607421875 57.595027923583984 L 414.35302734375 57.56436538696289 L 415.4084777832031 57.53535461425781 L 416.46392822265625 57.50784683227539 L 417.5193786621094 57.48169708251953 L 418.5748291015625 57.45679473876953 L 419.6302490234375 57.43303298950195 L 420.6856994628906 57.41031265258789 L 421.74114990234375 57.38855743408203 L 422.7966003417969 57.36769104003906 L 423.85205078125 57.34764862060547 L 424.907470703125 57.328369140625 L 425.9629211425781 57.3098030090332 L 427.01837158203125 57.29189682006836 L 428.0738220214844 57.27460861206055 L 429.1292724609375 57.257904052734375 L 430.1846923828125 57.24174118041992 L 431.2401428222656 57.22608947753906 L 432.29559326171875 57.21091842651367 L 433.3510437011719 57.196205139160156 L 434.406494140625 57.18191909790039 L 435.4619140625 57.16803741455078 L 436.5173645019531 57.154541015625 L 437.57281494140625 57.14141082763672 L 438.6282653808594 57.12862777709961 L 439.6837158203125 57.116172790527344 L 440.7391357421875 57.104034423828125 L 441.7945861816406 57.09218978881836 L 442.85003662109375 57.08063507080078 L 443.9054870605469 57.06935119628906 L 444.9609069824219 57.05833053588867 L 446.016357421875 57.04755401611328 L 447.0718078613281 57.03702163696289 L 448.12725830078125 57.02671432495117 L 449.1827087402344 57.016632080078125 L 450.2381286621094 57.00675582885742 L 451.2935791015625 56.99708557128906 L 452.3490295410156 56.987606048583984 L 453.40447998046875 56.97831726074219 L 454.4599304199219 56.96921157836914 L 455.5153503417969 56.96027374267578 L 456.57080078125 56.951507568359375 L 457.6262512207031 56.94290542602539 L 458.68170166015625 56.93445587158203 L 459.7371520996094 56.9261589050293 L 460.7925720214844 56.918006896972656 L 461.8480224609375 56.909996032714844 L 462.9034729003906 56.902122497558594 L 463.95892333984375 56.89438247680664 L 465.0143737792969 56.88676834106445 L 466.0697937011719 56.87928009033203 L 467.125244140625 56.871910095214844 L 468.1806945800781 56.86465835571289 L 469.23614501953125 56.85751724243164 L 470.2915954589844 56.850486755371094 L 471.3470153808594 56.843563079833984 L 472.4024658203125 56.83674240112305 L 473.4579162597656 56.830020904541016 L 474.51336669921875 56.823402404785156 L 475.5688171386719 56.816871643066406 L 476.6242370605469 56.81044006347656 L 477.6796875 56.80409240722656 L 478.7351379394531 56.79783630371094 L 479.79058837890625 56.791664123535156 L 480.8460388183594 56.78557586669922 L 481.9014587402344 56.77956771850586 L 482.9569091796875 56.77363967895508 L 484.0123596191406 56.76778793334961 L 485.06781005859375 56.76200866699219 L 486.1232604980469 56.75630569458008 L 487.1786804199219 56.750675201416016 L 488.234130859375 56.74510955810547 L 489.2895812988281 56.73961639404297 L 490.34503173828125 56.734188079833984 L 491.4004821777344 56.728824615478516 L 492.4559020996094 56.72352600097656 L 493.5113525390625 56.718284606933594 L 494.5668029785156 56.71310806274414 L 495.62225341796875 56.70798873901367 L 496.6777038574219 56.70293045043945 L 497.7331237792969 56.69792556762695 L 498.78857421875 56.69297790527344 L 499.8440246582031 56.68808364868164 L 500.89947509765625 56.68324279785156 L 501.95489501953125 56.6784553527832 L 503.0103454589844 56.6737174987793 L 504.0657958984375 56.669029235839844 L 505.1212463378906 56.664390563964844 L 506.17669677734375 56.65979766845703 L 507.23211669921875 56.65525436401367 L 508.2875671386719 56.6507568359375 L 509.343017578125 56.646305084228516 L 510.3984680175781 56.64189529418945 L 511.45391845703125 56.63753128051758 L 512.5093383789062 56.63320541381836 L 513.5648193359375 56.62892532348633 L 514.6202392578125 56.62468719482422 L 515.6756591796875 56.620487213134766 L 516.7311401367188 56.61632537841797 L 517.7865600585938 56.612205505371094 L 518.842041015625 56.60811996459961 L 519.8974609375 56.60407638549805 L 520.952880859375 56.600067138671875 L 522.0083618164062 56.596092224121094 L 523.0637817382812 56.59215545654297 L 524.1192626953125 56.588253021240234 L 525.1746826171875 56.58438491821289 L 526.2301025390625 56.58054733276367 L 527.2855834960938 56.57674789428711 L 528.3410034179688 56.57297897338867 L 529.396484375 56.56924057006836 L 530.451904296875 56.56553268432617 L 531.50732421875 56.561859130859375 L 532.5628051757812 56.5582160949707 L 533.6182250976562 56.55459976196289 L 534.6737060546875 56.5510139465332 L 535.7291259765625 56.54745864868164 L 536.7845458984375 56.54393005371094 L 537.8400268554688 56.54043197631836 L 538.8954467773438 56.53696060180664 L 539.950927734375 56.53351593017578 L 541.00634765625 56.53009796142578 L 542.061767578125 56.52670669555664 L 543.1172485351562 56.52334213256836 L 544.1726684570312 56.52000045776367 L 545.2281494140625 56.516685485839844 L 546.2835693359375 56.513397216796875 L 547.3389892578125 56.5101318359375 L 548.3944702148438 56.50688934326172 L 549.4498901367188 56.5036735534668 L 550.50537109375 56.50048065185547 L 551.560791015625 56.49730682373047 L 552.6162109375 56.49415969848633 L 553.6716918945312 56.49103546142578 L 554.7271118164062 56.48793029785156 L 555.7825927734375 56.4848518371582 L 556.8380126953125 56.48179244995117 L 557.8934326171875 56.47875213623047 L 558.9489135742188 56.47573471069336 L 560.0043334960938 56.47273635864258 L 561.059814453125 56.46976089477539 L 562.115234375 56.46680450439453 L 563.170654296875 56.4638671875 L 564.2261352539062 56.4609489440918 L 565.2815551757812 56.45805358886719 L 566.3370361328125 56.45517349243164 L 567.3924560546875 56.45231628417969 L 568.4478759765625 56.4494743347168 L 569.5033569335938 56.446651458740234 L 570.5587768554688 56.44384765625 L 571.6142578125 56.44105911254883 L 572.669677734375 56.438289642333984 L 573.72509765625 56.43553924560547 L 574.7805786132812 56.432804107666016 L 575.8359985351562 56.43008804321289 L 576.8914794921875 56.42738723754883 L 577.9468994140625 56.42470169067383 L 579.0023193359375 56.422035217285156 L 580.0578002929688 56.41938400268555 L 581.1132202148438 56.416748046875 L 582.168701171875 56.414127349853516 L 583.22412109375 56.41152572631836 L 584.279541015625 56.408935546875 L 585.3350219726562 56.40636444091797 L 586.3904418945312 56.403804779052734 L 587.4458618164062 56.40126037597656 L 588.5013427734375 56.39873504638672 L 589.5567626953125 56.39622116088867 L 590.6122436523438 56.39371871948242 L 591.6676635742188 56.3912353515625 L 592.7230834960938 56.388763427734375 L 593.778564453125 56.38630676269531 L 594.833984375 56.38386154174805 L 595.8894653320312 56.381431579589844 L 596.9448852539062 56.3790168762207 L 598.0003051757812 56.37661361694336 L 599.0557861328125 56.37422561645508 L 600.1112060546875 56.371849060058594 L 601.1666870117188 56.369483947753906" stroke-opacity="1" stroke-linejoin="bevel" stroke-miterlimit="10" stroke-width="3" stroke-dasharray="" clip-path="url(#xobZaGObWShl)"/><path fill="rgb(0,0,128)" stroke="rgb(0,0,128)" paint-order="fill" d="M 76.39600002765656 333.2401123046875 A 1.8960000276565552 1.8960000276565552 0 1 1 76.39599907965662 333.2382163049758" fill-opacity="0.2" clip-path="url(#yOucgsEeCFKT)" stroke-opacity="1" stroke-linejoin="bevel" stroke-miterlimit="10" stroke-dasharray=""/><path fill="rgb(0,0,128)" stroke="rgb(0,0,128)" paint-order="fill" d="M 85.87600338459015 333.270263671875 A 1.8960000276565552 1.8960000276565552 0 1 1 85.87600243659021 333.2683676721633" fill-opacity="0.2" clip-path="url(#yOucgsEeCFKT)" stroke-opacity="1" stroke-linejoin="bevel" stroke-miterlimit="10" stroke-dasharray=""/><path fill="rgb(0,0,128)" stroke="rgb(0,0,128)" paint-order="fill" d="M 95.35599911212921 333.2401123046875 A 1.8960000276565552 1.8960000276565552 0 1 1 95.35599816412928 333.2382163049758" fill-opacity="0.2" clip-path="url(#yOucgsEeCFKT)" stroke-opacity="1" stroke-linejoin="bevel" stroke-miterlimit="10" stroke-dasharray=""/><path fill="rgb(0,0,128)" stroke="rgb(0,0,128)" paint-order="fill" d="M 104.8360024690628 333.0892639160156 A 1.8960000276565552 1.8960000276565552 0 1 1 104.83600152106287 333.08736791630395" fill-opacity="0.2" clip-path="url(#yOucgsEeCFKT)" stroke-opacity="1" stroke-linejoin="bevel" stroke-miterlimit="10" stroke-dasharray=""/><path fill="rgb(0,0,128)" stroke="rgb(0,0,128)" paint-order="fill" d="M 114.31599819660187 332.0334167480469 A 1.8960000276565552 1.8960000276565552 0 1 1 114.31599724860193 332.0315207483352" fill-opacity="0.2" clip-path="url(#yOucgsEeCFKT)" stroke-opacity="1" stroke-linejoin="bevel" stroke-miterlimit="10" stroke-dasharray=""/><path fill="rgb(0,0,128)" stroke="rgb(0,0,128)" paint-order="fill" d="M 123.79600155353546 329.378662109375 A 1.8960000276565552 1.8960000276565552 0 1 1 123.79600060553553 329.3767661096633" fill-opacity="0.2" clip-path="url(#yOucgsEeCFKT)" stroke-opacity="1" stroke-linejoin="bevel" stroke-miterlimit="10" stroke-dasharray=""/><path fill="rgb(0,0,128)" stroke="rgb(0,0,128)" paint-order="fill" d="M 133.27600491046906 324.0692138671875 A 1.8960000276565552 1.8960000276565552 0 1 1 133.27600396246913 324.0673178674758" fill-opacity="0.2" clip-path="url(#yOucgsEeCFKT)" stroke-opacity="1" stroke-linejoin="bevel" stroke-miterlimit="10" stroke-dasharray=""/><path fill="rgb(0,0,128)" stroke="rgb(0,0,128)" paint-order="fill" d="M 142.75600063800812 316.0748596191406 A 1.8960000276565552 1.8960000276565552 0 1 1 142.7559996900082 316.07296361942895" fill-opacity="0.2" clip-path="url(#yOucgsEeCFKT)" stroke-opacity="1" stroke-linejoin="bevel" stroke-miterlimit="10" stroke-dasharray=""/><path fill="rgb(0,0,128)" stroke="rgb(0,0,128)" paint-order="fill" d="M 152.23599636554718 306.0894470214844 A 1.8960000276565552 1.8960000276565552 0 1 1 152.23599541754726 306.0875510217727" fill-opacity="0.2" clip-path="url(#yOucgsEeCFKT)" stroke-opacity="1" stroke-linejoin="bevel" stroke-miterlimit="10" stroke-dasharray=""/><path fill="rgb(0,0,128)" stroke="rgb(0,0,128)" paint-order="fill" d="M 161.7160073518753 294.6258239746094 A 1.8960000276565552 1.8960000276565552 0 1 1 161.71600640387538 294.6239279748977" fill-opacity="0.2" clip-path="url(#yOucgsEeCFKT)" stroke-opacity="1" stroke-linejoin="bevel" stroke-miterlimit="10" stroke-dasharray=""/><path fill="rgb(0,0,128)" stroke="rgb(0,0,128)" paint-order="fill" d="M 171.19600307941437 281.8348693847656 A 1.8960000276565552 1.8960000276565552 0 1 1 171.19600213141445 281.83297338505395" fill-opacity="0.2" clip-path="url(#yOucgsEeCFKT)" stroke-opacity="1" stroke-linejoin="bevel" stroke-miterlimit="10" stroke-dasharray=""/><path fill="rgb(0,0,128)" stroke="rgb(0,0,128)" paint-order="fill" d="M 180.67599880695343 268.62152099609375 A 1.8960000276565552 1.8960000276565552 0 1 1 180.6759978589535 268.6196249963821" fill-opacity="0.2" clip-path="url(#yOucgsEeCFKT)" stroke-opacity="1" stroke-linejoin="bevel" stroke-miterlimit="10" stroke-dasharray=""/><path fill="rgb(0,0,128)" stroke="rgb(0,0,128)" paint-order="fill" d="M 190.1559945344925 254.59368896484375 A 1.8960000276565552 1.8960000276565552 0 1 1 190.15599358649257 254.5917929651321" fill-opacity="0.2" clip-path="url(#yOucgsEeCFKT)" stroke-opacity="1" stroke-linejoin="bevel" stroke-miterlimit="10" stroke-dasharray=""/><path fill="rgb(0,0,128)" stroke="rgb(0,0,128)" paint-order="fill" d="M 199.63600552082062 239.93234252929688 A 1.8960000276565552 1.8960000276565552 0 1 1 199.6360045728207 239.93044652958523" fill-opacity="0.2" clip-path="url(#yOucgsEeCFKT)" stroke-opacity="1" stroke-linejoin="bevel" stroke-miterlimit="10" stroke-dasharray=""/><path fill="rgb(0,0,128)" stroke="rgb(0,0,128)" paint-order="fill" d="M 209.11600124835968 227.08102416992188 A 1.8960000276565552 1.8960000276565552 0 1 1 209.11600030035976 227.07912817021023" fill-opacity="0.2" clip-path="url(#yOucgsEeCFKT)" stroke-opacity="1" stroke-linejoin="bevel" stroke-miterlimit="10" stroke-dasharray=""/><path fill="rgb(0,0,128)" stroke="rgb(0,0,128)" paint-order="fill" d="M 218.59599697589874 214.0487060546875 A 1.8960000276565552 1.8960000276565552 0 1 1 218.59599602789882 214.04681005497585" fill-opacity="0.2" clip-path="url(#yOucgsEeCFKT)" stroke-opacity="1" stroke-linejoin="bevel" stroke-miterlimit="10" stroke-dasharray=""/><path fill="rgb(0,0,128)" stroke="rgb(0,0,128)" paint-order="fill" d="M 228.0759927034378 200.8052215576172 A 1.8960000276565552 1.8960000276565552 0 1 1 228.07599175543788 200.80332555790554" fill-opacity="0.2" clip-path="url(#yOucgsEeCFKT)" stroke-opacity="1" stroke-linejoin="bevel" stroke-miterlimit="10" stroke-dasharray=""/><path fill="rgb(0,0,128)" stroke="rgb(0,0,128)" paint-order="fill" d="M 237.55600368976593 188.31591796875 A 1.8960000276565552 1.8960000276565552 0 1 1 237.556002741766 188.31402196903835" fill-opacity="0.2" clip-path="url(#yOucgsEeCFKT)" stroke-opacity="1" stroke-linejoin="bevel" stroke-miterlimit="10" stroke-dasharray=""/><path fill="rgb(0,0,128)" stroke="rgb(0,0,128)" paint-order="fill" d="M 247.035999417305 176.8221435546875 A 1.8960000276565552 1.8960000276565552 0 1 1 247.03599846930507 176.82024755497585" fill-opacity="0.2" clip-path="url(#yOucgsEeCFKT)" stroke-opacity="1" stroke-linejoin="bevel" stroke-miterlimit="10" stroke-dasharray=""/><path fill="rgb(0,0,128)" stroke="rgb(0,0,128)" paint-order="fill" d="M 256.51599514484406 164.7250213623047 A 1.8960000276565552 1.8960000276565552 0 1 1 256.51599419684413 164.72312536259304" fill-opacity="0.2" clip-path="url(#yOucgsEeCFKT)" stroke-opacity="1" stroke-linejoin="bevel" stroke-miterlimit="10" stroke-dasharray=""/><path fill="rgb(0,0,128)" stroke="rgb(0,0,128)" paint-order="fill" d="M 265.9960061311722 152.86923217773438 A 1.8960000276565552 1.8960000276565552 0 1 1 265.99600518317226 152.86733617802273" fill-opacity="0.2" clip-path="url(#yOucgsEeCFKT)" stroke-opacity="1" stroke-linejoin="bevel" stroke-miterlimit="10" stroke-dasharray=""/><path fill="rgb(0,0,128)" stroke="rgb(0,0,128)" paint-order="fill" d="M 275.4759865999222 142.55197143554688 A 1.8960000276565552 1.8960000276565552 0 1 1 275.47598565192226 142.55007543583523" fill-opacity="0.2" clip-path="url(#yOucgsEeCFKT)" stroke-opacity="1" stroke-linejoin="bevel" stroke-miterlimit="10" stroke-dasharray=""/><path fill="rgb(0,0,128)" stroke="rgb(0,0,128)" paint-order="fill" d="M 284.9559975862503 131.23919677734375 A 1.8960000276565552 1.8960000276565552 0 1 1 284.9559966382504 131.2373007776321" fill-opacity="0.2" clip-path="url(#yOucgsEeCFKT)" stroke-opacity="1" stroke-linejoin="bevel" stroke-miterlimit="10" stroke-dasharray=""/><path fill="rgb(0,0,128)" stroke="rgb(0,0,128)" paint-order="fill" d="M 294.43600857257843 122.611328125 A 1.8960000276565552 1.8960000276565552 0 1 1 294.4360076245785 122.60943212528834" fill-opacity="0.2" clip-path="url(#yOucgsEeCFKT)" stroke-opacity="1" stroke-linejoin="bevel" stroke-miterlimit="10" stroke-dasharray=""/><path fill="rgb(0,0,128)" stroke="rgb(0,0,128)" paint-order="fill" d="M 303.91598904132843 112.65608215332031 A 1.8960000276565552 1.8960000276565552 0 1 1 303.9159880933285 112.65418615360865" fill-opacity="0.2" clip-path="url(#yOucgsEeCFKT)" stroke-opacity="1" stroke-linejoin="bevel" stroke-miterlimit="10" stroke-dasharray=""/><path fill="rgb(0,0,128)" stroke="rgb(0,0,128)" paint-order="fill" d="M 313.39600002765656 107.55779266357422 A 1.8960000276565552 1.8960000276565552 0 1 1 313.39599907965663 107.55589666386255" fill-opacity="0.2" clip-path="url(#yOucgsEeCFKT)" stroke-opacity="1" stroke-linejoin="bevel" stroke-miterlimit="10" stroke-dasharray=""/><path fill="rgb(0,0,128)" stroke="rgb(0,0,128)" paint-order="fill" d="M 322.8760110139847 98.77908325195312 A 1.8960000276565552 1.8960000276565552 0 1 1 322.87601006598476 98.77718725224146" fill-opacity="0.2" clip-path="url(#yOucgsEeCFKT)" stroke-opacity="1" stroke-linejoin="bevel" stroke-miterlimit="10" stroke-dasharray=""/><path fill="rgb(0,0,128)" stroke="rgb(0,0,128)" paint-order="fill" d="M 332.3559914827347 92.68526458740234 A 1.8960000276565552 1.8960000276565552 0 1 1 332.35599053473476 92.68336858769068" fill-opacity="0.2" clip-path="url(#yOucgsEeCFKT)" stroke-opacity="1" stroke-linejoin="bevel" stroke-miterlimit="10" stroke-dasharray=""/><path fill="rgb(0,0,128)" stroke="rgb(0,0,128)" paint-order="fill" d="M 341.8360024690628 87.0137939453125 A 1.8960000276565552 1.8960000276565552 0 1 1 341.8360015210629 87.01189794560084" fill-opacity="0.2" clip-path="url(#yOucgsEeCFKT)" stroke-opacity="1" stroke-linejoin="bevel" stroke-miterlimit="10" stroke-dasharray=""/><path fill="rgb(0,0,128)" stroke="rgb(0,0,128)" paint-order="fill" d="M 351.31601345539093 81.7646713256836 A 1.8960000276565552 1.8960000276565552 0 1 1 351.316012507391 81.76277532597193" fill-opacity="0.2" clip-path="url(#yOucgsEeCFKT)" stroke-opacity="1" stroke-linejoin="bevel" stroke-miterlimit="10" stroke-dasharray=""/><path fill="rgb(0,0,128)" stroke="rgb(0,0,128)" paint-order="fill" d="M 360.79599392414093 76.4853744506836 A 1.8960000276565552 1.8960000276565552 0 1 1 360.795992976141 76.48347845097193" fill-opacity="0.2" clip-path="url(#yOucgsEeCFKT)" stroke-opacity="1" stroke-linejoin="bevel" stroke-miterlimit="10" stroke-dasharray=""/><path fill="rgb(0,0,128)" stroke="rgb(0,0,128)" paint-order="fill" d="M 370.27600491046906 72.02059936523438 A 1.8960000276565552 1.8960000276565552 0 1 1 370.27600396246913 72.01870336552271" fill-opacity="0.2" clip-path="url(#yOucgsEeCFKT)" stroke-opacity="1" stroke-linejoin="bevel" stroke-miterlimit="10" stroke-dasharray=""/><path fill="rgb(0,0,128)" stroke="rgb(0,0,128)" paint-order="fill" d="M 379.75598537921906 67.34465026855469 A 1.8960000276565552 1.8960000276565552 0 1 1 379.75598443121913 67.34275426884302" fill-opacity="0.2" clip-path="url(#yOucgsEeCFKT)" stroke-opacity="1" stroke-linejoin="bevel" stroke-miterlimit="10" stroke-dasharray=""/><path fill="rgb(0,0,128)" stroke="rgb(0,0,128)" paint-order="fill" d="M 389.2359963655472 65.98712158203125 A 1.8960000276565552 1.8960000276565552 0 1 1 389.23599541754726 65.98522558231959" fill-opacity="0.2" clip-path="url(#yOucgsEeCFKT)" stroke-opacity="1" stroke-linejoin="bevel" stroke-miterlimit="10" stroke-dasharray=""/><path fill="rgb(0,0,128)" stroke="rgb(0,0,128)" paint-order="fill" d="M 398.7160073518753 60.37598419189453 A 1.8960000276565552 1.8960000276565552 0 1 1 398.7160064038754 60.374088192182874" fill-opacity="0.2" clip-path="url(#yOucgsEeCFKT)" stroke-opacity="1" stroke-linejoin="bevel" stroke-miterlimit="10" stroke-dasharray=""/><path fill="rgb(0,0,128)" stroke="rgb(0,0,128)" paint-order="fill" d="M 408.1959878206253 54.52350997924805 A 1.8960000276565552 1.8960000276565552 0 1 1 408.1959868726254 54.52161397953639" fill-opacity="0.2" clip-path="url(#yOucgsEeCFKT)" stroke-opacity="1" stroke-linejoin="bevel" stroke-miterlimit="10" stroke-dasharray=""/><path fill="rgb(0,0,128)" stroke="rgb(0,0,128)" paint-order="fill" d="M 417.67599880695343 54.19166946411133 A 1.8960000276565552 1.8960000276565552 0 1 1 417.6759978589535 54.18977346439967" fill-opacity="0.2" clip-path="url(#yOucgsEeCFKT)" stroke-opacity="1" stroke-linejoin="bevel" stroke-miterlimit="10" stroke-dasharray=""/><path fill="rgb(0,0,128)" stroke="rgb(0,0,128)" paint-order="fill" d="M 427.15600979328156 52.89447021484375 A 1.8960000276565552 1.8960000276565552 0 1 1 427.15600884528163 52.89257421513209" fill-opacity="0.2" clip-path="url(#yOucgsEeCFKT)" stroke-opacity="1" stroke-linejoin="bevel" stroke-miterlimit="10" stroke-dasharray=""/><path fill="rgb(0,0,128)" stroke="rgb(0,0,128)" paint-order="fill" d="M 436.63599026203156 51.506771087646484 A 1.8960000276565552 1.8960000276565552 0 1 1 436.63598931403163 51.50487508793483" fill-opacity="0.2" clip-path="url(#yOucgsEeCFKT)" stroke-opacity="1" stroke-linejoin="bevel" stroke-miterlimit="10" stroke-dasharray=""/><path fill="rgb(0,0,128)" stroke="rgb(0,0,128)" paint-order="fill" d="M 446.1160012483597 47.947017669677734 A 1.8960000276565552 1.8960000276565552 0 1 1 446.11600030035976 47.94512166996608" fill-opacity="0.2" clip-path="url(#yOucgsEeCFKT)" stroke-opacity="1" stroke-linejoin="bevel" stroke-miterlimit="10" stroke-dasharray=""/><path fill="rgb(0,0,128)" stroke="rgb(0,0,128)" paint-order="fill" d="M 455.5960122346878 48.21852111816406 A 1.8960000276565552 1.8960000276565552 0 1 1 455.5960112866879 48.216625118452406" fill-opacity="0.2" clip-path="url(#yOucgsEeCFKT)" stroke-opacity="1" stroke-linejoin="bevel" stroke-miterlimit="10" stroke-dasharray=""/><path fill="rgb(0,0,128)" stroke="rgb(0,0,128)" paint-order="fill" d="M 465.0759927034378 46.287811279296875 A 1.8960000276565552 1.8960000276565552 0 1 1 465.0759917554379 46.28591527958522" fill-opacity="0.2" clip-path="url(#yOucgsEeCFKT)" stroke-opacity="1" stroke-linejoin="bevel" stroke-miterlimit="10" stroke-dasharray=""/><path fill="rgb(0,0,128)" stroke="rgb(0,0,128)" paint-order="fill" d="M 474.55600368976593 46.649818420410156 A 1.8960000276565552 1.8960000276565552 0 1 1 474.556002741766 46.6479224206985" fill-opacity="0.2" clip-path="url(#yOucgsEeCFKT)" stroke-opacity="1" stroke-linejoin="bevel" stroke-miterlimit="10" stroke-dasharray=""/><path fill="rgb(0,0,128)" stroke="rgb(0,0,128)" paint-order="fill" d="M 484.03601467609406 46.649818420410156 A 1.8960000276565552 1.8960000276565552 0 1 1 484.03601372809413 46.6479224206985" fill-opacity="0.2" clip-path="url(#yOucgsEeCFKT)" stroke-opacity="1" stroke-linejoin="bevel" stroke-miterlimit="10" stroke-dasharray=""/><path fill="rgb(0,0,128)" stroke="rgb(0,0,128)" paint-order="fill" d="M 493.51599514484406 44.387264251708984 A 1.8960000276565552 1.8960000276565552 0 1 1 493.51599419684413 44.38536825199733" fill-opacity="0.2" clip-path="url(#yOucgsEeCFKT)" stroke-opacity="1" stroke-linejoin="bevel" stroke-miterlimit="10" stroke-dasharray=""/><path fill="rgb(0,0,128)" stroke="rgb(0,0,128)" paint-order="fill" d="M 502.9960061311722 44.77943801879883 A 1.8960000276565552 1.8960000276565552 0 1 1 502.99600518317226 44.77754201908717" fill-opacity="0.2" clip-path="url(#yOucgsEeCFKT)" stroke-opacity="1" stroke-linejoin="bevel" stroke-miterlimit="10" stroke-dasharray=""/><path fill="rgb(0,0,128)" stroke="rgb(0,0,128)" paint-order="fill" d="M 512.4759865999222 46.77048873901367 A 1.8960000276565552 1.8960000276565552 0 1 1 512.4759856519222 46.768592739302015" fill-opacity="0.2" clip-path="url(#yOucgsEeCFKT)" stroke-opacity="1" stroke-linejoin="bevel" stroke-miterlimit="10" stroke-dasharray=""/><path fill="rgb(0,0,128)" stroke="rgb(0,0,128)" paint-order="fill" d="M 521.9559975862503 48.15818786621094 A 1.8960000276565552 1.8960000276565552 0 1 1 521.9559966382503 48.15629186649928" fill-opacity="0.2" clip-path="url(#yOucgsEeCFKT)" stroke-opacity="1" stroke-linejoin="bevel" stroke-miterlimit="10" stroke-dasharray=""/><path fill="rgb(0,0,128)" stroke="rgb(0,0,128)" paint-order="fill" d="M 531.4359780550003 47.554840087890625 A 1.8960000276565552 1.8960000276565552 0 1 1 531.4359771070003 47.55294408817897" fill-opacity="0.2" clip-path="url(#yOucgsEeCFKT)" stroke-opacity="1" stroke-linejoin="bevel" stroke-miterlimit="10" stroke-dasharray=""/><path fill="rgb(0,0,128)" stroke="rgb(0,0,128)" paint-order="fill" d="M 540.9160195589066 46.408477783203125 A 1.8960000276565552 1.8960000276565552 0 1 1 540.9160186109066 46.40658178349147" fill-opacity="0.2" clip-path="url(#yOucgsEeCFKT)" stroke-opacity="1" stroke-linejoin="bevel" stroke-miterlimit="10" stroke-dasharray=""/><path fill="rgb(0,0,128)" stroke="rgb(0,0,128)" paint-order="fill" d="M 550.3960000276566 44.568267822265625 A 1.8960000276565552 1.8960000276565552 0 1 1 550.3959990796566 44.56637182255397" fill-opacity="0.2" clip-path="url(#yOucgsEeCFKT)" stroke-opacity="1" stroke-linejoin="bevel" stroke-miterlimit="10" stroke-dasharray=""/><path fill="none" stroke="rgb(0,0,0)" paint-order="fill" d="M 74.5 333.5 L 548.5 333.5" stroke-opacity="1" stroke-linejoin="bevel" stroke-miterlimit="10" stroke-dasharray=""/><path fill="none" stroke="rgb(0,0,0)" paint-order="fill" d="M 74.5 339.5 L 74.5 331.5 M 169.5 339.5 L 169.5 331.5 M 264.5 339.5 L 264.5 331.5 M 358.5 339.5 L 358.5 331.5 M 453.5 339.5 L 453.5 331.5 M 548.5 339.5 L 548.5 331.5" stroke-opacity="1" stroke-linejoin="bevel" stroke-miterlimit="10" stroke-dasharray=""/><path fill="none" stroke="rgb(0,0,0)" paint-order="fill" d="M 74.5 337.5 L 74.5 333.5 M 93.5 337.5 L 93.5 333.5 M 112.5 337.5 L 112.5 333.5 M 131.5 337.5 L 131.5 333.5 M 150.5 337.5 L 150.5 333.5 M 169.5 337.5 L 169.5 333.5 M 188.5 337.5 L 188.5 333.5 M 207.5 337.5 L 207.5 333.5 M 226.5 337.5 L 226.5 333.5 M 245.5 337.5 L 245.5 333.5 M 264.5 337.5 L 264.5 333.5 M 283.5 337.5 L 283.5 333.5 M 302.5 337.5 L 302.5 333.5 M 320.5 337.5 L 320.5 333.5 M 339.5 337.5 L 339.5 333.5 M 358.5 337.5 L 358.5 333.5 M 377.5 337.5 L 377.5 333.5 M 396.5 337.5 L 396.5 333.5 M 415.5 337.5 L 415.5 333.5 M 434.5 337.5 L 434.5 333.5 M 453.5 337.5 L 453.5 333.5 M 472.5 337.5 L 472.5 333.5 M 491.5 337.5 L 491.5 333.5 M 510.5 337.5 L 510.5 333.5 M 529.5 337.5 L 529.5 333.5 M 548.5 337.5 L 548.5 333.5" stroke-opacity="1" stroke-linejoin="bevel" stroke-miterlimit="10" stroke-dasharray=""/><text fill="rgb(68,68,68)" stroke="none" font-family="Work Sans" font-size="15pt" font-style="normal" font-weight="normal" text-decoration="normal" x="69" y="357" text-anchor="start" dominant-baseline="alphabetic" transform="matrix(1, 0, 0, 1, 0.5, 0.5)" fill-opacity="1">0</text><text fill="rgb(68,68,68)" stroke="none" font-family="Work Sans" font-size="15pt" font-style="normal" font-weight="normal" text-decoration="normal" x="156.3000030517578" y="357" text-anchor="start" dominant-baseline="alphabetic" transform="matrix(1, 0, 0, 1, 0.5, 0.5)" fill-opacity="1">0.5</text><text fill="rgb(68,68,68)" stroke="none" font-family="Work Sans" font-size="15pt" font-style="normal" font-weight="normal" text-decoration="normal" x="258.6000061035156" y="357" text-anchor="start" dominant-baseline="alphabetic" transform="matrix(1, 0, 0, 1, 0.5, 0.5)" fill-opacity="1">1</text><text fill="rgb(68,68,68)" stroke="none" font-family="Work Sans" font-size="15pt" font-style="normal" font-weight="normal" text-decoration="normal" x="345.8999938964844" y="357" text-anchor="start" dominant-baseline="alphabetic" transform="matrix(1, 0, 0, 1, 0.5, 0.5)" fill-opacity="1">1.5</text><text fill="rgb(68,68,68)" stroke="none" font-family="Work Sans" font-size="15pt" font-style="normal" font-weight="normal" text-decoration="normal" x="448.20001220703125" y="357" text-anchor="start" dominant-baseline="alphabetic" transform="matrix(1, 0, 0, 1, 0.5, 0.5)" fill-opacity="1">2</text><text fill="rgb(68,68,68)" stroke="none" font-family="Work Sans" font-size="15pt" font-style="normal" font-weight="normal" text-decoration="normal" x="535.5" y="357" text-anchor="start" dominant-baseline="alphabetic" transform="matrix(1, 0, 0, 1, 0.5, 0.5)" fill-opacity="1">2.5</text><text fill="rgb(68,68,68)" stroke="none" font-family="helvetica" font-size="15pt" font-style="normal" font-weight="normal" text-decoration="normal" x="254.6962890625" y="393" text-anchor="start" dominant-baseline="alphabetic" transform="matrix(1, 0, 0, 1, 0.5, 0.5)" fill-opacity="1">Time (hours)</text><path fill="none" stroke="rgb(0,0,0)" paint-order="fill" d="M 74.5 333.5 L 74.5 39.5" stroke-opacity="1" stroke-linejoin="bevel" stroke-miterlimit="10" stroke-dasharray=""/><path fill="none" stroke="rgb(0,0,0)" paint-order="fill" d="M 68.5 333.5 L 76.5 333.5 M 68.5 284.5 L 76.5 284.5 M 68.5 235.5 L 76.5 235.5 M 68.5 186.5 L 76.5 186.5 M 68.5 137.5 L 76.5 137.5 M 68.5 88.5 L 76.5 88.5 M 68.5 39.5 L 76.5 39.5" stroke-opacity="1" stroke-linejoin="bevel" stroke-miterlimit="10" stroke-dasharray=""/><path fill="none" stroke="rgb(0,0,0)" paint-order="fill" d="M 70.5 333.5 L 74.5 333.5 M 70.5 323.5 L 74.5 323.5 M 70.5 313.5 L 74.5 313.5 M 70.5 304.5 L 74.5 304.5 M 70.5 294.5 L 74.5 294.5 M 70.5 284.5 L 74.5 284.5 M 70.5 274.5 L 74.5 274.5 M 70.5 264.5 L 74.5 264.5 M 70.5 255.5 L 74.5 255.5 M 70.5 245.5 L 74.5 245.5 M 70.5 235.5 L 74.5 235.5 M 70.5 225.5 L 74.5 225.5 M 70.5 215.5 L 74.5 215.5 M 70.5 206.5 L 74.5 206.5 M 70.5 196.5 L 74.5 196.5 M 70.5 186.5 L 74.5 186.5 M 70.5 176.5 L 74.5 176.5 M 70.5 166.5 L 74.5 166.5 M 70.5 157.5 L 74.5 157.5 M 70.5 147.5 L 74.5 147.5 M 70.5 137.5 L 74.5 137.5 M 70.5 127.5 L 74.5 127.5 M 70.5 117.5 L 74.5 117.5 M 70.5 108.5 L 74.5 108.5 M 70.5 98.5 L 74.5 98.5 M 70.5 88.5 L 74.5 88.5 M 70.5 78.5 L 74.5 78.5 M 70.5 68.5 L 74.5 68.5 M 70.5 59.5 L 74.5 59.5 M 70.5 49.5 L 74.5 49.5 M 70.5 39.5 L 74.5 39.5" stroke-opacity="1" stroke-linejoin="bevel" stroke-miterlimit="10" stroke-dasharray=""/><text fill="rgb(68,68,68)" stroke="none" font-family="Work Sans" font-size="15pt" font-style="normal" font-weight="normal" text-decoration="normal" x="53" y="339.5" text-anchor="start" dominant-baseline="alphabetic" transform="matrix(1, 0, 0, 1, 0.5, 0.5)" fill-opacity="1">0</text><text fill="rgb(68,68,68)" stroke="none" font-family="Work Sans" font-size="15pt" font-style="normal" font-weight="normal" text-decoration="normal" x="53" y="290.5" text-anchor="start" dominant-baseline="alphabetic" transform="matrix(1, 0, 0, 1, 0.5, 0.5)" fill-opacity="1">1</text><text fill="rgb(68,68,68)" stroke="none" font-family="Work Sans" font-size="15pt" font-style="normal" font-weight="normal" text-decoration="normal" x="53" y="241.5" text-anchor="start" dominant-baseline="alphabetic" transform="matrix(1, 0, 0, 1, 0.5, 0.5)" fill-opacity="1">2</text><text fill="rgb(68,68,68)" stroke="none" font-family="Work Sans" font-size="15pt" font-style="normal" font-weight="normal" text-decoration="normal" x="53" y="192.5" text-anchor="start" dominant-baseline="alphabetic" transform="matrix(1, 0, 0, 1, 0.5, 0.5)" fill-opacity="1">3</text><text fill="rgb(68,68,68)" stroke="none" font-family="Work Sans" font-size="15pt" font-style="normal" font-weight="normal" text-decoration="normal" x="53" y="143.5" text-anchor="start" dominant-baseline="alphabetic" transform="matrix(1, 0, 0, 1, 0.5, 0.5)" fill-opacity="1">4</text><text fill="rgb(68,68,68)" stroke="none" font-family="Work Sans" font-size="15pt" font-style="normal" font-weight="normal" text-decoration="normal" x="53" y="94.5" text-anchor="start" dominant-baseline="alphabetic" transform="matrix(1, 0, 0, 1, 0.5, 0.5)" fill-opacity="1">5</text><text fill="rgb(68,68,68)" stroke="none" font-family="Work Sans" font-size="15pt" font-style="normal" font-weight="normal" text-decoration="normal" x="53" y="45.5" text-anchor="start" dominant-baseline="alphabetic" transform="matrix(1, 0, 0, 1, 0.5, 0.5)" fill-opacity="1">6</text><text fill="rgb(68,68,68)" stroke="none" font-family="helvetica" font-size="15pt" font-style="normal" font-weight="normal" text-decoration="normal" x="-20.2099609375" y="182" text-anchor="start" dominant-baseline="alphabetic" transform="matrix(6.123233995736766e-17, -1, 1, 6.123233995736766e-17, -150.5, 221.5)" fill-opacity="1">deGFP (μM)</text><path fill="none" stroke="none"/><text fill="rgb(68,68,68)" stroke="none" font-family="helvetica" font-size="10pt" font-style="normal" font-weight="normal" text-decoration="normal" x="404.89544677734375" y="290" text-anchor="start" dominant-baseline="central" clip-path="url(#dtUZMxpTPQFm)" transform="matrix(1, 0, 0, 1, 0.5, 0.5)" fill-opacity="1">BioCRNpyler Model</text><path fill="none" stroke="rgb(255,0,255)" paint-order="fill" d="M 380.39544677734375 290.5 L 400.39544677734375 290.5" stroke-opacity="1" stroke-linejoin="bevel" stroke-miterlimit="10" stroke-width="3" stroke-dasharray="" clip-path="url(#dtUZMxpTPQFm)"/><text fill="rgb(68,68,68)" stroke="none" font-family="helvetica" font-size="10pt" font-style="normal" font-weight="normal" text-decoration="normal" x="404.89544677734375" y="313" text-anchor="start" dominant-baseline="central" clip-path="url(#dtUZMxpTPQFm)" transform="matrix(1, 0, 0, 1, 0.5, 0.5)" fill-opacity="1">pT7-MGapt-deGFP.R1</text><path fill="rgb(0,0,128)" stroke="rgb(0,0,128)" paint-order="fill" d="M 394.39544677734375 313.5 A 4 4 0 1 1 394.3954447773439 313.49600000066664" fill-opacity="0.2" clip-path="url(#dtUZMxpTPQFm)" stroke-opacity="1" stroke-linejoin="bevel" stroke-miterlimit="10" stroke-dasharray=""/><text fill="rgb(68,68,68)" stroke="none" font-family="helvetica" font-size="18pt" font-style="normal" font-weight="bold" text-decoration="normal" x="9" y="29" text-anchor="start" dominant-baseline="alphabetic" transform="matrix(1, 0, 0, 1, 0.5, 0.5)" fill-opacity="1">C) Translation simulation of deGFP</text></svg>