<svg version="1.1" xmlns="http://www.w3.org/2000/svg" width="600" height="400"><defs><clipPath id="CZrkTuCbFaoh"><path fill="none" stroke="none" d="M 104.5 39.5 L 590.5 39.5 L 590.5 333.5 L 104.5 333.5 L 104.5 39.5"/></clipPath><clipPath id="mctSaWJIXyJu"><path fill="none" stroke="none" d="M 104.5 39.5 L 590.5 39.5 L 590.5 333.5 L 104.5 333.5 L 104.5 39.5"/></clipPath><clipPath id="eDFsCFwEJmHE"><path fill="none" stroke="none" d="M 104.5 39.5 L 590.5 39.5 L 590.5 333.5 L 104.5 333.5 L 104.5 39.5"/></clipPath><clipPath id="euOBvvnIyVkL"><path fill="none" stroke="none" d="M 104.5 39.5 L 590.5 39.5 L 590.5 333.5 L 104.5 333.5 L 104.5 39.5"/></clipPath><clipPath id="CHdNPoTXvDrA"><path fill="none" stroke="none" d="M 104.5 39.5 L 590.5 39.5 L 590.5 333.5 L 104.5 333.5 L 104.5 39.5"/></clipPath><clipPath id="EPiZRMdcSKzf"><path fill="none" stroke="none" d="M 104.5 39.5 L 590.5 39.5 L 590.5 333.5 L 104.5 333.5 L 104.5 39.5"/></clipPath></defs><path fill="rgb(255,255,255)" stroke="none" paint-order="stroke" d="M 0.5 0.5 L 600.5 0.5 L 600.5 400.5 L 0.5 400.5 L 0.5 0.5" fill-opacity="1"/><rect fill="#FFFFFF" stroke="none" x="104" y="39" width="486" height="294" transform="matrix(1, 0, 0, 1, 0.5, 0.5)"/><path fill="rgb(255,255,255)" stroke="none" paint-order="stroke" d="M 104.5 39.5 L 590.5 39.5 L 590.5 333.5 L 104.5 333.5 L 104.5 39.5" fill-opacity="1"/><path fill="rgb(0,0,128)" stroke="rgb(0,0,128)" paint-order="fill" d="M 572.6799805164337 62.76601791381836 A 2.700000047683716 2.700000047683716 0 1 1 572.6799791664338 62.76331791422067" fill-opacity="0.5019607843137255" clip-path="url(#eDFsCFwEJmHE)" stroke-opacity="1" stroke-linejoin="bevel" stroke-miterlimit="10" stroke-dasharray=""/><path fill="rgb(0,0,128)" stroke="rgb(0,0,128)" paint-order="fill" d="M 417.43001103401184 161.11392211914062 A 2.700000047683716 2.700000047683716 0 1 1 417.4300096840119 161.11122211954293" fill-opacity="0.5019607843137255" clip-path="url(#eDFsCFwEJmHE)" stroke-opacity="1" stroke-linejoin="bevel" stroke-miterlimit="10" stroke-dasharray=""/><path fill="rgb(0,0,128)" stroke="rgb(0,0,128)" paint-order="fill" d="M 314.02000737190247 200.67733764648438 A 2.700000047683716 2.700000047683716 0 1 1 314.02000602190253 200.67463764688668" fill-opacity="0.5019607843137255" clip-path="url(#eDFsCFwEJmHE)" stroke-opacity="1" stroke-linejoin="bevel" stroke-miterlimit="10" stroke-dasharray=""/><path fill="rgb(0,0,128)" stroke="rgb(0,0,128)" paint-order="fill" d="M 245.17000126838684 258.82318115234375 A 2.700000047683716 2.700000047683716 0 1 1 245.16999991838694 258.8204811527461" fill-opacity="0.5019607843137255" clip-path="url(#eDFsCFwEJmHE)" stroke-opacity="1" stroke-linejoin="bevel" stroke-miterlimit="10" stroke-dasharray=""/><path fill="rgb(0,0,128)" stroke="rgb(0,0,128)" paint-order="fill" d="M 199.27000737190247 284.36688232421875 A 2.700000047683716 2.700000047683716 0 1 1 199.27000602190256 284.3641823246211" fill-opacity="0.5019607843137255" clip-path="url(#eDFsCFwEJmHE)" stroke-opacity="1" stroke-linejoin="bevel" stroke-miterlimit="10" stroke-dasharray=""/><path fill="rgb(0,0,128)" stroke="rgb(0,0,128)" paint-order="fill" d="M 168.48999333381653 306.562255859375 A 2.700000047683716 2.700000047683716 0 1 1 168.48999198381662 306.55955585977733" fill-opacity="0.5019607843137255" clip-path="url(#eDFsCFwEJmHE)" stroke-opacity="1" stroke-linejoin="bevel" stroke-miterlimit="10" stroke-dasharray=""/><path fill="rgb(0,0,128)" stroke="rgb(0,0,128)" paint-order="fill" d="M 147.97000432014465 315.5668029785156 A 2.700000047683716 2.700000047683716 0 1 1 147.97000297014475 315.56410297891796" fill-opacity="0.5019607843137255" clip-path="url(#eDFsCFwEJmHE)" stroke-opacity="1" stroke-linejoin="bevel" stroke-miterlimit="10" stroke-dasharray=""/><path fill="rgb(0,0,128)" stroke="rgb(0,0,128)" paint-order="fill" d="M 134.47000432014465 324.92254638671875 A 2.700000047683716 2.700000047683716 0 1 1 134.47000297014475 324.9198463871211" fill-opacity="0.5019607843137255" clip-path="url(#eDFsCFwEJmHE)" stroke-opacity="1" stroke-linejoin="bevel" stroke-miterlimit="10" stroke-dasharray=""/><path fill="rgb(0,0,128)" stroke="rgb(0,0,128)" paint-order="fill" d="M 125.28999638557434 327.583251953125 A 2.700000047683716 2.700000047683716 0 1 1 125.28999503557444 327.58055195352733" fill-opacity="0.5019607843137255" clip-path="url(#eDFsCFwEJmHE)" stroke-opacity="1" stroke-linejoin="bevel" stroke-miterlimit="10" stroke-dasharray=""/><path fill="rgb(0,0,128)" stroke="rgb(0,0,128)" paint-order="fill" d="M 119.35000157356262 331.386474609375 A 2.700000047683716 2.700000047683716 0 1 1 119.35000022356272 331.38377460977733" fill-opacity="0.5019607843137255" clip-path="url(#eDFsCFwEJmHE)" stroke-opacity="1" stroke-linejoin="bevel" stroke-miterlimit="10" stroke-dasharray=""/><path fill="rgb(0,0,128)" stroke="rgb(0,0,128)" paint-order="fill" d="M 115.29999852180481 332.6041259765625 A 2.700000047683716 2.700000047683716 0 1 1 115.2999971718049 332.60142597696483" fill-opacity="0.5019607843137255" clip-path="url(#eDFsCFwEJmHE)" stroke-opacity="1" stroke-linejoin="bevel" stroke-miterlimit="10" stroke-dasharray=""/><path fill="rgb(0,0,128)" stroke="rgb(0,0,128)" paint-order="fill" d="M 112.60000157356262 333.0500183105469 A 2.700000047683716 2.700000047683716 0 1 1 112.60000022356272 333.0473183109492" fill-opacity="0.5019607843137255" clip-path="url(#eDFsCFwEJmHE)" stroke-opacity="1" stroke-linejoin="bevel" stroke-miterlimit="10" stroke-dasharray=""/><path fill="rgb(0,0,128)" stroke="rgb(0,0,128)" paint-order="fill" d="M 110.71000218391418 333.3072814941406 A 2.700000047683716 2.700000047683716 0 1 1 110.71000083391428 333.30458149454296" fill-opacity="0.5019607843137255" clip-path="url(#eDFsCFwEJmHE)" stroke-opacity="1" stroke-linejoin="bevel" stroke-miterlimit="10" stroke-dasharray=""/><path fill="rgb(0,0,128)" stroke="rgb(0,0,128)" paint-order="fill" d="M 109.6300003528595 333.40771484375 A 2.700000047683716 2.700000047683716 0 1 1 109.62999900285959 333.40501484415233" fill-opacity="0.5019607843137255" clip-path="url(#eDFsCFwEJmHE)" stroke-opacity="1" stroke-linejoin="bevel" stroke-miterlimit="10" stroke-dasharray=""/><path fill="rgb(0,0,128)" stroke="rgb(0,0,128)" paint-order="fill" d="M 107.20000004768372 333.5 A 2.700000047683716 2.700000047683716 0 1 1 107.19999869768381 333.49730000040233" fill-opacity="0.5019607843137255" clip-path="url(#eDFsCFwEJmHE)" stroke-opacity="1" stroke-linejoin="bevel" stroke-miterlimit="10" stroke-dasharray=""/><path fill="none" stroke="rgb(217,91,67)" paint-order="fill" d="M 569.97998046875 62.91297912597656 L 414.7300109863281 154.4404296875 L 311.32000732421875 215.40565490722656 L 242.47000122070312 255.99609375 L 196.57000732421875 283.056396484375 L 165.7899932861328 301.20269775390625 L 145.27000427246094 313.30023193359375 L 131.77000427246094 321.2591552734375 L 122.58999633789062 326.67120361328125 L 116.6500015258789 330.1731262207031 L 112.5999984741211 332.560791015625 L 109.9000015258789 334.152587890625 L 108.01000213623047 335.2668151855469 L 106.93000030517578 335.9035339355469 L 104.5 337.3361511230469" stroke-opacity="1" stroke-linejoin="bevel" stroke-miterlimit="10" stroke-width="2" stroke-dasharray="6" clip-path="url(#euOBvvnIyVkL)"/><path fill="none" stroke="rgb(0,0,0)" paint-order="fill" d="M 104.5 333.5 L 590.5 333.5" stroke-opacity="1" stroke-linejoin="bevel" stroke-miterlimit="10" stroke-dasharray=""/><path fill="none" stroke="rgb(0,0,0)" paint-order="fill" d="M 104.5 339.5 L 104.5 331.5 M 239.5 339.5 L 239.5 331.5 M 374.5 339.5 L 374.5 331.5 M 509.5 339.5 L 509.5 331.5" stroke-opacity="1" stroke-linejoin="bevel" stroke-miterlimit="10" stroke-dasharray=""/><path fill="none" stroke="rgb(0,0,0)" paint-order="fill" d="M 104.5 337.5 L 104.5 333.5 M 131.5 337.5 L 131.5 333.5 M 158.5 337.5 L 158.5 333.5 M 185.5 337.5 L 185.5 333.5 M 212.5 337.5 L 212.5 333.5 M 239.5 337.5 L 239.5 333.5 M 266.5 337.5 L 266.5 333.5 M 293.5 337.5 L 293.5 333.5 M 320.5 337.5 L 320.5 333.5 M 347.5 337.5 L 347.5 333.5 M 374.5 337.5 L 374.5 333.5 M 401.5 337.5 L 401.5 333.5 M 428.5 337.5 L 428.5 333.5 M 455.5 337.5 L 455.5 333.5 M 482.5 337.5 L 482.5 333.5 M 509.5 337.5 L 509.5 333.5 M 536.5 337.5 L 536.5 333.5 M 563.5 337.5 L 563.5 333.5 M 590.5 337.5 L 590.5 333.5" stroke-opacity="1" stroke-linejoin="bevel" stroke-miterlimit="10" stroke-dasharray=""/><text fill="rgb(68,68,68)" stroke="none" font-family="Work Sans" font-size="15pt" font-style="normal" font-weight="normal" text-decoration="normal" x="99" y="357" text-anchor="start" dominant-baseline="alphabetic" transform="matrix(1, 0, 0, 1, 0.5, 0.5)" fill-opacity="1">0</text><text fill="rgb(68,68,68)" stroke="none" font-family="Work Sans" font-size="15pt" font-style="normal" font-weight="normal" text-decoration="normal" x="234" y="357" text-anchor="start" dominant-baseline="alphabetic" transform="matrix(1, 0, 0, 1, 0.5, 0.5)" fill-opacity="1">5</text><text fill="rgb(68,68,68)" stroke="none" font-family="Work Sans" font-size="15pt" font-style="normal" font-weight="normal" text-decoration="normal" x="364" y="357" text-anchor="start" dominant-baseline="alphabetic" transform="matrix(1, 0, 0, 1, 0.5, 0.5)" fill-opacity="1">10</text><text fill="rgb(68,68,68)" stroke="none" font-family="Work Sans" font-size="15pt" font-style="normal" font-weight="normal" text-decoration="normal" x="499" y="357" text-anchor="start" dominant-baseline="alphabetic" transform="matrix(1, 0, 0, 1, 0.5, 0.5)" fill-opacity="1">15</text><text fill="rgb(68,68,68)" stroke="none" font-family="helvetica" font-size="15pt" font-style="normal" font-weight="normal" text-decoration="normal" x="297.3515625" y="393" text-anchor="start" dominant-baseline="alphabetic" transform="matrix(1, 0, 0, 1, 0.5, 0.5)" fill-opacity="1">eGFP (μM)</text><path fill="none" stroke="rgb(0,0,0)" paint-order="fill" d="M 104.5 333.5 L 104.5 39.5" stroke-opacity="1" stroke-linejoin="bevel" stroke-miterlimit="10" stroke-dasharray=""/><path fill="none" stroke="rgb(0,0,0)" paint-order="fill" d="M 98.5 333.5 L 106.5 333.5 M 98.5 284.5 L 106.5 284.5 M 98.5 235.5 L 106.5 235.5 M 98.5 186.5 L 106.5 186.5 M 98.5 137.5 L 106.5 137.5 M 98.5 88.5 L 106.5 88.5 M 98.5 39.5 L 106.5 39.5" stroke-opacity="1" stroke-linejoin="bevel" stroke-miterlimit="10" stroke-dasharray=""/><path fill="none" stroke="rgb(0,0,0)" paint-order="fill" d="M 100.5 333.5 L 104.5 333.5 M 100.5 323.5 L 104.5 323.5 M 100.5 313.5 L 104.5 313.5 M 100.5 304.5 L 104.5 304.5 M 100.5 294.5 L 104.5 294.5 M 100.5 284.5 L 104.5 284.5 M 100.5 274.5 L 104.5 274.5 M 100.5 264.5 L 104.5 264.5 M 100.5 255.5 L 104.5 255.5 M 100.5 245.5 L 104.5 245.5 M 100.5 235.5 L 104.5 235.5 M 100.5 225.5 L 104.5 225.5 M 100.5 215.5 L 104.5 215.5 M 100.5 206.5 L 104.5 206.5 M 100.5 196.5 L 104.5 196.5 M 100.5 186.5 L 104.5 186.5 M 100.5 176.5 L 104.5 176.5 M 100.5 166.5 L 104.5 166.5 M 100.5 157.5 L 104.5 157.5 M 100.5 147.5 L 104.5 147.5 M 100.5 137.5 L 104.5 137.5 M 100.5 127.5 L 104.5 127.5 M 100.5 117.5 L 104.5 117.5 M 100.5 108.5 L 104.5 108.5 M 100.5 98.5 L 104.5 98.5 M 100.5 88.5 L 104.5 88.5 M 100.5 78.5 L 104.5 78.5 M 100.5 68.5 L 104.5 68.5 M 100.5 59.5 L 104.5 59.5 M 100.5 49.5 L 104.5 49.5 M 100.5 39.5 L 104.5 39.5" stroke-opacity="1" stroke-linejoin="bevel" stroke-miterlimit="10" stroke-dasharray=""/><text fill="rgb(68,68,68)" stroke="none" font-family="Work Sans" font-size="15pt" font-style="normal" font-weight="normal" text-decoration="normal" x="83" y="339.5" text-anchor="start" dominant-baseline="alphabetic" transform="matrix(1, 0, 0, 1, 0.5, 0.5)" fill-opacity="1">0</text><text fill="rgb(68,68,68)" stroke="none" font-family="Work Sans" font-size="15pt" font-style="normal" font-weight="normal" text-decoration="normal" x="53" y="290.5" text-anchor="start" dominant-baseline="alphabetic" transform="matrix(1, 0, 0, 1, 0.5, 0.5)" fill-opacity="1">5000</text><text fill="rgb(68,68,68)" stroke="none" font-family="Work Sans" font-size="15pt" font-style="normal" font-weight="normal" text-decoration="normal" x="43" y="241.5" text-anchor="start" dominant-baseline="alphabetic" transform="matrix(1, 0, 0, 1, 0.5, 0.5)" fill-opacity="1">10000</text><text fill="rgb(68,68,68)" stroke="none" font-family="Work Sans" font-size="15pt" font-style="normal" font-weight="normal" text-decoration="normal" x="43" y="192.5" text-anchor="start" dominant-baseline="alphabetic" transform="matrix(1, 0, 0, 1, 0.5, 0.5)" fill-opacity="1">15000</text><text fill="rgb(68,68,68)" stroke="none" font-family="Work Sans" font-size="15pt" font-style="normal" font-weight="normal" text-decoration="normal" x="43" y="143.5" text-anchor="start" dominant-baseline="alphabetic" transform="matrix(1, 0, 0, 1, 0.5, 0.5)" fill-opacity="1">20000</text><text fill="rgb(68,68,68)" stroke="none" font-family="Work Sans" font-size="15pt" font-style="normal" font-weight="normal" text-decoration="normal" x="43" y="94.5" text-anchor="start" dominant-baseline="alphabetic" transform="matrix(1, 0, 0, 1, 0.5, 0.5)" fill-opacity="1">25000</text><text fill="rgb(68,68,68)" stroke="none" font-family="Work Sans" font-size="15pt" font-style="normal" font-weight="normal" text-decoration="normal" x="43" y="45.5" text-anchor="start" dominant-baseline="alphabetic" transform="matrix(1, 0, 0, 1, 0.5, 0.5)" fill-opacity="1">30000</text><text fill="rgb(68,68,68)" stroke="none" font-family="helvetica" font-size="15pt" font-style="normal" font-weight="normal" text-decoration="normal" x="-61.1474609375" y="182" text-anchor="start" dominant-baseline="alphabetic" transform="matrix(6.123233995736766e-17, -1, 1, 6.123233995736766e-17, -160.5, 211.5)" fill-opacity="1">Fluorescence (a.u.)</text><path fill="rgb(255,255,255)" stroke="none" paint-order="stroke" d="M 304.5 212.5 L 469.9797668457031 212.5 L 469.9797668457031 233.5 L 304.5 233.5 Z" fill-opacity="1" clip-path="url(#CHdNPoTXvDrA)"/><text fill="rgb(68,68,68)" stroke="none" font-family="helvetica" font-size="14pt" font-style="normal" font-weight="normal" text-decoration="normal" x="304" y="229" text-anchor="start" dominant-baseline="alphabetic" clip-path="url(#CHdNPoTXvDrA)" transform="matrix(1, 0, 0, 1, 0.5, 0.5)" fill-opacity="1">y= 1624.27x-391.44</text><text fill="rgb(68,68,68)" stroke="none" font-family="helvetica" font-size="18pt" font-style="normal" font-weight="bold" text-decoration="normal" x="34" y="29" text-anchor="start" dominant-baseline="alphabetic" transform="matrix(1, 0, 0, 1, 0.5, 0.5)" fill-opacity="1">B) eGFP Calibration: Ex/Em 485/515, Gain 61 </text></svg>