<svg version="1.1" xmlns="http://www.w3.org/2000/svg" width="500" height="400"><defs><clipPath id="udIBPNHksHCI"><path fill="none" stroke="none" d="M 0.5 0.5 L 500.5 0.5 L 500.5 400.5 L 0.5 400.5 L 0.5 0.5 Z M 64.5 39.5 L 470.5 39.5 L 470.5 332.5 L 64.5 332.5 L 64.5 39.5 Z" clip-rule="evenodd"/></clipPath><clipPath id="aTKkLeupRcuh"><path fill="none" stroke="none" d="M 64.5 39.5 L 470.5 39.5 L 470.5 332.5 L 64.5 332.5 L 64.5 39.5 Z"/></clipPath><clipPath id="qchVQTiTGEXe"><path fill="none" stroke="none" d="M 64.5 39.5 L 470.5 39.5 L 470.5 332.5 L 64.5 332.5 L 64.5 39.5 Z"/></clipPath><clipPath id="xlkphAMETIKB"><path fill="none" stroke="none" d="M 64.5 39.5 L 470.5 39.5 L 470.5 332.5 L 64.5 332.5 L 64.5 39.5 Z"/></clipPath><clipPath id="HFOhTpgysiEC"><path fill="none" stroke="none" d="M 64.5 39.5 L 470.5 39.5 L 470.5 332.5 L 64.5 332.5 L 64.5 39.5 Z"/></clipPath><clipPath id="awUkqmbEPdHp"><path fill="none" stroke="none" d="M 64.5 39.5 L 470.5 39.5 L 470.5 332.5 L 64.5 332.5 L 64.5 39.5 Z"/></clipPath><clipPath id="KrgdwHOonRrQ"><path fill="none" stroke="none" d="M 64.5 39.5 L 470.5 39.5 L 470.5 332.5 L 64.5 332.5 L 64.5 39.5 Z"/></clipPath></defs><path fill="#ffffff" stroke="none" paint-order="stroke" d="M 0.5 0.5 L 500.5 0.5 L 500.5 400.5 L 0.5 400.5 L 0.5 0.5 Z" clip-path="url(#udIBPNHksHCI)"/><path fill="#ffffff" stroke="none" paint-order="stroke" d="M 64.5 39.5 L 470.5 39.5 L 470.5 332.5 L 64.5 332.5 L 64.5 39.5 Z"/><path fill="none" stroke="magenta" paint-order="fill" d="M 64.5 332.5 L 65.4040298461914 332.5 L 66.30805969238281 332.5 L 67.21208953857422 332.5 L 68.11611938476562 332.5 L 69.02014923095703 332.4761962890625 L 69.92417907714844 330.42230224609375 L 70.82820892333984 327.4835205078125 L 71.73224639892578 326.4844665527344 L 72.63627624511719 326.3542175292969 L 73.5403060913086 326.3463439941406 L 74.4443359375 326.0986022949219 L 75.3483657836914 324.2411804199219 L 76.25239562988281 321.9626770019531 L 77.15642547607422 320.8171691894531 L 78.06045532226562 320.41619873046875 L 78.96448516845703 320.26641845703125 L 79.86851501464844 319.8348693847656 L 80.77254486083984 318.2587585449219 L 81.67657470703125 316.35791015625 L 82.58060455322266 315.1485595703125 L 83.48463439941406 314.5569152832031 L 84.38866424560547 314.2466735839844 L 85.29269409179688 313.6981506347656 L 86.19672393798828 312.3386535644531 L 87.10075378417969 310.6863098144531 L 88.00479125976562 309.460693359375 L 88.90882110595703 308.7348937988281 L 89.81285095214844 308.2776184082031 L 90.71688079833984 307.6463928222656 L 91.62091064453125 306.43658447265625 L 92.52494049072266 304.96270751953125 L 93.42897033691406 303.74853515625 L 94.33300018310547 302.92901611328125 L 95.23703002929688 302.34857177734375 L 96.14105987548828 301.6534729003906 L 97.04508972167969 300.5433654785156 L 97.9491195678711 299.2020568847656 L 98.8531494140625 298.0132751464844 L 99.7571792602539 297.12908935546875 L 100.66120910644531 296.4500732421875 L 101.56523895263672 295.70306396484375 L 102.46926879882812 294.657958984375 L 103.37330627441406 293.41619873046875 L 104.27733612060547 292.258056640625 L 105.18136596679688 291.330322265625 L 106.08539581298828 290.5744934082031 L 106.98942565917969 289.7844543457031 L 107.8934555053711 288.7807312011719 L 108.7974853515625 287.61370849609375 L 109.7015151977539 286.48663330078125 L 110.60554504394531 285.5305480957031 L 111.50957489013672 284.7159729003906 L 112.41360473632812 283.89013671875 L 113.31763458251953 282.9118957519531 L 114.22166442871094 281.80078125 L 115.12569427490234 280.70257568359375 L 116.02972412109375 279.72900390625 L 116.93375396728516 278.8701477050781 L 117.83778381347656 278.0146179199219 L 118.74181365966797 277.0513610839844 L 119.6458511352539 275.9817199707031 L 120.54988098144531 274.9090881347656 L 121.45391082763672 273.92559814453125 L 122.35794067382812 273.0338439941406 L 123.26197052001953 272.1539001464844 L 124.16600036621094 271.1987609863281 L 125.07003021240234 270.15966796875 L 125.97406005859375 269.10888671875 L 126.87808990478516 268.1206359863281 L 127.78211975097656 267.2048034667969 L 128.6861572265625 266.3050537109375 L 129.59017944335938 265.3536376953125 L 130.4942169189453 264.3368225097656 L 131.3982391357422 263.30426025390625 L 132.30227661132812 262.31463623046875 L 133.206298828125 261.3814392089844 L 134.11033630371094 260.4657897949219 L 135.0143585205078 259.5154113769531 L 135.91839599609375 258.5146789550781 L 136.82241821289062 257.4970703125 L 137.72645568847656 256.5081787109375 L 138.63047790527344 255.56268310546875 L 139.53451538085938 254.63449096679688 L 140.43853759765625 253.68356323242188 L 141.3425750732422 252.69436645507812 L 142.24659729003906 251.6887969970703 L 143.150634765625 250.7018280029297 L 144.05467224121094 249.74786376953125 L 144.9586944580078 248.8098907470703 L 145.86273193359375 247.8576202392578 L 146.76675415039062 246.87657165527344 L 147.67079162597656 245.88063049316406 L 148.57481384277344 244.89620971679688 L 149.47885131835938 243.9365692138672 L 150.38287353515625 242.99110412597656 L 151.2869110107422 242.03712463378906 L 152.19093322753906 241.0618133544922 L 153.094970703125 240.073486328125 L 153.99899291992188 239.0918426513672 L 154.9030303955078 238.12857055664062 L 155.8070526123047 237.17747497558594 L 156.71109008789062 236.2217559814453 L 157.6151123046875 235.25042724609375 L 158.51914978027344 234.26809692382812 L 159.42318725585938 233.2892303466797 L 160.32720947265625 232.32379150390625 L 161.2312469482422 231.36854553222656 L 162.13526916503906 230.41123962402344 L 163.039306640625 229.44268798828125 L 163.94332885742188 228.4650421142578 L 164.8473663330078 227.48880004882812 L 165.7513885498047 226.52223205566406 L 166.65542602539062 225.56402587890625 L 167.5594482421875 224.60537719726562 L 168.46348571777344 223.6387481689453 L 169.3675079345703 222.66477966308594 L 170.27154541015625 221.69094848632812 L 171.17556762695312 220.72396850585938 L 172.07960510253906 219.7637481689453 L 172.98362731933594 218.80401611328125 L 173.88766479492188 217.83876037597656 L 174.7917022705078 216.86767578125 L 175.6957244873047 215.89601135253906 L 176.59976196289062 214.92913818359375 L 177.5037841796875 213.9676055908203 L 178.40782165527344 213.00709533691406 L 179.3118438720703 212.0428466796875 L 180.21588134765625 211.0740509033203 L 181.11990356445312 210.1043243408203 L 182.02394104003906 209.13787841796875 L 182.92796325683594 208.17559814453125 L 183.83200073242188 207.21458435058594 L 184.73602294921875 206.25111389160156 L 185.6400604248047 205.28416442871094 L 186.54408264160156 204.316162109375 L 187.4481201171875 203.35035705566406 L 188.35214233398438 202.3877716064453 L 189.2561798095703 201.42649841308594 L 190.1602020263672 200.46368408203125 L 191.06423950195312 199.49827575683594 L 191.96827697753906 198.5318145751953 L 192.87229919433594 197.56678771972656 L 193.77633666992188 196.60421752929688 L 194.68035888671875 195.6428985595703 L 195.5843963623047 194.68069458007812 L 196.48841857910156 193.71658325195312 L 197.3924560546875 192.7515106201172 L 198.29647827148438 191.787353515625 L 199.2005157470703 190.82505798339844 L 200.1045379638672 189.86390686035156 L 201.00857543945312 188.9022979736328 L 201.91259765625 187.9393310546875 L 202.81663513183594 186.9755401611328 L 203.7206573486328 186.01231384277344 L 204.62469482421875 185.0504913330078 L 205.52871704101562 184.08966064453125 L 206.43275451660156 183.12867736816406 L 207.3367919921875 182.166748046875 L 208.24081420898438 181.20416259765625 L 209.1448516845703 180.2418975830078 L 210.0488739013672 179.2806854248047 L 210.95291137695312 178.32034301757812 L 211.85693359375 177.3600311279297 L 212.76097106933594 176.3990936279297 L 213.6649932861328 175.43765258789062 L 214.56903076171875 174.4763946533203 L 215.47305297851562 173.5159149169922 L 216.37709045410156 172.55618286132812 L 217.28111267089844 171.59661865234375 L 218.18515014648438 170.63665771484375 L 219.08917236328125 169.6763153076172 L 219.9932098388672 168.71609497070312 L 220.89723205566406 167.7564697265625 L 221.80126953125 166.7974853515625 L 222.70530700683594 165.83871459960938 L 223.6093292236328 164.87973022460938 L 224.51336669921875 163.92051696777344 L 225.41738891601562 162.9613800048828 L 226.32142639160156 162.00270080566406 L 227.22544860839844 161.0445556640625 L 228.12948608398438 160.086669921875 L 229.03350830078125 159.12872314453125 L 229.9375457763672 158.17063903808594 L 230.84156799316406 157.21263122558594 L 231.74560546875 156.25498962402344 L 232.64962768554688 155.2978057861328 L 233.5536651611328 154.34091186523438 L 234.4576873779297 153.38406372070312 L 235.36172485351562 152.4271697998047 L 236.2657470703125 151.47035217285156 L 237.16978454589844 150.51385498046875 L 238.07382202148438 149.55775451660156 L 238.97784423828125 148.6019744873047 L 239.8818817138672 147.64630126953125 L 240.78590393066406 146.69065856933594 L 241.68994140625 145.73513793945312 L 242.59396362304688 144.77989196777344 L 243.4980010986328 143.8250274658203 L 244.4020233154297 142.87046813964844 L 245.30606079101562 141.9160919189453 L 246.2100830078125 140.96182250976562 L 247.11412048339844 140.00770568847656 L 248.0181427001953 139.05386352539062 L 248.92218017578125 138.1003875732422 L 249.82620239257812 137.14723205566406 L 250.73023986816406 136.19430541992188 L 251.63426208496094 135.24156188964844 L 252.53829956054688 134.2890167236328 L 253.44232177734375 133.3367462158203 L 254.3463592529297 132.3848419189453 L 255.25039672851562 131.43328857421875 L 256.1544189453125 130.48204040527344 L 257.0584411621094 129.53102111816406 L 257.9624938964844 128.58026123046875 L 258.86651611328125 127.62980651855469 L 259.7705383300781 126.67974853515625 L 260.674560546875 125.73007202148438 L 261.57861328125 124.78075408935547 L 262.4826354980469 123.83175659179688 L 263.38665771484375 122.8830795288086 L 264.2906799316406 121.93477630615234 L 265.1947326660156 120.98690795898438 L 266.0987548828125 120.03948974609375 L 267.0027770996094 119.09249877929688 L 267.90679931640625 118.14592742919922 L 268.81085205078125 117.19977569580078 L 269.7148742675781 116.25408935546875 L 270.618896484375 115.30891418457031 L 271.52294921875 114.36428833007812 L 272.4269714355469 113.42020416259766 L 273.33099365234375 112.47666931152344 L 274.2350158691406 111.53369140625 L 275.1390686035156 110.59132385253906 L 276.0430908203125 109.64960479736328 L 276.9471130371094 108.7085952758789 L 277.85113525390625 107.76830291748047 L 278.75518798828125 106.8287582397461 L 279.6592102050781 105.88999938964844 L 280.563232421875 104.95206451416016 L 281.4672546386719 104.0150375366211 L 282.3713073730469 103.0789794921875 L 283.27532958984375 102.14395141601562 L 284.1793518066406 101.21001434326172 L 285.0833740234375 100.27722930908203 L 285.9874267578125 99.34569549560547 L 286.8914489746094 98.41551971435547 L 287.79547119140625 97.48681640625 L 288.69952392578125 96.55972290039062 L 289.6035461425781 95.63436126708984 L 290.507568359375 94.71089172363281 L 291.4115905761719 93.78948974609375 L 292.3156433105469 92.8703842163086 L 293.21966552734375 91.95381164550781 L 294.1236877441406 91.04004669189453 L 295.0277099609375 90.12940216064453 L 295.9317626953125 89.22221374511719 L 296.8357849121094 88.31888580322266 L 297.73980712890625 87.41986083984375 L 298.6438293457031 86.52562713623047 L 299.5478820800781 85.63668060302734 L 300.451904296875 84.75352478027344 L 301.3559265136719 83.87663269042969 L 302.2599792480469 83.00638580322266 L 303.16400146484375 82.14307403564453 L 304.0680236816406 81.2868423461914 L 304.9720458984375 80.43767547607422 L 305.8760986328125 79.595458984375 L 306.7801208496094 78.76000213623047 L 307.68414306640625 77.93114471435547 L 308.5881652832031 77.10877990722656 L 309.4922180175781 76.29289245605469 L 310.396240234375 75.48355102539062 L 311.3002624511719 74.6809310913086 L 312.20428466796875 73.88526916503906 L 313.10833740234375 73.09691619873047 L 314.0123596191406 72.31632232666016 L 314.9163818359375 71.5440902709961 L 315.8204040527344 70.78095245361328 L 316.7244567871094 70.02781677246094 L 317.62847900390625 69.28578186035156 L 318.5325012207031 68.55610656738281 L 319.4365539550781 67.84030151367188 L 320.340576171875 67.14006805419922 L 321.2445983886719 66.45732116699219 L 322.14862060546875 65.79417419433594 L 323.05267333984375 65.15286254882812 L 323.9566955566406 64.53569030761719 L 324.8607177734375 63.9449348449707 L 325.7647399902344 63.38273620605469 L 326.6687927246094 62.85099792480469 L 327.57281494140625 62.35129165649414 L 328.4768371582031 61.8847541809082 L 329.380859375 61.452030181884766 L 330.284912109375 61.05322265625 L 331.1889343261719 60.68788528442383 L 332.09295654296875 60.355079650878906 L 332.99700927734375 60.053401947021484 L 333.9010314941406 59.78110885620117 L 334.8050537109375 59.53618240356445 L 335.7090759277344 59.31644821166992 L 336.6131286621094 59.11967468261719 L 337.51715087890625 58.943634033203125 L 338.4211730957031 58.78617858886719 L 339.3251953125 58.6452751159668 L 340.229248046875 58.51904296875 L 341.1332702636719 58.40576171875 L 342.03729248046875 58.30388259887695 L 342.9413146972656 58.2120246887207 L 343.8453674316406 58.12895965576172 L 344.7493896484375 58.0536003112793 L 345.6534118652344 57.98501205444336 L 346.55743408203125 57.92236328125 L 347.46148681640625 57.864933013916016 L 348.3655090332031 57.81209945678711 L 349.26953125 57.76332092285156 L 350.173583984375 57.71813201904297 L 351.0776062011719 57.676116943359375 L 351.98162841796875 57.636932373046875 L 352.8856506347656 57.60026931762695 L 353.7897033691406 57.56586456298828 L 354.6937255859375 57.53348159790039 L 355.5977478027344 57.50292205810547 L 356.50177001953125 57.4740104675293 L 357.40582275390625 57.44659423828125 L 358.3098449707031 57.420536041259766 L 359.2138671875 57.39571762084961 L 360.1178894042969 57.37203598022461 L 361.0219421386719 57.349395751953125 L 361.92596435546875 57.32771301269531 L 362.8299865722656 57.30691909790039 L 363.7340087890625 57.28694152832031 L 364.6380615234375 57.267730712890625 L 365.5420837402344 57.24922561645508 L 366.44610595703125 57.231380462646484 L 367.35015869140625 57.21415328979492 L 368.2541809082031 57.19750213623047 L 369.158203125 57.181392669677734 L 370.0622253417969 57.16579818725586 L 370.9662780761719 57.15067672729492 L 371.87030029296875 57.13601303100586 L 372.7743225097656 57.12177658081055 L 373.6783447265625 57.10794448852539 L 374.5823974609375 57.0944938659668 L 375.4864196777344 57.08140563964844 L 376.39044189453125 57.068668365478516 L 377.2944641113281 57.05625534057617 L 378.1985168457031 57.04415512084961 L 379.1025390625 57.032352447509766 L 380.0065612792969 57.020835876464844 L 380.9106140136719 57.00959396362305 L 381.81463623046875 56.99860763549805 L 382.7186584472656 56.98786926269531 L 383.6226806640625 56.97737121582031 L 384.5267333984375 56.96710205078125 L 385.4307556152344 56.95705032348633 L 386.33477783203125 56.947208404541016 L 387.2388000488281 56.93756866455078 L 388.1428527832031 56.92812728881836 L 389.046875 56.91886901855469 L 389.9508972167969 56.9097900390625 L 390.85491943359375 56.90088653564453 L 391.75897216796875 56.89215087890625 L 392.6629943847656 56.883575439453125 L 393.5670166015625 56.87515640258789 L 394.4710388183594 56.866886138916016 L 395.3750915527344 56.8587646484375 L 396.27911376953125 56.85078048706055 L 397.1831359863281 56.842933654785156 L 398.0871887207031 56.8352165222168 L 398.9912109375 56.82762908935547 L 399.8952331542969 56.820167541503906 L 400.79925537109375 56.81282043457031 L 401.70330810546875 56.80559158325195 L 402.6073303222656 56.79847717285156 L 403.5113525390625 56.79146957397461 L 404.4153747558594 56.78457260131836 L 405.3194274902344 56.777774810791016 L 406.22344970703125 56.77107620239258 L 407.1274719238281 56.76447677612305 L 408.031494140625 56.757972717285156 L 408.935546875 56.75156021118164 L 409.8395690917969 56.745235443115234 L 410.74359130859375 56.7390022277832 L 411.6476135253906 56.73284912109375 L 412.5516662597656 56.726783752441406 L 413.4556884765625 56.720794677734375 L 414.3597106933594 56.71488571166992 L 415.2637634277344 56.70905303955078 L 416.16778564453125 56.70329666137695 L 417.0718078613281 56.69761276245117 L 417.975830078125 56.69199752807617 L 418.8798828125 56.68645477294922 L 419.7839050292969 56.68097686767578 L 420.68792724609375 56.675567626953125 L 421.5919494628906 56.670223236083984 L 422.4960021972656 56.664939880371094 L 423.4000244140625 56.65972137451172 L 424.3040466308594 56.65456008911133 L 425.20806884765625 56.64945983886719 L 426.11212158203125 56.64441680908203 L 427.0161437988281 56.63943099975586 L 427.920166015625 56.634498596191406 L 428.82421875 56.62961959838867 L 429.7282409667969 56.62479782104492 L 430.63226318359375 56.620025634765625 L 431.5362854003906 56.61530303955078 L 432.4403381347656 56.61063003540039 L 433.3443603515625 56.60600662231445 L 434.2483825683594 56.60143280029297 L 435.15240478515625 56.59690475463867 L 436.05645751953125 56.59242248535156 L 436.9604797363281 56.587982177734375 L 437.864501953125 56.583587646484375 L 438.7685241699219 56.57923889160156 L 439.6725769042969 56.57493209838867 L 440.57659912109375 56.57066345214844 L 441.4806213378906 56.56644058227539 L 442.3846435546875 56.562252044677734 L 443.2886962890625 56.558109283447266 L 444.1927185058594 56.55400085449219 L 445.09674072265625 56.549930572509766 L 446.00079345703125 56.5458984375 L 446.9048156738281 56.54190444946289 L 447.808837890625 56.53794479370117 L 448.7128601074219 56.534019470214844 L 449.6169128417969 56.530128479003906 L 450.52093505859375 56.526275634765625 L 451.4249572753906 56.52245330810547 L 452.3289794921875 56.51866149902344 L 453.2330322265625 56.51490783691406 L 454.1370544433594 56.51118087768555 L 455.04107666015625 56.50748825073242 L 455.9450988769531 56.50382614135742 L 456.8491516113281 56.50019454956055 L 457.753173828125 56.49658966064453 L 458.6571960449219 56.493019104003906 L 459.5612487792969 56.48947525024414 L 460.46527099609375 56.485958099365234 L 461.3692932128906 56.48247146606445 L 462.2733154296875 56.47901153564453 L 463.1773681640625 56.47557830810547 L 464.0813903808594 56.472171783447266 L 464.98541259765625 56.46879196166992 L 465.8894348144531 56.46543884277344 L 466.7934875488281 56.46210861206055 L 467.697509765625 56.458805084228516 L 468.6015319824219 56.455528259277344 L 469.50555419921875 56.452274322509766 L 470.40960693359375 56.44904327392578 L 471.3136291503906 56.445838928222656 L 472.2176513671875 56.44265365600586 L 473.1216735839844 56.43949508666992 L 474.0257263183594 56.43635940551758 L 474.92974853515625 56.43324279785156 L 475.8337707519531 56.43014907836914 L 476.7378234863281 56.42707824707031 L 477.641845703125 56.42403030395508 L 478.5458679199219 56.42100143432617 L 479.44989013671875 56.41799545288086 L 480.35394287109375 56.415008544921875 L 481.2579650878906 56.41204071044922 L 482.1619873046875 56.409095764160156 L 483.0660095214844 56.406166076660156 L 483.9700622558594 56.40325927734375 L 484.87408447265625 56.40037155151367 L 485.7781066894531 56.39750289916992 L 486.68212890625 56.3946533203125 L 487.586181640625 56.391822814941406 L 488.4902038574219 56.389007568359375 L 489.39422607421875 56.38621520996094 L 490.2982482910156 56.38343811035156 L 491.2023010253906 56.38067626953125 L 492.1063232421875 56.377933502197266 L 493.0103454589844 56.37520980834961 L 493.9143981933594 56.372501373291016 L 494.81842041015625 56.369808197021484 L 495.7224426269531 56.36713409423828 L 496.62646484375 56.36447525024414 L 497.530517578125 56.36183547973633 L 498.4345397949219 56.35920715332031 L 499.33856201171875 56.356597900390625 L 500.2425842285156 56.35400390625 L 501.1466369628906 56.35142135620117 L 502.0506591796875 56.34885787963867 L 502.9546813964844 56.346309661865234 L 503.85870361328125 56.343772888183594 L 504.76275634765625 56.34125518798828 L 505.6667785644531 56.338748931884766 L 506.57080078125 56.33625793457031 L 507.474853515625 56.33378219604492 L 508.3788757324219 56.33131790161133 L 509.28289794921875 56.3288688659668 L 510.1869201660156 56.32643508911133 L 511.0909729003906 56.324012756347656 L 511.9949951171875 56.32160568237305 L 512.8990478515625 56.319210052490234 L 513.8030395507812 56.316829681396484 L 514.7070922851562 56.31446075439453 L 515.611083984375 56.312103271484375" stroke-linejoin="bevel" stroke-miterlimit="10" stroke-width="3" clip-path="url(#xlkphAMETIKB)"/><path fill="rgb(0,0,128)" stroke="rgb(0,0,128)" paint-order="fill" d="M 66.12399995326996 332.2409973144531 A 1.6239999532699585 1.6239999532699585 0 0 1 62.87600004673004 332.2409973144531 A 1.6239999532699585 1.6239999532699585 0 0 1 66.12399995326996 332.2409973144531" fill-opacity="0.2" clip-path="url(#HFOhTpgysiEC)" stroke-opacity="1" stroke-linejoin="bevel" stroke-miterlimit="10"/><path fill="rgb(0,0,128)" stroke="rgb(0,0,128)" paint-order="fill" d="M 74.24400269985199 332.27105712890625 A 1.6239999532699585 1.6239999532699585 0 0 1 70.99600279331207 332.27105712890625 A 1.6239999532699585 1.6239999532699585 0 0 1 74.24400269985199 332.27105712890625" fill-opacity="0.2" clip-path="url(#HFOhTpgysiEC)" stroke-opacity="1" stroke-linejoin="bevel" stroke-miterlimit="10"/><path fill="rgb(0,0,128)" stroke="rgb(0,0,128)" paint-order="fill" d="M 82.36399781703949 332.2409973144531 A 1.6239999532699585 1.6239999532699585 0 0 1 79.11599791049957 332.2409973144531 A 1.6239999532699585 1.6239999532699585 0 0 1 82.36399781703949 332.2409973144531" fill-opacity="0.2" clip-path="url(#HFOhTpgysiEC)" stroke-opacity="1" stroke-linejoin="bevel" stroke-miterlimit="10"/><path fill="rgb(0,0,128)" stroke="rgb(0,0,128)" paint-order="fill" d="M 90.48400056362152 332.0906677246094 A 1.6239999532699585 1.6239999532699585 0 0 1 87.2360006570816 332.0906677246094 A 1.6239999532699585 1.6239999532699585 0 0 1 90.48400056362152 332.0906677246094" fill-opacity="0.2" clip-path="url(#HFOhTpgysiEC)" stroke-opacity="1" stroke-linejoin="bevel" stroke-miterlimit="10"/><path fill="rgb(0,0,128)" stroke="rgb(0,0,128)" paint-order="fill" d="M 98.60400331020355 331.03839111328125 A 1.6239999532699585 1.6239999532699585 0 0 1 95.35600340366364 331.03839111328125 A 1.6239999532699585 1.6239999532699585 0 0 1 98.60400331020355 331.03839111328125" fill-opacity="0.2" clip-path="url(#HFOhTpgysiEC)" stroke-opacity="1" stroke-linejoin="bevel" stroke-miterlimit="10"/><path fill="rgb(0,0,128)" stroke="rgb(0,0,128)" paint-order="fill" d="M 106.72399842739105 328.3927001953125 A 1.6239999532699585 1.6239999532699585 0 0 1 103.47599852085114 328.3927001953125 A 1.6239999532699585 1.6239999532699585 0 0 1 106.72399842739105 328.3927001953125" fill-opacity="0.2" clip-path="url(#HFOhTpgysiEC)" stroke-opacity="1" stroke-linejoin="bevel" stroke-miterlimit="10"/><path fill="rgb(0,0,128)" stroke="rgb(0,0,128)" paint-order="fill" d="M 114.84400117397308 323.1012878417969 A 1.6239999532699585 1.6239999532699585 0 0 1 111.59600126743317 323.1012878417969 A 1.6239999532699585 1.6239999532699585 0 0 1 114.84400117397308 323.1012878417969" fill-opacity="0.2" clip-path="url(#HFOhTpgysiEC)" stroke-opacity="1" stroke-linejoin="bevel" stroke-miterlimit="10"/><path fill="rgb(0,0,128)" stroke="rgb(0,0,128)" paint-order="fill" d="M 122.96399629116058 315.1341247558594 A 1.6239999532699585 1.6239999532699585 0 0 1 119.71599638462067 315.1341247558594 A 1.6239999532699585 1.6239999532699585 0 0 1 122.96399629116058 315.1341247558594" fill-opacity="0.2" clip-path="url(#HFOhTpgysiEC)" stroke-opacity="1" stroke-linejoin="bevel" stroke-miterlimit="10"/><path fill="rgb(0,0,128)" stroke="rgb(0,0,128)" paint-order="fill" d="M 131.08400666713715 305.18267822265625 A 1.6239999532699585 1.6239999532699585 0 0 1 127.83600676059723 305.18267822265625 A 1.6239999532699585 1.6239999532699585 0 0 1 131.08400666713715 305.18267822265625" fill-opacity="0.2" clip-path="url(#HFOhTpgysiEC)" stroke-opacity="1" stroke-linejoin="bevel" stroke-miterlimit="10"/><path fill="rgb(0,0,128)" stroke="rgb(0,0,128)" paint-order="fill" d="M 139.20400178432465 293.758056640625 A 1.6239999532699585 1.6239999532699585 0 0 1 135.95600187778473 293.758056640625 A 1.6239999532699585 1.6239999532699585 0 0 1 139.20400178432465 293.758056640625" fill-opacity="0.2" clip-path="url(#HFOhTpgysiEC)" stroke-opacity="1" stroke-linejoin="bevel" stroke-miterlimit="10"/><path fill="rgb(0,0,128)" stroke="rgb(0,0,128)" paint-order="fill" d="M 147.32399690151215 281.0105895996094 A 1.6239999532699585 1.6239999532699585 0 0 1 144.07599699497223 281.0105895996094 A 1.6239999532699585 1.6239999532699585 0 0 1 147.32399690151215 281.0105895996094" fill-opacity="0.2" clip-path="url(#HFOhTpgysiEC)" stroke-opacity="1" stroke-linejoin="bevel" stroke-miterlimit="10"/><path fill="rgb(0,0,128)" stroke="rgb(0,0,128)" paint-order="fill" d="M 155.4440072774887 267.84222412109375 A 1.6239999532699585 1.6239999532699585 0 0 1 152.1960073709488 267.84222412109375 A 1.6239999532699585 1.6239999532699585 0 0 1 155.4440072774887 267.84222412109375" fill-opacity="0.2" clip-path="url(#HFOhTpgysiEC)" stroke-opacity="1" stroke-linejoin="bevel" stroke-miterlimit="10"/><path fill="rgb(0,0,128)" stroke="rgb(0,0,128)" paint-order="fill" d="M 163.5640023946762 253.86207580566406 A 1.6239999532699585 1.6239999532699585 0 0 1 160.3160024881363 253.86207580566406 A 1.6239999532699585 1.6239999532699585 0 0 1 163.5640023946762 253.86207580566406" fill-opacity="0.2" clip-path="url(#HFOhTpgysiEC)" stroke-opacity="1" stroke-linejoin="bevel" stroke-miterlimit="10"/><path fill="rgb(0,0,128)" stroke="rgb(0,0,128)" paint-order="fill" d="M 171.6839975118637 239.25059509277344 A 1.6239999532699585 1.6239999532699585 0 0 1 168.4359976053238 239.25059509277344 A 1.6239999532699585 1.6239999532699585 0 0 1 171.6839975118637 239.25059509277344" fill-opacity="0.2" clip-path="url(#HFOhTpgysiEC)" stroke-opacity="1" stroke-linejoin="bevel" stroke-miterlimit="10"/><path fill="rgb(0,0,128)" stroke="rgb(0,0,128)" paint-order="fill" d="M 179.8039926290512 226.4429931640625 A 1.6239999532699585 1.6239999532699585 0 0 1 176.5559927225113 226.4429931640625 A 1.6239999532699585 1.6239999532699585 0 0 1 179.8039926290512 226.4429931640625" fill-opacity="0.2" clip-path="url(#HFOhTpgysiEC)" stroke-opacity="1" stroke-linejoin="bevel" stroke-miterlimit="10"/><path fill="rgb(0,0,128)" stroke="rgb(0,0,128)" paint-order="fill" d="M 187.92400300502777 213.4550018310547 A 1.6239999532699585 1.6239999532699585 0 0 1 184.67600309848785 213.4550018310547 A 1.6239999532699585 1.6239999532699585 0 0 1 187.92400300502777 213.4550018310547" fill-opacity="0.2" clip-path="url(#HFOhTpgysiEC)" stroke-opacity="1" stroke-linejoin="bevel" stroke-miterlimit="10"/><path fill="rgb(0,0,128)" stroke="rgb(0,0,128)" paint-order="fill" d="M 196.04399812221527 200.25656127929688 A 1.6239999532699585 1.6239999532699585 0 0 1 192.79599821567535 200.25656127929688 A 1.6239999532699585 1.6239999532699585 0 0 1 196.04399812221527 200.25656127929688" fill-opacity="0.2" clip-path="url(#HFOhTpgysiEC)" stroke-opacity="1" stroke-linejoin="bevel" stroke-miterlimit="10"/><path fill="rgb(0,0,128)" stroke="rgb(0,0,128)" paint-order="fill" d="M 204.16399323940277 187.8097381591797 A 1.6239999532699585 1.6239999532699585 0 0 1 200.91599333286285 187.8097381591797 A 1.6239999532699585 1.6239999532699585 0 0 1 204.16399323940277 187.8097381591797" fill-opacity="0.2" clip-path="url(#HFOhTpgysiEC)" stroke-opacity="1" stroke-linejoin="bevel" stroke-miterlimit="10"/><path fill="rgb(0,0,128)" stroke="rgb(0,0,128)" paint-order="fill" d="M 212.28400361537933 176.3550567626953 A 1.6239999532699585 1.6239999532699585 0 0 1 209.03600370883942 176.3550567626953 A 1.6239999532699585 1.6239999532699585 0 0 1 212.28400361537933 176.3550567626953" fill-opacity="0.2" clip-path="url(#HFOhTpgysiEC)" stroke-opacity="1" stroke-linejoin="bevel" stroke-miterlimit="10"/><path fill="rgb(0,0,128)" stroke="rgb(0,0,128)" paint-order="fill" d="M 220.40399873256683 164.299072265625 A 1.6239999532699585 1.6239999532699585 0 0 1 217.15599882602692 164.299072265625 A 1.6239999532699585 1.6239999532699585 0 0 1 220.40399873256683 164.299072265625" fill-opacity="0.2" clip-path="url(#HFOhTpgysiEC)" stroke-opacity="1" stroke-linejoin="bevel" stroke-miterlimit="10"/><path fill="rgb(0,0,128)" stroke="rgb(0,0,128)" paint-order="fill" d="M 228.52399384975433 152.48361206054688 A 1.6239999532699585 1.6239999532699585 0 0 1 225.27599394321442 152.48361206054688 A 1.6239999532699585 1.6239999532699585 0 0 1 228.52399384975433 152.48361206054688" fill-opacity="0.2" clip-path="url(#HFOhTpgysiEC)" stroke-opacity="1" stroke-linejoin="bevel" stroke-miterlimit="10"/><path fill="rgb(0,0,128)" stroke="rgb(0,0,128)" paint-order="fill" d="M 236.6440042257309 142.2014617919922 A 1.6239999532699585 1.6239999532699585 0 0 1 233.39600431919098 142.2014617919922 A 1.6239999532699585 1.6239999532699585 0 0 1 236.6440042257309 142.2014617919922" fill-opacity="0.2" clip-path="url(#HFOhTpgysiEC)" stroke-opacity="1" stroke-linejoin="bevel" stroke-miterlimit="10"/><path fill="rgb(0,0,128)" stroke="rgb(0,0,128)" paint-order="fill" d="M 244.7639993429184 130.9271697998047 A 1.6239999532699585 1.6239999532699585 0 0 1 241.51599943637848 130.9271697998047 A 1.6239999532699585 1.6239999532699585 0 0 1 244.7639993429184 130.9271697998047" fill-opacity="0.2" clip-path="url(#HFOhTpgysiEC)" stroke-opacity="1" stroke-linejoin="bevel" stroke-miterlimit="10"/><path fill="rgb(0,0,128)" stroke="rgb(0,0,128)" paint-order="fill" d="M 252.8839944601059 122.3286361694336 A 1.6239999532699585 1.6239999532699585 0 0 1 249.63599455356598 122.3286361694336 A 1.6239999532699585 1.6239999532699585 0 0 1 252.8839944601059 122.3286361694336" fill-opacity="0.2" clip-path="url(#HFOhTpgysiEC)" stroke-opacity="1" stroke-linejoin="bevel" stroke-miterlimit="10"/><path fill="rgb(0,0,128)" stroke="rgb(0,0,128)" paint-order="fill" d="M 261.00400483608246 112.40725708007812 A 1.6239999532699585 1.6239999532699585 0 0 1 257.75600492954254 112.40725708007812 A 1.6239999532699585 1.6239999532699585 0 0 1 261.00400483608246 112.40725708007812" fill-opacity="0.2" clip-path="url(#HFOhTpgysiEC)" stroke-opacity="1" stroke-linejoin="bevel" stroke-miterlimit="10"/><path fill="rgb(0,0,128)" stroke="rgb(0,0,128)" paint-order="fill" d="M 269.12399995326996 107.32630920410156 A 1.6239999532699585 1.6239999532699585 0 0 1 265.87600004673004 107.32630920410156 A 1.6239999532699585 1.6239999532699585 0 0 1 269.12399995326996 107.32630920410156" fill-opacity="0.2" clip-path="url(#HFOhTpgysiEC)" stroke-opacity="1" stroke-linejoin="bevel" stroke-miterlimit="10"/><path fill="rgb(0,0,128)" stroke="rgb(0,0,128)" paint-order="fill" d="M 277.24399507045746 98.57745361328125 A 1.6239999532699585 1.6239999532699585 0 0 1 273.99599516391754 98.57745361328125 A 1.6239999532699585 1.6239999532699585 0 0 1 277.24399507045746 98.57745361328125" fill-opacity="0.2" clip-path="url(#HFOhTpgysiEC)" stroke-opacity="1" stroke-linejoin="bevel" stroke-miterlimit="10"/><path fill="rgb(0,0,128)" stroke="rgb(0,0,128)" paint-order="fill" d="M 285.36399018764496 92.50436401367188 A 1.6239999532699585 1.6239999532699585 0 0 1 282.11599028110504 92.50436401367188 A 1.6239999532699585 1.6239999532699585 0 0 1 285.36399018764496 92.50436401367188" fill-opacity="0.2" clip-path="url(#HFOhTpgysiEC)" stroke-opacity="1" stroke-linejoin="bevel" stroke-miterlimit="10"/><path fill="rgb(0,0,128)" stroke="rgb(0,0,128)" paint-order="fill" d="M 293.48398530483246 86.85218811035156 A 1.6239999532699585 1.6239999532699585 0 0 1 290.23598539829254 86.85218811035156 A 1.6239999532699585 1.6239999532699585 0 0 1 293.48398530483246 86.85218811035156" fill-opacity="0.2" clip-path="url(#HFOhTpgysiEC)" stroke-opacity="1" stroke-linejoin="bevel" stroke-miterlimit="10"/><path fill="rgb(0,0,128)" stroke="rgb(0,0,128)" paint-order="fill" d="M 301.6040109395981 81.62091064453125 A 1.6239999532699585 1.6239999532699585 0 0 1 298.35601103305817 81.62091064453125 A 1.6239999532699585 1.6239999532699585 0 0 1 301.6040109395981 81.62091064453125" fill-opacity="0.2" clip-path="url(#HFOhTpgysiEC)" stroke-opacity="1" stroke-linejoin="bevel" stroke-miterlimit="10"/><path fill="rgb(0,0,128)" stroke="rgb(0,0,128)" paint-order="fill" d="M 309.7240060567856 76.35957336425781 A 1.6239999532699585 1.6239999532699585 0 0 1 306.47600615024567 76.35957336425781 A 1.6239999532699585 1.6239999532699585 0 0 1 309.7240060567856 76.35957336425781" fill-opacity="0.2" clip-path="url(#HFOhTpgysiEC)" stroke-opacity="1" stroke-linejoin="bevel" stroke-miterlimit="10"/><path fill="rgb(0,0,128)" stroke="rgb(0,0,128)" paint-order="fill" d="M 317.8440011739731 71.90998840332031 A 1.6239999532699585 1.6239999532699585 0 0 1 314.59600126743317 71.90998840332031 A 1.6239999532699585 1.6239999532699585 0 0 1 317.8440011739731 71.90998840332031" fill-opacity="0.2" clip-path="url(#HFOhTpgysiEC)" stroke-opacity="1" stroke-linejoin="bevel" stroke-miterlimit="10"/><path fill="rgb(0,0,128)" stroke="rgb(0,0,128)" paint-order="fill" d="M 325.9639962911606 67.24994659423828 A 1.6239999532699585 1.6239999532699585 0 0 1 322.71599638462067 67.24994659423828 A 1.6239999532699585 1.6239999532699585 0 0 1 325.9639962911606 67.24994659423828" fill-opacity="0.2" clip-path="url(#HFOhTpgysiEC)" stroke-opacity="1" stroke-linejoin="bevel" stroke-miterlimit="10"/><path fill="rgb(0,0,128)" stroke="rgb(0,0,128)" paint-order="fill" d="M 334.0839914083481 65.89702606201172 A 1.6239999532699585 1.6239999532699585 0 0 1 330.83599150180817 65.89702606201172 A 1.6239999532699585 1.6239999532699585 0 0 1 334.0839914083481 65.89702606201172" fill-opacity="0.2" clip-path="url(#HFOhTpgysiEC)" stroke-opacity="1" stroke-linejoin="bevel" stroke-miterlimit="10"/><path fill="rgb(0,0,128)" stroke="rgb(0,0,128)" paint-order="fill" d="M 342.2039865255356 60.30497741699219 A 1.6239999532699585 1.6239999532699585 0 0 1 338.95598661899567 60.30497741699219 A 1.6239999532699585 1.6239999532699585 0 0 1 342.2039865255356 60.30497741699219" fill-opacity="0.2" clip-path="url(#HFOhTpgysiEC)" stroke-opacity="1" stroke-linejoin="bevel" stroke-miterlimit="10"/><path fill="rgb(0,0,128)" stroke="rgb(0,0,128)" paint-order="fill" d="M 350.3240121603012 54.472408294677734 A 1.6239999532699585 1.6239999532699585 0 0 1 347.0760122537613 54.472408294677734 A 1.6239999532699585 1.6239999532699585 0 0 1 350.3240121603012 54.472408294677734" fill-opacity="0.2" clip-path="url(#HFOhTpgysiEC)" stroke-opacity="1" stroke-linejoin="bevel" stroke-miterlimit="10"/><path fill="rgb(0,0,128)" stroke="rgb(0,0,128)" paint-order="fill" d="M 358.4440072774887 54.14169692993164 A 1.6239999532699585 1.6239999532699585 0 0 1 355.1960073709488 54.14169692993164 A 1.6239999532699585 1.6239999532699585 0 0 1 358.4440072774887 54.14169692993164" fill-opacity="0.2" clip-path="url(#HFOhTpgysiEC)" stroke-opacity="1" stroke-linejoin="bevel" stroke-miterlimit="10"/><path fill="rgb(0,0,128)" stroke="rgb(0,0,128)" paint-order="fill" d="M 366.5640023946762 52.84891128540039 A 1.6239999532699585 1.6239999532699585 0 0 1 363.3160024881363 52.84891128540039 A 1.6239999532699585 1.6239999532699585 0 0 1 366.5640023946762 52.84891128540039" fill-opacity="0.2" clip-path="url(#HFOhTpgysiEC)" stroke-opacity="1" stroke-linejoin="bevel" stroke-miterlimit="10"/><path fill="rgb(0,0,128)" stroke="rgb(0,0,128)" paint-order="fill" d="M 374.6839975118637 51.4659309387207 A 1.6239999532699585 1.6239999532699585 0 0 1 371.4359976053238 51.4659309387207 A 1.6239999532699585 1.6239999532699585 0 0 1 374.6839975118637 51.4659309387207" fill-opacity="0.2" clip-path="url(#HFOhTpgysiEC)" stroke-opacity="1" stroke-linejoin="bevel" stroke-miterlimit="10"/><path fill="rgb(0,0,128)" stroke="rgb(0,0,128)" paint-order="fill" d="M 382.8039926290512 47.91828536987305 A 1.6239999532699585 1.6239999532699585 0 0 1 379.5559927225113 47.91828536987305 A 1.6239999532699585 1.6239999532699585 0 0 1 382.8039926290512 47.91828536987305" fill-opacity="0.2" clip-path="url(#HFOhTpgysiEC)" stroke-opacity="1" stroke-linejoin="bevel" stroke-miterlimit="10"/><path fill="rgb(0,0,128)" stroke="rgb(0,0,128)" paint-order="fill" d="M 390.9239877462387 48.18886947631836 A 1.6239999532699585 1.6239999532699585 0 0 1 387.6759878396988 48.18886947631836 A 1.6239999532699585 1.6239999532699585 0 0 1 390.9239877462387 48.18886947631836" fill-opacity="0.2" clip-path="url(#HFOhTpgysiEC)" stroke-opacity="1" stroke-linejoin="bevel" stroke-miterlimit="10"/><path fill="rgb(0,0,128)" stroke="rgb(0,0,128)" paint-order="fill" d="M 399.04401338100433 46.26472091674805 A 1.6239999532699585 1.6239999532699585 0 0 1 395.7960134744644 46.26472091674805 A 1.6239999532699585 1.6239999532699585 0 0 1 399.04401338100433 46.26472091674805" fill-opacity="0.2" clip-path="url(#HFOhTpgysiEC)" stroke-opacity="1" stroke-linejoin="bevel" stroke-miterlimit="10"/><path fill="rgb(0,0,128)" stroke="rgb(0,0,128)" paint-order="fill" d="M 407.16400849819183 46.6254997253418 A 1.6239999532699585 1.6239999532699585 0 0 1 403.9160085916519 46.6254997253418 A 1.6239999532699585 1.6239999532699585 0 0 1 407.16400849819183 46.6254997253418" fill-opacity="0.2" clip-path="url(#HFOhTpgysiEC)" stroke-opacity="1" stroke-linejoin="bevel" stroke-miterlimit="10"/><path fill="rgb(0,0,128)" stroke="rgb(0,0,128)" paint-order="fill" d="M 415.28400361537933 46.6254997253418 A 1.6239999532699585 1.6239999532699585 0 0 1 412.0360037088394 46.6254997253418 A 1.6239999532699585 1.6239999532699585 0 0 1 415.28400361537933 46.6254997253418" fill-opacity="0.2" clip-path="url(#HFOhTpgysiEC)" stroke-opacity="1" stroke-linejoin="bevel" stroke-miterlimit="10"/><path fill="rgb(0,0,128)" stroke="rgb(0,0,128)" paint-order="fill" d="M 423.40399873256683 44.37063980102539 A 1.6239999532699585 1.6239999532699585 0 0 1 420.1559988260269 44.37063980102539 A 1.6239999532699585 1.6239999532699585 0 0 1 423.40399873256683 44.37063980102539" fill-opacity="0.2" clip-path="url(#HFOhTpgysiEC)" stroke-opacity="1" stroke-linejoin="bevel" stroke-miterlimit="10"/><path fill="rgb(0,0,128)" stroke="rgb(0,0,128)" paint-order="fill" d="M 431.52399384975433 44.76148223876953 A 1.6239999532699585 1.6239999532699585 0 0 1 428.2759939432144 44.76148223876953 A 1.6239999532699585 1.6239999532699585 0 0 1 431.52399384975433 44.76148223876953" fill-opacity="0.2" clip-path="url(#HFOhTpgysiEC)" stroke-opacity="1" stroke-linejoin="bevel" stroke-miterlimit="10"/><path fill="rgb(0,0,128)" stroke="rgb(0,0,128)" paint-order="fill" d="M 439.64398896694183 46.745758056640625 A 1.6239999532699585 1.6239999532699585 0 0 1 436.3959890604019 46.745758056640625 A 1.6239999532699585 1.6239999532699585 0 0 1 439.64398896694183 46.745758056640625" fill-opacity="0.2" clip-path="url(#HFOhTpgysiEC)" stroke-opacity="1" stroke-linejoin="bevel" stroke-miterlimit="10"/><path fill="rgb(0,0,128)" stroke="rgb(0,0,128)" paint-order="fill" d="M 447.76401460170746 48.12873840332031 A 1.6239999532699585 1.6239999532699585 0 0 1 444.51601469516754 48.12873840332031 A 1.6239999532699585 1.6239999532699585 0 0 1 447.76401460170746 48.12873840332031" fill-opacity="0.2" clip-path="url(#HFOhTpgysiEC)" stroke-opacity="1" stroke-linejoin="bevel" stroke-miterlimit="10"/><path fill="rgb(0,0,128)" stroke="rgb(0,0,128)" paint-order="fill" d="M 455.88400971889496 47.527442932128906 A 1.6239999532699585 1.6239999532699585 0 0 1 452.63600981235504 47.527442932128906 A 1.6239999532699585 1.6239999532699585 0 0 1 455.88400971889496 47.527442932128906" fill-opacity="0.2" clip-path="url(#HFOhTpgysiEC)" stroke-opacity="1" stroke-linejoin="bevel" stroke-miterlimit="10"/><path fill="rgb(0,0,128)" stroke="rgb(0,0,128)" paint-order="fill" d="M 464.00400483608246 46.384979248046875 A 1.6239999532699585 1.6239999532699585 0 0 1 460.75600492954254 46.384979248046875 A 1.6239999532699585 1.6239999532699585 0 0 1 464.00400483608246 46.384979248046875" fill-opacity="0.2" clip-path="url(#HFOhTpgysiEC)" stroke-opacity="1" stroke-linejoin="bevel" stroke-miterlimit="10"/><path fill="rgb(0,0,128)" stroke="rgb(0,0,128)" paint-order="fill" d="M 472.12399995326996 44.551029205322266 A 1.6239999532699585 1.6239999532699585 0 0 1 468.87600004673004 44.551029205322266 A 1.6239999532699585 1.6239999532699585 0 0 1 472.12399995326996 44.551029205322266" fill-opacity="0.2" clip-path="url(#HFOhTpgysiEC)" stroke-opacity="1" stroke-linejoin="bevel" stroke-miterlimit="10"/><path fill="none" stroke="black" paint-order="fill" d="M 64.5 332.5 L 470.5 332.5" stroke-linejoin="bevel" stroke-miterlimit="10"/><path fill="none" stroke="black" paint-order="fill" d="M 64.5 338.5 L 64.5 330.5 M 145.5 338.5 L 145.5 330.5 M 226.5 338.5 L 226.5 330.5 M 308.5 338.5 L 308.5 330.5 M 389.5 338.5 L 389.5 330.5 M 470.5 338.5 L 470.5 330.5" stroke-linejoin="bevel" stroke-miterlimit="10"/><path fill="none" stroke="black" paint-order="fill" d="M 64.5 336.5 L 64.5 332.5 M 80.5 336.5 L 80.5 332.5 M 96.5 336.5 L 96.5 332.5 M 113.5 336.5 L 113.5 332.5 M 129.5 336.5 L 129.5 332.5 M 145.5 336.5 L 145.5 332.5 M 161.5 336.5 L 161.5 332.5 M 178.5 336.5 L 178.5 332.5 M 194.5 336.5 L 194.5 332.5 M 210.5 336.5 L 210.5 332.5 M 226.5 336.5 L 226.5 332.5 M 243.5 336.5 L 243.5 332.5 M 259.5 336.5 L 259.5 332.5 M 275.5 336.5 L 275.5 332.5 M 291.5 336.5 L 291.5 332.5 M 308.5 336.5 L 308.5 332.5 M 324.5 336.5 L 324.5 332.5 M 340.5 336.5 L 340.5 332.5 M 356.5 336.5 L 356.5 332.5 M 373.5 336.5 L 373.5 332.5 M 389.5 336.5 L 389.5 332.5 M 405.5 336.5 L 405.5 332.5 M 421.5 336.5 L 421.5 332.5 M 438.5 336.5 L 438.5 332.5 M 454.5 336.5 L 454.5 332.5 M 470.5 336.5 L 470.5 332.5" stroke-linejoin="bevel" stroke-miterlimit="10"/><text fill="#444444" stroke="none" font-family="Work Sans" font-size="15pt" font-style="normal" font-weight="normal" text-decoration="normal" x="59" y="357.31640625" text-anchor="start" dominant-baseline="alphabetic" transform="matrix(1, 0, 0, 1, 0.5, 0.5)">0</text><text fill="none" stroke="rgb(0,0,0)" font-family="Work Sans" font-size="15pt" font-style="normal" font-weight="normal" text-decoration="normal" x="59" y="357.31640625" text-anchor="start" dominant-baseline="alphabetic" transform="matrix(1, 0, 0, 1, 0.5, 0.5)" stroke-opacity="0" stroke-linejoin="bevel" stroke-miterlimit="10">0</text><text fill="#444444" stroke="none" font-family="Work Sans" font-size="15pt" font-style="normal" font-weight="normal" text-decoration="normal" x="132.6999969482422" y="357.31640625" text-anchor="start" dominant-baseline="alphabetic" transform="matrix(1, 0, 0, 1, 0.5, 0.5)">0.5</text><text fill="none" stroke="rgb(0,0,0)" font-family="Work Sans" font-size="15pt" font-style="normal" font-weight="normal" text-decoration="normal" x="132.6999969482422" y="357.31640625" text-anchor="start" dominant-baseline="alphabetic" transform="matrix(1, 0, 0, 1, 0.5, 0.5)" stroke-opacity="0" stroke-linejoin="bevel" stroke-miterlimit="10">0.5</text><text fill="#444444" stroke="none" font-family="Work Sans" font-size="15pt" font-style="normal" font-weight="normal" text-decoration="normal" x="221.39999389648438" y="357.31640625" text-anchor="start" dominant-baseline="alphabetic" transform="matrix(1, 0, 0, 1, 0.5, 0.5)">1</text><text fill="none" stroke="rgb(0,0,0)" font-family="Work Sans" font-size="15pt" font-style="normal" font-weight="normal" text-decoration="normal" x="221.39999389648438" y="357.31640625" text-anchor="start" dominant-baseline="alphabetic" transform="matrix(1, 0, 0, 1, 0.5, 0.5)" stroke-opacity="0" stroke-linejoin="bevel" stroke-miterlimit="10">1</text><text fill="#444444" stroke="none" font-family="Work Sans" font-size="15pt" font-style="normal" font-weight="normal" text-decoration="normal" x="295.1000061035156" y="357.31640625" text-anchor="start" dominant-baseline="alphabetic" transform="matrix(1, 0, 0, 1, 0.5, 0.5)">1.5</text><text fill="none" stroke="rgb(0,0,0)" font-family="Work Sans" font-size="15pt" font-style="normal" font-weight="normal" text-decoration="normal" x="295.1000061035156" y="357.31640625" text-anchor="start" dominant-baseline="alphabetic" transform="matrix(1, 0, 0, 1, 0.5, 0.5)" stroke-opacity="0" stroke-linejoin="bevel" stroke-miterlimit="10">1.5</text><text fill="#444444" stroke="none" font-family="Work Sans" font-size="15pt" font-style="normal" font-weight="normal" text-decoration="normal" x="383.79998779296875" y="357.31640625" text-anchor="start" dominant-baseline="alphabetic" transform="matrix(1, 0, 0, 1, 0.5, 0.5)">2</text><text fill="none" stroke="rgb(0,0,0)" font-family="Work Sans" font-size="15pt" font-style="normal" font-weight="normal" text-decoration="normal" x="383.79998779296875" y="357.31640625" text-anchor="start" dominant-baseline="alphabetic" transform="matrix(1, 0, 0, 1, 0.5, 0.5)" stroke-opacity="0" stroke-linejoin="bevel" stroke-miterlimit="10">2</text><text fill="#444444" stroke="none" font-family="Work Sans" font-size="15pt" font-style="normal" font-weight="normal" text-decoration="normal" x="457.5" y="357.31640625" text-anchor="start" dominant-baseline="alphabetic" transform="matrix(1, 0, 0, 1, 0.5, 0.5)">2.5</text><text fill="none" stroke="rgb(0,0,0)" font-family="Work Sans" font-size="15pt" font-style="normal" font-weight="normal" text-decoration="normal" x="457.5" y="357.31640625" text-anchor="start" dominant-baseline="alphabetic" transform="matrix(1, 0, 0, 1, 0.5, 0.5)" stroke-opacity="0" stroke-linejoin="bevel" stroke-miterlimit="10">2.5</text><text fill="#444444" stroke="none" font-family="helvetica" font-size="15pt" font-style="normal" font-weight="normal" text-decoration="normal" x="210.70000076293945" y="393.31640625" text-anchor="start" dominant-baseline="alphabetic" transform="matrix(1, 0, 0, 1, 0.5, 0.5)">Time (hours)</text><text fill="none" stroke="rgb(0,0,0)" font-family="helvetica" font-size="15pt" font-style="normal" font-weight="normal" text-decoration="normal" x="210.70000076293945" y="393.31640625" text-anchor="start" dominant-baseline="alphabetic" transform="matrix(1, 0, 0, 1, 0.5, 0.5)" stroke-opacity="0" stroke-linejoin="bevel" stroke-miterlimit="10">Time (hours)</text><path fill="none" stroke="black" paint-order="fill" d="M 64.5 332.5 L 64.5 39.5" stroke-linejoin="bevel" stroke-miterlimit="10"/><path fill="none" stroke="black" paint-order="fill" d="M 58.5 332.5 L 66.5 332.5 M 58.5 283.5 L 66.5 283.5 M 58.5 234.5 L 66.5 234.5 M 58.5 186.5 L 66.5 186.5 M 58.5 137.5 L 66.5 137.5 M 58.5 88.5 L 66.5 88.5 M 58.5 39.5 L 66.5 39.5" stroke-linejoin="bevel" stroke-miterlimit="10"/><path fill="none" stroke="black" paint-order="fill" d="M 60.5 332.5 L 64.5 332.5 M 60.5 322.5 L 64.5 322.5 M 60.5 312.5 L 64.5 312.5 M 60.5 303.5 L 64.5 303.5 M 60.5 293.5 L 64.5 293.5 M 60.5 283.5 L 64.5 283.5 M 60.5 273.5 L 64.5 273.5 M 60.5 264.5 L 64.5 264.5 M 60.5 254.5 L 64.5 254.5 M 60.5 244.5 L 64.5 244.5 M 60.5 234.5 L 64.5 234.5 M 60.5 225.5 L 64.5 225.5 M 60.5 215.5 L 64.5 215.5 M 60.5 205.5 L 64.5 205.5 M 60.5 195.5 L 64.5 195.5 M 60.5 186.5 L 64.5 186.5 M 60.5 176.5 L 64.5 176.5 M 60.5 166.5 L 64.5 166.5 M 60.5 156.5 L 64.5 156.5 M 60.5 146.5 L 64.5 146.5 M 60.5 137.5 L 64.5 137.5 M 60.5 127.5 L 64.5 127.5 M 60.5 117.5 L 64.5 117.5 M 60.5 107.5 L 64.5 107.5 M 60.5 98.5 L 64.5 98.5 M 60.5 88.5 L 64.5 88.5 M 60.5 78.5 L 64.5 78.5 M 60.5 68.5 L 64.5 68.5 M 60.5 59.5 L 64.5 59.5 M 60.5 49.5 L 64.5 49.5 M 60.5 39.5 L 64.5 39.5" stroke-linejoin="bevel" stroke-miterlimit="10"/><text fill="#444444" stroke="none" font-family="Work Sans" font-size="15pt" font-style="normal" font-weight="normal" text-decoration="normal" x="43" y="339.158203125" text-anchor="start" dominant-baseline="alphabetic" transform="matrix(1, 0, 0, 1, 0.5, 0.5)">0</text><text fill="none" stroke="rgb(0,0,0)" font-family="Work Sans" font-size="15pt" font-style="normal" font-weight="normal" text-decoration="normal" x="43" y="339.158203125" text-anchor="start" dominant-baseline="alphabetic" transform="matrix(1, 0, 0, 1, 0.5, 0.5)" stroke-opacity="0" stroke-linejoin="bevel" stroke-miterlimit="10">0</text><text fill="#444444" stroke="none" font-family="Work Sans" font-size="15pt" font-style="normal" font-weight="normal" text-decoration="normal" x="43" y="290.3248596191406" text-anchor="start" dominant-baseline="alphabetic" transform="matrix(1, 0, 0, 1, 0.5, 0.5)">1</text><text fill="none" stroke="rgb(0,0,0)" font-family="Work Sans" font-size="15pt" font-style="normal" font-weight="normal" text-decoration="normal" x="43" y="290.3248596191406" text-anchor="start" dominant-baseline="alphabetic" transform="matrix(1, 0, 0, 1, 0.5, 0.5)" stroke-opacity="0" stroke-linejoin="bevel" stroke-miterlimit="10">1</text><text fill="#444444" stroke="none" font-family="Work Sans" font-size="15pt" font-style="normal" font-weight="normal" text-decoration="normal" x="43" y="241.4915313720703" text-anchor="start" dominant-baseline="alphabetic" transform="matrix(1, 0, 0, 1, 0.5, 0.5)">2</text><text fill="none" stroke="rgb(0,0,0)" font-family="Work Sans" font-size="15pt" font-style="normal" font-weight="normal" text-decoration="normal" x="43" y="241.4915313720703" text-anchor="start" dominant-baseline="alphabetic" transform="matrix(1, 0, 0, 1, 0.5, 0.5)" stroke-opacity="0" stroke-linejoin="bevel" stroke-miterlimit="10">2</text><text fill="#444444" stroke="none" font-family="Work Sans" font-size="15pt" font-style="normal" font-weight="normal" text-decoration="normal" x="43" y="192.658203125" text-anchor="start" dominant-baseline="alphabetic" transform="matrix(1, 0, 0, 1, 0.5, 0.5)">3</text><text fill="none" stroke="rgb(0,0,0)" font-family="Work Sans" font-size="15pt" font-style="normal" font-weight="normal" text-decoration="normal" x="43" y="192.658203125" text-anchor="start" dominant-baseline="alphabetic" transform="matrix(1, 0, 0, 1, 0.5, 0.5)" stroke-opacity="0" stroke-linejoin="bevel" stroke-miterlimit="10">3</text><text fill="#444444" stroke="none" font-family="Work Sans" font-size="15pt" font-style="normal" font-weight="normal" text-decoration="normal" x="43" y="143.8248748779297" text-anchor="start" dominant-baseline="alphabetic" transform="matrix(1, 0, 0, 1, 0.5, 0.5)">4</text><text fill="none" stroke="rgb(0,0,0)" font-family="Work Sans" font-size="15pt" font-style="normal" font-weight="normal" text-decoration="normal" x="43" y="143.8248748779297" text-anchor="start" dominant-baseline="alphabetic" transform="matrix(1, 0, 0, 1, 0.5, 0.5)" stroke-opacity="0" stroke-linejoin="bevel" stroke-miterlimit="10">4</text><text fill="#444444" stroke="none" font-family="Work Sans" font-size="15pt" font-style="normal" font-weight="normal" text-decoration="normal" x="43" y="94.99153900146484" text-anchor="start" dominant-baseline="alphabetic" transform="matrix(1, 0, 0, 1, 0.5, 0.5)">5</text><text fill="none" stroke="rgb(0,0,0)" font-family="Work Sans" font-size="15pt" font-style="normal" font-weight="normal" text-decoration="normal" x="43" y="94.99153900146484" text-anchor="start" dominant-baseline="alphabetic" transform="matrix(1, 0, 0, 1, 0.5, 0.5)" stroke-opacity="0" stroke-linejoin="bevel" stroke-miterlimit="10">5</text><text fill="#444444" stroke="none" font-family="Work Sans" font-size="15pt" font-style="normal" font-weight="normal" text-decoration="normal" x="43" y="46.158203125" text-anchor="start" dominant-baseline="alphabetic" transform="matrix(1, 0, 0, 1, 0.5, 0.5)">6</text><text fill="none" stroke="rgb(0,0,0)" font-family="Work Sans" font-size="15pt" font-style="normal" font-weight="normal" text-decoration="normal" x="43" y="46.158203125" text-anchor="start" dominant-baseline="alphabetic" transform="matrix(1, 0, 0, 1, 0.5, 0.5)" stroke-opacity="0" stroke-linejoin="bevel" stroke-miterlimit="10">6</text><text fill="#444444" stroke="none" font-family="helvetica" font-size="15pt" font-style="normal" font-weight="normal" text-decoration="normal" x="-66.875" y="181.5" text-anchor="start" dominant-baseline="alphabetic" transform="matrix(6.123233995736766e-17, -1, 1, 6.123233995736766e-17, -160, 211)">deGFP/Peptide (μM)</text><text fill="none" stroke="rgb(0,0,0)" font-family="helvetica" font-size="15pt" font-style="normal" font-weight="normal" text-decoration="normal" x="-66.875" y="181.5" text-anchor="start" dominant-baseline="alphabetic" transform="matrix(6.123233995736766e-17, -1, 1, 6.123233995736766e-17, -160, 211)" stroke-opacity="0" stroke-linejoin="bevel" stroke-miterlimit="10">deGFP/Peptide (μM)</text><text fill="#444444" stroke="none" font-family="helvetica" font-size="18pt" font-style="normal" font-weight="bold" text-decoration="normal" x="0" y="22" text-anchor="start" dominant-baseline="alphabetic" transform="matrix(1, 0, 0, 1, -0.5, 7.5)">C) Translation simulation of deGFP</text><text fill="none" stroke="rgb(0,0,0)" font-family="helvetica" font-size="18pt" font-style="normal" font-weight="bold" text-decoration="normal" x="0" y="22" text-anchor="start" dominant-baseline="alphabetic" transform="matrix(1, 0, 0, 1, -0.5, 7.5)" stroke-opacity="0" stroke-miterlimit="10" stroke-dasharray="">C) Translation simulation of deGFP</text></svg>