<svg version="1.1" xmlns="http://www.w3.org/2000/svg" width="800" height="600"><defs><clipPath id="gCwNfridfGLG"><path fill="none" stroke="none" d="M 64.5 39.5 L 790.5 39.5 L 790.5 533.5 L 64.5 533.5 L 64.5 39.5"/></clipPath><clipPath id="CmPywWXSdQfC"><path fill="none" stroke="none" d="M 64.5 39.5 L 790.5 39.5 L 790.5 533.5 L 64.5 533.5 L 64.5 39.5"/></clipPath><clipPath id="IMoKgvzxxFkl"><path fill="none" stroke="none" d="M 64.5 39.5 L 790.5 39.5 L 790.5 533.5 L 64.5 533.5 L 64.5 39.5"/></clipPath><clipPath id="cynrUWotyVOF"><path fill="none" stroke="none" d="M 64.5 39.5 L 790.5 39.5 L 790.5 533.5 L 64.5 533.5 L 64.5 39.5"/></clipPath><clipPath id="PhqCcOznXKaW"><path fill="none" stroke="none" d="M 64.5 39.5 L 790.5 39.5 L 790.5 533.5 L 64.5 533.5 L 64.5 39.5"/></clipPath><clipPath id="axmhwVKstJHe"><path fill="none" stroke="none" d="M 64.5 39.5 L 790.5 39.5 L 790.5 533.5 L 64.5 533.5 L 64.5 39.5"/></clipPath></defs><path fill="rgb(255,255,255)" stroke="none" paint-order="stroke" d="M 0.5 0.5 L 800.5 0.5 L 800.5 600.5 L 0.5 600.5 L 0.5 0.5" fill-opacity="1"/><rect fill="#FFFFFF" stroke="none" x="64" y="39" width="726" height="494" transform="matrix(1, 0, 0, 1, 0.5, 0.5)"/><path fill="rgb(255,255,255)" stroke="none" paint-order="stroke" d="M 64.5 39.5 L 790.5 39.5 L 790.5 533.5 L 64.5 533.5 L 64.5 39.5" fill-opacity="1"/><path fill="none" stroke="rgb(255,0,255)" paint-order="fill" d="M 64.5 533.5 L 66.11656951904297 533.5 L 67.7331314086914 533.5 L 69.34970092773438 533.5 L 70.96627044677734 533.5 L 72.58283233642578 533.4598999023438 L 74.19940185546875 529.9969482421875 L 75.81596374511719 525.0421752929688 L 77.43253326416016 523.3577880859375 L 79.04910278320312 523.13818359375 L 80.66566467285156 523.1248779296875 L 82.28223419189453 522.7071533203125 L 83.89879608154297 519.5755615234375 L 85.51536560058594 515.7340087890625 L 87.1319351196289 513.8026733398438 L 88.74849700927734 513.1266479492188 L 90.36506652832031 512.8740844726562 L 91.98162841796875 512.146484375 L 93.59819793701172 509.4891662597656 L 95.21475982666016 506.2843322753906 L 96.83132934570312 504.245361328125 L 98.4478988647461 503.2478332519531 L 100.06446075439453 502.7247619628906 L 101.6810302734375 501.7999572753906 L 103.29759216308594 499.5078430175781 L 104.9141616821289 496.72198486328125 L 106.53073120117188 494.6555480957031 L 108.14729309082031 493.4318542480469 L 109.76386260986328 492.660888671875 L 111.38042449951172 491.5966491699219 L 112.99699401855469 489.5569152832031 L 114.61356353759766 487.0719299316406 L 116.2301254272461 485.02484130859375 L 117.84669494628906 483.64312744140625 L 119.4632568359375 482.6644592285156 L 121.07982635498047 481.4925231933594 L 122.69639587402344 479.6208801269531 L 124.31295776367188 477.35943603515625 L 125.92952728271484 475.3551330566406 L 127.54608917236328 473.8644104003906 L 129.16265869140625 472.71954345703125 L 130.7792205810547 471.46014404296875 L 132.3957977294922 469.69805908203125 L 134.01235961914062 467.60443115234375 L 135.62892150878906 465.6518249511719 L 137.24549865722656 464.087646484375 L 138.862060546875 462.81329345703125 L 140.47862243652344 461.4813232421875 L 142.09518432617188 459.78900146484375 L 143.71176147460938 457.8214416503906 L 145.3283233642578 455.9211730957031 L 146.94488525390625 454.3092041015625 L 148.56146240234375 452.935791015625 L 150.1780242919922 451.5434265136719 L 151.79458618164062 449.89410400390625 L 153.41116333007812 448.020751953125 L 155.02772521972656 446.169189453125 L 156.644287109375 444.5277404785156 L 158.26084899902344 443.0797119140625 L 159.87742614746094 441.6372375488281 L 161.49398803710938 440.0132141113281 L 163.1105499267578 438.2098083496094 L 164.7271270751953 436.40130615234375 L 166.34368896484375 434.7431640625 L 167.9602508544922 433.23968505859375 L 169.5768280029297 431.7560729980469 L 171.19338989257812 430.1457214355469 L 172.80995178222656 428.393798828125 L 174.426513671875 426.62213134765625 L 176.0430908203125 424.9559631347656 L 177.65965270996094 423.411865234375 L 179.27621459960938 421.8948669433594 L 180.89279174804688 420.290771484375 L 182.5093536376953 418.576416015625 L 184.12591552734375 416.83551025390625 L 185.74249267578125 415.1670227050781 L 187.3590545654297 413.5936279296875 L 188.97561645507812 412.0498352050781 L 190.59217834472656 410.4474792480469 L 192.20875549316406 408.76025390625 L 193.8253173828125 407.0445556640625 L 195.44187927246094 405.37725830078125 L 197.05845642089844 403.7831726074219 L 198.67501831054688 402.2182312011719 L 200.2915802001953 400.6149597167969 L 201.9081573486328 398.9471740722656 L 203.52471923828125 397.25177001953125 L 205.1412811279297 395.5877380371094 L 206.75784301757812 393.9793395996094 L 208.37442016601562 392.3979187011719 L 209.99098205566406 390.7923583984375 L 211.6075439453125 389.1383056640625 L 213.22412109375 387.4591369628906 L 214.84068298339844 385.7994079589844 L 216.45724487304688 384.18145751953125 L 218.07382202148438 382.58740234375 L 219.6903839111328 380.9789733886719 L 221.30694580078125 379.3345947265625 L 222.9235076904297 377.66827392578125 L 224.5400848388672 376.0132141113281 L 226.15664672851562 374.3891296386719 L 227.77320861816406 372.7855529785156 L 229.38978576660156 371.1742248535156 L 231.00634765625 369.53656005859375 L 232.62290954589844 367.8803405761719 L 234.23948669433594 366.2299499511719 L 235.85604858398438 364.60223388671875 L 237.4726104736328 362.9916687011719 L 239.08917236328125 361.3776550292969 L 240.70574951171875 359.7446594238281 L 242.3223114013672 358.0963439941406 L 243.93887329101562 356.45037841796875 L 245.55545043945312 354.8207702636719 L 247.17201232910156 353.2052307128906 L 248.78857421875 351.58892822265625 L 250.4051513671875 349.9591979980469 L 252.02171325683594 348.31707763671875 L 253.63827514648438 346.6751708984375 L 255.2548370361328 345.04486083984375 L 256.87139892578125 343.4259033203125 L 258.48797607421875 341.80780029296875 L 260.10455322265625 340.18035888671875 L 261.7210998535156 338.5431213378906 L 263.3376770019531 336.9048767089844 L 264.9542541503906 335.27471923828125 L 266.57080078125 333.653564453125 L 268.1873779296875 332.0341491699219 L 269.803955078125 330.4084167480469 L 271.4205017089844 328.7750244140625 L 273.0370788574219 327.1400451660156 L 274.6536560058594 325.5106201171875 L 276.27020263671875 323.8882141113281 L 277.88677978515625 322.2679443359375 L 279.5033264160156 320.64349365234375 L 281.1199035644531 319.01324462890625 L 282.7364807128906 317.3811950683594 L 284.35302734375 315.7528076171875 L 285.9696044921875 314.1299133300781 L 287.586181640625 312.5091857910156 L 289.2027282714844 310.8858642578125 L 290.8193054199219 309.2581787109375 L 292.4358825683594 307.62872314453125 L 294.05242919921875 306.0016784667969 L 295.66900634765625 304.3787841796875 L 297.28558349609375 302.75799560546875 L 298.9021301269531 301.1357116699219 L 300.5187072753906 299.5102233886719 L 302.1352844238281 297.8830871582031 L 303.7518310546875 296.25750732421875 L 305.368408203125 294.6351013183594 L 306.9849853515625 293.01458740234375 L 308.6015319824219 291.3932800292969 L 310.2181091308594 289.76971435546875 L 311.83465576171875 288.144775390625 L 313.45123291015625 286.520751953125 L 315.06781005859375 284.89910888671875 L 316.6843566894531 283.2791442871094 L 318.3009338378906 281.658935546875 L 319.9175109863281 280.037109375 L 321.5340576171875 278.4141845703125 L 323.150634765625 276.79180908203125 L 324.7672119140625 275.17120361328125 L 326.3837585449219 273.5520324707031 L 328.0003356933594 271.9329528808594 L 329.6169128417969 270.31280517578125 L 331.23345947265625 268.6918029785156 L 332.85003662109375 267.07110595703125 L 334.46661376953125 265.4517517089844 L 336.0831604003906 263.8336486816406 L 337.6997375488281 262.2157897949219 L 339.3163146972656 260.5972900390625 L 340.932861328125 258.9781494140625 L 342.5494384765625 257.3592224121094 L 344.1659851074219 255.7412872314453 L 345.7825622558594 254.12442016601562 L 347.3991394042969 252.50791931152344 L 349.01568603515625 250.89108276367188 L 350.63226318359375 249.27383422851562 L 352.24884033203125 247.65672302246094 L 353.8653869628906 246.04037475585938 L 355.4819641113281 244.42494201660156 L 357.0985412597656 242.80995178222656 L 358.715087890625 241.19485473632812 L 360.3316650390625 239.5795135498047 L 361.9482421875 237.96429443359375 L 363.5647888183594 236.34970092773438 L 365.1813659667969 234.73590087890625 L 366.7979431152344 233.12257385253906 L 368.41448974609375 231.50930786132812 L 370.03106689453125 229.89596557617188 L 371.64764404296875 228.28277587890625 L 373.2641906738281 226.6701202392578 L 374.8807678222656 225.05813598632812 L 376.497314453125 223.44667053222656 L 378.1138916015625 221.8354034423828 L 379.73046875 220.22418212890625 L 381.3470153808594 218.6131591796875 L 382.9635925292969 217.0026092529297 L 384.5801696777344 215.3927001953125 L 386.19671630859375 213.7833251953125 L 387.81329345703125 212.1742401123047 L 389.42987060546875 210.56533813476562 L 391.0464172363281 208.95668029785156 L 392.6629943847656 207.3485107421875 L 394.2795715332031 205.7409210205078 L 395.8961181640625 204.13388061523438 L 397.5126953125 202.5272674560547 L 399.1292724609375 200.92092895507812 L 400.7458190917969 199.31492614746094 L 402.3623962402344 197.7093963623047 L 403.9789733886719 196.10447692871094 L 405.59552001953125 194.5001678466797 L 407.21209716796875 192.89633178710938 L 408.8286437988281 191.29290771484375 L 410.4452209472656 189.68991088867188 L 412.0617980957031 188.08746337890625 L 413.6783447265625 186.4856414794922 L 415.294921875 184.88449096679688 L 416.9114990234375 183.283935546875 L 418.5280456542969 181.6839141845703 L 420.1446228027344 180.08444213867188 L 421.7611999511719 178.485595703125 L 423.37774658203125 176.88748168945312 L 424.99432373046875 175.29013061523438 L 426.61090087890625 173.69349670410156 L 428.2274475097656 172.0975799560547 L 429.8440246582031 170.50234985351562 L 431.4606018066406 168.9079132080078 L 433.0771484375 167.31434631347656 L 434.6937255859375 165.72169494628906 L 436.310302734375 164.12997436523438 L 437.9268493652344 162.53916931152344 L 439.5434265136719 160.9492950439453 L 441.15997314453125 159.36045837402344 L 442.77655029296875 157.77272033691406 L 444.39312744140625 156.1861572265625 L 446.0096740722656 154.600830078125 L 447.6262512207031 153.01675415039062 L 449.2428283691406 151.43399047851562 L 450.859375 149.85263061523438 L 452.4759521484375 148.27279663085938 L 454.092529296875 146.69459533691406 L 455.7090759277344 145.11813354492188 L 457.3256530761719 143.5435028076172 L 458.9422302246094 141.9708251953125 L 460.55877685546875 140.40025329589844 L 462.17535400390625 138.83197021484375 L 463.79193115234375 137.26617431640625 L 465.4084777832031 135.7030792236328 L 467.0250549316406 134.14291381835938 L 468.6416320800781 132.5859375 L 470.2581787109375 131.03245544433594 L 471.874755859375 129.4828338623047 L 473.4913024902344 127.93748474121094 L 475.1078796386719 126.3968734741211 L 476.7244567871094 124.86151123046875 L 478.34100341796875 123.33199310302734 L 479.95758056640625 121.80897521972656 L 481.57415771484375 120.293212890625 L 483.1907043457031 118.7855224609375 L 484.8072814941406 117.28675842285156 L 486.4238586425781 115.7977523803711 L 488.0404052734375 114.31930541992188 L 489.656982421875 112.85206604003906 L 491.2735595703125 111.39652252197266 L 492.8901062011719 109.9529037475586 L 494.5066833496094 108.52120208740234 L 496.1232604980469 107.10121154785156 L 497.73980712890625 105.69263458251953 L 499.35638427734375 104.29518127441406 L 500.97296142578125 102.90866088867188 L 502.5895080566406 101.53306579589844 L 504.2060852050781 100.16851806640625 L 505.8226318359375 98.8152847290039 L 507.439208984375 97.47380065917969 L 509.0557861328125 96.1446304321289 L 510.6723327636719 94.82854461669922 L 512.2889099121094 93.52655029296875 L 513.9054565429688 92.23989868164062 L 515.5220336914062 90.97010803222656 L 517.1386108398438 89.71902465820312 L 518.7551879882812 88.48880004882812 L 520.3717651367188 87.28194427490234 L 521.98828125 86.1013412475586 L 523.6048583984375 84.95022583007812 L 525.221435546875 83.8321533203125 L 526.8380126953125 82.75090789794922 L 528.45458984375 81.7103500366211 L 530.0711669921875 80.7143325805664 L 531.6876831054688 79.7664566040039 L 533.3042602539062 78.86994171142578 L 534.9208374023438 78.02743530273438 L 536.5374145507812 77.24085235595703 L 538.1539916992188 76.51127624511719 L 539.7705688476562 75.83888244628906 L 541.3870849609375 75.2229232788086 L 543.003662109375 74.66180419921875 L 544.6202392578125 74.1531753540039 L 546.23681640625 73.69408416748047 L 547.8533935546875 73.28113555908203 L 549.469970703125 72.9106674194336 L 551.0864868164062 72.57890319824219 L 552.7030639648438 72.2821044921875 L 554.3196411132812 72.0166244506836 L 555.9362182617188 71.77906036376953 L 557.5527954101562 71.56623077392578 L 559.1693115234375 71.375244140625 L 560.785888671875 71.20347595214844 L 562.4024658203125 71.04859924316406 L 564.01904296875 70.9085464477539 L 565.6356201171875 70.78150177001953 L 567.252197265625 70.66585540771484 L 568.8687133789062 70.56022644042969 L 570.4852905273438 70.4634017944336 L 572.1018676757812 70.37432098388672 L 573.7184448242188 70.29208374023438 L 575.3350219726562 70.21588897705078 L 576.9515991210938 70.14505767822266 L 578.568115234375 70.07899475097656 L 580.1846923828125 70.01718139648438 L 581.80126953125 69.95916748046875 L 583.4178466796875 69.90457153320312 L 585.034423828125 69.8530502319336 L 586.6509399414062 69.80430603027344 L 588.2675170898438 69.7580795288086 L 589.8840942382812 69.71414947509766 L 591.5006713867188 69.67230224609375 L 593.1172485351562 69.63236999511719 L 594.7338256835938 69.59420013427734 L 596.350341796875 69.55764770507812 L 597.9669189453125 69.5225830078125 L 599.58349609375 69.48890686035156 L 601.2000732421875 69.45651245117188 L 602.816650390625 69.4253158569336 L 604.4332275390625 69.39522552490234 L 606.0497436523438 69.36618041992188 L 607.6663208007812 69.3381118774414 L 609.2828979492188 69.31095123291016 L 610.8994750976562 69.28465270996094 L 612.5160522460938 69.25916290283203 L 614.132568359375 69.23443603515625 L 615.7491455078125 69.21043395996094 L 617.36572265625 69.1871109008789 L 618.9822998046875 69.16443634033203 L 620.598876953125 69.14237213134766 L 622.2154541015625 69.12089538574219 L 623.8319702148438 69.09996795654297 L 625.4485473632812 69.0795669555664 L 627.0651245117188 69.0596694946289 L 628.6817016601562 69.04025268554688 L 630.2982788085938 69.02129364013672 L 631.9148559570312 69.00276947021484 L 633.5313720703125 68.98466491699219 L 635.14794921875 68.96696472167969 L 636.7645263671875 68.94965362548828 L 638.381103515625 68.93270874023438 L 639.9976806640625 68.9161148071289 L 641.6142578125 68.89986419677734 L 643.2307739257812 68.88394165039062 L 644.8473510742188 68.86833190917969 L 646.4639282226562 68.85302734375 L 648.0805053710938 68.8380126953125 L 649.6970825195312 68.82328033447266 L 651.3135986328125 68.80882263183594 L 652.93017578125 68.79463195800781 L 654.5467529296875 68.78068542480469 L 656.163330078125 68.7669906616211 L 657.7799072265625 68.75353240966797 L 659.396484375 68.74030303955078 L 661.0130004882812 68.727294921875 L 662.6295776367188 68.7145004272461 L 664.2461547851562 68.70191955566406 L 665.8627319335938 68.68953704833984 L 667.4793090820312 68.6773452758789 L 669.0958862304688 68.66535186767578 L 670.71240234375 68.6535415649414 L 672.3289794921875 68.64190673828125 L 673.945556640625 68.63044738769531 L 675.5621337890625 68.61915588378906 L 677.1787109375 68.60802459716797 L 678.7952270507812 68.59706115722656 L 680.4118041992188 68.58625030517578 L 682.0283813476562 68.5755844116211 L 683.6449584960938 68.56507110595703 L 685.2615356445312 68.55470275878906 L 686.8781127929688 68.54447174072266 L 688.49462890625 68.53437805175781 L 690.1112060546875 68.5244140625 L 691.727783203125 68.51457977294922 L 693.3443603515625 68.50487518310547 L 694.9609375 68.49529266357422 L 696.5775146484375 68.48582458496094 L 698.1940307617188 68.47647857666016 L 699.8106079101562 68.46724700927734 L 701.4271850585938 68.45812225341797 L 703.0437622070312 68.44911193847656 L 704.6603393554688 68.4402084350586 L 706.2769165039062 68.43140411376953 L 707.8934326171875 68.4227066040039 L 709.510009765625 68.41410827636719 L 711.1265869140625 68.40560150146484 L 712.7431640625 68.3971939086914 L 714.3597412109375 68.38887786865234 L 715.9762573242188 68.38066101074219 L 717.5928344726562 68.37252807617188 L 719.2094116210938 68.3644790649414 L 720.8259887695312 68.35651397705078 L 722.4425659179688 68.34864044189453 L 724.0591430664062 68.3408432006836 L 725.6756591796875 68.3331298828125 L 727.292236328125 68.32549285888672 L 728.9088134765625 68.31793975830078 L 730.525390625 68.31045532226562 L 732.1419677734375 68.30304718017578 L 733.758544921875 68.29571533203125 L 735.3750610351562 68.2884521484375 L 736.9916381835938 68.28125762939453 L 738.6082153320312 68.27413177490234 L 740.2247924804688 68.26707458496094 L 741.8413696289062 68.26008605957031 L 743.4578857421875 68.25315856933594 L 745.074462890625 68.24629974365234 L 746.6910400390625 68.239501953125 L 748.3076171875 68.2327651977539 L 749.9241943359375 68.22608947753906 L 751.540771484375 68.21947479248047 L 753.1572875976562 68.2129135131836 L 754.7738647460938 68.20641326904297 L 756.3904418945312 68.19996643066406 L 758.0070190429688 68.1935806274414 L 759.6235961914062 68.18724822998047 L 761.2401733398438 68.18096923828125 L 762.856689453125 68.17474365234375 L 764.4732666015625 68.16856384277344 L 766.08984375 68.16244506835938 L 767.7064208984375 68.1563720703125 L 769.322998046875 68.15034484863281 L 770.9395751953125 68.14437103271484 L 772.5560913085938 68.13844299316406 L 774.1726684570312 68.13256072998047 L 775.7892456054688 68.1267318725586 L 777.4058227539062 68.12094116210938 L 779.0223999023438 68.11519622802734 L 780.638916015625 68.1094970703125 L 782.2554931640625 68.10384368896484 L 783.8720703125 68.09823608398438 L 785.4886474609375 68.09266662597656 L 787.105224609375 68.0871353149414 L 788.7218017578125 68.08164978027344 L 790.3383178710938 68.07620239257812 L 791.9548950195312 68.07080078125 L 793.5714721679688 68.0654296875 L 795.1880493164062 68.06010437011719 L 796.8046264648438 68.05481719970703 L 798.4212036132812 68.049560546875 L 800.0377197265625 68.04434967041016 L 801.654296875 68.03916931152344 L 803.2708740234375 68.03402709960938 L 804.887451171875 68.02892303466797 L 806.5040283203125 68.02384948730469 L 808.1205444335938 68.01881408691406 L 809.7371215820312 68.0138168334961 L 811.3536987304688 68.00885009765625 L 812.9702758789062 68.00391387939453 L 814.5868530273438 67.99901580810547 L 816.2034301757812 67.994140625 L 817.8199462890625 67.98930358886719 L 819.4365234375 67.98450469970703 L 821.0531005859375 67.97972869873047 L 822.669677734375 67.97498321533203 L 824.2862548828125 67.97026824951172 L 825.90283203125 67.96559143066406 L 827.5193481445312 67.9609375 L 829.1359252929688 67.95631408691406 L 830.7525024414062 67.95172119140625 L 832.3690795898438 67.94715118408203 L 833.9856567382812 67.94261169433594 L 835.6022338867188 67.93810272216797 L 837.21875 67.93362426757812 L 838.8353271484375 67.92916870117188 L 840.451904296875 67.92473602294922 L 842.0684814453125 67.92034149169922 L 843.68505859375 67.91596221923828 L 845.3015747070312 67.91161346435547 L 846.9181518554688 67.90728759765625 L 848.5347290039062 67.90299224853516 L 850.1513061523438 67.89871978759766 L 851.7678833007812 67.89447021484375 L 853.3844604492188 67.89024353027344 L 855.0009765625 67.88604736328125 L 856.6175537109375 67.88187408447266 L 858.234130859375 67.87771606445312 L 859.8507080078125 67.87358856201172 L 861.46728515625 67.8694839477539 L 863.0838623046875 67.86540222167969 L 864.7003784179688 67.86134338378906 L 866.3169555664062 67.85730743408203 L 867.9335327148438 67.85328674316406 L 869.5501098632812 67.84929656982422 L 871.1666870117188 67.84532165527344" stroke-opacity="1" stroke-linejoin="bevel" stroke-miterlimit="10" stroke-width="3" stroke-dasharray="" clip-path="url(#IMoKgvzxxFkl)"/><path fill="rgb(0,0,128)" stroke="rgb(0,0,128)" paint-order="fill" d="M 67.40400004386902 533.0632934570312 A 2.9040000438690186 2.9040000438690186 0 1 1 67.40399859186911 533.0603894574714" fill-opacity="0.2" clip-path="url(#cynrUWotyVOF)" stroke-opacity="1" stroke-linejoin="bevel" stroke-miterlimit="10" stroke-dasharray=""/><path fill="rgb(0,0,128)" stroke="rgb(0,0,128)" paint-order="fill" d="M 81.92399668693542 533.114013671875 A 2.9040000438690186 2.9040000438690186 0 1 1 81.92399523493552 533.1111096723151" fill-opacity="0.2" clip-path="url(#cynrUWotyVOF)" stroke-opacity="1" stroke-linejoin="bevel" stroke-miterlimit="10" stroke-dasharray=""/><path fill="rgb(0,0,128)" stroke="rgb(0,0,128)" paint-order="fill" d="M 96.44400095939636 533.0632934570312 A 2.9040000438690186 2.9040000438690186 0 1 1 96.44399950739646 533.0603894574714" fill-opacity="0.2" clip-path="url(#cynrUWotyVOF)" stroke-opacity="1" stroke-linejoin="bevel" stroke-miterlimit="10" stroke-dasharray=""/><path fill="rgb(0,0,128)" stroke="rgb(0,0,128)" paint-order="fill" d="M 110.96399760246277 532.8098754882812 A 2.9040000438690186 2.9040000438690186 0 1 1 110.96399615046286 532.8069714887214" fill-opacity="0.2" clip-path="url(#cynrUWotyVOF)" stroke-opacity="1" stroke-linejoin="bevel" stroke-miterlimit="10" stroke-dasharray=""/><path fill="rgb(0,0,128)" stroke="rgb(0,0,128)" paint-order="fill" d="M 125.4840018749237 531.0357055664062 A 2.9040000438690186 2.9040000438690186 0 1 1 125.4840004229238 531.0328015668464" fill-opacity="0.2" clip-path="url(#cynrUWotyVOF)" stroke-opacity="1" stroke-linejoin="bevel" stroke-miterlimit="10" stroke-dasharray=""/><path fill="rgb(0,0,128)" stroke="rgb(0,0,128)" paint-order="fill" d="M 140.00400614738464 526.5750732421875 A 2.9040000438690186 2.9040000438690186 0 1 1 140.00400469538474 526.5721692426276" fill-opacity="0.2" clip-path="url(#cynrUWotyVOF)" stroke-opacity="1" stroke-linejoin="bevel" stroke-miterlimit="10" stroke-dasharray=""/><path fill="rgb(0,0,128)" stroke="rgb(0,0,128)" paint-order="fill" d="M 154.52399516105652 517.6536865234375 A 2.9040000438690186 2.9040000438690186 0 1 1 154.5239937090566 517.6507825238776" fill-opacity="0.2" clip-path="url(#cynrUWotyVOF)" stroke-opacity="1" stroke-linejoin="bevel" stroke-miterlimit="10" stroke-dasharray=""/><path fill="rgb(0,0,128)" stroke="rgb(0,0,128)" paint-order="fill" d="M 169.04399943351746 504.22100830078125 A 2.9040000438690186 2.9040000438690186 0 1 1 169.04399798151755 504.2181043012214" fill-opacity="0.2" clip-path="url(#cynrUWotyVOF)" stroke-opacity="1" stroke-linejoin="bevel" stroke-miterlimit="10" stroke-dasharray=""/><path fill="rgb(0,0,128)" stroke="rgb(0,0,128)" paint-order="fill" d="M 183.5640037059784 487.44281005859375 A 2.9040000438690186 2.9040000438690186 0 1 1 183.5640022539785 487.4399060590339" fill-opacity="0.2" clip-path="url(#cynrUWotyVOF)" stroke-opacity="1" stroke-linejoin="bevel" stroke-miterlimit="10" stroke-dasharray=""/><path fill="rgb(0,0,128)" stroke="rgb(0,0,128)" paint-order="fill" d="M 198.08399271965027 468.1808166503906 A 2.9040000438690186 2.9040000438690186 0 1 1 198.08399126765036 468.17791265083076" fill-opacity="0.2" clip-path="url(#cynrUWotyVOF)" stroke-opacity="1" stroke-linejoin="bevel" stroke-miterlimit="10" stroke-dasharray=""/><path fill="rgb(0,0,128)" stroke="rgb(0,0,128)" paint-order="fill" d="M 212.6039969921112 446.6885070800781 A 2.9040000438690186 2.9040000438690186 0 1 1 212.6039955401113 446.68560308051826" fill-opacity="0.2" clip-path="url(#cynrUWotyVOF)" stroke-opacity="1" stroke-linejoin="bevel" stroke-miterlimit="10" stroke-dasharray=""/><path fill="rgb(0,0,128)" stroke="rgb(0,0,128)" paint-order="fill" d="M 227.12400126457214 424.48651123046875 A 2.9040000438690186 2.9040000438690186 0 1 1 227.12399981257224 424.4836072309089" fill-opacity="0.2" clip-path="url(#cynrUWotyVOF)" stroke-opacity="1" stroke-linejoin="bevel" stroke-miterlimit="10" stroke-dasharray=""/><path fill="rgb(0,0,128)" stroke="rgb(0,0,128)" paint-order="fill" d="M 241.64400553703308 400.9159240722656 A 2.9040000438690186 2.9040000438690186 0 1 1 241.64400408503317 400.91302007270576" fill-opacity="0.2" clip-path="url(#cynrUWotyVOF)" stroke-opacity="1" stroke-linejoin="bevel" stroke-miterlimit="10" stroke-dasharray=""/><path fill="rgb(0,0,128)" stroke="rgb(0,0,128)" paint-order="fill" d="M 256.16399455070496 376.2808837890625 A 2.9040000438690186 2.9040000438690186 0 1 1 256.1639930987051 376.27797978950264" fill-opacity="0.2" clip-path="url(#cynrUWotyVOF)" stroke-opacity="1" stroke-linejoin="bevel" stroke-miterlimit="10" stroke-dasharray=""/><path fill="rgb(0,0,128)" stroke="rgb(0,0,128)" paint-order="fill" d="M 270.6839988231659 354.6871643066406 A 2.9040000438690186 2.9040000438690186 0 1 1 270.683997371166 354.68426030708076" fill-opacity="0.2" clip-path="url(#cynrUWotyVOF)" stroke-opacity="1" stroke-linejoin="bevel" stroke-miterlimit="10" stroke-dasharray=""/><path fill="rgb(0,0,128)" stroke="rgb(0,0,128)" paint-order="fill" d="M 285.20398783683777 332.7893371582031 A 2.9040000438690186 2.9040000438690186 0 1 1 285.2039863848379 332.78643315864326" fill-opacity="0.2" clip-path="url(#cynrUWotyVOF)" stroke-opacity="1" stroke-linejoin="bevel" stroke-miterlimit="10" stroke-dasharray=""/><path fill="rgb(0,0,128)" stroke="rgb(0,0,128)" paint-order="fill" d="M 299.72400736808777 310.53668212890625 A 2.9040000438690186 2.9040000438690186 0 1 1 299.7240059160879 310.5337781293464" fill-opacity="0.2" clip-path="url(#cynrUWotyVOF)" stroke-opacity="1" stroke-linejoin="bevel" stroke-miterlimit="10" stroke-dasharray=""/><path fill="rgb(0,0,128)" stroke="rgb(0,0,128)" paint-order="fill" d="M 314.24399638175964 289.5512390136719 A 2.9040000438690186 2.9040000438690186 0 1 1 314.24399492975977 289.548335014112" fill-opacity="0.2" clip-path="url(#cynrUWotyVOF)" stroke-opacity="1" stroke-linejoin="bevel" stroke-miterlimit="10" stroke-dasharray=""/><path fill="rgb(0,0,128)" stroke="rgb(0,0,128)" paint-order="fill" d="M 328.7639853954315 270.2385559082031 A 2.9040000438690186 2.9040000438690186 0 1 1 328.76398394343164 270.23565190864326" fill-opacity="0.2" clip-path="url(#cynrUWotyVOF)" stroke-opacity="1" stroke-linejoin="bevel" stroke-miterlimit="10" stroke-dasharray=""/><path fill="rgb(0,0,128)" stroke="rgb(0,0,128)" paint-order="fill" d="M 343.2840049266815 249.91209411621094 A 2.9040000438690186 2.9040000438690186 0 1 1 343.28400347468164 249.90919011665108" fill-opacity="0.2" clip-path="url(#cynrUWotyVOF)" stroke-opacity="1" stroke-linejoin="bevel" stroke-miterlimit="10" stroke-dasharray=""/><path fill="rgb(0,0,128)" stroke="rgb(0,0,128)" paint-order="fill" d="M 357.8039939403534 229.99114990234375 A 2.9040000438690186 2.9040000438690186 0 1 1 357.8039924883535 229.9882459027839" fill-opacity="0.2" clip-path="url(#cynrUWotyVOF)" stroke-opacity="1" stroke-linejoin="bevel" stroke-miterlimit="10" stroke-dasharray=""/><path fill="rgb(0,0,128)" stroke="rgb(0,0,128)" paint-order="fill" d="M 372.3240134716034 212.65536499023438 A 2.9040000438690186 2.9040000438690186 0 1 1 372.3240120196035 212.6524609906745" fill-opacity="0.2" clip-path="url(#cynrUWotyVOF)" stroke-opacity="1" stroke-linejoin="bevel" stroke-miterlimit="10" stroke-dasharray=""/><path fill="rgb(0,0,128)" stroke="rgb(0,0,128)" paint-order="fill" d="M 386.84400248527527 193.64682006835938 A 2.9040000438690186 2.9040000438690186 0 1 1 386.8440010332754 193.6439160687995" fill-opacity="0.2" clip-path="url(#cynrUWotyVOF)" stroke-opacity="1" stroke-linejoin="bevel" stroke-miterlimit="10" stroke-dasharray=""/><path fill="rgb(0,0,128)" stroke="rgb(0,0,128)" paint-order="fill" d="M 401.36399149894714 179.14964294433594 A 2.9040000438690186 2.9040000438690186 0 1 1 401.36399004694727 179.14673894477608" fill-opacity="0.2" clip-path="url(#cynrUWotyVOF)" stroke-opacity="1" stroke-linejoin="bevel" stroke-miterlimit="10" stroke-dasharray=""/><path fill="rgb(0,0,128)" stroke="rgb(0,0,128)" paint-order="fill" d="M 415.88401103019714 162.42213439941406 A 2.9040000438690186 2.9040000438690186 0 1 1 415.88400957819727 162.4192303998542" fill-opacity="0.2" clip-path="url(#cynrUWotyVOF)" stroke-opacity="1" stroke-linejoin="bevel" stroke-miterlimit="10" stroke-dasharray=""/><path fill="rgb(0,0,128)" stroke="rgb(0,0,128)" paint-order="fill" d="M 430.404000043869 153.85562133789062 A 2.9040000438690186 2.9040000438690186 0 1 1 430.40399859186914 153.85271733833076" fill-opacity="0.2" clip-path="url(#cynrUWotyVOF)" stroke-opacity="1" stroke-linejoin="bevel" stroke-miterlimit="10" stroke-dasharray=""/><path fill="rgb(0,0,128)" stroke="rgb(0,0,128)" paint-order="fill" d="M 444.9239890575409 139.10499572753906 A 2.9040000438690186 2.9040000438690186 0 1 1 444.923987605541 139.1020917279792" fill-opacity="0.2" clip-path="url(#cynrUWotyVOF)" stroke-opacity="1" stroke-linejoin="bevel" stroke-miterlimit="10" stroke-dasharray=""/><path fill="rgb(0,0,128)" stroke="rgb(0,0,128)" paint-order="fill" d="M 459.4440085887909 128.86572265625 A 2.9040000438690186 2.9040000438690186 0 1 1 459.444007136791 128.86281865669014" fill-opacity="0.2" clip-path="url(#cynrUWotyVOF)" stroke-opacity="1" stroke-linejoin="bevel" stroke-miterlimit="10" stroke-dasharray=""/><path fill="rgb(0,0,128)" stroke="rgb(0,0,128)" paint-order="fill" d="M 473.96399760246277 119.33610534667969 A 2.9040000438690186 2.9040000438690186 0 1 1 473.9639961504629 119.33320134711981" fill-opacity="0.2" clip-path="url(#cynrUWotyVOF)" stroke-opacity="1" stroke-linejoin="bevel" stroke-miterlimit="10" stroke-dasharray=""/><path fill="rgb(0,0,128)" stroke="rgb(0,0,128)" paint-order="fill" d="M 488.48398661613464 110.51614379882812 A 2.9040000438690186 2.9040000438690186 0 1 1 488.48398516413477 110.51323979926825" fill-opacity="0.2" clip-path="url(#cynrUWotyVOF)" stroke-opacity="1" stroke-linejoin="bevel" stroke-miterlimit="10" stroke-dasharray=""/><path fill="rgb(0,0,128)" stroke="rgb(0,0,128)" paint-order="fill" d="M 503.00400614738464 101.64549255371094 A 2.9040000438690186 2.9040000438690186 0 1 1 503.00400469538477 101.64258855415106" fill-opacity="0.2" clip-path="url(#cynrUWotyVOF)" stroke-opacity="1" stroke-linejoin="bevel" stroke-miterlimit="10" stroke-dasharray=""/><path fill="rgb(0,0,128)" stroke="rgb(0,0,128)" paint-order="fill" d="M 517.5239951610565 94.1434555053711 A 2.9040000438690186 2.9040000438690186 0 1 1 517.5239937090566 94.14055150581122" fill-opacity="0.2" clip-path="url(#cynrUWotyVOF)" stroke-opacity="1" stroke-linejoin="bevel" stroke-miterlimit="10" stroke-dasharray=""/><path fill="rgb(0,0,128)" stroke="rgb(0,0,128)" paint-order="fill" d="M 532.0440146923065 86.2865982055664 A 2.9040000438690186 2.9040000438690186 0 1 1 532.0440132403066 86.28369420600653" fill-opacity="0.2" clip-path="url(#cynrUWotyVOF)" stroke-opacity="1" stroke-linejoin="bevel" stroke-miterlimit="10" stroke-dasharray=""/><path fill="rgb(0,0,128)" stroke="rgb(0,0,128)" paint-order="fill" d="M 546.5639731884003 84.00556945800781 A 2.9040000438690186 2.9040000438690186 0 1 1 546.5639717364004 84.00266545844794" fill-opacity="0.2" clip-path="url(#cynrUWotyVOF)" stroke-opacity="1" stroke-linejoin="bevel" stroke-miterlimit="10" stroke-dasharray=""/><path fill="rgb(0,0,128)" stroke="rgb(0,0,128)" paint-order="fill" d="M 561.0839927196503 74.57733154296875 A 2.9040000438690186 2.9040000438690186 0 1 1 561.0839912676504 74.57442754340887" fill-opacity="0.2" clip-path="url(#cynrUWotyVOF)" stroke-opacity="1" stroke-linejoin="bevel" stroke-miterlimit="10" stroke-dasharray=""/><path fill="rgb(0,0,128)" stroke="rgb(0,0,128)" paint-order="fill" d="M 575.6040122509003 64.74358367919922 A 2.9040000438690186 2.9040000438690186 0 1 1 575.6040107989004 64.74067967963934" fill-opacity="0.2" clip-path="url(#cynrUWotyVOF)" stroke-opacity="1" stroke-linejoin="bevel" stroke-miterlimit="10" stroke-dasharray=""/><path fill="rgb(0,0,128)" stroke="rgb(0,0,128)" paint-order="fill" d="M 590.123970746994 64.18600082397461 A 2.9040000438690186 2.9040000438690186 0 1 1 590.1239692949941 64.18309682441475" fill-opacity="0.2" clip-path="url(#cynrUWotyVOF)" stroke-opacity="1" stroke-linejoin="bevel" stroke-miterlimit="10" stroke-dasharray=""/><path fill="rgb(0,0,128)" stroke="rgb(0,0,128)" paint-order="fill" d="M 604.643990278244 62.00635528564453 A 2.9040000438690186 2.9040000438690186 0 1 1 604.6439888262441 62.00345128608466" fill-opacity="0.2" clip-path="url(#cynrUWotyVOF)" stroke-opacity="1" stroke-linejoin="bevel" stroke-miterlimit="10" stroke-dasharray=""/><path fill="rgb(0,0,128)" stroke="rgb(0,0,128)" paint-order="fill" d="M 619.164009809494 59.67464065551758 A 2.9040000438690186 2.9040000438690186 0 1 1 619.1640083574941 59.67173665595771" fill-opacity="0.2" clip-path="url(#cynrUWotyVOF)" stroke-opacity="1" stroke-linejoin="bevel" stroke-miterlimit="10" stroke-dasharray=""/><path fill="rgb(0,0,128)" stroke="rgb(0,0,128)" paint-order="fill" d="M 633.684029340744 53.69328689575195 A 2.9040000438690186 2.9040000438690186 0 1 1 633.6840278887441 53.690382896192084" fill-opacity="0.2" clip-path="url(#cynrUWotyVOF)" stroke-opacity="1" stroke-linejoin="bevel" stroke-miterlimit="10" stroke-dasharray=""/><path fill="rgb(0,0,128)" stroke="rgb(0,0,128)" paint-order="fill" d="M 648.2039878368378 54.14949035644531 A 2.9040000438690186 2.9040000438690186 0 1 1 648.2039863848379 54.14658635688544" fill-opacity="0.2" clip-path="url(#cynrUWotyVOF)" stroke-opacity="1" stroke-linejoin="bevel" stroke-miterlimit="10" stroke-dasharray=""/><path fill="rgb(0,0,128)" stroke="rgb(0,0,128)" paint-order="fill" d="M 662.7240073680878 50.905364990234375 A 2.9040000438690186 2.9040000438690186 0 1 1 662.7240059160879 50.902460990674506" fill-opacity="0.2" clip-path="url(#cynrUWotyVOF)" stroke-opacity="1" stroke-linejoin="bevel" stroke-miterlimit="10" stroke-dasharray=""/><path fill="rgb(0,0,128)" stroke="rgb(0,0,128)" paint-order="fill" d="M 677.2440268993378 51.513641357421875 A 2.9040000438690186 2.9040000438690186 0 1 1 677.2440254473379 51.510737357862006" fill-opacity="0.2" clip-path="url(#cynrUWotyVOF)" stroke-opacity="1" stroke-linejoin="bevel" stroke-miterlimit="10" stroke-dasharray=""/><path fill="rgb(0,0,128)" stroke="rgb(0,0,128)" paint-order="fill" d="M 691.7639853954315 51.513641357421875 A 2.9040000438690186 2.9040000438690186 0 1 1 691.7639839434316 51.510737357862006" fill-opacity="0.2" clip-path="url(#cynrUWotyVOF)" stroke-opacity="1" stroke-linejoin="bevel" stroke-miterlimit="10" stroke-dasharray=""/><path fill="rgb(0,0,128)" stroke="rgb(0,0,128)" paint-order="fill" d="M 706.2840049266815 47.71193313598633 A 2.9040000438690186 2.9040000438690186 0 1 1 706.2840034746816 47.70902913642646" fill-opacity="0.2" clip-path="url(#cynrUWotyVOF)" stroke-opacity="1" stroke-linejoin="bevel" stroke-miterlimit="10" stroke-dasharray=""/><path fill="rgb(0,0,128)" stroke="rgb(0,0,128)" paint-order="fill" d="M 720.8040244579315 48.37089538574219 A 2.9040000438690186 2.9040000438690186 0 1 1 720.8040230059316 48.36799138618232" fill-opacity="0.2" clip-path="url(#cynrUWotyVOF)" stroke-opacity="1" stroke-linejoin="bevel" stroke-miterlimit="10" stroke-dasharray=""/><path fill="rgb(0,0,128)" stroke="rgb(0,0,128)" paint-order="fill" d="M 735.3239829540253 51.71639633178711 A 2.9040000438690186 2.9040000438690186 0 1 1 735.3239815020254 51.71349233222724" fill-opacity="0.2" clip-path="url(#cynrUWotyVOF)" stroke-opacity="1" stroke-linejoin="bevel" stroke-miterlimit="10" stroke-dasharray=""/><path fill="rgb(0,0,128)" stroke="rgb(0,0,128)" paint-order="fill" d="M 749.8440024852753 54.04811096191406 A 2.9040000438690186 2.9040000438690186 0 1 1 749.8440010332754 54.04520696235419" fill-opacity="0.2" clip-path="url(#cynrUWotyVOF)" stroke-opacity="1" stroke-linejoin="bevel" stroke-miterlimit="10" stroke-dasharray=""/><path fill="rgb(0,0,128)" stroke="rgb(0,0,128)" paint-order="fill" d="M 764.3640220165253 53.034324645996094 A 2.9040000438690186 2.9040000438690186 0 1 1 764.3640205645254 53.031420646436224" fill-opacity="0.2" clip-path="url(#cynrUWotyVOF)" stroke-opacity="1" stroke-linejoin="bevel" stroke-miterlimit="10" stroke-dasharray=""/><path fill="rgb(0,0,128)" stroke="rgb(0,0,128)" paint-order="fill" d="M 778.883980512619 51.108123779296875 A 2.9040000438690186 2.9040000438690186 0 1 1 778.8839790606191 51.105219779737006" fill-opacity="0.2" clip-path="url(#cynrUWotyVOF)" stroke-opacity="1" stroke-linejoin="bevel" stroke-miterlimit="10" stroke-dasharray=""/><path fill="rgb(0,0,128)" stroke="rgb(0,0,128)" paint-order="fill" d="M 793.404000043869 48.01606750488281 A 2.9040000438690186 2.9040000438690186 0 1 1 793.4039985918691 48.01316350532294" fill-opacity="0.2" clip-path="url(#cynrUWotyVOF)" stroke-opacity="1" stroke-linejoin="bevel" stroke-miterlimit="10" stroke-dasharray=""/><path fill="none" stroke="rgb(0,0,0)" paint-order="fill" d="M 64.5 533.5 L 790.5 533.5" stroke-opacity="1" stroke-linejoin="bevel" stroke-miterlimit="10" stroke-dasharray=""/><path fill="none" stroke="rgb(0,0,0)" paint-order="fill" d="M 64.5 539.5 L 64.5 531.5 M 209.5 539.5 L 209.5 531.5 M 354.5 539.5 L 354.5 531.5 M 500.5 539.5 L 500.5 531.5 M 645.5 539.5 L 645.5 531.5 M 790.5 539.5 L 790.5 531.5" stroke-opacity="1" stroke-linejoin="bevel" stroke-miterlimit="10" stroke-dasharray=""/><path fill="none" stroke="rgb(0,0,0)" paint-order="fill" d="M 64.5 537.5 L 64.5 533.5 M 93.5 537.5 L 93.5 533.5 M 122.5 537.5 L 122.5 533.5 M 151.5 537.5 L 151.5 533.5 M 180.5 537.5 L 180.5 533.5 M 209.5 537.5 L 209.5 533.5 M 238.5 537.5 L 238.5 533.5 M 267.5 537.5 L 267.5 533.5 M 296.5 537.5 L 296.5 533.5 M 325.5 537.5 L 325.5 533.5 M 354.5 537.5 L 354.5 533.5 M 383.5 537.5 L 383.5 533.5 M 412.5 537.5 L 412.5 533.5 M 442.5 537.5 L 442.5 533.5 M 471.5 537.5 L 471.5 533.5 M 500.5 537.5 L 500.5 533.5 M 529.5 537.5 L 529.5 533.5 M 558.5 537.5 L 558.5 533.5 M 587.5 537.5 L 587.5 533.5 M 616.5 537.5 L 616.5 533.5 M 645.5 537.5 L 645.5 533.5 M 674.5 537.5 L 674.5 533.5 M 703.5 537.5 L 703.5 533.5 M 732.5 537.5 L 732.5 533.5 M 761.5 537.5 L 761.5 533.5 M 790.5 537.5 L 790.5 533.5" stroke-opacity="1" stroke-linejoin="bevel" stroke-miterlimit="10" stroke-dasharray=""/><text fill="rgb(68,68,68)" stroke="none" font-family="Work Sans" font-size="15pt" font-style="normal" font-weight="normal" text-decoration="normal" x="59" y="557" text-anchor="start" dominant-baseline="alphabetic" transform="matrix(1, 0, 0, 1, 0.5, 0.5)" fill-opacity="1">0</text><text fill="rgb(68,68,68)" stroke="none" font-family="Work Sans" font-size="15pt" font-style="normal" font-weight="normal" text-decoration="normal" x="196.6999969482422" y="557" text-anchor="start" dominant-baseline="alphabetic" transform="matrix(1, 0, 0, 1, 0.5, 0.5)" fill-opacity="1">0.5</text><text fill="rgb(68,68,68)" stroke="none" font-family="Work Sans" font-size="15pt" font-style="normal" font-weight="normal" text-decoration="normal" x="349.3999938964844" y="557" text-anchor="start" dominant-baseline="alphabetic" transform="matrix(1, 0, 0, 1, 0.5, 0.5)" fill-opacity="1">1</text><text fill="rgb(68,68,68)" stroke="none" font-family="Work Sans" font-size="15pt" font-style="normal" font-weight="normal" text-decoration="normal" x="487.1000061035156" y="557" text-anchor="start" dominant-baseline="alphabetic" transform="matrix(1, 0, 0, 1, 0.5, 0.5)" fill-opacity="1">1.5</text><text fill="rgb(68,68,68)" stroke="none" font-family="Work Sans" font-size="15pt" font-style="normal" font-weight="normal" text-decoration="normal" x="639.7999877929688" y="557" text-anchor="start" dominant-baseline="alphabetic" transform="matrix(1, 0, 0, 1, 0.5, 0.5)" fill-opacity="1">2</text><text fill="rgb(68,68,68)" stroke="none" font-family="Work Sans" font-size="15pt" font-style="normal" font-weight="normal" text-decoration="normal" x="775" y="557" text-anchor="start" dominant-baseline="alphabetic" transform="matrix(1, 0, 0, 1, 0.5, 0.5)" fill-opacity="1">2.5</text><text fill="rgb(68,68,68)" stroke="none" font-family="helvetica" font-size="15pt" font-style="normal" font-weight="normal" text-decoration="normal" x="370.6962890625" y="593" text-anchor="start" dominant-baseline="alphabetic" transform="matrix(1, 0, 0, 1, 0.5, 0.5)" fill-opacity="1">Time (hours)</text><path fill="none" stroke="rgb(0,0,0)" paint-order="fill" d="M 64.5 533.5 L 64.5 39.5" stroke-opacity="1" stroke-linejoin="bevel" stroke-miterlimit="10" stroke-dasharray=""/><path fill="none" stroke="rgb(0,0,0)" paint-order="fill" d="M 58.5 533.5 L 66.5 533.5 M 58.5 451.5 L 66.5 451.5 M 58.5 368.5 L 66.5 368.5 M 58.5 286.5 L 66.5 286.5 M 58.5 204.5 L 66.5 204.5 M 58.5 121.5 L 66.5 121.5 M 58.5 39.5 L 66.5 39.5" stroke-opacity="1" stroke-linejoin="bevel" stroke-miterlimit="10" stroke-dasharray=""/><path fill="none" stroke="rgb(0,0,0)" paint-order="fill" d="M 60.5 533.5 L 64.5 533.5 M 60.5 517.5 L 64.5 517.5 M 60.5 500.5 L 64.5 500.5 M 60.5 484.5 L 64.5 484.5 M 60.5 467.5 L 64.5 467.5 M 60.5 451.5 L 64.5 451.5 M 60.5 434.5 L 64.5 434.5 M 60.5 418.5 L 64.5 418.5 M 60.5 401.5 L 64.5 401.5 M 60.5 385.5 L 64.5 385.5 M 60.5 368.5 L 64.5 368.5 M 60.5 352.5 L 64.5 352.5 M 60.5 335.5 L 64.5 335.5 M 60.5 319.5 L 64.5 319.5 M 60.5 302.5 L 64.5 302.5 M 60.5 286.5 L 64.5 286.5 M 60.5 270.5 L 64.5 270.5 M 60.5 253.5 L 64.5 253.5 M 60.5 237.5 L 64.5 237.5 M 60.5 220.5 L 64.5 220.5 M 60.5 204.5 L 64.5 204.5 M 60.5 187.5 L 64.5 187.5 M 60.5 171.5 L 64.5 171.5 M 60.5 154.5 L 64.5 154.5 M 60.5 138.5 L 64.5 138.5 M 60.5 121.5 L 64.5 121.5 M 60.5 105.5 L 64.5 105.5 M 60.5 88.5 L 64.5 88.5 M 60.5 72.5 L 64.5 72.5 M 60.5 55.5 L 64.5 55.5 M 60.5 39.5 L 64.5 39.5" stroke-opacity="1" stroke-linejoin="bevel" stroke-miterlimit="10" stroke-dasharray=""/><text fill="rgb(68,68,68)" stroke="none" font-family="Work Sans" font-size="15pt" font-style="normal" font-weight="normal" text-decoration="normal" x="43" y="539.5" text-anchor="start" dominant-baseline="alphabetic" transform="matrix(1, 0, 0, 1, 0.5, 0.5)" fill-opacity="1">0</text><text fill="rgb(68,68,68)" stroke="none" font-family="Work Sans" font-size="15pt" font-style="normal" font-weight="normal" text-decoration="normal" x="43" y="457.1666564941406" text-anchor="start" dominant-baseline="alphabetic" transform="matrix(1, 0, 0, 1, 0.5, 0.5)" fill-opacity="1">1</text><text fill="rgb(68,68,68)" stroke="none" font-family="Work Sans" font-size="15pt" font-style="normal" font-weight="normal" text-decoration="normal" x="43" y="374.8333435058594" text-anchor="start" dominant-baseline="alphabetic" transform="matrix(1, 0, 0, 1, 0.5, 0.5)" fill-opacity="1">2</text><text fill="rgb(68,68,68)" stroke="none" font-family="Work Sans" font-size="15pt" font-style="normal" font-weight="normal" text-decoration="normal" x="43" y="292.5" text-anchor="start" dominant-baseline="alphabetic" transform="matrix(1, 0, 0, 1, 0.5, 0.5)" fill-opacity="1">3</text><text fill="rgb(68,68,68)" stroke="none" font-family="Work Sans" font-size="15pt" font-style="normal" font-weight="normal" text-decoration="normal" x="43" y="210.1666717529297" text-anchor="start" dominant-baseline="alphabetic" transform="matrix(1, 0, 0, 1, 0.5, 0.5)" fill-opacity="1">4</text><text fill="rgb(68,68,68)" stroke="none" font-family="Work Sans" font-size="15pt" font-style="normal" font-weight="normal" text-decoration="normal" x="43" y="127.83333587646484" text-anchor="start" dominant-baseline="alphabetic" transform="matrix(1, 0, 0, 1, 0.5, 0.5)" fill-opacity="1">5</text><text fill="rgb(68,68,68)" stroke="none" font-family="Work Sans" font-size="15pt" font-style="normal" font-weight="normal" text-decoration="normal" x="43" y="45.5" text-anchor="start" dominant-baseline="alphabetic" transform="matrix(1, 0, 0, 1, 0.5, 0.5)" fill-opacity="1">6</text><text fill="rgb(68,68,68)" stroke="none" font-family="helvetica" font-size="15pt" font-style="normal" font-weight="normal" text-decoration="normal" x="-30.2099609375" y="282" text-anchor="start" dominant-baseline="alphabetic" transform="matrix(6.123233995736766e-17, -1, 1, 6.123233995736766e-17, -260.5, 311.5)" fill-opacity="1">deGFP (μM)</text><path fill="none" stroke="none"/><text fill="rgb(68,68,68)" stroke="none" font-family="helvetica" font-size="10pt" font-style="normal" font-weight="normal" text-decoration="normal" x="646.8954467773438" y="490" text-anchor="start" dominant-baseline="central" clip-path="url(#PhqCcOznXKaW)" transform="matrix(1, 0, 0, 1, 0.5, 0.5)" fill-opacity="1">BioCRNpyler Model</text><path fill="none" stroke="rgb(255,0,255)" paint-order="fill" d="M 622.3954467773438 490.5 L 642.3954467773438 490.5" stroke-opacity="1" stroke-linejoin="bevel" stroke-miterlimit="10" stroke-width="3" stroke-dasharray="" clip-path="url(#PhqCcOznXKaW)"/><text fill="rgb(68,68,68)" stroke="none" font-family="helvetica" font-size="10pt" font-style="normal" font-weight="normal" text-decoration="normal" x="646.8954467773438" y="513" text-anchor="start" dominant-baseline="central" clip-path="url(#PhqCcOznXKaW)" transform="matrix(1, 0, 0, 1, 0.5, 0.5)" fill-opacity="1">pT7-MGapt-deGFP.R1</text><path fill="rgb(0,0,128)" stroke="rgb(0,0,128)" paint-order="fill" d="M 636.3954467773438 513.5 A 4 4 0 1 1 636.3954447773439 513.4960000006666" fill-opacity="0.2" clip-path="url(#PhqCcOznXKaW)" stroke-opacity="1" stroke-linejoin="bevel" stroke-miterlimit="10" stroke-dasharray=""/><text fill="rgb(68,68,68)" stroke="none" font-family="helvetica" font-size="18pt" font-style="normal" font-weight="bold" text-decoration="normal" x="-1" y="29" text-anchor="start" dominant-baseline="alphabetic" transform="matrix(1, 0, 0, 1, 0.5, 0.5)" fill-opacity="1">C) Translation simulation of deGFP</text></svg>