<svg version="1.1" xmlns="http://www.w3.org/2000/svg" width="800" height="600"><defs><clipPath id="fcPSfEiDUwxr"><path fill="none" stroke="none" d="M 104.5 39.5 L 790.5 39.5 L 790.5 533.5 L 104.5 533.5 L 104.5 39.5"/></clipPath><clipPath id="ayEifXDFWdZu"><path fill="none" stroke="none" d="M 104.5 39.5 L 790.5 39.5 L 790.5 533.5 L 104.5 533.5 L 104.5 39.5"/></clipPath><clipPath id="KVKHthzIlCDm"><path fill="none" stroke="none" d="M 104.5 39.5 L 790.5 39.5 L 790.5 533.5 L 104.5 533.5 L 104.5 39.5"/></clipPath><clipPath id="NDoTeiKosiTN"><path fill="none" stroke="none" d="M 104.5 39.5 L 790.5 39.5 L 790.5 533.5 L 104.5 533.5 L 104.5 39.5"/></clipPath><clipPath id="FZHcnGtkvzsG"><path fill="none" stroke="none" d="M 104.5 39.5 L 790.5 39.5 L 790.5 533.5 L 104.5 533.5 L 104.5 39.5"/></clipPath><clipPath id="XvUuZvIDUJfL"><path fill="none" stroke="none" d="M 104.5 39.5 L 790.5 39.5 L 790.5 533.5 L 104.5 533.5 L 104.5 39.5"/></clipPath></defs><path fill="rgb(255,255,255)" stroke="none" paint-order="stroke" d="M 0.5 0.5 L 800.5 0.5 L 800.5 600.5 L 0.5 600.5 L 0.5 0.5" fill-opacity="1"/><rect fill="#FFFFFF" stroke="none" x="104" y="39" width="686" height="494" transform="matrix(1, 0, 0, 1, 0.5, 0.5)"/><path fill="rgb(255,255,255)" stroke="none" paint-order="stroke" d="M 104.5 39.5 L 790.5 39.5 L 790.5 533.5 L 104.5 533.5 L 104.5 39.5" fill-opacity="1"/><path fill="rgb(0,0,128)" stroke="rgb(0,0,128)" paint-order="fill" d="M 765.3466947078705 78.5932388305664 A 3.8111112117767334 3.8111112117767334 0 1 1 765.346692802315 78.58942771998981" fill-opacity="0.5019607843137255" clip-path="url(#KVKHthzIlCDm)" stroke-opacity="1" stroke-linejoin="bevel" stroke-miterlimit="10" stroke-dasharray=""/><path fill="rgb(0,0,128)" stroke="rgb(0,0,128)" paint-order="fill" d="M 546.2077786922455 243.84446716308594 A 3.8111112117767334 3.8111112117767334 0 1 1 546.20777678669 243.84065605250933" fill-opacity="0.5019607843137255" clip-path="url(#KVKHthzIlCDm)" stroke-opacity="1" stroke-linejoin="bevel" stroke-miterlimit="10" stroke-dasharray=""/><path fill="rgb(0,0,128)" stroke="rgb(0,0,128)" paint-order="fill" d="M 400.2422330379486 310.32177734375 A 3.8111112117767334 3.8111112117767334 0 1 1 400.24223113239316 310.3179662331734" fill-opacity="0.5019607843137255" clip-path="url(#KVKHthzIlCDm)" stroke-opacity="1" stroke-linejoin="bevel" stroke-miterlimit="10" stroke-dasharray=""/><path fill="rgb(0,0,128)" stroke="rgb(0,0,128)" paint-order="fill" d="M 303.0588834285736 408.0226135253906 A 3.8111112117767334 3.8111112117767334 0 1 1 303.05888152301816 408.01880241481405" fill-opacity="0.5019607843137255" clip-path="url(#KVKHthzIlCDm)" stroke-opacity="1" stroke-linejoin="bevel" stroke-miterlimit="10" stroke-dasharray=""/><path fill="rgb(0,0,128)" stroke="rgb(0,0,128)" paint-order="fill" d="M 238.27000403404236 450.9429931640625 A 3.8111112117767334 3.8111112117767334 0 1 1 238.2700021284869 450.9391820534859" fill-opacity="0.5019607843137255" clip-path="url(#KVKHthzIlCDm)" stroke-opacity="1" stroke-linejoin="bevel" stroke-miterlimit="10" stroke-dasharray=""/><path fill="rgb(0,0,128)" stroke="rgb(0,0,128)" paint-order="fill" d="M 194.8233335018158 488.23724365234375 A 3.8111112117767334 3.8111112117767334 0 1 1 194.82333159626035 488.2334325417672" fill-opacity="0.5019607843137255" clip-path="url(#KVKHthzIlCDm)" stroke-opacity="1" stroke-linejoin="bevel" stroke-miterlimit="10" stroke-dasharray=""/><path fill="rgb(0,0,128)" stroke="rgb(0,0,128)" paint-order="fill" d="M 165.85888648033142 503.36737060546875 A 3.8111112117767334 3.8111112117767334 0 1 1 165.85888457477597 503.3635594948922" fill-opacity="0.5019607843137255" clip-path="url(#KVKHthzIlCDm)" stroke-opacity="1" stroke-linejoin="bevel" stroke-miterlimit="10" stroke-dasharray=""/><path fill="rgb(0,0,128)" stroke="rgb(0,0,128)" paint-order="fill" d="M 146.80332922935486 519.0875244140625 A 3.8111112117767334 3.8111112117767334 0 1 1 146.8033273237994 519.0837133034859" fill-opacity="0.5019607843137255" clip-path="url(#KVKHthzIlCDm)" stroke-opacity="1" stroke-linejoin="bevel" stroke-miterlimit="10" stroke-dasharray=""/><path fill="rgb(0,0,128)" stroke="rgb(0,0,128)" paint-order="fill" d="M 133.8455502986908 523.5582275390625 A 3.8111112117767334 3.8111112117767334 0 1 1 133.84554839313535 523.5544164284859" fill-opacity="0.5019607843137255" clip-path="url(#KVKHthzIlCDm)" stroke-opacity="1" stroke-linejoin="bevel" stroke-miterlimit="10" stroke-dasharray=""/><path fill="rgb(0,0,128)" stroke="rgb(0,0,128)" paint-order="fill" d="M 125.46111273765564 529.9486694335938 A 3.8111112117767334 3.8111112117767334 0 1 1 125.46111083210019 529.9448583230171" fill-opacity="0.5019607843137255" clip-path="url(#KVKHthzIlCDm)" stroke-opacity="1" stroke-linejoin="bevel" stroke-miterlimit="10" stroke-dasharray=""/><path fill="rgb(0,0,128)" stroke="rgb(0,0,128)" paint-order="fill" d="M 119.74444556236267 531.9946899414062 A 3.8111112117767334 3.8111112117767334 0 1 1 119.74444365680722 531.9908788308296" fill-opacity="0.5019607843137255" clip-path="url(#KVKHthzIlCDm)" stroke-opacity="1" stroke-linejoin="bevel" stroke-miterlimit="10" stroke-dasharray=""/><path fill="rgb(0,0,128)" stroke="rgb(0,0,128)" paint-order="fill" d="M 115.93333411216736 532.743896484375 A 3.8111112117767334 3.8111112117767334 0 1 1 115.93333220661191 532.7400853737984" fill-opacity="0.5019607843137255" clip-path="url(#KVKHthzIlCDm)" stroke-opacity="1" stroke-linejoin="bevel" stroke-miterlimit="10" stroke-dasharray=""/><path fill="rgb(0,0,128)" stroke="rgb(0,0,128)" paint-order="fill" d="M 113.26555609703064 533.1761474609375 A 3.8111112117767334 3.8111112117767334 0 1 1 113.26555419147519 533.1723363503609" fill-opacity="0.5019607843137255" clip-path="url(#KVKHthzIlCDm)" stroke-opacity="1" stroke-linejoin="bevel" stroke-miterlimit="10" stroke-dasharray=""/><path fill="rgb(0,0,128)" stroke="rgb(0,0,128)" paint-order="fill" d="M 111.74111151695251 533.3449096679688 A 3.8111112117767334 3.8111112117767334 0 1 1 111.74110961139706 533.3410985573921" fill-opacity="0.5019607843137255" clip-path="url(#KVKHthzIlCDm)" stroke-opacity="1" stroke-linejoin="bevel" stroke-miterlimit="10" stroke-dasharray=""/><path fill="rgb(0,0,128)" stroke="rgb(0,0,128)" paint-order="fill" d="M 108.31111121177673 533.5 A 3.8111112117767334 3.8111112117767334 0 1 1 108.31110930622128 533.4961888894234" fill-opacity="0.5019607843137255" clip-path="url(#KVKHthzIlCDm)" stroke-opacity="1" stroke-linejoin="bevel" stroke-miterlimit="10" stroke-dasharray=""/><path fill="none" stroke="rgb(217,91,67)" paint-order="fill" d="M 761.5355834960938 78.84017944335938 L 542.3966674804688 232.63119506835938 L 396.4311218261719 335.0693664550781 L 299.2477722167969 403.2723388671875 L 234.45889282226562 448.7409973144531 L 191.01222229003906 479.23175048828125 L 162.0477752685547 499.55889892578125 L 142.99221801757812 512.9320068359375 L 130.03443908691406 522.0257568359375 L 121.6500015258789 527.909912109375 L 115.93333435058594 531.921875 L 112.12222290039062 534.5964965820312 L 109.4544448852539 536.46875 L 107.93000030517578 537.53857421875 L 104.5 539.9457397460938" stroke-opacity="1" stroke-linejoin="bevel" stroke-miterlimit="10" stroke-width="2" stroke-dasharray="6" clip-path="url(#NDoTeiKosiTN)"/><path fill="none" stroke="rgb(0,0,0)" paint-order="fill" d="M 104.5 533.5 L 790.5 533.5" stroke-opacity="1" stroke-linejoin="bevel" stroke-miterlimit="10" stroke-dasharray=""/><path fill="none" stroke="rgb(0,0,0)" paint-order="fill" d="M 104.5 539.5 L 104.5 531.5 M 295.5 539.5 L 295.5 531.5 M 485.5 539.5 L 485.5 531.5 M 676.5 539.5 L 676.5 531.5" stroke-opacity="1" stroke-linejoin="bevel" stroke-miterlimit="10" stroke-dasharray=""/><path fill="none" stroke="rgb(0,0,0)" paint-order="fill" d="M 104.5 537.5 L 104.5 533.5 M 142.5 537.5 L 142.5 533.5 M 180.5 537.5 L 180.5 533.5 M 218.5 537.5 L 218.5 533.5 M 256.5 537.5 L 256.5 533.5 M 295.5 537.5 L 295.5 533.5 M 333.5 537.5 L 333.5 533.5 M 371.5 537.5 L 371.5 533.5 M 409.5 537.5 L 409.5 533.5 M 447.5 537.5 L 447.5 533.5 M 485.5 537.5 L 485.5 533.5 M 523.5 537.5 L 523.5 533.5 M 561.5 537.5 L 561.5 533.5 M 599.5 537.5 L 599.5 533.5 M 638.5 537.5 L 638.5 533.5 M 676.5 537.5 L 676.5 533.5 M 714.5 537.5 L 714.5 533.5 M 752.5 537.5 L 752.5 533.5 M 790.5 537.5 L 790.5 533.5" stroke-opacity="1" stroke-linejoin="bevel" stroke-miterlimit="10" stroke-dasharray=""/><text fill="rgb(68,68,68)" stroke="none" font-family="Work Sans" font-size="15pt" font-style="normal" font-weight="normal" text-decoration="normal" x="99" y="557" text-anchor="start" dominant-baseline="alphabetic" transform="matrix(1, 0, 0, 1, 0.5, 0.5)" fill-opacity="1">0</text><text fill="rgb(68,68,68)" stroke="none" font-family="Work Sans" font-size="15pt" font-style="normal" font-weight="normal" text-decoration="normal" x="289.5555419921875" y="557" text-anchor="start" dominant-baseline="alphabetic" transform="matrix(1, 0, 0, 1, 0.5, 0.5)" fill-opacity="1">5</text><text fill="rgb(68,68,68)" stroke="none" font-family="Work Sans" font-size="15pt" font-style="normal" font-weight="normal" text-decoration="normal" x="475.1111145019531" y="557" text-anchor="start" dominant-baseline="alphabetic" transform="matrix(1, 0, 0, 1, 0.5, 0.5)" fill-opacity="1">10</text><text fill="rgb(68,68,68)" stroke="none" font-family="Work Sans" font-size="15pt" font-style="normal" font-weight="normal" text-decoration="normal" x="665.6666870117188" y="557" text-anchor="start" dominant-baseline="alphabetic" transform="matrix(1, 0, 0, 1, 0.5, 0.5)" fill-opacity="1">15</text><text fill="rgb(68,68,68)" stroke="none" font-family="helvetica" font-size="15pt" font-style="normal" font-weight="normal" text-decoration="normal" x="397.3515625" y="593" text-anchor="start" dominant-baseline="alphabetic" transform="matrix(1, 0, 0, 1, 0.5, 0.5)" fill-opacity="1">eGFP (μM)</text><path fill="none" stroke="rgb(0,0,0)" paint-order="fill" d="M 104.5 533.5 L 104.5 39.5" stroke-opacity="1" stroke-linejoin="bevel" stroke-miterlimit="10" stroke-dasharray=""/><path fill="none" stroke="rgb(0,0,0)" paint-order="fill" d="M 98.5 533.5 L 106.5 533.5 M 98.5 451.5 L 106.5 451.5 M 98.5 368.5 L 106.5 368.5 M 98.5 286.5 L 106.5 286.5 M 98.5 204.5 L 106.5 204.5 M 98.5 121.5 L 106.5 121.5 M 98.5 39.5 L 106.5 39.5" stroke-opacity="1" stroke-linejoin="bevel" stroke-miterlimit="10" stroke-dasharray=""/><path fill="none" stroke="rgb(0,0,0)" paint-order="fill" d="M 100.5 533.5 L 104.5 533.5 M 100.5 517.5 L 104.5 517.5 M 100.5 500.5 L 104.5 500.5 M 100.5 484.5 L 104.5 484.5 M 100.5 467.5 L 104.5 467.5 M 100.5 451.5 L 104.5 451.5 M 100.5 434.5 L 104.5 434.5 M 100.5 418.5 L 104.5 418.5 M 100.5 401.5 L 104.5 401.5 M 100.5 385.5 L 104.5 385.5 M 100.5 368.5 L 104.5 368.5 M 100.5 352.5 L 104.5 352.5 M 100.5 335.5 L 104.5 335.5 M 100.5 319.5 L 104.5 319.5 M 100.5 302.5 L 104.5 302.5 M 100.5 286.5 L 104.5 286.5 M 100.5 270.5 L 104.5 270.5 M 100.5 253.5 L 104.5 253.5 M 100.5 237.5 L 104.5 237.5 M 100.5 220.5 L 104.5 220.5 M 100.5 204.5 L 104.5 204.5 M 100.5 187.5 L 104.5 187.5 M 100.5 171.5 L 104.5 171.5 M 100.5 154.5 L 104.5 154.5 M 100.5 138.5 L 104.5 138.5 M 100.5 121.5 L 104.5 121.5 M 100.5 105.5 L 104.5 105.5 M 100.5 88.5 L 104.5 88.5 M 100.5 72.5 L 104.5 72.5 M 100.5 55.5 L 104.5 55.5 M 100.5 39.5 L 104.5 39.5" stroke-opacity="1" stroke-linejoin="bevel" stroke-miterlimit="10" stroke-dasharray=""/><text fill="rgb(68,68,68)" stroke="none" font-family="Work Sans" font-size="15pt" font-style="normal" font-weight="normal" text-decoration="normal" x="83" y="539.5" text-anchor="start" dominant-baseline="alphabetic" transform="matrix(1, 0, 0, 1, 0.5, 0.5)" fill-opacity="1">0</text><text fill="rgb(68,68,68)" stroke="none" font-family="Work Sans" font-size="15pt" font-style="normal" font-weight="normal" text-decoration="normal" x="53" y="457.1666564941406" text-anchor="start" dominant-baseline="alphabetic" transform="matrix(1, 0, 0, 1, 0.5, 0.5)" fill-opacity="1">5000</text><text fill="rgb(68,68,68)" stroke="none" font-family="Work Sans" font-size="15pt" font-style="normal" font-weight="normal" text-decoration="normal" x="43" y="374.8333435058594" text-anchor="start" dominant-baseline="alphabetic" transform="matrix(1, 0, 0, 1, 0.5, 0.5)" fill-opacity="1">10000</text><text fill="rgb(68,68,68)" stroke="none" font-family="Work Sans" font-size="15pt" font-style="normal" font-weight="normal" text-decoration="normal" x="43" y="292.5" text-anchor="start" dominant-baseline="alphabetic" transform="matrix(1, 0, 0, 1, 0.5, 0.5)" fill-opacity="1">15000</text><text fill="rgb(68,68,68)" stroke="none" font-family="Work Sans" font-size="15pt" font-style="normal" font-weight="normal" text-decoration="normal" x="43" y="210.1666717529297" text-anchor="start" dominant-baseline="alphabetic" transform="matrix(1, 0, 0, 1, 0.5, 0.5)" fill-opacity="1">20000</text><text fill="rgb(68,68,68)" stroke="none" font-family="Work Sans" font-size="15pt" font-style="normal" font-weight="normal" text-decoration="normal" x="43" y="127.83333587646484" text-anchor="start" dominant-baseline="alphabetic" transform="matrix(1, 0, 0, 1, 0.5, 0.5)" fill-opacity="1">25000</text><text fill="rgb(68,68,68)" stroke="none" font-family="Work Sans" font-size="15pt" font-style="normal" font-weight="normal" text-decoration="normal" x="43" y="45.5" text-anchor="start" dominant-baseline="alphabetic" transform="matrix(1, 0, 0, 1, 0.5, 0.5)" fill-opacity="1">30000</text><text fill="rgb(68,68,68)" stroke="none" font-family="helvetica" font-size="15pt" font-style="normal" font-weight="normal" text-decoration="normal" x="-61.1474609375" y="282" text-anchor="start" dominant-baseline="alphabetic" transform="matrix(6.123233995736766e-17, -1, 1, 6.123233995736766e-17, -260.5, 311.5)" fill-opacity="1">Fluorescence (a.u.)</text><path fill="rgb(255,255,255)" stroke="none" paint-order="stroke" d="M 304.5 412.5 L 469.9797668457031 412.5 L 469.9797668457031 433.5 L 304.5 433.5 Z" fill-opacity="1" clip-path="url(#FZHcnGtkvzsG)"/><text fill="rgb(68,68,68)" stroke="none" font-family="helvetica" font-size="14pt" font-style="normal" font-weight="normal" text-decoration="normal" x="304" y="429" text-anchor="start" dominant-baseline="alphabetic" clip-path="url(#FZHcnGtkvzsG)" transform="matrix(1, 0, 0, 1, 0.5, 0.5)" fill-opacity="1">y= 1624.27x-391.44</text><text fill="rgb(68,68,68)" stroke="none" font-family="helvetica" font-size="18pt" font-style="normal" font-weight="bold" text-decoration="normal" x="34" y="29" text-anchor="start" dominant-baseline="alphabetic" transform="matrix(1, 0, 0, 1, 0.5, 0.5)" fill-opacity="1">B) eGFP Calibration: Ex/Em 485/515, Gain 61 </text></svg>