<svg version="1.1" xmlns="http://www.w3.org/2000/svg" width="800" height="600"><defs><clipPath id="zOSGTrgoNogN"><path fill="none" stroke="none" d="M 84.5 39.5 L 790.5 39.5 L 790.5 533.5 L 84.5 533.5 L 84.5 39.5"/></clipPath><clipPath id="TXOeXtXJeXNq"><path fill="none" stroke="none" d="M 84.5 39.5 L 790.5 39.5 L 790.5 533.5 L 84.5 533.5 L 84.5 39.5"/></clipPath><clipPath id="lGKNAfTiDues"><path fill="none" stroke="none" d="M 84.5 39.5 L 790.5 39.5 L 790.5 533.5 L 84.5 533.5 L 84.5 39.5"/></clipPath><clipPath id="JDistTzmcVXy"><path fill="none" stroke="none" d="M 84.5 39.5 L 790.5 39.5 L 790.5 533.5 L 84.5 533.5 L 84.5 39.5"/></clipPath><clipPath id="UKBchXTAPCTm"><path fill="none" stroke="none" d="M 84.5 39.5 L 790.5 39.5 L 790.5 533.5 L 84.5 533.5 L 84.5 39.5"/></clipPath><clipPath id="kUAZXVUqZfWW"><path fill="none" stroke="none" d="M 84.5 39.5 L 790.5 39.5 L 790.5 533.5 L 84.5 533.5 L 84.5 39.5"/></clipPath></defs><path fill="rgb(255,255,255)" stroke="none" paint-order="stroke" d="M 0.5 0.5 L 800.5 0.5 L 800.5 600.5 L 0.5 600.5 L 0.5 0.5" fill-opacity="1"/><rect fill="#FFFFFF" stroke="none" x="84" y="39" width="706" height="494" transform="matrix(1, 0, 0, 1, 0.5, 0.5)"/><path fill="rgb(255,255,255)" stroke="none" paint-order="stroke" d="M 84.5 39.5 L 790.5 39.5 L 790.5 533.5 L 84.5 533.5 L 84.5 39.5" fill-opacity="1"/><path fill="rgb(0,0,128)" stroke="rgb(0,0,128)" paint-order="fill" d="M 89.93076944351196 533.5 A 5.430769443511963 5.430769443511963 0 1 1 89.93076672812747 533.4945692314616" fill-opacity="0.5019607843137255" clip-path="url(#lGKNAfTiDues)" stroke-opacity="1" stroke-linejoin="bevel" stroke-miterlimit="10" stroke-dasharray=""/><path fill="rgb(0,0,128)" stroke="rgb(0,0,128)" paint-order="fill" d="M 104.45808267593384 515.2219848632812 A 5.430769443511963 5.430769443511963 0 1 1 104.45807996054934 515.2165540947428" fill-opacity="0.5019607843137255" clip-path="url(#lGKNAfTiDues)" stroke-opacity="1" stroke-linejoin="bevel" stroke-miterlimit="10" stroke-dasharray=""/><path fill="rgb(0,0,128)" stroke="rgb(0,0,128)" paint-order="fill" d="M 111.72173929214478 532.84130859375 A 5.430769443511963 5.430769443511963 0 1 1 111.72173657676028 532.8358778252116" fill-opacity="0.5019607843137255" clip-path="url(#lGKNAfTiDues)" stroke-opacity="1" stroke-linejoin="bevel" stroke-miterlimit="10" stroke-dasharray=""/><path fill="rgb(0,0,128)" stroke="rgb(0,0,128)" paint-order="fill" d="M 118.98540353775024 524.9373168945312 A 5.430769443511963 5.430769443511963 0 1 1 118.98540082236575 524.9318861259928" fill-opacity="0.5019607843137255" clip-path="url(#lGKNAfTiDues)" stroke-opacity="1" stroke-linejoin="bevel" stroke-miterlimit="10" stroke-dasharray=""/><path fill="rgb(0,0,128)" stroke="rgb(0,0,128)" paint-order="fill" d="M 126.24906015396118 509.12933349609375 A 5.430769443511963 5.430769443511963 0 1 1 126.24905743857668 509.1239027275554" fill-opacity="0.5019607843137255" clip-path="url(#lGKNAfTiDues)" stroke-opacity="1" stroke-linejoin="bevel" stroke-miterlimit="10" stroke-dasharray=""/><path fill="rgb(0,0,128)" stroke="rgb(0,0,128)" paint-order="fill" d="M 133.51271677017212 520.9030151367188 A 5.430769443511963 5.430769443511963 0 1 1 133.51271405478764 520.8975843681803" fill-opacity="0.5019607843137255" clip-path="url(#lGKNAfTiDues)" stroke-opacity="1" stroke-linejoin="bevel" stroke-miterlimit="10" stroke-dasharray=""/><path fill="rgb(0,0,128)" stroke="rgb(0,0,128)" paint-order="fill" d="M 140.77636575698853 533.829345703125 A 5.430769443511963 5.430769443511963 0 1 1 140.77636304160404 533.8239149345866" fill-opacity="0.5019607843137255" clip-path="url(#lGKNAfTiDues)" stroke-opacity="1" stroke-linejoin="bevel" stroke-miterlimit="10" stroke-dasharray=""/><path fill="rgb(0,0,128)" stroke="rgb(0,0,128)" paint-order="fill" d="M 148.04003763198853 497.0263366699219 A 5.430769443511963 5.430769443511963 0 1 1 148.04003491660404 497.0209059013835" fill-opacity="0.5019607843137255" clip-path="url(#lGKNAfTiDues)" stroke-opacity="1" stroke-linejoin="bevel" stroke-miterlimit="10" stroke-dasharray=""/><path fill="rgb(0,0,128)" stroke="rgb(0,0,128)" paint-order="fill" d="M 155.30369424819946 530.371337890625 A 5.430769443511963 5.430769443511963 0 1 1 155.30369153281498 530.3659071220866" fill-opacity="0.5019607843137255" clip-path="url(#lGKNAfTiDues)" stroke-opacity="1" stroke-linejoin="bevel" stroke-miterlimit="10" stroke-dasharray=""/><path fill="rgb(0,0,128)" stroke="rgb(0,0,128)" paint-order="fill" d="M 162.5673508644104 520.9853515625 A 5.430769443511963 5.430769443511963 0 1 1 162.56734814902592 520.9799207939616" fill-opacity="0.5019607843137255" clip-path="url(#lGKNAfTiDues)" stroke-opacity="1" stroke-linejoin="bevel" stroke-miterlimit="10" stroke-dasharray=""/><path fill="rgb(0,0,128)" stroke="rgb(0,0,128)" paint-order="fill" d="M 190.28393411636353 497.767333984375 A 5.430769443511963 5.430769443511963 0 1 1 190.28393140097904 497.76190321583664" fill-opacity="0.5019607843137255" clip-path="url(#lGKNAfTiDues)" stroke-opacity="1" stroke-linejoin="bevel" stroke-miterlimit="10" stroke-dasharray=""/><path fill="rgb(0,0,128)" stroke="rgb(0,0,128)" paint-order="fill" d="M 223.73498392105103 462.6933288574219 A 5.430769443511963 5.430769443511963 0 1 1 223.73498120566654 462.6878980888835" fill-opacity="0.5019607843137255" clip-path="url(#lGKNAfTiDues)" stroke-opacity="1" stroke-linejoin="bevel" stroke-miterlimit="10" stroke-dasharray=""/><path fill="rgb(0,0,128)" stroke="rgb(0,0,128)" paint-order="fill" d="M 257.1860489845276 453.47198486328125 A 5.430769443511963 5.430769443511963 0 1 1 257.1860462691431 453.4665540947429" fill-opacity="0.5019607843137255" clip-path="url(#lGKNAfTiDues)" stroke-opacity="1" stroke-linejoin="bevel" stroke-miterlimit="10" stroke-dasharray=""/><path fill="rgb(0,0,128)" stroke="rgb(0,0,128)" paint-order="fill" d="M 290.6370987892151 434.8646545410156 A 5.430769443511963 5.430769443511963 0 1 1 290.6370960738306 434.85922377247726" fill-opacity="0.5019607843137255" clip-path="url(#lGKNAfTiDues)" stroke-opacity="1" stroke-linejoin="bevel" stroke-miterlimit="10" stroke-dasharray=""/><path fill="rgb(0,0,128)" stroke="rgb(0,0,128)" paint-order="fill" d="M 357.5391983985901 373.93798828125 A 5.430769443511963 5.430769443511963 0 1 1 357.5391956832056 373.93255751271164" fill-opacity="0.5019607843137255" clip-path="url(#lGKNAfTiDues)" stroke-opacity="1" stroke-linejoin="bevel" stroke-miterlimit="10" stroke-dasharray=""/><path fill="rgb(0,0,128)" stroke="rgb(0,0,128)" paint-order="fill" d="M 424.4413285255432 306.8363342285156 A 5.430769443511963 5.430769443511963 0 1 1 424.44132581015873 306.83090345997726" fill-opacity="0.5019607843137255" clip-path="url(#lGKNAfTiDues)" stroke-opacity="1" stroke-linejoin="bevel" stroke-miterlimit="10" stroke-dasharray=""/><path fill="rgb(0,0,128)" stroke="rgb(0,0,128)" paint-order="fill" d="M 591.6965775489807 188.93499755859375 A 5.430769443511963 5.430769443511963 0 1 1 591.6965748335962 188.92956679005536" fill-opacity="0.5019607843137255" clip-path="url(#lGKNAfTiDues)" stroke-opacity="1" stroke-linejoin="bevel" stroke-miterlimit="10" stroke-dasharray=""/><path fill="rgb(0,0,128)" stroke="rgb(0,0,128)" paint-order="fill" d="M 758.9518876075745 74.49166870117188 A 5.430769443511963 5.430769443511963 0 1 1 758.9518848921899 74.48623793263349" fill-opacity="0.5019607843137255" clip-path="url(#lGKNAfTiDues)" stroke-opacity="1" stroke-linejoin="bevel" stroke-miterlimit="10" stroke-dasharray=""/><path fill="none" stroke="rgb(217,91,67)" paint-order="fill" d="M 84.5 553.3694458007812 L 91.76365661621094 548.245849609375 L 99.02731323242188 543.1222534179688 L 106.29096984863281 537.9986572265625 L 113.55463409423828 532.875 L 120.81829071044922 527.7514038085938 L 128.08194732666016 522.6278076171875 L 135.34559631347656 517.5042114257812 L 142.60926818847656 512.3805847167969 L 149.8729248046875 507.2569580078125 L 157.13658142089844 502.13336181640625 L 184.85316467285156 482.5827331542969 L 218.30421447753906 458.9871520996094 L 251.75527954101562 435.3915710449219 L 285.2063293457031 411.7959899902344 L 352.1084289550781 364.6048278808594 L 419.01055908203125 317.4136657714844 L 586.2658081054688 199.43576049804688 L 753.5211181640625 81.45785522460938" stroke-opacity="1" stroke-linejoin="bevel" stroke-miterlimit="10" stroke-width="2" stroke-dasharray="6" clip-path="url(#JDistTzmcVXy)"/><path fill="none" stroke="rgb(0,0,0)" paint-order="fill" d="M 84.5 533.5 L 790.5 533.5" stroke-opacity="1" stroke-linejoin="bevel" stroke-miterlimit="10" stroke-dasharray=""/><path fill="none" stroke="rgb(0,0,0)" paint-order="fill" d="M 84.5 539.5 L 84.5 531.5 M 193.5 539.5 L 193.5 531.5 M 301.5 539.5 L 301.5 531.5 M 410.5 539.5 L 410.5 531.5 M 518.5 539.5 L 518.5 531.5 M 627.5 539.5 L 627.5 531.5 M 736.5 539.5 L 736.5 531.5" stroke-opacity="1" stroke-linejoin="bevel" stroke-miterlimit="10" stroke-dasharray=""/><path fill="none" stroke="rgb(0,0,0)" paint-order="fill" d="M 84.5 537.5 L 84.5 533.5 M 106.5 537.5 L 106.5 533.5 M 127.5 537.5 L 127.5 533.5 M 149.5 537.5 L 149.5 533.5 M 171.5 537.5 L 171.5 533.5 M 193.5 537.5 L 193.5 533.5 M 214.5 537.5 L 214.5 533.5 M 236.5 537.5 L 236.5 533.5 M 258.5 537.5 L 258.5 533.5 M 280.5 537.5 L 280.5 533.5 M 301.5 537.5 L 301.5 533.5 M 323.5 537.5 L 323.5 533.5 M 345.5 537.5 L 345.5 533.5 M 366.5 537.5 L 366.5 533.5 M 388.5 537.5 L 388.5 533.5 M 410.5 537.5 L 410.5 533.5 M 432.5 537.5 L 432.5 533.5 M 453.5 537.5 L 453.5 533.5 M 475.5 537.5 L 475.5 533.5 M 497.5 537.5 L 497.5 533.5 M 518.5 537.5 L 518.5 533.5 M 540.5 537.5 L 540.5 533.5 M 562.5 537.5 L 562.5 533.5 M 584.5 537.5 L 584.5 533.5 M 605.5 537.5 L 605.5 533.5 M 627.5 537.5 L 627.5 533.5 M 649.5 537.5 L 649.5 533.5 M 671.5 537.5 L 671.5 533.5 M 692.5 537.5 L 692.5 533.5 M 714.5 537.5 L 714.5 533.5 M 736.5 537.5 L 736.5 533.5 M 757.5 537.5 L 757.5 533.5 M 779.5 537.5 L 779.5 533.5" stroke-opacity="1" stroke-linejoin="bevel" stroke-miterlimit="10" stroke-dasharray=""/><text fill="rgb(68,68,68)" stroke="none" font-family="Work Sans" font-size="15pt" font-style="normal" font-weight="normal" text-decoration="normal" x="79" y="557" text-anchor="start" dominant-baseline="alphabetic" transform="matrix(1, 0, 0, 1, 0.5, 0.5)" fill-opacity="1">0</text><text fill="rgb(68,68,68)" stroke="none" font-family="Work Sans" font-size="15pt" font-style="normal" font-weight="normal" text-decoration="normal" x="182.61538696289062" y="557" text-anchor="start" dominant-baseline="alphabetic" transform="matrix(1, 0, 0, 1, 0.5, 0.5)" fill-opacity="1">10</text><text fill="rgb(68,68,68)" stroke="none" font-family="Work Sans" font-size="15pt" font-style="normal" font-weight="normal" text-decoration="normal" x="291.23077392578125" y="557" text-anchor="start" dominant-baseline="alphabetic" transform="matrix(1, 0, 0, 1, 0.5, 0.5)" fill-opacity="1">20</text><text fill="rgb(68,68,68)" stroke="none" font-family="Work Sans" font-size="15pt" font-style="normal" font-weight="normal" text-decoration="normal" x="399.8461608886719" y="557" text-anchor="start" dominant-baseline="alphabetic" transform="matrix(1, 0, 0, 1, 0.5, 0.5)" fill-opacity="1">30</text><text fill="rgb(68,68,68)" stroke="none" font-family="Work Sans" font-size="15pt" font-style="normal" font-weight="normal" text-decoration="normal" x="508.4615478515625" y="557" text-anchor="start" dominant-baseline="alphabetic" transform="matrix(1, 0, 0, 1, 0.5, 0.5)" fill-opacity="1">40</text><text fill="rgb(68,68,68)" stroke="none" font-family="Work Sans" font-size="15pt" font-style="normal" font-weight="normal" text-decoration="normal" x="617.076904296875" y="557" text-anchor="start" dominant-baseline="alphabetic" transform="matrix(1, 0, 0, 1, 0.5, 0.5)" fill-opacity="1">50</text><text fill="rgb(68,68,68)" stroke="none" font-family="Work Sans" font-size="15pt" font-style="normal" font-weight="normal" text-decoration="normal" x="725.6923217773438" y="557" text-anchor="start" dominant-baseline="alphabetic" transform="matrix(1, 0, 0, 1, 0.5, 0.5)" fill-opacity="1">60</text><text fill="rgb(68,68,68)" stroke="none" font-family="helvetica" font-size="15pt" font-style="normal" font-weight="normal" text-decoration="normal" x="384.2265625" y="593" text-anchor="start" dominant-baseline="alphabetic" transform="matrix(1, 0, 0, 1, 0.5, 0.5)" fill-opacity="1">mRNA (nM)</text><path fill="none" stroke="rgb(0,0,0)" paint-order="fill" d="M 84.5 533.5 L 84.5 39.5" stroke-opacity="1" stroke-linejoin="bevel" stroke-miterlimit="10" stroke-dasharray=""/><path fill="none" stroke="rgb(0,0,0)" paint-order="fill" d="M 78.5 533.5 L 86.5 533.5 M 78.5 451.5 L 86.5 451.5 M 78.5 368.5 L 86.5 368.5 M 78.5 286.5 L 86.5 286.5 M 78.5 204.5 L 86.5 204.5 M 78.5 121.5 L 86.5 121.5 M 78.5 39.5 L 86.5 39.5" stroke-opacity="1" stroke-linejoin="bevel" stroke-miterlimit="10" stroke-dasharray=""/><path fill="none" stroke="rgb(0,0,0)" paint-order="fill" d="M 80.5 533.5 L 84.5 533.5 M 80.5 517.5 L 84.5 517.5 M 80.5 500.5 L 84.5 500.5 M 80.5 484.5 L 84.5 484.5 M 80.5 467.5 L 84.5 467.5 M 80.5 451.5 L 84.5 451.5 M 80.5 434.5 L 84.5 434.5 M 80.5 418.5 L 84.5 418.5 M 80.5 401.5 L 84.5 401.5 M 80.5 385.5 L 84.5 385.5 M 80.5 368.5 L 84.5 368.5 M 80.5 352.5 L 84.5 352.5 M 80.5 335.5 L 84.5 335.5 M 80.5 319.5 L 84.5 319.5 M 80.5 302.5 L 84.5 302.5 M 80.5 286.5 L 84.5 286.5 M 80.5 270.5 L 84.5 270.5 M 80.5 253.5 L 84.5 253.5 M 80.5 237.5 L 84.5 237.5 M 80.5 220.5 L 84.5 220.5 M 80.5 204.5 L 84.5 204.5 M 80.5 187.5 L 84.5 187.5 M 80.5 171.5 L 84.5 171.5 M 80.5 154.5 L 84.5 154.5 M 80.5 138.5 L 84.5 138.5 M 80.5 121.5 L 84.5 121.5 M 80.5 105.5 L 84.5 105.5 M 80.5 88.5 L 84.5 88.5 M 80.5 72.5 L 84.5 72.5 M 80.5 55.5 L 84.5 55.5 M 80.5 39.5 L 84.5 39.5" stroke-opacity="1" stroke-linejoin="bevel" stroke-miterlimit="10" stroke-dasharray=""/><text fill="rgb(68,68,68)" stroke="none" font-family="Work Sans" font-size="15pt" font-style="normal" font-weight="normal" text-decoration="normal" x="63" y="539.5" text-anchor="start" dominant-baseline="alphabetic" transform="matrix(1, 0, 0, 1, 0.5, 0.5)" fill-opacity="1">0</text><text fill="rgb(68,68,68)" stroke="none" font-family="Work Sans" font-size="15pt" font-style="normal" font-weight="normal" text-decoration="normal" x="53" y="457.1666564941406" text-anchor="start" dominant-baseline="alphabetic" transform="matrix(1, 0, 0, 1, 0.5, 0.5)" fill-opacity="1">50</text><text fill="rgb(68,68,68)" stroke="none" font-family="Work Sans" font-size="15pt" font-style="normal" font-weight="normal" text-decoration="normal" x="43" y="374.8333435058594" text-anchor="start" dominant-baseline="alphabetic" transform="matrix(1, 0, 0, 1, 0.5, 0.5)" fill-opacity="1">100</text><text fill="rgb(68,68,68)" stroke="none" font-family="Work Sans" font-size="15pt" font-style="normal" font-weight="normal" text-decoration="normal" x="43" y="292.5" text-anchor="start" dominant-baseline="alphabetic" transform="matrix(1, 0, 0, 1, 0.5, 0.5)" fill-opacity="1">150</text><text fill="rgb(68,68,68)" stroke="none" font-family="Work Sans" font-size="15pt" font-style="normal" font-weight="normal" text-decoration="normal" x="43" y="210.1666717529297" text-anchor="start" dominant-baseline="alphabetic" transform="matrix(1, 0, 0, 1, 0.5, 0.5)" fill-opacity="1">200</text><text fill="rgb(68,68,68)" stroke="none" font-family="Work Sans" font-size="15pt" font-style="normal" font-weight="normal" text-decoration="normal" x="43" y="127.83333587646484" text-anchor="start" dominant-baseline="alphabetic" transform="matrix(1, 0, 0, 1, 0.5, 0.5)" fill-opacity="1">250</text><text fill="rgb(68,68,68)" stroke="none" font-family="Work Sans" font-size="15pt" font-style="normal" font-weight="normal" text-decoration="normal" x="43" y="45.5" text-anchor="start" dominant-baseline="alphabetic" transform="matrix(1, 0, 0, 1, 0.5, 0.5)" fill-opacity="1">300</text><text fill="rgb(68,68,68)" stroke="none" font-family="helvetica" font-size="15pt" font-style="normal" font-weight="normal" text-decoration="normal" x="-61.1474609375" y="282" text-anchor="start" dominant-baseline="alphabetic" transform="matrix(6.123233995736766e-17, -1, 1, 6.123233995736766e-17, -260.5, 311.5)" fill-opacity="1">Fluorescence (a.u.)</text><path fill="rgb(255,255,255)" stroke="none" paint-order="stroke" d="M 284.5 412.5 L 429.7344207763672 412.5 L 429.7344207763672 433.5 L 284.5 433.5 Z" fill-opacity="1" clip-path="url(#UKBchXTAPCTm)"/><text fill="rgb(68,68,68)" stroke="none" font-family="helvetica" font-size="14pt" font-style="normal" font-weight="normal" text-decoration="normal" x="284" y="429" text-anchor="start" dominant-baseline="alphabetic" clip-path="url(#UKBchXTAPCTm)" transform="matrix(1, 0, 0, 1, 0.5, 0.5)" fill-opacity="1">y= 4.65x + -12.07</text><text fill="rgb(68,68,68)" stroke="none" font-family="helvetica" font-size="18pt" font-style="normal" font-weight="bold" text-decoration="normal" x="14" y="29" text-anchor="start" dominant-baseline="alphabetic" transform="matrix(1, 0, 0, 1, 0.5, 0.5)" fill-opacity="1">A) MGapt Calibration: Ex/Em 610/650, Gain 150 </text></svg>