<svg version="1.1" xmlns="http://www.w3.org/2000/svg" width="400" height="250"><defs><clipPath id="kuwlThPwXsfd"><path fill="none" stroke="none" d="M 74.5 5.5 L 370.5 5.5 L 370.5 183.5 L 74.5 183.5 L 74.5 5.5"/></clipPath><clipPath id="tWgwhoqQuNDM"><path fill="none" stroke="none" d="M 74.5 5.5 L 370.5 5.5 L 370.5 183.5 L 74.5 183.5 L 74.5 5.5"/></clipPath><clipPath id="IHJoDRTJrwwE"><path fill="none" stroke="none" d="M 74.5 5.5 L 370.5 5.5 L 370.5 183.5 L 74.5 183.5 L 74.5 5.5"/></clipPath><clipPath id="LewntzFoARIl"><path fill="none" stroke="none" d="M 74.5 5.5 L 370.5 5.5 L 370.5 183.5 L 74.5 183.5 L 74.5 5.5"/></clipPath><clipPath id="mxVtpOXWJbEp"><path fill="none" stroke="none" d="M 74.5 5.5 L 370.5 5.5 L 370.5 183.5 L 74.5 183.5 L 74.5 5.5"/></clipPath><clipPath id="tsnqgHzGpzpB"><path fill="none" stroke="none" d="M 74.5 5.5 L 370.5 5.5 L 370.5 183.5 L 74.5 183.5 L 74.5 5.5"/></clipPath><clipPath id="BETaPnMRhlqh"><path fill="none" stroke="none" d="M 74.5 5.5 L 370.5 5.5 L 370.5 183.5 L 74.5 183.5 L 74.5 5.5"/></clipPath><clipPath id="yXkPyTSqEwVL"><path fill="none" stroke="none" d="M 74.5 5.5 L 370.5 5.5 L 370.5 183.5 L 74.5 183.5 L 74.5 5.5"/></clipPath><clipPath id="RlAzknaPhvZE"><path fill="none" stroke="none" d="M 74.5 5.5 L 370.5 5.5 L 370.5 183.5 L 74.5 183.5 L 74.5 5.5"/></clipPath><clipPath id="nTmkgkiIzpaE"><path fill="none" stroke="none" d="M 74.5 5.5 L 370.5 5.5 L 370.5 183.5 L 74.5 183.5 L 74.5 5.5"/></clipPath><clipPath id="rFcVoEPNDbxE"><path fill="none" stroke="none" d="M 74.5 5.5 L 370.5 5.5 L 370.5 183.5 L 74.5 183.5 L 74.5 5.5"/></clipPath></defs><path fill="rgb(255,255,255)" stroke="none" paint-order="stroke" d="M 0.5 0.5 L 400.5 0.5 L 400.5 250.5 L 0.5 250.5 L 0.5 0.5" fill-opacity="1"/><rect fill="#FFFFFF" stroke="none" x="74" y="5" width="296" height="178" transform="matrix(1, 0, 0, 1, 0.5, 0.5)"/><path fill="rgb(255,255,255)" stroke="none" paint-order="stroke" d="M 74.5 5.5 L 370.5 5.5 L 370.5 183.5 L 74.5 183.5 L 74.5 5.5" fill-opacity="1"/><path fill="rgb(0,0,128)" stroke="rgb(0,0,128)" paint-order="fill" d="M 77.16444396972656 183.5 A 2.5 2.5 0 1 1 77.16444271972667 183.49750000041666" fill-opacity="0.2" clip-path="url(#IHJoDRTJrwwE)" stroke-opacity="1" stroke-linejoin="bevel" stroke-miterlimit="10" stroke-dasharray=""/><path fill="rgb(0,0,128)" stroke="rgb(0,0,128)" paint-order="fill" d="M 82.0977783203125 181.1319580078125 A 2.5 2.5 0 1 1 82.0977770703126 181.12945800822916" fill-opacity="0.2" clip-path="url(#IHJoDRTJrwwE)" stroke-opacity="1" stroke-linejoin="bevel" stroke-miterlimit="10" stroke-dasharray=""/><path fill="rgb(0,0,128)" stroke="rgb(0,0,128)" paint-order="fill" d="M 87.03111267089844 178.7179412841797 A 2.5 2.5 0 1 1 87.03111142089854 178.71544128459635" fill-opacity="0.2" clip-path="url(#IHJoDRTJrwwE)" stroke-opacity="1" stroke-linejoin="bevel" stroke-miterlimit="10" stroke-dasharray=""/><path fill="rgb(0,0,128)" stroke="rgb(0,0,128)" paint-order="fill" d="M 91.96444702148438 175.7153778076172 A 2.5 2.5 0 1 1 91.96444577148448 175.71287780803385" fill-opacity="0.2" clip-path="url(#IHJoDRTJrwwE)" stroke-opacity="1" stroke-linejoin="bevel" stroke-miterlimit="10" stroke-dasharray=""/><path fill="rgb(0,0,128)" stroke="rgb(0,0,128)" paint-order="fill" d="M 96.89778137207031 173.1586456298828 A 2.5 2.5 0 1 1 96.89778012207042 173.15614563029948" fill-opacity="0.2" clip-path="url(#IHJoDRTJrwwE)" stroke-opacity="1" stroke-linejoin="bevel" stroke-miterlimit="10" stroke-dasharray=""/><path fill="rgb(0,0,128)" stroke="rgb(0,0,128)" paint-order="fill" d="M 101.83110809326172 168.15426635742188 A 2.5 2.5 0 1 1 101.83110684326182 168.15176635783854" fill-opacity="0.2" clip-path="url(#IHJoDRTJrwwE)" stroke-opacity="1" stroke-linejoin="bevel" stroke-miterlimit="10" stroke-dasharray=""/><path fill="rgb(0,0,128)" stroke="rgb(0,0,128)" paint-order="fill" d="M 106.76444244384766 162.87425231933594 A 2.5 2.5 0 1 1 106.76444119384776 162.8717523197526" fill-opacity="0.2" clip-path="url(#IHJoDRTJrwwE)" stroke-opacity="1" stroke-linejoin="bevel" stroke-miterlimit="10" stroke-dasharray=""/><path fill="rgb(0,0,128)" stroke="rgb(0,0,128)" paint-order="fill" d="M 111.6977767944336 157.9420166015625 A 2.5 2.5 0 1 1 111.6977755444337 157.93951660197916" fill-opacity="0.2" clip-path="url(#IHJoDRTJrwwE)" stroke-opacity="1" stroke-linejoin="bevel" stroke-miterlimit="10" stroke-dasharray=""/><path fill="rgb(0,0,128)" stroke="rgb(0,0,128)" paint-order="fill" d="M 116.63111114501953 153.59300231933594 A 2.5 2.5 0 1 1 116.63110989501963 153.5905023197526" fill-opacity="0.2" clip-path="url(#IHJoDRTJrwwE)" stroke-opacity="1" stroke-linejoin="bevel" stroke-miterlimit="10" stroke-dasharray=""/><path fill="rgb(0,0,128)" stroke="rgb(0,0,128)" paint-order="fill" d="M 121.56444549560547 146.9593505859375 A 2.5 2.5 0 1 1 121.56444424560557 146.95685058635416" fill-opacity="0.2" clip-path="url(#IHJoDRTJrwwE)" stroke-opacity="1" stroke-linejoin="bevel" stroke-miterlimit="10" stroke-dasharray=""/><path fill="rgb(0,0,128)" stroke="rgb(0,0,128)" paint-order="fill" d="M 126.4977798461914 142.33184814453125 A 2.5 2.5 0 1 1 126.49777859619151 142.32934814494791" fill-opacity="0.2" clip-path="url(#IHJoDRTJrwwE)" stroke-opacity="1" stroke-linejoin="bevel" stroke-miterlimit="10" stroke-dasharray=""/><path fill="rgb(0,0,128)" stroke="rgb(0,0,128)" paint-order="fill" d="M 131.4311065673828 142.3936004638672 A 2.5 2.5 0 1 1 131.43110531738293 142.39110046428385" fill-opacity="0.2" clip-path="url(#IHJoDRTJrwwE)" stroke-opacity="1" stroke-linejoin="bevel" stroke-miterlimit="10" stroke-dasharray=""/><path fill="rgb(0,0,128)" stroke="rgb(0,0,128)" paint-order="fill" d="M 136.36444091796875 135.61297607421875 A 2.5 2.5 0 1 1 136.36443966796887 135.61047607463541" fill-opacity="0.2" clip-path="url(#IHJoDRTJrwwE)" stroke-opacity="1" stroke-linejoin="bevel" stroke-miterlimit="10" stroke-dasharray=""/><path fill="rgb(0,0,128)" stroke="rgb(0,0,128)" paint-order="fill" d="M 141.2977752685547 133.92977905273438 A 2.5 2.5 0 1 1 141.2977740185548 133.92727905315104" fill-opacity="0.2" clip-path="url(#IHJoDRTJrwwE)" stroke-opacity="1" stroke-linejoin="bevel" stroke-miterlimit="10" stroke-dasharray=""/><path fill="rgb(0,0,128)" stroke="rgb(0,0,128)" paint-order="fill" d="M 146.23110961914062 130.97341918945312 A 2.5 2.5 0 1 1 146.23110836914074 130.9709191898698" fill-opacity="0.2" clip-path="url(#IHJoDRTJrwwE)" stroke-opacity="1" stroke-linejoin="bevel" stroke-miterlimit="10" stroke-dasharray=""/><path fill="rgb(0,0,128)" stroke="rgb(0,0,128)" paint-order="fill" d="M 151.16444396972656 129.75408935546875 A 2.5 2.5 0 1 1 151.16444271972668 129.75158935588541" fill-opacity="0.2" clip-path="url(#IHJoDRTJrwwE)" stroke-opacity="1" stroke-linejoin="bevel" stroke-miterlimit="10" stroke-dasharray=""/><path fill="rgb(0,0,128)" stroke="rgb(0,0,128)" paint-order="fill" d="M 156.0977783203125 130.13404846191406 A 2.5 2.5 0 1 1 156.09777707031262 130.13154846233073" fill-opacity="0.2" clip-path="url(#IHJoDRTJrwwE)" stroke-opacity="1" stroke-linejoin="bevel" stroke-miterlimit="10" stroke-dasharray=""/><path fill="rgb(0,0,128)" stroke="rgb(0,0,128)" paint-order="fill" d="M 161.03111267089844 126.67449951171875 A 2.5 2.5 0 1 1 161.03111142089855 126.67199951213541" fill-opacity="0.2" clip-path="url(#IHJoDRTJrwwE)" stroke-opacity="1" stroke-linejoin="bevel" stroke-miterlimit="10" stroke-dasharray=""/><path fill="rgb(0,0,128)" stroke="rgb(0,0,128)" paint-order="fill" d="M 165.96444702148438 123.44837188720703 A 2.5 2.5 0 1 1 165.9644457714845 123.4458718876237" fill-opacity="0.2" clip-path="url(#IHJoDRTJrwwE)" stroke-opacity="1" stroke-linejoin="bevel" stroke-miterlimit="10" stroke-dasharray=""/><path fill="rgb(0,0,128)" stroke="rgb(0,0,128)" paint-order="fill" d="M 170.8977813720703 122.75386810302734 A 2.5 2.5 0 1 1 170.89778012207043 122.75136810344401" fill-opacity="0.2" clip-path="url(#IHJoDRTJrwwE)" stroke-opacity="1" stroke-linejoin="bevel" stroke-miterlimit="10" stroke-dasharray=""/><path fill="rgb(0,0,128)" stroke="rgb(0,0,128)" paint-order="fill" d="M 175.83111572265625 122.54008483886719 A 2.5 2.5 0 1 1 175.83111447265637 122.53758483928385" fill-opacity="0.2" clip-path="url(#IHJoDRTJrwwE)" stroke-opacity="1" stroke-linejoin="bevel" stroke-miterlimit="10" stroke-dasharray=""/><path fill="rgb(0,0,128)" stroke="rgb(0,0,128)" paint-order="fill" d="M 180.7644500732422 119.61359405517578 A 2.5 2.5 0 1 1 180.7644488232423 119.61109405559245" fill-opacity="0.2" clip-path="url(#IHJoDRTJrwwE)" stroke-opacity="1" stroke-linejoin="bevel" stroke-miterlimit="10" stroke-dasharray=""/><path fill="rgb(0,0,128)" stroke="rgb(0,0,128)" paint-order="fill" d="M 185.69778442382812 115.22163391113281 A 2.5 2.5 0 1 1 185.69778317382824 115.21913391154948" fill-opacity="0.2" clip-path="url(#IHJoDRTJrwwE)" stroke-opacity="1" stroke-linejoin="bevel" stroke-miterlimit="10" stroke-dasharray=""/><path fill="rgb(0,0,128)" stroke="rgb(0,0,128)" paint-order="fill" d="M 190.631103515625 108.93075561523438 A 2.5 2.5 0 1 1 190.63110226562512 108.92825561565104" fill-opacity="0.2" clip-path="url(#IHJoDRTJrwwE)" stroke-opacity="1" stroke-linejoin="bevel" stroke-miterlimit="10" stroke-dasharray=""/><path fill="rgb(0,0,128)" stroke="rgb(0,0,128)" paint-order="fill" d="M 195.56443786621094 109.10490417480469 A 2.5 2.5 0 1 1 195.56443661621105 109.10240417522135" fill-opacity="0.2" clip-path="url(#IHJoDRTJrwwE)" stroke-opacity="1" stroke-linejoin="bevel" stroke-miterlimit="10" stroke-dasharray=""/><path fill="rgb(0,0,128)" stroke="rgb(0,0,128)" paint-order="fill" d="M 200.49777221679688 105.13951873779297 A 2.5 2.5 0 1 1 200.497770966797 105.13701873820963" fill-opacity="0.2" clip-path="url(#IHJoDRTJrwwE)" stroke-opacity="1" stroke-linejoin="bevel" stroke-miterlimit="10" stroke-dasharray=""/><path fill="rgb(0,0,128)" stroke="rgb(0,0,128)" paint-order="fill" d="M 205.4311065673828 91.99244689941406 A 2.5 2.5 0 1 1 205.43110531738293 91.98994689983073" fill-opacity="0.2" clip-path="url(#IHJoDRTJrwwE)" stroke-opacity="1" stroke-linejoin="bevel" stroke-miterlimit="10" stroke-dasharray=""/><path fill="rgb(0,0,128)" stroke="rgb(0,0,128)" paint-order="fill" d="M 210.36444091796875 91.38345336914062 A 2.5 2.5 0 1 1 210.36443966796887 91.38095336955729" fill-opacity="0.2" clip-path="url(#IHJoDRTJrwwE)" stroke-opacity="1" stroke-linejoin="bevel" stroke-miterlimit="10" stroke-dasharray=""/><path fill="rgb(0,0,128)" stroke="rgb(0,0,128)" paint-order="fill" d="M 215.2977752685547 89.11566925048828 A 2.5 2.5 0 1 1 215.2977740185548 89.11316925090495" fill-opacity="0.2" clip-path="url(#IHJoDRTJrwwE)" stroke-opacity="1" stroke-linejoin="bevel" stroke-miterlimit="10" stroke-dasharray=""/><path fill="rgb(0,0,128)" stroke="rgb(0,0,128)" paint-order="fill" d="M 220.23110961914062 90.52767181396484 A 2.5 2.5 0 1 1 220.23110836914074 90.52517181438151" fill-opacity="0.2" clip-path="url(#IHJoDRTJrwwE)" stroke-opacity="1" stroke-linejoin="bevel" stroke-miterlimit="10" stroke-dasharray=""/><path fill="rgb(0,0,128)" stroke="rgb(0,0,128)" paint-order="fill" d="M 225.16444396972656 85.00580596923828 A 2.5 2.5 0 1 1 225.16444271972668 85.00330596965495" fill-opacity="0.2" clip-path="url(#IHJoDRTJrwwE)" stroke-opacity="1" stroke-linejoin="bevel" stroke-miterlimit="10" stroke-dasharray=""/><path fill="rgb(0,0,128)" stroke="rgb(0,0,128)" paint-order="fill" d="M 230.0977783203125 77.97777557373047 A 2.5 2.5 0 1 1 230.09777707031262 77.97527557414713" fill-opacity="0.2" clip-path="url(#IHJoDRTJrwwE)" stroke-opacity="1" stroke-linejoin="bevel" stroke-miterlimit="10" stroke-dasharray=""/><path fill="rgb(0,0,128)" stroke="rgb(0,0,128)" paint-order="fill" d="M 235.03111267089844 82.20291137695312 A 2.5 2.5 0 1 1 235.03111142089855 82.20041137736979" fill-opacity="0.2" clip-path="url(#IHJoDRTJrwwE)" stroke-opacity="1" stroke-linejoin="bevel" stroke-miterlimit="10" stroke-dasharray=""/><path fill="rgb(0,0,128)" stroke="rgb(0,0,128)" paint-order="fill" d="M 239.96444702148438 77.54801177978516 A 2.5 2.5 0 1 1 239.9644457714845 77.54551178020182" fill-opacity="0.2" clip-path="url(#IHJoDRTJrwwE)" stroke-opacity="1" stroke-linejoin="bevel" stroke-miterlimit="10" stroke-dasharray=""/><path fill="rgb(0,0,128)" stroke="rgb(0,0,128)" paint-order="fill" d="M 244.8977813720703 74.4653091430664 A 2.5 2.5 0 1 1 244.89778012207043 74.46280914348307" fill-opacity="0.2" clip-path="url(#IHJoDRTJrwwE)" stroke-opacity="1" stroke-linejoin="bevel" stroke-miterlimit="10" stroke-dasharray=""/><path fill="rgb(0,0,128)" stroke="rgb(0,0,128)" paint-order="fill" d="M 249.83111572265625 75.34294128417969 A 2.5 2.5 0 1 1 249.83111447265637 75.34044128459635" fill-opacity="0.2" clip-path="url(#IHJoDRTJrwwE)" stroke-opacity="1" stroke-linejoin="bevel" stroke-miterlimit="10" stroke-dasharray=""/><path fill="rgb(0,0,128)" stroke="rgb(0,0,128)" paint-order="fill" d="M 254.7644500732422 75.75831604003906 A 2.5 2.5 0 1 1 254.7644488232423 75.75581604045573" fill-opacity="0.2" clip-path="url(#IHJoDRTJrwwE)" stroke-opacity="1" stroke-linejoin="bevel" stroke-miterlimit="10" stroke-dasharray=""/><path fill="rgb(0,0,128)" stroke="rgb(0,0,128)" paint-order="fill" d="M 259.6977844238281 70.5361099243164 A 2.5 2.5 0 1 1 259.6977831738282 70.53360992473307" fill-opacity="0.2" clip-path="url(#IHJoDRTJrwwE)" stroke-opacity="1" stroke-linejoin="bevel" stroke-miterlimit="10" stroke-dasharray=""/><path fill="rgb(0,0,128)" stroke="rgb(0,0,128)" paint-order="fill" d="M 264.631103515625 64.1838607788086 A 2.5 2.5 0 1 1 264.6311022656251 64.18136077922526" fill-opacity="0.2" clip-path="url(#IHJoDRTJrwwE)" stroke-opacity="1" stroke-linejoin="bevel" stroke-miterlimit="10" stroke-dasharray=""/><path fill="rgb(0,0,128)" stroke="rgb(0,0,128)" paint-order="fill" d="M 269.564453125 64.50325012207031 A 2.5 2.5 0 1 1 269.5644518750001 64.50075012248698" fill-opacity="0.2" clip-path="url(#IHJoDRTJrwwE)" stroke-opacity="1" stroke-linejoin="bevel" stroke-miterlimit="10" stroke-dasharray=""/><path fill="rgb(0,0,128)" stroke="rgb(0,0,128)" paint-order="fill" d="M 274.4977722167969 61.33713912963867 A 2.5 2.5 0 1 1 274.49777096679696 61.334639130055336" fill-opacity="0.2" clip-path="url(#IHJoDRTJrwwE)" stroke-opacity="1" stroke-linejoin="bevel" stroke-miterlimit="10" stroke-dasharray=""/><path fill="rgb(0,0,128)" stroke="rgb(0,0,128)" paint-order="fill" d="M 279.4311218261719 55.58282470703125 A 2.5 2.5 0 1 1 279.43112057617196 55.580324707447915" fill-opacity="0.2" clip-path="url(#IHJoDRTJrwwE)" stroke-opacity="1" stroke-linejoin="bevel" stroke-miterlimit="10" stroke-dasharray=""/><path fill="rgb(0,0,128)" stroke="rgb(0,0,128)" paint-order="fill" d="M 284.36444091796875 56.295806884765625 A 2.5 2.5 0 1 1 284.36443966796884 56.29330688518229" fill-opacity="0.2" clip-path="url(#IHJoDRTJrwwE)" stroke-opacity="1" stroke-linejoin="bevel" stroke-miterlimit="10" stroke-dasharray=""/><path fill="rgb(0,0,128)" stroke="rgb(0,0,128)" paint-order="fill" d="M 289.29779052734375 51.95329666137695 A 2.5 2.5 0 1 1 289.29778927734384 51.95079666179362" fill-opacity="0.2" clip-path="url(#IHJoDRTJrwwE)" stroke-opacity="1" stroke-linejoin="bevel" stroke-miterlimit="10" stroke-dasharray=""/><path fill="rgb(0,0,128)" stroke="rgb(0,0,128)" paint-order="fill" d="M 294.2311096191406 49.33028793334961 A 2.5 2.5 0 1 1 294.2311083691407 49.327787933766274" fill-opacity="0.2" clip-path="url(#IHJoDRTJrwwE)" stroke-opacity="1" stroke-linejoin="bevel" stroke-miterlimit="10" stroke-dasharray=""/><path fill="rgb(0,0,128)" stroke="rgb(0,0,128)" paint-order="fill" d="M 299.1644592285156 46.124595642089844 A 2.5 2.5 0 1 1 299.1644579785157 46.12209564250651" fill-opacity="0.2" clip-path="url(#IHJoDRTJrwwE)" stroke-opacity="1" stroke-linejoin="bevel" stroke-miterlimit="10" stroke-dasharray=""/><path fill="rgb(0,0,128)" stroke="rgb(0,0,128)" paint-order="fill" d="M 304.0977783203125 49.64967346191406 A 2.5 2.5 0 1 1 304.0977770703126 49.64717346233073" fill-opacity="0.2" clip-path="url(#IHJoDRTJrwwE)" stroke-opacity="1" stroke-linejoin="bevel" stroke-miterlimit="10" stroke-dasharray=""/><path fill="rgb(0,0,128)" stroke="rgb(0,0,128)" paint-order="fill" d="M 309.0310974121094 56.47016906738281 A 2.5 2.5 0 1 1 309.03109616210946 56.46766906779948" fill-opacity="0.2" clip-path="url(#IHJoDRTJrwwE)" stroke-opacity="1" stroke-linejoin="bevel" stroke-miterlimit="10" stroke-dasharray=""/><path fill="rgb(0,0,128)" stroke="rgb(0,0,128)" paint-order="fill" d="M 313.9644470214844 51.328670501708984 A 2.5 2.5 0 1 1 313.96444577148446 51.32617050212565" fill-opacity="0.2" clip-path="url(#IHJoDRTJrwwE)" stroke-opacity="1" stroke-linejoin="bevel" stroke-miterlimit="10" stroke-dasharray=""/><path fill="rgb(0,0,128)" stroke="rgb(0,0,128)" paint-order="fill" d="M 318.89776611328125 53.953147888183594 A 2.5 2.5 0 1 1 318.89776486328134 53.95064788860026" fill-opacity="0.2" clip-path="url(#IHJoDRTJrwwE)" stroke-opacity="1" stroke-linejoin="bevel" stroke-miterlimit="10" stroke-dasharray=""/><path fill="rgb(0,0,128)" stroke="rgb(0,0,128)" paint-order="fill" d="M 323.83111572265625 54.95030212402344 A 2.5 2.5 0 1 1 323.83111447265634 54.9478021244401" fill-opacity="0.2" clip-path="url(#IHJoDRTJrwwE)" stroke-opacity="1" stroke-linejoin="bevel" stroke-miterlimit="10" stroke-dasharray=""/><path fill="rgb(0,0,128)" stroke="rgb(0,0,128)" paint-order="fill" d="M 328.7644348144531 54.12767028808594 A 2.5 2.5 0 1 1 328.7644335644532 54.1251702885026" fill-opacity="0.2" clip-path="url(#IHJoDRTJrwwE)" stroke-opacity="1" stroke-linejoin="bevel" stroke-miterlimit="10" stroke-dasharray=""/><path fill="rgb(0,0,128)" stroke="rgb(0,0,128)" paint-order="fill" d="M 333.6977844238281 55.358699798583984 A 2.5 2.5 0 1 1 333.6977831738282 55.35619979900065" fill-opacity="0.2" clip-path="url(#IHJoDRTJrwwE)" stroke-opacity="1" stroke-linejoin="bevel" stroke-miterlimit="10" stroke-dasharray=""/><path fill="rgb(0,0,128)" stroke="rgb(0,0,128)" paint-order="fill" d="M 338.631103515625 58.280548095703125 A 2.5 2.5 0 1 1 338.6311022656251 58.27804809611979" fill-opacity="0.2" clip-path="url(#IHJoDRTJrwwE)" stroke-opacity="1" stroke-linejoin="bevel" stroke-miterlimit="10" stroke-dasharray=""/><path fill="rgb(0,0,128)" stroke="rgb(0,0,128)" paint-order="fill" d="M 343.564453125 55.32158660888672 A 2.5 2.5 0 1 1 343.5644518750001 55.31908660930338" fill-opacity="0.2" clip-path="url(#IHJoDRTJrwwE)" stroke-opacity="1" stroke-linejoin="bevel" stroke-miterlimit="10" stroke-dasharray=""/><path fill="rgb(0,0,128)" stroke="rgb(0,0,128)" paint-order="fill" d="M 348.4977722167969 58.051483154296875 A 2.5 2.5 0 1 1 348.49777096679696 58.04898315471354" fill-opacity="0.2" clip-path="url(#IHJoDRTJrwwE)" stroke-opacity="1" stroke-linejoin="bevel" stroke-miterlimit="10" stroke-dasharray=""/><path fill="rgb(0,0,128)" stroke="rgb(0,0,128)" paint-order="fill" d="M 353.4311218261719 55.634918212890625 A 2.5 2.5 0 1 1 353.43112057617196 55.63241821330729" fill-opacity="0.2" clip-path="url(#IHJoDRTJrwwE)" stroke-opacity="1" stroke-linejoin="bevel" stroke-miterlimit="10" stroke-dasharray=""/><path fill="rgb(0,0,128)" stroke="rgb(0,0,128)" paint-order="fill" d="M 358.36444091796875 58.291831970214844 A 2.5 2.5 0 1 1 358.36443966796884 58.28933197063151" fill-opacity="0.2" clip-path="url(#IHJoDRTJrwwE)" stroke-opacity="1" stroke-linejoin="bevel" stroke-miterlimit="10" stroke-dasharray=""/><path fill="rgb(0,0,128)" stroke="rgb(0,0,128)" paint-order="fill" d="M 363.29779052734375 58.435630798339844 A 2.5 2.5 0 1 1 363.29778927734384 58.43313079875651" fill-opacity="0.2" clip-path="url(#IHJoDRTJrwwE)" stroke-opacity="1" stroke-linejoin="bevel" stroke-miterlimit="10" stroke-dasharray=""/><path fill="rgb(0,0,128)" stroke="rgb(0,0,128)" paint-order="fill" d="M 368.2311096191406 57.23155975341797 A 2.5 2.5 0 1 1 368.2311083691407 57.22905975383463" fill-opacity="0.2" clip-path="url(#IHJoDRTJrwwE)" stroke-opacity="1" stroke-linejoin="bevel" stroke-miterlimit="10" stroke-dasharray=""/><path fill="none" stroke="rgb(0,0,128)" paint-order="fill" d="M 74.66444396972656 183.71563720703125 L 74.66444396972656 183.28436279296875" stroke-opacity="1" stroke-linejoin="bevel" stroke-miterlimit="10" stroke-dasharray="" clip-path="url(#LewntzFoARIl)"/><path fill="none" stroke="rgb(0,0,128)" paint-order="fill" d="M 79.5977783203125 181.27027893066406 L 79.5977783203125 180.99365234375" stroke-opacity="1" stroke-linejoin="bevel" stroke-miterlimit="10" stroke-dasharray="" clip-path="url(#LewntzFoARIl)"/><path fill="none" stroke="rgb(0,0,128)" paint-order="fill" d="M 84.53111267089844 178.75674438476562 L 84.53111267089844 178.67913818359375" stroke-opacity="1" stroke-linejoin="bevel" stroke-miterlimit="10" stroke-dasharray="" clip-path="url(#LewntzFoARIl)"/><path fill="none" stroke="rgb(0,0,128)" paint-order="fill" d="M 89.46444702148438 176.46292114257812 L 89.46444702148438 174.9678497314453" stroke-opacity="1" stroke-linejoin="bevel" stroke-miterlimit="10" stroke-dasharray="" clip-path="url(#LewntzFoARIl)"/><path fill="none" stroke="rgb(0,0,128)" paint-order="fill" d="M 94.39778137207031 173.89955139160156 L 94.39778137207031 172.417724609375" stroke-opacity="1" stroke-linejoin="bevel" stroke-miterlimit="10" stroke-dasharray="" clip-path="url(#LewntzFoARIl)"/><path fill="none" stroke="rgb(0,0,128)" paint-order="fill" d="M 99.33110809326172 168.54885864257812 L 99.33110809326172 167.7596893310547" stroke-opacity="1" stroke-linejoin="bevel" stroke-miterlimit="10" stroke-dasharray="" clip-path="url(#LewntzFoARIl)"/><path fill="none" stroke="rgb(0,0,128)" paint-order="fill" d="M 104.26444244384766 163.01748657226562 L 104.26444244384766 162.73101806640625" stroke-opacity="1" stroke-linejoin="bevel" stroke-miterlimit="10" stroke-dasharray="" clip-path="url(#LewntzFoARIl)"/><path fill="none" stroke="rgb(0,0,128)" paint-order="fill" d="M 109.1977767944336 158.87213134765625 L 109.1977767944336 157.0119171142578" stroke-opacity="1" stroke-linejoin="bevel" stroke-miterlimit="10" stroke-dasharray="" clip-path="url(#LewntzFoARIl)"/><path fill="none" stroke="rgb(0,0,128)" paint-order="fill" d="M 114.13111114501953 154.03277587890625 L 114.13111114501953 153.1532440185547" stroke-opacity="1" stroke-linejoin="bevel" stroke-miterlimit="10" stroke-dasharray="" clip-path="url(#LewntzFoARIl)"/><path fill="none" stroke="rgb(0,0,128)" paint-order="fill" d="M 119.06444549560547 147.49380493164062 L 119.06444549560547 146.42489624023438" stroke-opacity="1" stroke-linejoin="bevel" stroke-miterlimit="10" stroke-dasharray="" clip-path="url(#LewntzFoARIl)"/><path fill="none" stroke="rgb(0,0,128)" paint-order="fill" d="M 123.9977798461914 144.3944549560547 L 123.9977798461914 140.2692413330078" stroke-opacity="1" stroke-linejoin="bevel" stroke-miterlimit="10" stroke-dasharray="" clip-path="url(#LewntzFoARIl)"/><path fill="none" stroke="rgb(0,0,128)" paint-order="fill" d="M 128.9311065673828 143.09201049804688 L 128.9311065673828 141.6951904296875" stroke-opacity="1" stroke-linejoin="bevel" stroke-miterlimit="10" stroke-dasharray="" clip-path="url(#LewntzFoARIl)"/><path fill="none" stroke="rgb(0,0,128)" paint-order="fill" d="M 133.86444091796875 138.3673095703125 L 133.86444091796875 132.858642578125" stroke-opacity="1" stroke-linejoin="bevel" stroke-miterlimit="10" stroke-dasharray="" clip-path="url(#LewntzFoARIl)"/><path fill="none" stroke="rgb(0,0,128)" paint-order="fill" d="M 138.7977752685547 135.03433227539062 L 138.7977752685547 132.82521057128906" stroke-opacity="1" stroke-linejoin="bevel" stroke-miterlimit="10" stroke-dasharray="" clip-path="url(#LewntzFoARIl)"/><path fill="none" stroke="rgb(0,0,128)" paint-order="fill" d="M 143.73110961914062 131.762451171875 L 143.73110961914062 130.1843719482422" stroke-opacity="1" stroke-linejoin="bevel" stroke-miterlimit="10" stroke-dasharray="" clip-path="url(#LewntzFoARIl)"/><path fill="none" stroke="rgb(0,0,128)" paint-order="fill" d="M 148.66444396972656 131.262939453125 L 148.66444396972656 128.24524688720703" stroke-opacity="1" stroke-linejoin="bevel" stroke-miterlimit="10" stroke-dasharray="" clip-path="url(#LewntzFoARIl)"/><path fill="none" stroke="rgb(0,0,128)" paint-order="fill" d="M 153.5977783203125 132.0046844482422 L 153.5977783203125 128.26342010498047" stroke-opacity="1" stroke-linejoin="bevel" stroke-miterlimit="10" stroke-dasharray="" clip-path="url(#LewntzFoARIl)"/><path fill="none" stroke="rgb(0,0,128)" paint-order="fill" d="M 158.53111267089844 128.5421142578125 L 158.53111267089844 124.80689239501953" stroke-opacity="1" stroke-linejoin="bevel" stroke-miterlimit="10" stroke-dasharray="" clip-path="url(#LewntzFoARIl)"/><path fill="none" stroke="rgb(0,0,128)" paint-order="fill" d="M 163.46444702148438 124.4014663696289 L 163.46444702148438 122.49526977539062" stroke-opacity="1" stroke-linejoin="bevel" stroke-miterlimit="10" stroke-dasharray="" clip-path="url(#LewntzFoARIl)"/><path fill="none" stroke="rgb(0,0,128)" paint-order="fill" d="M 168.3977813720703 124.40703582763672 L 168.3977813720703 121.10069274902344" stroke-opacity="1" stroke-linejoin="bevel" stroke-miterlimit="10" stroke-dasharray="" clip-path="url(#LewntzFoARIl)"/><path fill="none" stroke="rgb(0,0,128)" paint-order="fill" d="M 173.33111572265625 124.6919937133789 L 173.33111572265625 120.38817596435547" stroke-opacity="1" stroke-linejoin="bevel" stroke-miterlimit="10" stroke-dasharray="" clip-path="url(#LewntzFoARIl)"/><path fill="none" stroke="rgb(0,0,128)" paint-order="fill" d="M 178.2644500732422 120.88749694824219 L 178.2644500732422 118.33968353271484" stroke-opacity="1" stroke-linejoin="bevel" stroke-miterlimit="10" stroke-dasharray="" clip-path="url(#LewntzFoARIl)"/><path fill="none" stroke="rgb(0,0,128)" paint-order="fill" d="M 183.19778442382812 117.43228149414062 L 183.19778442382812 113.01097869873047" stroke-opacity="1" stroke-linejoin="bevel" stroke-miterlimit="10" stroke-dasharray="" clip-path="url(#LewntzFoARIl)"/><path fill="none" stroke="rgb(0,0,128)" paint-order="fill" d="M 188.131103515625 111.21965789794922 L 188.131103515625 106.64185333251953" stroke-opacity="1" stroke-linejoin="bevel" stroke-miterlimit="10" stroke-dasharray="" clip-path="url(#LewntzFoARIl)"/><path fill="none" stroke="rgb(0,0,128)" paint-order="fill" d="M 193.06443786621094 109.83320617675781 L 193.06443786621094 108.37660217285156" stroke-opacity="1" stroke-linejoin="bevel" stroke-miterlimit="10" stroke-dasharray="" clip-path="url(#LewntzFoARIl)"/><path fill="none" stroke="rgb(0,0,128)" paint-order="fill" d="M 197.99777221679688 107.48697662353516 L 197.99777221679688 102.79206848144531" stroke-opacity="1" stroke-linejoin="bevel" stroke-miterlimit="10" stroke-dasharray="" clip-path="url(#LewntzFoARIl)"/><path fill="none" stroke="rgb(0,0,128)" paint-order="fill" d="M 202.9311065673828 92.9250717163086 L 202.9311065673828 91.05982208251953" stroke-opacity="1" stroke-linejoin="bevel" stroke-miterlimit="10" stroke-dasharray="" clip-path="url(#LewntzFoARIl)"/><path fill="none" stroke="rgb(0,0,128)" paint-order="fill" d="M 207.86444091796875 93.89607238769531 L 207.86444091796875 88.87083435058594" stroke-opacity="1" stroke-linejoin="bevel" stroke-miterlimit="10" stroke-dasharray="" clip-path="url(#LewntzFoARIl)"/><path fill="none" stroke="rgb(0,0,128)" paint-order="fill" d="M 212.7977752685547 90.15168762207031 L 212.7977752685547 88.07965087890625" stroke-opacity="1" stroke-linejoin="bevel" stroke-miterlimit="10" stroke-dasharray="" clip-path="url(#LewntzFoARIl)"/><path fill="none" stroke="rgb(0,0,128)" paint-order="fill" d="M 217.73110961914062 91.6111831665039 L 217.73110961914062 89.44416046142578" stroke-opacity="1" stroke-linejoin="bevel" stroke-miterlimit="10" stroke-dasharray="" clip-path="url(#LewntzFoARIl)"/><path fill="none" stroke="rgb(0,0,128)" paint-order="fill" d="M 222.66444396972656 88.30268859863281 L 222.66444396972656 81.70892333984375" stroke-opacity="1" stroke-linejoin="bevel" stroke-miterlimit="10" stroke-dasharray="" clip-path="url(#LewntzFoARIl)"/><path fill="none" stroke="rgb(0,0,128)" paint-order="fill" d="M 227.5977783203125 80.19070434570312 L 227.5977783203125 75.76485443115234" stroke-opacity="1" stroke-linejoin="bevel" stroke-miterlimit="10" stroke-dasharray="" clip-path="url(#LewntzFoARIl)"/><path fill="none" stroke="rgb(0,0,128)" paint-order="fill" d="M 232.53111267089844 87.08615112304688 L 232.53111267089844 77.3196792602539" stroke-opacity="1" stroke-linejoin="bevel" stroke-miterlimit="10" stroke-dasharray="" clip-path="url(#LewntzFoARIl)"/><path fill="none" stroke="rgb(0,0,128)" paint-order="fill" d="M 237.46444702148438 80.5899429321289 L 237.46444702148438 74.5060806274414" stroke-opacity="1" stroke-linejoin="bevel" stroke-miterlimit="10" stroke-dasharray="" clip-path="url(#LewntzFoARIl)"/><path fill="none" stroke="rgb(0,0,128)" paint-order="fill" d="M 242.3977813720703 76.58259582519531 L 242.3977813720703 72.3480224609375" stroke-opacity="1" stroke-linejoin="bevel" stroke-miterlimit="10" stroke-dasharray="" clip-path="url(#LewntzFoARIl)"/><path fill="none" stroke="rgb(0,0,128)" paint-order="fill" d="M 247.33111572265625 77.72266387939453 L 247.33111572265625 72.96322631835938" stroke-opacity="1" stroke-linejoin="bevel" stroke-miterlimit="10" stroke-dasharray="" clip-path="url(#LewntzFoARIl)"/><path fill="none" stroke="rgb(0,0,128)" paint-order="fill" d="M 252.2644500732422 80.2761459350586 L 252.2644500732422 71.24048614501953" stroke-opacity="1" stroke-linejoin="bevel" stroke-miterlimit="10" stroke-dasharray="" clip-path="url(#LewntzFoARIl)"/><path fill="none" stroke="rgb(0,0,128)" paint-order="fill" d="M 257.1977844238281 74.49972534179688 L 257.1977844238281 66.57249450683594" stroke-opacity="1" stroke-linejoin="bevel" stroke-miterlimit="10" stroke-dasharray="" clip-path="url(#LewntzFoARIl)"/><path fill="none" stroke="rgb(0,0,128)" paint-order="fill" d="M 262.131103515625 67.27864074707031 L 262.131103515625 61.08907699584961" stroke-opacity="1" stroke-linejoin="bevel" stroke-miterlimit="10" stroke-dasharray="" clip-path="url(#LewntzFoARIl)"/><path fill="none" stroke="rgb(0,0,128)" paint-order="fill" d="M 267.064453125 68.91668701171875 L 267.064453125 60.08981704711914" stroke-opacity="1" stroke-linejoin="bevel" stroke-miterlimit="10" stroke-dasharray="" clip-path="url(#LewntzFoARIl)"/><path fill="none" stroke="rgb(0,0,128)" paint-order="fill" d="M 271.9977722167969 64.14396286010742 L 271.9977722167969 58.53031921386719" stroke-opacity="1" stroke-linejoin="bevel" stroke-miterlimit="10" stroke-dasharray="" clip-path="url(#LewntzFoARIl)"/><path fill="none" stroke="rgb(0,0,128)" paint-order="fill" d="M 276.9311218261719 57.947757720947266 L 276.9311218261719 53.217891693115234" stroke-opacity="1" stroke-linejoin="bevel" stroke-miterlimit="10" stroke-dasharray="" clip-path="url(#LewntzFoARIl)"/><path fill="none" stroke="rgb(0,0,128)" paint-order="fill" d="M 281.86444091796875 60.12869644165039 L 281.86444091796875 52.462921142578125" stroke-opacity="1" stroke-linejoin="bevel" stroke-miterlimit="10" stroke-dasharray="" clip-path="url(#LewntzFoARIl)"/><path fill="none" stroke="rgb(0,0,128)" paint-order="fill" d="M 286.79779052734375 52.180809020996094 L 286.79779052734375 51.72578811645508" stroke-opacity="1" stroke-linejoin="bevel" stroke-miterlimit="10" stroke-dasharray="" clip-path="url(#LewntzFoARIl)"/><path fill="none" stroke="rgb(0,0,128)" paint-order="fill" d="M 291.7311096191406 49.70182418823242 L 291.7311096191406 48.95875549316406" stroke-opacity="1" stroke-linejoin="bevel" stroke-miterlimit="10" stroke-dasharray="" clip-path="url(#LewntzFoARIl)"/><path fill="none" stroke="rgb(0,0,128)" paint-order="fill" d="M 296.6644592285156 52.89237976074219 L 296.6644592285156 39.3568115234375" stroke-opacity="1" stroke-linejoin="bevel" stroke-miterlimit="10" stroke-dasharray="" clip-path="url(#LewntzFoARIl)"/><path fill="none" stroke="rgb(0,0,128)" paint-order="fill" d="M 301.5977783203125 50.43152618408203 L 301.5977783203125 48.867820739746094" stroke-opacity="1" stroke-linejoin="bevel" stroke-miterlimit="10" stroke-dasharray="" clip-path="url(#LewntzFoARIl)"/><path fill="none" stroke="rgb(0,0,128)" paint-order="fill" d="M 306.5310974121094 60.92958068847656 L 306.5310974121094 52.01076126098633" stroke-opacity="1" stroke-linejoin="bevel" stroke-miterlimit="10" stroke-dasharray="" clip-path="url(#LewntzFoARIl)"/><path fill="none" stroke="rgb(0,0,128)" paint-order="fill" d="M 311.4644470214844 54.35422897338867 L 311.4644470214844 48.30310821533203" stroke-opacity="1" stroke-linejoin="bevel" stroke-miterlimit="10" stroke-dasharray="" clip-path="url(#LewntzFoARIl)"/><path fill="none" stroke="rgb(0,0,128)" paint-order="fill" d="M 316.39776611328125 54.4283332824707 L 316.39776611328125 53.477962493896484" stroke-opacity="1" stroke-linejoin="bevel" stroke-miterlimit="10" stroke-dasharray="" clip-path="url(#LewntzFoARIl)"/><path fill="none" stroke="rgb(0,0,128)" paint-order="fill" d="M 321.33111572265625 59.97560501098633 L 321.33111572265625 49.92500305175781" stroke-opacity="1" stroke-linejoin="bevel" stroke-miterlimit="10" stroke-dasharray="" clip-path="url(#LewntzFoARIl)"/><path fill="none" stroke="rgb(0,0,128)" paint-order="fill" d="M 326.2644348144531 57.1403923034668 L 326.2644348144531 51.114952087402344" stroke-opacity="1" stroke-linejoin="bevel" stroke-miterlimit="10" stroke-dasharray="" clip-path="url(#LewntzFoARIl)"/><path fill="none" stroke="rgb(0,0,128)" paint-order="fill" d="M 331.1977844238281 57.10811233520508 L 331.1977844238281 53.60928726196289" stroke-opacity="1" stroke-linejoin="bevel" stroke-miterlimit="10" stroke-dasharray="" clip-path="url(#LewntzFoARIl)"/><path fill="none" stroke="rgb(0,0,128)" paint-order="fill" d="M 336.131103515625 62.23661422729492 L 336.131103515625 54.324485778808594" stroke-opacity="1" stroke-linejoin="bevel" stroke-miterlimit="10" stroke-dasharray="" clip-path="url(#LewntzFoARIl)"/><path fill="none" stroke="rgb(0,0,128)" paint-order="fill" d="M 341.064453125 56.50102233886719 L 341.064453125 54.14215087890625" stroke-opacity="1" stroke-linejoin="bevel" stroke-miterlimit="10" stroke-dasharray="" clip-path="url(#LewntzFoARIl)"/><path fill="none" stroke="rgb(0,0,128)" paint-order="fill" d="M 345.9977722167969 59.65779495239258 L 345.9977722167969 56.44517135620117" stroke-opacity="1" stroke-linejoin="bevel" stroke-miterlimit="10" stroke-dasharray="" clip-path="url(#LewntzFoARIl)"/><path fill="none" stroke="rgb(0,0,128)" paint-order="fill" d="M 350.9311218261719 58.031166076660156 L 350.9311218261719 53.23866653442383" stroke-opacity="1" stroke-linejoin="bevel" stroke-miterlimit="10" stroke-dasharray="" clip-path="url(#LewntzFoARIl)"/><path fill="none" stroke="rgb(0,0,128)" paint-order="fill" d="M 355.86444091796875 60.30194854736328 L 355.86444091796875 56.281715393066406" stroke-opacity="1" stroke-linejoin="bevel" stroke-miterlimit="10" stroke-dasharray="" clip-path="url(#LewntzFoARIl)"/><path fill="none" stroke="rgb(0,0,128)" paint-order="fill" d="M 360.79779052734375 59.713680267333984 L 360.79779052734375 57.1575813293457" stroke-opacity="1" stroke-linejoin="bevel" stroke-miterlimit="10" stroke-dasharray="" clip-path="url(#LewntzFoARIl)"/><path fill="none" stroke="rgb(0,0,128)" paint-order="fill" d="M 365.7311096191406 60.67565155029297 L 365.7311096191406 53.78746795654297" stroke-opacity="1" stroke-linejoin="bevel" stroke-miterlimit="10" stroke-dasharray="" clip-path="url(#LewntzFoARIl)"/><path fill="none" stroke="rgb(255,0,255)" paint-order="fill" d="M 74.5 183.5 L 75.98743438720703 182.47145080566406 L 77.4748764038086 181.4423828125 L 78.96231079101562 180.4134521484375 L 80.44974517822266 179.38462829589844 L 81.93718719482422 178.35594177246094 L 83.42462158203125 177.327392578125 L 84.91206359863281 176.29896545410156 L 86.39949798583984 175.2706756591797 L 87.88693237304688 174.24252319335938 L 89.37437438964844 173.21450805664062 L 90.86180877685547 172.18661499023438 L 92.3492431640625 171.1588897705078 L 93.83668518066406 170.13128662109375 L 95.3241195678711 169.1038360595703 L 96.81156158447266 168.07652282714844 L 98.29899597167969 167.04937744140625 L 99.78643035888672 166.02236938476562 L 101.27387237548828 164.99551391601562 L 102.76130676269531 163.96881103515625 L 104.24874114990234 162.9422607421875 L 105.7361831665039 161.91587829589844 L 107.22361755371094 160.8896484375 L 108.71105194091797 159.86358642578125 L 110.19849395751953 158.8376922607422 L 111.68592834472656 157.81195068359375 L 113.17337036132812 156.78639221191406 L 114.66080474853516 155.76100158691406 L 116.14823913574219 154.7357940673828 L 117.63568115234375 153.71075439453125 L 119.12311553955078 152.68589782714844 L 120.61054992675781 151.66122436523438 L 122.09799194335938 150.63673400878906 L 123.5854263305664 149.6124267578125 L 125.07286071777344 148.58831787109375 L 126.560302734375 147.5644073486328 L 128.04773712158203 146.54067993164062 L 129.53517150878906 145.5171661376953 L 131.02261352539062 144.4938507080078 L 132.5100555419922 143.4707489013672 L 133.9974822998047 142.44786071777344 L 135.48492431640625 141.4251708984375 L 136.9723663330078 140.4027099609375 L 138.4597930908203 139.38046264648438 L 139.94723510742188 138.3584442138672 L 141.43467712402344 137.33665466308594 L 142.92210388183594 136.31509399414062 L 144.4095458984375 135.2937774658203 L 145.89698791503906 134.272705078125 L 147.38441467285156 133.2518768310547 L 148.87185668945312 132.23129272460938 L 150.3592987060547 131.21096801757812 L 151.84674072265625 130.19090270996094 L 153.33416748046875 129.1710968017578 L 154.8216094970703 128.15157318115234 L 156.30905151367188 127.13231658935547 L 157.79647827148438 126.11334228515625 L 159.28392028808594 125.09465789794922 L 160.7713623046875 124.07626342773438 L 162.2587890625 123.05816650390625 L 163.74623107910156 122.04037475585938 L 165.23367309570312 121.02288818359375 L 166.72109985351562 120.00572967529297 L 168.2085418701172 118.9888916015625 L 169.69598388671875 117.9723892211914 L 171.18341064453125 116.95622253417969 L 172.6708526611328 115.94039916992188 L 174.15829467773438 114.92494201660156 L 175.64572143554688 113.90983581542969 L 177.13316345214844 112.89511108398438 L 178.62060546875 111.88076782226562 L 180.10804748535156 110.86681365966797 L 181.59547424316406 109.85325622558594 L 183.08291625976562 108.84011840820312 L 184.5703582763672 107.827392578125 L 186.0577850341797 106.81510925292969 L 187.54522705078125 105.80326080322266 L 189.0326690673828 104.7918701171875 L 190.5200958251953 103.78095245361328 L 192.00753784179688 102.77051544189453 L 193.49497985839844 101.76057434082031 L 194.98240661621094 100.75114440917969 L 196.4698486328125 99.74224090576172 L 197.95729064941406 98.73387145996094 L 199.44471740722656 97.72606658935547 L 200.93215942382812 96.71883392333984 L 202.4196014404297 95.71220397949219 L 203.9070281982422 94.7061767578125 L 205.39447021484375 93.70079040527344 L 206.8819122314453 92.69606018066406 L 208.36935424804688 91.69200897216797 L 209.85678100585938 90.68865966796875 L 211.34422302246094 89.68603515625 L 212.8316650390625 88.68417358398438 L 214.319091796875 87.68309020996094 L 215.80653381347656 86.68282318115234 L 217.29397583007812 85.68340301513672 L 218.78140258789062 84.68486785888672 L 220.2688446044922 83.687255859375 L 221.75628662109375 82.69059753417969 L 223.24371337890625 81.6949462890625 L 224.7311553955078 80.7003402709961 L 226.21859741210938 79.70682525634766 L 227.70602416992188 78.71446228027344 L 229.19346618652344 77.72330474853516 L 230.680908203125 76.73341369628906 L 232.1683349609375 75.7448501586914 L 233.65577697753906 74.75769805908203 L 235.14321899414062 73.77201843261719 L 236.63064575195312 72.78791046142578 L 238.1180877685547 71.80545806884766 L 239.60552978515625 70.82476043701172 L 241.0929718017578 69.84593963623047 L 242.5803985595703 68.86911010742188 L 244.06784057617188 67.89441680908203 L 245.55528259277344 66.92198944091797 L 247.04270935058594 65.95201873779297 L 248.5301513671875 64.98467254638672 L 250.01759338378906 64.02017211914062 L 251.50502014160156 63.058746337890625 L 252.99246215820312 62.10065841674805 L 254.4799041748047 61.14621353149414 L 255.9673309326172 60.19575500488281 L 257.45477294921875 59.24968338012695 L 258.94219970703125 58.308448791503906 L 260.4296569824219 57.372589111328125 L 261.9170837402344 56.442726135253906 L 263.4045104980469 55.519596099853516 L 264.8919677734375 54.60407638549805 L 266.37939453125 53.69721603393555 L 267.8668212890625 52.800296783447266 L 269.3542785644531 51.914886474609375 L 270.8417053222656 51.04292678833008 L 272.3291320800781 50.18685531616211 L 273.81658935546875 49.34977722167969 L 275.30401611328125 48.535682678222656 L 276.79144287109375 47.74977111816406 L 278.2789001464844 46.998870849609375 L 279.7663269042969 46.29197692871094 L 281.2537536621094 45.64079284667969 L 282.7412109375 45.05992889404297 L 284.2286376953125 44.565914154052734 L 285.7160949707031 44.17347717285156 L 287.2035217285156 43.88856887817383 L 288.6909484863281 43.70206832885742 L 290.17840576171875 43.591522216796875 L 291.66583251953125 43.53091812133789 L 293.15325927734375 43.499366760253906 L 294.6407165527344 43.483428955078125 L 296.1281433105469 43.47550964355469 L 297.6155700683594 43.47160339355469 L 299.10302734375 43.469688415527344 L 300.5904541015625 43.46875 L 302.077880859375 43.468292236328125 L 303.5653381347656 43.46806716918945 L 305.0527648925781 43.46795654296875 L 306.5401916503906 43.46790313720703 L 308.02764892578125 43.46787643432617 L 309.51507568359375 43.467864990234375 L 311.00250244140625 43.467857360839844 L 312.4899597167969 43.46785354614258 L 313.9773864746094 43.46785354614258 L 315.4648132324219 43.46784973144531 L 316.9522705078125 43.46784973144531 L 318.439697265625 43.46784973144531 L 319.9271240234375 43.46784973144531 L 321.4145812988281 43.46784973144531 L 322.9020080566406 43.46784973144531 L 324.3894348144531 43.46784973144531 L 325.87689208984375 43.46784973144531 L 327.36431884765625 43.46784973144531 L 328.85174560546875 43.46784973144531 L 330.3392028808594 43.46784973144531 L 331.8266296386719 43.46784973144531 L 333.3140563964844 43.46784973144531 L 334.801513671875 43.46784973144531 L 336.2889404296875 43.46784973144531 L 337.7763671875 43.46784973144531 L 339.2638244628906 43.46784973144531 L 340.7512512207031 43.46784973144531 L 342.23870849609375 43.46784973144531 L 343.72613525390625 43.46784973144531 L 345.21356201171875 43.46784973144531 L 346.7010192871094 43.46784973144531 L 348.1884460449219 43.46784973144531 L 349.6758728027344 43.46784973144531 L 351.163330078125 43.46784973144531 L 352.6507568359375 43.46784973144531 L 354.13818359375 43.46784973144531 L 355.6256408691406 43.46784973144531 L 357.1130676269531 43.46784973144531 L 358.6004943847656 43.46784973144531 L 360.08795166015625 43.46784973144531 L 361.57537841796875 43.46784973144531 L 363.06280517578125 43.46784973144531 L 364.5502624511719 43.46784973144531 L 366.0376892089844 43.46784973144531 L 367.5251159667969 43.46784973144531 L 369.0125732421875 43.46784973144531 L 370.5 43.46784973144531" stroke-opacity="0.30196078431372547" stroke-linejoin="bevel" stroke-miterlimit="10" stroke-width="2" stroke-dasharray="" clip-path="url(#mxVtpOXWJbEp)"/><path fill="none" stroke="rgb(255,0,255)" paint-order="fill" d="M 74.5 183.5 L 75.98743438720703 182.53610229492188 L 77.4748764038086 181.5727996826172 L 78.96231079101562 180.60958862304688 L 80.44974517822266 179.64646911621094 L 81.93718719482422 178.6834259033203 L 83.42462158203125 177.720458984375 L 84.91206359863281 176.75758361816406 L 86.39949798583984 175.7947998046875 L 87.88693237304688 174.8321075439453 L 89.37437438964844 173.86949157714844 L 90.86180877685547 172.90696716308594 L 92.3492431640625 171.9445343017578 L 93.83668518066406 170.98219299316406 L 95.3241195678711 170.0199432373047 L 96.81156158447266 169.05780029296875 L 98.29899597167969 168.09573364257812 L 99.78643035888672 167.13377380371094 L 101.27387237548828 166.17190551757812 L 102.76130676269531 165.21014404296875 L 104.24874114990234 164.24847412109375 L 105.7361831665039 163.2869110107422 L 107.22361755371094 162.32545471191406 L 108.71105194091797 161.3640899658203 L 110.19849395751953 160.40284729003906 L 111.68592834472656 159.4416961669922 L 113.17337036132812 158.48065185546875 L 114.66080474853516 157.5197296142578 L 116.14823913574219 156.5589141845703 L 117.63568115234375 155.59820556640625 L 119.12311553955078 154.6376190185547 L 120.61054992675781 153.67713928222656 L 122.09799194335938 152.71678161621094 L 123.5854263305664 151.7565460205078 L 125.07286071777344 150.7964324951172 L 126.560302734375 149.83642578125 L 128.04773712158203 148.87655639648438 L 129.53517150878906 147.91680908203125 L 131.02261352539062 146.9571990966797 L 132.5100555419922 145.99771118164062 L 133.9974822998047 145.03836059570312 L 135.48492431640625 144.07913208007812 L 136.9723663330078 143.12005615234375 L 138.4597930908203 142.16110229492188 L 139.94723510742188 141.20230102539062 L 141.43467712402344 140.24363708496094 L 142.92210388183594 139.2851104736328 L 144.4095458984375 138.32675170898438 L 145.89698791503906 137.3685302734375 L 147.38441467285156 136.41046142578125 L 148.87185668945312 135.45254516601562 L 150.3592987060547 134.49478149414062 L 151.84674072265625 133.5371856689453 L 153.33416748046875 132.5797576904297 L 154.8216094970703 131.6224822998047 L 156.30905151367188 130.66539001464844 L 157.79647827148438 129.70846557617188 L 159.28392028808594 128.751708984375 L 160.7713623046875 127.79513549804688 L 162.2587890625 126.8387451171875 L 163.74623107910156 125.88253784179688 L 165.23367309570312 124.926513671875 L 166.72109985351562 123.97068786621094 L 168.2085418701172 123.01506042480469 L 169.69598388671875 122.05963134765625 L 171.18341064453125 121.10440826416016 L 172.6708526611328 120.1493911743164 L 174.15829467773438 119.194580078125 L 175.64572143554688 118.23999786376953 L 177.13316345214844 117.28562927246094 L 178.62060546875 116.33148956298828 L 180.10804748535156 115.37757873535156 L 181.59547424316406 114.42391204833984 L 183.08291625976562 113.4704818725586 L 184.5703582763672 112.51729583740234 L 186.0577850341797 111.56436920166016 L 187.54522705078125 110.6116943359375 L 189.0326690673828 109.65929412841797 L 190.5200958251953 108.70716094970703 L 192.00753784179688 107.75530242919922 L 193.49497985839844 106.8037338256836 L 194.98240661621094 105.85245513916016 L 196.4698486328125 104.90148162841797 L 197.95729064941406 103.95081329345703 L 199.44471740722656 103.0004653930664 L 200.93215942382812 102.0504379272461 L 202.4196014404297 101.10074615478516 L 203.9070281982422 100.15139770507812 L 205.39447021484375 99.20240020751953 L 206.8819122314453 98.25376892089844 L 208.36935424804688 97.30551147460938 L 209.85678100585938 96.3576431274414 L 211.34422302246094 95.41017150878906 L 212.8316650390625 94.46310424804688 L 214.319091796875 93.51646423339844 L 215.80653381347656 92.57026672363281 L 217.29397583007812 91.62451171875 L 218.78140258789062 90.67922973632812 L 220.2688446044922 89.73443603515625 L 221.75628662109375 88.7901382446289 L 223.24371337890625 87.84635925292969 L 224.7311553955078 86.90312194824219 L 226.21859741210938 85.96044158935547 L 227.70602416992188 85.01834106445312 L 229.19346618652344 84.07685089111328 L 230.680908203125 83.135986328125 L 232.1683349609375 82.1957778930664 L 233.65577697753906 81.2562484741211 L 235.14321899414062 80.31743621826172 L 236.63064575195312 79.3793716430664 L 238.1180877685547 78.44208526611328 L 239.60552978515625 77.505615234375 L 241.0929718017578 76.57000732421875 L 242.5803985595703 75.63529968261719 L 244.06784057617188 74.7015380859375 L 245.55528259277344 73.76878356933594 L 247.04270935058594 72.83707427978516 L 248.5301513671875 71.90647888183594 L 250.01759338378906 70.9770736694336 L 251.50502014160156 70.04891204833984 L 252.99246215820312 69.12208557128906 L 254.4799041748047 68.1966781616211 L 255.9673309326172 67.27278137207031 L 257.45477294921875 66.35050964355469 L 258.94219970703125 65.42996978759766 L 260.4296569824219 64.51130676269531 L 261.9170837402344 63.59466552734375 L 263.4045104980469 62.680206298828125 L 264.8919677734375 61.76811981201172 L 266.37939453125 60.85862731933594 L 267.8668212890625 59.95196533203125 L 269.3542785644531 59.04841995239258 L 270.8417053222656 58.1483154296875 L 272.3291320800781 57.25203323364258 L 273.81658935546875 56.360015869140625 L 275.30401611328125 55.47279739379883 L 276.79144287109375 54.59100341796875 L 278.2789001464844 53.71539306640625 L 279.7663269042969 52.84689712524414 L 281.2537536621094 51.98666000366211 L 282.7412109375 51.1361198425293 L 284.2286376953125 50.297096252441406 L 285.7160949707031 49.47194290161133 L 287.2035217285156 48.663761138916016 L 288.6909484863281 47.876705169677734 L 290.17840576171875 47.116458892822266 L 291.66583251953125 46.39094924926758 L 293.15325927734375 45.71135711669922 L 294.6407165527344 45.093379974365234 L 296.1281433105469 44.55803298950195 L 297.6155700683594 44.129478454589844 L 299.10302734375 43.825279235839844 L 300.5904541015625 43.640525817871094 L 302.077880859375 43.54462814331055 L 303.5653381347656 43.50039291381836 L 305.0527648925781 43.48134231567383 L 306.5401916503906 43.47340393066406 L 308.02764892578125 43.47014617919922 L 309.51507568359375 43.468814849853516 L 311.00250244140625 43.4682731628418 L 312.4899597167969 43.46805191040039 L 313.9773864746094 43.46796417236328 L 315.4648132324219 43.46792984008789 L 316.9522705078125 43.46791458129883 L 318.439697265625 43.4679069519043 L 319.9271240234375 43.46790313720703 L 321.4145812988281 43.46790313720703 L 322.9020080566406 43.46790313720703 L 324.3894348144531 43.46790313720703 L 325.87689208984375 43.46790313720703 L 327.36431884765625 43.46790313720703 L 328.85174560546875 43.46790313720703 L 330.3392028808594 43.46790313720703 L 331.8266296386719 43.46790313720703 L 333.3140563964844 43.46790313720703 L 334.801513671875 43.46790313720703 L 336.2889404296875 43.46790313720703 L 337.7763671875 43.46790313720703 L 339.2638244628906 43.46790313720703 L 340.7512512207031 43.46790313720703 L 342.23870849609375 43.46790313720703 L 343.72613525390625 43.46790313720703 L 345.21356201171875 43.46790313720703 L 346.7010192871094 43.46790313720703 L 348.1884460449219 43.46790313720703 L 349.6758728027344 43.46790313720703 L 351.163330078125 43.46790313720703 L 352.6507568359375 43.46790313720703 L 354.13818359375 43.46790313720703 L 355.6256408691406 43.46790313720703 L 357.1130676269531 43.46790313720703 L 358.6004943847656 43.46790313720703 L 360.08795166015625 43.46790313720703 L 361.57537841796875 43.46790313720703 L 363.06280517578125 43.46790313720703 L 364.5502624511719 43.46790313720703 L 366.0376892089844 43.46790313720703 L 367.5251159667969 43.46790313720703 L 369.0125732421875 43.46790313720703 L 370.5 43.46790313720703" stroke-opacity="0.30196078431372547" stroke-linejoin="bevel" stroke-miterlimit="10" stroke-width="2" stroke-dasharray="" clip-path="url(#tsnqgHzGpzpB)"/><path fill="none" stroke="rgb(255,0,255)" paint-order="fill" d="M 74.5 183.5 L 75.98743438720703 182.51942443847656 L 77.4748764038086 181.54086303710938 L 78.96231079101562 180.5623779296875 L 80.44974517822266 179.58392333984375 L 81.93718719482422 178.6055450439453 L 83.42462158203125 177.62721252441406 L 84.91206359863281 176.64894104003906 L 86.39949798583984 175.6707305908203 L 87.88693237304688 174.6925811767578 L 89.37437438964844 173.71449279785156 L 90.86180877685547 172.73646545410156 L 92.3492431640625 171.75848388671875 L 93.83668518066406 170.78057861328125 L 95.3241195678711 169.802734375 L 96.81156158447266 168.82496643066406 L 98.29899597167969 167.8472442626953 L 99.78643035888672 166.86959838867188 L 101.27387237548828 165.8920135498047 L 102.76130676269531 164.9145050048828 L 104.24874114990234 163.9370574951172 L 105.7361831665039 162.9596710205078 L 107.22361755371094 161.9823760986328 L 108.71105194091797 161.00514221191406 L 110.19849395751953 160.02796936035156 L 111.68592834472656 159.05087280273438 L 113.17337036132812 158.07386779785156 L 114.66080474853516 157.096923828125 L 116.14823913574219 156.12005615234375 L 117.63568115234375 155.1432647705078 L 119.12311553955078 154.1665496826172 L 120.61054992675781 153.18992614746094 L 122.09799194335938 152.21337890625 L 123.5854263305664 151.23690795898438 L 125.07286071777344 150.26052856445312 L 126.560302734375 149.2842254638672 L 128.04773712158203 148.30799865722656 L 129.53517150878906 147.33187866210938 L 131.02261352539062 146.3558349609375 L 132.5100555419922 145.3798828125 L 133.9974822998047 144.40402221679688 L 135.48492431640625 143.42825317382812 L 136.9723663330078 142.45257568359375 L 138.4597930908203 141.4770050048828 L 139.94723510742188 140.50152587890625 L 141.43467712402344 139.52613830566406 L 142.92210388183594 138.5508575439453 L 144.4095458984375 137.57566833496094 L 145.89698791503906 136.6005859375 L 147.38441467285156 135.62562561035156 L 148.87185668945312 134.6507568359375 L 150.3592987060547 133.67599487304688 L 151.84674072265625 132.70135498046875 L 153.33416748046875 131.72682189941406 L 154.8216094970703 130.75241088867188 L 156.30905151367188 129.77810668945312 L 157.79647827148438 128.80392456054688 L 159.28392028808594 127.82987213134766 L 160.7713623046875 126.8559341430664 L 162.2587890625 125.88212585449219 L 163.74623107910156 124.908447265625 L 165.23367309570312 123.93490600585938 L 166.72109985351562 122.96149444580078 L 168.2085418701172 121.98822021484375 L 169.69598388671875 121.01508331298828 L 171.18341064453125 120.0420913696289 L 172.6708526611328 119.06924438476562 L 174.15829467773438 118.09654998779297 L 175.64572143554688 117.12400817871094 L 177.13316345214844 116.15161895751953 L 178.62060546875 115.17938995361328 L 180.10804748535156 114.20732116699219 L 181.59547424316406 113.23542022705078 L 183.08291625976562 112.2636947631836 L 184.5703582763672 111.29214477539062 L 186.0577850341797 110.32077026367188 L 187.54522705078125 109.34957885742188 L 189.0326690673828 108.37857818603516 L 190.5200958251953 107.40776824951172 L 192.00753784179688 106.4371566772461 L 193.49497985839844 105.46675109863281 L 194.98240661621094 104.49655151367188 L 196.4698486328125 103.52656555175781 L 197.95729064941406 102.55680084228516 L 199.44471740722656 101.58726501464844 L 200.93215942382812 100.61795806884766 L 202.4196014404297 99.64889526367188 L 203.9070281982422 98.68008422851562 L 205.39447021484375 97.71151733398438 L 206.8819122314453 96.74322509765625 L 208.36935424804688 95.77519226074219 L 209.85678100585938 94.80744934082031 L 211.34422302246094 93.8399887084961 L 212.8316650390625 92.87283325195312 L 214.319091796875 91.9059829711914 L 215.80653381347656 90.939453125 L 217.29397583007812 89.97325897216797 L 218.78140258789062 89.00740051269531 L 220.2688446044922 88.04190826416016 L 221.75628662109375 87.0767822265625 L 223.24371337890625 86.1120376586914 L 224.7311553955078 85.147705078125 L 226.21859741210938 84.18378448486328 L 227.70602416992188 83.22029113769531 L 229.19346618652344 82.25726318359375 L 230.680908203125 81.29470825195312 L 232.1683349609375 80.3326416015625 L 233.65577697753906 79.37110137939453 L 235.14321899414062 78.41010284423828 L 236.63064575195312 77.44967651367188 L 238.1180877685547 76.48985290527344 L 239.60552978515625 75.53067016601562 L 241.0929718017578 74.5721435546875 L 242.5803985595703 73.61433410644531 L 244.06784057617188 72.65726470947266 L 245.55528259277344 71.70098876953125 L 247.04270935058594 70.74555206298828 L 248.5301513671875 69.79100799560547 L 250.01759338378906 68.8374252319336 L 251.50502014160156 67.8848648071289 L 252.99246215820312 66.93340301513672 L 254.4799041748047 65.98311614990234 L 255.9673309326172 65.03410339355469 L 257.45477294921875 64.08647155761719 L 258.94219970703125 63.14032745361328 L 260.4296569824219 62.19581604003906 L 261.9170837402344 61.253082275390625 L 263.4045104980469 60.312313079833984 L 264.8919677734375 59.37370300292969 L 266.37939453125 58.4375 L 267.8668212890625 57.50398254394531 L 269.3542785644531 56.573482513427734 L 270.8417053222656 55.64640808105469 L 272.3291320800781 54.72323989868164 L 273.81658935546875 53.80457305908203 L 275.30401611328125 52.89116287231445 L 276.79144287109375 51.98394012451172 L 278.2789001464844 51.08412551879883 L 279.7663269042969 50.193321228027344 L 281.2537536621094 49.31367874145508 L 282.7412109375 48.448204040527344 L 284.2286376953125 47.60120391845703 L 285.7160949707031 46.77911376953125 L 287.2035217285156 45.99200439453125 L 288.6909484863281 45.25634765625 L 290.17840576171875 44.599998474121094 L 291.66583251953125 44.06820297241211 L 293.15325927734375 43.71485137939453 L 294.6407165527344 43.5460205078125 L 296.1281433105469 43.48896789550781 L 297.6155700683594 43.47325134277344 L 299.10302734375 43.4692268371582 L 300.5904541015625 43.46821975708008 L 302.077880859375 43.46796798706055 L 303.5653381347656 43.4679069519043 L 305.0527648925781 43.467891693115234 L 306.5401916503906 43.46788787841797 L 308.02764892578125 43.46788787841797 L 309.51507568359375 43.46788787841797 L 311.00250244140625 43.46788787841797 L 312.4899597167969 43.46788787841797 L 313.9773864746094 43.46788787841797 L 315.4648132324219 43.46788787841797 L 316.9522705078125 43.46788787841797 L 318.439697265625 43.46788787841797 L 319.9271240234375 43.46788787841797 L 321.4145812988281 43.46788787841797 L 322.9020080566406 43.46788787841797 L 324.3894348144531 43.46788787841797 L 325.87689208984375 43.46788787841797 L 327.36431884765625 43.46788787841797 L 328.85174560546875 43.46788787841797 L 330.3392028808594 43.46788787841797 L 331.8266296386719 43.46788787841797 L 333.3140563964844 43.46788787841797 L 334.801513671875 43.46788787841797 L 336.2889404296875 43.46788787841797 L 337.7763671875 43.46788787841797 L 339.2638244628906 43.46788787841797 L 340.7512512207031 43.46788787841797 L 342.23870849609375 43.46788787841797 L 343.72613525390625 43.46788787841797 L 345.21356201171875 43.46788787841797 L 346.7010192871094 43.46788787841797 L 348.1884460449219 43.46788787841797 L 349.6758728027344 43.46788787841797 L 351.163330078125 43.46788787841797 L 352.6507568359375 43.46788787841797 L 354.13818359375 43.46788787841797 L 355.6256408691406 43.46788787841797 L 357.1130676269531 43.46788787841797 L 358.6004943847656 43.46788787841797 L 360.08795166015625 43.46788787841797 L 361.57537841796875 43.46788787841797 L 363.06280517578125 43.46788787841797 L 364.5502624511719 43.46788787841797 L 366.0376892089844 43.46788787841797 L 367.5251159667969 43.46788787841797 L 369.0125732421875 43.46788787841797 L 370.5 43.46788787841797" stroke-opacity="0.30196078431372547" stroke-linejoin="bevel" stroke-miterlimit="10" stroke-width="2" stroke-dasharray="" clip-path="url(#BETaPnMRhlqh)"/><path fill="none" stroke="rgb(255,0,255)" paint-order="fill" d="M 74.5 183.5 L 75.98743438720703 182.45843505859375 L 77.4748764038086 181.41802978515625 L 78.96231079101562 180.37771606445312 L 80.44974517822266 179.33746337890625 L 81.93718719482422 178.29730224609375 L 83.42462158203125 177.25721740722656 L 84.91206359863281 176.21722412109375 L 86.39949798583984 175.17730712890625 L 87.88693237304688 174.13746643066406 L 89.37437438964844 173.0977325439453 L 90.86180877685547 172.0580596923828 L 92.3492431640625 171.01849365234375 L 93.83668518066406 169.97900390625 L 95.3241195678711 168.9396209716797 L 96.81156158447266 167.9003143310547 L 98.29899597167969 166.86111450195312 L 99.78643035888672 165.82199096679688 L 101.27387237548828 164.78297424316406 L 102.76130676269531 163.74404907226562 L 104.24874114990234 162.70523071289062 L 105.7361831665039 161.66650390625 L 107.22361755371094 160.6278839111328 L 108.71105194091797 159.58935546875 L 110.19849395751953 158.55093383789062 L 111.68592834472656 157.5126190185547 L 113.17337036132812 156.4744110107422 L 114.66080474853516 155.43630981445312 L 116.14823913574219 154.39833068847656 L 117.63568115234375 153.36044311523438 L 119.12311553955078 152.32269287109375 L 120.61054992675781 151.2850341796875 L 122.09799194335938 150.2475128173828 L 123.5854263305664 149.21009826660156 L 125.07286071777344 148.1728057861328 L 126.560302734375 147.13563537597656 L 128.04773712158203 146.0985870361328 L 129.53517150878906 145.06167602539062 L 131.02261352539062 144.02488708496094 L 132.5100555419922 142.98822021484375 L 133.9974822998047 141.95169067382812 L 135.48492431640625 140.91531372070312 L 136.9723663330078 139.87905883789062 L 138.4597930908203 138.8429412841797 L 139.94723510742188 137.80697631835938 L 141.43467712402344 136.77114868164062 L 142.92210388183594 135.7354736328125 L 144.4095458984375 134.699951171875 L 145.89698791503906 133.66458129882812 L 147.38441467285156 132.62937927246094 L 148.87185668945312 131.5943145751953 L 150.3592987060547 130.55943298339844 L 151.84674072265625 129.5247039794922 L 153.33416748046875 128.49015045166016 L 154.8216094970703 127.45576477050781 L 156.30905151367188 126.42156219482422 L 157.79647827148438 125.38753509521484 L 159.28392028808594 124.35369110107422 L 160.7713623046875 123.32003021240234 L 162.2587890625 122.28656768798828 L 163.74623107910156 121.25330352783203 L 165.23367309570312 120.2202377319336 L 166.72109985351562 119.18737030029297 L 168.2085418701172 118.15471649169922 L 169.69598388671875 117.12227630615234 L 171.18341064453125 116.09005737304688 L 172.6708526611328 115.05806732177734 L 174.15829467773438 114.02629852294922 L 175.64572143554688 112.9947738647461 L 177.13316345214844 111.96348571777344 L 178.62060546875 110.93244171142578 L 180.10804748535156 109.90165710449219 L 181.59547424316406 108.87113189697266 L 183.08291625976562 107.84087371826172 L 184.5703582763672 106.81089782714844 L 186.0577850341797 105.78119659423828 L 187.54522705078125 104.75179290771484 L 189.0326690673828 103.72268676757812 L 190.5200958251953 102.69388580322266 L 192.00753784179688 101.6654052734375 L 193.49497985839844 100.63724517822266 L 194.98240661621094 99.60942840576172 L 196.4698486328125 98.58196258544922 L 197.95729064941406 97.55484771728516 L 199.44471740722656 96.52811431884766 L 200.93215942382812 95.50175476074219 L 202.4196014404297 94.47579956054688 L 203.9070281982422 93.45024871826172 L 205.39447021484375 92.42512512207031 L 206.8819122314453 91.40043640136719 L 208.36935424804688 90.37621307373047 L 209.85678100585938 89.35246276855469 L 211.34422302246094 88.32920837402344 L 212.8316650390625 87.30646514892578 L 214.319091796875 86.28425598144531 L 215.80653381347656 85.26260375976562 L 217.29397583007812 84.24153900146484 L 218.78140258789062 83.22107696533203 L 220.2688446044922 82.20124816894531 L 221.75628662109375 81.18209075927734 L 223.24371337890625 80.16362762451172 L 224.7311553955078 79.1458969116211 L 226.21859741210938 78.12893676757812 L 227.70602416992188 77.11278533935547 L 229.19346618652344 76.09748840332031 L 230.680908203125 75.08309936523438 L 232.1683349609375 74.06966400146484 L 233.65577697753906 73.05723571777344 L 235.14321899414062 72.04589080810547 L 236.63064575195312 71.03569030761719 L 238.1180877685547 70.0267105102539 L 239.60552978515625 69.01904296875 L 241.0929718017578 68.01277160644531 L 242.5803985595703 67.00801086425781 L 244.06784057617188 66.00487518310547 L 245.55528259277344 65.00350189208984 L 247.04270935058594 64.00403213500977 L 248.5301513671875 63.006649017333984 L 250.01759338378906 62.011539459228516 L 251.50502014160156 61.0189323425293 L 252.99246215820312 60.029090881347656 L 254.4799041748047 59.042320251464844 L 255.9673309326172 58.0589714050293 L 257.45477294921875 57.0794792175293 L 258.94219970703125 56.104347229003906 L 260.4296569824219 55.134193420410156 L 261.9170837402344 54.16977310180664 L 263.4045104980469 53.2120246887207 L 264.8919677734375 52.26213836669922 L 266.37939453125 51.321632385253906 L 267.8668212890625 50.39249801635742 L 269.3542785644531 49.47740173339844 L 270.8417053222656 48.580013275146484 L 272.3291320800781 47.70552062988281 L 273.81658935546875 46.86151123046875 L 275.30401611328125 46.0594596862793 L 276.79144287109375 45.317230224609375 L 278.2789001464844 44.662681579589844 L 279.7663269042969 44.13576126098633 L 281.2537536621094 43.77653121948242 L 282.7412109375 43.58572006225586 L 284.2286376953125 43.50749588012695 L 285.7160949707031 43.480472564697266 L 287.2035217285156 43.47182846069336 L 288.6909484863281 43.469139099121094 L 290.17840576171875 43.46830749511719 L 291.66583251953125 43.46805191040039 L 293.15325927734375 43.46797561645508 L 294.6407165527344 43.46794891357422 L 296.1281433105469 43.46794128417969 L 297.6155700683594 43.46794128417969 L 299.10302734375 43.46794128417969 L 300.5904541015625 43.46794128417969 L 302.077880859375 43.46794128417969 L 303.5653381347656 43.46794128417969 L 305.0527648925781 43.46794128417969 L 306.5401916503906 43.46794128417969 L 308.02764892578125 43.46794128417969 L 309.51507568359375 43.46794128417969 L 311.00250244140625 43.46794128417969 L 312.4899597167969 43.46794128417969 L 313.9773864746094 43.46794128417969 L 315.4648132324219 43.46794128417969 L 316.9522705078125 43.46794128417969 L 318.439697265625 43.46794128417969 L 319.9271240234375 43.46794128417969 L 321.4145812988281 43.46794128417969 L 322.9020080566406 43.46794128417969 L 324.3894348144531 43.46794128417969 L 325.87689208984375 43.46794128417969 L 327.36431884765625 43.46794128417969 L 328.85174560546875 43.46794128417969 L 330.3392028808594 43.46794128417969 L 331.8266296386719 43.46794128417969 L 333.3140563964844 43.46794128417969 L 334.801513671875 43.46794128417969 L 336.2889404296875 43.46794128417969 L 337.7763671875 43.46794128417969 L 339.2638244628906 43.46794128417969 L 340.7512512207031 43.46794128417969 L 342.23870849609375 43.46794128417969 L 343.72613525390625 43.46794128417969 L 345.21356201171875 43.46794128417969 L 346.7010192871094 43.46794128417969 L 348.1884460449219 43.46794128417969 L 349.6758728027344 43.46794128417969 L 351.163330078125 43.46794128417969 L 352.6507568359375 43.46794128417969 L 354.13818359375 43.46794128417969 L 355.6256408691406 43.46794128417969 L 357.1130676269531 43.46794128417969 L 358.6004943847656 43.46794128417969 L 360.08795166015625 43.46794128417969 L 361.57537841796875 43.46794128417969 L 363.06280517578125 43.46794128417969 L 364.5502624511719 43.46794128417969 L 366.0376892089844 43.46794128417969 L 367.5251159667969 43.46794128417969 L 369.0125732421875 43.46794128417969 L 370.5 43.46794128417969" stroke-opacity="0.30196078431372547" stroke-linejoin="bevel" stroke-miterlimit="10" stroke-width="2" stroke-dasharray="" clip-path="url(#yXkPyTSqEwVL)"/><path fill="none" stroke="rgb(255,0,255)" paint-order="fill" d="M 74.5 183.5 L 75.98743438720703 182.50030517578125 L 77.4748764038086 181.49969482421875 L 78.96231079101562 180.49925231933594 L 80.44974517822266 179.49896240234375 L 81.93718719482422 178.49884033203125 L 83.42462158203125 177.49887084960938 L 84.91206359863281 176.49905395507812 L 86.39949798583984 175.49940490722656 L 87.88693237304688 174.4999237060547 L 89.37437438964844 173.5006103515625 L 90.86180877685547 172.50144958496094 L 92.3492431640625 171.50247192382812 L 93.83668518066406 170.503662109375 L 95.3241195678711 169.50503540039062 L 96.81156158447266 168.50657653808594 L 98.29899597167969 167.50831604003906 L 99.78643035888672 166.51022338867188 L 101.27387237548828 165.51231384277344 L 102.76130676269531 164.51458740234375 L 104.24874114990234 163.5170440673828 L 105.7361831665039 162.5196990966797 L 107.22361755371094 161.52255249023438 L 108.71105194091797 160.52560424804688 L 110.19849395751953 159.5288543701172 L 111.68592834472656 158.5323028564453 L 113.17337036132812 157.53594970703125 L 114.66080474853516 156.53981018066406 L 116.14823913574219 155.54388427734375 L 117.63568115234375 154.54815673828125 L 119.12311553955078 153.5526580810547 L 120.61054992675781 152.557373046875 L 122.09799194335938 151.56231689453125 L 123.5854263305664 150.56748962402344 L 125.07286071777344 149.5728759765625 L 126.560302734375 148.57850646972656 L 128.04773712158203 147.58438110351562 L 129.53517150878906 146.59048461914062 L 131.02261352539062 145.59683227539062 L 132.5100555419922 144.60342407226562 L 133.9974822998047 143.61026000976562 L 135.48492431640625 142.6173553466797 L 136.9723663330078 141.62472534179688 L 138.4597930908203 140.63233947753906 L 139.94723510742188 139.64022827148438 L 141.43467712402344 138.6483917236328 L 142.92210388183594 137.65682983398438 L 144.4095458984375 136.66554260253906 L 145.89698791503906 135.67454528808594 L 147.38441467285156 134.68385314941406 L 148.87185668945312 133.6934356689453 L 150.3592987060547 132.7033233642578 L 151.84674072265625 131.71353149414062 L 153.33416748046875 130.72402954101562 L 154.8216094970703 129.73486328125 L 156.30905151367188 128.7460174560547 L 157.79647827148438 127.75749206542969 L 159.28392028808594 126.7693099975586 L 160.7713623046875 125.78146362304688 L 162.2587890625 124.79397583007812 L 163.74623107910156 123.80683898925781 L 165.23367309570312 122.82006072998047 L 166.72109985351562 121.83365631103516 L 168.2085418701172 120.84762573242188 L 169.69598388671875 119.86198425292969 L 171.18341064453125 118.87673950195312 L 172.6708526611328 117.89189147949219 L 174.15829467773438 116.90745544433594 L 175.64572143554688 115.9234390258789 L 177.13316345214844 114.93984985351562 L 178.62060546875 113.95670318603516 L 180.10804748535156 112.9739990234375 L 181.59547424316406 111.99176025390625 L 183.08291625976562 111.0099868774414 L 184.5703582763672 110.02869415283203 L 186.0577850341797 109.04789733886719 L 187.54522705078125 108.0676040649414 L 189.0326690673828 107.08782958984375 L 190.5200958251953 106.10858154296875 L 192.00753784179688 105.12987518310547 L 193.49497985839844 104.1517333984375 L 194.98240661621094 103.17415618896484 L 196.4698486328125 102.19717407226562 L 197.95729064941406 101.22079467773438 L 199.44471740722656 100.24504089355469 L 200.93215942382812 99.2699203491211 L 202.4196014404297 98.29546356201172 L 203.9070281982422 97.32168579101562 L 205.39447021484375 96.34860229492188 L 206.8819122314453 95.37623596191406 L 208.36935424804688 94.40461730957031 L 209.85678100585938 93.43376159667969 L 211.34422302246094 92.46369934082031 L 212.8316650390625 91.49445343017578 L 214.319091796875 90.52605438232422 L 215.80653381347656 89.55852508544922 L 217.29397583007812 88.59190368652344 L 218.78140258789062 87.626220703125 L 220.2688446044922 86.66151428222656 L 221.75628662109375 85.69781494140625 L 223.24371337890625 84.73516082763672 L 224.7311553955078 83.77360534667969 L 226.21859741210938 82.81317901611328 L 227.70602416992188 81.85393524169922 L 229.19346618652344 80.89591979980469 L 230.680908203125 79.93919372558594 L 232.1683349609375 78.98381805419922 L 233.65577697753906 78.02983856201172 L 235.14321899414062 77.07733917236328 L 236.63064575195312 76.12638092041016 L 238.1180877685547 75.17704010009766 L 239.60552978515625 74.22940826416016 L 241.0929718017578 73.28356170654297 L 242.5803985595703 72.33961486816406 L 244.06784057617188 71.39765930175781 L 245.55528259277344 70.45782470703125 L 247.04270935058594 69.52022552490234 L 248.5301513671875 68.58500671386719 L 250.01759338378906 67.6523208618164 L 251.50502014160156 66.72232818603516 L 252.99246215820312 65.79521942138672 L 254.4799041748047 64.87120056152344 L 255.9673309326172 63.95049285888672 L 257.45477294921875 63.033355712890625 L 258.94219970703125 62.12007141113281 L 260.4296569824219 61.210960388183594 L 261.9170837402344 60.30638122558594 L 263.4045104980469 59.406742095947266 L 264.8919677734375 58.512516021728516 L 266.37939453125 57.624229431152344 L 267.8668212890625 56.74250030517578 L 269.3542785644531 55.868038177490234 L 270.8417053222656 55.00167465209961 L 272.3291320800781 54.144378662109375 L 273.81658935546875 53.297298431396484 L 275.30401611328125 52.4618034362793 L 276.79144287109375 51.63951873779297 L 278.2789001464844 50.83241653442383 L 279.7663269042969 50.04288864135742 L 281.2537536621094 49.27385711669922 L 282.7412109375 48.528907775878906 L 284.2286376953125 47.812469482421875 L 285.7160949707031 47.129966735839844 L 287.2035217285156 46.488006591796875 L 288.6909484863281 45.89445114135742 L 290.17840576171875 45.35820770263672 L 291.66583251953125 44.88851547241211 L 293.15325927734375 44.49340057373047 L 294.6407165527344 44.17726135253906 L 296.1281433105469 43.9384880065918 L 297.6155700683594 43.76865768432617 L 299.10302734375 43.654422760009766 L 300.5904541015625 43.5810432434082 L 302.077880859375 43.53549575805664 L 303.5653381347656 43.50788879394531 L 305.0527648925781 43.49140167236328 L 306.5401916503906 43.48165512084961 L 308.02764892578125 43.47592544555664 L 309.51507568359375 43.47256851196289 L 311.00250244140625 43.470603942871094 L 312.4899597167969 43.46945571899414 L 313.9773864746094 43.468788146972656 L 315.4648132324219 43.4683952331543 L 316.9522705078125 43.46816635131836 L 318.439697265625 43.46803665161133 L 319.9271240234375 43.46795654296875 L 321.4145812988281 43.46791076660156 L 322.9020080566406 43.46788787841797 L 324.3894348144531 43.467872619628906 L 325.87689208984375 43.46786117553711 L 327.36431884765625 43.467857360839844 L 328.85174560546875 43.46785354614258 L 330.3392028808594 43.46785354614258 L 331.8266296386719 43.46784973144531 L 333.3140563964844 43.46784973144531 L 334.801513671875 43.46784973144531 L 336.2889404296875 43.46784973144531 L 337.7763671875 43.46784973144531 L 339.2638244628906 43.46784973144531 L 340.7512512207031 43.46784973144531 L 342.23870849609375 43.46784973144531 L 343.72613525390625 43.46784973144531 L 345.21356201171875 43.46784973144531 L 346.7010192871094 43.46784973144531 L 348.1884460449219 43.46784973144531 L 349.6758728027344 43.46784973144531 L 351.163330078125 43.46784973144531 L 352.6507568359375 43.46784973144531 L 354.13818359375 43.46784973144531 L 355.6256408691406 43.46784973144531 L 357.1130676269531 43.46784973144531 L 358.6004943847656 43.46784973144531 L 360.08795166015625 43.46784973144531 L 361.57537841796875 43.46784973144531 L 363.06280517578125 43.46784973144531 L 364.5502624511719 43.46784973144531 L 366.0376892089844 43.46784973144531 L 367.5251159667969 43.46784973144531 L 369.0125732421875 43.46784973144531 L 370.5 43.46784973144531" stroke-opacity="0.30196078431372547" stroke-linejoin="bevel" stroke-miterlimit="10" stroke-width="2" stroke-dasharray="" clip-path="url(#RlAzknaPhvZE)"/><path fill="none" stroke="rgb(0,0,0)" paint-order="fill" d="M 74.5 183.5 L 370.5 183.5" stroke-opacity="1" stroke-linejoin="bevel" stroke-miterlimit="10" stroke-dasharray=""/><path fill="none" stroke="rgb(0,0,0)" paint-order="fill" d="M 74.5 189.5 L 74.5 181.5 M 123.5 189.5 L 123.5 181.5 M 173.5 189.5 L 173.5 181.5 M 222.5 189.5 L 222.5 181.5 M 271.5 189.5 L 271.5 181.5 M 321.5 189.5 L 321.5 181.5 M 370.5 189.5 L 370.5 181.5" stroke-opacity="1" stroke-linejoin="bevel" stroke-miterlimit="10" stroke-dasharray=""/><path fill="none" stroke="rgb(0,0,0)" paint-order="fill" d="M 74.5 187.5 L 74.5 183.5 M 84.5 187.5 L 84.5 183.5 M 94.5 187.5 L 94.5 183.5 M 104.5 187.5 L 104.5 183.5 M 113.5 187.5 L 113.5 183.5 M 123.5 187.5 L 123.5 183.5 M 133.5 187.5 L 133.5 183.5 M 143.5 187.5 L 143.5 183.5 M 153.5 187.5 L 153.5 183.5 M 163.5 187.5 L 163.5 183.5 M 173.5 187.5 L 173.5 183.5 M 183.5 187.5 L 183.5 183.5 M 192.5 187.5 L 192.5 183.5 M 202.5 187.5 L 202.5 183.5 M 212.5 187.5 L 212.5 183.5 M 222.5 187.5 L 222.5 183.5 M 232.5 187.5 L 232.5 183.5 M 242.5 187.5 L 242.5 183.5 M 252.5 187.5 L 252.5 183.5 M 261.5 187.5 L 261.5 183.5 M 271.5 187.5 L 271.5 183.5 M 281.5 187.5 L 281.5 183.5 M 291.5 187.5 L 291.5 183.5 M 301.5 187.5 L 301.5 183.5 M 311.5 187.5 L 311.5 183.5 M 321.5 187.5 L 321.5 183.5 M 331.5 187.5 L 331.5 183.5 M 340.5 187.5 L 340.5 183.5 M 350.5 187.5 L 350.5 183.5 M 360.5 187.5 L 360.5 183.5 M 370.5 187.5 L 370.5 183.5" stroke-opacity="1" stroke-linejoin="bevel" stroke-miterlimit="10" stroke-dasharray=""/><text fill="rgb(68,68,68)" stroke="none" font-family="Work Sans" font-size="15pt" font-style="normal" font-weight="normal" text-decoration="normal" x="69" y="207" text-anchor="start" dominant-baseline="alphabetic" transform="matrix(1, 0, 0, 1, 0.5, 0.5)" fill-opacity="1">0</text><text fill="rgb(68,68,68)" stroke="none" font-family="Work Sans" font-size="15pt" font-style="normal" font-weight="normal" text-decoration="normal" x="110.83333587646484" y="207" text-anchor="start" dominant-baseline="alphabetic" transform="matrix(1, 0, 0, 1, 0.5, 0.5)" fill-opacity="1">0.5</text><text fill="rgb(68,68,68)" stroke="none" font-family="Work Sans" font-size="15pt" font-style="normal" font-weight="normal" text-decoration="normal" x="167.6666717529297" y="207" text-anchor="start" dominant-baseline="alphabetic" transform="matrix(1, 0, 0, 1, 0.5, 0.5)" fill-opacity="1">1</text><text fill="rgb(68,68,68)" stroke="none" font-family="Work Sans" font-size="15pt" font-style="normal" font-weight="normal" text-decoration="normal" x="209.5" y="207" text-anchor="start" dominant-baseline="alphabetic" transform="matrix(1, 0, 0, 1, 0.5, 0.5)" fill-opacity="1">1.5</text><text fill="rgb(68,68,68)" stroke="none" font-family="Work Sans" font-size="15pt" font-style="normal" font-weight="normal" text-decoration="normal" x="266.3333435058594" y="207" text-anchor="start" dominant-baseline="alphabetic" transform="matrix(1, 0, 0, 1, 0.5, 0.5)" fill-opacity="1">2</text><text fill="rgb(68,68,68)" stroke="none" font-family="Work Sans" font-size="15pt" font-style="normal" font-weight="normal" text-decoration="normal" x="308.1666564941406" y="207" text-anchor="start" dominant-baseline="alphabetic" transform="matrix(1, 0, 0, 1, 0.5, 0.5)" fill-opacity="1">2.5</text><text fill="rgb(68,68,68)" stroke="none" font-family="Work Sans" font-size="15pt" font-style="normal" font-weight="normal" text-decoration="normal" x="365" y="207" text-anchor="start" dominant-baseline="alphabetic" transform="matrix(1, 0, 0, 1, 0.5, 0.5)" fill-opacity="1">3</text><text fill="rgb(68,68,68)" stroke="none" font-family="helvetica" font-size="15pt" font-style="normal" font-weight="normal" text-decoration="normal" x="165.6962890625" y="243" text-anchor="start" dominant-baseline="alphabetic" transform="matrix(1, 0, 0, 1, 0.5, 0.5)" fill-opacity="1">Time (hours)</text><path fill="none" stroke="rgb(0,0,0)" paint-order="fill" d="M 74.5 183.5 L 74.5 5.5" stroke-opacity="1" stroke-linejoin="bevel" stroke-miterlimit="10" stroke-dasharray=""/><path fill="none" stroke="rgb(0,0,0)" paint-order="fill" d="M 68.5 183.5 L 76.5 183.5 M 68.5 147.5 L 76.5 147.5 M 68.5 112.5 L 76.5 112.5 M 68.5 76.5 L 76.5 76.5 M 68.5 41.5 L 76.5 41.5 M 68.5 5.5 L 76.5 5.5" stroke-opacity="1" stroke-linejoin="bevel" stroke-miterlimit="10" stroke-dasharray=""/><path fill="none" stroke="rgb(0,0,0)" paint-order="fill" d="M 70.5 183.5 L 74.5 183.5 M 70.5 176.5 L 74.5 176.5 M 70.5 169.5 L 74.5 169.5 M 70.5 162.5 L 74.5 162.5 M 70.5 155.5 L 74.5 155.5 M 70.5 147.5 L 74.5 147.5 M 70.5 140.5 L 74.5 140.5 M 70.5 133.5 L 74.5 133.5 M 70.5 126.5 L 74.5 126.5 M 70.5 119.5 L 74.5 119.5 M 70.5 112.5 L 74.5 112.5 M 70.5 105.5 L 74.5 105.5 M 70.5 98.5 L 74.5 98.5 M 70.5 90.5 L 74.5 90.5 M 70.5 83.5 L 74.5 83.5 M 70.5 76.5 L 74.5 76.5 M 70.5 69.5 L 74.5 69.5 M 70.5 62.5 L 74.5 62.5 M 70.5 55.5 L 74.5 55.5 M 70.5 48.5 L 74.5 48.5 M 70.5 41.5 L 74.5 41.5 M 70.5 33.5 L 74.5 33.5 M 70.5 26.5 L 74.5 26.5 M 70.5 19.5 L 74.5 19.5 M 70.5 12.5 L 74.5 12.5 M 70.5 5.5 L 74.5 5.5" stroke-opacity="1" stroke-linejoin="bevel" stroke-miterlimit="10" stroke-dasharray=""/><text fill="rgb(68,68,68)" stroke="none" font-family="Work Sans" font-size="15pt" font-style="normal" font-weight="normal" text-decoration="normal" x="53" y="189.5" text-anchor="start" dominant-baseline="alphabetic" transform="matrix(1, 0, 0, 1, 0.5, 0.5)" fill-opacity="1">0</text><text fill="rgb(68,68,68)" stroke="none" font-family="Work Sans" font-size="15pt" font-style="normal" font-weight="normal" text-decoration="normal" x="53" y="153.89999389648438" text-anchor="start" dominant-baseline="alphabetic" transform="matrix(1, 0, 0, 1, 0.5, 0.5)" fill-opacity="1">5</text><text fill="rgb(68,68,68)" stroke="none" font-family="Work Sans" font-size="15pt" font-style="normal" font-weight="normal" text-decoration="normal" x="43" y="118.30000305175781" text-anchor="start" dominant-baseline="alphabetic" transform="matrix(1, 0, 0, 1, 0.5, 0.5)" fill-opacity="1">10</text><text fill="rgb(68,68,68)" stroke="none" font-family="Work Sans" font-size="15pt" font-style="normal" font-weight="normal" text-decoration="normal" x="43" y="82.69999694824219" text-anchor="start" dominant-baseline="alphabetic" transform="matrix(1, 0, 0, 1, 0.5, 0.5)" fill-opacity="1">15</text><text fill="rgb(68,68,68)" stroke="none" font-family="Work Sans" font-size="15pt" font-style="normal" font-weight="normal" text-decoration="normal" x="43" y="47.099998474121094" text-anchor="start" dominant-baseline="alphabetic" transform="matrix(1, 0, 0, 1, 0.5, 0.5)" fill-opacity="1">20</text><text fill="rgb(68,68,68)" stroke="none" font-family="Work Sans" font-size="15pt" font-style="normal" font-weight="normal" text-decoration="normal" x="43" y="13" text-anchor="start" dominant-baseline="alphabetic" transform="matrix(1, 0, 0, 1, 0.5, 0.5)" fill-opacity="1">25</text><text fill="rgb(68,68,68)" stroke="none" font-family="helvetica" font-size="15pt" font-style="normal" font-weight="normal" text-decoration="normal" x="-28.5400390625" y="90" text-anchor="start" dominant-baseline="alphabetic" transform="matrix(6.123233995736766e-17, -1, 1, 6.123233995736766e-17, -68.5, 119.5)" fill-opacity="1">MGapt (M)</text><path fill="none" stroke="none"/><text fill="rgb(68,68,68)" stroke="none" font-family="helvetica" font-size="13px" font-style="normal" font-weight="normal" text-decoration="normal" x="109" y="25" text-anchor="start" dominant-baseline="central" clip-path="url(#nTmkgkiIzpaE)" transform="matrix(1, 0, 0, 1, 0.5, 0.5)" fill-opacity="1">Experimental Data</text><path fill="rgb(0,0,128)" stroke="rgb(0,0,128)" paint-order="fill" d="M 98.5 25.5 A 4 4 0 1 1 98.49999800000016 25.496000000666665" fill-opacity="0.2" clip-path="url(#nTmkgkiIzpaE)" stroke-opacity="1" stroke-linejoin="bevel" stroke-miterlimit="10" stroke-dasharray=""/><text fill="rgb(68,68,68)" stroke="none" font-family="helvetica" font-size="13px" font-style="normal" font-weight="normal" text-decoration="normal" x="109" y="48" text-anchor="start" dominant-baseline="central" clip-path="url(#nTmkgkiIzpaE)" transform="matrix(1, 0, 0, 1, 0.5, 0.5)" fill-opacity="1">BioCRNplyer Model</text><path fill="none" stroke="rgb(255,0,255)" paint-order="fill" d="M 84.5 48.5 L 104.5 48.5" stroke-opacity="0.30196078431372547" stroke-linejoin="bevel" stroke-miterlimit="10" stroke-width="2" stroke-dasharray="" clip-path="url(#nTmkgkiIzpaE)"/><path fill="none" stroke="rgb(255,0,255)" paint-order="fill" d="M 84.5 48.5 L 104.5 48.5" stroke-opacity="0.30196078431372547" stroke-linejoin="bevel" stroke-miterlimit="10" stroke-width="2" stroke-dasharray="" clip-path="url(#nTmkgkiIzpaE)"/><path fill="none" stroke="rgb(255,0,255)" paint-order="fill" d="M 84.5 48.5 L 104.5 48.5" stroke-opacity="0.30196078431372547" stroke-linejoin="bevel" stroke-miterlimit="10" stroke-width="2" stroke-dasharray="" clip-path="url(#nTmkgkiIzpaE)"/><path fill="none" stroke="rgb(255,0,255)" paint-order="fill" d="M 84.5 48.5 L 104.5 48.5" stroke-opacity="0.30196078431372547" stroke-linejoin="bevel" stroke-miterlimit="10" stroke-width="2" stroke-dasharray="" clip-path="url(#nTmkgkiIzpaE)"/><path fill="none" stroke="rgb(255,0,255)" paint-order="fill" d="M 84.5 48.5 L 104.5 48.5" stroke-opacity="0.30196078431372547" stroke-linejoin="bevel" stroke-miterlimit="10" stroke-width="2" stroke-dasharray="" clip-path="url(#nTmkgkiIzpaE)"/></svg>