<svg version="1.1" xmlns="http://www.w3.org/2000/svg" width="400" height="250"><defs><clipPath id="tLNFTNmPiCpv"><path fill="none" stroke="none" d="M 74.5 5.5 L 370.5 5.5 L 370.5 183.5 L 74.5 183.5 L 74.5 5.5"/></clipPath><clipPath id="IIZDdsoHJKiZ"><path fill="none" stroke="none" d="M 74.5 5.5 L 370.5 5.5 L 370.5 183.5 L 74.5 183.5 L 74.5 5.5"/></clipPath><clipPath id="MmOxAfEWBCGB"><path fill="none" stroke="none" d="M 74.5 5.5 L 370.5 5.5 L 370.5 183.5 L 74.5 183.5 L 74.5 5.5"/></clipPath><clipPath id="IJLSDCcDndKC"><path fill="none" stroke="none" d="M 74.5 5.5 L 370.5 5.5 L 370.5 183.5 L 74.5 183.5 L 74.5 5.5"/></clipPath><clipPath id="EXxMpcDifuSe"><path fill="none" stroke="none" d="M 74.5 5.5 L 370.5 5.5 L 370.5 183.5 L 74.5 183.5 L 74.5 5.5"/></clipPath><clipPath id="EwtTIIWgnqCv"><path fill="none" stroke="none" d="M 74.5 5.5 L 370.5 5.5 L 370.5 183.5 L 74.5 183.5 L 74.5 5.5"/></clipPath><clipPath id="EhPUZmuNUgSS"><path fill="none" stroke="none" d="M 74.5 5.5 L 370.5 5.5 L 370.5 183.5 L 74.5 183.5 L 74.5 5.5"/></clipPath></defs><path fill="rgb(255,255,255)" stroke="none" paint-order="stroke" d="M 0.5 0.5 L 400.5 0.5 L 400.5 250.5 L 0.5 250.5 L 0.5 0.5" fill-opacity="1"/><rect fill="#FFFFFF" stroke="none" x="74" y="5" width="296" height="178" transform="matrix(1, 0, 0, 1, 0.5, 0.5)"/><path fill="rgb(255,255,255)" stroke="none" paint-order="stroke" d="M 74.5 5.5 L 370.5 5.5 L 370.5 183.5 L 74.5 183.5 L 74.5 5.5" fill-opacity="1"/><path fill="rgb(0,0,128)" stroke="rgb(0,0,128)" paint-order="fill" d="M 77.16444396972656 183.5 A 2.5 2.5 0 1 1 77.16444271972667 183.49750000041666" fill-opacity="0.2" clip-path="url(#MmOxAfEWBCGB)" stroke-opacity="1" stroke-linejoin="bevel" stroke-miterlimit="10" stroke-dasharray=""/><path fill="rgb(0,0,128)" stroke="rgb(0,0,128)" paint-order="fill" d="M 82.0977783203125 181.1319580078125 A 2.5 2.5 0 1 1 82.0977770703126 181.12945800822916" fill-opacity="0.2" clip-path="url(#MmOxAfEWBCGB)" stroke-opacity="1" stroke-linejoin="bevel" stroke-miterlimit="10" stroke-dasharray=""/><path fill="rgb(0,0,128)" stroke="rgb(0,0,128)" paint-order="fill" d="M 87.03111267089844 178.7179412841797 A 2.5 2.5 0 1 1 87.03111142089854 178.71544128459635" fill-opacity="0.2" clip-path="url(#MmOxAfEWBCGB)" stroke-opacity="1" stroke-linejoin="bevel" stroke-miterlimit="10" stroke-dasharray=""/><path fill="rgb(0,0,128)" stroke="rgb(0,0,128)" paint-order="fill" d="M 91.96444702148438 175.7153778076172 A 2.5 2.5 0 1 1 91.96444577148448 175.71287780803385" fill-opacity="0.2" clip-path="url(#MmOxAfEWBCGB)" stroke-opacity="1" stroke-linejoin="bevel" stroke-miterlimit="10" stroke-dasharray=""/><path fill="rgb(0,0,128)" stroke="rgb(0,0,128)" paint-order="fill" d="M 96.89778137207031 173.1586456298828 A 2.5 2.5 0 1 1 96.89778012207042 173.15614563029948" fill-opacity="0.2" clip-path="url(#MmOxAfEWBCGB)" stroke-opacity="1" stroke-linejoin="bevel" stroke-miterlimit="10" stroke-dasharray=""/><path fill="rgb(0,0,128)" stroke="rgb(0,0,128)" paint-order="fill" d="M 101.83110809326172 168.15426635742188 A 2.5 2.5 0 1 1 101.83110684326182 168.15176635783854" fill-opacity="0.2" clip-path="url(#MmOxAfEWBCGB)" stroke-opacity="1" stroke-linejoin="bevel" stroke-miterlimit="10" stroke-dasharray=""/><path fill="rgb(0,0,128)" stroke="rgb(0,0,128)" paint-order="fill" d="M 106.76444244384766 162.87425231933594 A 2.5 2.5 0 1 1 106.76444119384776 162.8717523197526" fill-opacity="0.2" clip-path="url(#MmOxAfEWBCGB)" stroke-opacity="1" stroke-linejoin="bevel" stroke-miterlimit="10" stroke-dasharray=""/><path fill="rgb(0,0,128)" stroke="rgb(0,0,128)" paint-order="fill" d="M 111.6977767944336 157.9420166015625 A 2.5 2.5 0 1 1 111.6977755444337 157.93951660197916" fill-opacity="0.2" clip-path="url(#MmOxAfEWBCGB)" stroke-opacity="1" stroke-linejoin="bevel" stroke-miterlimit="10" stroke-dasharray=""/><path fill="rgb(0,0,128)" stroke="rgb(0,0,128)" paint-order="fill" d="M 116.63111114501953 153.59300231933594 A 2.5 2.5 0 1 1 116.63110989501963 153.5905023197526" fill-opacity="0.2" clip-path="url(#MmOxAfEWBCGB)" stroke-opacity="1" stroke-linejoin="bevel" stroke-miterlimit="10" stroke-dasharray=""/><path fill="rgb(0,0,128)" stroke="rgb(0,0,128)" paint-order="fill" d="M 121.56444549560547 146.9593505859375 A 2.5 2.5 0 1 1 121.56444424560557 146.95685058635416" fill-opacity="0.2" clip-path="url(#MmOxAfEWBCGB)" stroke-opacity="1" stroke-linejoin="bevel" stroke-miterlimit="10" stroke-dasharray=""/><path fill="rgb(0,0,128)" stroke="rgb(0,0,128)" paint-order="fill" d="M 126.4977798461914 142.33184814453125 A 2.5 2.5 0 1 1 126.49777859619151 142.32934814494791" fill-opacity="0.2" clip-path="url(#MmOxAfEWBCGB)" stroke-opacity="1" stroke-linejoin="bevel" stroke-miterlimit="10" stroke-dasharray=""/><path fill="rgb(0,0,128)" stroke="rgb(0,0,128)" paint-order="fill" d="M 131.4311065673828 142.3936004638672 A 2.5 2.5 0 1 1 131.43110531738293 142.39110046428385" fill-opacity="0.2" clip-path="url(#MmOxAfEWBCGB)" stroke-opacity="1" stroke-linejoin="bevel" stroke-miterlimit="10" stroke-dasharray=""/><path fill="rgb(0,0,128)" stroke="rgb(0,0,128)" paint-order="fill" d="M 136.36444091796875 135.61297607421875 A 2.5 2.5 0 1 1 136.36443966796887 135.61047607463541" fill-opacity="0.2" clip-path="url(#MmOxAfEWBCGB)" stroke-opacity="1" stroke-linejoin="bevel" stroke-miterlimit="10" stroke-dasharray=""/><path fill="rgb(0,0,128)" stroke="rgb(0,0,128)" paint-order="fill" d="M 141.2977752685547 133.92977905273438 A 2.5 2.5 0 1 1 141.2977740185548 133.92727905315104" fill-opacity="0.2" clip-path="url(#MmOxAfEWBCGB)" stroke-opacity="1" stroke-linejoin="bevel" stroke-miterlimit="10" stroke-dasharray=""/><path fill="rgb(0,0,128)" stroke="rgb(0,0,128)" paint-order="fill" d="M 146.23110961914062 130.97341918945312 A 2.5 2.5 0 1 1 146.23110836914074 130.9709191898698" fill-opacity="0.2" clip-path="url(#MmOxAfEWBCGB)" stroke-opacity="1" stroke-linejoin="bevel" stroke-miterlimit="10" stroke-dasharray=""/><path fill="rgb(0,0,128)" stroke="rgb(0,0,128)" paint-order="fill" d="M 151.16444396972656 129.75408935546875 A 2.5 2.5 0 1 1 151.16444271972668 129.75158935588541" fill-opacity="0.2" clip-path="url(#MmOxAfEWBCGB)" stroke-opacity="1" stroke-linejoin="bevel" stroke-miterlimit="10" stroke-dasharray=""/><path fill="rgb(0,0,128)" stroke="rgb(0,0,128)" paint-order="fill" d="M 156.0977783203125 130.13404846191406 A 2.5 2.5 0 1 1 156.09777707031262 130.13154846233073" fill-opacity="0.2" clip-path="url(#MmOxAfEWBCGB)" stroke-opacity="1" stroke-linejoin="bevel" stroke-miterlimit="10" stroke-dasharray=""/><path fill="rgb(0,0,128)" stroke="rgb(0,0,128)" paint-order="fill" d="M 161.03111267089844 126.67449951171875 A 2.5 2.5 0 1 1 161.03111142089855 126.67199951213541" fill-opacity="0.2" clip-path="url(#MmOxAfEWBCGB)" stroke-opacity="1" stroke-linejoin="bevel" stroke-miterlimit="10" stroke-dasharray=""/><path fill="rgb(0,0,128)" stroke="rgb(0,0,128)" paint-order="fill" d="M 165.96444702148438 123.44837188720703 A 2.5 2.5 0 1 1 165.9644457714845 123.4458718876237" fill-opacity="0.2" clip-path="url(#MmOxAfEWBCGB)" stroke-opacity="1" stroke-linejoin="bevel" stroke-miterlimit="10" stroke-dasharray=""/><path fill="rgb(0,0,128)" stroke="rgb(0,0,128)" paint-order="fill" d="M 170.8977813720703 122.75386810302734 A 2.5 2.5 0 1 1 170.89778012207043 122.75136810344401" fill-opacity="0.2" clip-path="url(#MmOxAfEWBCGB)" stroke-opacity="1" stroke-linejoin="bevel" stroke-miterlimit="10" stroke-dasharray=""/><path fill="rgb(0,0,128)" stroke="rgb(0,0,128)" paint-order="fill" d="M 175.83111572265625 122.54008483886719 A 2.5 2.5 0 1 1 175.83111447265637 122.53758483928385" fill-opacity="0.2" clip-path="url(#MmOxAfEWBCGB)" stroke-opacity="1" stroke-linejoin="bevel" stroke-miterlimit="10" stroke-dasharray=""/><path fill="rgb(0,0,128)" stroke="rgb(0,0,128)" paint-order="fill" d="M 180.7644500732422 119.61359405517578 A 2.5 2.5 0 1 1 180.7644488232423 119.61109405559245" fill-opacity="0.2" clip-path="url(#MmOxAfEWBCGB)" stroke-opacity="1" stroke-linejoin="bevel" stroke-miterlimit="10" stroke-dasharray=""/><path fill="rgb(0,0,128)" stroke="rgb(0,0,128)" paint-order="fill" d="M 185.69778442382812 115.22163391113281 A 2.5 2.5 0 1 1 185.69778317382824 115.21913391154948" fill-opacity="0.2" clip-path="url(#MmOxAfEWBCGB)" stroke-opacity="1" stroke-linejoin="bevel" stroke-miterlimit="10" stroke-dasharray=""/><path fill="rgb(0,0,128)" stroke="rgb(0,0,128)" paint-order="fill" d="M 190.631103515625 108.93075561523438 A 2.5 2.5 0 1 1 190.63110226562512 108.92825561565104" fill-opacity="0.2" clip-path="url(#MmOxAfEWBCGB)" stroke-opacity="1" stroke-linejoin="bevel" stroke-miterlimit="10" stroke-dasharray=""/><path fill="rgb(0,0,128)" stroke="rgb(0,0,128)" paint-order="fill" d="M 195.56443786621094 109.10490417480469 A 2.5 2.5 0 1 1 195.56443661621105 109.10240417522135" fill-opacity="0.2" clip-path="url(#MmOxAfEWBCGB)" stroke-opacity="1" stroke-linejoin="bevel" stroke-miterlimit="10" stroke-dasharray=""/><path fill="rgb(0,0,128)" stroke="rgb(0,0,128)" paint-order="fill" d="M 200.49777221679688 105.13951873779297 A 2.5 2.5 0 1 1 200.497770966797 105.13701873820963" fill-opacity="0.2" clip-path="url(#MmOxAfEWBCGB)" stroke-opacity="1" stroke-linejoin="bevel" stroke-miterlimit="10" stroke-dasharray=""/><path fill="rgb(0,0,128)" stroke="rgb(0,0,128)" paint-order="fill" d="M 205.4311065673828 91.99244689941406 A 2.5 2.5 0 1 1 205.43110531738293 91.98994689983073" fill-opacity="0.2" clip-path="url(#MmOxAfEWBCGB)" stroke-opacity="1" stroke-linejoin="bevel" stroke-miterlimit="10" stroke-dasharray=""/><path fill="rgb(0,0,128)" stroke="rgb(0,0,128)" paint-order="fill" d="M 210.36444091796875 91.38345336914062 A 2.5 2.5 0 1 1 210.36443966796887 91.38095336955729" fill-opacity="0.2" clip-path="url(#MmOxAfEWBCGB)" stroke-opacity="1" stroke-linejoin="bevel" stroke-miterlimit="10" stroke-dasharray=""/><path fill="rgb(0,0,128)" stroke="rgb(0,0,128)" paint-order="fill" d="M 215.2977752685547 89.11566925048828 A 2.5 2.5 0 1 1 215.2977740185548 89.11316925090495" fill-opacity="0.2" clip-path="url(#MmOxAfEWBCGB)" stroke-opacity="1" stroke-linejoin="bevel" stroke-miterlimit="10" stroke-dasharray=""/><path fill="rgb(0,0,128)" stroke="rgb(0,0,128)" paint-order="fill" d="M 220.23110961914062 90.52767181396484 A 2.5 2.5 0 1 1 220.23110836914074 90.52517181438151" fill-opacity="0.2" clip-path="url(#MmOxAfEWBCGB)" stroke-opacity="1" stroke-linejoin="bevel" stroke-miterlimit="10" stroke-dasharray=""/><path fill="rgb(0,0,128)" stroke="rgb(0,0,128)" paint-order="fill" d="M 225.16444396972656 85.00580596923828 A 2.5 2.5 0 1 1 225.16444271972668 85.00330596965495" fill-opacity="0.2" clip-path="url(#MmOxAfEWBCGB)" stroke-opacity="1" stroke-linejoin="bevel" stroke-miterlimit="10" stroke-dasharray=""/><path fill="rgb(0,0,128)" stroke="rgb(0,0,128)" paint-order="fill" d="M 230.0977783203125 77.97777557373047 A 2.5 2.5 0 1 1 230.09777707031262 77.97527557414713" fill-opacity="0.2" clip-path="url(#MmOxAfEWBCGB)" stroke-opacity="1" stroke-linejoin="bevel" stroke-miterlimit="10" stroke-dasharray=""/><path fill="rgb(0,0,128)" stroke="rgb(0,0,128)" paint-order="fill" d="M 235.03111267089844 82.20291137695312 A 2.5 2.5 0 1 1 235.03111142089855 82.20041137736979" fill-opacity="0.2" clip-path="url(#MmOxAfEWBCGB)" stroke-opacity="1" stroke-linejoin="bevel" stroke-miterlimit="10" stroke-dasharray=""/><path fill="rgb(0,0,128)" stroke="rgb(0,0,128)" paint-order="fill" d="M 239.96444702148438 77.54801177978516 A 2.5 2.5 0 1 1 239.9644457714845 77.54551178020182" fill-opacity="0.2" clip-path="url(#MmOxAfEWBCGB)" stroke-opacity="1" stroke-linejoin="bevel" stroke-miterlimit="10" stroke-dasharray=""/><path fill="rgb(0,0,128)" stroke="rgb(0,0,128)" paint-order="fill" d="M 244.8977813720703 74.4653091430664 A 2.5 2.5 0 1 1 244.89778012207043 74.46280914348307" fill-opacity="0.2" clip-path="url(#MmOxAfEWBCGB)" stroke-opacity="1" stroke-linejoin="bevel" stroke-miterlimit="10" stroke-dasharray=""/><path fill="rgb(0,0,128)" stroke="rgb(0,0,128)" paint-order="fill" d="M 249.83111572265625 75.34294128417969 A 2.5 2.5 0 1 1 249.83111447265637 75.34044128459635" fill-opacity="0.2" clip-path="url(#MmOxAfEWBCGB)" stroke-opacity="1" stroke-linejoin="bevel" stroke-miterlimit="10" stroke-dasharray=""/><path fill="rgb(0,0,128)" stroke="rgb(0,0,128)" paint-order="fill" d="M 254.7644500732422 75.75831604003906 A 2.5 2.5 0 1 1 254.7644488232423 75.75581604045573" fill-opacity="0.2" clip-path="url(#MmOxAfEWBCGB)" stroke-opacity="1" stroke-linejoin="bevel" stroke-miterlimit="10" stroke-dasharray=""/><path fill="rgb(0,0,128)" stroke="rgb(0,0,128)" paint-order="fill" d="M 259.6977844238281 70.5361099243164 A 2.5 2.5 0 1 1 259.6977831738282 70.53360992473307" fill-opacity="0.2" clip-path="url(#MmOxAfEWBCGB)" stroke-opacity="1" stroke-linejoin="bevel" stroke-miterlimit="10" stroke-dasharray=""/><path fill="rgb(0,0,128)" stroke="rgb(0,0,128)" paint-order="fill" d="M 264.631103515625 64.1838607788086 A 2.5 2.5 0 1 1 264.6311022656251 64.18136077922526" fill-opacity="0.2" clip-path="url(#MmOxAfEWBCGB)" stroke-opacity="1" stroke-linejoin="bevel" stroke-miterlimit="10" stroke-dasharray=""/><path fill="rgb(0,0,128)" stroke="rgb(0,0,128)" paint-order="fill" d="M 269.564453125 64.50325012207031 A 2.5 2.5 0 1 1 269.5644518750001 64.50075012248698" fill-opacity="0.2" clip-path="url(#MmOxAfEWBCGB)" stroke-opacity="1" stroke-linejoin="bevel" stroke-miterlimit="10" stroke-dasharray=""/><path fill="rgb(0,0,128)" stroke="rgb(0,0,128)" paint-order="fill" d="M 274.4977722167969 61.33713912963867 A 2.5 2.5 0 1 1 274.49777096679696 61.334639130055336" fill-opacity="0.2" clip-path="url(#MmOxAfEWBCGB)" stroke-opacity="1" stroke-linejoin="bevel" stroke-miterlimit="10" stroke-dasharray=""/><path fill="rgb(0,0,128)" stroke="rgb(0,0,128)" paint-order="fill" d="M 279.4311218261719 55.58282470703125 A 2.5 2.5 0 1 1 279.43112057617196 55.580324707447915" fill-opacity="0.2" clip-path="url(#MmOxAfEWBCGB)" stroke-opacity="1" stroke-linejoin="bevel" stroke-miterlimit="10" stroke-dasharray=""/><path fill="rgb(0,0,128)" stroke="rgb(0,0,128)" paint-order="fill" d="M 284.36444091796875 56.295806884765625 A 2.5 2.5 0 1 1 284.36443966796884 56.29330688518229" fill-opacity="0.2" clip-path="url(#MmOxAfEWBCGB)" stroke-opacity="1" stroke-linejoin="bevel" stroke-miterlimit="10" stroke-dasharray=""/><path fill="rgb(0,0,128)" stroke="rgb(0,0,128)" paint-order="fill" d="M 289.29779052734375 51.95329666137695 A 2.5 2.5 0 1 1 289.29778927734384 51.95079666179362" fill-opacity="0.2" clip-path="url(#MmOxAfEWBCGB)" stroke-opacity="1" stroke-linejoin="bevel" stroke-miterlimit="10" stroke-dasharray=""/><path fill="rgb(0,0,128)" stroke="rgb(0,0,128)" paint-order="fill" d="M 294.2311096191406 49.33028793334961 A 2.5 2.5 0 1 1 294.2311083691407 49.327787933766274" fill-opacity="0.2" clip-path="url(#MmOxAfEWBCGB)" stroke-opacity="1" stroke-linejoin="bevel" stroke-miterlimit="10" stroke-dasharray=""/><path fill="rgb(0,0,128)" stroke="rgb(0,0,128)" paint-order="fill" d="M 299.1644592285156 46.124595642089844 A 2.5 2.5 0 1 1 299.1644579785157 46.12209564250651" fill-opacity="0.2" clip-path="url(#MmOxAfEWBCGB)" stroke-opacity="1" stroke-linejoin="bevel" stroke-miterlimit="10" stroke-dasharray=""/><path fill="rgb(0,0,128)" stroke="rgb(0,0,128)" paint-order="fill" d="M 304.0977783203125 49.64967346191406 A 2.5 2.5 0 1 1 304.0977770703126 49.64717346233073" fill-opacity="0.2" clip-path="url(#MmOxAfEWBCGB)" stroke-opacity="1" stroke-linejoin="bevel" stroke-miterlimit="10" stroke-dasharray=""/><path fill="rgb(0,0,128)" stroke="rgb(0,0,128)" paint-order="fill" d="M 309.0310974121094 56.47016906738281 A 2.5 2.5 0 1 1 309.03109616210946 56.46766906779948" fill-opacity="0.2" clip-path="url(#MmOxAfEWBCGB)" stroke-opacity="1" stroke-linejoin="bevel" stroke-miterlimit="10" stroke-dasharray=""/><path fill="rgb(0,0,128)" stroke="rgb(0,0,128)" paint-order="fill" d="M 313.9644470214844 51.328670501708984 A 2.5 2.5 0 1 1 313.96444577148446 51.32617050212565" fill-opacity="0.2" clip-path="url(#MmOxAfEWBCGB)" stroke-opacity="1" stroke-linejoin="bevel" stroke-miterlimit="10" stroke-dasharray=""/><path fill="rgb(0,0,128)" stroke="rgb(0,0,128)" paint-order="fill" d="M 318.89776611328125 53.953147888183594 A 2.5 2.5 0 1 1 318.89776486328134 53.95064788860026" fill-opacity="0.2" clip-path="url(#MmOxAfEWBCGB)" stroke-opacity="1" stroke-linejoin="bevel" stroke-miterlimit="10" stroke-dasharray=""/><path fill="rgb(0,0,128)" stroke="rgb(0,0,128)" paint-order="fill" d="M 323.83111572265625 54.95030212402344 A 2.5 2.5 0 1 1 323.83111447265634 54.9478021244401" fill-opacity="0.2" clip-path="url(#MmOxAfEWBCGB)" stroke-opacity="1" stroke-linejoin="bevel" stroke-miterlimit="10" stroke-dasharray=""/><path fill="rgb(0,0,128)" stroke="rgb(0,0,128)" paint-order="fill" d="M 328.7644348144531 54.12767028808594 A 2.5 2.5 0 1 1 328.7644335644532 54.1251702885026" fill-opacity="0.2" clip-path="url(#MmOxAfEWBCGB)" stroke-opacity="1" stroke-linejoin="bevel" stroke-miterlimit="10" stroke-dasharray=""/><path fill="rgb(0,0,128)" stroke="rgb(0,0,128)" paint-order="fill" d="M 333.6977844238281 55.358699798583984 A 2.5 2.5 0 1 1 333.6977831738282 55.35619979900065" fill-opacity="0.2" clip-path="url(#MmOxAfEWBCGB)" stroke-opacity="1" stroke-linejoin="bevel" stroke-miterlimit="10" stroke-dasharray=""/><path fill="rgb(0,0,128)" stroke="rgb(0,0,128)" paint-order="fill" d="M 338.631103515625 58.280548095703125 A 2.5 2.5 0 1 1 338.6311022656251 58.27804809611979" fill-opacity="0.2" clip-path="url(#MmOxAfEWBCGB)" stroke-opacity="1" stroke-linejoin="bevel" stroke-miterlimit="10" stroke-dasharray=""/><path fill="rgb(0,0,128)" stroke="rgb(0,0,128)" paint-order="fill" d="M 343.564453125 55.32158660888672 A 2.5 2.5 0 1 1 343.5644518750001 55.31908660930338" fill-opacity="0.2" clip-path="url(#MmOxAfEWBCGB)" stroke-opacity="1" stroke-linejoin="bevel" stroke-miterlimit="10" stroke-dasharray=""/><path fill="rgb(0,0,128)" stroke="rgb(0,0,128)" paint-order="fill" d="M 348.4977722167969 58.051483154296875 A 2.5 2.5 0 1 1 348.49777096679696 58.04898315471354" fill-opacity="0.2" clip-path="url(#MmOxAfEWBCGB)" stroke-opacity="1" stroke-linejoin="bevel" stroke-miterlimit="10" stroke-dasharray=""/><path fill="rgb(0,0,128)" stroke="rgb(0,0,128)" paint-order="fill" d="M 353.4311218261719 55.634918212890625 A 2.5 2.5 0 1 1 353.43112057617196 55.63241821330729" fill-opacity="0.2" clip-path="url(#MmOxAfEWBCGB)" stroke-opacity="1" stroke-linejoin="bevel" stroke-miterlimit="10" stroke-dasharray=""/><path fill="rgb(0,0,128)" stroke="rgb(0,0,128)" paint-order="fill" d="M 358.36444091796875 58.291831970214844 A 2.5 2.5 0 1 1 358.36443966796884 58.28933197063151" fill-opacity="0.2" clip-path="url(#MmOxAfEWBCGB)" stroke-opacity="1" stroke-linejoin="bevel" stroke-miterlimit="10" stroke-dasharray=""/><path fill="rgb(0,0,128)" stroke="rgb(0,0,128)" paint-order="fill" d="M 363.29779052734375 58.435630798339844 A 2.5 2.5 0 1 1 363.29778927734384 58.43313079875651" fill-opacity="0.2" clip-path="url(#MmOxAfEWBCGB)" stroke-opacity="1" stroke-linejoin="bevel" stroke-miterlimit="10" stroke-dasharray=""/><path fill="rgb(0,0,128)" stroke="rgb(0,0,128)" paint-order="fill" d="M 368.2311096191406 57.23155975341797 A 2.5 2.5 0 1 1 368.2311083691407 57.22905975383463" fill-opacity="0.2" clip-path="url(#MmOxAfEWBCGB)" stroke-opacity="1" stroke-linejoin="bevel" stroke-miterlimit="10" stroke-dasharray=""/><path fill="none" stroke="rgb(0,0,128)" paint-order="fill" d="M 74.66444396972656 183.71563720703125 L 74.66444396972656 183.28436279296875" stroke-opacity="1" stroke-linejoin="bevel" stroke-miterlimit="10" stroke-dasharray="" clip-path="url(#IJLSDCcDndKC)"/><path fill="none" stroke="rgb(0,0,128)" paint-order="fill" d="M 79.5977783203125 181.27027893066406 L 79.5977783203125 180.99365234375" stroke-opacity="1" stroke-linejoin="bevel" stroke-miterlimit="10" stroke-dasharray="" clip-path="url(#IJLSDCcDndKC)"/><path fill="none" stroke="rgb(0,0,128)" paint-order="fill" d="M 84.53111267089844 178.75674438476562 L 84.53111267089844 178.67913818359375" stroke-opacity="1" stroke-linejoin="bevel" stroke-miterlimit="10" stroke-dasharray="" clip-path="url(#IJLSDCcDndKC)"/><path fill="none" stroke="rgb(0,0,128)" paint-order="fill" d="M 89.46444702148438 176.46292114257812 L 89.46444702148438 174.9678497314453" stroke-opacity="1" stroke-linejoin="bevel" stroke-miterlimit="10" stroke-dasharray="" clip-path="url(#IJLSDCcDndKC)"/><path fill="none" stroke="rgb(0,0,128)" paint-order="fill" d="M 94.39778137207031 173.89955139160156 L 94.39778137207031 172.417724609375" stroke-opacity="1" stroke-linejoin="bevel" stroke-miterlimit="10" stroke-dasharray="" clip-path="url(#IJLSDCcDndKC)"/><path fill="none" stroke="rgb(0,0,128)" paint-order="fill" d="M 99.33110809326172 168.54885864257812 L 99.33110809326172 167.7596893310547" stroke-opacity="1" stroke-linejoin="bevel" stroke-miterlimit="10" stroke-dasharray="" clip-path="url(#IJLSDCcDndKC)"/><path fill="none" stroke="rgb(0,0,128)" paint-order="fill" d="M 104.26444244384766 163.01748657226562 L 104.26444244384766 162.73101806640625" stroke-opacity="1" stroke-linejoin="bevel" stroke-miterlimit="10" stroke-dasharray="" clip-path="url(#IJLSDCcDndKC)"/><path fill="none" stroke="rgb(0,0,128)" paint-order="fill" d="M 109.1977767944336 158.87213134765625 L 109.1977767944336 157.0119171142578" stroke-opacity="1" stroke-linejoin="bevel" stroke-miterlimit="10" stroke-dasharray="" clip-path="url(#IJLSDCcDndKC)"/><path fill="none" stroke="rgb(0,0,128)" paint-order="fill" d="M 114.13111114501953 154.03277587890625 L 114.13111114501953 153.1532440185547" stroke-opacity="1" stroke-linejoin="bevel" stroke-miterlimit="10" stroke-dasharray="" clip-path="url(#IJLSDCcDndKC)"/><path fill="none" stroke="rgb(0,0,128)" paint-order="fill" d="M 119.06444549560547 147.49380493164062 L 119.06444549560547 146.42489624023438" stroke-opacity="1" stroke-linejoin="bevel" stroke-miterlimit="10" stroke-dasharray="" clip-path="url(#IJLSDCcDndKC)"/><path fill="none" stroke="rgb(0,0,128)" paint-order="fill" d="M 123.9977798461914 144.3944549560547 L 123.9977798461914 140.2692413330078" stroke-opacity="1" stroke-linejoin="bevel" stroke-miterlimit="10" stroke-dasharray="" clip-path="url(#IJLSDCcDndKC)"/><path fill="none" stroke="rgb(0,0,128)" paint-order="fill" d="M 128.9311065673828 143.09201049804688 L 128.9311065673828 141.6951904296875" stroke-opacity="1" stroke-linejoin="bevel" stroke-miterlimit="10" stroke-dasharray="" clip-path="url(#IJLSDCcDndKC)"/><path fill="none" stroke="rgb(0,0,128)" paint-order="fill" d="M 133.86444091796875 138.3673095703125 L 133.86444091796875 132.858642578125" stroke-opacity="1" stroke-linejoin="bevel" stroke-miterlimit="10" stroke-dasharray="" clip-path="url(#IJLSDCcDndKC)"/><path fill="none" stroke="rgb(0,0,128)" paint-order="fill" d="M 138.7977752685547 135.03433227539062 L 138.7977752685547 132.82521057128906" stroke-opacity="1" stroke-linejoin="bevel" stroke-miterlimit="10" stroke-dasharray="" clip-path="url(#IJLSDCcDndKC)"/><path fill="none" stroke="rgb(0,0,128)" paint-order="fill" d="M 143.73110961914062 131.762451171875 L 143.73110961914062 130.1843719482422" stroke-opacity="1" stroke-linejoin="bevel" stroke-miterlimit="10" stroke-dasharray="" clip-path="url(#IJLSDCcDndKC)"/><path fill="none" stroke="rgb(0,0,128)" paint-order="fill" d="M 148.66444396972656 131.262939453125 L 148.66444396972656 128.24524688720703" stroke-opacity="1" stroke-linejoin="bevel" stroke-miterlimit="10" stroke-dasharray="" clip-path="url(#IJLSDCcDndKC)"/><path fill="none" stroke="rgb(0,0,128)" paint-order="fill" d="M 153.5977783203125 132.0046844482422 L 153.5977783203125 128.26342010498047" stroke-opacity="1" stroke-linejoin="bevel" stroke-miterlimit="10" stroke-dasharray="" clip-path="url(#IJLSDCcDndKC)"/><path fill="none" stroke="rgb(0,0,128)" paint-order="fill" d="M 158.53111267089844 128.5421142578125 L 158.53111267089844 124.80689239501953" stroke-opacity="1" stroke-linejoin="bevel" stroke-miterlimit="10" stroke-dasharray="" clip-path="url(#IJLSDCcDndKC)"/><path fill="none" stroke="rgb(0,0,128)" paint-order="fill" d="M 163.46444702148438 124.4014663696289 L 163.46444702148438 122.49526977539062" stroke-opacity="1" stroke-linejoin="bevel" stroke-miterlimit="10" stroke-dasharray="" clip-path="url(#IJLSDCcDndKC)"/><path fill="none" stroke="rgb(0,0,128)" paint-order="fill" d="M 168.3977813720703 124.40703582763672 L 168.3977813720703 121.10069274902344" stroke-opacity="1" stroke-linejoin="bevel" stroke-miterlimit="10" stroke-dasharray="" clip-path="url(#IJLSDCcDndKC)"/><path fill="none" stroke="rgb(0,0,128)" paint-order="fill" d="M 173.33111572265625 124.6919937133789 L 173.33111572265625 120.38817596435547" stroke-opacity="1" stroke-linejoin="bevel" stroke-miterlimit="10" stroke-dasharray="" clip-path="url(#IJLSDCcDndKC)"/><path fill="none" stroke="rgb(0,0,128)" paint-order="fill" d="M 178.2644500732422 120.88749694824219 L 178.2644500732422 118.33968353271484" stroke-opacity="1" stroke-linejoin="bevel" stroke-miterlimit="10" stroke-dasharray="" clip-path="url(#IJLSDCcDndKC)"/><path fill="none" stroke="rgb(0,0,128)" paint-order="fill" d="M 183.19778442382812 117.43228149414062 L 183.19778442382812 113.01097869873047" stroke-opacity="1" stroke-linejoin="bevel" stroke-miterlimit="10" stroke-dasharray="" clip-path="url(#IJLSDCcDndKC)"/><path fill="none" stroke="rgb(0,0,128)" paint-order="fill" d="M 188.131103515625 111.21965789794922 L 188.131103515625 106.64185333251953" stroke-opacity="1" stroke-linejoin="bevel" stroke-miterlimit="10" stroke-dasharray="" clip-path="url(#IJLSDCcDndKC)"/><path fill="none" stroke="rgb(0,0,128)" paint-order="fill" d="M 193.06443786621094 109.83320617675781 L 193.06443786621094 108.37660217285156" stroke-opacity="1" stroke-linejoin="bevel" stroke-miterlimit="10" stroke-dasharray="" clip-path="url(#IJLSDCcDndKC)"/><path fill="none" stroke="rgb(0,0,128)" paint-order="fill" d="M 197.99777221679688 107.48697662353516 L 197.99777221679688 102.79206848144531" stroke-opacity="1" stroke-linejoin="bevel" stroke-miterlimit="10" stroke-dasharray="" clip-path="url(#IJLSDCcDndKC)"/><path fill="none" stroke="rgb(0,0,128)" paint-order="fill" d="M 202.9311065673828 92.9250717163086 L 202.9311065673828 91.05982208251953" stroke-opacity="1" stroke-linejoin="bevel" stroke-miterlimit="10" stroke-dasharray="" clip-path="url(#IJLSDCcDndKC)"/><path fill="none" stroke="rgb(0,0,128)" paint-order="fill" d="M 207.86444091796875 93.89607238769531 L 207.86444091796875 88.87083435058594" stroke-opacity="1" stroke-linejoin="bevel" stroke-miterlimit="10" stroke-dasharray="" clip-path="url(#IJLSDCcDndKC)"/><path fill="none" stroke="rgb(0,0,128)" paint-order="fill" d="M 212.7977752685547 90.15168762207031 L 212.7977752685547 88.07965087890625" stroke-opacity="1" stroke-linejoin="bevel" stroke-miterlimit="10" stroke-dasharray="" clip-path="url(#IJLSDCcDndKC)"/><path fill="none" stroke="rgb(0,0,128)" paint-order="fill" d="M 217.73110961914062 91.6111831665039 L 217.73110961914062 89.44416046142578" stroke-opacity="1" stroke-linejoin="bevel" stroke-miterlimit="10" stroke-dasharray="" clip-path="url(#IJLSDCcDndKC)"/><path fill="none" stroke="rgb(0,0,128)" paint-order="fill" d="M 222.66444396972656 88.30268859863281 L 222.66444396972656 81.70892333984375" stroke-opacity="1" stroke-linejoin="bevel" stroke-miterlimit="10" stroke-dasharray="" clip-path="url(#IJLSDCcDndKC)"/><path fill="none" stroke="rgb(0,0,128)" paint-order="fill" d="M 227.5977783203125 80.19070434570312 L 227.5977783203125 75.76485443115234" stroke-opacity="1" stroke-linejoin="bevel" stroke-miterlimit="10" stroke-dasharray="" clip-path="url(#IJLSDCcDndKC)"/><path fill="none" stroke="rgb(0,0,128)" paint-order="fill" d="M 232.53111267089844 87.08615112304688 L 232.53111267089844 77.3196792602539" stroke-opacity="1" stroke-linejoin="bevel" stroke-miterlimit="10" stroke-dasharray="" clip-path="url(#IJLSDCcDndKC)"/><path fill="none" stroke="rgb(0,0,128)" paint-order="fill" d="M 237.46444702148438 80.5899429321289 L 237.46444702148438 74.5060806274414" stroke-opacity="1" stroke-linejoin="bevel" stroke-miterlimit="10" stroke-dasharray="" clip-path="url(#IJLSDCcDndKC)"/><path fill="none" stroke="rgb(0,0,128)" paint-order="fill" d="M 242.3977813720703 76.58259582519531 L 242.3977813720703 72.3480224609375" stroke-opacity="1" stroke-linejoin="bevel" stroke-miterlimit="10" stroke-dasharray="" clip-path="url(#IJLSDCcDndKC)"/><path fill="none" stroke="rgb(0,0,128)" paint-order="fill" d="M 247.33111572265625 77.72266387939453 L 247.33111572265625 72.96322631835938" stroke-opacity="1" stroke-linejoin="bevel" stroke-miterlimit="10" stroke-dasharray="" clip-path="url(#IJLSDCcDndKC)"/><path fill="none" stroke="rgb(0,0,128)" paint-order="fill" d="M 252.2644500732422 80.2761459350586 L 252.2644500732422 71.24048614501953" stroke-opacity="1" stroke-linejoin="bevel" stroke-miterlimit="10" stroke-dasharray="" clip-path="url(#IJLSDCcDndKC)"/><path fill="none" stroke="rgb(0,0,128)" paint-order="fill" d="M 257.1977844238281 74.49972534179688 L 257.1977844238281 66.57249450683594" stroke-opacity="1" stroke-linejoin="bevel" stroke-miterlimit="10" stroke-dasharray="" clip-path="url(#IJLSDCcDndKC)"/><path fill="none" stroke="rgb(0,0,128)" paint-order="fill" d="M 262.131103515625 67.27864074707031 L 262.131103515625 61.08907699584961" stroke-opacity="1" stroke-linejoin="bevel" stroke-miterlimit="10" stroke-dasharray="" clip-path="url(#IJLSDCcDndKC)"/><path fill="none" stroke="rgb(0,0,128)" paint-order="fill" d="M 267.064453125 68.91668701171875 L 267.064453125 60.08981704711914" stroke-opacity="1" stroke-linejoin="bevel" stroke-miterlimit="10" stroke-dasharray="" clip-path="url(#IJLSDCcDndKC)"/><path fill="none" stroke="rgb(0,0,128)" paint-order="fill" d="M 271.9977722167969 64.14396286010742 L 271.9977722167969 58.53031921386719" stroke-opacity="1" stroke-linejoin="bevel" stroke-miterlimit="10" stroke-dasharray="" clip-path="url(#IJLSDCcDndKC)"/><path fill="none" stroke="rgb(0,0,128)" paint-order="fill" d="M 276.9311218261719 57.947757720947266 L 276.9311218261719 53.217891693115234" stroke-opacity="1" stroke-linejoin="bevel" stroke-miterlimit="10" stroke-dasharray="" clip-path="url(#IJLSDCcDndKC)"/><path fill="none" stroke="rgb(0,0,128)" paint-order="fill" d="M 281.86444091796875 60.12869644165039 L 281.86444091796875 52.462921142578125" stroke-opacity="1" stroke-linejoin="bevel" stroke-miterlimit="10" stroke-dasharray="" clip-path="url(#IJLSDCcDndKC)"/><path fill="none" stroke="rgb(0,0,128)" paint-order="fill" d="M 286.79779052734375 52.180809020996094 L 286.79779052734375 51.72578811645508" stroke-opacity="1" stroke-linejoin="bevel" stroke-miterlimit="10" stroke-dasharray="" clip-path="url(#IJLSDCcDndKC)"/><path fill="none" stroke="rgb(0,0,128)" paint-order="fill" d="M 291.7311096191406 49.70182418823242 L 291.7311096191406 48.95875549316406" stroke-opacity="1" stroke-linejoin="bevel" stroke-miterlimit="10" stroke-dasharray="" clip-path="url(#IJLSDCcDndKC)"/><path fill="none" stroke="rgb(0,0,128)" paint-order="fill" d="M 296.6644592285156 52.89237976074219 L 296.6644592285156 39.3568115234375" stroke-opacity="1" stroke-linejoin="bevel" stroke-miterlimit="10" stroke-dasharray="" clip-path="url(#IJLSDCcDndKC)"/><path fill="none" stroke="rgb(0,0,128)" paint-order="fill" d="M 301.5977783203125 50.43152618408203 L 301.5977783203125 48.867820739746094" stroke-opacity="1" stroke-linejoin="bevel" stroke-miterlimit="10" stroke-dasharray="" clip-path="url(#IJLSDCcDndKC)"/><path fill="none" stroke="rgb(0,0,128)" paint-order="fill" d="M 306.5310974121094 60.92958068847656 L 306.5310974121094 52.01076126098633" stroke-opacity="1" stroke-linejoin="bevel" stroke-miterlimit="10" stroke-dasharray="" clip-path="url(#IJLSDCcDndKC)"/><path fill="none" stroke="rgb(0,0,128)" paint-order="fill" d="M 311.4644470214844 54.35422897338867 L 311.4644470214844 48.30310821533203" stroke-opacity="1" stroke-linejoin="bevel" stroke-miterlimit="10" stroke-dasharray="" clip-path="url(#IJLSDCcDndKC)"/><path fill="none" stroke="rgb(0,0,128)" paint-order="fill" d="M 316.39776611328125 54.4283332824707 L 316.39776611328125 53.477962493896484" stroke-opacity="1" stroke-linejoin="bevel" stroke-miterlimit="10" stroke-dasharray="" clip-path="url(#IJLSDCcDndKC)"/><path fill="none" stroke="rgb(0,0,128)" paint-order="fill" d="M 321.33111572265625 59.97560501098633 L 321.33111572265625 49.92500305175781" stroke-opacity="1" stroke-linejoin="bevel" stroke-miterlimit="10" stroke-dasharray="" clip-path="url(#IJLSDCcDndKC)"/><path fill="none" stroke="rgb(0,0,128)" paint-order="fill" d="M 326.2644348144531 57.1403923034668 L 326.2644348144531 51.114952087402344" stroke-opacity="1" stroke-linejoin="bevel" stroke-miterlimit="10" stroke-dasharray="" clip-path="url(#IJLSDCcDndKC)"/><path fill="none" stroke="rgb(0,0,128)" paint-order="fill" d="M 331.1977844238281 57.10811233520508 L 331.1977844238281 53.60928726196289" stroke-opacity="1" stroke-linejoin="bevel" stroke-miterlimit="10" stroke-dasharray="" clip-path="url(#IJLSDCcDndKC)"/><path fill="none" stroke="rgb(0,0,128)" paint-order="fill" d="M 336.131103515625 62.23661422729492 L 336.131103515625 54.324485778808594" stroke-opacity="1" stroke-linejoin="bevel" stroke-miterlimit="10" stroke-dasharray="" clip-path="url(#IJLSDCcDndKC)"/><path fill="none" stroke="rgb(0,0,128)" paint-order="fill" d="M 341.064453125 56.50102233886719 L 341.064453125 54.14215087890625" stroke-opacity="1" stroke-linejoin="bevel" stroke-miterlimit="10" stroke-dasharray="" clip-path="url(#IJLSDCcDndKC)"/><path fill="none" stroke="rgb(0,0,128)" paint-order="fill" d="M 345.9977722167969 59.65779495239258 L 345.9977722167969 56.44517135620117" stroke-opacity="1" stroke-linejoin="bevel" stroke-miterlimit="10" stroke-dasharray="" clip-path="url(#IJLSDCcDndKC)"/><path fill="none" stroke="rgb(0,0,128)" paint-order="fill" d="M 350.9311218261719 58.031166076660156 L 350.9311218261719 53.23866653442383" stroke-opacity="1" stroke-linejoin="bevel" stroke-miterlimit="10" stroke-dasharray="" clip-path="url(#IJLSDCcDndKC)"/><path fill="none" stroke="rgb(0,0,128)" paint-order="fill" d="M 355.86444091796875 60.30194854736328 L 355.86444091796875 56.281715393066406" stroke-opacity="1" stroke-linejoin="bevel" stroke-miterlimit="10" stroke-dasharray="" clip-path="url(#IJLSDCcDndKC)"/><path fill="none" stroke="rgb(0,0,128)" paint-order="fill" d="M 360.79779052734375 59.713680267333984 L 360.79779052734375 57.1575813293457" stroke-opacity="1" stroke-linejoin="bevel" stroke-miterlimit="10" stroke-dasharray="" clip-path="url(#IJLSDCcDndKC)"/><path fill="none" stroke="rgb(0,0,128)" paint-order="fill" d="M 365.7311096191406 60.67565155029297 L 365.7311096191406 53.78746795654297" stroke-opacity="1" stroke-linejoin="bevel" stroke-miterlimit="10" stroke-dasharray="" clip-path="url(#IJLSDCcDndKC)"/><path fill="none" stroke="rgb(255,0,255)" paint-order="fill" d="M 74.66444396972656 183.5 L 79.5977783203125 182.36795043945312 L 84.53111267089844 181.23907470703125 L 89.46444702148438 180.11029052734375 L 94.39778137207031 178.98159790039062 L 99.33110809326172 177.8529815673828 L 104.26444244384766 176.72445678710938 L 109.1977767944336 175.5960235595703 L 114.13111114501953 174.4676971435547 L 119.06444549560547 173.33946228027344 L 123.9977798461914 172.21131896972656 L 128.9311065673828 171.08326721191406 L 133.86444091796875 169.95533752441406 L 138.7977752685547 168.82748413085938 L 143.73110961914062 167.69973754882812 L 148.66444396972656 166.5720977783203 L 153.5977783203125 165.444580078125 L 158.53111267089844 164.31715393066406 L 163.46444702148438 163.1898193359375 L 168.3977813720703 162.0626220703125 L 173.33111572265625 160.93553161621094 L 178.2644500732422 159.8085479736328 L 183.19778442382812 158.68167114257812 L 188.131103515625 157.554931640625 L 193.06443786621094 156.4282989501953 L 197.99777221679688 155.30178833007812 L 202.9311065673828 154.17539978027344 L 207.86444091796875 153.0491485595703 L 212.7977752685547 151.92300415039062 L 217.73110961914062 150.7969970703125 L 222.66444396972656 149.671142578125 L 227.5977783203125 148.54539489746094 L 232.53111267089844 147.41978454589844 L 237.46444702148438 146.29432678222656 L 242.3977813720703 145.16900634765625 L 247.33111572265625 144.04380798339844 L 252.2644500732422 142.91879272460938 L 257.1977844238281 141.7938995361328 L 262.131103515625 140.66915893554688 L 267.064453125 139.54458618164062 L 271.9977722167969 138.420166015625 L 276.9311218261719 137.2958984375 L 281.86444091796875 136.1717987060547 L 286.79779052734375 135.04786682128906 L 291.7311096191406 133.9241180419922 L 296.6644592285156 132.80052185058594 L 301.5977783203125 131.6771240234375 L 306.5310974121094 130.55389404296875 L 311.4644470214844 129.43084716796875 L 316.39776611328125 128.30799865722656 L 321.33111572265625 127.18534088134766 L 326.2644348144531 126.06288146972656 L 331.1977844238281 124.94062042236328 L 336.131103515625 123.81856536865234 L 341.064453125 122.69672393798828 L 345.9977722167969 121.57510375976562 L 350.9311218261719 120.45369720458984 L 355.86444091796875 119.33252716064453 L 360.79779052734375 118.21158599853516 L 365.7311096191406 117.09088134765625" stroke-opacity="1" stroke-linejoin="bevel" stroke-miterlimit="10" stroke-width="2" stroke-dasharray="" clip-path="url(#EXxMpcDifuSe)"/><path fill="none" stroke="rgb(0,0,0)" paint-order="fill" d="M 74.5 183.5 L 370.5 183.5" stroke-opacity="1" stroke-linejoin="bevel" stroke-miterlimit="10" stroke-dasharray=""/><path fill="none" stroke="rgb(0,0,0)" paint-order="fill" d="M 74.5 189.5 L 74.5 181.5 M 123.5 189.5 L 123.5 181.5 M 173.5 189.5 L 173.5 181.5 M 222.5 189.5 L 222.5 181.5 M 271.5 189.5 L 271.5 181.5 M 321.5 189.5 L 321.5 181.5 M 370.5 189.5 L 370.5 181.5" stroke-opacity="1" stroke-linejoin="bevel" stroke-miterlimit="10" stroke-dasharray=""/><path fill="none" stroke="rgb(0,0,0)" paint-order="fill" d="M 74.5 187.5 L 74.5 183.5 M 84.5 187.5 L 84.5 183.5 M 94.5 187.5 L 94.5 183.5 M 104.5 187.5 L 104.5 183.5 M 113.5 187.5 L 113.5 183.5 M 123.5 187.5 L 123.5 183.5 M 133.5 187.5 L 133.5 183.5 M 143.5 187.5 L 143.5 183.5 M 153.5 187.5 L 153.5 183.5 M 163.5 187.5 L 163.5 183.5 M 173.5 187.5 L 173.5 183.5 M 183.5 187.5 L 183.5 183.5 M 192.5 187.5 L 192.5 183.5 M 202.5 187.5 L 202.5 183.5 M 212.5 187.5 L 212.5 183.5 M 222.5 187.5 L 222.5 183.5 M 232.5 187.5 L 232.5 183.5 M 242.5 187.5 L 242.5 183.5 M 252.5 187.5 L 252.5 183.5 M 261.5 187.5 L 261.5 183.5 M 271.5 187.5 L 271.5 183.5 M 281.5 187.5 L 281.5 183.5 M 291.5 187.5 L 291.5 183.5 M 301.5 187.5 L 301.5 183.5 M 311.5 187.5 L 311.5 183.5 M 321.5 187.5 L 321.5 183.5 M 331.5 187.5 L 331.5 183.5 M 340.5 187.5 L 340.5 183.5 M 350.5 187.5 L 350.5 183.5 M 360.5 187.5 L 360.5 183.5 M 370.5 187.5 L 370.5 183.5" stroke-opacity="1" stroke-linejoin="bevel" stroke-miterlimit="10" stroke-dasharray=""/><text fill="rgb(68,68,68)" stroke="none" font-family="Work Sans" font-size="15pt" font-style="normal" font-weight="normal" text-decoration="normal" x="69" y="207" text-anchor="start" dominant-baseline="alphabetic" transform="matrix(1, 0, 0, 1, 0.5, 0.5)" fill-opacity="1">0</text><text fill="rgb(68,68,68)" stroke="none" font-family="Work Sans" font-size="15pt" font-style="normal" font-weight="normal" text-decoration="normal" x="110.83333587646484" y="207" text-anchor="start" dominant-baseline="alphabetic" transform="matrix(1, 0, 0, 1, 0.5, 0.5)" fill-opacity="1">0.5</text><text fill="rgb(68,68,68)" stroke="none" font-family="Work Sans" font-size="15pt" font-style="normal" font-weight="normal" text-decoration="normal" x="167.6666717529297" y="207" text-anchor="start" dominant-baseline="alphabetic" transform="matrix(1, 0, 0, 1, 0.5, 0.5)" fill-opacity="1">1</text><text fill="rgb(68,68,68)" stroke="none" font-family="Work Sans" font-size="15pt" font-style="normal" font-weight="normal" text-decoration="normal" x="209.5" y="207" text-anchor="start" dominant-baseline="alphabetic" transform="matrix(1, 0, 0, 1, 0.5, 0.5)" fill-opacity="1">1.5</text><text fill="rgb(68,68,68)" stroke="none" font-family="Work Sans" font-size="15pt" font-style="normal" font-weight="normal" text-decoration="normal" x="266.3333435058594" y="207" text-anchor="start" dominant-baseline="alphabetic" transform="matrix(1, 0, 0, 1, 0.5, 0.5)" fill-opacity="1">2</text><text fill="rgb(68,68,68)" stroke="none" font-family="Work Sans" font-size="15pt" font-style="normal" font-weight="normal" text-decoration="normal" x="308.1666564941406" y="207" text-anchor="start" dominant-baseline="alphabetic" transform="matrix(1, 0, 0, 1, 0.5, 0.5)" fill-opacity="1">2.5</text><text fill="rgb(68,68,68)" stroke="none" font-family="Work Sans" font-size="15pt" font-style="normal" font-weight="normal" text-decoration="normal" x="365" y="207" text-anchor="start" dominant-baseline="alphabetic" transform="matrix(1, 0, 0, 1, 0.5, 0.5)" fill-opacity="1">3</text><text fill="rgb(68,68,68)" stroke="none" font-family="helvetica" font-size="15pt" font-style="normal" font-weight="normal" text-decoration="normal" x="165.6962890625" y="243" text-anchor="start" dominant-baseline="alphabetic" transform="matrix(1, 0, 0, 1, 0.5, 0.5)" fill-opacity="1">Time (hours)</text><path fill="none" stroke="rgb(0,0,0)" paint-order="fill" d="M 74.5 183.5 L 74.5 5.5" stroke-opacity="1" stroke-linejoin="bevel" stroke-miterlimit="10" stroke-dasharray=""/><path fill="none" stroke="rgb(0,0,0)" paint-order="fill" d="M 68.5 183.5 L 76.5 183.5 M 68.5 147.5 L 76.5 147.5 M 68.5 112.5 L 76.5 112.5 M 68.5 76.5 L 76.5 76.5 M 68.5 41.5 L 76.5 41.5 M 68.5 5.5 L 76.5 5.5" stroke-opacity="1" stroke-linejoin="bevel" stroke-miterlimit="10" stroke-dasharray=""/><path fill="none" stroke="rgb(0,0,0)" paint-order="fill" d="M 70.5 183.5 L 74.5 183.5 M 70.5 176.5 L 74.5 176.5 M 70.5 169.5 L 74.5 169.5 M 70.5 162.5 L 74.5 162.5 M 70.5 155.5 L 74.5 155.5 M 70.5 147.5 L 74.5 147.5 M 70.5 140.5 L 74.5 140.5 M 70.5 133.5 L 74.5 133.5 M 70.5 126.5 L 74.5 126.5 M 70.5 119.5 L 74.5 119.5 M 70.5 112.5 L 74.5 112.5 M 70.5 105.5 L 74.5 105.5 M 70.5 98.5 L 74.5 98.5 M 70.5 90.5 L 74.5 90.5 M 70.5 83.5 L 74.5 83.5 M 70.5 76.5 L 74.5 76.5 M 70.5 69.5 L 74.5 69.5 M 70.5 62.5 L 74.5 62.5 M 70.5 55.5 L 74.5 55.5 M 70.5 48.5 L 74.5 48.5 M 70.5 41.5 L 74.5 41.5 M 70.5 33.5 L 74.5 33.5 M 70.5 26.5 L 74.5 26.5 M 70.5 19.5 L 74.5 19.5 M 70.5 12.5 L 74.5 12.5 M 70.5 5.5 L 74.5 5.5" stroke-opacity="1" stroke-linejoin="bevel" stroke-miterlimit="10" stroke-dasharray=""/><text fill="rgb(68,68,68)" stroke="none" font-family="Work Sans" font-size="15pt" font-style="normal" font-weight="normal" text-decoration="normal" x="53" y="189.5" text-anchor="start" dominant-baseline="alphabetic" transform="matrix(1, 0, 0, 1, 0.5, 0.5)" fill-opacity="1">0</text><text fill="rgb(68,68,68)" stroke="none" font-family="Work Sans" font-size="15pt" font-style="normal" font-weight="normal" text-decoration="normal" x="53" y="153.89999389648438" text-anchor="start" dominant-baseline="alphabetic" transform="matrix(1, 0, 0, 1, 0.5, 0.5)" fill-opacity="1">5</text><text fill="rgb(68,68,68)" stroke="none" font-family="Work Sans" font-size="15pt" font-style="normal" font-weight="normal" text-decoration="normal" x="43" y="118.30000305175781" text-anchor="start" dominant-baseline="alphabetic" transform="matrix(1, 0, 0, 1, 0.5, 0.5)" fill-opacity="1">10</text><text fill="rgb(68,68,68)" stroke="none" font-family="Work Sans" font-size="15pt" font-style="normal" font-weight="normal" text-decoration="normal" x="43" y="82.69999694824219" text-anchor="start" dominant-baseline="alphabetic" transform="matrix(1, 0, 0, 1, 0.5, 0.5)" fill-opacity="1">15</text><text fill="rgb(68,68,68)" stroke="none" font-family="Work Sans" font-size="15pt" font-style="normal" font-weight="normal" text-decoration="normal" x="43" y="47.099998474121094" text-anchor="start" dominant-baseline="alphabetic" transform="matrix(1, 0, 0, 1, 0.5, 0.5)" fill-opacity="1">20</text><text fill="rgb(68,68,68)" stroke="none" font-family="Work Sans" font-size="15pt" font-style="normal" font-weight="normal" text-decoration="normal" x="43" y="13" text-anchor="start" dominant-baseline="alphabetic" transform="matrix(1, 0, 0, 1, 0.5, 0.5)" fill-opacity="1">25</text><text fill="rgb(68,68,68)" stroke="none" font-family="helvetica" font-size="15pt" font-style="normal" font-weight="normal" text-decoration="normal" x="-28.5400390625" y="90" text-anchor="start" dominant-baseline="alphabetic" transform="matrix(6.123233995736766e-17, -1, 1, 6.123233995736766e-17, -68.5, 119.5)" fill-opacity="1">MGapt (μM)</text><path fill="none" stroke="none"/><text fill="rgb(68,68,68)" stroke="none" font-family="helvetica" font-size="13px" font-style="normal" font-weight="normal" text-decoration="normal" x="109" y="25" text-anchor="start" dominant-baseline="central" clip-path="url(#EwtTIIWgnqCv)" transform="matrix(1, 0, 0, 1, 0.5, 0.5)" fill-opacity="1">Experimental Data</text><path fill="rgb(0,0,128)" stroke="rgb(0,0,128)" paint-order="fill" d="M 98.5 25.5 A 4 4 0 1 1 98.49999800000016 25.496000000666665" fill-opacity="0.2" clip-path="url(#EwtTIIWgnqCv)" stroke-opacity="1" stroke-linejoin="bevel" stroke-miterlimit="10" stroke-dasharray=""/><text fill="rgb(68,68,68)" stroke="none" font-family="helvetica" font-size="13px" font-style="normal" font-weight="normal" text-decoration="normal" x="109" y="48" text-anchor="start" dominant-baseline="central" clip-path="url(#EwtTIIWgnqCv)" transform="matrix(1, 0, 0, 1, 0.5, 0.5)" fill-opacity="1">BioCRNplyer Model</text><path fill="none" stroke="rgb(255,0,255)" paint-order="fill" d="M 84.5 48.5 L 104.5 48.5" stroke-opacity="1" stroke-linejoin="bevel" stroke-miterlimit="10" stroke-width="2" stroke-dasharray="" clip-path="url(#EwtTIIWgnqCv)"/></svg>