<svg version="1.1" xmlns="http://www.w3.org/2000/svg" width="400" height="250"><defs><clipPath id="oSFunEmdqfuU"><path fill="none" stroke="none" d="M 74.5 5.5 L 370.5 5.5 L 370.5 183.5 L 74.5 183.5 L 74.5 5.5"/></clipPath><clipPath id="ZBIUzzJutTSp"><path fill="none" stroke="none" d="M 74.5 5.5 L 370.5 5.5 L 370.5 183.5 L 74.5 183.5 L 74.5 5.5"/></clipPath><clipPath id="xwMlrVEBibPd"><path fill="none" stroke="none" d="M 74.5 5.5 L 370.5 5.5 L 370.5 183.5 L 74.5 183.5 L 74.5 5.5"/></clipPath><clipPath id="LaxxGQsqoqTE"><path fill="none" stroke="none" d="M 74.5 5.5 L 370.5 5.5 L 370.5 183.5 L 74.5 183.5 L 74.5 5.5"/></clipPath><clipPath id="iEWzEvvuTMJx"><path fill="none" stroke="none" d="M 74.5 5.5 L 370.5 5.5 L 370.5 183.5 L 74.5 183.5 L 74.5 5.5"/></clipPath><clipPath id="IoyxonqTkwoM"><path fill="none" stroke="none" d="M 74.5 5.5 L 370.5 5.5 L 370.5 183.5 L 74.5 183.5 L 74.5 5.5"/></clipPath><clipPath id="VMkvoTsGiHOH"><path fill="none" stroke="none" d="M 74.5 5.5 L 370.5 5.5 L 370.5 183.5 L 74.5 183.5 L 74.5 5.5"/></clipPath><clipPath id="dIIHsStbdzOU"><path fill="none" stroke="none" d="M 74.5 5.5 L 370.5 5.5 L 370.5 183.5 L 74.5 183.5 L 74.5 5.5"/></clipPath><clipPath id="ZiGnsTNGPRHl"><path fill="none" stroke="none" d="M 74.5 5.5 L 370.5 5.5 L 370.5 183.5 L 74.5 183.5 L 74.5 5.5"/></clipPath><clipPath id="ZUipNDVnBwzw"><path fill="none" stroke="none" d="M 74.5 5.5 L 370.5 5.5 L 370.5 183.5 L 74.5 183.5 L 74.5 5.5"/></clipPath><clipPath id="brkdJbQpMaPU"><path fill="none" stroke="none" d="M 74.5 5.5 L 370.5 5.5 L 370.5 183.5 L 74.5 183.5 L 74.5 5.5"/></clipPath></defs><path fill="rgb(255,255,255)" stroke="none" paint-order="stroke" d="M 0.5 0.5 L 400.5 0.5 L 400.5 250.5 L 0.5 250.5 L 0.5 0.5" fill-opacity="1"/><rect fill="#FFFFFF" stroke="none" x="74" y="5" width="296" height="178" transform="matrix(1, 0, 0, 1, 0.5, 0.5)"/><path fill="rgb(255,255,255)" stroke="none" paint-order="stroke" d="M 74.5 5.5 L 370.5 5.5 L 370.5 183.5 L 74.5 183.5 L 74.5 5.5" fill-opacity="1"/><path fill="rgb(0,0,128)" stroke="rgb(0,0,128)" paint-order="fill" d="M 77.16444396972656 183.5 A 2.5 2.5 0 1 1 77.16444271972667 183.49750000041666" fill-opacity="0.2" clip-path="url(#xwMlrVEBibPd)" stroke-opacity="1" stroke-linejoin="bevel" stroke-miterlimit="10" stroke-dasharray=""/><path fill="rgb(0,0,128)" stroke="rgb(0,0,128)" paint-order="fill" d="M 82.0977783203125 181.1319580078125 A 2.5 2.5 0 1 1 82.0977770703126 181.12945800822916" fill-opacity="0.2" clip-path="url(#xwMlrVEBibPd)" stroke-opacity="1" stroke-linejoin="bevel" stroke-miterlimit="10" stroke-dasharray=""/><path fill="rgb(0,0,128)" stroke="rgb(0,0,128)" paint-order="fill" d="M 87.03111267089844 178.7179412841797 A 2.5 2.5 0 1 1 87.03111142089854 178.71544128459635" fill-opacity="0.2" clip-path="url(#xwMlrVEBibPd)" stroke-opacity="1" stroke-linejoin="bevel" stroke-miterlimit="10" stroke-dasharray=""/><path fill="rgb(0,0,128)" stroke="rgb(0,0,128)" paint-order="fill" d="M 91.96444702148438 175.7153778076172 A 2.5 2.5 0 1 1 91.96444577148448 175.71287780803385" fill-opacity="0.2" clip-path="url(#xwMlrVEBibPd)" stroke-opacity="1" stroke-linejoin="bevel" stroke-miterlimit="10" stroke-dasharray=""/><path fill="rgb(0,0,128)" stroke="rgb(0,0,128)" paint-order="fill" d="M 96.89778137207031 173.1586456298828 A 2.5 2.5 0 1 1 96.89778012207042 173.15614563029948" fill-opacity="0.2" clip-path="url(#xwMlrVEBibPd)" stroke-opacity="1" stroke-linejoin="bevel" stroke-miterlimit="10" stroke-dasharray=""/><path fill="rgb(0,0,128)" stroke="rgb(0,0,128)" paint-order="fill" d="M 101.83110809326172 168.15426635742188 A 2.5 2.5 0 1 1 101.83110684326182 168.15176635783854" fill-opacity="0.2" clip-path="url(#xwMlrVEBibPd)" stroke-opacity="1" stroke-linejoin="bevel" stroke-miterlimit="10" stroke-dasharray=""/><path fill="rgb(0,0,128)" stroke="rgb(0,0,128)" paint-order="fill" d="M 106.76444244384766 162.87425231933594 A 2.5 2.5 0 1 1 106.76444119384776 162.8717523197526" fill-opacity="0.2" clip-path="url(#xwMlrVEBibPd)" stroke-opacity="1" stroke-linejoin="bevel" stroke-miterlimit="10" stroke-dasharray=""/><path fill="rgb(0,0,128)" stroke="rgb(0,0,128)" paint-order="fill" d="M 111.6977767944336 157.9420166015625 A 2.5 2.5 0 1 1 111.6977755444337 157.93951660197916" fill-opacity="0.2" clip-path="url(#xwMlrVEBibPd)" stroke-opacity="1" stroke-linejoin="bevel" stroke-miterlimit="10" stroke-dasharray=""/><path fill="rgb(0,0,128)" stroke="rgb(0,0,128)" paint-order="fill" d="M 116.63111114501953 153.59300231933594 A 2.5 2.5 0 1 1 116.63110989501963 153.5905023197526" fill-opacity="0.2" clip-path="url(#xwMlrVEBibPd)" stroke-opacity="1" stroke-linejoin="bevel" stroke-miterlimit="10" stroke-dasharray=""/><path fill="rgb(0,0,128)" stroke="rgb(0,0,128)" paint-order="fill" d="M 121.56444549560547 146.9593505859375 A 2.5 2.5 0 1 1 121.56444424560557 146.95685058635416" fill-opacity="0.2" clip-path="url(#xwMlrVEBibPd)" stroke-opacity="1" stroke-linejoin="bevel" stroke-miterlimit="10" stroke-dasharray=""/><path fill="rgb(0,0,128)" stroke="rgb(0,0,128)" paint-order="fill" d="M 126.4977798461914 142.33184814453125 A 2.5 2.5 0 1 1 126.49777859619151 142.32934814494791" fill-opacity="0.2" clip-path="url(#xwMlrVEBibPd)" stroke-opacity="1" stroke-linejoin="bevel" stroke-miterlimit="10" stroke-dasharray=""/><path fill="rgb(0,0,128)" stroke="rgb(0,0,128)" paint-order="fill" d="M 131.4311065673828 142.3936004638672 A 2.5 2.5 0 1 1 131.43110531738293 142.39110046428385" fill-opacity="0.2" clip-path="url(#xwMlrVEBibPd)" stroke-opacity="1" stroke-linejoin="bevel" stroke-miterlimit="10" stroke-dasharray=""/><path fill="rgb(0,0,128)" stroke="rgb(0,0,128)" paint-order="fill" d="M 136.36444091796875 135.61297607421875 A 2.5 2.5 0 1 1 136.36443966796887 135.61047607463541" fill-opacity="0.2" clip-path="url(#xwMlrVEBibPd)" stroke-opacity="1" stroke-linejoin="bevel" stroke-miterlimit="10" stroke-dasharray=""/><path fill="rgb(0,0,128)" stroke="rgb(0,0,128)" paint-order="fill" d="M 141.2977752685547 133.92977905273438 A 2.5 2.5 0 1 1 141.2977740185548 133.92727905315104" fill-opacity="0.2" clip-path="url(#xwMlrVEBibPd)" stroke-opacity="1" stroke-linejoin="bevel" stroke-miterlimit="10" stroke-dasharray=""/><path fill="rgb(0,0,128)" stroke="rgb(0,0,128)" paint-order="fill" d="M 146.23110961914062 130.97341918945312 A 2.5 2.5 0 1 1 146.23110836914074 130.9709191898698" fill-opacity="0.2" clip-path="url(#xwMlrVEBibPd)" stroke-opacity="1" stroke-linejoin="bevel" stroke-miterlimit="10" stroke-dasharray=""/><path fill="rgb(0,0,128)" stroke="rgb(0,0,128)" paint-order="fill" d="M 151.16444396972656 129.75408935546875 A 2.5 2.5 0 1 1 151.16444271972668 129.75158935588541" fill-opacity="0.2" clip-path="url(#xwMlrVEBibPd)" stroke-opacity="1" stroke-linejoin="bevel" stroke-miterlimit="10" stroke-dasharray=""/><path fill="rgb(0,0,128)" stroke="rgb(0,0,128)" paint-order="fill" d="M 156.0977783203125 130.13404846191406 A 2.5 2.5 0 1 1 156.09777707031262 130.13154846233073" fill-opacity="0.2" clip-path="url(#xwMlrVEBibPd)" stroke-opacity="1" stroke-linejoin="bevel" stroke-miterlimit="10" stroke-dasharray=""/><path fill="rgb(0,0,128)" stroke="rgb(0,0,128)" paint-order="fill" d="M 161.03111267089844 126.67449951171875 A 2.5 2.5 0 1 1 161.03111142089855 126.67199951213541" fill-opacity="0.2" clip-path="url(#xwMlrVEBibPd)" stroke-opacity="1" stroke-linejoin="bevel" stroke-miterlimit="10" stroke-dasharray=""/><path fill="rgb(0,0,128)" stroke="rgb(0,0,128)" paint-order="fill" d="M 165.96444702148438 123.44837188720703 A 2.5 2.5 0 1 1 165.9644457714845 123.4458718876237" fill-opacity="0.2" clip-path="url(#xwMlrVEBibPd)" stroke-opacity="1" stroke-linejoin="bevel" stroke-miterlimit="10" stroke-dasharray=""/><path fill="rgb(0,0,128)" stroke="rgb(0,0,128)" paint-order="fill" d="M 170.8977813720703 122.75386810302734 A 2.5 2.5 0 1 1 170.89778012207043 122.75136810344401" fill-opacity="0.2" clip-path="url(#xwMlrVEBibPd)" stroke-opacity="1" stroke-linejoin="bevel" stroke-miterlimit="10" stroke-dasharray=""/><path fill="rgb(0,0,128)" stroke="rgb(0,0,128)" paint-order="fill" d="M 175.83111572265625 122.54008483886719 A 2.5 2.5 0 1 1 175.83111447265637 122.53758483928385" fill-opacity="0.2" clip-path="url(#xwMlrVEBibPd)" stroke-opacity="1" stroke-linejoin="bevel" stroke-miterlimit="10" stroke-dasharray=""/><path fill="rgb(0,0,128)" stroke="rgb(0,0,128)" paint-order="fill" d="M 180.7644500732422 119.61359405517578 A 2.5 2.5 0 1 1 180.7644488232423 119.61109405559245" fill-opacity="0.2" clip-path="url(#xwMlrVEBibPd)" stroke-opacity="1" stroke-linejoin="bevel" stroke-miterlimit="10" stroke-dasharray=""/><path fill="rgb(0,0,128)" stroke="rgb(0,0,128)" paint-order="fill" d="M 185.69778442382812 115.22163391113281 A 2.5 2.5 0 1 1 185.69778317382824 115.21913391154948" fill-opacity="0.2" clip-path="url(#xwMlrVEBibPd)" stroke-opacity="1" stroke-linejoin="bevel" stroke-miterlimit="10" stroke-dasharray=""/><path fill="rgb(0,0,128)" stroke="rgb(0,0,128)" paint-order="fill" d="M 190.631103515625 108.93075561523438 A 2.5 2.5 0 1 1 190.63110226562512 108.92825561565104" fill-opacity="0.2" clip-path="url(#xwMlrVEBibPd)" stroke-opacity="1" stroke-linejoin="bevel" stroke-miterlimit="10" stroke-dasharray=""/><path fill="rgb(0,0,128)" stroke="rgb(0,0,128)" paint-order="fill" d="M 195.56443786621094 109.10490417480469 A 2.5 2.5 0 1 1 195.56443661621105 109.10240417522135" fill-opacity="0.2" clip-path="url(#xwMlrVEBibPd)" stroke-opacity="1" stroke-linejoin="bevel" stroke-miterlimit="10" stroke-dasharray=""/><path fill="rgb(0,0,128)" stroke="rgb(0,0,128)" paint-order="fill" d="M 200.49777221679688 105.13951873779297 A 2.5 2.5 0 1 1 200.497770966797 105.13701873820963" fill-opacity="0.2" clip-path="url(#xwMlrVEBibPd)" stroke-opacity="1" stroke-linejoin="bevel" stroke-miterlimit="10" stroke-dasharray=""/><path fill="rgb(0,0,128)" stroke="rgb(0,0,128)" paint-order="fill" d="M 205.4311065673828 91.99244689941406 A 2.5 2.5 0 1 1 205.43110531738293 91.98994689983073" fill-opacity="0.2" clip-path="url(#xwMlrVEBibPd)" stroke-opacity="1" stroke-linejoin="bevel" stroke-miterlimit="10" stroke-dasharray=""/><path fill="rgb(0,0,128)" stroke="rgb(0,0,128)" paint-order="fill" d="M 210.36444091796875 91.38345336914062 A 2.5 2.5 0 1 1 210.36443966796887 91.38095336955729" fill-opacity="0.2" clip-path="url(#xwMlrVEBibPd)" stroke-opacity="1" stroke-linejoin="bevel" stroke-miterlimit="10" stroke-dasharray=""/><path fill="rgb(0,0,128)" stroke="rgb(0,0,128)" paint-order="fill" d="M 215.2977752685547 89.11566925048828 A 2.5 2.5 0 1 1 215.2977740185548 89.11316925090495" fill-opacity="0.2" clip-path="url(#xwMlrVEBibPd)" stroke-opacity="1" stroke-linejoin="bevel" stroke-miterlimit="10" stroke-dasharray=""/><path fill="rgb(0,0,128)" stroke="rgb(0,0,128)" paint-order="fill" d="M 220.23110961914062 90.52767181396484 A 2.5 2.5 0 1 1 220.23110836914074 90.52517181438151" fill-opacity="0.2" clip-path="url(#xwMlrVEBibPd)" stroke-opacity="1" stroke-linejoin="bevel" stroke-miterlimit="10" stroke-dasharray=""/><path fill="rgb(0,0,128)" stroke="rgb(0,0,128)" paint-order="fill" d="M 225.16444396972656 85.00580596923828 A 2.5 2.5 0 1 1 225.16444271972668 85.00330596965495" fill-opacity="0.2" clip-path="url(#xwMlrVEBibPd)" stroke-opacity="1" stroke-linejoin="bevel" stroke-miterlimit="10" stroke-dasharray=""/><path fill="rgb(0,0,128)" stroke="rgb(0,0,128)" paint-order="fill" d="M 230.0977783203125 77.97777557373047 A 2.5 2.5 0 1 1 230.09777707031262 77.97527557414713" fill-opacity="0.2" clip-path="url(#xwMlrVEBibPd)" stroke-opacity="1" stroke-linejoin="bevel" stroke-miterlimit="10" stroke-dasharray=""/><path fill="rgb(0,0,128)" stroke="rgb(0,0,128)" paint-order="fill" d="M 235.03111267089844 82.20291137695312 A 2.5 2.5 0 1 1 235.03111142089855 82.20041137736979" fill-opacity="0.2" clip-path="url(#xwMlrVEBibPd)" stroke-opacity="1" stroke-linejoin="bevel" stroke-miterlimit="10" stroke-dasharray=""/><path fill="rgb(0,0,128)" stroke="rgb(0,0,128)" paint-order="fill" d="M 239.96444702148438 77.54801177978516 A 2.5 2.5 0 1 1 239.9644457714845 77.54551178020182" fill-opacity="0.2" clip-path="url(#xwMlrVEBibPd)" stroke-opacity="1" stroke-linejoin="bevel" stroke-miterlimit="10" stroke-dasharray=""/><path fill="rgb(0,0,128)" stroke="rgb(0,0,128)" paint-order="fill" d="M 244.8977813720703 74.4653091430664 A 2.5 2.5 0 1 1 244.89778012207043 74.46280914348307" fill-opacity="0.2" clip-path="url(#xwMlrVEBibPd)" stroke-opacity="1" stroke-linejoin="bevel" stroke-miterlimit="10" stroke-dasharray=""/><path fill="rgb(0,0,128)" stroke="rgb(0,0,128)" paint-order="fill" d="M 249.83111572265625 75.34294128417969 A 2.5 2.5 0 1 1 249.83111447265637 75.34044128459635" fill-opacity="0.2" clip-path="url(#xwMlrVEBibPd)" stroke-opacity="1" stroke-linejoin="bevel" stroke-miterlimit="10" stroke-dasharray=""/><path fill="rgb(0,0,128)" stroke="rgb(0,0,128)" paint-order="fill" d="M 254.7644500732422 75.75831604003906 A 2.5 2.5 0 1 1 254.7644488232423 75.75581604045573" fill-opacity="0.2" clip-path="url(#xwMlrVEBibPd)" stroke-opacity="1" stroke-linejoin="bevel" stroke-miterlimit="10" stroke-dasharray=""/><path fill="rgb(0,0,128)" stroke="rgb(0,0,128)" paint-order="fill" d="M 259.6977844238281 70.5361099243164 A 2.5 2.5 0 1 1 259.6977831738282 70.53360992473307" fill-opacity="0.2" clip-path="url(#xwMlrVEBibPd)" stroke-opacity="1" stroke-linejoin="bevel" stroke-miterlimit="10" stroke-dasharray=""/><path fill="rgb(0,0,128)" stroke="rgb(0,0,128)" paint-order="fill" d="M 264.631103515625 64.1838607788086 A 2.5 2.5 0 1 1 264.6311022656251 64.18136077922526" fill-opacity="0.2" clip-path="url(#xwMlrVEBibPd)" stroke-opacity="1" stroke-linejoin="bevel" stroke-miterlimit="10" stroke-dasharray=""/><path fill="rgb(0,0,128)" stroke="rgb(0,0,128)" paint-order="fill" d="M 269.564453125 64.50325012207031 A 2.5 2.5 0 1 1 269.5644518750001 64.50075012248698" fill-opacity="0.2" clip-path="url(#xwMlrVEBibPd)" stroke-opacity="1" stroke-linejoin="bevel" stroke-miterlimit="10" stroke-dasharray=""/><path fill="rgb(0,0,128)" stroke="rgb(0,0,128)" paint-order="fill" d="M 274.4977722167969 61.33713912963867 A 2.5 2.5 0 1 1 274.49777096679696 61.334639130055336" fill-opacity="0.2" clip-path="url(#xwMlrVEBibPd)" stroke-opacity="1" stroke-linejoin="bevel" stroke-miterlimit="10" stroke-dasharray=""/><path fill="rgb(0,0,128)" stroke="rgb(0,0,128)" paint-order="fill" d="M 279.4311218261719 55.58282470703125 A 2.5 2.5 0 1 1 279.43112057617196 55.580324707447915" fill-opacity="0.2" clip-path="url(#xwMlrVEBibPd)" stroke-opacity="1" stroke-linejoin="bevel" stroke-miterlimit="10" stroke-dasharray=""/><path fill="rgb(0,0,128)" stroke="rgb(0,0,128)" paint-order="fill" d="M 284.36444091796875 56.295806884765625 A 2.5 2.5 0 1 1 284.36443966796884 56.29330688518229" fill-opacity="0.2" clip-path="url(#xwMlrVEBibPd)" stroke-opacity="1" stroke-linejoin="bevel" stroke-miterlimit="10" stroke-dasharray=""/><path fill="rgb(0,0,128)" stroke="rgb(0,0,128)" paint-order="fill" d="M 289.29779052734375 51.95329666137695 A 2.5 2.5 0 1 1 289.29778927734384 51.95079666179362" fill-opacity="0.2" clip-path="url(#xwMlrVEBibPd)" stroke-opacity="1" stroke-linejoin="bevel" stroke-miterlimit="10" stroke-dasharray=""/><path fill="rgb(0,0,128)" stroke="rgb(0,0,128)" paint-order="fill" d="M 294.2311096191406 49.33028793334961 A 2.5 2.5 0 1 1 294.2311083691407 49.327787933766274" fill-opacity="0.2" clip-path="url(#xwMlrVEBibPd)" stroke-opacity="1" stroke-linejoin="bevel" stroke-miterlimit="10" stroke-dasharray=""/><path fill="rgb(0,0,128)" stroke="rgb(0,0,128)" paint-order="fill" d="M 299.1644592285156 46.124595642089844 A 2.5 2.5 0 1 1 299.1644579785157 46.12209564250651" fill-opacity="0.2" clip-path="url(#xwMlrVEBibPd)" stroke-opacity="1" stroke-linejoin="bevel" stroke-miterlimit="10" stroke-dasharray=""/><path fill="rgb(0,0,128)" stroke="rgb(0,0,128)" paint-order="fill" d="M 304.0977783203125 49.64967346191406 A 2.5 2.5 0 1 1 304.0977770703126 49.64717346233073" fill-opacity="0.2" clip-path="url(#xwMlrVEBibPd)" stroke-opacity="1" stroke-linejoin="bevel" stroke-miterlimit="10" stroke-dasharray=""/><path fill="rgb(0,0,128)" stroke="rgb(0,0,128)" paint-order="fill" d="M 309.0310974121094 56.47016906738281 A 2.5 2.5 0 1 1 309.03109616210946 56.46766906779948" fill-opacity="0.2" clip-path="url(#xwMlrVEBibPd)" stroke-opacity="1" stroke-linejoin="bevel" stroke-miterlimit="10" stroke-dasharray=""/><path fill="rgb(0,0,128)" stroke="rgb(0,0,128)" paint-order="fill" d="M 313.9644470214844 51.328670501708984 A 2.5 2.5 0 1 1 313.96444577148446 51.32617050212565" fill-opacity="0.2" clip-path="url(#xwMlrVEBibPd)" stroke-opacity="1" stroke-linejoin="bevel" stroke-miterlimit="10" stroke-dasharray=""/><path fill="rgb(0,0,128)" stroke="rgb(0,0,128)" paint-order="fill" d="M 318.89776611328125 53.953147888183594 A 2.5 2.5 0 1 1 318.89776486328134 53.95064788860026" fill-opacity="0.2" clip-path="url(#xwMlrVEBibPd)" stroke-opacity="1" stroke-linejoin="bevel" stroke-miterlimit="10" stroke-dasharray=""/><path fill="rgb(0,0,128)" stroke="rgb(0,0,128)" paint-order="fill" d="M 323.83111572265625 54.95030212402344 A 2.5 2.5 0 1 1 323.83111447265634 54.9478021244401" fill-opacity="0.2" clip-path="url(#xwMlrVEBibPd)" stroke-opacity="1" stroke-linejoin="bevel" stroke-miterlimit="10" stroke-dasharray=""/><path fill="rgb(0,0,128)" stroke="rgb(0,0,128)" paint-order="fill" d="M 328.7644348144531 54.12767028808594 A 2.5 2.5 0 1 1 328.7644335644532 54.1251702885026" fill-opacity="0.2" clip-path="url(#xwMlrVEBibPd)" stroke-opacity="1" stroke-linejoin="bevel" stroke-miterlimit="10" stroke-dasharray=""/><path fill="rgb(0,0,128)" stroke="rgb(0,0,128)" paint-order="fill" d="M 333.6977844238281 55.358699798583984 A 2.5 2.5 0 1 1 333.6977831738282 55.35619979900065" fill-opacity="0.2" clip-path="url(#xwMlrVEBibPd)" stroke-opacity="1" stroke-linejoin="bevel" stroke-miterlimit="10" stroke-dasharray=""/><path fill="rgb(0,0,128)" stroke="rgb(0,0,128)" paint-order="fill" d="M 338.631103515625 58.280548095703125 A 2.5 2.5 0 1 1 338.6311022656251 58.27804809611979" fill-opacity="0.2" clip-path="url(#xwMlrVEBibPd)" stroke-opacity="1" stroke-linejoin="bevel" stroke-miterlimit="10" stroke-dasharray=""/><path fill="rgb(0,0,128)" stroke="rgb(0,0,128)" paint-order="fill" d="M 343.564453125 55.32158660888672 A 2.5 2.5 0 1 1 343.5644518750001 55.31908660930338" fill-opacity="0.2" clip-path="url(#xwMlrVEBibPd)" stroke-opacity="1" stroke-linejoin="bevel" stroke-miterlimit="10" stroke-dasharray=""/><path fill="rgb(0,0,128)" stroke="rgb(0,0,128)" paint-order="fill" d="M 348.4977722167969 58.051483154296875 A 2.5 2.5 0 1 1 348.49777096679696 58.04898315471354" fill-opacity="0.2" clip-path="url(#xwMlrVEBibPd)" stroke-opacity="1" stroke-linejoin="bevel" stroke-miterlimit="10" stroke-dasharray=""/><path fill="rgb(0,0,128)" stroke="rgb(0,0,128)" paint-order="fill" d="M 353.4311218261719 55.634918212890625 A 2.5 2.5 0 1 1 353.43112057617196 55.63241821330729" fill-opacity="0.2" clip-path="url(#xwMlrVEBibPd)" stroke-opacity="1" stroke-linejoin="bevel" stroke-miterlimit="10" stroke-dasharray=""/><path fill="rgb(0,0,128)" stroke="rgb(0,0,128)" paint-order="fill" d="M 358.36444091796875 58.291831970214844 A 2.5 2.5 0 1 1 358.36443966796884 58.28933197063151" fill-opacity="0.2" clip-path="url(#xwMlrVEBibPd)" stroke-opacity="1" stroke-linejoin="bevel" stroke-miterlimit="10" stroke-dasharray=""/><path fill="rgb(0,0,128)" stroke="rgb(0,0,128)" paint-order="fill" d="M 363.29779052734375 58.435630798339844 A 2.5 2.5 0 1 1 363.29778927734384 58.43313079875651" fill-opacity="0.2" clip-path="url(#xwMlrVEBibPd)" stroke-opacity="1" stroke-linejoin="bevel" stroke-miterlimit="10" stroke-dasharray=""/><path fill="rgb(0,0,128)" stroke="rgb(0,0,128)" paint-order="fill" d="M 368.2311096191406 57.23155975341797 A 2.5 2.5 0 1 1 368.2311083691407 57.22905975383463" fill-opacity="0.2" clip-path="url(#xwMlrVEBibPd)" stroke-opacity="1" stroke-linejoin="bevel" stroke-miterlimit="10" stroke-dasharray=""/><path fill="none" stroke="rgb(0,0,128)" paint-order="fill" d="M 74.66444396972656 183.71563720703125 L 74.66444396972656 183.28436279296875" stroke-opacity="1" stroke-linejoin="bevel" stroke-miterlimit="10" stroke-dasharray="" clip-path="url(#LaxxGQsqoqTE)"/><path fill="none" stroke="rgb(0,0,128)" paint-order="fill" d="M 79.5977783203125 181.27027893066406 L 79.5977783203125 180.99365234375" stroke-opacity="1" stroke-linejoin="bevel" stroke-miterlimit="10" stroke-dasharray="" clip-path="url(#LaxxGQsqoqTE)"/><path fill="none" stroke="rgb(0,0,128)" paint-order="fill" d="M 84.53111267089844 178.75674438476562 L 84.53111267089844 178.67913818359375" stroke-opacity="1" stroke-linejoin="bevel" stroke-miterlimit="10" stroke-dasharray="" clip-path="url(#LaxxGQsqoqTE)"/><path fill="none" stroke="rgb(0,0,128)" paint-order="fill" d="M 89.46444702148438 176.46292114257812 L 89.46444702148438 174.9678497314453" stroke-opacity="1" stroke-linejoin="bevel" stroke-miterlimit="10" stroke-dasharray="" clip-path="url(#LaxxGQsqoqTE)"/><path fill="none" stroke="rgb(0,0,128)" paint-order="fill" d="M 94.39778137207031 173.89955139160156 L 94.39778137207031 172.417724609375" stroke-opacity="1" stroke-linejoin="bevel" stroke-miterlimit="10" stroke-dasharray="" clip-path="url(#LaxxGQsqoqTE)"/><path fill="none" stroke="rgb(0,0,128)" paint-order="fill" d="M 99.33110809326172 168.54885864257812 L 99.33110809326172 167.7596893310547" stroke-opacity="1" stroke-linejoin="bevel" stroke-miterlimit="10" stroke-dasharray="" clip-path="url(#LaxxGQsqoqTE)"/><path fill="none" stroke="rgb(0,0,128)" paint-order="fill" d="M 104.26444244384766 163.01748657226562 L 104.26444244384766 162.73101806640625" stroke-opacity="1" stroke-linejoin="bevel" stroke-miterlimit="10" stroke-dasharray="" clip-path="url(#LaxxGQsqoqTE)"/><path fill="none" stroke="rgb(0,0,128)" paint-order="fill" d="M 109.1977767944336 158.87213134765625 L 109.1977767944336 157.0119171142578" stroke-opacity="1" stroke-linejoin="bevel" stroke-miterlimit="10" stroke-dasharray="" clip-path="url(#LaxxGQsqoqTE)"/><path fill="none" stroke="rgb(0,0,128)" paint-order="fill" d="M 114.13111114501953 154.03277587890625 L 114.13111114501953 153.1532440185547" stroke-opacity="1" stroke-linejoin="bevel" stroke-miterlimit="10" stroke-dasharray="" clip-path="url(#LaxxGQsqoqTE)"/><path fill="none" stroke="rgb(0,0,128)" paint-order="fill" d="M 119.06444549560547 147.49380493164062 L 119.06444549560547 146.42489624023438" stroke-opacity="1" stroke-linejoin="bevel" stroke-miterlimit="10" stroke-dasharray="" clip-path="url(#LaxxGQsqoqTE)"/><path fill="none" stroke="rgb(0,0,128)" paint-order="fill" d="M 123.9977798461914 144.3944549560547 L 123.9977798461914 140.2692413330078" stroke-opacity="1" stroke-linejoin="bevel" stroke-miterlimit="10" stroke-dasharray="" clip-path="url(#LaxxGQsqoqTE)"/><path fill="none" stroke="rgb(0,0,128)" paint-order="fill" d="M 128.9311065673828 143.09201049804688 L 128.9311065673828 141.6951904296875" stroke-opacity="1" stroke-linejoin="bevel" stroke-miterlimit="10" stroke-dasharray="" clip-path="url(#LaxxGQsqoqTE)"/><path fill="none" stroke="rgb(0,0,128)" paint-order="fill" d="M 133.86444091796875 138.3673095703125 L 133.86444091796875 132.858642578125" stroke-opacity="1" stroke-linejoin="bevel" stroke-miterlimit="10" stroke-dasharray="" clip-path="url(#LaxxGQsqoqTE)"/><path fill="none" stroke="rgb(0,0,128)" paint-order="fill" d="M 138.7977752685547 135.03433227539062 L 138.7977752685547 132.82521057128906" stroke-opacity="1" stroke-linejoin="bevel" stroke-miterlimit="10" stroke-dasharray="" clip-path="url(#LaxxGQsqoqTE)"/><path fill="none" stroke="rgb(0,0,128)" paint-order="fill" d="M 143.73110961914062 131.762451171875 L 143.73110961914062 130.1843719482422" stroke-opacity="1" stroke-linejoin="bevel" stroke-miterlimit="10" stroke-dasharray="" clip-path="url(#LaxxGQsqoqTE)"/><path fill="none" stroke="rgb(0,0,128)" paint-order="fill" d="M 148.66444396972656 131.262939453125 L 148.66444396972656 128.24524688720703" stroke-opacity="1" stroke-linejoin="bevel" stroke-miterlimit="10" stroke-dasharray="" clip-path="url(#LaxxGQsqoqTE)"/><path fill="none" stroke="rgb(0,0,128)" paint-order="fill" d="M 153.5977783203125 132.0046844482422 L 153.5977783203125 128.26342010498047" stroke-opacity="1" stroke-linejoin="bevel" stroke-miterlimit="10" stroke-dasharray="" clip-path="url(#LaxxGQsqoqTE)"/><path fill="none" stroke="rgb(0,0,128)" paint-order="fill" d="M 158.53111267089844 128.5421142578125 L 158.53111267089844 124.80689239501953" stroke-opacity="1" stroke-linejoin="bevel" stroke-miterlimit="10" stroke-dasharray="" clip-path="url(#LaxxGQsqoqTE)"/><path fill="none" stroke="rgb(0,0,128)" paint-order="fill" d="M 163.46444702148438 124.4014663696289 L 163.46444702148438 122.49526977539062" stroke-opacity="1" stroke-linejoin="bevel" stroke-miterlimit="10" stroke-dasharray="" clip-path="url(#LaxxGQsqoqTE)"/><path fill="none" stroke="rgb(0,0,128)" paint-order="fill" d="M 168.3977813720703 124.40703582763672 L 168.3977813720703 121.10069274902344" stroke-opacity="1" stroke-linejoin="bevel" stroke-miterlimit="10" stroke-dasharray="" clip-path="url(#LaxxGQsqoqTE)"/><path fill="none" stroke="rgb(0,0,128)" paint-order="fill" d="M 173.33111572265625 124.6919937133789 L 173.33111572265625 120.38817596435547" stroke-opacity="1" stroke-linejoin="bevel" stroke-miterlimit="10" stroke-dasharray="" clip-path="url(#LaxxGQsqoqTE)"/><path fill="none" stroke="rgb(0,0,128)" paint-order="fill" d="M 178.2644500732422 120.88749694824219 L 178.2644500732422 118.33968353271484" stroke-opacity="1" stroke-linejoin="bevel" stroke-miterlimit="10" stroke-dasharray="" clip-path="url(#LaxxGQsqoqTE)"/><path fill="none" stroke="rgb(0,0,128)" paint-order="fill" d="M 183.19778442382812 117.43228149414062 L 183.19778442382812 113.01097869873047" stroke-opacity="1" stroke-linejoin="bevel" stroke-miterlimit="10" stroke-dasharray="" clip-path="url(#LaxxGQsqoqTE)"/><path fill="none" stroke="rgb(0,0,128)" paint-order="fill" d="M 188.131103515625 111.21965789794922 L 188.131103515625 106.64185333251953" stroke-opacity="1" stroke-linejoin="bevel" stroke-miterlimit="10" stroke-dasharray="" clip-path="url(#LaxxGQsqoqTE)"/><path fill="none" stroke="rgb(0,0,128)" paint-order="fill" d="M 193.06443786621094 109.83320617675781 L 193.06443786621094 108.37660217285156" stroke-opacity="1" stroke-linejoin="bevel" stroke-miterlimit="10" stroke-dasharray="" clip-path="url(#LaxxGQsqoqTE)"/><path fill="none" stroke="rgb(0,0,128)" paint-order="fill" d="M 197.99777221679688 107.48697662353516 L 197.99777221679688 102.79206848144531" stroke-opacity="1" stroke-linejoin="bevel" stroke-miterlimit="10" stroke-dasharray="" clip-path="url(#LaxxGQsqoqTE)"/><path fill="none" stroke="rgb(0,0,128)" paint-order="fill" d="M 202.9311065673828 92.9250717163086 L 202.9311065673828 91.05982208251953" stroke-opacity="1" stroke-linejoin="bevel" stroke-miterlimit="10" stroke-dasharray="" clip-path="url(#LaxxGQsqoqTE)"/><path fill="none" stroke="rgb(0,0,128)" paint-order="fill" d="M 207.86444091796875 93.89607238769531 L 207.86444091796875 88.87083435058594" stroke-opacity="1" stroke-linejoin="bevel" stroke-miterlimit="10" stroke-dasharray="" clip-path="url(#LaxxGQsqoqTE)"/><path fill="none" stroke="rgb(0,0,128)" paint-order="fill" d="M 212.7977752685547 90.15168762207031 L 212.7977752685547 88.07965087890625" stroke-opacity="1" stroke-linejoin="bevel" stroke-miterlimit="10" stroke-dasharray="" clip-path="url(#LaxxGQsqoqTE)"/><path fill="none" stroke="rgb(0,0,128)" paint-order="fill" d="M 217.73110961914062 91.6111831665039 L 217.73110961914062 89.44416046142578" stroke-opacity="1" stroke-linejoin="bevel" stroke-miterlimit="10" stroke-dasharray="" clip-path="url(#LaxxGQsqoqTE)"/><path fill="none" stroke="rgb(0,0,128)" paint-order="fill" d="M 222.66444396972656 88.30268859863281 L 222.66444396972656 81.70892333984375" stroke-opacity="1" stroke-linejoin="bevel" stroke-miterlimit="10" stroke-dasharray="" clip-path="url(#LaxxGQsqoqTE)"/><path fill="none" stroke="rgb(0,0,128)" paint-order="fill" d="M 227.5977783203125 80.19070434570312 L 227.5977783203125 75.76485443115234" stroke-opacity="1" stroke-linejoin="bevel" stroke-miterlimit="10" stroke-dasharray="" clip-path="url(#LaxxGQsqoqTE)"/><path fill="none" stroke="rgb(0,0,128)" paint-order="fill" d="M 232.53111267089844 87.08615112304688 L 232.53111267089844 77.3196792602539" stroke-opacity="1" stroke-linejoin="bevel" stroke-miterlimit="10" stroke-dasharray="" clip-path="url(#LaxxGQsqoqTE)"/><path fill="none" stroke="rgb(0,0,128)" paint-order="fill" d="M 237.46444702148438 80.5899429321289 L 237.46444702148438 74.5060806274414" stroke-opacity="1" stroke-linejoin="bevel" stroke-miterlimit="10" stroke-dasharray="" clip-path="url(#LaxxGQsqoqTE)"/><path fill="none" stroke="rgb(0,0,128)" paint-order="fill" d="M 242.3977813720703 76.58259582519531 L 242.3977813720703 72.3480224609375" stroke-opacity="1" stroke-linejoin="bevel" stroke-miterlimit="10" stroke-dasharray="" clip-path="url(#LaxxGQsqoqTE)"/><path fill="none" stroke="rgb(0,0,128)" paint-order="fill" d="M 247.33111572265625 77.72266387939453 L 247.33111572265625 72.96322631835938" stroke-opacity="1" stroke-linejoin="bevel" stroke-miterlimit="10" stroke-dasharray="" clip-path="url(#LaxxGQsqoqTE)"/><path fill="none" stroke="rgb(0,0,128)" paint-order="fill" d="M 252.2644500732422 80.2761459350586 L 252.2644500732422 71.24048614501953" stroke-opacity="1" stroke-linejoin="bevel" stroke-miterlimit="10" stroke-dasharray="" clip-path="url(#LaxxGQsqoqTE)"/><path fill="none" stroke="rgb(0,0,128)" paint-order="fill" d="M 257.1977844238281 74.49972534179688 L 257.1977844238281 66.57249450683594" stroke-opacity="1" stroke-linejoin="bevel" stroke-miterlimit="10" stroke-dasharray="" clip-path="url(#LaxxGQsqoqTE)"/><path fill="none" stroke="rgb(0,0,128)" paint-order="fill" d="M 262.131103515625 67.27864074707031 L 262.131103515625 61.08907699584961" stroke-opacity="1" stroke-linejoin="bevel" stroke-miterlimit="10" stroke-dasharray="" clip-path="url(#LaxxGQsqoqTE)"/><path fill="none" stroke="rgb(0,0,128)" paint-order="fill" d="M 267.064453125 68.91668701171875 L 267.064453125 60.08981704711914" stroke-opacity="1" stroke-linejoin="bevel" stroke-miterlimit="10" stroke-dasharray="" clip-path="url(#LaxxGQsqoqTE)"/><path fill="none" stroke="rgb(0,0,128)" paint-order="fill" d="M 271.9977722167969 64.14396286010742 L 271.9977722167969 58.53031921386719" stroke-opacity="1" stroke-linejoin="bevel" stroke-miterlimit="10" stroke-dasharray="" clip-path="url(#LaxxGQsqoqTE)"/><path fill="none" stroke="rgb(0,0,128)" paint-order="fill" d="M 276.9311218261719 57.947757720947266 L 276.9311218261719 53.217891693115234" stroke-opacity="1" stroke-linejoin="bevel" stroke-miterlimit="10" stroke-dasharray="" clip-path="url(#LaxxGQsqoqTE)"/><path fill="none" stroke="rgb(0,0,128)" paint-order="fill" d="M 281.86444091796875 60.12869644165039 L 281.86444091796875 52.462921142578125" stroke-opacity="1" stroke-linejoin="bevel" stroke-miterlimit="10" stroke-dasharray="" clip-path="url(#LaxxGQsqoqTE)"/><path fill="none" stroke="rgb(0,0,128)" paint-order="fill" d="M 286.79779052734375 52.180809020996094 L 286.79779052734375 51.72578811645508" stroke-opacity="1" stroke-linejoin="bevel" stroke-miterlimit="10" stroke-dasharray="" clip-path="url(#LaxxGQsqoqTE)"/><path fill="none" stroke="rgb(0,0,128)" paint-order="fill" d="M 291.7311096191406 49.70182418823242 L 291.7311096191406 48.95875549316406" stroke-opacity="1" stroke-linejoin="bevel" stroke-miterlimit="10" stroke-dasharray="" clip-path="url(#LaxxGQsqoqTE)"/><path fill="none" stroke="rgb(0,0,128)" paint-order="fill" d="M 296.6644592285156 52.89237976074219 L 296.6644592285156 39.3568115234375" stroke-opacity="1" stroke-linejoin="bevel" stroke-miterlimit="10" stroke-dasharray="" clip-path="url(#LaxxGQsqoqTE)"/><path fill="none" stroke="rgb(0,0,128)" paint-order="fill" d="M 301.5977783203125 50.43152618408203 L 301.5977783203125 48.867820739746094" stroke-opacity="1" stroke-linejoin="bevel" stroke-miterlimit="10" stroke-dasharray="" clip-path="url(#LaxxGQsqoqTE)"/><path fill="none" stroke="rgb(0,0,128)" paint-order="fill" d="M 306.5310974121094 60.92958068847656 L 306.5310974121094 52.01076126098633" stroke-opacity="1" stroke-linejoin="bevel" stroke-miterlimit="10" stroke-dasharray="" clip-path="url(#LaxxGQsqoqTE)"/><path fill="none" stroke="rgb(0,0,128)" paint-order="fill" d="M 311.4644470214844 54.35422897338867 L 311.4644470214844 48.30310821533203" stroke-opacity="1" stroke-linejoin="bevel" stroke-miterlimit="10" stroke-dasharray="" clip-path="url(#LaxxGQsqoqTE)"/><path fill="none" stroke="rgb(0,0,128)" paint-order="fill" d="M 316.39776611328125 54.4283332824707 L 316.39776611328125 53.477962493896484" stroke-opacity="1" stroke-linejoin="bevel" stroke-miterlimit="10" stroke-dasharray="" clip-path="url(#LaxxGQsqoqTE)"/><path fill="none" stroke="rgb(0,0,128)" paint-order="fill" d="M 321.33111572265625 59.97560501098633 L 321.33111572265625 49.92500305175781" stroke-opacity="1" stroke-linejoin="bevel" stroke-miterlimit="10" stroke-dasharray="" clip-path="url(#LaxxGQsqoqTE)"/><path fill="none" stroke="rgb(0,0,128)" paint-order="fill" d="M 326.2644348144531 57.1403923034668 L 326.2644348144531 51.114952087402344" stroke-opacity="1" stroke-linejoin="bevel" stroke-miterlimit="10" stroke-dasharray="" clip-path="url(#LaxxGQsqoqTE)"/><path fill="none" stroke="rgb(0,0,128)" paint-order="fill" d="M 331.1977844238281 57.10811233520508 L 331.1977844238281 53.60928726196289" stroke-opacity="1" stroke-linejoin="bevel" stroke-miterlimit="10" stroke-dasharray="" clip-path="url(#LaxxGQsqoqTE)"/><path fill="none" stroke="rgb(0,0,128)" paint-order="fill" d="M 336.131103515625 62.23661422729492 L 336.131103515625 54.324485778808594" stroke-opacity="1" stroke-linejoin="bevel" stroke-miterlimit="10" stroke-dasharray="" clip-path="url(#LaxxGQsqoqTE)"/><path fill="none" stroke="rgb(0,0,128)" paint-order="fill" d="M 341.064453125 56.50102233886719 L 341.064453125 54.14215087890625" stroke-opacity="1" stroke-linejoin="bevel" stroke-miterlimit="10" stroke-dasharray="" clip-path="url(#LaxxGQsqoqTE)"/><path fill="none" stroke="rgb(0,0,128)" paint-order="fill" d="M 345.9977722167969 59.65779495239258 L 345.9977722167969 56.44517135620117" stroke-opacity="1" stroke-linejoin="bevel" stroke-miterlimit="10" stroke-dasharray="" clip-path="url(#LaxxGQsqoqTE)"/><path fill="none" stroke="rgb(0,0,128)" paint-order="fill" d="M 350.9311218261719 58.031166076660156 L 350.9311218261719 53.23866653442383" stroke-opacity="1" stroke-linejoin="bevel" stroke-miterlimit="10" stroke-dasharray="" clip-path="url(#LaxxGQsqoqTE)"/><path fill="none" stroke="rgb(0,0,128)" paint-order="fill" d="M 355.86444091796875 60.30194854736328 L 355.86444091796875 56.281715393066406" stroke-opacity="1" stroke-linejoin="bevel" stroke-miterlimit="10" stroke-dasharray="" clip-path="url(#LaxxGQsqoqTE)"/><path fill="none" stroke="rgb(0,0,128)" paint-order="fill" d="M 360.79779052734375 59.713680267333984 L 360.79779052734375 57.1575813293457" stroke-opacity="1" stroke-linejoin="bevel" stroke-miterlimit="10" stroke-dasharray="" clip-path="url(#LaxxGQsqoqTE)"/><path fill="none" stroke="rgb(0,0,128)" paint-order="fill" d="M 365.7311096191406 60.67565155029297 L 365.7311096191406 53.78746795654297" stroke-opacity="1" stroke-linejoin="bevel" stroke-miterlimit="10" stroke-dasharray="" clip-path="url(#LaxxGQsqoqTE)"/><path fill="none" stroke="rgb(255,0,255)" paint-order="fill" d="M 74.5 183.5 L 75.98743438720703 182.38780212402344 L 77.4748764038086 181.27767944335938 L 78.96231079101562 180.16802978515625 L 80.44974517822266 179.05902099609375 L 81.93718719482422 177.9508514404297 L 83.42462158203125 176.8436737060547 L 84.91206359863281 175.73765563964844 L 86.39949798583984 174.63294982910156 L 87.88693237304688 173.52963256835938 L 89.37437438964844 172.42770385742188 L 90.86180877685547 171.32711791992188 L 92.3492431640625 170.2278289794922 L 93.83668518066406 169.12969970703125 L 95.3241195678711 168.03268432617188 L 96.81156158447266 166.9366912841797 L 98.29899597167969 165.8416748046875 L 99.78643035888672 164.74758911132812 L 101.27387237548828 163.65440368652344 L 102.76130676269531 162.56211853027344 L 104.24874114990234 161.47073364257812 L 105.7361831665039 160.38023376464844 L 107.22361755371094 159.29063415527344 L 108.71105194091797 158.20193481445312 L 110.19849395751953 157.11416625976562 L 111.68592834472656 156.02732849121094 L 113.17337036132812 154.9414520263672 L 114.66080474853516 153.85653686523438 L 116.14823913574219 152.77261352539062 L 117.63568115234375 151.689697265625 L 119.12311553955078 150.60780334472656 L 120.61054992675781 149.52696228027344 L 122.09799194335938 148.4471893310547 L 123.5854263305664 147.36849975585938 L 125.07286071777344 146.29092407226562 L 126.560302734375 145.21446228027344 L 128.04773712158203 144.13914489746094 L 129.53517150878906 143.0649871826172 L 131.02261352539062 141.9919891357422 L 132.5100555419922 140.92018127441406 L 133.9974822998047 139.8495635986328 L 135.48492431640625 138.78013610839844 L 136.9723663330078 137.71192932128906 L 138.4597930908203 136.6449432373047 L 139.94723510742188 135.5791778564453 L 141.43467712402344 134.51463317871094 L 142.92210388183594 133.4512939453125 L 144.4095458984375 132.38919067382812 L 145.89698791503906 131.32827758789062 L 147.38441467285156 130.26858520507812 L 148.87185668945312 129.21009826660156 L 150.3592987060547 128.15279388427734 L 151.84674072265625 127.0966796875 L 153.33416748046875 126.0417251586914 L 154.8216094970703 124.9879379272461 L 156.30905151367188 123.93529510498047 L 157.79647827148438 122.88379669189453 L 159.28392028808594 121.83341217041016 L 160.7713623046875 120.78414916992188 L 162.2587890625 119.73599243164062 L 163.74623107910156 118.68892669677734 L 165.23367309570312 117.64295959472656 L 166.72109985351562 116.59806823730469 L 168.2085418701172 115.55425262451172 L 169.69598388671875 114.51152038574219 L 171.18341064453125 113.46986389160156 L 172.6708526611328 112.4292984008789 L 174.15829467773438 111.38981628417969 L 175.64572143554688 110.3514404296875 L 177.13316345214844 109.3141860961914 L 178.62060546875 108.27806854248047 L 180.10804748535156 107.24311828613281 L 181.59547424316406 106.20936584472656 L 183.08291625976562 105.17684173583984 L 184.5703582763672 104.14559936523438 L 186.0577850341797 103.11569213867188 L 187.54522705078125 102.08717346191406 L 189.0326690673828 101.06011199951172 L 190.5200958251953 100.03459930419922 L 192.00753784179688 99.01073455810547 L 193.49497985839844 97.98860931396484 L 194.98240661621094 96.9683609008789 L 196.4698486328125 95.95013427734375 L 197.95729064941406 94.93408203125 L 199.44471740722656 93.92041015625 L 200.93215942382812 92.9093246459961 L 202.4196014404297 91.90107727050781 L 203.9070281982422 90.89595031738281 L 205.39447021484375 89.89427947998047 L 206.8819122314453 88.89643096923828 L 208.36935424804688 87.90283966064453 L 209.85678100585938 86.91400146484375 L 211.34422302246094 85.93046569824219 L 212.8316650390625 84.95288848876953 L 214.319091796875 83.98197174072266 L 215.80653381347656 83.01854705810547 L 217.29397583007812 82.06350708007812 L 218.78140258789062 81.11788177490234 L 220.2688446044922 80.18276977539062 L 221.75628662109375 79.25938415527344 L 223.24371337890625 78.34902954101562 L 224.7311553955078 77.45310974121094 L 226.21859741210938 76.57305908203125 L 227.70602416992188 75.71040344238281 L 229.19346618652344 74.86666870117188 L 230.680908203125 74.04337310791016 L 232.1683349609375 73.24201202392578 L 233.65577697753906 72.4639892578125 L 235.14321899414062 71.71062469482422 L 236.63064575195312 70.98307800292969 L 238.1180877685547 70.28233337402344 L 239.60552978515625 69.60918426513672 L 241.0929718017578 68.96417999267578 L 242.5803985595703 68.34766387939453 L 244.06784057617188 67.75971221923828 L 245.55528259277344 67.20018768310547 L 247.04270935058594 66.66870880126953 L 248.5301513671875 66.16471099853516 L 250.01759338378906 65.68745422363281 L 251.50502014160156 65.23604583740234 L 252.99246215820312 64.8094711303711 L 254.4799041748047 64.40664672851562 L 255.9673309326172 64.02642059326172 L 257.45477294921875 63.6676139831543 L 258.94219970703125 63.329044342041016 L 260.4296569824219 63.00952911376953 L 261.9170837402344 62.707923889160156 L 263.4045104980469 62.42311096191406 L 264.8919677734375 62.154029846191406 L 266.37939453125 61.899654388427734 L 267.8668212890625 61.65903091430664 L 269.3542785644531 61.431251525878906 L 270.8417053222656 61.21546173095703 L 272.3291320800781 61.010868072509766 L 273.81658935546875 60.816734313964844 L 275.30401611328125 60.63236618041992 L 276.79144287109375 60.457122802734375 L 278.2789001464844 60.29041290283203 L 279.7663269042969 60.131683349609375 L 281.2537536621094 59.98042678833008 L 282.7412109375 59.83616638183594 L 284.2286376953125 59.69845962524414 L 285.7160949707031 59.566898345947266 L 287.2035217285156 59.441131591796875 L 288.6909484863281 59.32077407836914 L 290.17840576171875 59.205528259277344 L 291.66583251953125 59.09508514404297 L 293.15325927734375 58.98917007446289 L 294.6407165527344 58.88751983642578 L 296.1281433105469 58.789894104003906 L 297.6155700683594 58.696075439453125 L 299.10302734375 58.6058464050293 L 300.5904541015625 58.519020080566406 L 302.077880859375 58.43541717529297 L 303.5653381347656 58.354862213134766 L 305.0527648925781 58.277198791503906 L 306.5401916503906 58.20228576660156 L 308.02764892578125 58.12997817993164 L 309.51507568359375 58.06015396118164 L 311.00250244140625 57.9926872253418 L 312.4899597167969 57.92746353149414 L 313.9773864746094 57.8643798828125 L 315.4648132324219 57.80333709716797 L 316.9522705078125 57.744239807128906 L 318.439697265625 57.6870002746582 L 319.9271240234375 57.631534576416016 L 321.4145812988281 57.577762603759766 L 322.9020080566406 57.52561569213867 L 324.3894348144531 57.47501754760742 L 325.87689208984375 57.425907135009766 L 327.36431884765625 57.37821960449219 L 328.85174560546875 57.33190155029297 L 330.3392028808594 57.286888122558594 L 331.8266296386719 57.243133544921875 L 333.3140563964844 57.200584411621094 L 334.801513671875 57.15919494628906 L 336.2889404296875 57.118919372558594 L 337.7763671875 57.079715728759766 L 339.2638244628906 57.041542053222656 L 340.7512512207031 57.00436019897461 L 342.23870849609375 56.968135833740234 L 343.72613525390625 56.932830810546875 L 345.21356201171875 56.898414611816406 L 346.7010192871094 56.8648567199707 L 348.1884460449219 56.832122802734375 L 349.6758728027344 56.8001823425293 L 351.163330078125 56.769012451171875 L 352.6507568359375 56.73858642578125 L 354.13818359375 56.70887756347656 L 355.6256408691406 56.67986297607422 L 357.1130676269531 56.651519775390625 L 358.6004943847656 56.62382125854492 L 360.08795166015625 56.59675216674805 L 361.57537841796875 56.57029342651367 L 363.06280517578125 56.5444221496582 L 364.5502624511719 56.51911926269531 L 366.0376892089844 56.49436950683594 L 367.5251159667969 56.470157623291016 L 369.0125732421875 56.44645690917969 L 370.5 56.42326354980469" stroke-opacity="0.30196078431372547" stroke-linejoin="bevel" stroke-miterlimit="10" stroke-width="2" stroke-dasharray="" clip-path="url(#iEWzEvvuTMJx)"/><path fill="none" stroke="rgb(255,0,255)" paint-order="fill" d="M 74.5 183.5 L 75.98743438720703 182.4110870361328 L 77.4748764038086 181.32171630859375 L 78.96231079101562 180.23280334472656 L 80.44974517822266 179.14450073242188 L 81.93718719482422 178.05699157714844 L 83.42462158203125 176.970458984375 L 84.91206359863281 175.88504028320312 L 86.39949798583984 174.80087280273438 L 87.88693237304688 173.71804809570312 L 89.37437438964844 172.6365509033203 L 90.86180877685547 171.5563507080078 L 92.3492431640625 170.47738647460938 L 93.83668518066406 169.39955139160156 L 95.3241195678711 168.32278442382812 L 96.81156158447266 167.2469940185547 L 98.29899597167969 166.17213439941406 L 99.78643035888672 165.09817504882812 L 101.27387237548828 164.02508544921875 L 102.76130676269531 162.95286560058594 L 104.24874114990234 161.88148498535156 L 105.7361831665039 160.81097412109375 L 107.22361755371094 159.74131774902344 L 108.71105194091797 158.6725311279297 L 110.19849395751953 157.60462951660156 L 111.68592834472656 156.53762817382812 L 113.17337036132812 155.47154235839844 L 114.66080474853516 154.40638732910156 L 116.14823913574219 153.34217834472656 L 117.63568115234375 152.2789306640625 L 119.12311553955078 151.2166748046875 L 120.61054992675781 150.15541076660156 L 122.09799194335938 149.0951690673828 L 123.5854263305664 148.03598022460938 L 125.07286071777344 146.97784423828125 L 126.560302734375 145.9207763671875 L 128.04773712158203 144.86480712890625 L 129.53517150878906 143.80995178222656 L 131.02261352539062 142.75619506835938 L 132.5100555419922 141.70358276367188 L 133.9974822998047 140.65211486816406 L 135.48492431640625 139.601806640625 L 136.9723663330078 138.55264282226562 L 138.4597930908203 137.504638671875 L 139.94723510742188 136.4578094482422 L 141.43467712402344 135.4121551513672 L 142.92210388183594 134.36766052246094 L 144.4095458984375 133.32432556152344 L 145.89698791503906 132.28216552734375 L 147.38441467285156 131.24114990234375 L 148.87185668945312 130.20127868652344 L 150.3592987060547 129.1625518798828 L 151.84674072265625 128.12496185302734 L 153.33416748046875 127.08848571777344 L 154.8216094970703 126.0531234741211 L 156.30905151367188 125.01885986328125 L 157.79647827148438 123.98567962646484 L 159.28392028808594 122.95358276367188 L 160.7713623046875 121.92254638671875 L 162.2587890625 120.892578125 L 163.74623107910156 119.8636474609375 L 165.23367309570312 118.83576965332031 L 166.72109985351562 117.80892181396484 L 168.2085418701172 116.78311157226562 L 169.69598388671875 115.75833129882812 L 171.18341064453125 114.73458099365234 L 172.6708526611328 113.71186828613281 L 174.15829467773438 112.6902084350586 L 175.64572143554688 111.66960144042969 L 177.13316345214844 110.65006256103516 L 178.62060546875 109.6316146850586 L 180.10804748535156 108.61428833007812 L 181.59547424316406 107.59809875488281 L 183.08291625976562 106.58309936523438 L 184.5703582763672 105.56932067871094 L 186.0577850341797 104.55680847167969 L 187.54522705078125 103.54563903808594 L 189.0326690673828 102.5358657836914 L 190.5200958251953 101.52757263183594 L 192.00753784179688 100.5208511352539 L 193.49497985839844 99.51580047607422 L 194.98240661621094 98.5125503540039 L 196.4698486328125 97.51123046875 L 197.95729064941406 96.51200103759766 L 199.44471740722656 95.51504516601562 L 200.93215942382812 94.52056121826172 L 202.4196014404297 93.52880859375 L 203.9070281982422 92.5400390625 L 205.39447021484375 91.55458068847656 L 206.8819122314453 90.57278442382812 L 208.36935424804688 89.59507751464844 L 209.85678100585938 88.62191772460938 L 211.34422302246094 87.65385437011719 L 212.8316650390625 86.69149017333984 L 214.319091796875 85.73553466796875 L 215.80653381347656 84.78675079345703 L 217.29397583007812 83.84603118896484 L 218.78140258789062 82.91433715820312 L 220.2688446044922 81.99274444580078 L 221.75628662109375 81.08241271972656 L 223.24371337890625 80.18461608886719 L 224.7311553955078 79.30068969726562 L 226.21859741210938 78.43204498291016 L 227.70602416992188 77.58013916015625 L 229.19346618652344 76.74645233154297 L 230.680908203125 75.93248748779297 L 232.1683349609375 75.13967895507812 L 233.65577697753906 74.36943054199219 L 235.14321899414062 73.62303161621094 L 236.63064575195312 72.9016342163086 L 238.1180877685547 72.20623779296875 L 239.60552978515625 71.53764343261719 L 241.0929718017578 70.89644622802734 L 242.5803985595703 70.28301239013672 L 244.06784057617188 69.69747924804688 L 245.55528259277344 69.13975524902344 L 247.04270935058594 68.60954284667969 L 248.5301513671875 68.1063232421875 L 250.01759338378906 67.6294174194336 L 251.50502014160156 67.17799377441406 L 252.99246215820312 66.75111389160156 L 254.4799041748047 66.34773254394531 L 255.9673309326172 65.96675109863281 L 257.45477294921875 65.60702514648438 L 258.94219970703125 65.26741790771484 L 260.4296569824219 64.94678497314453 L 261.9170837402344 64.64399719238281 L 263.4045104980469 64.35796356201172 L 264.8919677734375 64.0876350402832 L 266.37939453125 63.83201217651367 L 267.8668212890625 63.590145111083984 L 269.3542785644531 63.36112976074219 L 270.8417053222656 63.14413070678711 L 272.3291320800781 62.9383544921875 L 273.81658935546875 62.743064880371094 L 275.30401611328125 62.55757522583008 L 276.79144287109375 62.381248474121094 L 278.2789001464844 62.21348571777344 L 279.7663269042969 62.053741455078125 L 281.2537536621094 61.9015007019043 L 282.7412109375 61.75629425048828 L 284.2286376953125 61.617679595947266 L 285.7160949707031 61.48525619506836 L 287.2035217285156 61.35862731933594 L 288.6909484863281 61.23748016357422 L 290.17840576171875 61.121456146240234 L 291.66583251953125 61.01026153564453 L 293.15325927734375 60.903621673583984 L 294.6407165527344 60.80127716064453 L 296.1281433105469 60.70298385620117 L 297.6155700683594 60.6085205078125 L 299.10302734375 60.51767349243164 L 300.5904541015625 60.43025588989258 L 302.077880859375 60.34607696533203 L 303.5653381347656 60.26496887207031 L 305.0527648925781 60.18677520751953 L 306.5401916503906 60.11134719848633 L 308.02764892578125 60.038543701171875 L 309.51507568359375 59.96824264526367 L 311.00250244140625 59.90031433105469 L 312.4899597167969 59.83464813232422 L 313.9773864746094 59.77113723754883 L 315.4648132324219 59.709678649902344 L 316.9522705078125 59.650177001953125 L 318.439697265625 59.59254837036133 L 319.9271240234375 59.53670883178711 L 321.4145812988281 59.48257064819336 L 322.9020080566406 59.43006896972656 L 324.3894348144531 59.37913131713867 L 325.87689208984375 59.32969284057617 L 327.36431884765625 59.28168487548828 L 328.85174560546875 59.235050201416016 L 330.3392028808594 59.189735412597656 L 331.8266296386719 59.14569091796875 L 333.3140563964844 59.10285949707031 L 334.801513671875 59.06119155883789 L 336.2889404296875 59.02064895629883 L 337.7763671875 58.98118209838867 L 339.2638244628906 58.94275665283203 L 340.7512512207031 58.905330657958984 L 342.23870849609375 58.868865966796875 L 343.72613525390625 58.83332824707031 L 345.21356201171875 58.79868698120117 L 346.7010192871094 58.7649040222168 L 348.1884460449219 58.731956481933594 L 349.6758728027344 58.69981002807617 L 351.163330078125 58.668434143066406 L 352.6507568359375 58.6378059387207 L 354.13818359375 58.60790252685547 L 355.6256408691406 58.57870101928711 L 357.1130676269531 58.550174713134766 L 358.6004943847656 58.52229690551758 L 360.08795166015625 58.495052337646484 L 361.57537841796875 58.468421936035156 L 363.06280517578125 58.4423828125 L 364.5502624511719 58.41691589355469 L 366.0376892089844 58.392005920410156 L 367.5251159667969 58.36763381958008 L 369.0125732421875 58.34378433227539 L 370.5 58.32044219970703" stroke-opacity="0.30196078431372547" stroke-linejoin="bevel" stroke-miterlimit="10" stroke-width="2" stroke-dasharray="" clip-path="url(#IoyxonqTkwoM)"/><path fill="none" stroke="rgb(255,0,255)" paint-order="fill" d="M 74.5 183.5 L 75.98743438720703 182.41378784179688 L 77.4748764038086 181.3252410888672 L 78.96231079101562 180.2371368408203 L 80.44974517822266 179.149658203125 L 81.93718719482422 178.06297302246094 L 83.42462158203125 176.97726440429688 L 84.91206359863281 175.8926544189453 L 86.39949798583984 174.80931091308594 L 87.88693237304688 173.72727966308594 L 89.37437438964844 172.6466064453125 L 90.86180877685547 171.5672149658203 L 92.3492431640625 170.4890594482422 L 93.83668518066406 169.4120330810547 L 95.3241195678711 168.3360595703125 L 96.81156158447266 167.2610626220703 L 98.29899597167969 166.18701171875 L 99.78643035888672 165.1138458251953 L 101.27387237548828 164.04156494140625 L 102.76130676269531 162.97012329101562 L 104.24874114990234 161.89955139160156 L 105.7361831665039 160.82981872558594 L 107.22361755371094 159.76095581054688 L 108.71105194091797 158.69296264648438 L 110.19849395751953 157.6258544921875 L 111.68592834472656 156.5596466064453 L 113.17337036132812 155.4943389892578 L 114.66080474853516 154.42996215820312 L 116.14823913574219 153.3665313720703 L 117.63568115234375 152.30406188964844 L 119.12311553955078 151.24258422851562 L 120.61054992675781 150.18209838867188 L 122.09799194335938 149.12265014648438 L 123.5854263305664 148.06422424316406 L 125.07286071777344 147.00685119628906 L 126.560302734375 145.9505615234375 L 128.04773712158203 144.89535522460938 L 129.53517150878906 143.8412628173828 L 131.02261352539062 142.7882843017578 L 132.5100555419922 141.73643493652344 L 133.9974822998047 140.6857147216797 L 135.48492431640625 139.6361541748047 L 136.9723663330078 138.58775329589844 L 138.4597930908203 137.54051208496094 L 139.94723510742188 136.4944305419922 L 141.43467712402344 135.44952392578125 L 142.92210388183594 134.40577697753906 L 144.4095458984375 133.36318969726562 L 145.89698791503906 132.32176208496094 L 147.38441467285156 131.281494140625 L 148.87185668945312 130.24237060546875 L 150.3592987060547 129.20437622070312 L 151.84674072265625 128.16751861572266 L 153.33416748046875 127.13177490234375 L 154.8216094970703 126.0971450805664 L 156.30905151367188 125.06361389160156 L 157.79647827148438 124.03115844726562 L 159.28392028808594 122.99978637695312 L 160.7713623046875 121.969482421875 L 162.2587890625 120.94023132324219 L 163.74623107910156 119.91202545166016 L 165.23367309570312 118.88485717773438 L 166.72109985351562 117.85872650146484 L 168.2085418701172 116.83363342285156 L 169.69598388671875 115.80956268310547 L 171.18341064453125 114.78652954101562 L 172.6708526611328 113.7645263671875 L 174.15829467773438 112.74356842041016 L 175.64572143554688 111.72367095947266 L 177.13316345214844 110.704833984375 L 178.62060546875 109.68708801269531 L 180.10804748535156 108.67046356201172 L 181.59547424316406 107.65497589111328 L 183.08291625976562 106.64066314697266 L 184.5703582763672 105.62757873535156 L 186.0577850341797 104.61576843261719 L 187.54522705078125 103.60527801513672 L 189.0326690673828 102.59619903564453 L 190.5200958251953 101.58858489990234 L 192.00753784179688 100.58255004882812 L 193.49497985839844 99.57817840576172 L 194.98240661621094 98.57559967041016 L 196.4698486328125 97.574951171875 L 197.95729064941406 96.5763931274414 L 199.44471740722656 95.58009338378906 L 200.93215942382812 94.5862808227539 L 202.4196014404297 93.59517669677734 L 203.9070281982422 92.6070556640625 L 205.39447021484375 91.62224578857422 L 206.8819122314453 90.6410903930664 L 208.36935424804688 89.66400909423828 L 209.85678100585938 88.69147491455078 L 211.34422302246094 87.72402954101562 L 212.8316650390625 86.76227569580078 L 214.319091796875 85.8069076538086 L 215.80653381347656 84.85871124267578 L 217.29397583007812 83.9185562133789 L 218.78140258789062 82.98741912841797 L 220.2688446044922 82.06636047363281 L 221.75628662109375 81.15655517578125 L 223.24371337890625 80.2592544555664 L 224.7311553955078 79.37580871582031 L 226.21859741210938 78.50761413574219 L 227.70602416992188 77.65613555908203 L 229.19346618652344 76.8228530883789 L 230.680908203125 76.0092544555664 L 232.1683349609375 75.21678924560547 L 233.65577697753906 74.44685363769531 L 235.14321899414062 73.70072174072266 L 236.63064575195312 72.97956848144531 L 238.1180877685547 72.28438568115234 L 239.60552978515625 71.615966796875 L 241.0929718017578 70.97491455078125 L 242.5803985595703 70.36160278320312 L 244.06784057617188 69.77616119384766 L 245.55528259277344 69.21851348876953 L 247.04270935058594 68.68833923339844 L 248.5301513671875 68.18514251708984 L 250.01759338378906 67.70824432373047 L 251.50502014160156 67.25682067871094 L 252.99246215820312 66.82991790771484 L 254.4799041748047 66.42649841308594 L 255.9673309326172 66.04547882080078 L 257.45477294921875 65.68571472167969 L 258.94219970703125 65.34606170654297 L 260.4296569824219 65.02537536621094 L 261.9170837402344 64.72252655029297 L 263.4045104980469 64.43643951416016 L 264.8919677734375 64.16605377197266 L 266.37939453125 63.91037368774414 L 267.8668212890625 63.66844940185547 L 269.3542785644531 63.43938064575195 L 270.8417053222656 63.22232437133789 L 272.3291320800781 63.01649475097656 L 273.81658935546875 62.8211555480957 L 275.30401611328125 62.635616302490234 L 276.79144287109375 62.4592399597168 L 278.2789001464844 62.29143142700195 L 279.7663269042969 62.13164138793945 L 281.2537536621094 61.9793586730957 L 282.7412109375 61.8341064453125 L 284.2286376953125 61.69545364379883 L 285.7160949707031 61.56298828125 L 287.2035217285156 61.43632888793945 L 288.6909484863281 61.31513595581055 L 290.17840576171875 61.199073791503906 L 291.66583251953125 61.08784484863281 L 293.15325927734375 60.981178283691406 L 294.6407165527344 60.87881088256836 L 296.1281433105469 60.780487060546875 L 297.6155700683594 60.68598937988281 L 299.10302734375 60.595123291015625 L 300.5904541015625 60.50767517089844 L 302.077880859375 60.42346954345703 L 303.5653381347656 60.34233856201172 L 305.0527648925781 60.264122009277344 L 306.5401916503906 60.18867111206055 L 308.02764892578125 60.115848541259766 L 309.51507568359375 60.04552459716797 L 311.00250244140625 59.97757339477539 L 312.4899597167969 59.91189193725586 L 313.9773864746094 59.84836196899414 L 315.4648132324219 59.78688049316406 L 316.9522705078125 59.72736740112305 L 318.439697265625 59.66971969604492 L 319.9271240234375 59.613861083984375 L 321.4145812988281 59.55971145629883 L 322.9020080566406 59.50719451904297 L 324.3894348144531 59.456241607666016 L 325.87689208984375 59.40678787231445 L 327.36431884765625 59.3587646484375 L 328.85174560546875 59.31211853027344 L 330.3392028808594 59.26679229736328 L 331.8266296386719 59.22273254394531 L 333.3140563964844 59.17988586425781 L 334.801513671875 59.13821029663086 L 336.2889404296875 59.097652435302734 L 337.7763671875 59.05817794799805 L 339.2638244628906 59.01974105834961 L 340.7512512207031 58.982303619384766 L 342.23870849609375 58.94582748413086 L 343.72613525390625 58.910282135009766 L 345.21356201171875 58.87562942504883 L 346.7010192871094 58.84183883666992 L 348.1884460449219 58.80887985229492 L 349.6758728027344 58.7767219543457 L 351.163330078125 58.745338439941406 L 352.6507568359375 58.71470260620117 L 354.13818359375 58.684791564941406 L 355.6256408691406 58.65557861328125 L 357.1130676269531 58.627044677734375 L 358.6004943847656 58.599159240722656 L 360.08795166015625 58.57190704345703 L 361.57537841796875 58.54526901245117 L 363.06280517578125 58.519222259521484 L 364.5502624511719 58.493751525878906 L 366.0376892089844 58.468833923339844 L 367.5251159667969 58.444454193115234 L 369.0125732421875 58.42060089111328 L 370.5 58.39725112915039" stroke-opacity="0.30196078431372547" stroke-linejoin="bevel" stroke-miterlimit="10" stroke-width="2" stroke-dasharray="" clip-path="url(#VMkvoTsGiHOH)"/><path fill="none" stroke="rgb(255,0,255)" paint-order="fill" d="M 74.5 183.5 L 75.98743438720703 182.435546875 L 77.4748764038086 181.36849975585938 L 78.96231079101562 180.3018798828125 L 80.44974517822266 179.23587036132812 L 81.93718719482422 178.17062377929688 L 83.42462158203125 177.10629272460938 L 84.91206359863281 176.0430450439453 L 86.39949798583984 174.98098754882812 L 87.88693237304688 173.9202117919922 L 89.37437438964844 172.8607177734375 L 90.86180877685547 171.80245971679688 L 92.3492431640625 170.74537658691406 L 93.83668518066406 169.68939208984375 L 95.3241195678711 168.63441467285156 L 96.81156158447266 167.58038330078125 L 98.29899597167969 166.52723693847656 L 99.78643035888672 165.47496032714844 L 101.27387237548828 164.4235076904297 L 102.76130676269531 163.3728790283203 L 104.24874114990234 162.32305908203125 L 105.7361831665039 161.27407836914062 L 107.22361755371094 160.2259063720703 L 108.71105194091797 159.17857360839844 L 110.19849395751953 158.132080078125 L 111.68592834472656 157.08644104003906 L 113.17337036132812 156.0416717529297 L 114.66080474853516 154.997802734375 L 116.14823913574219 153.954833984375 L 117.63568115234375 152.91278076171875 L 119.12311553955078 151.87167358398438 L 120.61054992675781 150.83151245117188 L 122.09799194335938 149.79232788085938 L 123.5854263305664 148.754150390625 L 125.07286071777344 147.7169647216797 L 126.560302734375 146.68081665039062 L 128.04773712158203 145.6457061767578 L 129.53517150878906 144.6116485595703 L 131.02261352539062 143.5786590576172 L 132.5100555419922 142.5467529296875 L 133.9974822998047 141.51593017578125 L 135.48492431640625 140.4862060546875 L 136.9723663330078 139.45758056640625 L 138.4597930908203 138.43006896972656 L 139.94723510742188 137.40367126464844 L 141.43467712402344 136.37838745117188 L 142.92210388183594 135.35421752929688 L 144.4095458984375 134.33116149902344 L 145.89698791503906 133.3092041015625 L 147.38441467285156 132.28834533691406 L 148.87185668945312 131.26858520507812 L 150.3592987060547 130.24990844726562 L 151.84674072265625 129.23231506347656 L 153.33416748046875 128.21578216552734 L 154.8216094970703 127.20030975341797 L 156.30905151367188 126.18588256835938 L 157.79647827148438 125.17250061035156 L 159.28392028808594 124.16014099121094 L 160.7713623046875 123.14879608154297 L 162.2587890625 122.13846588134766 L 163.74623107910156 121.12913513183594 L 165.23367309570312 120.12078857421875 L 166.72109985351562 119.11344146728516 L 168.2085418701172 118.10707092285156 L 169.69598388671875 117.10169219970703 L 171.18341064453125 116.09729766845703 L 172.6708526611328 115.09388732910156 L 174.15829467773438 114.09147644042969 L 175.64572143554688 113.09007263183594 L 177.13316345214844 112.08969116210938 L 178.62060546875 111.09034729003906 L 180.10804748535156 110.0920639038086 L 181.59547424316406 109.09487915039062 L 183.08291625976562 108.09881591796875 L 184.5703582763672 107.10391998291016 L 186.0577850341797 106.11023712158203 L 187.54522705078125 105.11782836914062 L 189.0326690673828 104.12675476074219 L 190.5200958251953 103.13709259033203 L 192.00753784179688 102.14892578125 L 193.49497985839844 101.162353515625 L 194.98240661621094 100.17749786376953 L 196.4698486328125 99.1944808959961 L 197.95729064941406 98.21346282958984 L 199.44471740722656 97.23461151123047 L 200.93215942382812 96.25811767578125 L 202.4196014404297 95.28422546386719 L 203.9070281982422 94.31318664550781 L 205.39447021484375 93.34530639648438 L 206.8819122314453 92.38092041015625 L 208.36935424804688 91.42044067382812 L 209.85678100585938 90.46430206298828 L 211.34422302246094 89.51302337646484 L 212.8316650390625 88.56719970703125 L 214.319091796875 87.62748718261719 L 215.80653381347656 86.69464111328125 L 217.29397583007812 85.76949310302734 L 218.78140258789062 84.85298156738281 L 220.2688446044922 83.94613647460938 L 221.75628662109375 83.05006408691406 L 223.24371337890625 82.1659927368164 L 224.7311553955078 81.29520416259766 L 226.21859741210938 80.43905639648438 L 227.70602416992188 79.59896850585938 L 229.19346618652344 78.7763671875 L 230.680908203125 77.97269439697266 L 232.1683349609375 77.18937683105469 L 233.65577697753906 76.42777252197266 L 235.14321899414062 75.68914794921875 L 236.63064575195312 74.97465515136719 L 238.1180877685547 74.28529357910156 L 239.60552978515625 73.62188720703125 L 241.0929718017578 72.98504638671875 L 242.5803985595703 72.37519073486328 L 244.06784057617188 71.79251098632812 L 245.55528259277344 71.2369613647461 L 247.04270935058594 70.70830535888672 L 248.5301513671875 70.20610809326172 L 250.01759338378906 69.72975158691406 L 251.50502014160156 69.2784652709961 L 252.99246215820312 68.85137939453125 L 254.4799041748047 68.44750213623047 L 255.9673309326172 68.0657958984375 L 257.45477294921875 67.70516204833984 L 258.94219970703125 67.364501953125 L 260.4296569824219 67.04270935058594 L 261.9170837402344 66.73868560791016 L 263.4045104980469 66.45136260986328 L 264.8919677734375 66.1797103881836 L 266.37939453125 65.9227523803711 L 267.8668212890625 65.67955017089844 L 269.3542785644531 65.44921875 L 270.8417053222656 65.23091125488281 L 272.3291320800781 65.02384948730469 L 273.81658935546875 64.82731628417969 L 275.30401611328125 64.64060974121094 L 276.79144287109375 64.46309661865234 L 278.2789001464844 64.29419326782227 L 279.7663269042969 64.13333129882812 L 281.2537536621094 63.98002624511719 L 282.7412109375 63.83378601074219 L 284.2286376953125 63.69417953491211 L 285.7160949707031 63.56080627441406 L 287.2035217285156 63.433250427246094 L 288.6909484863281 63.31120681762695 L 290.17840576171875 63.1943359375 L 291.66583251953125 63.08232116699219 L 293.15325927734375 62.974891662597656 L 294.6407165527344 62.87177658081055 L 296.1281433105469 62.772762298583984 L 297.6155700683594 62.67759323120117 L 299.10302734375 62.58606719970703 L 300.5904541015625 62.49799346923828 L 302.077880859375 62.41318893432617 L 303.5653381347656 62.33147048950195 L 305.0527648925781 62.252689361572266 L 306.5401916503906 62.176700592041016 L 308.02764892578125 62.103355407714844 L 309.51507568359375 62.03252410888672 L 311.00250244140625 61.96409225463867 L 312.4899597167969 61.89794158935547 L 313.9773864746094 61.833953857421875 L 315.4648132324219 61.77203369140625 L 316.9522705078125 61.71209716796875 L 318.439697265625 61.65403747558594 L 319.9271240234375 61.59778594970703 L 321.4145812988281 61.54324722290039 L 322.9020080566406 61.490360260009766 L 324.3894348144531 61.43904495239258 L 325.87689208984375 61.389244079589844 L 327.36431884765625 61.340885162353516 L 328.85174560546875 61.29390335083008 L 330.3392028808594 61.248260498046875 L 331.8266296386719 61.203895568847656 L 333.3140563964844 61.16074752807617 L 334.801513671875 61.118778228759766 L 336.2889404296875 61.077938079833984 L 337.7763671875 61.03818893432617 L 339.2638244628906 60.999481201171875 L 340.7512512207031 60.96178436279297 L 342.23870849609375 60.92505645751953 L 343.72613525390625 60.88926315307617 L 345.21356201171875 60.8543701171875 L 346.7010192871094 60.82034683227539 L 348.1884460449219 60.78716278076172 L 349.6758728027344 60.754783630371094 L 351.163330078125 60.72318649291992 L 352.6507568359375 60.69234085083008 L 354.13818359375 60.66222381591797 L 355.6256408691406 60.6328125 L 357.1130676269531 60.60408020019531 L 358.6004943847656 60.57600784301758 L 360.08795166015625 60.5485725402832 L 361.57537841796875 60.521751403808594 L 363.06280517578125 60.49552917480469 L 364.5502624511719 60.46988296508789 L 366.0376892089844 60.444793701171875 L 367.5251159667969 60.42025375366211 L 369.0125732421875 60.396236419677734 L 370.5 60.37273025512695" stroke-opacity="0.30196078431372547" stroke-linejoin="bevel" stroke-miterlimit="10" stroke-width="2" stroke-dasharray="" clip-path="url(#dIIHsStbdzOU)"/><path fill="none" stroke="rgb(255,0,255)" paint-order="fill" d="M 74.5 183.5 L 75.98743438720703 182.4587860107422 L 77.4748764038086 181.4176483154297 L 78.96231079101562 180.3769073486328 L 80.44974517822266 179.3367462158203 L 81.93718719482422 178.29730224609375 L 83.42462158203125 177.2587432861328 L 84.91206359863281 176.22119140625 L 86.39949798583984 175.18479919433594 L 87.88693237304688 174.14959716796875 L 89.37437438964844 173.11561584472656 L 90.86180877685547 172.08282470703125 L 92.3492431640625 171.0511474609375 L 93.83668518066406 170.0205078125 L 95.3241195678711 168.99082946777344 L 96.81156158447266 167.9620361328125 L 98.29899597167969 166.93409729003906 L 99.78643035888672 165.90696716308594 L 101.27387237548828 164.88064575195312 L 102.76130676269531 163.85508728027344 L 104.24874114990234 162.83030700683594 L 105.7361831665039 161.80628967285156 L 107.22361755371094 160.78306579589844 L 108.71105194091797 159.76063537597656 L 110.19849395751953 158.73899841308594 L 111.68592834472656 157.71817016601562 L 113.17337036132812 156.6981658935547 L 114.66080474853516 155.67901611328125 L 116.14823913574219 154.66070556640625 L 117.63568115234375 153.6432647705078 L 119.12311553955078 152.62672424316406 L 120.61054992675781 151.611083984375 L 122.09799194335938 150.59637451171875 L 123.5854263305664 149.5825958251953 L 125.07286071777344 148.56976318359375 L 126.560302734375 147.5579071044922 L 128.04773712158203 146.5470428466797 L 129.53517150878906 145.53717041015625 L 131.02261352539062 144.52828979492188 L 132.5100555419922 143.52044677734375 L 133.9974822998047 142.51364135742188 L 135.48492431640625 141.5078582763672 L 136.9723663330078 140.50311279296875 L 138.4597930908203 139.49942016601562 L 139.94723510742188 138.4967803955078 L 141.43467712402344 137.4951934814453 L 142.92210388183594 136.49465942382812 L 144.4095458984375 135.49517822265625 L 145.89698791503906 134.49673461914062 L 147.38441467285156 133.49932861328125 L 148.87185668945312 132.50296020507812 L 150.3592987060547 131.5076141357422 L 151.84674072265625 130.51329040527344 L 153.33416748046875 129.5199737548828 L 154.8216094970703 128.5276641845703 L 156.30905151367188 127.53633117675781 L 157.79647827148438 126.54598236083984 L 159.28392028808594 125.55661010742188 L 160.7713623046875 124.56819152832031 L 162.2587890625 123.58072662353516 L 163.74623107910156 122.5942153930664 L 165.23367309570312 121.60863494873047 L 166.72109985351562 120.62399291992188 L 168.2085418701172 119.64027404785156 L 169.69598388671875 118.6574935913086 L 171.18341064453125 117.67564392089844 L 172.6708526611328 116.6947250366211 L 174.15829467773438 115.7147445678711 L 175.64572143554688 114.73572540283203 L 177.13316345214844 113.75765991210938 L 178.62060546875 112.78058624267578 L 180.10804748535156 111.80451202392578 L 181.59547424316406 110.82947540283203 L 183.08291625976562 109.85549926757812 L 184.5703582763672 108.88262176513672 L 186.0577850341797 107.91089630126953 L 187.54522705078125 106.94037628173828 L 189.0326690673828 105.97111511230469 L 190.5200958251953 105.00318145751953 L 192.00753784179688 104.03666687011719 L 193.49497985839844 103.07166290283203 L 194.98240661621094 102.1082763671875 L 196.4698486328125 101.1466293334961 L 197.95729064941406 100.18687438964844 L 199.44471740722656 99.22916412353516 L 200.93215942382812 98.27368927001953 L 202.4196014404297 97.32067108154297 L 203.9070281982422 96.37035369873047 L 205.39447021484375 95.42301940917969 L 206.8819122314453 94.47900390625 L 208.36935424804688 93.5386734008789 L 209.85678100585938 92.60245513916016 L 211.34422302246094 91.67084503173828 L 212.8316650390625 90.74439239501953 L 214.319091796875 89.82373809814453 L 215.80653381347656 88.90958404541016 L 217.29397583007812 88.00273132324219 L 218.78140258789062 87.10406494140625 L 220.2688446044922 86.21456909179688 L 221.75628662109375 85.33529663085938 L 223.24371337890625 84.46742248535156 L 224.7311553955078 83.6121597290039 L 226.21859741210938 82.77082061767578 L 227.70602416992188 81.94475555419922 L 229.19346618652344 81.13533782958984 L 230.680908203125 80.3439712524414 L 232.1683349609375 79.572021484375 L 233.65577697753906 78.82080841064453 L 235.14321899414062 78.09159088134766 L 236.63064575195312 77.38549041748047 L 238.1180877685547 76.7035140991211 L 239.60552978515625 76.04650115966797 L 241.0929718017578 75.41509246826172 L 242.5803985595703 74.80975341796875 L 244.06784057617188 74.230712890625 L 245.55528259277344 73.67801666259766 L 247.04270935058594 73.15147399902344 L 248.5301513671875 72.65074157714844 L 250.01759338378906 72.1752700805664 L 251.50502014160156 71.72437286376953 L 252.99246215820312 71.2972412109375 L 254.4799041748047 70.89297485351562 L 255.9673309326172 70.51057434082031 L 257.45477294921875 70.1490249633789 L 258.94219970703125 69.8072509765625 L 260.4296569824219 69.48420715332031 L 261.9170837402344 69.17881774902344 L 263.4045104980469 68.89006805419922 L 264.8919677734375 68.61693572998047 L 266.37939453125 68.35847473144531 L 267.8668212890625 68.11376190185547 L 269.3542785644531 67.88189697265625 L 270.8417053222656 67.66210174560547 L 272.3291320800781 67.4535903930664 L 273.81658935546875 67.25558471679688 L 275.30401611328125 67.06746673583984 L 276.79144287109375 66.88858795166016 L 278.2789001464844 66.71837615966797 L 279.7663269042969 66.55621337890625 L 281.2537536621094 66.40165710449219 L 282.7412109375 66.25421905517578 L 284.2286376953125 66.11344146728516 L 285.7160949707031 65.97895050048828 L 287.2035217285156 65.85033416748047 L 288.6909484863281 65.72724914550781 L 290.17840576171875 65.6093521118164 L 291.66583251953125 65.49638366699219 L 293.15325927734375 65.38802337646484 L 294.6407165527344 65.28402709960938 L 296.1281433105469 65.18414306640625 L 297.6155700683594 65.08815002441406 L 299.10302734375 64.9958267211914 L 300.5904541015625 64.906982421875 L 302.077880859375 64.8214340209961 L 303.5653381347656 64.73900604248047 L 305.0527648925781 64.65953826904297 L 306.5401916503906 64.5828857421875 L 308.02764892578125 64.50889587402344 L 309.51507568359375 64.43745040893555 L 311.00250244140625 64.3684196472168 L 312.4899597167969 64.30168533325195 L 313.9773864746094 64.23714447021484 L 315.4648132324219 64.17469024658203 L 316.9522705078125 64.11422729492188 L 318.439697265625 64.05566787719727 L 319.9271240234375 63.998924255371094 L 321.4145812988281 63.94391632080078 L 322.9020080566406 63.89057159423828 L 324.3894348144531 63.83881378173828 L 325.87689208984375 63.788578033447266 L 327.36431884765625 63.739803314208984 L 328.85174560546875 63.69242477416992 L 330.3392028808594 63.64638900756836 L 331.8266296386719 63.60163879394531 L 333.3140563964844 63.55812454223633 L 334.801513671875 63.51579666137695 L 336.2889404296875 63.474613189697266 L 337.7763671875 63.43452453613281 L 339.2638244628906 63.39548873901367 L 340.7512512207031 63.35747528076172 L 342.23870849609375 63.3204345703125 L 343.72613525390625 63.284339904785156 L 345.21356201171875 63.24915313720703 L 346.7010192871094 63.214839935302734 L 348.1884460449219 63.18137741088867 L 349.6758728027344 63.14872360229492 L 351.163330078125 63.11686325073242 L 352.6507568359375 63.08576202392578 L 354.13818359375 63.05539321899414 L 355.6256408691406 63.025733947753906 L 357.1130676269531 62.99676513671875 L 358.6004943847656 62.96845626831055 L 360.08795166015625 62.940792083740234 L 361.57537841796875 62.91374969482422 L 363.06280517578125 62.88731002807617 L 364.5502624511719 62.861454010009766 L 366.0376892089844 62.836158752441406 L 367.5251159667969 62.81141662597656 L 369.0125732421875 62.787200927734375 L 370.5 62.76350021362305" stroke-opacity="0.30196078431372547" stroke-linejoin="bevel" stroke-miterlimit="10" stroke-width="2" stroke-dasharray="" clip-path="url(#ZiGnsTNGPRHl)"/><path fill="none" stroke="rgb(0,0,0)" paint-order="fill" d="M 74.5 183.5 L 370.5 183.5" stroke-opacity="1" stroke-linejoin="bevel" stroke-miterlimit="10" stroke-dasharray=""/><path fill="none" stroke="rgb(0,0,0)" paint-order="fill" d="M 74.5 189.5 L 74.5 181.5 M 123.5 189.5 L 123.5 181.5 M 173.5 189.5 L 173.5 181.5 M 222.5 189.5 L 222.5 181.5 M 271.5 189.5 L 271.5 181.5 M 321.5 189.5 L 321.5 181.5 M 370.5 189.5 L 370.5 181.5" stroke-opacity="1" stroke-linejoin="bevel" stroke-miterlimit="10" stroke-dasharray=""/><path fill="none" stroke="rgb(0,0,0)" paint-order="fill" d="M 74.5 187.5 L 74.5 183.5 M 84.5 187.5 L 84.5 183.5 M 94.5 187.5 L 94.5 183.5 M 104.5 187.5 L 104.5 183.5 M 113.5 187.5 L 113.5 183.5 M 123.5 187.5 L 123.5 183.5 M 133.5 187.5 L 133.5 183.5 M 143.5 187.5 L 143.5 183.5 M 153.5 187.5 L 153.5 183.5 M 163.5 187.5 L 163.5 183.5 M 173.5 187.5 L 173.5 183.5 M 183.5 187.5 L 183.5 183.5 M 192.5 187.5 L 192.5 183.5 M 202.5 187.5 L 202.5 183.5 M 212.5 187.5 L 212.5 183.5 M 222.5 187.5 L 222.5 183.5 M 232.5 187.5 L 232.5 183.5 M 242.5 187.5 L 242.5 183.5 M 252.5 187.5 L 252.5 183.5 M 261.5 187.5 L 261.5 183.5 M 271.5 187.5 L 271.5 183.5 M 281.5 187.5 L 281.5 183.5 M 291.5 187.5 L 291.5 183.5 M 301.5 187.5 L 301.5 183.5 M 311.5 187.5 L 311.5 183.5 M 321.5 187.5 L 321.5 183.5 M 331.5 187.5 L 331.5 183.5 M 340.5 187.5 L 340.5 183.5 M 350.5 187.5 L 350.5 183.5 M 360.5 187.5 L 360.5 183.5 M 370.5 187.5 L 370.5 183.5" stroke-opacity="1" stroke-linejoin="bevel" stroke-miterlimit="10" stroke-dasharray=""/><text fill="rgb(68,68,68)" stroke="none" font-family="Work Sans" font-size="15pt" font-style="normal" font-weight="normal" text-decoration="normal" x="69" y="207" text-anchor="start" dominant-baseline="alphabetic" transform="matrix(1, 0, 0, 1, 0.5, 0.5)" fill-opacity="1">0</text><text fill="rgb(68,68,68)" stroke="none" font-family="Work Sans" font-size="15pt" font-style="normal" font-weight="normal" text-decoration="normal" x="110.83333587646484" y="207" text-anchor="start" dominant-baseline="alphabetic" transform="matrix(1, 0, 0, 1, 0.5, 0.5)" fill-opacity="1">0.5</text><text fill="rgb(68,68,68)" stroke="none" font-family="Work Sans" font-size="15pt" font-style="normal" font-weight="normal" text-decoration="normal" x="167.6666717529297" y="207" text-anchor="start" dominant-baseline="alphabetic" transform="matrix(1, 0, 0, 1, 0.5, 0.5)" fill-opacity="1">1</text><text fill="rgb(68,68,68)" stroke="none" font-family="Work Sans" font-size="15pt" font-style="normal" font-weight="normal" text-decoration="normal" x="209.5" y="207" text-anchor="start" dominant-baseline="alphabetic" transform="matrix(1, 0, 0, 1, 0.5, 0.5)" fill-opacity="1">1.5</text><text fill="rgb(68,68,68)" stroke="none" font-family="Work Sans" font-size="15pt" font-style="normal" font-weight="normal" text-decoration="normal" x="266.3333435058594" y="207" text-anchor="start" dominant-baseline="alphabetic" transform="matrix(1, 0, 0, 1, 0.5, 0.5)" fill-opacity="1">2</text><text fill="rgb(68,68,68)" stroke="none" font-family="Work Sans" font-size="15pt" font-style="normal" font-weight="normal" text-decoration="normal" x="308.1666564941406" y="207" text-anchor="start" dominant-baseline="alphabetic" transform="matrix(1, 0, 0, 1, 0.5, 0.5)" fill-opacity="1">2.5</text><text fill="rgb(68,68,68)" stroke="none" font-family="Work Sans" font-size="15pt" font-style="normal" font-weight="normal" text-decoration="normal" x="365" y="207" text-anchor="start" dominant-baseline="alphabetic" transform="matrix(1, 0, 0, 1, 0.5, 0.5)" fill-opacity="1">3</text><text fill="rgb(68,68,68)" stroke="none" font-family="helvetica" font-size="15pt" font-style="normal" font-weight="normal" text-decoration="normal" x="165.6962890625" y="243" text-anchor="start" dominant-baseline="alphabetic" transform="matrix(1, 0, 0, 1, 0.5, 0.5)" fill-opacity="1">Time (hours)</text><path fill="none" stroke="rgb(0,0,0)" paint-order="fill" d="M 74.5 183.5 L 74.5 5.5" stroke-opacity="1" stroke-linejoin="bevel" stroke-miterlimit="10" stroke-dasharray=""/><path fill="none" stroke="rgb(0,0,0)" paint-order="fill" d="M 68.5 183.5 L 76.5 183.5 M 68.5 147.5 L 76.5 147.5 M 68.5 112.5 L 76.5 112.5 M 68.5 76.5 L 76.5 76.5 M 68.5 41.5 L 76.5 41.5 M 68.5 5.5 L 76.5 5.5" stroke-opacity="1" stroke-linejoin="bevel" stroke-miterlimit="10" stroke-dasharray=""/><path fill="none" stroke="rgb(0,0,0)" paint-order="fill" d="M 70.5 183.5 L 74.5 183.5 M 70.5 176.5 L 74.5 176.5 M 70.5 169.5 L 74.5 169.5 M 70.5 162.5 L 74.5 162.5 M 70.5 155.5 L 74.5 155.5 M 70.5 147.5 L 74.5 147.5 M 70.5 140.5 L 74.5 140.5 M 70.5 133.5 L 74.5 133.5 M 70.5 126.5 L 74.5 126.5 M 70.5 119.5 L 74.5 119.5 M 70.5 112.5 L 74.5 112.5 M 70.5 105.5 L 74.5 105.5 M 70.5 98.5 L 74.5 98.5 M 70.5 90.5 L 74.5 90.5 M 70.5 83.5 L 74.5 83.5 M 70.5 76.5 L 74.5 76.5 M 70.5 69.5 L 74.5 69.5 M 70.5 62.5 L 74.5 62.5 M 70.5 55.5 L 74.5 55.5 M 70.5 48.5 L 74.5 48.5 M 70.5 41.5 L 74.5 41.5 M 70.5 33.5 L 74.5 33.5 M 70.5 26.5 L 74.5 26.5 M 70.5 19.5 L 74.5 19.5 M 70.5 12.5 L 74.5 12.5 M 70.5 5.5 L 74.5 5.5" stroke-opacity="1" stroke-linejoin="bevel" stroke-miterlimit="10" stroke-dasharray=""/><text fill="rgb(68,68,68)" stroke="none" font-family="Work Sans" font-size="15pt" font-style="normal" font-weight="normal" text-decoration="normal" x="53" y="189.5" text-anchor="start" dominant-baseline="alphabetic" transform="matrix(1, 0, 0, 1, 0.5, 0.5)" fill-opacity="1">0</text><text fill="rgb(68,68,68)" stroke="none" font-family="Work Sans" font-size="15pt" font-style="normal" font-weight="normal" text-decoration="normal" x="53" y="153.89999389648438" text-anchor="start" dominant-baseline="alphabetic" transform="matrix(1, 0, 0, 1, 0.5, 0.5)" fill-opacity="1">5</text><text fill="rgb(68,68,68)" stroke="none" font-family="Work Sans" font-size="15pt" font-style="normal" font-weight="normal" text-decoration="normal" x="43" y="118.30000305175781" text-anchor="start" dominant-baseline="alphabetic" transform="matrix(1, 0, 0, 1, 0.5, 0.5)" fill-opacity="1">10</text><text fill="rgb(68,68,68)" stroke="none" font-family="Work Sans" font-size="15pt" font-style="normal" font-weight="normal" text-decoration="normal" x="43" y="82.69999694824219" text-anchor="start" dominant-baseline="alphabetic" transform="matrix(1, 0, 0, 1, 0.5, 0.5)" fill-opacity="1">15</text><text fill="rgb(68,68,68)" stroke="none" font-family="Work Sans" font-size="15pt" font-style="normal" font-weight="normal" text-decoration="normal" x="43" y="47.099998474121094" text-anchor="start" dominant-baseline="alphabetic" transform="matrix(1, 0, 0, 1, 0.5, 0.5)" fill-opacity="1">20</text><text fill="rgb(68,68,68)" stroke="none" font-family="Work Sans" font-size="15pt" font-style="normal" font-weight="normal" text-decoration="normal" x="43" y="13" text-anchor="start" dominant-baseline="alphabetic" transform="matrix(1, 0, 0, 1, 0.5, 0.5)" fill-opacity="1">25</text><text fill="rgb(68,68,68)" stroke="none" font-family="helvetica" font-size="15pt" font-style="normal" font-weight="normal" text-decoration="normal" x="-28.5400390625" y="90" text-anchor="start" dominant-baseline="alphabetic" transform="matrix(6.123233995736766e-17, -1, 1, 6.123233995736766e-17, -68.5, 119.5)" fill-opacity="1">MGapt (M)</text><path fill="none" stroke="none"/><text fill="rgb(68,68,68)" stroke="none" font-family="helvetica" font-size="13px" font-style="normal" font-weight="normal" text-decoration="normal" x="109" y="25" text-anchor="start" dominant-baseline="central" clip-path="url(#ZUipNDVnBwzw)" transform="matrix(1, 0, 0, 1, 0.5, 0.5)" fill-opacity="1">Experimental Data</text><path fill="rgb(0,0,128)" stroke="rgb(0,0,128)" paint-order="fill" d="M 98.5 25.5 A 4 4 0 1 1 98.49999800000016 25.496000000666665" fill-opacity="0.2" clip-path="url(#ZUipNDVnBwzw)" stroke-opacity="1" stroke-linejoin="bevel" stroke-miterlimit="10" stroke-dasharray=""/><text fill="rgb(68,68,68)" stroke="none" font-family="helvetica" font-size="13px" font-style="normal" font-weight="normal" text-decoration="normal" x="109" y="48" text-anchor="start" dominant-baseline="central" clip-path="url(#ZUipNDVnBwzw)" transform="matrix(1, 0, 0, 1, 0.5, 0.5)" fill-opacity="1">BioCRNplyer Model</text><path fill="none" stroke="rgb(255,0,255)" paint-order="fill" d="M 84.5 48.5 L 104.5 48.5" stroke-opacity="0.30196078431372547" stroke-linejoin="bevel" stroke-miterlimit="10" stroke-width="2" stroke-dasharray="" clip-path="url(#ZUipNDVnBwzw)"/><path fill="none" stroke="rgb(255,0,255)" paint-order="fill" d="M 84.5 48.5 L 104.5 48.5" stroke-opacity="0.30196078431372547" stroke-linejoin="bevel" stroke-miterlimit="10" stroke-width="2" stroke-dasharray="" clip-path="url(#ZUipNDVnBwzw)"/><path fill="none" stroke="rgb(255,0,255)" paint-order="fill" d="M 84.5 48.5 L 104.5 48.5" stroke-opacity="0.30196078431372547" stroke-linejoin="bevel" stroke-miterlimit="10" stroke-width="2" stroke-dasharray="" clip-path="url(#ZUipNDVnBwzw)"/><path fill="none" stroke="rgb(255,0,255)" paint-order="fill" d="M 84.5 48.5 L 104.5 48.5" stroke-opacity="0.30196078431372547" stroke-linejoin="bevel" stroke-miterlimit="10" stroke-width="2" stroke-dasharray="" clip-path="url(#ZUipNDVnBwzw)"/><path fill="none" stroke="rgb(255,0,255)" paint-order="fill" d="M 84.5 48.5 L 104.5 48.5" stroke-opacity="0.30196078431372547" stroke-linejoin="bevel" stroke-miterlimit="10" stroke-width="2" stroke-dasharray="" clip-path="url(#ZUipNDVnBwzw)"/></svg>