<svg version="1.1" xmlns="http://www.w3.org/2000/svg" width="450" height="300"><defs><clipPath id="NaPEiePleXOn"><path fill="none" stroke="none" d="M 73.5 5.5 L 445.5 5.5 L 445.5 185.5 L 73.5 185.5 L 73.5 5.5"/></clipPath><clipPath id="uIyTrlDifIkt"><path fill="none" stroke="none" d="M 73.5 5.5 L 445.5 5.5 L 445.5 185.5 L 73.5 185.5 L 73.5 5.5"/></clipPath><clipPath id="pXCsopNOzQbt"><path fill="none" stroke="none" d="M 73.5 5.5 L 445.5 5.5 L 445.5 185.5 L 73.5 185.5 L 73.5 5.5"/></clipPath></defs><path fill="rgb(255,255,255)" stroke="none" paint-order="stroke" d="M 0.5 0.5 L 450.5 0.5 L 450.5 300.5 L 0.5 300.5 L 0.5 0.5" fill-opacity="1"/><rect fill="#FFFFFF" stroke="none" x="73" y="5" width="372" height="180" transform="matrix(1, 0, 0, 1, 0.5, 0.5)"/><path fill="rgb(255,255,255)" stroke="none" paint-order="stroke" d="M 73.5 5.5 L 445.5 5.5 L 445.5 185.5 L 73.5 185.5 L 73.5 5.5" fill-opacity="1"/><path fill="rgb(255,0,255)" stroke="none" paint-order="stroke" d="M 91.00870513916016 34.70574951171875 L 101.8017349243164 34.70574951171875 L 101.8017349243164 185.5 L 91.00870513916016 185.5 L 91.00870513916016 34.70574951171875" fill-opacity="0.5019607843137255" clip-path="url(#pXCsopNOzQbt)"/><path fill="rgb(1,100,80)" stroke="none" paint-order="stroke" d="M 103.00096893310547 34.66633605957031 L 113.79399871826172 34.66633605957031 L 113.79399871826172 185.5 L 103.00096893310547 185.5 L 103.00096893310547 34.66633605957031" fill-opacity="0.5019607843137255" clip-path="url(#pXCsopNOzQbt)"/><path fill="rgb(2,129,138)" stroke="none" paint-order="stroke" d="M 114.99323272705078 34.29491424560547 L 125.78626251220703 34.29491424560547 L 125.78626251220703 185.5 L 114.99323272705078 185.5 L 114.99323272705078 34.29491424560547" fill-opacity="0.5019607843137255" clip-path="url(#pXCsopNOzQbt)"/><path fill="rgb(54,144,192)" stroke="none" paint-order="stroke" d="M 126.98550415039062 31.042783737182617 L 137.77853393554688 31.042783737182617 L 137.77853393554688 185.5 L 126.98550415039062 185.5 L 126.98550415039062 31.042783737182617" fill-opacity="0.5019607843137255" clip-path="url(#pXCsopNOzQbt)"/><path fill="rgb(103,169,207)" stroke="none" paint-order="stroke" d="M 138.97775268554688 19.796939849853516 L 149.77078247070312 19.796939849853516 L 149.77078247070312 185.5 L 138.97775268554688 185.5 L 138.97775268554688 19.796939849853516" fill-opacity="0.5019607843137255" clip-path="url(#pXCsopNOzQbt)"/><path fill="rgb(166,189,219)" stroke="none" paint-order="stroke" d="M 150.9700164794922 14.071428298950195 L 161.76304626464844 14.071428298950195 L 161.76304626464844 185.5 L 150.9700164794922 185.5 L 150.9700164794922 14.071428298950195" fill-opacity="0.5019607843137255" clip-path="url(#pXCsopNOzQbt)"/><path fill="rgb(255,0,255)" stroke="none" paint-order="stroke" d="M 179.75144958496094 53.643104553222656 L 190.5444793701172 53.643104553222656 L 190.5444793701172 185.5 L 179.75144958496094 185.5 L 179.75144958496094 53.643104553222656" fill-opacity="0.5019607843137255" clip-path="url(#pXCsopNOzQbt)"/><path fill="rgb(1,100,80)" stroke="none" paint-order="stroke" d="M 191.74371337890625 53.643104553222656 L 202.5367431640625 53.643104553222656 L 202.5367431640625 185.5 L 191.74371337890625 185.5 L 191.74371337890625 53.643104553222656" fill-opacity="0.5019607843137255" clip-path="url(#pXCsopNOzQbt)"/><path fill="rgb(2,129,138)" stroke="none" paint-order="stroke" d="M 203.73597717285156 53.643104553222656 L 214.5290069580078 53.643104553222656 L 214.5290069580078 185.5 L 203.73597717285156 185.5 L 203.73597717285156 53.643104553222656" fill-opacity="0.5019607843137255" clip-path="url(#pXCsopNOzQbt)"/><path fill="rgb(54,144,192)" stroke="none" paint-order="stroke" d="M 215.72824096679688 53.643104553222656 L 226.52127075195312 53.643104553222656 L 226.52127075195312 185.5 L 215.72824096679688 185.5 L 215.72824096679688 53.643104553222656" fill-opacity="0.5019607843137255" clip-path="url(#pXCsopNOzQbt)"/><path fill="rgb(103,169,207)" stroke="none" paint-order="stroke" d="M 227.7205047607422 53.643104553222656 L 238.51353454589844 53.643104553222656 L 238.51353454589844 185.5 L 227.7205047607422 185.5 L 227.7205047607422 53.643104553222656" fill-opacity="0.5019607843137255" clip-path="url(#pXCsopNOzQbt)"/><path fill="rgb(166,189,219)" stroke="none" paint-order="stroke" d="M 239.7127685546875 53.643104553222656 L 250.50579833984375 53.643104553222656 L 250.50579833984375 185.5 L 239.7127685546875 185.5 L 239.7127685546875 53.643104553222656" fill-opacity="0.5019607843137255" clip-path="url(#pXCsopNOzQbt)"/><path fill="rgb(255,0,255)" stroke="none" paint-order="stroke" d="M 268.49420166015625 119.5715560913086 L 279.2872314453125 119.5715560913086 L 279.2872314453125 185.5 L 268.49420166015625 185.5 L 268.49420166015625 119.5715560913086" fill-opacity="0.5019607843137255" clip-path="url(#pXCsopNOzQbt)"/><path fill="rgb(1,100,80)" stroke="none" paint-order="stroke" d="M 280.4864501953125 119.5715560913086 L 291.27947998046875 119.5715560913086 L 291.27947998046875 185.5 L 280.4864501953125 185.5 L 280.4864501953125 119.5715560913086" fill-opacity="0.5019607843137255" clip-path="url(#pXCsopNOzQbt)"/><path fill="rgb(2,129,138)" stroke="none" paint-order="stroke" d="M 292.4787292480469 119.5715560913086 L 303.2717590332031 119.5715560913086 L 303.2717590332031 185.5 L 292.4787292480469 185.5 L 292.4787292480469 119.5715560913086" fill-opacity="0.5019607843137255" clip-path="url(#pXCsopNOzQbt)"/><path fill="rgb(54,144,192)" stroke="none" paint-order="stroke" d="M 304.4709777832031 119.5715560913086 L 315.2640075683594 119.5715560913086 L 315.2640075683594 185.5 L 304.4709777832031 185.5 L 304.4709777832031 119.5715560913086" fill-opacity="0.5019607843137255" clip-path="url(#pXCsopNOzQbt)"/><path fill="rgb(103,169,207)" stroke="none" paint-order="stroke" d="M 316.4632568359375 119.5715560913086 L 327.25628662109375 119.5715560913086 L 327.25628662109375 185.5 L 316.4632568359375 185.5 L 316.4632568359375 119.5715560913086" fill-opacity="0.5019607843137255" clip-path="url(#pXCsopNOzQbt)"/><path fill="rgb(166,189,219)" stroke="none" paint-order="stroke" d="M 328.45550537109375 119.5715560913086 L 339.24853515625 119.5715560913086 L 339.24853515625 185.5 L 328.45550537109375 185.5 L 328.45550537109375 119.5715560913086" fill-opacity="0.5019607843137255" clip-path="url(#pXCsopNOzQbt)"/><path fill="rgb(255,0,255)" stroke="none" paint-order="stroke" d="M 357.2369689941406 159.1286163330078 L 368.0299987792969 159.1286163330078 L 368.0299987792969 185.5 L 357.2369689941406 185.5 L 357.2369689941406 159.1286163330078" fill-opacity="0.5019607843137255" clip-path="url(#pXCsopNOzQbt)"/><path fill="rgb(1,100,80)" stroke="none" paint-order="stroke" d="M 369.2292175292969 159.1286163330078 L 380.0222473144531 159.1286163330078 L 380.0222473144531 185.5 L 369.2292175292969 185.5 L 369.2292175292969 159.1286163330078" fill-opacity="0.5019607843137255" clip-path="url(#pXCsopNOzQbt)"/><path fill="rgb(2,129,138)" stroke="none" paint-order="stroke" d="M 381.22149658203125 159.1286163330078 L 392.0145263671875 159.1286163330078 L 392.0145263671875 185.5 L 381.22149658203125 185.5 L 381.22149658203125 159.1286163330078" fill-opacity="0.5019607843137255" clip-path="url(#pXCsopNOzQbt)"/><path fill="rgb(54,144,192)" stroke="none" paint-order="stroke" d="M 393.2137451171875 159.1286163330078 L 404.00677490234375 159.1286163330078 L 404.00677490234375 185.5 L 393.2137451171875 185.5 L 393.2137451171875 159.1286163330078" fill-opacity="0.5019607843137255" clip-path="url(#pXCsopNOzQbt)"/><path fill="rgb(103,169,207)" stroke="none" paint-order="stroke" d="M 405.20599365234375 159.1286163330078 L 415.9990234375 159.1286163330078 L 415.9990234375 185.5 L 405.20599365234375 185.5 L 405.20599365234375 159.1286163330078" fill-opacity="0.5019607843137255" clip-path="url(#pXCsopNOzQbt)"/><path fill="rgb(166,189,219)" stroke="none" paint-order="stroke" d="M 417.1982727050781 159.1286163330078 L 427.9913024902344 159.1286163330078 L 427.9913024902344 185.5 L 417.1982727050781 185.5 L 417.1982727050781 159.1286163330078" fill-opacity="0.5019607843137255" clip-path="url(#pXCsopNOzQbt)"/><path fill="none" stroke="rgb(0,0,0)" paint-order="fill" d="M 73.5 185.5 L 445.5 185.5" stroke-opacity="1" stroke-linejoin="bevel" stroke-miterlimit="10" stroke-dasharray=""/><path fill="none" stroke="rgb(0,0,0)" paint-order="fill" d="M 96.5 191.5 L 96.5 183.5 M 108.5 191.5 L 108.5 183.5 M 120.5 191.5 L 120.5 183.5 M 132.5 191.5 L 132.5 183.5 M 144.5 191.5 L 144.5 183.5 M 156.5 191.5 L 156.5 183.5 M 185.5 191.5 L 185.5 183.5 M 197.5 191.5 L 197.5 183.5 M 209.5 191.5 L 209.5 183.5 M 221.5 191.5 L 221.5 183.5 M 233.5 191.5 L 233.5 183.5 M 245.5 191.5 L 245.5 183.5 M 273.5 191.5 L 273.5 183.5 M 285.5 191.5 L 285.5 183.5 M 297.5 191.5 L 297.5 183.5 M 309.5 191.5 L 309.5 183.5 M 321.5 191.5 L 321.5 183.5 M 333.5 191.5 L 333.5 183.5 M 362.5 191.5 L 362.5 183.5 M 374.5 191.5 L 374.5 183.5 M 386.5 191.5 L 386.5 183.5 M 398.5 191.5 L 398.5 183.5 M 410.5 191.5 L 410.5 183.5 M 422.5 191.5 L 422.5 183.5" stroke-opacity="1" stroke-linejoin="bevel" stroke-miterlimit="10" stroke-dasharray=""/><path fill="none" stroke="rgb(0,0,0)" paint-order="fill" d="" stroke-opacity="1" stroke-linejoin="bevel" stroke-miterlimit="10" stroke-dasharray=""/><text fill="rgb(68,68,68)" stroke="none" font-family="helvetica" font-size="13px" font-style="normal" font-weight="normal" text-decoration="normal" x="74.21527862548828" y="201" text-anchor="start" dominant-baseline="alphabetic" transform="matrix(0.5403023058681398, -0.8414709848078965, 0.8414709848078965, 0.5403023058681398, -120.34090451854894, 171.30220799816942)" fill-opacity="1">1e0</text><text fill="rgb(68,68,68)" stroke="none" font-family="helvetica" font-size="13px" font-style="normal" font-weight="normal" text-decoration="normal" x="81.8784408569336" y="201" text-anchor="start" dominant-baseline="alphabetic" transform="matrix(0.5403023058681398, -0.8414709848078965, 0.8414709848078965, 0.5403023058681398, -114.82808850505128, 181.39335002293666)" fill-opacity="1">1e-1</text><text fill="rgb(68,68,68)" stroke="none" font-family="helvetica" font-size="13px" font-style="normal" font-weight="normal" text-decoration="normal" x="93.8707046508789" y="201" text-anchor="start" dominant-baseline="alphabetic" transform="matrix(0.5403023058681398, -0.8414709848078965, 0.8414709848078965, 0.5403023058681398, -109.31527249155363, 191.4844920477039)" fill-opacity="1">1e-2</text><text fill="rgb(68,68,68)" stroke="none" font-family="helvetica" font-size="13px" font-style="normal" font-weight="normal" text-decoration="normal" x="105.86297607421875" y="201" text-anchor="start" dominant-baseline="alphabetic" transform="matrix(0.5403023058681398, -0.8414709848078965, 0.8414709848078965, 0.5403023058681398, -103.80245297084087, 201.57564049238528)" fill-opacity="1">1e-3</text><text fill="rgb(68,68,68)" stroke="none" font-family="helvetica" font-size="13px" font-style="normal" font-weight="normal" text-decoration="normal" x="117.855224609375" y="201" text-anchor="start" dominant-baseline="alphabetic" transform="matrix(0.5403023058681398, -0.8414709848078965, 0.8414709848078965, 0.5403023058681398, -98.28964397177339, 211.66676967732428)" fill-opacity="1">1e-4</text><text fill="rgb(68,68,68)" stroke="none" font-family="helvetica" font-size="13px" font-style="normal" font-weight="normal" text-decoration="normal" x="129.8474884033203" y="201" text-anchor="start" dominant-baseline="alphabetic" transform="matrix(0.5403023058681398, -0.8414709848078965, 0.8414709848078965, 0.5403023058681398, -92.77682795827573, 221.75791170209152)" fill-opacity="1">1e-5</text><text fill="rgb(68,68,68)" stroke="none" font-family="helvetica" font-size="13px" font-style="normal" font-weight="normal" text-decoration="normal" x="162.95802307128906" y="201" text-anchor="start" dominant-baseline="alphabetic" transform="matrix(0.5403023058681398, -0.8414709848078965, 0.8414709848078965, 0.5403023058681398, -79.54606952588136, 245.9766525615329)" fill-opacity="1">1e0</text><text fill="rgb(68,68,68)" stroke="none" font-family="helvetica" font-size="13px" font-style="normal" font-weight="normal" text-decoration="normal" x="170.62118530273438" y="201" text-anchor="start" dominant-baseline="alphabetic" transform="matrix(0.5403023058681398, -0.8414709848078965, 0.8414709848078965, 0.5403023058681398, -74.03325351238368, 256.0677945863001)" fill-opacity="1">1e-1</text><text fill="rgb(68,68,68)" stroke="none" font-family="helvetica" font-size="13px" font-style="normal" font-weight="normal" text-decoration="normal" x="182.6134490966797" y="201" text-anchor="start" dominant-baseline="alphabetic" transform="matrix(0.5403023058681398, -0.8414709848078965, 0.8414709848078965, 0.5403023058681398, -68.52043749888605, 266.15893661106736)" fill-opacity="1">1e-2</text><text fill="rgb(68,68,68)" stroke="none" font-family="helvetica" font-size="13px" font-style="normal" font-weight="normal" text-decoration="normal" x="194.605712890625" y="201" text-anchor="start" dominant-baseline="alphabetic" transform="matrix(0.5403023058681398, -0.8414709848078965, 0.8414709848078965, 0.5403023058681398, -63.00762148538843, 276.2500786358346)" fill-opacity="1">1e-3</text><text fill="rgb(68,68,68)" stroke="none" font-family="helvetica" font-size="13px" font-style="normal" font-weight="normal" text-decoration="normal" x="206.5979766845703" y="201" text-anchor="start" dominant-baseline="alphabetic" transform="matrix(0.5403023058681398, -0.8414709848078965, 0.8414709848078965, 0.5403023058681398, -57.49480547189074, 286.34122066060183)" fill-opacity="1">1e-4</text><text fill="rgb(68,68,68)" stroke="none" font-family="helvetica" font-size="13px" font-style="normal" font-weight="normal" text-decoration="normal" x="218.59024047851562" y="201" text-anchor="start" dominant-baseline="alphabetic" transform="matrix(0.5403023058681398, -0.8414709848078965, 0.8414709848078965, 0.5403023058681398, -51.98198945839306, 296.4323626853691)" fill-opacity="1">1e-5</text><text fill="rgb(68,68,68)" stroke="none" font-family="helvetica" font-size="13px" font-style="normal" font-weight="normal" text-decoration="normal" x="251.70077514648438" y="201" text-anchor="start" dominant-baseline="alphabetic" transform="matrix(0.5403023058681398, -0.8414709848078965, 0.8414709848078965, 0.5403023058681398, -38.75123102599872, 320.6511035448105)" fill-opacity="1">1e0</text><text fill="rgb(68,68,68)" stroke="none" font-family="helvetica" font-size="13px" font-style="normal" font-weight="normal" text-decoration="normal" x="259.3639221191406" y="201" text-anchor="start" dominant-baseline="alphabetic" transform="matrix(0.5403023058681398, -0.8414709848078965, 0.8414709848078965, 0.5403023058681398, -33.238422026931175, 330.7422327297495)" fill-opacity="1">1e-1</text><text fill="rgb(68,68,68)" stroke="none" font-family="helvetica" font-size="13px" font-style="normal" font-weight="normal" text-decoration="normal" x="271.356201171875" y="201" text-anchor="start" dominant-baseline="alphabetic" transform="matrix(0.5403023058681398, -0.8414709848078965, 0.8414709848078965, 0.5403023058681398, -27.72559899900341, 340.833387594345)" fill-opacity="1">1e-2</text><text fill="rgb(68,68,68)" stroke="none" font-family="helvetica" font-size="13px" font-style="normal" font-weight="normal" text-decoration="normal" x="283.34844970703125" y="201" text-anchor="start" dominant-baseline="alphabetic" transform="matrix(0.5403023058681398, -0.8414709848078965, 0.8414709848078965, 0.5403023058681398, -22.21278999993592, 350.924516779284)" fill-opacity="1">1e-3</text><text fill="rgb(68,68,68)" stroke="none" font-family="helvetica" font-size="13px" font-style="normal" font-weight="normal" text-decoration="normal" x="295.3407287597656" y="201" text-anchor="start" dominant-baseline="alphabetic" transform="matrix(0.5403023058681398, -0.8414709848078965, 0.8414709848078965, 0.5403023058681398, -16.6999669720081, 361.0156716438795)" fill-opacity="1">1e-4</text><text fill="rgb(68,68,68)" stroke="none" font-family="helvetica" font-size="13px" font-style="normal" font-weight="normal" text-decoration="normal" x="307.3329772949219" y="201" text-anchor="start" dominant-baseline="alphabetic" transform="matrix(0.5403023058681398, -0.8414709848078965, 0.8414709848078965, 0.5403023058681398, -11.18715797294061, 371.10680082881845)" fill-opacity="1">1e-5</text><text fill="rgb(68,68,68)" stroke="none" font-family="helvetica" font-size="13px" font-style="normal" font-weight="normal" text-decoration="normal" x="340.4435119628906" y="201" text-anchor="start" dominant-baseline="alphabetic" transform="matrix(0.5403023058681398, -0.8414709848078965, 0.8414709848078965, 0.5403023058681398, 2.043600459453728, 395.3255416882598)" fill-opacity="1">1e0</text><text fill="rgb(68,68,68)" stroke="none" font-family="helvetica" font-size="13px" font-style="normal" font-weight="normal" text-decoration="normal" x="348.106689453125" y="201" text-anchor="start" dominant-baseline="alphabetic" transform="matrix(0.5403023058681398, -0.8414709848078965, 0.8414709848078965, 0.5403023058681398, 7.556423487381608, 405.41669655285534)" fill-opacity="1">1e-1</text><text fill="rgb(68,68,68)" stroke="none" font-family="helvetica" font-size="13px" font-style="normal" font-weight="normal" text-decoration="normal" x="360.09893798828125" y="201" text-anchor="start" dominant-baseline="alphabetic" transform="matrix(0.5403023058681398, -0.8414709848078965, 0.8414709848078965, 0.5403023058681398, 13.069232486449096, 415.5078257377943)" fill-opacity="1">1e-2</text><text fill="rgb(68,68,68)" stroke="none" font-family="helvetica" font-size="13px" font-style="normal" font-weight="normal" text-decoration="normal" x="372.0912170410156" y="201" text-anchor="start" dominant-baseline="alphabetic" transform="matrix(0.5403023058681398, -0.8414709848078965, 0.8414709848078965, 0.5403023058681398, 18.58205551437686, 425.5989806023898)" fill-opacity="1">1e-3</text><text fill="rgb(68,68,68)" stroke="none" font-family="helvetica" font-size="13px" font-style="normal" font-weight="normal" text-decoration="normal" x="384.0834655761719" y="201" text-anchor="start" dominant-baseline="alphabetic" transform="matrix(0.5403023058681398, -0.8414709848078965, 0.8414709848078965, 0.5403023058681398, 24.09486451344435, 435.69010978732877)" fill-opacity="1">1e-4</text><text fill="rgb(68,68,68)" stroke="none" font-family="helvetica" font-size="13px" font-style="normal" font-weight="normal" text-decoration="normal" x="396.07574462890625" y="201" text-anchor="start" dominant-baseline="alphabetic" transform="matrix(0.5403023058681398, -0.8414709848078965, 0.8414709848078965, 0.5403023058681398, 29.60768754137223, 445.7812646519243)" fill-opacity="1">1e-5</text><text fill="rgb(128,128,128)" stroke="none" font-family="helvetica" font-size="13px" font-style="normal" font-weight="bold" text-decoration="normal" x="103.84999084472656" y="243.29729276935444" text-anchor="start" dominant-baseline="alphabetic" transform="matrix(1, 0, 0, 1, 0.5, 0.5)" fill-opacity="1">Shared</text><text fill="rgb(128,128,128)" stroke="none" font-family="helvetica" font-size="13px" font-style="normal" font-weight="bold" text-decoration="normal" x="178.14547729492188" y="243.29729276935444" text-anchor="start" dominant-baseline="alphabetic" transform="matrix(1, 0, 0, 1, 0.5, 0.5)" fill-opacity="1">Split (50/50)</text><text fill="rgb(128,128,128)" stroke="none" font-family="helvetica" font-size="13px" font-style="normal" font-weight="bold" text-decoration="normal" x="266.8882141113281" y="243.29729276935444" text-anchor="start" dominant-baseline="alphabetic" transform="matrix(1, 0, 0, 1, 0.5, 0.5)" fill-opacity="1">Split (25/75)</text><text fill="rgb(128,128,128)" stroke="none" font-family="helvetica" font-size="13px" font-style="normal" font-weight="bold" text-decoration="normal" x="355.6309509277344" y="243.29729276935444" text-anchor="start" dominant-baseline="alphabetic" transform="matrix(1, 0, 0, 1, 0.5, 0.5)" fill-opacity="1">Split (10/90)</text><text fill="rgb(68,68,68)" stroke="none" font-family="helvetica" font-size="12pt" font-style="normal" font-weight="normal" text-decoration="normal" x="228.05078125" y="273.29729276935444" text-anchor="start" dominant-baseline="alphabetic" transform="matrix(1, 0, 0, 1, 0.5, 0.5)" fill-opacity="1">ğ‘˜_ğ‘™ğ‘–ğ‘›ğ‘˜ğ‘’ğ‘Ÿ</text><text fill="rgb(68,68,68)" stroke="none" font-family="helvetica" font-size="12pt" font-style="normal" font-weight="normal" text-decoration="normal" x="158.51953125" y="293.6972927693544" text-anchor="start" dominant-baseline="alphabetic" transform="matrix(1, 0, 0, 1, 0.5, 0.5)" fill-opacity="1">Resource Allocation (TX/TL)</text><path fill="none" stroke="rgb(211,211,211)" paint-order="fill" d="M 170.5 237.5 L 170.5 188.5 M 259.5 237.5 L 259.5 188.5 M 348.5 237.5 L 348.5 188.5" stroke-opacity="1" stroke-linejoin="bevel" stroke-miterlimit="10" stroke-width="2" stroke-dasharray=""/><path fill="none" stroke="rgb(0,0,0)" paint-order="fill" d="M 73.5 185.5 L 73.5 5.5" stroke-opacity="1" stroke-linejoin="bevel" stroke-miterlimit="10" stroke-dasharray=""/><path fill="none" stroke="rgb(0,0,0)" paint-order="fill" d="M 67.5 185.5 L 75.5 185.5 M 67.5 143.5 L 75.5 143.5 M 67.5 101.5 L 75.5 101.5 M 67.5 58.5 L 75.5 58.5 M 67.5 16.5 L 75.5 16.5" stroke-opacity="1" stroke-linejoin="bevel" stroke-miterlimit="10" stroke-dasharray=""/><path fill="none" stroke="rgb(0,0,0)" paint-order="fill" d="M 69.5 185.5 L 73.5 185.5 M 69.5 177.5 L 73.5 177.5 M 69.5 168.5 L 73.5 168.5 M 69.5 160.5 L 73.5 160.5 M 69.5 151.5 L 73.5 151.5 M 69.5 143.5 L 73.5 143.5 M 69.5 134.5 L 73.5 134.5 M 69.5 126.5 L 73.5 126.5 M 69.5 117.5 L 73.5 117.5 M 69.5 109.5 L 73.5 109.5 M 69.5 101.5 L 73.5 101.5 M 69.5 92.5 L 73.5 92.5 M 69.5 84.5 L 73.5 84.5 M 69.5 75.5 L 73.5 75.5 M 69.5 67.5 L 73.5 67.5 M 69.5 58.5 L 73.5 58.5 M 69.5 50.5 L 73.5 50.5 M 69.5 42.5 L 73.5 42.5 M 69.5 33.5 L 73.5 33.5 M 69.5 25.5 L 73.5 25.5 M 69.5 16.5 L 73.5 16.5 M 69.5 8.5 L 73.5 8.5" stroke-opacity="1" stroke-linejoin="bevel" stroke-miterlimit="10" stroke-dasharray=""/><text fill="rgb(68,68,68)" stroke="none" font-family="helvetica" font-size="13pt" font-style="normal" font-weight="normal" text-decoration="normal" x="52.36189270019531" y="191" text-anchor="start" dominant-baseline="alphabetic" transform="matrix(1, 0, 0, 1, 0.5, 0.5)" fill-opacity="1">0</text><text fill="rgb(68,68,68)" stroke="none" font-family="helvetica" font-size="13pt" font-style="normal" font-weight="normal" text-decoration="normal" x="37.908966064453125" y="148.8057861328125" text-anchor="start" dominant-baseline="alphabetic" transform="matrix(1, 0, 0, 1, 0.5, 0.5)" fill-opacity="1">0.2</text><text fill="rgb(68,68,68)" stroke="none" font-family="helvetica" font-size="13pt" font-style="normal" font-weight="normal" text-decoration="normal" x="37.908966064453125" y="106.61158752441406" text-anchor="start" dominant-baseline="alphabetic" transform="matrix(1, 0, 0, 1, 0.5, 0.5)" fill-opacity="1">0.4</text><text fill="rgb(68,68,68)" stroke="none" font-family="helvetica" font-size="13pt" font-style="normal" font-weight="normal" text-decoration="normal" x="37.908966064453125" y="64.4173812866211" text-anchor="start" dominant-baseline="alphabetic" transform="matrix(1, 0, 0, 1, 0.5, 0.5)" fill-opacity="1">0.6</text><text fill="rgb(68,68,68)" stroke="none" font-family="helvetica" font-size="13pt" font-style="normal" font-weight="normal" text-decoration="normal" x="37.908966064453125" y="22.223173141479492" text-anchor="start" dominant-baseline="alphabetic" transform="matrix(1, 0, 0, 1, 0.5, 0.5)" fill-opacity="1">0.8</text><text fill="rgb(68,68,68)" stroke="none" font-family="helvetica" font-size="15pt" font-style="normal" font-weight="normal" text-decoration="normal" x="-21.189666748046875" y="91" text-anchor="start" dominant-baseline="alphabetic" transform="matrix(6.123233995736766e-17, -1, 1, 6.123233995736766e-17, -69.59103393554688, 120.40896606445312)" fill-opacity="1">CTP (mM)</text></svg>