<svg version="1.1" xmlns="http://www.w3.org/2000/svg" width="700" height="300"><defs><clipPath id="SCchVWhouDaN"><path fill="none" stroke="none" d="M 73.5 5.5 L 695.5 5.5 L 695.5 185.5 L 73.5 185.5 L 73.5 5.5"/></clipPath><clipPath id="TKLfFbEtPezU"><path fill="none" stroke="none" d="M 73.5 5.5 L 695.5 5.5 L 695.5 185.5 L 73.5 185.5 L 73.5 5.5"/></clipPath><clipPath id="aoACLoFmqvKz"><path fill="none" stroke="none" d="M 73.5 5.5 L 695.5 5.5 L 695.5 185.5 L 73.5 185.5 L 73.5 5.5"/></clipPath></defs><path fill="rgb(255,255,255)" stroke="none" paint-order="stroke" d="M 0.5 0.5 L 700.5 0.5 L 700.5 300.5 L 0.5 300.5 L 0.5 0.5" fill-opacity="1"/><rect fill="#FFFFFF" stroke="none" x="73" y="5" width="622" height="180" transform="matrix(1, 0, 0, 1, 0.5, 0.5)"/><path fill="rgb(255,255,255)" stroke="none" paint-order="stroke" d="M 73.5 5.5 L 695.5 5.5 L 695.5 185.5 L 73.5 185.5 L 73.5 5.5" fill-opacity="1"/><path fill="rgb(255,0,255)" stroke="none" paint-order="stroke" d="M 102.43022918701172 28.17815399169922 L 114.26532745361328 28.17815399169922 L 114.26532745361328 185.5 L 102.43022918701172 185.5 L 102.43022918701172 28.17815399169922" fill-opacity="0.5019607843137255" clip-path="url(#aoACLoFmqvKz)"/><path fill="rgb(1,100,80)" stroke="none" paint-order="stroke" d="M 115.58033752441406 28.21889877319336 L 127.41543579101562 28.21889877319336 L 127.41543579101562 185.5 L 115.58033752441406 185.5 L 115.58033752441406 28.21889877319336" fill-opacity="0.5019607843137255" clip-path="url(#aoACLoFmqvKz)"/><path fill="rgb(2,129,138)" stroke="none" paint-order="stroke" d="M 128.73045349121094 28.453800201416016 L 140.56553649902344 28.453800201416016 L 140.56553649902344 185.5 L 128.73045349121094 185.5 L 128.73045349121094 28.453800201416016" fill-opacity="0.5019607843137255" clip-path="url(#aoACLoFmqvKz)"/><path fill="rgb(54,144,192)" stroke="none" paint-order="stroke" d="M 141.88055419921875 25.8590030670166 L 153.71563720703125 25.8590030670166 L 153.71563720703125 185.5 L 141.88055419921875 185.5 L 141.88055419921875 25.8590030670166" fill-opacity="0.5019607843137255" clip-path="url(#aoACLoFmqvKz)"/><path fill="rgb(103,169,207)" stroke="none" paint-order="stroke" d="M 155.03065490722656 17.1101131439209 L 166.86573791503906 17.1101131439209 L 166.86573791503906 185.5 L 155.03065490722656 185.5 L 155.03065490722656 17.1101131439209" fill-opacity="0.5019607843137255" clip-path="url(#aoACLoFmqvKz)"/><path fill="rgb(166,189,219)" stroke="none" paint-order="stroke" d="M 168.18077087402344 14.071428298950195 L 180.01585388183594 14.071428298950195 L 180.01585388183594 185.5 L 168.18077087402344 185.5 L 168.18077087402344 14.071428298950195" fill-opacity="0.5019607843137255" clip-path="url(#aoACLoFmqvKz)"/><path fill="rgb(255,0,255)" stroke="none" paint-order="stroke" d="M 199.74102783203125 56.79254150390625 L 211.57611083984375 56.79254150390625 L 211.57611083984375 185.5 L 199.74102783203125 185.5 L 199.74102783203125 56.79254150390625" fill-opacity="0.5019607843137255" clip-path="url(#aoACLoFmqvKz)"/><path fill="rgb(1,100,80)" stroke="none" paint-order="stroke" d="M 212.89112854003906 56.75885772705078 L 224.72621154785156 56.75885772705078 L 224.72621154785156 185.5 L 212.89112854003906 185.5 L 212.89112854003906 56.75885772705078" fill-opacity="0.5019607843137255" clip-path="url(#aoACLoFmqvKz)"/><path fill="rgb(2,129,138)" stroke="none" paint-order="stroke" d="M 226.04122924804688 56.441551208496094 L 237.87631225585938 56.441551208496094 L 237.87631225585938 185.5 L 226.04122924804688 185.5 L 226.04122924804688 56.441551208496094" fill-opacity="0.5019607843137255" clip-path="url(#aoACLoFmqvKz)"/><path fill="rgb(54,144,192)" stroke="none" paint-order="stroke" d="M 239.1913299560547 53.66326904296875 L 251.0264129638672 53.66326904296875 L 251.0264129638672 185.5 L 239.1913299560547 185.5 L 239.1913299560547 53.66326904296875" fill-opacity="0.5019607843137255" clip-path="url(#aoACLoFmqvKz)"/><path fill="rgb(103,169,207)" stroke="none" paint-order="stroke" d="M 252.3414306640625 44.05616760253906 L 264.176513671875 44.05616760253906 L 264.176513671875 185.5 L 252.3414306640625 185.5 L 252.3414306640625 44.05616760253906" fill-opacity="0.5019607843137255" clip-path="url(#aoACLoFmqvKz)"/><path fill="rgb(166,189,219)" stroke="none" paint-order="stroke" d="M 265.4915466308594 39.16518783569336 L 277.3266296386719 39.16518783569336 L 277.3266296386719 185.5 L 265.4915466308594 185.5 L 265.4915466308594 39.16518783569336" fill-opacity="0.5019607843137255" clip-path="url(#aoACLoFmqvKz)"/><path fill="rgb(255,0,255)" stroke="none" paint-order="stroke" d="M 297.05181884765625 97.57672119140625 L 308.88690185546875 97.57672119140625 L 308.88690185546875 185.5 L 297.05181884765625 185.5 L 297.05181884765625 97.57672119140625" fill-opacity="0.5019607843137255" clip-path="url(#aoACLoFmqvKz)"/><path fill="rgb(1,100,80)" stroke="none" paint-order="stroke" d="M 310.201904296875 97.54410552978516 L 322.0369873046875 97.54410552978516 L 322.0369873046875 185.5 L 310.201904296875 185.5 L 310.201904296875 97.54410552978516" fill-opacity="0.5019607843137255" clip-path="url(#aoACLoFmqvKz)"/><path fill="rgb(2,129,138)" stroke="none" paint-order="stroke" d="M 323.35198974609375 97.23413848876953 L 335.18707275390625 97.23413848876953 L 335.18707275390625 185.5 L 323.35198974609375 185.5 L 323.35198974609375 97.23413848876953" fill-opacity="0.5019607843137255" clip-path="url(#aoACLoFmqvKz)"/><path fill="rgb(54,144,192)" stroke="none" paint-order="stroke" d="M 336.5021057128906 94.51071166992188 L 348.3371887207031 94.51071166992188 L 348.3371887207031 185.5 L 336.5021057128906 185.5 L 336.5021057128906 94.51071166992188" fill-opacity="0.5019607843137255" clip-path="url(#aoACLoFmqvKz)"/><path fill="rgb(103,169,207)" stroke="none" paint-order="stroke" d="M 349.6522216796875 86.88753509521484 L 361.4873046875 86.88753509521484 L 361.4873046875 185.5 L 349.6522216796875 185.5 L 349.6522216796875 86.88753509521484" fill-opacity="0.5019607843137255" clip-path="url(#aoACLoFmqvKz)"/><path fill="rgb(166,189,219)" stroke="none" paint-order="stroke" d="M 362.80230712890625 83.59945678710938 L 374.63739013671875 83.59945678710938 L 374.63739013671875 185.5 L 362.80230712890625 185.5 L 362.80230712890625 83.59945678710938" fill-opacity="0.5019607843137255" clip-path="url(#aoACLoFmqvKz)"/><path fill="rgb(255,0,255)" stroke="none" paint-order="stroke" d="M 394.36260986328125 128.91986083984375 L 406.19769287109375 128.91986083984375 L 406.19769287109375 185.5 L 394.36260986328125 185.5 L 394.36260986328125 128.91986083984375" fill-opacity="0.5019607843137255" clip-path="url(#aoACLoFmqvKz)"/><path fill="rgb(1,100,80)" stroke="none" paint-order="stroke" d="M 407.5126953125 128.91986083984375 L 419.3477783203125 128.91986083984375 L 419.3477783203125 185.5 L 407.5126953125 185.5 L 407.5126953125 128.91986083984375" fill-opacity="0.5019607843137255" clip-path="url(#aoACLoFmqvKz)"/><path fill="rgb(2,129,138)" stroke="none" paint-order="stroke" d="M 420.6628112792969 128.91986083984375 L 432.4978942871094 128.91986083984375 L 432.4978942871094 185.5 L 420.6628112792969 185.5 L 420.6628112792969 128.91986083984375" fill-opacity="0.5019607843137255" clip-path="url(#aoACLoFmqvKz)"/><path fill="rgb(54,144,192)" stroke="none" paint-order="stroke" d="M 433.81292724609375 128.91986083984375 L 445.64801025390625 128.91986083984375 L 445.64801025390625 185.5 L 433.81292724609375 185.5 L 433.81292724609375 128.91986083984375" fill-opacity="0.5019607843137255" clip-path="url(#aoACLoFmqvKz)"/><path fill="rgb(103,169,207)" stroke="none" paint-order="stroke" d="M 446.9630126953125 128.91986083984375 L 458.798095703125 128.91986083984375 L 458.798095703125 185.5 L 446.9630126953125 185.5 L 446.9630126953125 128.91986083984375" fill-opacity="0.5019607843137255" clip-path="url(#aoACLoFmqvKz)"/><path fill="rgb(166,189,219)" stroke="none" paint-order="stroke" d="M 460.1131286621094 128.91986083984375 L 471.9482116699219 128.91986083984375 L 471.9482116699219 185.5 L 460.1131286621094 185.5 L 460.1131286621094 128.91986083984375" fill-opacity="0.5019607843137255" clip-path="url(#aoACLoFmqvKz)"/><path fill="rgb(255,0,255)" stroke="none" paint-order="stroke" d="M 491.6733703613281 128.91986083984375 L 503.5084533691406 128.91986083984375 L 503.5084533691406 185.5 L 491.6733703613281 185.5 L 491.6733703613281 128.91986083984375" fill-opacity="0.5019607843137255" clip-path="url(#aoACLoFmqvKz)"/><path fill="rgb(1,100,80)" stroke="none" paint-order="stroke" d="M 504.823486328125 128.91986083984375 L 516.6585693359375 128.91986083984375 L 516.6585693359375 185.5 L 504.823486328125 185.5 L 504.823486328125 128.91986083984375" fill-opacity="0.5019607843137255" clip-path="url(#aoACLoFmqvKz)"/><path fill="rgb(2,129,138)" stroke="none" paint-order="stroke" d="M 517.9735717773438 128.91986083984375 L 529.8086547851562 128.91986083984375 L 529.8086547851562 185.5 L 517.9735717773438 185.5 L 517.9735717773438 128.91986083984375" fill-opacity="0.5019607843137255" clip-path="url(#aoACLoFmqvKz)"/><path fill="rgb(54,144,192)" stroke="none" paint-order="stroke" d="M 531.1236572265625 128.91986083984375 L 542.958740234375 128.91986083984375 L 542.958740234375 185.5 L 531.1236572265625 185.5 L 531.1236572265625 128.91986083984375" fill-opacity="0.5019607843137255" clip-path="url(#aoACLoFmqvKz)"/><path fill="rgb(103,169,207)" stroke="none" paint-order="stroke" d="M 544.2737426757812 128.91986083984375 L 556.1088256835938 128.91986083984375 L 556.1088256835938 185.5 L 544.2737426757812 185.5 L 544.2737426757812 128.91986083984375" fill-opacity="0.5019607843137255" clip-path="url(#aoACLoFmqvKz)"/><path fill="rgb(166,189,219)" stroke="none" paint-order="stroke" d="M 557.4238891601562 128.91986083984375 L 569.2589721679688 128.91986083984375 L 569.2589721679688 185.5 L 557.4238891601562 185.5 L 557.4238891601562 128.91986083984375" fill-opacity="0.5019607843137255" clip-path="url(#aoACLoFmqvKz)"/><path fill="rgb(255,0,255)" stroke="none" paint-order="stroke" d="M 588.984130859375 128.91986083984375 L 600.8192138671875 128.91986083984375 L 600.8192138671875 185.5 L 588.984130859375 185.5 L 588.984130859375 128.91986083984375" fill-opacity="0.5019607843137255" clip-path="url(#aoACLoFmqvKz)"/><path fill="rgb(1,100,80)" stroke="none" paint-order="stroke" d="M 602.13427734375 128.91986083984375 L 613.9693603515625 128.91986083984375 L 613.9693603515625 185.5 L 602.13427734375 185.5 L 602.13427734375 128.91986083984375" fill-opacity="0.5019607843137255" clip-path="url(#aoACLoFmqvKz)"/><path fill="rgb(2,129,138)" stroke="none" paint-order="stroke" d="M 615.2843627929688 128.91986083984375 L 627.1194458007812 128.91986083984375 L 627.1194458007812 185.5 L 615.2843627929688 185.5 L 615.2843627929688 128.91986083984375" fill-opacity="0.5019607843137255" clip-path="url(#aoACLoFmqvKz)"/><path fill="rgb(54,144,192)" stroke="none" paint-order="stroke" d="M 628.4344482421875 128.91986083984375 L 640.26953125 128.91986083984375 L 640.26953125 185.5 L 628.4344482421875 185.5 L 628.4344482421875 128.91986083984375" fill-opacity="0.5019607843137255" clip-path="url(#aoACLoFmqvKz)"/><path fill="rgb(103,169,207)" stroke="none" paint-order="stroke" d="M 641.5845947265625 128.91986083984375 L 653.419677734375 128.91986083984375 L 653.419677734375 185.5 L 641.5845947265625 185.5 L 641.5845947265625 128.91986083984375" fill-opacity="0.5019607843137255" clip-path="url(#aoACLoFmqvKz)"/><path fill="rgb(166,189,219)" stroke="none" paint-order="stroke" d="M 654.7346801757812 128.91986083984375 L 666.5697631835938 128.91986083984375 L 666.5697631835938 185.5 L 654.7346801757812 185.5 L 654.7346801757812 128.91986083984375" fill-opacity="0.5019607843137255" clip-path="url(#aoACLoFmqvKz)"/><path fill="none" stroke="rgb(0,0,0)" paint-order="fill" d="M 73.5 185.5 L 695.5 185.5" stroke-opacity="1" stroke-linejoin="bevel" stroke-miterlimit="10" stroke-dasharray=""/><path fill="none" stroke="rgb(0,0,0)" paint-order="fill" d="M 108.5 191.5 L 108.5 183.5 M 121.5 191.5 L 121.5 183.5 M 134.5 191.5 L 134.5 183.5 M 147.5 191.5 L 147.5 183.5 M 160.5 191.5 L 160.5 183.5 M 174.5 191.5 L 174.5 183.5 M 205.5 191.5 L 205.5 183.5 M 218.5 191.5 L 218.5 183.5 M 231.5 191.5 L 231.5 183.5 M 245.5 191.5 L 245.5 183.5 M 258.5 191.5 L 258.5 183.5 M 271.5 191.5 L 271.5 183.5 M 302.5 191.5 L 302.5 183.5 M 316.5 191.5 L 316.5 183.5 M 329.5 191.5 L 329.5 183.5 M 342.5 191.5 L 342.5 183.5 M 355.5 191.5 L 355.5 183.5 M 368.5 191.5 L 368.5 183.5 M 400.5 191.5 L 400.5 183.5 M 413.5 191.5 L 413.5 183.5 M 426.5 191.5 L 426.5 183.5 M 439.5 191.5 L 439.5 183.5 M 452.5 191.5 L 452.5 183.5 M 466.5 191.5 L 466.5 183.5 M 497.5 191.5 L 497.5 183.5 M 510.5 191.5 L 510.5 183.5 M 523.5 191.5 L 523.5 183.5 M 537.5 191.5 L 537.5 183.5 M 550.5 191.5 L 550.5 183.5 M 563.5 191.5 L 563.5 183.5 M 594.5 191.5 L 594.5 183.5 M 608.5 191.5 L 608.5 183.5 M 621.5 191.5 L 621.5 183.5 M 634.5 191.5 L 634.5 183.5 M 647.5 191.5 L 647.5 183.5 M 660.5 191.5 L 660.5 183.5" stroke-opacity="1" stroke-linejoin="bevel" stroke-miterlimit="10" stroke-dasharray=""/><path fill="none" stroke="rgb(0,0,0)" paint-order="fill" d="" stroke-opacity="1" stroke-linejoin="bevel" stroke-miterlimit="10" stroke-dasharray=""/><text fill="rgb(68,68,68)" stroke="none" font-family="helvetica" font-size="13px" font-style="normal" font-weight="normal" text-decoration="normal" x="86.1578369140625" y="201" text-anchor="start" dominant-baseline="alphabetic" transform="matrix(0.5403023058681398, -0.8414709848078965, 0.8414709848078965, 0.5403023058681398, -114.85093801125603, 181.35152428238166)" fill-opacity="1">1e0</text><text fill="rgb(68,68,68)" stroke="none" font-family="helvetica" font-size="13px" font-style="normal" font-weight="normal" text-decoration="normal" x="94.97884368896484" y="201" text-anchor="start" dominant-baseline="alphabetic" transform="matrix(0.5403023058681398, -0.8414709848078965, 0.8414709848078965, 0.5403023058681398, -108.805863530968, 192.41695889538616)" fill-opacity="1">1e-1</text><text fill="rgb(68,68,68)" stroke="none" font-family="helvetica" font-size="13px" font-style="normal" font-weight="normal" text-decoration="normal" x="108.12895202636719" y="201" text-anchor="start" dominant-baseline="alphabetic" transform="matrix(0.5403023058681398, -0.8414709848078965, 0.8414709848078965, 0.5403023058681398, -102.76078905067999, 203.48239350839066)" fill-opacity="1">1e-2</text><text fill="rgb(68,68,68)" stroke="none" font-family="helvetica" font-size="13px" font-style="normal" font-weight="normal" text-decoration="normal" x="121.279052734375" y="201" text-anchor="start" dominant-baseline="alphabetic" transform="matrix(0.5403023058681398, -0.8414709848078965, 0.8414709848078965, 0.5403023058681398, -96.71571807760708, 214.54782170148098)" fill-opacity="1">1e-3</text><text fill="rgb(68,68,68)" stroke="none" font-family="helvetica" font-size="13px" font-style="normal" font-weight="normal" text-decoration="normal" x="134.4291534423828" y="201" text-anchor="start" dominant-baseline="alphabetic" transform="matrix(0.5403023058681398, -0.8414709848078965, 0.8414709848078965, 0.5403023058681398, -90.67064710453414, 225.61324989457134)" fill-opacity="1">1e-4</text><text fill="rgb(68,68,68)" stroke="none" font-family="helvetica" font-size="13px" font-style="normal" font-weight="normal" text-decoration="normal" x="147.5792694091797" y="201" text-anchor="start" dominant-baseline="alphabetic" transform="matrix(0.5403023058681398, -0.8414709848078965, 0.8414709848078965, 0.5403023058681398, -84.62556911703109, 236.67869092748995)" fill-opacity="1">1e-5</text><text fill="rgb(68,68,68)" stroke="none" font-family="helvetica" font-size="13px" font-style="normal" font-weight="normal" text-decoration="normal" x="183.4686279296875" y="201" text-anchor="start" dominant-baseline="alphabetic" transform="matrix(0.5403023058681398, -0.8414709848078965, 0.8414709848078965, 0.5403023058681398, -70.11739176722585, 263.2357314307351)" fill-opacity="1">1e0</text><text fill="rgb(68,68,68)" stroke="none" font-family="helvetica" font-size="13px" font-style="normal" font-weight="normal" text-decoration="normal" x="192.2896270751953" y="201" text-anchor="start" dominant-baseline="alphabetic" transform="matrix(0.5403023058681398, -0.8414709848078965, 0.8414709848078965, 0.5403023058681398, -64.07232079415292, 274.3011596238254)" fill-opacity="1">1e-1</text><text fill="rgb(68,68,68)" stroke="none" font-family="helvetica" font-size="13px" font-style="normal" font-weight="normal" text-decoration="normal" x="205.43972778320312" y="201" text-anchor="start" dominant-baseline="alphabetic" transform="matrix(0.5403023058681398, -0.8414709848078965, 0.8414709848078965, 0.5403023058681398, -58.02724982107998, 285.36658781691574)" fill-opacity="1">1e-2</text><text fill="rgb(68,68,68)" stroke="none" font-family="helvetica" font-size="13px" font-style="normal" font-weight="normal" text-decoration="normal" x="218.58984375" y="201" text-anchor="start" dominant-baseline="alphabetic" transform="matrix(0.5403023058681398, -0.8414709848078965, 0.8414709848078965, 0.5403023058681398, -51.9821718335769, 296.4320288498344)" fill-opacity="1">1e-3</text><text fill="rgb(68,68,68)" stroke="none" font-family="helvetica" font-size="13px" font-style="normal" font-weight="normal" text-decoration="normal" x="231.73992919921875" y="201" text-anchor="start" dominant-baseline="alphabetic" transform="matrix(0.5403023058681398, -0.8414709848078965, 0.8414709848078965, 0.5403023058681398, -45.9371078749341, 307.49744420309645)" fill-opacity="1">1e-4</text><text fill="rgb(68,68,68)" stroke="none" font-family="helvetica" font-size="13px" font-style="normal" font-weight="normal" text-decoration="normal" x="244.89004516601562" y="201" text-anchor="start" dominant-baseline="alphabetic" transform="matrix(0.5403023058681398, -0.8414709848078965, 0.8414709848078965, 0.5403023058681398, -39.89202988743102, 318.56288523601506)" fill-opacity="1">1e-5</text><text fill="rgb(68,68,68)" stroke="none" font-family="helvetica" font-size="13px" font-style="normal" font-weight="normal" text-decoration="normal" x="280.7793884277344" y="201" text-anchor="start" dominant-baseline="alphabetic" transform="matrix(0.5403023058681398, -0.8414709848078965, 0.8414709848078965, 0.5403023058681398, -25.383859552056038, 345.11991289943194)" fill-opacity="1">1e0</text><text fill="rgb(68,68,68)" stroke="none" font-family="helvetica" font-size="13px" font-style="normal" font-weight="normal" text-decoration="normal" x="289.60040283203125" y="201" text-anchor="start" dominant-baseline="alphabetic" transform="matrix(0.5403023058681398, -0.8414709848078965, 0.8414709848078965, 0.5403023058681398, -19.33878156455296, 356.1853539323505)" fill-opacity="1">1e-1</text><text fill="rgb(68,68,68)" stroke="none" font-family="helvetica" font-size="13px" font-style="normal" font-weight="normal" text-decoration="normal" x="302.7505187988281" y="201" text-anchor="start" dominant-baseline="alphabetic" transform="matrix(0.5403023058681398, -0.8414709848078965, 0.8414709848078965, 0.5403023058681398, -13.293703577049882, 367.25079496526917)" fill-opacity="1">1e-2</text><text fill="rgb(68,68,68)" stroke="none" font-family="helvetica" font-size="13px" font-style="normal" font-weight="normal" text-decoration="normal" x="315.9006042480469" y="201" text-anchor="start" dominant-baseline="alphabetic" transform="matrix(0.5403023058681398, -0.8414709848078965, 0.8414709848078965, 0.5403023058681398, -7.248639618407083, 378.31621031853126)" fill-opacity="1">1e-3</text><text fill="rgb(68,68,68)" stroke="none" font-family="helvetica" font-size="13px" font-style="normal" font-weight="normal" text-decoration="normal" x="329.05072021484375" y="201" text-anchor="start" dominant-baseline="alphabetic" transform="matrix(0.5403023058681398, -0.8414709848078965, 0.8414709848078965, 0.5403023058681398, -1.2035616309040051, 389.3816513514498)" fill-opacity="1">1e-4</text><text fill="rgb(68,68,68)" stroke="none" font-family="helvetica" font-size="13px" font-style="normal" font-weight="normal" text-decoration="normal" x="342.2008361816406" y="201" text-anchor="start" dominant-baseline="alphabetic" transform="matrix(0.5403023058681398, -0.8414709848078965, 0.8414709848078965, 0.5403023058681398, 4.841516356599072, 400.4470923843685)" fill-opacity="1">1e-5</text><text fill="rgb(68,68,68)" stroke="none" font-family="helvetica" font-size="13px" font-style="normal" font-weight="normal" text-decoration="normal" x="378.0901794433594" y="201" text-anchor="start" dominant-baseline="alphabetic" transform="matrix(0.5403023058681398, -0.8414709848078965, 0.8414709848078965, 0.5403023058681398, 19.34968669197417, 427.00412004778525)" fill-opacity="1">1e0</text><text fill="rgb(68,68,68)" stroke="none" font-family="helvetica" font-size="13px" font-style="normal" font-weight="normal" text-decoration="normal" x="386.91119384765625" y="201" text-anchor="start" dominant-baseline="alphabetic" transform="matrix(0.5403023058681398, -0.8414709848078965, 0.8414709848078965, 0.5403023058681398, 25.394764679477248, 438.0695610807039)" fill-opacity="1">1e-1</text><text fill="rgb(68,68,68)" stroke="none" font-family="helvetica" font-size="13px" font-style="normal" font-weight="normal" text-decoration="normal" x="400.0613098144531" y="201" text-anchor="start" dominant-baseline="alphabetic" transform="matrix(0.5403023058681398, -0.8414709848078965, 0.8414709848078965, 0.5403023058681398, 31.439842666980326, 449.1350021136225)" fill-opacity="1">1e-2</text><text fill="rgb(68,68,68)" stroke="none" font-family="helvetica" font-size="13px" font-style="normal" font-weight="normal" text-decoration="normal" x="413.2113952636719" y="201" text-anchor="start" dominant-baseline="alphabetic" transform="matrix(0.5403023058681398, -0.8414709848078965, 0.8414709848078965, 0.5403023058681398, 37.484906625623125, 460.2004174668846)" fill-opacity="1">1e-3</text><text fill="rgb(68,68,68)" stroke="none" font-family="helvetica" font-size="13px" font-style="normal" font-weight="normal" text-decoration="normal" x="426.36151123046875" y="201" text-anchor="start" dominant-baseline="alphabetic" transform="matrix(0.5403023058681398, -0.8414709848078965, 0.8414709848078965, 0.5403023058681398, 43.5299846131262, 471.26585849980324)" fill-opacity="1">1e-4</text><text fill="rgb(68,68,68)" stroke="none" font-family="helvetica" font-size="13px" font-style="normal" font-weight="normal" text-decoration="normal" x="439.5116271972656" y="201" text-anchor="start" dominant-baseline="alphabetic" transform="matrix(0.5403023058681398, -0.8414709848078965, 0.8414709848078965, 0.5403023058681398, 49.57506260062928, 482.3312995327218)" fill-opacity="1">1e-5</text><text fill="rgb(68,68,68)" stroke="none" font-family="helvetica" font-size="13px" font-style="normal" font-weight="normal" text-decoration="normal" x="475.4009704589844" y="201" text-anchor="start" dominant-baseline="alphabetic" transform="matrix(0.5403023058681398, -0.8414709848078965, 0.8414709848078965, 0.5403023058681398, 64.08323293600432, 508.8883271961387)" fill-opacity="1">1e0</text><text fill="rgb(68,68,68)" stroke="none" font-family="helvetica" font-size="13px" font-style="normal" font-weight="normal" text-decoration="normal" x="484.22198486328125" y="201" text-anchor="start" dominant-baseline="alphabetic" transform="matrix(0.5403023058681398, -0.8414709848078965, 0.8414709848078965, 0.5403023058681398, 70.1283109235074, 519.9537682290572)" fill-opacity="1">1e-1</text><text fill="rgb(68,68,68)" stroke="none" font-family="helvetica" font-size="13px" font-style="normal" font-weight="normal" text-decoration="normal" x="497.3720703125" y="201" text-anchor="start" dominant-baseline="alphabetic" transform="matrix(0.5403023058681398, -0.8414709848078965, 0.8414709848078965, 0.5403023058681398, 76.17337488215014, 531.0191835823193)" fill-opacity="1">1e-2</text><text fill="rgb(68,68,68)" stroke="none" font-family="helvetica" font-size="13px" font-style="normal" font-weight="normal" text-decoration="normal" x="510.52215576171875" y="201" text-anchor="start" dominant-baseline="alphabetic" transform="matrix(0.5403023058681398, -0.8414709848078965, 0.8414709848078965, 0.5403023058681398, 82.21843884079294, 542.0845989355814)" fill-opacity="1">1e-3</text><text fill="rgb(68,68,68)" stroke="none" font-family="helvetica" font-size="13px" font-style="normal" font-weight="normal" text-decoration="normal" x="523.6723022460938" y="201" text-anchor="start" dominant-baseline="alphabetic" transform="matrix(0.5403023058681398, -0.8414709848078965, 0.8414709848078965, 0.5403023058681398, 88.26353085715635, 553.1500656481566)" fill-opacity="1">1e-4</text><text fill="rgb(68,68,68)" stroke="none" font-family="helvetica" font-size="13px" font-style="normal" font-weight="normal" text-decoration="normal" x="536.8223876953125" y="201" text-anchor="start" dominant-baseline="alphabetic" transform="matrix(0.5403023058681398, -0.8414709848078965, 0.8414709848078965, 0.5403023058681398, 94.3085948157991, 564.2154810014187)" fill-opacity="1">1e-5</text><text fill="rgb(68,68,68)" stroke="none" font-family="helvetica" font-size="13px" font-style="normal" font-weight="normal" text-decoration="normal" x="572.7117309570312" y="201" text-anchor="start" dominant-baseline="alphabetic" transform="matrix(0.5403023058681398, -0.8414709848078965, 0.8414709848078965, 0.5403023058681398, 108.81676515117414, 590.7725086648355)" fill-opacity="1">1e0</text><text fill="rgb(68,68,68)" stroke="none" font-family="helvetica" font-size="13px" font-style="normal" font-weight="normal" text-decoration="normal" x="581.5327758789062" y="201" text-anchor="start" dominant-baseline="alphabetic" transform="matrix(0.5403023058681398, -0.8414709848078965, 0.8414709848078965, 0.5403023058681398, 114.86185716753755, 601.8379753774107)" fill-opacity="1">1e-1</text><text fill="rgb(68,68,68)" stroke="none" font-family="helvetica" font-size="13px" font-style="normal" font-weight="normal" text-decoration="normal" x="594.682861328125" y="201" text-anchor="start" dominant-baseline="alphabetic" transform="matrix(0.5403023058681398, -0.8414709848078965, 0.8414709848078965, 0.5403023058681398, 120.9069211261803, 612.9033907306728)" fill-opacity="1">1e-2</text><text fill="rgb(68,68,68)" stroke="none" font-family="helvetica" font-size="13px" font-style="normal" font-weight="normal" text-decoration="normal" x="607.8329467773438" y="201" text-anchor="start" dominant-baseline="alphabetic" transform="matrix(0.5403023058681398, -0.8414709848078965, 0.8414709848078965, 0.5403023058681398, 126.9519850848231, 623.9688060839349)" fill-opacity="1">1e-3</text><text fill="rgb(68,68,68)" stroke="none" font-family="helvetica" font-size="13px" font-style="normal" font-weight="normal" text-decoration="normal" x="620.9830932617188" y="201" text-anchor="start" dominant-baseline="alphabetic" transform="matrix(0.5403023058681398, -0.8414709848078965, 0.8414709848078965, 0.5403023058681398, 132.9970771011865, 635.03427279651)" fill-opacity="1">1e-4</text><text fill="rgb(68,68,68)" stroke="none" font-family="helvetica" font-size="13px" font-style="normal" font-weight="normal" text-decoration="normal" x="634.1331787109375" y="201" text-anchor="start" dominant-baseline="alphabetic" transform="matrix(0.5403023058681398, -0.8414709848078965, 0.8414709848078965, 0.5403023058681398, 139.0421410598292, 646.0996881497721)" fill-opacity="1">1e-5</text><text fill="rgb(128,128,128)" stroke="none" font-family="helvetica" font-size="13px" font-style="normal" font-weight="bold" text-decoration="normal" x="98.81263732910156" y="243.29729276935444" text-anchor="start" dominant-baseline="alphabetic" transform="matrix(1, 0, 0, 1, 0.5, 0.5)" fill-opacity="1">Shared_2xCP</text><text fill="rgb(128,128,128)" stroke="none" font-family="helvetica" font-size="13px" font-style="normal" font-weight="bold" text-decoration="normal" x="196.12342834472656" y="243.29729276935444" text-anchor="start" dominant-baseline="alphabetic" transform="matrix(1, 0, 0, 1, 0.5, 0.5)" fill-opacity="1">Shared_1xCP</text><text fill="rgb(128,128,128)" stroke="none" font-family="helvetica" font-size="13px" font-style="normal" font-weight="bold" text-decoration="normal" x="288.0133056640625" y="243.29729276935444" text-anchor="start" dominant-baseline="alphabetic" transform="matrix(1, 0, 0, 1, 0.5, 0.5)" fill-opacity="1">Shared_0.5xCP</text><text fill="rgb(128,128,128)" stroke="none" font-family="helvetica" font-size="13px" font-style="normal" font-weight="bold" text-decoration="normal" x="398.6986083984375" y="243.29729276935444" text-anchor="start" dominant-baseline="alphabetic" transform="matrix(1, 0, 0, 1, 0.5, 0.5)" fill-opacity="1">Split_2xCP</text><text fill="rgb(128,128,128)" stroke="none" font-family="helvetica" font-size="13px" font-style="normal" font-weight="bold" text-decoration="normal" x="496.0093994140625" y="243.29729276935444" text-anchor="start" dominant-baseline="alphabetic" transform="matrix(1, 0, 0, 1, 0.5, 0.5)" fill-opacity="1">Split_1xCP</text><text fill="rgb(128,128,128)" stroke="none" font-family="helvetica" font-size="13px" font-style="normal" font-weight="bold" text-decoration="normal" x="587.8992919921875" y="243.29729276935444" text-anchor="start" dominant-baseline="alphabetic" transform="matrix(1, 0, 0, 1, 0.5, 0.5)" fill-opacity="1">Split_0.5xCP</text><text fill="rgb(68,68,68)" stroke="none" font-family="helvetica" font-size="12pt" font-style="normal" font-weight="normal" text-decoration="normal" x="353.05078125" y="273.29729276935444" text-anchor="start" dominant-baseline="alphabetic" transform="matrix(1, 0, 0, 1, 0.5, 0.5)" fill-opacity="1">ğ‘˜_ğ‘™ğ‘–ğ‘›ğ‘˜ğ‘’ğ‘Ÿ</text><text fill="rgb(68,68,68)" stroke="none" font-family="helvetica" font-size="12pt" font-style="normal" font-weight="normal" text-decoration="normal" x="331.0859375" y="293.6972927693544" text-anchor="start" dominant-baseline="alphabetic" transform="matrix(1, 0, 0, 1, 0.5, 0.5)" fill-opacity="1">Nucleus Model</text><path fill="none" stroke="rgb(211,211,211)" paint-order="fill" d="M 189.5 237.5 L 189.5 188.5 M 287.5 237.5 L 287.5 188.5 M 384.5 237.5 L 384.5 188.5 M 481.5 237.5 L 481.5 188.5 M 579.5 237.5 L 579.5 188.5" stroke-opacity="1" stroke-linejoin="bevel" stroke-miterlimit="10" stroke-width="2" stroke-dasharray=""/><path fill="none" stroke="rgb(0,0,0)" paint-order="fill" d="M 73.5 185.5 L 73.5 5.5" stroke-opacity="1" stroke-linejoin="bevel" stroke-miterlimit="10" stroke-dasharray=""/><path fill="none" stroke="rgb(0,0,0)" paint-order="fill" d="M 67.5 185.5 L 75.5 185.5 M 67.5 142.5 L 75.5 142.5 M 67.5 99.5 L 75.5 99.5 M 67.5 56.5 L 75.5 56.5 M 67.5 14.5 L 75.5 14.5" stroke-opacity="1" stroke-linejoin="bevel" stroke-miterlimit="10" stroke-dasharray=""/><path fill="none" stroke="rgb(0,0,0)" paint-order="fill" d="M 69.5 185.5 L 73.5 185.5 M 69.5 176.5 L 73.5 176.5 M 69.5 168.5 L 73.5 168.5 M 69.5 159.5 L 73.5 159.5 M 69.5 151.5 L 73.5 151.5 M 69.5 142.5 L 73.5 142.5 M 69.5 134.5 L 73.5 134.5 M 69.5 125.5 L 73.5 125.5 M 69.5 116.5 L 73.5 116.5 M 69.5 108.5 L 73.5 108.5 M 69.5 99.5 L 73.5 99.5 M 69.5 91.5 L 73.5 91.5 M 69.5 82.5 L 73.5 82.5 M 69.5 74.5 L 73.5 74.5 M 69.5 65.5 L 73.5 65.5 M 69.5 56.5 L 73.5 56.5 M 69.5 48.5 L 73.5 48.5 M 69.5 39.5 L 73.5 39.5 M 69.5 31.5 L 73.5 31.5 M 69.5 22.5 L 73.5 22.5 M 69.5 14.5 L 73.5 14.5 M 69.5 5.5 L 73.5 5.5" stroke-opacity="1" stroke-linejoin="bevel" stroke-miterlimit="10" stroke-dasharray=""/><text fill="rgb(68,68,68)" stroke="none" font-family="helvetica" font-size="13pt" font-style="normal" font-weight="normal" text-decoration="normal" x="52.36189270019531" y="191" text-anchor="start" dominant-baseline="alphabetic" transform="matrix(1, 0, 0, 1, 0.5, 0.5)" fill-opacity="1">0</text><text fill="rgb(68,68,68)" stroke="none" font-family="helvetica" font-size="13pt" font-style="normal" font-weight="normal" text-decoration="normal" x="37.908966064453125" y="148.16470336914062" text-anchor="start" dominant-baseline="alphabetic" transform="matrix(1, 0, 0, 1, 0.5, 0.5)" fill-opacity="1">0.2</text><text fill="rgb(68,68,68)" stroke="none" font-family="helvetica" font-size="13pt" font-style="normal" font-weight="normal" text-decoration="normal" x="37.908966064453125" y="105.32939147949219" text-anchor="start" dominant-baseline="alphabetic" transform="matrix(1, 0, 0, 1, 0.5, 0.5)" fill-opacity="1">0.4</text><text fill="rgb(68,68,68)" stroke="none" font-family="helvetica" font-size="13pt" font-style="normal" font-weight="normal" text-decoration="normal" x="37.908966064453125" y="62.49409103393555" text-anchor="start" dominant-baseline="alphabetic" transform="matrix(1, 0, 0, 1, 0.5, 0.5)" fill-opacity="1">0.6</text><text fill="rgb(68,68,68)" stroke="none" font-family="helvetica" font-size="13pt" font-style="normal" font-weight="normal" text-decoration="normal" x="37.908966064453125" y="19.658787727355957" text-anchor="start" dominant-baseline="alphabetic" transform="matrix(1, 0, 0, 1, 0.5, 0.5)" fill-opacity="1">0.8</text><text fill="rgb(68,68,68)" stroke="none" font-family="helvetica" font-size="15pt" font-style="normal" font-weight="normal" text-decoration="normal" x="-21.746307373046875" y="91" text-anchor="start" dominant-baseline="alphabetic" transform="matrix(6.123233995736766e-17, -1, 1, 6.123233995736766e-17, -69.59103393554688, 120.40896606445312)" fill-opacity="1">GTP (mM)</text></svg>