<svg version="1.1" xmlns="http://www.w3.org/2000/svg" width="700" height="400"><defs><clipPath id="rmlxBRJkmOZI"><path fill="none" stroke="none" d="M 68.5 5.5 L 695.5 5.5 L 695.5 227.5 L 68.5 227.5 L 68.5 5.5"/></clipPath><clipPath id="IaNTKFdhwVDl"><path fill="none" stroke="none" d="M 68.5 5.5 L 695.5 5.5 L 695.5 227.5 L 68.5 227.5 L 68.5 5.5"/></clipPath><clipPath id="GEyPsnmgnvqr"><path fill="none" stroke="none" d="M 68.5 5.5 L 695.5 5.5 L 695.5 227.5 L 68.5 227.5 L 68.5 5.5"/></clipPath></defs><path fill="rgb(255,255,255)" stroke="none" paint-order="stroke" d="M 0.5 0.5 L 700.5 0.5 L 700.5 400.5 L 0.5 400.5 L 0.5 0.5" fill-opacity="1"/><rect fill="#FFFFFF" stroke="none" x="68" y="5" width="627" height="222" transform="matrix(1, 0, 0, 1, 0.5, 0.5)"/><path fill="rgb(255,255,255)" stroke="none" paint-order="stroke" d="M 68.5 5.5 L 695.5 5.5 L 695.5 227.5 L 68.5 227.5 L 68.5 5.5" fill-opacity="1"/><path fill="rgb(33,113,181)" stroke="none" paint-order="stroke" d="M 97.66278839111328 39.25438690185547 L 109.59302520751953 39.25438690185547 L 109.59302520751953 227.5 L 97.66278839111328 227.5 L 97.66278839111328 39.25438690185547" fill-opacity="0.5019607843137255" clip-path="url(#GEyPsnmgnvqr)"/><path fill="rgb(66,146,198)" stroke="none" paint-order="stroke" d="M 110.9186019897461 41.000980377197266 L 122.84883880615234 41.000980377197266 L 122.84883880615234 227.5 L 110.9186019897461 227.5 L 110.9186019897461 41.000980377197266" fill-opacity="0.5019607843137255" clip-path="url(#GEyPsnmgnvqr)"/><path fill="rgb(107,174,214)" stroke="none" paint-order="stroke" d="M 124.17442321777344 47.7894287109375 L 136.1046600341797 47.7894287109375 L 136.1046600341797 227.5 L 124.17442321777344 227.5 L 124.17442321777344 47.7894287109375" fill-opacity="0.5019607843137255" clip-path="url(#GEyPsnmgnvqr)"/><path fill="rgb(74,20,134)" stroke="none" paint-order="stroke" d="M 137.43023681640625 46.17092514038086 L 149.3604736328125 46.17092514038086 L 149.3604736328125 227.5 L 137.43023681640625 227.5 L 137.43023681640625 46.17092514038086" fill-opacity="0.5019607843137255" clip-path="url(#GEyPsnmgnvqr)"/><path fill="rgb(117,107,177)" stroke="none" paint-order="stroke" d="M 150.68605041503906 16.071428298950195 L 162.6162872314453 16.071428298950195 L 162.6162872314453 227.5 L 150.68605041503906 227.5 L 150.68605041503906 16.071428298950195" fill-opacity="0.5019607843137255" clip-path="url(#GEyPsnmgnvqr)"/><path fill="rgb(158,154,200)" stroke="none" paint-order="stroke" d="M 163.94186401367188 31.707111358642578 L 175.87210083007812 31.707111358642578 L 175.87210083007812 227.5 L 163.94186401367188 227.5 L 163.94186401367188 31.707111358642578" fill-opacity="0.5019607843137255" clip-path="url(#GEyPsnmgnvqr)"/><path fill="rgb(33,113,181)" stroke="none" paint-order="stroke" d="M 195.7558135986328 39.62738037109375 L 207.68605041503906 39.62738037109375 L 207.68605041503906 227.5 L 195.7558135986328 227.5 L 195.7558135986328 39.62738037109375" fill-opacity="0.5019607843137255" clip-path="url(#GEyPsnmgnvqr)"/><path fill="rgb(66,146,198)" stroke="none" paint-order="stroke" d="M 209.01162719726562 41.18153762817383 L 220.94186401367188 41.18153762817383 L 220.94186401367188 227.5 L 209.01162719726562 227.5 L 209.01162719726562 41.18153762817383" fill-opacity="0.5019607843137255" clip-path="url(#GEyPsnmgnvqr)"/><path fill="rgb(107,174,214)" stroke="none" paint-order="stroke" d="M 222.26744079589844 48.111263275146484 L 234.1976776123047 48.111263275146484 L 234.1976776123047 227.5 L 222.26744079589844 227.5 L 222.26744079589844 48.111263275146484" fill-opacity="0.5019607843137255" clip-path="url(#GEyPsnmgnvqr)"/><path fill="rgb(74,20,134)" stroke="none" paint-order="stroke" d="M 235.52325439453125 46.61642074584961 L 247.4534912109375 46.61642074584961 L 247.4534912109375 227.5 L 235.52325439453125 227.5 L 235.52325439453125 46.61642074584961" fill-opacity="0.5019607843137255" clip-path="url(#GEyPsnmgnvqr)"/><path fill="rgb(117,107,177)" stroke="none" paint-order="stroke" d="M 248.77906799316406 16.170544624328613 L 260.70928955078125 16.170544624328613 L 260.70928955078125 227.5 L 248.77906799316406 227.5 L 248.77906799316406 16.170544624328613" fill-opacity="0.5019607843137255" clip-path="url(#GEyPsnmgnvqr)"/><path fill="rgb(158,154,200)" stroke="none" paint-order="stroke" d="M 262.0348815917969 31.93987274169922 L 273.9651184082031 31.93987274169922 L 273.9651184082031 227.5 L 262.0348815917969 227.5 L 262.0348815917969 31.93987274169922" fill-opacity="0.5019607843137255" clip-path="url(#GEyPsnmgnvqr)"/><path fill="rgb(33,113,181)" stroke="none" paint-order="stroke" d="M 293.8488464355469 43.6763801574707 L 305.7790832519531 43.6763801574707 L 305.7790832519531 227.5 L 293.8488464355469 227.5 L 293.8488464355469 43.6763801574707" fill-opacity="0.5019607843137255" clip-path="url(#GEyPsnmgnvqr)"/><path fill="rgb(66,146,198)" stroke="none" paint-order="stroke" d="M 307.1046447753906 42.92639923095703 L 319.0348815917969 42.92639923095703 L 319.0348815917969 227.5 L 307.1046447753906 227.5 L 307.1046447753906 42.92639923095703" fill-opacity="0.5019607843137255" clip-path="url(#GEyPsnmgnvqr)"/><path fill="rgb(107,174,214)" stroke="none" paint-order="stroke" d="M 320.3604431152344 51.263641357421875 L 332.2906799316406 51.263641357421875 L 332.2906799316406 227.5 L 320.3604431152344 227.5 L 320.3604431152344 51.263641357421875" fill-opacity="0.5019607843137255" clip-path="url(#GEyPsnmgnvqr)"/><path fill="rgb(74,20,134)" stroke="none" paint-order="stroke" d="M 333.61627197265625 50.78071975708008 L 345.5465087890625 50.78071975708008 L 345.5465087890625 227.5 L 333.61627197265625 227.5 L 333.61627197265625 50.78071975708008" fill-opacity="0.5019607843137255" clip-path="url(#GEyPsnmgnvqr)"/><path fill="rgb(117,107,177)" stroke="none" paint-order="stroke" d="M 346.8720703125 17.109830856323242 L 358.80230712890625 17.109830856323242 L 358.80230712890625 227.5 L 346.8720703125 227.5 L 346.8720703125 17.109830856323242" fill-opacity="0.5019607843137255" clip-path="url(#GEyPsnmgnvqr)"/><path fill="rgb(158,154,200)" stroke="none" paint-order="stroke" d="M 360.1278991699219 34.27170181274414 L 372.0581359863281 34.27170181274414 L 372.0581359863281 227.5 L 360.1278991699219 227.5 L 360.1278991699219 34.27170181274414" fill-opacity="0.5019607843137255" clip-path="url(#GEyPsnmgnvqr)"/><path fill="rgb(33,113,181)" stroke="none" paint-order="stroke" d="M 391.9418640136719 76.2867660522461 L 403.8721008300781 76.2867660522461 L 403.8721008300781 227.5 L 391.9418640136719 227.5 L 391.9418640136719 76.2867660522461" fill-opacity="0.5019607843137255" clip-path="url(#GEyPsnmgnvqr)"/><path fill="rgb(66,146,198)" stroke="none" paint-order="stroke" d="M 405.19769287109375 56.73485565185547 L 417.1279296875 56.73485565185547 L 417.1279296875 227.5 L 405.19769287109375 227.5 L 405.19769287109375 56.73485565185547" fill-opacity="0.5019607843137255" clip-path="url(#GEyPsnmgnvqr)"/><path fill="rgb(107,174,214)" stroke="none" paint-order="stroke" d="M 418.4534912109375 76.78628540039062 L 430.38372802734375 76.78628540039062 L 430.38372802734375 227.5 L 418.4534912109375 227.5 L 418.4534912109375 76.78628540039062" fill-opacity="0.5019607843137255" clip-path="url(#GEyPsnmgnvqr)"/><path fill="rgb(74,20,134)" stroke="none" paint-order="stroke" d="M 431.7093200683594 79.36563110351562 L 443.6395568847656 79.36563110351562 L 443.6395568847656 227.5 L 431.7093200683594 227.5 L 431.7093200683594 79.36563110351562" fill-opacity="0.5019607843137255" clip-path="url(#GEyPsnmgnvqr)"/><path fill="rgb(117,107,177)" stroke="none" paint-order="stroke" d="M 444.9651184082031 24.98173713684082 L 456.8953552246094 24.98173713684082 L 456.8953552246094 227.5 L 444.9651184082031 227.5 L 444.9651184082031 24.98173713684082" fill-opacity="0.5019607843137255" clip-path="url(#GEyPsnmgnvqr)"/><path fill="rgb(158,154,200)" stroke="none" paint-order="stroke" d="M 458.220947265625 53.85361862182617 L 470.15118408203125 53.85361862182617 L 470.15118408203125 227.5 L 458.220947265625 227.5 L 458.220947265625 53.85361862182617" fill-opacity="0.5019607843137255" clip-path="url(#GEyPsnmgnvqr)"/><path fill="rgb(33,113,181)" stroke="none" paint-order="stroke" d="M 490.0348815917969 141.99896240234375 L 501.9651184082031 141.99896240234375 L 501.9651184082031 227.5 L 490.0348815917969 227.5 L 490.0348815917969 141.99896240234375" fill-opacity="0.5019607843137255" clip-path="url(#GEyPsnmgnvqr)"/><path fill="rgb(66,146,198)" stroke="none" paint-order="stroke" d="M 503.29071044921875 97.31056213378906 L 515.220947265625 97.31056213378906 L 515.220947265625 227.5 L 503.29071044921875 227.5 L 503.29071044921875 97.31056213378906" fill-opacity="0.5019607843137255" clip-path="url(#GEyPsnmgnvqr)"/><path fill="rgb(107,174,214)" stroke="none" paint-order="stroke" d="M 516.5465087890625 143.07913208007812 L 528.4766845703125 143.07913208007812 L 528.4766845703125 227.5 L 516.5465087890625 227.5 L 516.5465087890625 143.07913208007812" fill-opacity="0.5019607843137255" clip-path="url(#GEyPsnmgnvqr)"/><path fill="rgb(74,20,134)" stroke="none" paint-order="stroke" d="M 529.8023071289062 129.81906127929688 L 541.7324829101562 129.81906127929688 L 541.7324829101562 227.5 L 529.8023071289062 227.5 L 529.8023071289062 129.81906127929688" fill-opacity="0.5019607843137255" clip-path="url(#GEyPsnmgnvqr)"/><path fill="rgb(117,107,177)" stroke="none" paint-order="stroke" d="M 543.0581665039062 59.77398681640625 L 554.9883422851562 59.77398681640625 L 554.9883422851562 227.5 L 543.0581665039062 227.5 L 543.0581665039062 59.77398681640625" fill-opacity="0.5019607843137255" clip-path="url(#GEyPsnmgnvqr)"/><path fill="rgb(158,154,200)" stroke="none" paint-order="stroke" d="M 556.31396484375 114.33645629882812 L 568.244140625 114.33645629882812 L 568.244140625 227.5 L 556.31396484375 227.5 L 556.31396484375 114.33645629882812" fill-opacity="0.5019607843137255" clip-path="url(#GEyPsnmgnvqr)"/><path fill="rgb(33,113,181)" stroke="none" paint-order="stroke" d="M 588.1279296875 168.0447235107422 L 600.05810546875 168.0447235107422 L 600.05810546875 227.5 L 588.1279296875 227.5 L 588.1279296875 168.0447235107422" fill-opacity="0.5019607843137255" clip-path="url(#GEyPsnmgnvqr)"/><path fill="rgb(66,146,198)" stroke="none" paint-order="stroke" d="M 601.3837280273438 111.08831024169922 L 613.3139038085938 111.08831024169922 L 613.3139038085938 227.5 L 601.3837280273438 227.5 L 601.3837280273438 111.08831024169922" fill-opacity="0.5019607843137255" clip-path="url(#GEyPsnmgnvqr)"/><path fill="rgb(107,174,214)" stroke="none" paint-order="stroke" d="M 614.6395874023438 159.90406799316406 L 626.5697631835938 159.90406799316406 L 626.5697631835938 227.5 L 614.6395874023438 227.5 L 614.6395874023438 159.90406799316406" fill-opacity="0.5019607843137255" clip-path="url(#GEyPsnmgnvqr)"/><path fill="rgb(74,20,134)" stroke="none" paint-order="stroke" d="M 627.8953857421875 150.1835174560547 L 639.8255615234375 150.1835174560547 L 639.8255615234375 227.5 L 627.8953857421875 227.5 L 627.8953857421875 150.1835174560547" fill-opacity="0.5019607843137255" clip-path="url(#GEyPsnmgnvqr)"/><path fill="rgb(117,107,177)" stroke="none" paint-order="stroke" d="M 641.1511840820312 80.09764099121094 L 653.0813598632812 80.09764099121094 L 653.0813598632812 227.5 L 641.1511840820312 227.5 L 641.1511840820312 80.09764099121094" fill-opacity="0.5019607843137255" clip-path="url(#GEyPsnmgnvqr)"/><path fill="rgb(158,154,200)" stroke="none" paint-order="stroke" d="M 654.406982421875 133.88046264648438 L 666.337158203125 133.88046264648438 L 666.337158203125 227.5 L 654.406982421875 227.5 L 654.406982421875 133.88046264648438" fill-opacity="0.5019607843137255" clip-path="url(#GEyPsnmgnvqr)"/><path fill="none" stroke="rgb(0,0,0)" paint-order="fill" d="M 68.5 227.5 L 695.5 227.5" stroke-opacity="1" stroke-linejoin="bevel" stroke-miterlimit="10" stroke-dasharray=""/><path fill="none" stroke="rgb(0,0,0)" paint-order="fill" d="M 103.5 233.5 L 103.5 225.5 M 116.5 233.5 L 116.5 225.5 M 130.5 233.5 L 130.5 225.5 M 143.5 233.5 L 143.5 225.5 M 156.5 233.5 L 156.5 225.5 M 169.5 233.5 L 169.5 225.5 M 201.5 233.5 L 201.5 225.5 M 214.5 233.5 L 214.5 225.5 M 228.5 233.5 L 228.5 225.5 M 241.5 233.5 L 241.5 225.5 M 254.5 233.5 L 254.5 225.5 M 268.5 233.5 L 268.5 225.5 M 299.5 233.5 L 299.5 225.5 M 313.5 233.5 L 313.5 225.5 M 326.5 233.5 L 326.5 225.5 M 339.5 233.5 L 339.5 225.5 M 352.5 233.5 L 352.5 225.5 M 366.5 233.5 L 366.5 225.5 M 397.5 233.5 L 397.5 225.5 M 411.5 233.5 L 411.5 225.5 M 424.5 233.5 L 424.5 225.5 M 437.5 233.5 L 437.5 225.5 M 450.5 233.5 L 450.5 225.5 M 464.5 233.5 L 464.5 225.5 M 496.5 233.5 L 496.5 225.5 M 509.5 233.5 L 509.5 225.5 M 522.5 233.5 L 522.5 225.5 M 535.5 233.5 L 535.5 225.5 M 549.5 233.5 L 549.5 225.5 M 562.5 233.5 L 562.5 225.5 M 594.5 233.5 L 594.5 225.5 M 607.5 233.5 L 607.5 225.5 M 620.5 233.5 L 620.5 225.5 M 633.5 233.5 L 633.5 225.5 M 647.5 233.5 L 647.5 225.5 M 660.5 233.5 L 660.5 225.5" stroke-opacity="1" stroke-linejoin="bevel" stroke-miterlimit="10" stroke-dasharray=""/><path fill="none" stroke="rgb(0,0,0)" paint-order="fill" d="" stroke-opacity="1" stroke-linejoin="bevel" stroke-miterlimit="10" stroke-dasharray=""/><text fill="rgb(68,68,68)" stroke="none" font-family="helvetica" font-size="13px" font-style="normal" font-weight="normal" text-decoration="normal" x="22.188941955566406" y="242.5" text-anchor="start" dominant-baseline="alphabetic" transform="matrix(0.5403023058681398, -0.8414709848078965, 0.8414709848078965, 0.5403023058681398, -152.3624334279882, 196.6871924989805)" fill-opacity="1">Shared_2xCP</text><text fill="rgb(68,68,68)" stroke="none" font-family="helvetica" font-size="13px" font-style="normal" font-weight="normal" text-decoration="normal" x="35.44475555419922" y="242.5" text-anchor="start" dominant-baseline="alphabetic" transform="matrix(0.5403023058681398, -0.8414709848078965, 0.8414709848078965, 0.5403023058681398, -146.26876648285497, 207.84157502225196)" fill-opacity="1">Shared_1xCP</text><text fill="rgb(68,68,68)" stroke="none" font-family="helvetica" font-size="13px" font-style="normal" font-weight="normal" text-decoration="normal" x="37.85877990722656" y="242.5" text-anchor="start" dominant-baseline="alphabetic" transform="matrix(0.5403023058681398, -0.8414709848078965, 0.8414709848078965, 0.5403023058681398, -140.1750960305066, 218.9959639654375)" fill-opacity="1">Shared_0.5xCP</text><text fill="rgb(68,68,68)" stroke="none" font-family="helvetica" font-size="13px" font-style="normal" font-weight="normal" text-decoration="normal" x="78.58724975585938" y="242.5" text-anchor="start" dominant-baseline="alphabetic" transform="matrix(0.5403023058681398, -0.8414709848078965, 0.8414709848078965, 0.5403023058681398, -134.08142908537337, 230.15034648870898)" fill-opacity="1">Split_2xCP</text><text fill="rgb(68,68,68)" stroke="none" font-family="helvetica" font-size="13px" font-style="normal" font-weight="normal" text-decoration="normal" x="91.84306335449219" y="242.5" text-anchor="start" dominant-baseline="alphabetic" transform="matrix(0.5403023058681398, -0.8414709848078965, 0.8414709848078965, 0.5403023058681398, -127.98776214024008, 241.30472901198044)" fill-opacity="1">Split_1xCP</text><text fill="rgb(68,68,68)" stroke="none" font-family="helvetica" font-size="13px" font-style="normal" font-weight="normal" text-decoration="normal" x="94.257080078125" y="242.5" text-anchor="start" dominant-baseline="alphabetic" transform="matrix(0.5403023058681398, -0.8414709848078965, 0.8414709848078965, 0.5403023058681398, -121.89409519510684, 252.4591115352519)" fill-opacity="1">Split_0.5xCP</text><text fill="rgb(68,68,68)" stroke="none" font-family="helvetica" font-size="13px" font-style="normal" font-weight="normal" text-decoration="normal" x="120.28196716308594" y="242.5" text-anchor="start" dominant-baseline="alphabetic" transform="matrix(0.5403023058681398, -0.8414709848078965, 0.8414709848078965, 0.5403023058681398, -107.26929592967304, 279.22962702313777)" fill-opacity="1">Shared_2xCP</text><text fill="rgb(68,68,68)" stroke="none" font-family="helvetica" font-size="13px" font-style="normal" font-weight="normal" text-decoration="normal" x="133.53778076171875" y="242.5" text-anchor="start" dominant-baseline="alphabetic" transform="matrix(0.5403023058681398, -0.8414709848078965, 0.8414709848078965, 0.5403023058681398, -101.1756289845398, 290.38400954640923)" fill-opacity="1">Shared_1xCP</text><text fill="rgb(68,68,68)" stroke="none" font-family="helvetica" font-size="13px" font-style="normal" font-weight="normal" text-decoration="normal" x="135.95179748535156" y="242.5" text-anchor="start" dominant-baseline="alphabetic" transform="matrix(0.5403023058681398, -0.8414709848078965, 0.8414709848078965, 0.5403023058681398, -95.08196203940656, 301.53839206968064)" fill-opacity="1">Shared_0.5xCP</text><text fill="rgb(68,68,68)" stroke="none" font-family="helvetica" font-size="13px" font-style="normal" font-weight="normal" text-decoration="normal" x="176.68026733398438" y="242.5" text-anchor="start" dominant-baseline="alphabetic" transform="matrix(0.5403023058681398, -0.8414709848078965, 0.8414709848078965, 0.5403023058681398, -88.98829509427327, 312.6927745929521)" fill-opacity="1">Split_2xCP</text><text fill="rgb(68,68,68)" stroke="none" font-family="helvetica" font-size="13px" font-style="normal" font-weight="normal" text-decoration="normal" x="189.9360809326172" y="242.5" text-anchor="start" dominant-baseline="alphabetic" transform="matrix(0.5403023058681398, -0.8414709848078965, 0.8414709848078965, 0.5403023058681398, -82.89462814913998, 323.84715711622357)" fill-opacity="1">Split_1xCP</text><text fill="rgb(68,68,68)" stroke="none" font-family="helvetica" font-size="13px" font-style="normal" font-weight="normal" text-decoration="normal" x="192.35009765625" y="242.5" text-anchor="start" dominant-baseline="alphabetic" transform="matrix(0.5403023058681398, -0.8414709848078965, 0.8414709848078965, 0.5403023058681398, -76.80096120400674, 335.00153963949504)" fill-opacity="1">Split_0.5xCP</text><text fill="rgb(68,68,68)" stroke="none" font-family="helvetica" font-size="13px" font-style="normal" font-weight="normal" text-decoration="normal" x="218.375" y="242.5" text-anchor="start" dominant-baseline="alphabetic" transform="matrix(0.5403023058681398, -0.8414709848078965, 0.8414709848078965, 0.5403023058681398, -62.17615492414279, 361.7720679672092)" fill-opacity="1">Shared_2xCP</text><text fill="rgb(68,68,68)" stroke="none" font-family="helvetica" font-size="13px" font-style="normal" font-weight="normal" text-decoration="normal" x="231.63079833984375" y="242.5" text-anchor="start" dominant-baseline="alphabetic" transform="matrix(0.5403023058681398, -0.8414709848078965, 0.8414709848078965, 0.5403023058681398, -56.082494993439695, 372.92643765065236)" fill-opacity="1">Shared_1xCP</text><text fill="rgb(68,68,68)" stroke="none" font-family="helvetica" font-size="13px" font-style="normal" font-weight="normal" text-decoration="normal" x="234.04483032226562" y="242.5" text-anchor="start" dominant-baseline="alphabetic" transform="matrix(0.5403023058681398, -0.8414709848078965, 0.8414709848078965, 0.5403023058681398, -49.98882103387632, 384.08083301375206)" fill-opacity="1">Shared_0.5xCP</text><text fill="rgb(68,68,68)" stroke="none" font-family="helvetica" font-size="13px" font-style="normal" font-weight="normal" text-decoration="normal" x="274.7732849121094" y="242.5" text-anchor="start" dominant-baseline="alphabetic" transform="matrix(0.5403023058681398, -0.8414709848078965, 0.8414709848078965, 0.5403023058681398, -43.895161103173166, 395.2352026971953)" fill-opacity="1">Split_2xCP</text><text fill="rgb(68,68,68)" stroke="none" font-family="helvetica" font-size="13px" font-style="normal" font-weight="normal" text-decoration="normal" x="288.02911376953125" y="242.5" text-anchor="start" dominant-baseline="alphabetic" transform="matrix(0.5403023058681398, -0.8414709848078965, 0.8414709848078965, 0.5403023058681398, -37.801487143609734, 406.389598060295)" fill-opacity="1">Split_1xCP</text><text fill="rgb(68,68,68)" stroke="none" font-family="helvetica" font-size="13px" font-style="normal" font-weight="normal" text-decoration="normal" x="290.443115234375" y="242.5" text-anchor="start" dominant-baseline="alphabetic" transform="matrix(0.5403023058681398, -0.8414709848078965, 0.8414709848078965, 0.5403023058681398, -31.707827212906636, 417.5439677437382)" fill-opacity="1">Split_0.5xCP</text><text fill="rgb(68,68,68)" stroke="none" font-family="helvetica" font-size="13px" font-style="normal" font-weight="normal" text-decoration="normal" x="316.468017578125" y="242.5" text-anchor="start" dominant-baseline="alphabetic" transform="matrix(0.5403023058681398, -0.8414709848078965, 0.8414709848078965, 0.5403023058681398, -17.08302093304269, 444.3144960714523)" fill-opacity="1">Shared_2xCP</text><text fill="rgb(68,68,68)" stroke="none" font-family="helvetica" font-size="13px" font-style="normal" font-weight="normal" text-decoration="normal" x="329.72381591796875" y="242.5" text-anchor="start" dominant-baseline="alphabetic" transform="matrix(0.5403023058681398, -0.8414709848078965, 0.8414709848078965, 0.5403023058681398, -10.989361002339592, 455.4688657548955)" fill-opacity="1">Shared_1xCP</text><text fill="rgb(68,68,68)" stroke="none" font-family="helvetica" font-size="13px" font-style="normal" font-weight="normal" text-decoration="normal" x="332.1378479003906" y="242.5" text-anchor="start" dominant-baseline="alphabetic" transform="matrix(0.5403023058681398, -0.8414709848078965, 0.8414709848078965, 0.5403023058681398, -4.895687042776217, 466.62326111799524)" fill-opacity="1">Shared_0.5xCP</text><text fill="rgb(68,68,68)" stroke="none" font-family="helvetica" font-size="13px" font-style="normal" font-weight="normal" text-decoration="normal" x="372.8663024902344" y="242.5" text-anchor="start" dominant-baseline="alphabetic" transform="matrix(0.5403023058681398, -0.8414709848078965, 0.8414709848078965, 0.5403023058681398, 1.1979728879269373, 477.7776308014384)" fill-opacity="1">Split_2xCP</text><text fill="rgb(68,68,68)" stroke="none" font-family="helvetica" font-size="13px" font-style="normal" font-weight="normal" text-decoration="normal" x="386.12213134765625" y="242.5" text-anchor="start" dominant-baseline="alphabetic" transform="matrix(0.5403023058681398, -0.8414709848078965, 0.8414709848078965, 0.5403023058681398, 7.2916468474903695, 488.9320261645382)" fill-opacity="1">Split_1xCP</text><text fill="rgb(68,68,68)" stroke="none" font-family="helvetica" font-size="13px" font-style="normal" font-weight="normal" text-decoration="normal" x="388.5361328125" y="242.5" text-anchor="start" dominant-baseline="alphabetic" transform="matrix(0.5403023058681398, -0.8414709848078965, 0.8414709848078965, 0.5403023058681398, 13.385306778193467, 500.08639584798135)" fill-opacity="1">Split_0.5xCP</text><text fill="rgb(68,68,68)" stroke="none" font-family="helvetica" font-size="13px" font-style="normal" font-weight="normal" text-decoration="normal" x="414.56103515625" y="242.5" text-anchor="start" dominant-baseline="alphabetic" transform="matrix(0.5403023058681398, -0.8414709848078965, 0.8414709848078965, 0.5403023058681398, 28.010113058057414, 526.8569241756954)" fill-opacity="1">Shared_2xCP</text><text fill="rgb(68,68,68)" stroke="none" font-family="helvetica" font-size="13px" font-style="normal" font-weight="normal" text-decoration="normal" x="427.8168640136719" y="242.5" text-anchor="start" dominant-baseline="alphabetic" transform="matrix(0.5403023058681398, -0.8414709848078965, 0.8414709848078965, 0.5403023058681398, 34.10378701762079, 538.0113195387952)" fill-opacity="1">Shared_1xCP</text><text fill="rgb(68,68,68)" stroke="none" font-family="helvetica" font-size="13px" font-style="normal" font-weight="normal" text-decoration="normal" x="430.23089599609375" y="242.5" text-anchor="start" dominant-baseline="alphabetic" transform="matrix(0.5403023058681398, -0.8414709848078965, 0.8414709848078965, 0.5403023058681398, 40.197460977184164, 549.165714901895)" fill-opacity="1">Shared_0.5xCP</text><text fill="rgb(68,68,68)" stroke="none" font-family="helvetica" font-size="13px" font-style="normal" font-weight="normal" text-decoration="normal" x="470.9593505859375" y="242.5" text-anchor="start" dominant-baseline="alphabetic" transform="matrix(0.5403023058681398, -0.8414709848078965, 0.8414709848078965, 0.5403023058681398, 46.29112090788726, 560.3200845853381)" fill-opacity="1">Split_2xCP</text><text fill="rgb(68,68,68)" stroke="none" font-family="helvetica" font-size="13px" font-style="normal" font-weight="normal" text-decoration="normal" x="484.21514892578125" y="242.5" text-anchor="start" dominant-baseline="alphabetic" transform="matrix(0.5403023058681398, -0.8414709848078965, 0.8414709848078965, 0.5403023058681398, 52.38478083859047, 571.4744542687813)" fill-opacity="1">Split_1xCP</text><text fill="rgb(68,68,68)" stroke="none" font-family="helvetica" font-size="13px" font-style="normal" font-weight="normal" text-decoration="normal" x="486.629150390625" y="242.5" text-anchor="start" dominant-baseline="alphabetic" transform="matrix(0.5403023058681398, -0.8414709848078965, 0.8414709848078965, 0.5403023058681398, 58.47844076929357, 582.6288239522245)" fill-opacity="1">Split_0.5xCP</text><text fill="rgb(68,68,68)" stroke="none" font-family="helvetica" font-size="13px" font-style="normal" font-weight="normal" text-decoration="normal" x="512.654052734375" y="242.5" text-anchor="start" dominant-baseline="alphabetic" transform="matrix(0.5403023058681398, -0.8414709848078965, 0.8414709848078965, 0.5403023058681398, 73.10324704915752, 609.3993522799386)" fill-opacity="1">Shared_2xCP</text><text fill="rgb(68,68,68)" stroke="none" font-family="helvetica" font-size="13px" font-style="normal" font-weight="normal" text-decoration="normal" x="525.9098510742188" y="242.5" text-anchor="start" dominant-baseline="alphabetic" transform="matrix(0.5403023058681398, -0.8414709848078965, 0.8414709848078965, 0.5403023058681398, 79.19690697986061, 620.5537219633818)" fill-opacity="1">Shared_1xCP</text><text fill="rgb(68,68,68)" stroke="none" font-family="helvetica" font-size="13px" font-style="normal" font-weight="normal" text-decoration="normal" x="528.3239135742188" y="242.5" text-anchor="start" dominant-baseline="alphabetic" transform="matrix(0.5403023058681398, -0.8414709848078965, 0.8414709848078965, 0.5403023058681398, 85.29059496828427, 631.708143006138)" fill-opacity="1">Shared_0.5xCP</text><text fill="rgb(68,68,68)" stroke="none" font-family="helvetica" font-size="13px" font-style="normal" font-weight="normal" text-decoration="normal" x="569.0523681640625" y="242.5" text-anchor="start" dominant-baseline="alphabetic" transform="matrix(0.5403023058681398, -0.8414709848078965, 0.8414709848078965, 0.5403023058681398, 91.38425489898736, 642.8625126895813)" fill-opacity="1">Split_2xCP</text><text fill="rgb(68,68,68)" stroke="none" font-family="helvetica" font-size="13px" font-style="normal" font-weight="normal" text-decoration="normal" x="582.3081665039062" y="242.5" text-anchor="start" dominant-baseline="alphabetic" transform="matrix(0.5403023058681398, -0.8414709848078965, 0.8414709848078965, 0.5403023058681398, 97.47791482969058, 654.0168823730244)" fill-opacity="1">Split_1xCP</text><text fill="rgb(68,68,68)" stroke="none" font-family="helvetica" font-size="13px" font-style="normal" font-weight="normal" text-decoration="normal" x="584.72216796875" y="242.5" text-anchor="start" dominant-baseline="alphabetic" transform="matrix(0.5403023058681398, -0.8414709848078965, 0.8414709848078965, 0.5403023058681398, 103.57157476039367, 665.1712520564677)" fill-opacity="1">Split_0.5xCP</text><text fill="rgb(128,128,128)" stroke="none" font-family="helvetica" font-size="13px" font-style="normal" font-weight="bold" text-decoration="normal" x="125.24156188964844" y="343.33538253791755" text-anchor="start" dominant-baseline="alphabetic" transform="matrix(1, 0, 0, 1, 0.5, 0.5)" fill-opacity="1">1^0</text><text fill="rgb(128,128,128)" stroke="none" font-family="helvetica" font-size="13px" font-style="normal" font-weight="bold" text-decoration="normal" x="221.35093688964844" y="343.33538253791755" text-anchor="start" dominant-baseline="alphabetic" transform="matrix(1, 0, 0, 1, 0.5, 0.5)" fill-opacity="1">1e-1</text><text fill="rgb(128,128,128)" stroke="none" font-family="helvetica" font-size="13px" font-style="normal" font-weight="bold" text-decoration="normal" x="319.4439697265625" y="343.33538253791755" text-anchor="start" dominant-baseline="alphabetic" transform="matrix(1, 0, 0, 1, 0.5, 0.5)" fill-opacity="1">1e-2</text><text fill="rgb(128,128,128)" stroke="none" font-family="helvetica" font-size="13px" font-style="normal" font-weight="bold" text-decoration="normal" x="417.5369873046875" y="343.33538253791755" text-anchor="start" dominant-baseline="alphabetic" transform="matrix(1, 0, 0, 1, 0.5, 0.5)" fill-opacity="1">1e-3</text><text fill="rgb(128,128,128)" stroke="none" font-family="helvetica" font-size="13px" font-style="normal" font-weight="bold" text-decoration="normal" x="515.6300048828125" y="343.33538253791755" text-anchor="start" dominant-baseline="alphabetic" transform="matrix(1, 0, 0, 1, 0.5, 0.5)" fill-opacity="1">1e-4</text><text fill="rgb(128,128,128)" stroke="none" font-family="helvetica" font-size="13px" font-style="normal" font-weight="bold" text-decoration="normal" x="613.7230224609375" y="343.33538253791755" text-anchor="start" dominant-baseline="alphabetic" transform="matrix(1, 0, 0, 1, 0.5, 0.5)" fill-opacity="1">1e-5</text><text fill="rgb(68,68,68)" stroke="none" font-family="helvetica" font-size="12pt" font-style="normal" font-weight="normal" text-decoration="normal" x="328.5859375" y="373.33538253791755" text-anchor="start" dominant-baseline="alphabetic" transform="matrix(1, 0, 0, 1, 0.5, 0.5)" fill-opacity="1">Nucleus Model</text><text fill="rgb(68,68,68)" stroke="none" font-family="helvetica" font-size="12pt" font-style="normal" font-weight="normal" text-decoration="normal" x="350.55078125" y="393.73538253791753" text-anchor="start" dominant-baseline="alphabetic" transform="matrix(1, 0, 0, 1, 0.5, 0.5)" fill-opacity="1">ğ‘˜_ğ‘™ğ‘–ğ‘›ğ‘˜ğ‘’ğ‘Ÿ</text><path fill="none" stroke="rgb(211,211,211)" paint-order="fill" d="M 185.5 337.5 L 185.5 230.5 M 283.5 337.5 L 283.5 230.5 M 382.5 337.5 L 382.5 230.5 M 480.5 337.5 L 480.5 230.5 M 578.5 337.5 L 578.5 230.5" stroke-opacity="1" stroke-linejoin="bevel" stroke-miterlimit="10" stroke-width="2" stroke-dasharray=""/><path fill="none" stroke="rgb(0,0,0)" paint-order="fill" d="M 68.5 227.5 L 68.5 5.5" stroke-opacity="1" stroke-linejoin="bevel" stroke-miterlimit="10" stroke-dasharray=""/><path fill="none" stroke="rgb(0,0,0)" paint-order="fill" d="M 62.5 227.5 L 70.5 227.5 M 62.5 178.5 L 70.5 178.5 M 62.5 128.5 L 70.5 128.5 M 62.5 79.5 L 70.5 79.5 M 62.5 29.5 L 70.5 29.5" stroke-opacity="1" stroke-linejoin="bevel" stroke-miterlimit="10" stroke-dasharray=""/><path fill="none" stroke="rgb(0,0,0)" paint-order="fill" d="M 64.5 227.5 L 68.5 227.5 M 64.5 217.5 L 68.5 217.5 M 64.5 207.5 L 68.5 207.5 M 64.5 197.5 L 68.5 197.5 M 64.5 187.5 L 68.5 187.5 M 64.5 178.5 L 68.5 178.5 M 64.5 168.5 L 68.5 168.5 M 64.5 158.5 L 68.5 158.5 M 64.5 148.5 L 68.5 148.5 M 64.5 138.5 L 68.5 138.5 M 64.5 128.5 L 68.5 128.5 M 64.5 118.5 L 68.5 118.5 M 64.5 108.5 L 68.5 108.5 M 64.5 99.5 L 68.5 99.5 M 64.5 89.5 L 68.5 89.5 M 64.5 79.5 L 68.5 79.5 M 64.5 69.5 L 68.5 69.5 M 64.5 59.5 L 68.5 59.5 M 64.5 49.5 L 68.5 49.5 M 64.5 39.5 L 68.5 39.5 M 64.5 29.5 L 68.5 29.5 M 64.5 20.5 L 68.5 20.5 M 64.5 10.5 L 68.5 10.5" stroke-opacity="1" stroke-linejoin="bevel" stroke-miterlimit="10" stroke-dasharray=""/><text fill="rgb(68,68,68)" stroke="none" font-family="helvetica" font-size="13pt" font-style="normal" font-weight="normal" text-decoration="normal" x="47.36189270019531" y="233" text-anchor="start" dominant-baseline="alphabetic" transform="matrix(1, 0, 0, 1, 0.5, 0.5)" fill-opacity="1">0</text><text fill="rgb(68,68,68)" stroke="none" font-family="helvetica" font-size="13pt" font-style="normal" font-weight="normal" text-decoration="normal" x="37.723785400390625" y="183.60528564453125" text-anchor="start" dominant-baseline="alphabetic" transform="matrix(1, 0, 0, 1, 0.5, 0.5)" fill-opacity="1">20</text><text fill="rgb(68,68,68)" stroke="none" font-family="helvetica" font-size="13pt" font-style="normal" font-weight="normal" text-decoration="normal" x="37.723785400390625" y="134.2105712890625" text-anchor="start" dominant-baseline="alphabetic" transform="matrix(1, 0, 0, 1, 0.5, 0.5)" fill-opacity="1">40</text><text fill="rgb(68,68,68)" stroke="none" font-family="helvetica" font-size="13pt" font-style="normal" font-weight="normal" text-decoration="normal" x="37.723785400390625" y="84.81585693359375" text-anchor="start" dominant-baseline="alphabetic" transform="matrix(1, 0, 0, 1, 0.5, 0.5)" fill-opacity="1">60</text><text fill="rgb(68,68,68)" stroke="none" font-family="helvetica" font-size="13pt" font-style="normal" font-weight="normal" text-decoration="normal" x="37.723785400390625" y="35.421142578125" text-anchor="start" dominant-baseline="alphabetic" transform="matrix(1, 0, 0, 1, 0.5, 0.5)" fill-opacity="1">80</text><text fill="rgb(68,68,68)" stroke="none" font-family="helvetica" font-size="15pt" font-style="normal" font-weight="normal" text-decoration="normal" x="-78.66000366210938" y="112" text-anchor="start" dominant-baseline="alphabetic" transform="matrix(6.123233995736766e-17, -1, 1, 6.123233995736766e-17, -90.77621459960938, 141.22378540039062)" fill-opacity="1">Completed Peptide (%)</text></svg>