<svg version="1.1" xmlns="http://www.w3.org/2000/svg" width="700" height="300"><defs><clipPath id="MzrmerRfAVTR"><path fill="none" stroke="none" d="M 68.5 5.5 L 695.5 5.5 L 695.5 229.5 L 68.5 229.5 L 68.5 5.5"/></clipPath><clipPath id="xzXtRXpTVLTW"><path fill="none" stroke="none" d="M 68.5 5.5 L 695.5 5.5 L 695.5 229.5 L 68.5 229.5 L 68.5 5.5"/></clipPath><clipPath id="cbQpoyJBOXfy"><path fill="none" stroke="none" d="M 68.5 5.5 L 695.5 5.5 L 695.5 229.5 L 68.5 229.5 L 68.5 5.5"/></clipPath></defs><path fill="rgb(255,255,255)" stroke="none" paint-order="stroke" d="M 0.5 0.5 L 700.5 0.5 L 700.5 300.5 L 0.5 300.5 L 0.5 0.5" fill-opacity="1"/><rect fill="#FFFFFF" stroke="none" x="68" y="5" width="627" height="224" transform="matrix(1, 0, 0, 1, 0.5, 0.5)"/><path fill="rgb(255,255,255)" stroke="none" paint-order="stroke" d="M 68.5 5.5 L 695.5 5.5 L 695.5 229.5 L 68.5 229.5 L 68.5 5.5" fill-opacity="1"/><path fill="rgb(31,119,180)" stroke="rgb(31,119,180)" paint-order="fill" d="M 76.3375015258789 139.89999389648438 L 92.01250457763672 139.89999389648438 L 92.01250457763672 229.5 L 76.3375015258789 229.5 L 76.3375015258789 139.89999389648438" fill-opacity="1" clip-path="url(#cbQpoyJBOXfy)" stroke-opacity="1" stroke-linejoin="bevel" stroke-miterlimit="10" stroke-dasharray=""/><path fill="rgb(31,119,180)" stroke="rgb(31,119,180)" paint-order="fill" d="M 107.6875 162.3000030517578 L 123.36250305175781 162.3000030517578 L 123.36250305175781 229.5 L 107.6875 229.5 L 107.6875 162.3000030517578" fill-opacity="1" clip-path="url(#cbQpoyJBOXfy)" stroke-opacity="1" stroke-linejoin="bevel" stroke-miterlimit="10" stroke-dasharray=""/><path fill="rgb(31,119,180)" stroke="rgb(31,119,180)" paint-order="fill" d="M 139.03750610351562 83.9000015258789 L 154.71249389648438 83.9000015258789 L 154.71249389648438 229.5 L 139.03750610351562 229.5 L 139.03750610351562 83.9000015258789" fill-opacity="1" clip-path="url(#cbQpoyJBOXfy)" stroke-opacity="1" stroke-linejoin="bevel" stroke-miterlimit="10" stroke-dasharray=""/><path fill="rgb(31,119,180)" stroke="rgb(31,119,180)" paint-order="fill" d="M 170.38751220703125 39.099998474121094 L 186.0625 39.099998474121094 L 186.0625 229.5 L 170.38751220703125 229.5 L 170.38751220703125 39.099998474121094" fill-opacity="1" clip-path="url(#cbQpoyJBOXfy)" stroke-opacity="1" stroke-linejoin="bevel" stroke-miterlimit="10" stroke-dasharray=""/><path fill="rgb(31,119,180)" stroke="rgb(31,119,180)" paint-order="fill" d="M 201.7375030517578 207.10000610351562 L 217.41249084472656 207.10000610351562 L 217.41249084472656 229.5 L 201.7375030517578 229.5 L 201.7375030517578 207.10000610351562" fill-opacity="1" clip-path="url(#cbQpoyJBOXfy)" stroke-opacity="1" stroke-linejoin="bevel" stroke-miterlimit="10" stroke-dasharray=""/><path fill="rgb(31,119,180)" stroke="rgb(31,119,180)" paint-order="fill" d="M 233.08750915527344 139.89999389648438 L 248.7624969482422 139.89999389648438 L 248.7624969482422 229.5 L 233.08750915527344 229.5 L 233.08750915527344 139.89999389648438" fill-opacity="1" clip-path="url(#cbQpoyJBOXfy)" stroke-opacity="1" stroke-linejoin="bevel" stroke-miterlimit="10" stroke-dasharray=""/><path fill="rgb(31,119,180)" stroke="rgb(31,119,180)" paint-order="fill" d="M 264.4375 72.69999694824219 L 280.11248779296875 72.69999694824219 L 280.11248779296875 229.5 L 264.4375 229.5 L 264.4375 72.69999694824219" fill-opacity="1" clip-path="url(#cbQpoyJBOXfy)" stroke-opacity="1" stroke-linejoin="bevel" stroke-miterlimit="10" stroke-dasharray=""/><path fill="rgb(31,119,180)" stroke="rgb(31,119,180)" paint-order="fill" d="M 295.7875061035156 5.5 L 311.4624938964844 5.5 L 311.4624938964844 229.5 L 295.7875061035156 229.5 L 295.7875061035156 5.5" fill-opacity="1" clip-path="url(#cbQpoyJBOXfy)" stroke-opacity="1" stroke-linejoin="bevel" stroke-miterlimit="10" stroke-dasharray=""/><path fill="rgb(31,119,180)" stroke="rgb(31,119,180)" paint-order="fill" d="M 327.13751220703125 128.6999969482422 L 342.8125 128.6999969482422 L 342.8125 229.5 L 327.13751220703125 229.5 L 327.13751220703125 128.6999969482422" fill-opacity="1" clip-path="url(#cbQpoyJBOXfy)" stroke-opacity="1" stroke-linejoin="bevel" stroke-miterlimit="10" stroke-dasharray=""/><path fill="rgb(31,119,180)" stroke="rgb(31,119,180)" paint-order="fill" d="M 358.4875183105469 95.0999984741211 L 374.1625061035156 95.0999984741211 L 374.1625061035156 229.5 L 358.4875183105469 229.5 L 358.4875183105469 95.0999984741211" fill-opacity="1" clip-path="url(#cbQpoyJBOXfy)" stroke-opacity="1" stroke-linejoin="bevel" stroke-miterlimit="10" stroke-dasharray=""/><path fill="rgb(31,119,180)" stroke="rgb(31,119,180)" paint-order="fill" d="M 389.8374938964844 16.700000762939453 L 405.5124816894531 16.700000762939453 L 405.5124816894531 229.5 L 389.8374938964844 229.5 L 389.8374938964844 16.700000762939453" fill-opacity="1" clip-path="url(#cbQpoyJBOXfy)" stroke-opacity="1" stroke-linejoin="bevel" stroke-miterlimit="10" stroke-dasharray=""/><path fill="rgb(31,119,180)" stroke="rgb(31,119,180)" paint-order="fill" d="M 421.1875 27.899999618530273 L 436.86248779296875 27.899999618530273 L 436.86248779296875 229.5 L 421.1875 229.5 L 421.1875 27.899999618530273" fill-opacity="1" clip-path="url(#cbQpoyJBOXfy)" stroke-opacity="1" stroke-linejoin="bevel" stroke-miterlimit="10" stroke-dasharray=""/><path fill="rgb(31,119,180)" stroke="rgb(31,119,180)" paint-order="fill" d="M 452.5375061035156 173.5 L 468.2124938964844 173.5 L 468.2124938964844 229.5 L 452.5375061035156 229.5 L 452.5375061035156 173.5" fill-opacity="1" clip-path="url(#cbQpoyJBOXfy)" stroke-opacity="1" stroke-linejoin="bevel" stroke-miterlimit="10" stroke-dasharray=""/><path fill="rgb(31,119,180)" stroke="rgb(31,119,180)" paint-order="fill" d="M 483.88751220703125 95.0999984741211 L 499.5625 95.0999984741211 L 499.5625 229.5 L 483.88751220703125 229.5 L 483.88751220703125 95.0999984741211" fill-opacity="1" clip-path="url(#cbQpoyJBOXfy)" stroke-opacity="1" stroke-linejoin="bevel" stroke-miterlimit="10" stroke-dasharray=""/><path fill="rgb(31,119,180)" stroke="rgb(31,119,180)" paint-order="fill" d="M 515.2374877929688 117.5 L 530.9125366210938 117.5 L 530.9125366210938 229.5 L 515.2374877929688 229.5 L 515.2374877929688 117.5" fill-opacity="1" clip-path="url(#cbQpoyJBOXfy)" stroke-opacity="1" stroke-linejoin="bevel" stroke-miterlimit="10" stroke-dasharray=""/><path fill="rgb(31,119,180)" stroke="rgb(31,119,180)" paint-order="fill" d="M 546.5874633789062 128.6999969482422 L 562.2625122070312 128.6999969482422 L 562.2625122070312 229.5 L 546.5874633789062 229.5 L 546.5874633789062 128.6999969482422" fill-opacity="1" clip-path="url(#cbQpoyJBOXfy)" stroke-opacity="1" stroke-linejoin="bevel" stroke-miterlimit="10" stroke-dasharray=""/><path fill="rgb(31,119,180)" stroke="rgb(31,119,180)" paint-order="fill" d="M 577.9375 61.5 L 593.612548828125 61.5 L 593.612548828125 229.5 L 577.9375 229.5 L 577.9375 61.5" fill-opacity="1" clip-path="url(#cbQpoyJBOXfy)" stroke-opacity="1" stroke-linejoin="bevel" stroke-miterlimit="10" stroke-dasharray=""/><path fill="rgb(31,119,180)" stroke="rgb(31,119,180)" paint-order="fill" d="M 609.2874755859375 218.3000030517578 L 624.9625244140625 218.3000030517578 L 624.9625244140625 229.5 L 609.2874755859375 229.5 L 609.2874755859375 218.3000030517578" fill-opacity="1" clip-path="url(#cbQpoyJBOXfy)" stroke-opacity="1" stroke-linejoin="bevel" stroke-miterlimit="10" stroke-dasharray=""/><path fill="rgb(31,119,180)" stroke="rgb(31,119,180)" paint-order="fill" d="M 640.637451171875 117.5 L 656.3125 117.5 L 656.3125 229.5 L 640.637451171875 229.5 L 640.637451171875 117.5" fill-opacity="1" clip-path="url(#cbQpoyJBOXfy)" stroke-opacity="1" stroke-linejoin="bevel" stroke-miterlimit="10" stroke-dasharray=""/><path fill="rgb(31,119,180)" stroke="rgb(31,119,180)" paint-order="fill" d="M 671.9874877929688 39.099998474121094 L 687.6625366210938 39.099998474121094 L 687.6625366210938 229.5 L 671.9874877929688 229.5 L 671.9874877929688 39.099998474121094" fill-opacity="1" clip-path="url(#cbQpoyJBOXfy)" stroke-opacity="1" stroke-linejoin="bevel" stroke-miterlimit="10" stroke-dasharray=""/><path fill="none" stroke="rgb(0,0,0)" paint-order="fill" d="M 68.5 229.5 L 695.5 229.5" stroke-opacity="1" stroke-linejoin="bevel" stroke-miterlimit="10" stroke-dasharray=""/><path fill="none" stroke="rgb(0,0,0)" paint-order="fill" d="M 84.5 235.5 L 84.5 227.5 M 115.5 235.5 L 115.5 227.5 M 146.5 235.5 L 146.5 227.5 M 178.5 235.5 L 178.5 227.5 M 209.5 235.5 L 209.5 227.5 M 240.5 235.5 L 240.5 227.5 M 272.5 235.5 L 272.5 227.5 M 303.5 235.5 L 303.5 227.5 M 334.5 235.5 L 334.5 227.5 M 366.5 235.5 L 366.5 227.5 M 397.5 235.5 L 397.5 227.5 M 429.5 235.5 L 429.5 227.5 M 460.5 235.5 L 460.5 227.5 M 491.5 235.5 L 491.5 227.5 M 523.5 235.5 L 523.5 227.5 M 554.5 235.5 L 554.5 227.5 M 585.5 235.5 L 585.5 227.5 M 617.5 235.5 L 617.5 227.5 M 648.5 235.5 L 648.5 227.5 M 679.5 235.5 L 679.5 227.5" stroke-opacity="1" stroke-linejoin="bevel" stroke-miterlimit="10" stroke-dasharray=""/><path fill="none" stroke="rgb(0,0,0)" paint-order="fill" d="" stroke-opacity="1" stroke-linejoin="bevel" stroke-miterlimit="10" stroke-dasharray=""/><text fill="rgb(68,68,68)" stroke="none" font-family="helvetica" font-size="13px" font-style="normal" font-weight="normal" text-decoration="normal" x="64.88594055175781" y="244.5" text-anchor="start" dominant-baseline="alphabetic" transform="matrix(0.3623577544766736, -0.9320390859672263, 0.9320390859672263, 0.3623577544766736, -169.8346637920403, 231.52251228826356)" fill-opacity="1">Ala</text><text fill="rgb(68,68,68)" stroke="none" font-family="helvetica" font-size="13px" font-style="normal" font-weight="normal" text-decoration="normal" x="94.7950210571289" y="244.5" text-anchor="start" dominant-baseline="alphabetic" transform="matrix(0.3623577544766736, -0.9320390859672263, 0.9320390859672263, 0.3623577544766736, -149.84458036784883, 260.7419362111573)" fill-opacity="1">Arg</text><text fill="rgb(68,68,68)" stroke="none" font-family="helvetica" font-size="13px" font-style="normal" font-weight="normal" text-decoration="normal" x="123.97412109375" y="244.5" text-anchor="start" dominant-baseline="alphabetic" transform="matrix(0.3623577544766736, -0.9320390859672263, 0.9320390859672263, 0.3623577544766736, -129.8544969436574, 289.96136013405106)" fill-opacity="1">Asn</text><text fill="rgb(68,68,68)" stroke="none" font-family="helvetica" font-size="13px" font-style="normal" font-weight="normal" text-decoration="normal" x="155.32412719726562" y="244.5" text-anchor="start" dominant-baseline="alphabetic" transform="matrix(0.3623577544766736, -0.9320390859672263, 0.9320390859672263, 0.3623577544766736, -109.8644086546417, 319.1807911678387)" fill-opacity="1">Asp</text><text fill="rgb(68,68,68)" stroke="none" font-family="helvetica" font-size="13px" font-style="normal" font-weight="normal" text-decoration="normal" x="186.6868133544922" y="244.5" text-anchor="start" dominant-baseline="alphabetic" transform="matrix(0.3623577544766736, -0.9320390859672263, 0.9320390859672263, 0.3623577544766736, -89.87433009527456, 348.4002079798386)" fill-opacity="1">Cys</text><text fill="rgb(68,68,68)" stroke="none" font-family="helvetica" font-size="13px" font-style="normal" font-weight="normal" text-decoration="normal" x="220.1950225830078" y="244.5" text-anchor="start" dominant-baseline="alphabetic" transform="matrix(0.3623577544766736, -0.9320390859672263, 0.9320390859672263, 0.3623577544766736, -69.88424180625884, 377.6196390136263)" fill-opacity="1">Gln</text><text fill="rgb(68,68,68)" stroke="none" font-family="helvetica" font-size="13px" font-style="normal" font-weight="normal" text-decoration="normal" x="251.54501342773438" y="244.5" text-anchor="start" dominant-baseline="alphabetic" transform="matrix(0.3623577544766736, -0.9320390859672263, 0.9320390859672263, 0.3623577544766736, -49.89416324689171, 406.83905582562613)" fill-opacity="1">Glu</text><text fill="rgb(68,68,68)" stroke="none" font-family="helvetica" font-size="13px" font-style="normal" font-weight="normal" text-decoration="normal" x="283.625" y="244.5" text-anchor="start" dominant-baseline="alphabetic" transform="matrix(0.3623577544766736, -0.9320390859672263, 0.9320390859672263, 0.3623577544766736, -29.90407495787599, 436.0584868594138)" fill-opacity="1">Gly</text><text fill="rgb(68,68,68)" stroke="none" font-family="helvetica" font-size="13px" font-style="normal" font-weight="normal" text-decoration="normal" x="315.6986389160156" y="244.5" text-anchor="start" dominant-baseline="alphabetic" transform="matrix(0.3623577544766736, -0.9320390859672263, 0.9320390859672263, 0.3623577544766736, -9.913986668860332, 465.27791789320145)" fill-opacity="1">His</text><text fill="rgb(68,68,68)" stroke="none" font-family="helvetica" font-size="13px" font-style="normal" font-weight="normal" text-decoration="normal" x="352.09503173828125" y="244.5" text-anchor="start" dominant-baseline="alphabetic" transform="matrix(0.3623577544766736, -0.9320390859672263, 0.9320390859672263, 0.3623577544766736, 10.076101620155384, 494.4973489269891)" fill-opacity="1">Ile</text><text fill="rgb(68,68,68)" stroke="none" font-family="helvetica" font-size="13px" font-style="normal" font-weight="normal" text-decoration="normal" x="375.48504638671875" y="244.5" text-anchor="start" dominant-baseline="alphabetic" transform="matrix(0.3623577544766736, -0.9320390859672263, 0.9320390859672263, 0.3623577544766736, 30.066170449873994, 523.7167515172011)" fill-opacity="1">Leu</text><text fill="rgb(68,68,68)" stroke="none" font-family="helvetica" font-size="13px" font-style="normal" font-weight="normal" text-decoration="normal" x="408.7774353027344" y="244.5" text-anchor="start" dominant-baseline="alphabetic" transform="matrix(0.3623577544766736, -0.9320390859672263, 0.9320390859672263, 0.3623577544766736, 50.05625873888971, 552.9361825509889)" fill-opacity="1">Lys</text><text fill="rgb(68,68,68)" stroke="none" font-family="helvetica" font-size="13px" font-style="normal" font-weight="normal" text-decoration="normal" x="438.2041015625" y="244.5" text-anchor="start" dominant-baseline="alphabetic" transform="matrix(0.3623577544766736, -0.9320390859672263, 0.9320390859672263, 0.3623577544766736, 70.04634702790543, 582.1556135847766)" fill-opacity="1">Met</text><text fill="rgb(68,68,68)" stroke="none" font-family="helvetica" font-size="13px" font-style="normal" font-weight="normal" text-decoration="normal" x="468.0941467285156" y="244.5" text-anchor="start" dominant-baseline="alphabetic" transform="matrix(0.3623577544766736, -0.9320390859672263, 0.9320390859672263, 0.3623577544766736, 90.03643531692109, 611.3750446185642)" fill-opacity="1">Phe</text><text fill="rgb(68,68,68)" stroke="none" font-family="helvetica" font-size="13px" font-style="normal" font-weight="normal" text-decoration="normal" x="502.34503173828125" y="244.5" text-anchor="start" dominant-baseline="alphabetic" transform="matrix(0.3623577544766736, -0.9320390859672263, 0.9320390859672263, 0.3623577544766736, 110.02652360593675, 640.5944756523518)" fill-opacity="1">Pro</text><text fill="rgb(68,68,68)" stroke="none" font-family="helvetica" font-size="13px" font-style="normal" font-weight="normal" text-decoration="normal" x="533.6950073242188" y="244.5" text-anchor="start" dominant-baseline="alphabetic" transform="matrix(0.3623577544766736, -0.9320390859672263, 0.9320390859672263, 0.3623577544766736, 130.0165924356554, 669.8138782425639)" fill-opacity="1">Ser</text><text fill="rgb(68,68,68)" stroke="none" font-family="helvetica" font-size="13px" font-style="normal" font-weight="normal" text-decoration="normal" x="565.7750244140625" y="244.5" text-anchor="start" dominant-baseline="alphabetic" transform="matrix(0.3623577544766736, -0.9320390859672263, 0.9320390859672263, 0.3623577544766736, 150.00670018396818, 699.0333377199272)" fill-opacity="1">Thr</text><text fill="rgb(68,68,68)" stroke="none" font-family="helvetica" font-size="13px" font-style="normal" font-weight="normal" text-decoration="normal" x="597.607421875" y="244.5" text-anchor="start" dominant-baseline="alphabetic" transform="matrix(0.3623577544766736, -0.9320390859672263, 0.9320390859672263, 0.3623577544766736, 169.99676901368684, 728.2527403101392)" fill-opacity="1">Trp</text><text fill="rgb(68,68,68)" stroke="none" font-family="helvetica" font-size="13px" font-style="normal" font-weight="normal" text-decoration="normal" x="629.9222412109375" y="244.5" text-anchor="start" dominant-baseline="alphabetic" transform="matrix(0.3623577544766736, -0.9320390859672263, 0.9320390859672263, 0.3623577544766736, 189.98683784340545, 757.4721429003513)" fill-opacity="1">Tyr</text><text fill="rgb(68,68,68)" stroke="none" font-family="helvetica" font-size="13px" font-style="normal" font-weight="normal" text-decoration="normal" x="661.5007934570312" y="244.5" text-anchor="start" dominant-baseline="alphabetic" transform="matrix(0.3623577544766736, -0.9320390859672263, 0.9320390859672263, 0.3623577544766736, 209.97694559171816, 786.6916023777146)" fill-opacity="1">Val</text><text fill="rgb(68,68,68)" stroke="none" font-family="helvetica" font-size="12pt" font-style="normal" font-weight="normal" text-decoration="normal" x="341.0390625" y="293.99423134666154" text-anchor="start" dominant-baseline="alphabetic" transform="matrix(1, 0, 0, 1, 0.5, 0.5)" fill-opacity="1">Amino Acid</text><path fill="none" stroke="rgb(0,0,0)" paint-order="fill" d="M 68.5 229.5 L 68.5 5.5" stroke-opacity="1" stroke-linejoin="bevel" stroke-miterlimit="10" stroke-dasharray=""/><path fill="none" stroke="rgb(0,0,0)" paint-order="fill" d="M 62.5 229.5 L 70.5 229.5 M 62.5 173.5 L 70.5 173.5 M 62.5 117.5 L 70.5 117.5 M 62.5 61.5 L 70.5 61.5 M 62.5 5.5 L 70.5 5.5" stroke-opacity="1" stroke-linejoin="bevel" stroke-miterlimit="10" stroke-dasharray=""/><path fill="none" stroke="rgb(0,0,0)" paint-order="fill" d="M 64.5 229.5 L 68.5 229.5 M 64.5 218.5 L 68.5 218.5 M 64.5 207.5 L 68.5 207.5 M 64.5 195.5 L 68.5 195.5 M 64.5 184.5 L 68.5 184.5 M 64.5 173.5 L 68.5 173.5 M 64.5 162.5 L 68.5 162.5 M 64.5 151.5 L 68.5 151.5 M 64.5 139.5 L 68.5 139.5 M 64.5 128.5 L 68.5 128.5 M 64.5 117.5 L 68.5 117.5 M 64.5 106.5 L 68.5 106.5 M 64.5 95.5 L 68.5 95.5 M 64.5 83.5 L 68.5 83.5 M 64.5 72.5 L 68.5 72.5 M 64.5 61.5 L 68.5 61.5 M 64.5 50.5 L 68.5 50.5 M 64.5 39.5 L 68.5 39.5 M 64.5 27.5 L 68.5 27.5 M 64.5 16.5 L 68.5 16.5 M 64.5 5.5 L 68.5 5.5" stroke-opacity="1" stroke-linejoin="bevel" stroke-miterlimit="10" stroke-dasharray=""/><text fill="rgb(68,68,68)" stroke="none" font-family="helvetica" font-size="13pt" font-style="normal" font-weight="normal" text-decoration="normal" x="47.36189270019531" y="235" text-anchor="start" dominant-baseline="alphabetic" transform="matrix(1, 0, 0, 1, 0.5, 0.5)" fill-opacity="1">0</text><text fill="rgb(68,68,68)" stroke="none" font-family="helvetica" font-size="13pt" font-style="normal" font-weight="normal" text-decoration="normal" x="47.36189270019531" y="179" text-anchor="start" dominant-baseline="alphabetic" transform="matrix(1, 0, 0, 1, 0.5, 0.5)" fill-opacity="1">5</text><text fill="rgb(68,68,68)" stroke="none" font-family="helvetica" font-size="13pt" font-style="normal" font-weight="normal" text-decoration="normal" x="37.723785400390625" y="123" text-anchor="start" dominant-baseline="alphabetic" transform="matrix(1, 0, 0, 1, 0.5, 0.5)" fill-opacity="1">10</text><text fill="rgb(68,68,68)" stroke="none" font-family="helvetica" font-size="13pt" font-style="normal" font-weight="normal" text-decoration="normal" x="37.723785400390625" y="67" text-anchor="start" dominant-baseline="alphabetic" transform="matrix(1, 0, 0, 1, 0.5, 0.5)" fill-opacity="1">15</text><text fill="rgb(68,68,68)" stroke="none" font-family="helvetica" font-size="13pt" font-style="normal" font-weight="normal" text-decoration="normal" x="37.723785400390625" y="12" text-anchor="start" dominant-baseline="alphabetic" transform="matrix(1, 0, 0, 1, 0.5, 0.5)" fill-opacity="1">20</text><text fill="rgb(68,68,68)" stroke="none" font-family="helvetica" font-size="15pt" font-style="normal" font-weight="normal" text-decoration="normal" x="-1.960784912109375" y="113" text-anchor="start" dominant-baseline="alphabetic" transform="matrix(6.123233995736766e-17, -1, 1, 6.123233995736766e-17, -91.77621459960938, 142.22378540039062)" fill-opacity="1">Count</text></svg>