<svg version="1.1" xmlns="http://www.w3.org/2000/svg" width="400" height="300"><defs><clipPath id="PpToHbQkLlXA"><path fill="none" stroke="none" d="M 74.5 5.5 L 370.5 5.5 L 370.5 233.5 L 74.5 233.5 L 74.5 5.5"/></clipPath><clipPath id="gzrzANKpuTQT"><path fill="none" stroke="none" d="M 74.5 5.5 L 370.5 5.5 L 370.5 233.5 L 74.5 233.5 L 74.5 5.5"/></clipPath><clipPath id="IFoQFBfOUQaC"><path fill="none" stroke="none" d="M 74.5 5.5 L 370.5 5.5 L 370.5 233.5 L 74.5 233.5 L 74.5 5.5"/></clipPath><clipPath id="fcXJfTDRONiT"><path fill="none" stroke="none" d="M 74.5 5.5 L 370.5 5.5 L 370.5 233.5 L 74.5 233.5 L 74.5 5.5"/></clipPath><clipPath id="LIxfnoTdNEaa"><path fill="none" stroke="none" d="M 74.5 5.5 L 370.5 5.5 L 370.5 233.5 L 74.5 233.5 L 74.5 5.5"/></clipPath><clipPath id="PPHLpZqivaXZ"><path fill="none" stroke="none" d="M 74.5 5.5 L 370.5 5.5 L 370.5 233.5 L 74.5 233.5 L 74.5 5.5"/></clipPath><clipPath id="eGUVJTTAgGSp"><path fill="none" stroke="none" d="M 74.5 5.5 L 370.5 5.5 L 370.5 233.5 L 74.5 233.5 L 74.5 5.5"/></clipPath><clipPath id="qTuZxPVUwaaJ"><path fill="none" stroke="none" d="M 74.5 5.5 L 370.5 5.5 L 370.5 233.5 L 74.5 233.5 L 74.5 5.5"/></clipPath><clipPath id="hSZUVVtxxolv"><path fill="none" stroke="none" d="M 74.5 5.5 L 370.5 5.5 L 370.5 233.5 L 74.5 233.5 L 74.5 5.5"/></clipPath><clipPath id="ZKkHLnvZhTQp"><path fill="none" stroke="none" d="M 74.5 5.5 L 370.5 5.5 L 370.5 233.5 L 74.5 233.5 L 74.5 5.5"/></clipPath></defs><path fill="rgb(255,255,255)" stroke="none" paint-order="stroke" d="M 0.5 0.5 L 400.5 0.5 L 400.5 300.5 L 0.5 300.5 L 0.5 0.5" fill-opacity="1"/><rect fill="#FFFFFF" stroke="none" x="74" y="5" width="296" height="228" transform="matrix(1, 0, 0, 1, 0.5, 0.5)"/><path fill="rgb(255,255,255)" stroke="none" paint-order="stroke" d="M 74.5 5.5 L 370.5 5.5 L 370.5 233.5 L 74.5 233.5 L 74.5 5.5" fill-opacity="1"/><path fill="none" stroke="rgb(255,0,255)" paint-order="fill" d="M 74.5 233.5 L 75.4891357421875 232.8353729248047 L 76.47827911376953 232.158203125 L 77.46741485595703 231.48231506347656 L 78.45655822753906 230.80775451660156 L 79.44569396972656 230.13458251953125 L 80.4348373413086 229.46282958984375 L 81.4239730834961 228.7925567626953 L 82.41311645507812 228.12384033203125 L 83.40225219726562 227.45672607421875 L 84.39139556884766 226.79127502441406 L 85.38053131103516 226.12759399414062 L 86.36967468261719 225.46571350097656 L 87.35881042480469 224.80575561523438 L 88.34795379638672 224.1477813720703 L 89.33708953857422 223.49191284179688 L 90.32623291015625 222.83824157714844 L 91.31536865234375 222.18687438964844 L 92.30451202392578 221.5379638671875 L 93.29364776611328 220.89161682128906 L 94.28279113769531 220.2480010986328 L 95.27192687988281 219.60728454589844 L 96.26107025146484 218.96963500976562 L 97.25020599365234 218.33526611328125 L 98.23934936523438 217.7043914794922 L 99.22848510742188 217.07725524902344 L 100.2176284790039 216.45416259765625 L 101.2067642211914 215.8354034423828 L 102.19590759277344 215.2213592529297 L 103.18504333496094 214.61241149902344 L 104.17418670654297 214.009033203125 L 105.16332244873047 213.4117431640625 L 106.1524658203125 212.82118225097656 L 107.1416015625 212.238037109375 L 108.13074493408203 211.66314697265625 L 109.11988067626953 211.09750366210938 L 110.10902404785156 210.542236328125 L 111.09815979003906 209.99874877929688 L 112.0873031616211 209.4686737060547 L 113.0764389038086 208.9539794921875 L 114.06558227539062 208.45704650878906 L 115.05471801757812 207.98074340820312 L 116.04386138916016 207.52845764160156 L 117.03299713134766 207.10421752929688 L 118.02214050292969 206.71263122558594 L 119.01127624511719 206.358642578125 L 120.00041961669922 206.0471954345703 L 120.98955535888672 205.78231811523438 L 121.97869873046875 205.56610107421875 L 122.96783447265625 205.3975830078125 L 123.95697784423828 205.27244567871094 L 124.94611358642578 205.1836700439453 L 125.93525695800781 205.12313842773438 L 126.92439270019531 205.08314514160156 L 127.91353607177734 205.0573272705078 L 128.90267944335938 205.04090881347656 L 129.89181518554688 205.0305938720703 L 130.88095092773438 205.024169921875 L 131.87008666992188 205.02015686035156 L 132.85923767089844 205.01768493652344 L 133.84837341308594 205.01614379882812 L 134.83750915527344 205.01519775390625 L 135.82664489746094 205.0146026611328 L 136.8157958984375 205.01425170898438 L 137.804931640625 205.01402282714844 L 138.7940673828125 205.01388549804688 L 139.783203125 205.01380920410156 L 140.77235412597656 205.0137481689453 L 141.76148986816406 205.0137176513672 L 142.75062561035156 205.01370239257812 L 143.73976135253906 205.01368713378906 L 144.72891235351562 205.013671875 L 145.71804809570312 205.013671875 L 146.70718383789062 205.013671875 L 147.69631958007812 205.013671875 L 148.6854705810547 205.013671875 L 149.6746063232422 205.013671875 L 150.6637420654297 205.013671875 L 151.6528778076172 205.013671875 L 152.64202880859375 205.013671875 L 153.63116455078125 205.013671875 L 154.62030029296875 205.013671875 L 155.60943603515625 205.013671875 L 156.5985870361328 205.013671875 L 157.5877227783203 205.013671875 L 158.5768585205078 205.013671875 L 159.5659942626953 205.013671875 L 160.55514526367188 205.013671875 L 161.54428100585938 205.013671875 L 162.53341674804688 205.013671875 L 163.52255249023438 205.013671875 L 164.51170349121094 205.013671875 L 165.50083923339844 205.013671875 L 166.48997497558594 205.013671875 L 167.47911071777344 205.013671875 L 168.46824645996094 205.013671875 L 169.4573974609375 205.013671875 L 170.446533203125 205.013671875 L 171.4356689453125 205.013671875 L 172.4248046875 205.013671875 L 173.41395568847656 205.013671875 L 174.40309143066406 205.013671875 L 175.39222717285156 205.013671875 L 176.38136291503906 205.013671875 L 177.37051391601562 205.013671875 L 178.35964965820312 205.013671875 L 179.34878540039062 205.013671875 L 180.33792114257812 205.013671875 L 181.3270721435547 205.013671875 L 182.3162078857422 205.013671875 L 183.3053436279297 205.013671875 L 184.2944793701172 205.013671875 L 185.28363037109375 205.013671875 L 186.27276611328125 205.013671875 L 187.26190185546875 205.013671875 L 188.25103759765625 205.013671875 L 189.2401885986328 205.013671875 L 190.2293243408203 205.013671875 L 191.2184600830078 205.013671875 L 192.2075958251953 205.013671875 L 193.19674682617188 205.013671875 L 194.18588256835938 205.013671875 L 195.17501831054688 205.013671875 L 196.16415405273438 205.013671875 L 197.15330505371094 205.013671875 L 198.14244079589844 205.013671875 L 199.13157653808594 205.013671875 L 200.12071228027344 205.013671875 L 201.10986328125 205.013671875 L 202.0989990234375 205.013671875 L 203.088134765625 205.013671875 L 204.0772705078125 205.013671875 L 205.06642150878906 205.013671875 L 206.05555725097656 205.013671875 L 207.04469299316406 205.013671875 L 208.03382873535156 205.013671875 L 209.02297973632812 205.013671875 L 210.01211547851562 205.013671875 L 211.00125122070312 205.013671875 L 211.99038696289062 205.013671875 L 212.9795379638672 205.013671875 L 213.9686737060547 205.013671875 L 214.9578094482422 205.013671875 L 215.9469451904297 205.013671875 L 216.93609619140625 205.013671875 L 217.92523193359375 205.013671875 L 218.91436767578125 205.013671875 L 219.90350341796875 205.013671875 L 220.8926544189453 205.013671875 L 221.8817901611328 205.013671875 L 222.8709259033203 205.013671875 L 223.8600616455078 205.013671875 L 224.84921264648438 205.013671875 L 225.83834838867188 205.013671875 L 226.82748413085938 205.013671875 L 227.81661987304688 205.013671875 L 228.80577087402344 205.013671875 L 229.79490661621094 205.013671875 L 230.78404235839844 205.013671875 L 231.77317810058594 205.013671875 L 232.7623291015625 205.013671875 L 233.75146484375 205.013671875 L 234.7406005859375 205.013671875 L 235.729736328125 205.013671875 L 236.71888732910156 205.013671875 L 237.70802307128906 205.013671875 L 238.69715881347656 205.013671875 L 239.68629455566406 205.013671875 L 240.67544555664062 205.013671875 L 241.66458129882812 205.013671875 L 242.65371704101562 205.013671875 L 243.64285278320312 205.013671875 L 244.6320037841797 205.013671875 L 245.6211395263672 205.013671875 L 246.6102752685547 205.013671875 L 247.5994110107422 205.013671875 L 248.58856201171875 205.013671875 L 249.57769775390625 205.013671875 L 250.56683349609375 205.013671875 L 251.55596923828125 205.013671875 L 252.5451202392578 205.013671875 L 253.5342559814453 205.013671875 L 254.5233917236328 205.013671875 L 255.5125274658203 205.013671875 L 256.5016784667969 205.013671875 L 257.4908142089844 205.013671875 L 258.4799499511719 205.013671875 L 259.4690856933594 205.013671875 L 260.4582214355469 205.013671875 L 261.4473571777344 205.013671875 L 262.4364929199219 205.013671875 L 263.4256591796875 205.013671875 L 264.414794921875 205.013671875 L 265.4039306640625 205.013671875 L 266.39306640625 205.013671875 L 267.3822021484375 205.013671875 L 268.371337890625 205.013671875 L 269.3604736328125 205.013671875 L 270.349609375 205.013671875 L 271.3387756347656 205.013671875 L 272.3279113769531 205.013671875 L 273.3170471191406 205.013671875 L 274.3061828613281 205.013671875 L 275.2953186035156 205.013671875 L 276.2844543457031 205.013671875 L 277.2735900878906 205.013671875 L 278.2627258300781 205.013671875 L 279.25189208984375 205.013671875 L 280.24102783203125 205.013671875 L 281.23016357421875 205.013671875 L 282.21929931640625 205.013671875 L 283.20843505859375 205.013671875 L 284.19757080078125 205.013671875 L 285.18670654296875 205.013671875 L 286.17584228515625 205.013671875 L 287.1650085449219 205.013671875 L 288.1541442871094 205.013671875 L 289.1432800292969 205.013671875 L 290.1324157714844 205.013671875 L 291.1215515136719 205.013671875 L 292.1106872558594 205.013671875 L 293.0998229980469 205.013671875 L 294.0889587402344 205.013671875 L 295.078125 205.013671875 L 296.0672607421875 205.013671875 L 297.056396484375 205.013671875 L 298.0455322265625 205.013671875 L 299.03466796875 205.013671875 L 300.0238037109375 205.013671875 L 301.012939453125 205.013671875 L 302.0020751953125 205.013671875 L 302.9912414550781 205.013671875 L 303.9803771972656 205.013671875 L 304.9695129394531 205.013671875 L 305.9586486816406 205.013671875 L 306.9477844238281 205.013671875 L 307.9369201660156 205.013671875 L 308.9260559082031 205.013671875 L 309.9151916503906 205.013671875 L 310.90435791015625 205.013671875 L 311.89349365234375 205.013671875 L 312.88262939453125 205.013671875 L 313.87176513671875 205.013671875 L 314.86090087890625 205.013671875 L 315.85003662109375 205.013671875 L 316.83917236328125 205.013671875 L 317.82830810546875 205.013671875 L 318.8174743652344 205.013671875 L 319.8066101074219 205.013671875 L 320.7957458496094 205.013671875 L 321.7848815917969 205.013671875 L 322.7740173339844 205.013671875 L 323.7631530761719 205.013671875 L 324.7522888183594 205.013671875 L 325.7414245605469 205.013671875 L 326.7305908203125 205.013671875 L 327.7197265625 205.013671875 L 328.7088623046875 205.013671875 L 329.697998046875 205.013671875 L 330.6871337890625 205.013671875 L 331.67626953125 205.013671875 L 332.6654052734375 205.013671875 L 333.654541015625 205.013671875 L 334.6437072753906 205.013671875 L 335.6328430175781 205.013671875 L 336.6219787597656 205.013671875 L 337.6111145019531 205.013671875 L 338.6002502441406 205.013671875 L 339.5893859863281 205.013671875 L 340.5785217285156 205.013671875 L 341.5676574707031 205.013671875 L 342.55682373046875 205.013671875 L 343.54595947265625 205.013671875 L 344.53509521484375 205.013671875 L 345.52423095703125 205.013671875 L 346.51336669921875 205.013671875 L 347.50250244140625 205.013671875 L 348.49163818359375 205.013671875 L 349.48077392578125 205.013671875 L 350.46990966796875 205.013671875 L 351.4590759277344 205.013671875 L 352.4482116699219 205.013671875 L 353.4373474121094 205.013671875 L 354.4264831542969 205.013671875 L 355.4156188964844 205.013671875 L 356.4047546386719 205.013671875 L 357.3938903808594 205.013671875 L 358.3830261230469 205.013671875 L 359.3721923828125 205.013671875 L 360.361328125 205.013671875 L 361.3504638671875 205.013671875 L 362.339599609375 205.013671875 L 363.3287353515625 205.013671875 L 364.31787109375 205.013671875 L 365.3070068359375 205.013671875 L 366.296142578125 205.013671875 L 367.2853088378906 205.013671875 L 368.2744445800781 205.013671875 L 369.2635803222656 205.013671875 L 370.2527160644531 205.013671875 L 371.2418518066406 205.013671875 L 372.2309875488281 205.013671875 L 373.2201232910156 205.013671875 L 374.2092590332031 205.013671875 L 375.19842529296875 205.013671875 L 376.18756103515625 205.013671875 L 377.17669677734375 205.013671875 L 378.16583251953125 205.013671875 L 379.15496826171875 205.013671875 L 380.14410400390625 205.013671875 L 381.13323974609375 205.013671875 L 382.12237548828125 205.013671875 L 383.1115417480469 205.013671875 L 384.1006774902344 205.013671875 L 385.0898132324219 205.013671875 L 386.0789489746094 205.013671875 L 387.0680847167969 205.013671875 L 388.0572204589844 205.013671875 L 389.0463562011719 205.013671875 L 390.0354919433594 205.013671875 L 391.024658203125 205.013671875 L 392.0137939453125 205.013671875 L 393.0029296875 205.013671875 L 393.9920654296875 205.013671875 L 394.981201171875 205.013671875 L 395.9703369140625 205.013671875 L 396.95947265625 205.013671875 L 397.9486083984375 205.013671875 L 398.9377746582031 205.013671875 L 399.9269104003906 205.013671875 L 400.9160461425781 205.013671875 L 401.9051818847656 205.013671875 L 402.8943176269531 205.013671875 L 403.8834533691406 205.013671875 L 404.8725891113281 205.013671875 L 405.8617248535156 205.013671875 L 406.85089111328125 205.013671875 L 407.84002685546875 205.013671875 L 408.82916259765625 205.013671875 L 409.81829833984375 205.013671875 L 410.80743408203125 205.013671875 L 411.79656982421875 205.013671875 L 412.78570556640625 205.013671875 L 413.77484130859375 205.013671875 L 414.7640075683594 205.013671875 L 415.7531433105469 205.013671875 L 416.7422790527344 205.013671875 L 417.7314147949219 205.013671875 L 418.7205505371094 205.013671875 L 419.7096862792969 205.013671875 L 420.6988220214844 205.013671875 L 421.6879577636719 205.013671875 L 422.6771240234375 205.013671875 L 423.666259765625 205.013671875 L 424.6553955078125 205.013671875 L 425.64453125 205.013671875 L 426.6336669921875 205.013671875 L 427.622802734375 205.013671875 L 428.6119384765625 205.013671875 L 429.60107421875 205.013671875 L 430.5902404785156 205.013671875 L 431.5793762207031 205.013671875 L 432.5685119628906 205.013671875 L 433.5576477050781 205.013671875 L 434.5467834472656 205.013671875 L 435.5359191894531 205.013671875 L 436.5250549316406 205.013671875 L 437.5141906738281 205.013671875 L 438.50335693359375 205.013671875 L 439.49249267578125 205.013671875 L 440.48162841796875 205.013671875 L 441.47076416015625 205.013671875 L 442.45989990234375 205.013671875 L 443.44903564453125 205.013671875 L 444.43817138671875 205.013671875 L 445.42730712890625 205.013671875 L 446.41644287109375 205.013671875 L 447.4056091308594 205.013671875 L 448.3947448730469 205.013671875 L 449.3838806152344 205.013671875 L 450.3730163574219 205.013671875 L 451.3621520996094 205.013671875 L 452.3512878417969 205.013671875 L 453.3404235839844 205.013671875 L 454.3295593261719 205.013671875 L 455.3187255859375 205.013671875 L 456.307861328125 205.013671875 L 457.2969970703125 205.013671875 L 458.2861328125 205.013671875 L 459.2752685546875 205.013671875 L 460.264404296875 205.013671875 L 461.2535400390625 205.013671875 L 462.24267578125 205.013671875 L 463.2318420410156 205.013671875 L 464.2209777832031 205.013671875 L 465.2101135253906 205.013671875 L 466.1992492675781 205.013671875 L 467.1883850097656 205.013671875 L 468.1775207519531 205.013671875 L 469.1666564941406 205.013671875" stroke-opacity="0.8" stroke-linejoin="bevel" stroke-miterlimit="10" stroke-width="3" stroke-dasharray="" clip-path="url(#IFoQFBfOUQaC)"/><path fill="none" stroke="rgb(1,100,80)" paint-order="fill" d="M 74.5 233.5 L 75.4891357421875 232.8353729248047 L 76.47827911376953 232.158203125 L 77.46741485595703 231.48231506347656 L 78.45655822753906 230.80775451660156 L 79.44569396972656 230.13458251953125 L 80.4348373413086 229.46282958984375 L 81.4239730834961 228.7925567626953 L 82.41311645507812 228.12384033203125 L 83.40225219726562 227.45672607421875 L 84.39139556884766 226.79127502441406 L 85.38053131103516 226.12759399414062 L 86.36967468261719 225.46571350097656 L 87.35881042480469 224.80575561523438 L 88.34795379638672 224.1477813720703 L 89.33708953857422 223.49191284179688 L 90.32623291015625 222.83824157714844 L 91.31536865234375 222.18687438964844 L 92.30451202392578 221.5379638671875 L 93.29364776611328 220.89161682128906 L 94.28279113769531 220.2480010986328 L 95.27192687988281 219.60728454589844 L 96.26107025146484 218.96963500976562 L 97.25020599365234 218.33526611328125 L 98.23934936523438 217.7043914794922 L 99.22848510742188 217.07725524902344 L 100.2176284790039 216.45416259765625 L 101.2067642211914 215.8354034423828 L 102.19590759277344 215.2213592529297 L 103.18504333496094 214.61241149902344 L 104.17418670654297 214.009033203125 L 105.16332244873047 213.4117431640625 L 106.1524658203125 212.82118225097656 L 107.1416015625 212.238037109375 L 108.13074493408203 211.66314697265625 L 109.11988067626953 211.09750366210938 L 110.10902404785156 210.542236328125 L 111.09815979003906 209.99874877929688 L 112.0873031616211 209.4686737060547 L 113.0764389038086 208.9539794921875 L 114.06558227539062 208.45704650878906 L 115.05471801757812 207.98074340820312 L 116.04386138916016 207.52845764160156 L 117.03299713134766 207.10421752929688 L 118.02214050292969 206.71263122558594 L 119.01127624511719 206.358642578125 L 120.00041961669922 206.0471954345703 L 120.98955535888672 205.78231811523438 L 121.97869873046875 205.56610107421875 L 122.96783447265625 205.3975830078125 L 123.95697784423828 205.27244567871094 L 124.94611358642578 205.1836700439453 L 125.93525695800781 205.12313842773438 L 126.92439270019531 205.08314514160156 L 127.91353607177734 205.0573272705078 L 128.90267944335938 205.04090881347656 L 129.89181518554688 205.0305938720703 L 130.88095092773438 205.02415466308594 L 131.87008666992188 205.02015686035156 L 132.85923767089844 205.01768493652344 L 133.84837341308594 205.01614379882812 L 134.83750915527344 205.01519775390625 L 135.82664489746094 205.01461791992188 L 136.8157958984375 205.01425170898438 L 137.804931640625 205.01402282714844 L 138.7940673828125 205.01388549804688 L 139.783203125 205.01380920410156 L 140.77235412597656 205.0137481689453 L 141.76148986816406 205.0137176513672 L 142.75062561035156 205.01370239257812 L 143.73976135253906 205.01368713378906 L 144.72891235351562 205.013671875 L 145.71804809570312 205.013671875 L 146.70718383789062 205.013671875 L 147.69631958007812 205.013671875 L 148.6854705810547 205.013671875 L 149.6746063232422 205.013671875 L 150.6637420654297 205.013671875 L 151.6528778076172 205.013671875 L 152.64202880859375 205.013671875 L 153.63116455078125 205.013671875 L 154.62030029296875 205.013671875 L 155.60943603515625 205.013671875 L 156.5985870361328 205.013671875 L 157.5877227783203 205.013671875 L 158.5768585205078 205.013671875 L 159.5659942626953 205.013671875 L 160.55514526367188 205.013671875 L 161.54428100585938 205.013671875 L 162.53341674804688 205.013671875 L 163.52255249023438 205.013671875 L 164.51170349121094 205.013671875 L 165.50083923339844 205.013671875 L 166.48997497558594 205.013671875 L 167.47911071777344 205.013671875 L 168.46824645996094 205.013671875 L 169.4573974609375 205.013671875 L 170.446533203125 205.013671875 L 171.4356689453125 205.013671875 L 172.4248046875 205.013671875 L 173.41395568847656 205.013671875 L 174.40309143066406 205.013671875 L 175.39222717285156 205.013671875 L 176.38136291503906 205.013671875 L 177.37051391601562 205.013671875 L 178.35964965820312 205.013671875 L 179.34878540039062 205.013671875 L 180.33792114257812 205.013671875 L 181.3270721435547 205.013671875 L 182.3162078857422 205.013671875 L 183.3053436279297 205.013671875 L 184.2944793701172 205.013671875 L 185.28363037109375 205.013671875 L 186.27276611328125 205.013671875 L 187.26190185546875 205.013671875 L 188.25103759765625 205.013671875 L 189.2401885986328 205.013671875 L 190.2293243408203 205.013671875 L 191.2184600830078 205.013671875 L 192.2075958251953 205.013671875 L 193.19674682617188 205.013671875 L 194.18588256835938 205.013671875 L 195.17501831054688 205.013671875 L 196.16415405273438 205.013671875 L 197.15330505371094 205.013671875 L 198.14244079589844 205.013671875 L 199.13157653808594 205.013671875 L 200.12071228027344 205.013671875 L 201.10986328125 205.013671875 L 202.0989990234375 205.013671875 L 203.088134765625 205.013671875 L 204.0772705078125 205.013671875 L 205.06642150878906 205.013671875 L 206.05555725097656 205.013671875 L 207.04469299316406 205.013671875 L 208.03382873535156 205.013671875 L 209.02297973632812 205.013671875 L 210.01211547851562 205.013671875 L 211.00125122070312 205.013671875 L 211.99038696289062 205.013671875 L 212.9795379638672 205.013671875 L 213.9686737060547 205.013671875 L 214.9578094482422 205.013671875 L 215.9469451904297 205.013671875 L 216.93609619140625 205.013671875 L 217.92523193359375 205.013671875 L 218.91436767578125 205.013671875 L 219.90350341796875 205.013671875 L 220.8926544189453 205.013671875 L 221.8817901611328 205.013671875 L 222.8709259033203 205.013671875 L 223.8600616455078 205.013671875 L 224.84921264648438 205.013671875 L 225.83834838867188 205.013671875 L 226.82748413085938 205.013671875 L 227.81661987304688 205.013671875 L 228.80577087402344 205.013671875 L 229.79490661621094 205.013671875 L 230.78404235839844 205.013671875 L 231.77317810058594 205.013671875 L 232.7623291015625 205.013671875 L 233.75146484375 205.013671875 L 234.7406005859375 205.013671875 L 235.729736328125 205.013671875 L 236.71888732910156 205.013671875 L 237.70802307128906 205.013671875 L 238.69715881347656 205.013671875 L 239.68629455566406 205.013671875 L 240.67544555664062 205.013671875 L 241.66458129882812 205.013671875 L 242.65371704101562 205.013671875 L 243.64285278320312 205.013671875 L 244.6320037841797 205.013671875 L 245.6211395263672 205.013671875 L 246.6102752685547 205.013671875 L 247.5994110107422 205.013671875 L 248.58856201171875 205.013671875 L 249.57769775390625 205.013671875 L 250.56683349609375 205.013671875 L 251.55596923828125 205.013671875 L 252.5451202392578 205.013671875 L 253.5342559814453 205.013671875 L 254.5233917236328 205.013671875 L 255.5125274658203 205.013671875 L 256.5016784667969 205.013671875 L 257.4908142089844 205.013671875 L 258.4799499511719 205.013671875 L 259.4690856933594 205.013671875 L 260.4582214355469 205.013671875 L 261.4473571777344 205.013671875 L 262.4364929199219 205.013671875 L 263.4256591796875 205.013671875 L 264.414794921875 205.013671875 L 265.4039306640625 205.013671875 L 266.39306640625 205.013671875 L 267.3822021484375 205.013671875 L 268.371337890625 205.013671875 L 269.3604736328125 205.013671875 L 270.349609375 205.013671875 L 271.3387756347656 205.013671875 L 272.3279113769531 205.013671875 L 273.3170471191406 205.013671875 L 274.3061828613281 205.013671875 L 275.2953186035156 205.013671875 L 276.2844543457031 205.013671875 L 277.2735900878906 205.013671875 L 278.2627258300781 205.013671875 L 279.25189208984375 205.013671875 L 280.24102783203125 205.013671875 L 281.23016357421875 205.013671875 L 282.21929931640625 205.013671875 L 283.20843505859375 205.013671875 L 284.19757080078125 205.013671875 L 285.18670654296875 205.013671875 L 286.17584228515625 205.013671875 L 287.1650085449219 205.013671875 L 288.1541442871094 205.013671875 L 289.1432800292969 205.013671875 L 290.1324157714844 205.013671875 L 291.1215515136719 205.013671875 L 292.1106872558594 205.013671875 L 293.0998229980469 205.013671875 L 294.0889587402344 205.013671875 L 295.078125 205.013671875 L 296.0672607421875 205.013671875 L 297.056396484375 205.013671875 L 298.0455322265625 205.013671875 L 299.03466796875 205.013671875 L 300.0238037109375 205.013671875 L 301.012939453125 205.013671875 L 302.0020751953125 205.013671875 L 302.9912414550781 205.013671875 L 303.9803771972656 205.013671875 L 304.9695129394531 205.013671875 L 305.9586486816406 205.013671875 L 306.9477844238281 205.013671875 L 307.9369201660156 205.013671875 L 308.9260559082031 205.013671875 L 309.9151916503906 205.013671875 L 310.90435791015625 205.013671875 L 311.89349365234375 205.013671875 L 312.88262939453125 205.013671875 L 313.87176513671875 205.013671875 L 314.86090087890625 205.013671875 L 315.85003662109375 205.013671875 L 316.83917236328125 205.013671875 L 317.82830810546875 205.013671875 L 318.8174743652344 205.013671875 L 319.8066101074219 205.013671875 L 320.7957458496094 205.013671875 L 321.7848815917969 205.013671875 L 322.7740173339844 205.013671875 L 323.7631530761719 205.013671875 L 324.7522888183594 205.013671875 L 325.7414245605469 205.013671875 L 326.7305908203125 205.013671875 L 327.7197265625 205.013671875 L 328.7088623046875 205.013671875 L 329.697998046875 205.013671875 L 330.6871337890625 205.013671875 L 331.67626953125 205.013671875 L 332.6654052734375 205.013671875 L 333.654541015625 205.013671875 L 334.6437072753906 205.013671875 L 335.6328430175781 205.013671875 L 336.6219787597656 205.013671875 L 337.6111145019531 205.013671875 L 338.6002502441406 205.013671875 L 339.5893859863281 205.013671875 L 340.5785217285156 205.013671875 L 341.5676574707031 205.013671875 L 342.55682373046875 205.013671875 L 343.54595947265625 205.013671875 L 344.53509521484375 205.013671875 L 345.52423095703125 205.013671875 L 346.51336669921875 205.013671875 L 347.50250244140625 205.013671875 L 348.49163818359375 205.013671875 L 349.48077392578125 205.013671875 L 350.46990966796875 205.013671875 L 351.4590759277344 205.013671875 L 352.4482116699219 205.013671875 L 353.4373474121094 205.013671875 L 354.4264831542969 205.013671875 L 355.4156188964844 205.013671875 L 356.4047546386719 205.013671875 L 357.3938903808594 205.013671875 L 358.3830261230469 205.013671875 L 359.3721923828125 205.013671875 L 360.361328125 205.013671875 L 361.3504638671875 205.013671875 L 362.339599609375 205.013671875 L 363.3287353515625 205.013671875 L 364.31787109375 205.013671875 L 365.3070068359375 205.013671875 L 366.296142578125 205.013671875 L 367.2853088378906 205.013671875 L 368.2744445800781 205.013671875 L 369.2635803222656 205.013671875 L 370.2527160644531 205.013671875 L 371.2418518066406 205.013671875 L 372.2309875488281 205.013671875 L 373.2201232910156 205.013671875 L 374.2092590332031 205.013671875 L 375.19842529296875 205.013671875 L 376.18756103515625 205.013671875 L 377.17669677734375 205.013671875 L 378.16583251953125 205.013671875 L 379.15496826171875 205.013671875 L 380.14410400390625 205.013671875 L 381.13323974609375 205.013671875 L 382.12237548828125 205.013671875 L 383.1115417480469 205.013671875 L 384.1006774902344 205.013671875 L 385.0898132324219 205.013671875 L 386.0789489746094 205.013671875 L 387.0680847167969 205.013671875 L 388.0572204589844 205.013671875 L 389.0463562011719 205.013671875 L 390.0354919433594 205.013671875 L 391.024658203125 205.013671875 L 392.0137939453125 205.013671875 L 393.0029296875 205.013671875 L 393.9920654296875 205.013671875 L 394.981201171875 205.013671875 L 395.9703369140625 205.013671875 L 396.95947265625 205.013671875 L 397.9486083984375 205.013671875 L 398.9377746582031 205.013671875 L 399.9269104003906 205.013671875 L 400.9160461425781 205.013671875 L 401.9051818847656 205.013671875 L 402.8943176269531 205.013671875 L 403.8834533691406 205.013671875 L 404.8725891113281 205.013671875 L 405.8617248535156 205.013671875 L 406.85089111328125 205.013671875 L 407.84002685546875 205.013671875 L 408.82916259765625 205.013671875 L 409.81829833984375 205.013671875 L 410.80743408203125 205.013671875 L 411.79656982421875 205.013671875 L 412.78570556640625 205.013671875 L 413.77484130859375 205.013671875 L 414.7640075683594 205.013671875 L 415.7531433105469 205.013671875 L 416.7422790527344 205.013671875 L 417.7314147949219 205.013671875 L 418.7205505371094 205.013671875 L 419.7096862792969 205.013671875 L 420.6988220214844 205.013671875 L 421.6879577636719 205.013671875 L 422.6771240234375 205.013671875 L 423.666259765625 205.013671875 L 424.6553955078125 205.013671875 L 425.64453125 205.013671875 L 426.6336669921875 205.013671875 L 427.622802734375 205.013671875 L 428.6119384765625 205.013671875 L 429.60107421875 205.013671875 L 430.5902404785156 205.013671875 L 431.5793762207031 205.013671875 L 432.5685119628906 205.013671875 L 433.5576477050781 205.013671875 L 434.5467834472656 205.013671875 L 435.5359191894531 205.013671875 L 436.5250549316406 205.013671875 L 437.5141906738281 205.013671875 L 438.50335693359375 205.013671875 L 439.49249267578125 205.013671875 L 440.48162841796875 205.013671875 L 441.47076416015625 205.013671875 L 442.45989990234375 205.013671875 L 443.44903564453125 205.013671875 L 444.43817138671875 205.013671875 L 445.42730712890625 205.013671875 L 446.41644287109375 205.013671875 L 447.4056091308594 205.013671875 L 448.3947448730469 205.013671875 L 449.3838806152344 205.013671875 L 450.3730163574219 205.013671875 L 451.3621520996094 205.013671875 L 452.3512878417969 205.013671875 L 453.3404235839844 205.013671875 L 454.3295593261719 205.013671875 L 455.3187255859375 205.013671875 L 456.307861328125 205.013671875 L 457.2969970703125 205.013671875 L 458.2861328125 205.013671875 L 459.2752685546875 205.013671875 L 460.264404296875 205.013671875 L 461.2535400390625 205.013671875 L 462.24267578125 205.013671875 L 463.2318420410156 205.013671875 L 464.2209777832031 205.013671875 L 465.2101135253906 205.013671875 L 466.1992492675781 205.013671875 L 467.1883850097656 205.013671875 L 468.1775207519531 205.013671875 L 469.1666564941406 205.013671875" stroke-opacity="0.8" stroke-linejoin="bevel" stroke-miterlimit="10" stroke-width="3" stroke-dasharray="2,4" clip-path="url(#fcXJfTDRONiT)"/><path fill="none" stroke="rgb(2,129,138)" paint-order="fill" d="M 74.5 233.5 L 75.4891357421875 232.8353729248047 L 76.47827911376953 232.158203125 L 77.46741485595703 231.48231506347656 L 78.45655822753906 230.80775451660156 L 79.44569396972656 230.13458251953125 L 80.4348373413086 229.46282958984375 L 81.4239730834961 228.7925567626953 L 82.41311645507812 228.12384033203125 L 83.40225219726562 227.45672607421875 L 84.39139556884766 226.79127502441406 L 85.38053131103516 226.12759399414062 L 86.36967468261719 225.46571350097656 L 87.35881042480469 224.80575561523438 L 88.34795379638672 224.1477813720703 L 89.33708953857422 223.49191284179688 L 90.32623291015625 222.83824157714844 L 91.31536865234375 222.18687438964844 L 92.30451202392578 221.5379638671875 L 93.29364776611328 220.89161682128906 L 94.28279113769531 220.2480010986328 L 95.27192687988281 219.60728454589844 L 96.26107025146484 218.96963500976562 L 97.25020599365234 218.33526611328125 L 98.23934936523438 217.7043914794922 L 99.22848510742188 217.07725524902344 L 100.2176284790039 216.45416259765625 L 101.2067642211914 215.8354034423828 L 102.19590759277344 215.2213592529297 L 103.18504333496094 214.61241149902344 L 104.17418670654297 214.009033203125 L 105.16332244873047 213.4117431640625 L 106.1524658203125 212.82118225097656 L 107.1416015625 212.238037109375 L 108.13074493408203 211.66314697265625 L 109.11988067626953 211.09750366210938 L 110.10902404785156 210.542236328125 L 111.09815979003906 209.99874877929688 L 112.0873031616211 209.4686737060547 L 113.0764389038086 208.9539794921875 L 114.06558227539062 208.45704650878906 L 115.05471801757812 207.98074340820312 L 116.04386138916016 207.52845764160156 L 117.03299713134766 207.10421752929688 L 118.02214050292969 206.71263122558594 L 119.01127624511719 206.358642578125 L 120.00041961669922 206.0471954345703 L 120.98955535888672 205.78231811523438 L 121.97869873046875 205.56610107421875 L 122.96783447265625 205.3975830078125 L 123.95697784423828 205.27244567871094 L 124.94611358642578 205.1836700439453 L 125.93525695800781 205.12313842773438 L 126.92439270019531 205.08314514160156 L 127.91353607177734 205.0573272705078 L 128.90267944335938 205.04090881347656 L 129.89181518554688 205.0305938720703 L 130.88095092773438 205.024169921875 L 131.87008666992188 205.02015686035156 L 132.85923767089844 205.01768493652344 L 133.84837341308594 205.01614379882812 L 134.83750915527344 205.01519775390625 L 135.82664489746094 205.01461791992188 L 136.8157958984375 205.01425170898438 L 137.804931640625 205.01402282714844 L 138.7940673828125 205.01388549804688 L 139.783203125 205.01380920410156 L 140.77235412597656 205.0137481689453 L 141.76148986816406 205.0137176513672 L 142.75062561035156 205.01370239257812 L 143.73976135253906 205.01368713378906 L 144.72891235351562 205.013671875 L 145.71804809570312 205.013671875 L 146.70718383789062 205.013671875 L 147.69631958007812 205.013671875 L 148.6854705810547 205.013671875 L 149.6746063232422 205.013671875 L 150.6637420654297 205.013671875 L 151.6528778076172 205.013671875 L 152.64202880859375 205.013671875 L 153.63116455078125 205.013671875 L 154.62030029296875 205.013671875 L 155.60943603515625 205.013671875 L 156.5985870361328 205.013671875 L 157.5877227783203 205.013671875 L 158.5768585205078 205.013671875 L 159.5659942626953 205.013671875 L 160.55514526367188 205.013671875 L 161.54428100585938 205.013671875 L 162.53341674804688 205.013671875 L 163.52255249023438 205.013671875 L 164.51170349121094 205.013671875 L 165.50083923339844 205.013671875 L 166.48997497558594 205.013671875 L 167.47911071777344 205.013671875 L 168.46824645996094 205.013671875 L 169.4573974609375 205.013671875 L 170.446533203125 205.013671875 L 171.4356689453125 205.013671875 L 172.4248046875 205.013671875 L 173.41395568847656 205.013671875 L 174.40309143066406 205.013671875 L 175.39222717285156 205.013671875 L 176.38136291503906 205.013671875 L 177.37051391601562 205.013671875 L 178.35964965820312 205.013671875 L 179.34878540039062 205.013671875 L 180.33792114257812 205.013671875 L 181.3270721435547 205.013671875 L 182.3162078857422 205.013671875 L 183.3053436279297 205.013671875 L 184.2944793701172 205.013671875 L 185.28363037109375 205.013671875 L 186.27276611328125 205.013671875 L 187.26190185546875 205.013671875 L 188.25103759765625 205.013671875 L 189.2401885986328 205.013671875 L 190.2293243408203 205.013671875 L 191.2184600830078 205.013671875 L 192.2075958251953 205.013671875 L 193.19674682617188 205.013671875 L 194.18588256835938 205.013671875 L 195.17501831054688 205.013671875 L 196.16415405273438 205.013671875 L 197.15330505371094 205.013671875 L 198.14244079589844 205.013671875 L 199.13157653808594 205.013671875 L 200.12071228027344 205.013671875 L 201.10986328125 205.013671875 L 202.0989990234375 205.013671875 L 203.088134765625 205.013671875 L 204.0772705078125 205.013671875 L 205.06642150878906 205.013671875 L 206.05555725097656 205.013671875 L 207.04469299316406 205.013671875 L 208.03382873535156 205.013671875 L 209.02297973632812 205.013671875 L 210.01211547851562 205.013671875 L 211.00125122070312 205.013671875 L 211.99038696289062 205.013671875 L 212.9795379638672 205.013671875 L 213.9686737060547 205.013671875 L 214.9578094482422 205.013671875 L 215.9469451904297 205.013671875 L 216.93609619140625 205.013671875 L 217.92523193359375 205.013671875 L 218.91436767578125 205.013671875 L 219.90350341796875 205.013671875 L 220.8926544189453 205.013671875 L 221.8817901611328 205.013671875 L 222.8709259033203 205.013671875 L 223.8600616455078 205.013671875 L 224.84921264648438 205.013671875 L 225.83834838867188 205.013671875 L 226.82748413085938 205.013671875 L 227.81661987304688 205.013671875 L 228.80577087402344 205.013671875 L 229.79490661621094 205.013671875 L 230.78404235839844 205.013671875 L 231.77317810058594 205.013671875 L 232.7623291015625 205.013671875 L 233.75146484375 205.013671875 L 234.7406005859375 205.013671875 L 235.729736328125 205.013671875 L 236.71888732910156 205.013671875 L 237.70802307128906 205.013671875 L 238.69715881347656 205.013671875 L 239.68629455566406 205.013671875 L 240.67544555664062 205.013671875 L 241.66458129882812 205.013671875 L 242.65371704101562 205.013671875 L 243.64285278320312 205.013671875 L 244.6320037841797 205.013671875 L 245.6211395263672 205.013671875 L 246.6102752685547 205.013671875 L 247.5994110107422 205.013671875 L 248.58856201171875 205.013671875 L 249.57769775390625 205.013671875 L 250.56683349609375 205.013671875 L 251.55596923828125 205.013671875 L 252.5451202392578 205.013671875 L 253.5342559814453 205.013671875 L 254.5233917236328 205.013671875 L 255.5125274658203 205.013671875 L 256.5016784667969 205.013671875 L 257.4908142089844 205.013671875 L 258.4799499511719 205.013671875 L 259.4690856933594 205.013671875 L 260.4582214355469 205.013671875 L 261.4473571777344 205.013671875 L 262.4364929199219 205.013671875 L 263.4256591796875 205.013671875 L 264.414794921875 205.013671875 L 265.4039306640625 205.013671875 L 266.39306640625 205.013671875 L 267.3822021484375 205.013671875 L 268.371337890625 205.013671875 L 269.3604736328125 205.013671875 L 270.349609375 205.013671875 L 271.3387756347656 205.013671875 L 272.3279113769531 205.013671875 L 273.3170471191406 205.013671875 L 274.3061828613281 205.013671875 L 275.2953186035156 205.013671875 L 276.2844543457031 205.013671875 L 277.2735900878906 205.013671875 L 278.2627258300781 205.013671875 L 279.25189208984375 205.013671875 L 280.24102783203125 205.013671875 L 281.23016357421875 205.013671875 L 282.21929931640625 205.013671875 L 283.20843505859375 205.013671875 L 284.19757080078125 205.013671875 L 285.18670654296875 205.013671875 L 286.17584228515625 205.013671875 L 287.1650085449219 205.013671875 L 288.1541442871094 205.013671875 L 289.1432800292969 205.013671875 L 290.1324157714844 205.013671875 L 291.1215515136719 205.013671875 L 292.1106872558594 205.013671875 L 293.0998229980469 205.013671875 L 294.0889587402344 205.013671875 L 295.078125 205.013671875 L 296.0672607421875 205.013671875 L 297.056396484375 205.013671875 L 298.0455322265625 205.013671875 L 299.03466796875 205.013671875 L 300.0238037109375 205.013671875 L 301.012939453125 205.013671875 L 302.0020751953125 205.013671875 L 302.9912414550781 205.013671875 L 303.9803771972656 205.013671875 L 304.9695129394531 205.013671875 L 305.9586486816406 205.013671875 L 306.9477844238281 205.013671875 L 307.9369201660156 205.013671875 L 308.9260559082031 205.013671875 L 309.9151916503906 205.013671875 L 310.90435791015625 205.013671875 L 311.89349365234375 205.013671875 L 312.88262939453125 205.013671875 L 313.87176513671875 205.013671875 L 314.86090087890625 205.013671875 L 315.85003662109375 205.013671875 L 316.83917236328125 205.013671875 L 317.82830810546875 205.013671875 L 318.8174743652344 205.013671875 L 319.8066101074219 205.013671875 L 320.7957458496094 205.013671875 L 321.7848815917969 205.013671875 L 322.7740173339844 205.013671875 L 323.7631530761719 205.013671875 L 324.7522888183594 205.013671875 L 325.7414245605469 205.013671875 L 326.7305908203125 205.013671875 L 327.7197265625 205.013671875 L 328.7088623046875 205.013671875 L 329.697998046875 205.013671875 L 330.6871337890625 205.013671875 L 331.67626953125 205.013671875 L 332.6654052734375 205.013671875 L 333.654541015625 205.013671875 L 334.6437072753906 205.013671875 L 335.6328430175781 205.013671875 L 336.6219787597656 205.013671875 L 337.6111145019531 205.013671875 L 338.6002502441406 205.013671875 L 339.5893859863281 205.013671875 L 340.5785217285156 205.013671875 L 341.5676574707031 205.013671875 L 342.55682373046875 205.013671875 L 343.54595947265625 205.013671875 L 344.53509521484375 205.013671875 L 345.52423095703125 205.013671875 L 346.51336669921875 205.013671875 L 347.50250244140625 205.013671875 L 348.49163818359375 205.013671875 L 349.48077392578125 205.013671875 L 350.46990966796875 205.013671875 L 351.4590759277344 205.013671875 L 352.4482116699219 205.013671875 L 353.4373474121094 205.013671875 L 354.4264831542969 205.013671875 L 355.4156188964844 205.013671875 L 356.4047546386719 205.013671875 L 357.3938903808594 205.013671875 L 358.3830261230469 205.013671875 L 359.3721923828125 205.013671875 L 360.361328125 205.013671875 L 361.3504638671875 205.013671875 L 362.339599609375 205.013671875 L 363.3287353515625 205.013671875 L 364.31787109375 205.013671875 L 365.3070068359375 205.013671875 L 366.296142578125 205.013671875 L 367.2853088378906 205.013671875 L 368.2744445800781 205.013671875 L 369.2635803222656 205.013671875 L 370.2527160644531 205.013671875 L 371.2418518066406 205.013671875 L 372.2309875488281 205.013671875 L 373.2201232910156 205.013671875 L 374.2092590332031 205.013671875 L 375.19842529296875 205.013671875 L 376.18756103515625 205.013671875 L 377.17669677734375 205.013671875 L 378.16583251953125 205.013671875 L 379.15496826171875 205.013671875 L 380.14410400390625 205.013671875 L 381.13323974609375 205.013671875 L 382.12237548828125 205.013671875 L 383.1115417480469 205.013671875 L 384.1006774902344 205.013671875 L 385.0898132324219 205.013671875 L 386.0789489746094 205.013671875 L 387.0680847167969 205.013671875 L 388.0572204589844 205.013671875 L 389.0463562011719 205.013671875 L 390.0354919433594 205.013671875 L 391.024658203125 205.013671875 L 392.0137939453125 205.013671875 L 393.0029296875 205.013671875 L 393.9920654296875 205.013671875 L 394.981201171875 205.013671875 L 395.9703369140625 205.013671875 L 396.95947265625 205.013671875 L 397.9486083984375 205.013671875 L 398.9377746582031 205.013671875 L 399.9269104003906 205.013671875 L 400.9160461425781 205.013671875 L 401.9051818847656 205.013671875 L 402.8943176269531 205.013671875 L 403.8834533691406 205.013671875 L 404.8725891113281 205.013671875 L 405.8617248535156 205.013671875 L 406.85089111328125 205.013671875 L 407.84002685546875 205.013671875 L 408.82916259765625 205.013671875 L 409.81829833984375 205.013671875 L 410.80743408203125 205.013671875 L 411.79656982421875 205.013671875 L 412.78570556640625 205.013671875 L 413.77484130859375 205.013671875 L 414.7640075683594 205.013671875 L 415.7531433105469 205.013671875 L 416.7422790527344 205.013671875 L 417.7314147949219 205.013671875 L 418.7205505371094 205.013671875 L 419.7096862792969 205.013671875 L 420.6988220214844 205.013671875 L 421.6879577636719 205.013671875 L 422.6771240234375 205.013671875 L 423.666259765625 205.013671875 L 424.6553955078125 205.013671875 L 425.64453125 205.013671875 L 426.6336669921875 205.013671875 L 427.622802734375 205.013671875 L 428.6119384765625 205.013671875 L 429.60107421875 205.013671875 L 430.5902404785156 205.013671875 L 431.5793762207031 205.013671875 L 432.5685119628906 205.013671875 L 433.5576477050781 205.013671875 L 434.5467834472656 205.013671875 L 435.5359191894531 205.013671875 L 436.5250549316406 205.013671875 L 437.5141906738281 205.013671875 L 438.50335693359375 205.013671875 L 439.49249267578125 205.013671875 L 440.48162841796875 205.013671875 L 441.47076416015625 205.013671875 L 442.45989990234375 205.013671875 L 443.44903564453125 205.013671875 L 444.43817138671875 205.013671875 L 445.42730712890625 205.013671875 L 446.41644287109375 205.013671875 L 447.4056091308594 205.013671875 L 448.3947448730469 205.013671875 L 449.3838806152344 205.013671875 L 450.3730163574219 205.013671875 L 451.3621520996094 205.013671875 L 452.3512878417969 205.013671875 L 453.3404235839844 205.013671875 L 454.3295593261719 205.013671875 L 455.3187255859375 205.013671875 L 456.307861328125 205.013671875 L 457.2969970703125 205.013671875 L 458.2861328125 205.013671875 L 459.2752685546875 205.013671875 L 460.264404296875 205.013671875 L 461.2535400390625 205.013671875 L 462.24267578125 205.013671875 L 463.2318420410156 205.013671875 L 464.2209777832031 205.013671875 L 465.2101135253906 205.013671875 L 466.1992492675781 205.013671875 L 467.1883850097656 205.013671875 L 468.1775207519531 205.013671875 L 469.1666564941406 205.013671875" stroke-opacity="0.8" stroke-linejoin="bevel" stroke-miterlimit="10" stroke-width="3" stroke-dasharray="2,4,6,4" clip-path="url(#LIxfnoTdNEaa)"/><path fill="none" stroke="rgb(54,144,192)" paint-order="fill" d="M 74.5 233.5 L 75.4891357421875 232.8353729248047 L 76.47827911376953 232.158203125 L 77.46741485595703 231.48231506347656 L 78.45655822753906 230.80775451660156 L 79.44569396972656 230.13458251953125 L 80.4348373413086 229.46282958984375 L 81.4239730834961 228.7925567626953 L 82.41311645507812 228.12384033203125 L 83.40225219726562 227.45672607421875 L 84.39139556884766 226.79127502441406 L 85.38053131103516 226.12759399414062 L 86.36967468261719 225.46571350097656 L 87.35881042480469 224.80575561523438 L 88.34795379638672 224.1477813720703 L 89.33708953857422 223.49191284179688 L 90.32623291015625 222.83824157714844 L 91.31536865234375 222.18687438964844 L 92.30451202392578 221.5379638671875 L 93.29364776611328 220.89161682128906 L 94.28279113769531 220.2480010986328 L 95.27192687988281 219.60728454589844 L 96.26107025146484 218.96963500976562 L 97.25020599365234 218.33526611328125 L 98.23934936523438 217.7043914794922 L 99.22848510742188 217.07725524902344 L 100.2176284790039 216.45416259765625 L 101.2067642211914 215.8354034423828 L 102.19590759277344 215.2213592529297 L 103.18504333496094 214.61241149902344 L 104.17418670654297 214.009033203125 L 105.16332244873047 213.4117431640625 L 106.1524658203125 212.82118225097656 L 107.1416015625 212.238037109375 L 108.13074493408203 211.66314697265625 L 109.11988067626953 211.09750366210938 L 110.10902404785156 210.542236328125 L 111.09815979003906 209.99874877929688 L 112.0873031616211 209.4686737060547 L 113.0764389038086 208.9539794921875 L 114.06558227539062 208.45704650878906 L 115.05471801757812 207.98074340820312 L 116.04386138916016 207.52845764160156 L 117.03299713134766 207.10423278808594 L 118.02214050292969 206.71263122558594 L 119.01127624511719 206.358642578125 L 120.00041961669922 206.0471954345703 L 120.98955535888672 205.78231811523438 L 121.97869873046875 205.56610107421875 L 122.96783447265625 205.3975830078125 L 123.95697784423828 205.27244567871094 L 124.94611358642578 205.1836700439453 L 125.93525695800781 205.12313842773438 L 126.92439270019531 205.08314514160156 L 127.91353607177734 205.0573272705078 L 128.90267944335938 205.04090881347656 L 129.89181518554688 205.0305938720703 L 130.88095092773438 205.024169921875 L 131.87008666992188 205.02015686035156 L 132.85923767089844 205.01768493652344 L 133.84837341308594 205.01614379882812 L 134.83750915527344 205.01519775390625 L 135.82664489746094 205.01461791992188 L 136.8157958984375 205.01425170898438 L 137.804931640625 205.01402282714844 L 138.7940673828125 205.01388549804688 L 139.783203125 205.01380920410156 L 140.77235412597656 205.0137481689453 L 141.76148986816406 205.0137176513672 L 142.75062561035156 205.01370239257812 L 143.73976135253906 205.01368713378906 L 144.72891235351562 205.013671875 L 145.71804809570312 205.013671875 L 146.70718383789062 205.013671875 L 147.69631958007812 205.013671875 L 148.6854705810547 205.013671875 L 149.6746063232422 205.013671875 L 150.6637420654297 205.013671875 L 151.6528778076172 205.013671875 L 152.64202880859375 205.013671875 L 153.63116455078125 205.013671875 L 154.62030029296875 205.013671875 L 155.60943603515625 205.013671875 L 156.5985870361328 205.013671875 L 157.5877227783203 205.013671875 L 158.5768585205078 205.013671875 L 159.5659942626953 205.013671875 L 160.55514526367188 205.013671875 L 161.54428100585938 205.013671875 L 162.53341674804688 205.013671875 L 163.52255249023438 205.013671875 L 164.51170349121094 205.013671875 L 165.50083923339844 205.013671875 L 166.48997497558594 205.013671875 L 167.47911071777344 205.013671875 L 168.46824645996094 205.013671875 L 169.4573974609375 205.013671875 L 170.446533203125 205.013671875 L 171.4356689453125 205.013671875 L 172.4248046875 205.013671875 L 173.41395568847656 205.013671875 L 174.40309143066406 205.013671875 L 175.39222717285156 205.013671875 L 176.38136291503906 205.013671875 L 177.37051391601562 205.013671875 L 178.35964965820312 205.013671875 L 179.34878540039062 205.013671875 L 180.33792114257812 205.013671875 L 181.3270721435547 205.013671875 L 182.3162078857422 205.013671875 L 183.3053436279297 205.013671875 L 184.2944793701172 205.013671875 L 185.28363037109375 205.013671875 L 186.27276611328125 205.013671875 L 187.26190185546875 205.013671875 L 188.25103759765625 205.013671875 L 189.2401885986328 205.013671875 L 190.2293243408203 205.013671875 L 191.2184600830078 205.013671875 L 192.2075958251953 205.013671875 L 193.19674682617188 205.013671875 L 194.18588256835938 205.013671875 L 195.17501831054688 205.013671875 L 196.16415405273438 205.013671875 L 197.15330505371094 205.013671875 L 198.14244079589844 205.013671875 L 199.13157653808594 205.013671875 L 200.12071228027344 205.013671875 L 201.10986328125 205.013671875 L 202.0989990234375 205.013671875 L 203.088134765625 205.013671875 L 204.0772705078125 205.013671875 L 205.06642150878906 205.013671875 L 206.05555725097656 205.013671875 L 207.04469299316406 205.013671875 L 208.03382873535156 205.013671875 L 209.02297973632812 205.013671875 L 210.01211547851562 205.013671875 L 211.00125122070312 205.013671875 L 211.99038696289062 205.013671875 L 212.9795379638672 205.013671875 L 213.9686737060547 205.013671875 L 214.9578094482422 205.013671875 L 215.9469451904297 205.013671875 L 216.93609619140625 205.013671875 L 217.92523193359375 205.013671875 L 218.91436767578125 205.013671875 L 219.90350341796875 205.013671875 L 220.8926544189453 205.013671875 L 221.8817901611328 205.013671875 L 222.8709259033203 205.013671875 L 223.8600616455078 205.013671875 L 224.84921264648438 205.013671875 L 225.83834838867188 205.013671875 L 226.82748413085938 205.013671875 L 227.81661987304688 205.013671875 L 228.80577087402344 205.013671875 L 229.79490661621094 205.013671875 L 230.78404235839844 205.013671875 L 231.77317810058594 205.013671875 L 232.7623291015625 205.013671875 L 233.75146484375 205.013671875 L 234.7406005859375 205.013671875 L 235.729736328125 205.013671875 L 236.71888732910156 205.013671875 L 237.70802307128906 205.013671875 L 238.69715881347656 205.013671875 L 239.68629455566406 205.013671875 L 240.67544555664062 205.013671875 L 241.66458129882812 205.013671875 L 242.65371704101562 205.013671875 L 243.64285278320312 205.013671875 L 244.6320037841797 205.013671875 L 245.6211395263672 205.013671875 L 246.6102752685547 205.013671875 L 247.5994110107422 205.013671875 L 248.58856201171875 205.013671875 L 249.57769775390625 205.013671875 L 250.56683349609375 205.013671875 L 251.55596923828125 205.013671875 L 252.5451202392578 205.013671875 L 253.5342559814453 205.013671875 L 254.5233917236328 205.013671875 L 255.5125274658203 205.013671875 L 256.5016784667969 205.013671875 L 257.4908142089844 205.013671875 L 258.4799499511719 205.013671875 L 259.4690856933594 205.013671875 L 260.4582214355469 205.013671875 L 261.4473571777344 205.013671875 L 262.4364929199219 205.013671875 L 263.4256591796875 205.013671875 L 264.414794921875 205.013671875 L 265.4039306640625 205.013671875 L 266.39306640625 205.013671875 L 267.3822021484375 205.013671875 L 268.371337890625 205.013671875 L 269.3604736328125 205.013671875 L 270.349609375 205.013671875 L 271.3387756347656 205.013671875 L 272.3279113769531 205.013671875 L 273.3170471191406 205.013671875 L 274.3061828613281 205.013671875 L 275.2953186035156 205.013671875 L 276.2844543457031 205.013671875 L 277.2735900878906 205.013671875 L 278.2627258300781 205.013671875 L 279.25189208984375 205.013671875 L 280.24102783203125 205.013671875 L 281.23016357421875 205.013671875 L 282.21929931640625 205.013671875 L 283.20843505859375 205.013671875 L 284.19757080078125 205.013671875 L 285.18670654296875 205.013671875 L 286.17584228515625 205.013671875 L 287.1650085449219 205.013671875 L 288.1541442871094 205.013671875 L 289.1432800292969 205.013671875 L 290.1324157714844 205.013671875 L 291.1215515136719 205.013671875 L 292.1106872558594 205.013671875 L 293.0998229980469 205.013671875 L 294.0889587402344 205.013671875 L 295.078125 205.013671875 L 296.0672607421875 205.013671875 L 297.056396484375 205.013671875 L 298.0455322265625 205.013671875 L 299.03466796875 205.013671875 L 300.0238037109375 205.013671875 L 301.012939453125 205.013671875 L 302.0020751953125 205.013671875 L 302.9912414550781 205.013671875 L 303.9803771972656 205.013671875 L 304.9695129394531 205.013671875 L 305.9586486816406 205.013671875 L 306.9477844238281 205.013671875 L 307.9369201660156 205.013671875 L 308.9260559082031 205.013671875 L 309.9151916503906 205.013671875 L 310.90435791015625 205.013671875 L 311.89349365234375 205.013671875 L 312.88262939453125 205.013671875 L 313.87176513671875 205.013671875 L 314.86090087890625 205.013671875 L 315.85003662109375 205.013671875 L 316.83917236328125 205.013671875 L 317.82830810546875 205.013671875 L 318.8174743652344 205.013671875 L 319.8066101074219 205.013671875 L 320.7957458496094 205.013671875 L 321.7848815917969 205.013671875 L 322.7740173339844 205.013671875 L 323.7631530761719 205.013671875 L 324.7522888183594 205.013671875 L 325.7414245605469 205.013671875 L 326.7305908203125 205.013671875 L 327.7197265625 205.013671875 L 328.7088623046875 205.013671875 L 329.697998046875 205.013671875 L 330.6871337890625 205.013671875 L 331.67626953125 205.013671875 L 332.6654052734375 205.013671875 L 333.654541015625 205.013671875 L 334.6437072753906 205.013671875 L 335.6328430175781 205.013671875 L 336.6219787597656 205.013671875 L 337.6111145019531 205.013671875 L 338.6002502441406 205.013671875 L 339.5893859863281 205.013671875 L 340.5785217285156 205.013671875 L 341.5676574707031 205.013671875 L 342.55682373046875 205.013671875 L 343.54595947265625 205.013671875 L 344.53509521484375 205.013671875 L 345.52423095703125 205.013671875 L 346.51336669921875 205.013671875 L 347.50250244140625 205.013671875 L 348.49163818359375 205.013671875 L 349.48077392578125 205.013671875 L 350.46990966796875 205.013671875 L 351.4590759277344 205.013671875 L 352.4482116699219 205.013671875 L 353.4373474121094 205.013671875 L 354.4264831542969 205.013671875 L 355.4156188964844 205.013671875 L 356.4047546386719 205.013671875 L 357.3938903808594 205.013671875 L 358.3830261230469 205.013671875 L 359.3721923828125 205.013671875 L 360.361328125 205.013671875 L 361.3504638671875 205.013671875 L 362.339599609375 205.013671875 L 363.3287353515625 205.013671875 L 364.31787109375 205.013671875 L 365.3070068359375 205.013671875 L 366.296142578125 205.013671875 L 367.2853088378906 205.013671875 L 368.2744445800781 205.013671875 L 369.2635803222656 205.013671875 L 370.2527160644531 205.013671875 L 371.2418518066406 205.013671875 L 372.2309875488281 205.013671875 L 373.2201232910156 205.013671875 L 374.2092590332031 205.013671875 L 375.19842529296875 205.013671875 L 376.18756103515625 205.013671875 L 377.17669677734375 205.013671875 L 378.16583251953125 205.013671875 L 379.15496826171875 205.013671875 L 380.14410400390625 205.013671875 L 381.13323974609375 205.013671875 L 382.12237548828125 205.013671875 L 383.1115417480469 205.013671875 L 384.1006774902344 205.013671875 L 385.0898132324219 205.013671875 L 386.0789489746094 205.013671875 L 387.0680847167969 205.013671875 L 388.0572204589844 205.013671875 L 389.0463562011719 205.013671875 L 390.0354919433594 205.013671875 L 391.024658203125 205.013671875 L 392.0137939453125 205.013671875 L 393.0029296875 205.013671875 L 393.9920654296875 205.013671875 L 394.981201171875 205.013671875 L 395.9703369140625 205.013671875 L 396.95947265625 205.013671875 L 397.9486083984375 205.013671875 L 398.9377746582031 205.013671875 L 399.9269104003906 205.013671875 L 400.9160461425781 205.013671875 L 401.9051818847656 205.013671875 L 402.8943176269531 205.013671875 L 403.8834533691406 205.013671875 L 404.8725891113281 205.013671875 L 405.8617248535156 205.013671875 L 406.85089111328125 205.013671875 L 407.84002685546875 205.013671875 L 408.82916259765625 205.013671875 L 409.81829833984375 205.013671875 L 410.80743408203125 205.013671875 L 411.79656982421875 205.013671875 L 412.78570556640625 205.013671875 L 413.77484130859375 205.013671875 L 414.7640075683594 205.013671875 L 415.7531433105469 205.013671875 L 416.7422790527344 205.013671875 L 417.7314147949219 205.013671875 L 418.7205505371094 205.013671875 L 419.7096862792969 205.013671875 L 420.6988220214844 205.013671875 L 421.6879577636719 205.013671875 L 422.6771240234375 205.013671875 L 423.666259765625 205.013671875 L 424.6553955078125 205.013671875 L 425.64453125 205.013671875 L 426.6336669921875 205.013671875 L 427.622802734375 205.013671875 L 428.6119384765625 205.013671875 L 429.60107421875 205.013671875 L 430.5902404785156 205.013671875 L 431.5793762207031 205.013671875 L 432.5685119628906 205.013671875 L 433.5576477050781 205.013671875 L 434.5467834472656 205.013671875 L 435.5359191894531 205.013671875 L 436.5250549316406 205.013671875 L 437.5141906738281 205.013671875 L 438.50335693359375 205.013671875 L 439.49249267578125 205.013671875 L 440.48162841796875 205.013671875 L 441.47076416015625 205.013671875 L 442.45989990234375 205.013671875 L 443.44903564453125 205.013671875 L 444.43817138671875 205.013671875 L 445.42730712890625 205.013671875 L 446.41644287109375 205.013671875 L 447.4056091308594 205.013671875 L 448.3947448730469 205.013671875 L 449.3838806152344 205.013671875 L 450.3730163574219 205.013671875 L 451.3621520996094 205.013671875 L 452.3512878417969 205.013671875 L 453.3404235839844 205.013671875 L 454.3295593261719 205.013671875 L 455.3187255859375 205.013671875 L 456.307861328125 205.013671875 L 457.2969970703125 205.013671875 L 458.2861328125 205.013671875 L 459.2752685546875 205.013671875 L 460.264404296875 205.013671875 L 461.2535400390625 205.013671875 L 462.24267578125 205.013671875 L 463.2318420410156 205.013671875 L 464.2209777832031 205.013671875 L 465.2101135253906 205.013671875 L 466.1992492675781 205.013671875 L 467.1883850097656 205.013671875 L 468.1775207519531 205.013671875 L 469.1666564941406 205.013671875" stroke-opacity="0.8" stroke-linejoin="bevel" stroke-miterlimit="10" stroke-width="3" stroke-dasharray="6,4,2,4" clip-path="url(#PPHLpZqivaXZ)"/><path fill="none" stroke="rgb(103,169,207)" paint-order="fill" d="M 74.5 233.5 L 75.4891357421875 232.8353729248047 L 76.47827911376953 232.158203125 L 77.46741485595703 231.48231506347656 L 78.45655822753906 230.80775451660156 L 79.44569396972656 230.13458251953125 L 80.4348373413086 229.46282958984375 L 81.4239730834961 228.7925567626953 L 82.41311645507812 228.12384033203125 L 83.40225219726562 227.45672607421875 L 84.39139556884766 226.79127502441406 L 85.38053131103516 226.12759399414062 L 86.36967468261719 225.46571350097656 L 87.35881042480469 224.80575561523438 L 88.34795379638672 224.1477813720703 L 89.33708953857422 223.49191284179688 L 90.32623291015625 222.83824157714844 L 91.31536865234375 222.18687438964844 L 92.30451202392578 221.5379638671875 L 93.29364776611328 220.89161682128906 L 94.28279113769531 220.2480010986328 L 95.27192687988281 219.60728454589844 L 96.26107025146484 218.96963500976562 L 97.25020599365234 218.33526611328125 L 98.23934936523438 217.7043914794922 L 99.22848510742188 217.07725524902344 L 100.2176284790039 216.45416259765625 L 101.2067642211914 215.8354034423828 L 102.19590759277344 215.2213592529297 L 103.18504333496094 214.61241149902344 L 104.17418670654297 214.009033203125 L 105.16332244873047 213.4117431640625 L 106.1524658203125 212.82118225097656 L 107.1416015625 212.238037109375 L 108.13074493408203 211.66314697265625 L 109.11988067626953 211.09750366210938 L 110.10902404785156 210.542236328125 L 111.09815979003906 209.99874877929688 L 112.0873031616211 209.4686737060547 L 113.0764389038086 208.9539794921875 L 114.06558227539062 208.45704650878906 L 115.05471801757812 207.98074340820312 L 116.04386138916016 207.52845764160156 L 117.03299713134766 207.10421752929688 L 118.02214050292969 206.71263122558594 L 119.01127624511719 206.358642578125 L 120.00041961669922 206.0471954345703 L 120.98955535888672 205.78231811523438 L 121.97869873046875 205.56610107421875 L 122.96783447265625 205.3975830078125 L 123.95697784423828 205.27244567871094 L 124.94611358642578 205.1836700439453 L 125.93525695800781 205.12313842773438 L 126.92439270019531 205.08314514160156 L 127.91353607177734 205.0573272705078 L 128.90267944335938 205.04090881347656 L 129.89181518554688 205.03060913085938 L 130.88095092773438 205.02415466308594 L 131.87008666992188 205.02015686035156 L 132.85923767089844 205.01768493652344 L 133.84837341308594 205.01614379882812 L 134.83750915527344 205.01519775390625 L 135.82664489746094 205.01461791992188 L 136.8157958984375 205.01425170898438 L 137.804931640625 205.01402282714844 L 138.7940673828125 205.01388549804688 L 139.783203125 205.01380920410156 L 140.77235412597656 205.0137481689453 L 141.76148986816406 205.0137176513672 L 142.75062561035156 205.01370239257812 L 143.73976135253906 205.01368713378906 L 144.72891235351562 205.013671875 L 145.71804809570312 205.013671875 L 146.70718383789062 205.013671875 L 147.69631958007812 205.013671875 L 148.6854705810547 205.013671875 L 149.6746063232422 205.013671875 L 150.6637420654297 205.013671875 L 151.6528778076172 205.013671875 L 152.64202880859375 205.013671875 L 153.63116455078125 205.013671875 L 154.62030029296875 205.013671875 L 155.60943603515625 205.013671875 L 156.5985870361328 205.013671875 L 157.5877227783203 205.013671875 L 158.5768585205078 205.013671875 L 159.5659942626953 205.013671875 L 160.55514526367188 205.013671875 L 161.54428100585938 205.013671875 L 162.53341674804688 205.013671875 L 163.52255249023438 205.013671875 L 164.51170349121094 205.013671875 L 165.50083923339844 205.013671875 L 166.48997497558594 205.013671875 L 167.47911071777344 205.013671875 L 168.46824645996094 205.013671875 L 169.4573974609375 205.013671875 L 170.446533203125 205.013671875 L 171.4356689453125 205.013671875 L 172.4248046875 205.013671875 L 173.41395568847656 205.013671875 L 174.40309143066406 205.013671875 L 175.39222717285156 205.013671875 L 176.38136291503906 205.013671875 L 177.37051391601562 205.013671875 L 178.35964965820312 205.013671875 L 179.34878540039062 205.013671875 L 180.33792114257812 205.013671875 L 181.3270721435547 205.013671875 L 182.3162078857422 205.013671875 L 183.3053436279297 205.013671875 L 184.2944793701172 205.013671875 L 185.28363037109375 205.013671875 L 186.27276611328125 205.013671875 L 187.26190185546875 205.013671875 L 188.25103759765625 205.013671875 L 189.2401885986328 205.013671875 L 190.2293243408203 205.013671875 L 191.2184600830078 205.013671875 L 192.2075958251953 205.013671875 L 193.19674682617188 205.013671875 L 194.18588256835938 205.013671875 L 195.17501831054688 205.013671875 L 196.16415405273438 205.013671875 L 197.15330505371094 205.013671875 L 198.14244079589844 205.013671875 L 199.13157653808594 205.013671875 L 200.12071228027344 205.013671875 L 201.10986328125 205.013671875 L 202.0989990234375 205.013671875 L 203.088134765625 205.013671875 L 204.0772705078125 205.013671875 L 205.06642150878906 205.013671875 L 206.05555725097656 205.013671875 L 207.04469299316406 205.013671875 L 208.03382873535156 205.013671875 L 209.02297973632812 205.013671875 L 210.01211547851562 205.013671875 L 211.00125122070312 205.013671875 L 211.99038696289062 205.013671875 L 212.9795379638672 205.013671875 L 213.9686737060547 205.013671875 L 214.9578094482422 205.013671875 L 215.9469451904297 205.013671875 L 216.93609619140625 205.013671875 L 217.92523193359375 205.013671875 L 218.91436767578125 205.013671875 L 219.90350341796875 205.013671875 L 220.8926544189453 205.013671875 L 221.8817901611328 205.013671875 L 222.8709259033203 205.013671875 L 223.8600616455078 205.013671875 L 224.84921264648438 205.013671875 L 225.83834838867188 205.013671875 L 226.82748413085938 205.013671875 L 227.81661987304688 205.013671875 L 228.80577087402344 205.013671875 L 229.79490661621094 205.013671875 L 230.78404235839844 205.013671875 L 231.77317810058594 205.013671875 L 232.7623291015625 205.013671875 L 233.75146484375 205.013671875 L 234.7406005859375 205.013671875 L 235.729736328125 205.013671875 L 236.71888732910156 205.013671875 L 237.70802307128906 205.013671875 L 238.69715881347656 205.013671875 L 239.68629455566406 205.013671875 L 240.67544555664062 205.013671875 L 241.66458129882812 205.013671875 L 242.65371704101562 205.013671875 L 243.64285278320312 205.013671875 L 244.6320037841797 205.013671875 L 245.6211395263672 205.013671875 L 246.6102752685547 205.013671875 L 247.5994110107422 205.013671875 L 248.58856201171875 205.013671875 L 249.57769775390625 205.013671875 L 250.56683349609375 205.013671875 L 251.55596923828125 205.013671875 L 252.5451202392578 205.013671875 L 253.5342559814453 205.013671875 L 254.5233917236328 205.013671875 L 255.5125274658203 205.013671875 L 256.5016784667969 205.013671875 L 257.4908142089844 205.013671875 L 258.4799499511719 205.013671875 L 259.4690856933594 205.013671875 L 260.4582214355469 205.013671875 L 261.4473571777344 205.013671875 L 262.4364929199219 205.013671875 L 263.4256591796875 205.013671875 L 264.414794921875 205.013671875 L 265.4039306640625 205.013671875 L 266.39306640625 205.013671875 L 267.3822021484375 205.013671875 L 268.371337890625 205.013671875 L 269.3604736328125 205.013671875 L 270.349609375 205.013671875 L 271.3387756347656 205.013671875 L 272.3279113769531 205.013671875 L 273.3170471191406 205.013671875 L 274.3061828613281 205.013671875 L 275.2953186035156 205.013671875 L 276.2844543457031 205.013671875 L 277.2735900878906 205.013671875 L 278.2627258300781 205.013671875 L 279.25189208984375 205.013671875 L 280.24102783203125 205.013671875 L 281.23016357421875 205.013671875 L 282.21929931640625 205.013671875 L 283.20843505859375 205.013671875 L 284.19757080078125 205.013671875 L 285.18670654296875 205.013671875 L 286.17584228515625 205.013671875 L 287.1650085449219 205.013671875 L 288.1541442871094 205.013671875 L 289.1432800292969 205.013671875 L 290.1324157714844 205.013671875 L 291.1215515136719 205.013671875 L 292.1106872558594 205.013671875 L 293.0998229980469 205.013671875 L 294.0889587402344 205.013671875 L 295.078125 205.013671875 L 296.0672607421875 205.013671875 L 297.056396484375 205.013671875 L 298.0455322265625 205.013671875 L 299.03466796875 205.013671875 L 300.0238037109375 205.013671875 L 301.012939453125 205.013671875 L 302.0020751953125 205.013671875 L 302.9912414550781 205.013671875 L 303.9803771972656 205.013671875 L 304.9695129394531 205.013671875 L 305.9586486816406 205.013671875 L 306.9477844238281 205.013671875 L 307.9369201660156 205.013671875 L 308.9260559082031 205.013671875 L 309.9151916503906 205.013671875 L 310.90435791015625 205.013671875 L 311.89349365234375 205.013671875 L 312.88262939453125 205.013671875 L 313.87176513671875 205.013671875 L 314.86090087890625 205.013671875 L 315.85003662109375 205.013671875 L 316.83917236328125 205.013671875 L 317.82830810546875 205.013671875 L 318.8174743652344 205.013671875 L 319.8066101074219 205.013671875 L 320.7957458496094 205.013671875 L 321.7848815917969 205.013671875 L 322.7740173339844 205.013671875 L 323.7631530761719 205.013671875 L 324.7522888183594 205.013671875 L 325.7414245605469 205.013671875 L 326.7305908203125 205.013671875 L 327.7197265625 205.013671875 L 328.7088623046875 205.013671875 L 329.697998046875 205.013671875 L 330.6871337890625 205.013671875 L 331.67626953125 205.013671875 L 332.6654052734375 205.013671875 L 333.654541015625 205.013671875 L 334.6437072753906 205.013671875 L 335.6328430175781 205.013671875 L 336.6219787597656 205.013671875 L 337.6111145019531 205.013671875 L 338.6002502441406 205.013671875 L 339.5893859863281 205.013671875 L 340.5785217285156 205.013671875 L 341.5676574707031 205.013671875 L 342.55682373046875 205.013671875 L 343.54595947265625 205.013671875 L 344.53509521484375 205.013671875 L 345.52423095703125 205.013671875 L 346.51336669921875 205.013671875 L 347.50250244140625 205.013671875 L 348.49163818359375 205.013671875 L 349.48077392578125 205.013671875 L 350.46990966796875 205.013671875 L 351.4590759277344 205.013671875 L 352.4482116699219 205.013671875 L 353.4373474121094 205.013671875 L 354.4264831542969 205.013671875 L 355.4156188964844 205.013671875 L 356.4047546386719 205.013671875 L 357.3938903808594 205.013671875 L 358.3830261230469 205.013671875 L 359.3721923828125 205.013671875 L 360.361328125 205.013671875 L 361.3504638671875 205.013671875 L 362.339599609375 205.013671875 L 363.3287353515625 205.013671875 L 364.31787109375 205.013671875 L 365.3070068359375 205.013671875 L 366.296142578125 205.013671875 L 367.2853088378906 205.013671875 L 368.2744445800781 205.013671875 L 369.2635803222656 205.013671875 L 370.2527160644531 205.013671875 L 371.2418518066406 205.013671875 L 372.2309875488281 205.013671875 L 373.2201232910156 205.013671875 L 374.2092590332031 205.013671875 L 375.19842529296875 205.013671875 L 376.18756103515625 205.013671875 L 377.17669677734375 205.013671875 L 378.16583251953125 205.013671875 L 379.15496826171875 205.013671875 L 380.14410400390625 205.013671875 L 381.13323974609375 205.013671875 L 382.12237548828125 205.013671875 L 383.1115417480469 205.013671875 L 384.1006774902344 205.013671875 L 385.0898132324219 205.013671875 L 386.0789489746094 205.013671875 L 387.0680847167969 205.013671875 L 388.0572204589844 205.013671875 L 389.0463562011719 205.013671875 L 390.0354919433594 205.013671875 L 391.024658203125 205.013671875 L 392.0137939453125 205.013671875 L 393.0029296875 205.013671875 L 393.9920654296875 205.013671875 L 394.981201171875 205.013671875 L 395.9703369140625 205.013671875 L 396.95947265625 205.013671875 L 397.9486083984375 205.013671875 L 398.9377746582031 205.013671875 L 399.9269104003906 205.013671875 L 400.9160461425781 205.013671875 L 401.9051818847656 205.013671875 L 402.8943176269531 205.013671875 L 403.8834533691406 205.013671875 L 404.8725891113281 205.013671875 L 405.8617248535156 205.013671875 L 406.85089111328125 205.013671875 L 407.84002685546875 205.013671875 L 408.82916259765625 205.013671875 L 409.81829833984375 205.013671875 L 410.80743408203125 205.013671875 L 411.79656982421875 205.013671875 L 412.78570556640625 205.013671875 L 413.77484130859375 205.013671875 L 414.7640075683594 205.013671875 L 415.7531433105469 205.013671875 L 416.7422790527344 205.013671875 L 417.7314147949219 205.013671875 L 418.7205505371094 205.013671875 L 419.7096862792969 205.013671875 L 420.6988220214844 205.013671875 L 421.6879577636719 205.013671875 L 422.6771240234375 205.013671875 L 423.666259765625 205.013671875 L 424.6553955078125 205.013671875 L 425.64453125 205.013671875 L 426.6336669921875 205.013671875 L 427.622802734375 205.013671875 L 428.6119384765625 205.013671875 L 429.60107421875 205.013671875 L 430.5902404785156 205.013671875 L 431.5793762207031 205.013671875 L 432.5685119628906 205.013671875 L 433.5576477050781 205.013671875 L 434.5467834472656 205.013671875 L 435.5359191894531 205.013671875 L 436.5250549316406 205.013671875 L 437.5141906738281 205.013671875 L 438.50335693359375 205.013671875 L 439.49249267578125 205.013671875 L 440.48162841796875 205.013671875 L 441.47076416015625 205.013671875 L 442.45989990234375 205.013671875 L 443.44903564453125 205.013671875 L 444.43817138671875 205.013671875 L 445.42730712890625 205.013671875 L 446.41644287109375 205.013671875 L 447.4056091308594 205.013671875 L 448.3947448730469 205.013671875 L 449.3838806152344 205.013671875 L 450.3730163574219 205.013671875 L 451.3621520996094 205.013671875 L 452.3512878417969 205.013671875 L 453.3404235839844 205.013671875 L 454.3295593261719 205.013671875 L 455.3187255859375 205.013671875 L 456.307861328125 205.013671875 L 457.2969970703125 205.013671875 L 458.2861328125 205.013671875 L 459.2752685546875 205.013671875 L 460.264404296875 205.013671875 L 461.2535400390625 205.013671875 L 462.24267578125 205.013671875 L 463.2318420410156 205.013671875 L 464.2209777832031 205.013671875 L 465.2101135253906 205.013671875 L 466.1992492675781 205.013671875 L 467.1883850097656 205.013671875 L 468.1775207519531 205.013671875 L 469.1666564941406 205.013671875" stroke-opacity="0.8" stroke-linejoin="bevel" stroke-miterlimit="10" stroke-width="3" stroke-dasharray="6" clip-path="url(#eGUVJTTAgGSp)"/><path fill="none" stroke="rgb(166,189,219)" paint-order="fill" d="M 74.5 233.5 L 75.4891357421875 232.8353729248047 L 76.47827911376953 232.158203125 L 77.46741485595703 231.48231506347656 L 78.45655822753906 230.80775451660156 L 79.44569396972656 230.13458251953125 L 80.4348373413086 229.46282958984375 L 81.4239730834961 228.7925567626953 L 82.41311645507812 228.12384033203125 L 83.40225219726562 227.45672607421875 L 84.39139556884766 226.79127502441406 L 85.38053131103516 226.12759399414062 L 86.36967468261719 225.46571350097656 L 87.35881042480469 224.80575561523438 L 88.34795379638672 224.1477813720703 L 89.33708953857422 223.49191284179688 L 90.32623291015625 222.83824157714844 L 91.31536865234375 222.18687438964844 L 92.30451202392578 221.5379638671875 L 93.29364776611328 220.89161682128906 L 94.28279113769531 220.2480010986328 L 95.27192687988281 219.60728454589844 L 96.26107025146484 218.96963500976562 L 97.25020599365234 218.33526611328125 L 98.23934936523438 217.7043914794922 L 99.22848510742188 217.07725524902344 L 100.2176284790039 216.45416259765625 L 101.2067642211914 215.8354034423828 L 102.19590759277344 215.2213592529297 L 103.18504333496094 214.61241149902344 L 104.17418670654297 214.009033203125 L 105.16332244873047 213.4117431640625 L 106.1524658203125 212.82118225097656 L 107.1416015625 212.238037109375 L 108.13074493408203 211.66314697265625 L 109.11988067626953 211.09750366210938 L 110.10902404785156 210.542236328125 L 111.09815979003906 209.99874877929688 L 112.0873031616211 209.4686737060547 L 113.0764389038086 208.9539794921875 L 114.06558227539062 208.45704650878906 L 115.05471801757812 207.98074340820312 L 116.04386138916016 207.52845764160156 L 117.03299713134766 207.10423278808594 L 118.02214050292969 206.71263122558594 L 119.01127624511719 206.358642578125 L 120.00041961669922 206.0471954345703 L 120.98955535888672 205.78231811523438 L 121.97869873046875 205.56610107421875 L 122.96783447265625 205.39759826660156 L 123.95697784423828 205.27244567871094 L 124.94611358642578 205.1836700439453 L 125.93525695800781 205.12313842773438 L 126.92439270019531 205.08314514160156 L 127.91353607177734 205.0573272705078 L 128.90267944335938 205.04090881347656 L 129.89181518554688 205.03060913085938 L 130.88095092773438 205.024169921875 L 131.87008666992188 205.02015686035156 L 132.85923767089844 205.01768493652344 L 133.84837341308594 205.01614379882812 L 134.83750915527344 205.01519775390625 L 135.82664489746094 205.01461791992188 L 136.8157958984375 205.01425170898438 L 137.804931640625 205.01402282714844 L 138.7940673828125 205.01388549804688 L 139.783203125 205.01380920410156 L 140.77235412597656 205.0137481689453 L 141.76148986816406 205.0137176513672 L 142.75062561035156 205.01370239257812 L 143.73976135253906 205.01368713378906 L 144.72891235351562 205.013671875 L 145.71804809570312 205.013671875 L 146.70718383789062 205.013671875 L 147.69631958007812 205.013671875 L 148.6854705810547 205.013671875 L 149.6746063232422 205.013671875 L 150.6637420654297 205.013671875 L 151.6528778076172 205.013671875 L 152.64202880859375 205.013671875 L 153.63116455078125 205.013671875 L 154.62030029296875 205.013671875 L 155.60943603515625 205.013671875 L 156.5985870361328 205.013671875 L 157.5877227783203 205.013671875 L 158.5768585205078 205.013671875 L 159.5659942626953 205.013671875 L 160.55514526367188 205.013671875 L 161.54428100585938 205.013671875 L 162.53341674804688 205.013671875 L 163.52255249023438 205.013671875 L 164.51170349121094 205.013671875 L 165.50083923339844 205.013671875 L 166.48997497558594 205.013671875 L 167.47911071777344 205.013671875 L 168.46824645996094 205.013671875 L 169.4573974609375 205.013671875 L 170.446533203125 205.013671875 L 171.4356689453125 205.013671875 L 172.4248046875 205.013671875 L 173.41395568847656 205.013671875 L 174.40309143066406 205.013671875 L 175.39222717285156 205.013671875 L 176.38136291503906 205.013671875 L 177.37051391601562 205.013671875 L 178.35964965820312 205.013671875 L 179.34878540039062 205.013671875 L 180.33792114257812 205.013671875 L 181.3270721435547 205.013671875 L 182.3162078857422 205.013671875 L 183.3053436279297 205.013671875 L 184.2944793701172 205.013671875 L 185.28363037109375 205.013671875 L 186.27276611328125 205.013671875 L 187.26190185546875 205.013671875 L 188.25103759765625 205.013671875 L 189.2401885986328 205.013671875 L 190.2293243408203 205.013671875 L 191.2184600830078 205.013671875 L 192.2075958251953 205.013671875 L 193.19674682617188 205.013671875 L 194.18588256835938 205.013671875 L 195.17501831054688 205.013671875 L 196.16415405273438 205.013671875 L 197.15330505371094 205.013671875 L 198.14244079589844 205.013671875 L 199.13157653808594 205.013671875 L 200.12071228027344 205.013671875 L 201.10986328125 205.013671875 L 202.0989990234375 205.013671875 L 203.088134765625 205.013671875 L 204.0772705078125 205.013671875 L 205.06642150878906 205.013671875 L 206.05555725097656 205.013671875 L 207.04469299316406 205.013671875 L 208.03382873535156 205.013671875 L 209.02297973632812 205.013671875 L 210.01211547851562 205.013671875 L 211.00125122070312 205.013671875 L 211.99038696289062 205.013671875 L 212.9795379638672 205.013671875 L 213.9686737060547 205.013671875 L 214.9578094482422 205.013671875 L 215.9469451904297 205.013671875 L 216.93609619140625 205.013671875 L 217.92523193359375 205.013671875 L 218.91436767578125 205.013671875 L 219.90350341796875 205.013671875 L 220.8926544189453 205.013671875 L 221.8817901611328 205.013671875 L 222.8709259033203 205.013671875 L 223.8600616455078 205.013671875 L 224.84921264648438 205.013671875 L 225.83834838867188 205.013671875 L 226.82748413085938 205.013671875 L 227.81661987304688 205.013671875 L 228.80577087402344 205.013671875 L 229.79490661621094 205.013671875 L 230.78404235839844 205.013671875 L 231.77317810058594 205.013671875 L 232.7623291015625 205.013671875 L 233.75146484375 205.013671875 L 234.7406005859375 205.013671875 L 235.729736328125 205.013671875 L 236.71888732910156 205.013671875 L 237.70802307128906 205.013671875 L 238.69715881347656 205.013671875 L 239.68629455566406 205.013671875 L 240.67544555664062 205.013671875 L 241.66458129882812 205.013671875 L 242.65371704101562 205.013671875 L 243.64285278320312 205.013671875 L 244.6320037841797 205.013671875 L 245.6211395263672 205.013671875 L 246.6102752685547 205.013671875 L 247.5994110107422 205.013671875 L 248.58856201171875 205.013671875 L 249.57769775390625 205.013671875 L 250.56683349609375 205.013671875 L 251.55596923828125 205.013671875 L 252.5451202392578 205.013671875 L 253.5342559814453 205.013671875 L 254.5233917236328 205.013671875 L 255.5125274658203 205.013671875 L 256.5016784667969 205.013671875 L 257.4908142089844 205.013671875 L 258.4799499511719 205.013671875 L 259.4690856933594 205.013671875 L 260.4582214355469 205.013671875 L 261.4473571777344 205.013671875 L 262.4364929199219 205.013671875 L 263.4256591796875 205.013671875 L 264.414794921875 205.013671875 L 265.4039306640625 205.013671875 L 266.39306640625 205.013671875 L 267.3822021484375 205.013671875 L 268.371337890625 205.013671875 L 269.3604736328125 205.013671875 L 270.349609375 205.013671875 L 271.3387756347656 205.013671875 L 272.3279113769531 205.013671875 L 273.3170471191406 205.013671875 L 274.3061828613281 205.013671875 L 275.2953186035156 205.013671875 L 276.2844543457031 205.013671875 L 277.2735900878906 205.013671875 L 278.2627258300781 205.013671875 L 279.25189208984375 205.013671875 L 280.24102783203125 205.013671875 L 281.23016357421875 205.013671875 L 282.21929931640625 205.013671875 L 283.20843505859375 205.013671875 L 284.19757080078125 205.013671875 L 285.18670654296875 205.013671875 L 286.17584228515625 205.013671875 L 287.1650085449219 205.013671875 L 288.1541442871094 205.013671875 L 289.1432800292969 205.013671875 L 290.1324157714844 205.013671875 L 291.1215515136719 205.013671875 L 292.1106872558594 205.013671875 L 293.0998229980469 205.013671875 L 294.0889587402344 205.013671875 L 295.078125 205.013671875 L 296.0672607421875 205.013671875 L 297.056396484375 205.013671875 L 298.0455322265625 205.013671875 L 299.03466796875 205.013671875 L 300.0238037109375 205.013671875 L 301.012939453125 205.013671875 L 302.0020751953125 205.013671875 L 302.9912414550781 205.013671875 L 303.9803771972656 205.013671875 L 304.9695129394531 205.013671875 L 305.9586486816406 205.013671875 L 306.9477844238281 205.013671875 L 307.9369201660156 205.013671875 L 308.9260559082031 205.013671875 L 309.9151916503906 205.013671875 L 310.90435791015625 205.013671875 L 311.89349365234375 205.013671875 L 312.88262939453125 205.013671875 L 313.87176513671875 205.013671875 L 314.86090087890625 205.013671875 L 315.85003662109375 205.013671875 L 316.83917236328125 205.013671875 L 317.82830810546875 205.013671875 L 318.8174743652344 205.013671875 L 319.8066101074219 205.013671875 L 320.7957458496094 205.013671875 L 321.7848815917969 205.013671875 L 322.7740173339844 205.013671875 L 323.7631530761719 205.013671875 L 324.7522888183594 205.013671875 L 325.7414245605469 205.013671875 L 326.7305908203125 205.013671875 L 327.7197265625 205.013671875 L 328.7088623046875 205.013671875 L 329.697998046875 205.013671875 L 330.6871337890625 205.013671875 L 331.67626953125 205.013671875 L 332.6654052734375 205.013671875 L 333.654541015625 205.013671875 L 334.6437072753906 205.013671875 L 335.6328430175781 205.013671875 L 336.6219787597656 205.013671875 L 337.6111145019531 205.013671875 L 338.6002502441406 205.013671875 L 339.5893859863281 205.013671875 L 340.5785217285156 205.013671875 L 341.5676574707031 205.013671875 L 342.55682373046875 205.013671875 L 343.54595947265625 205.013671875 L 344.53509521484375 205.013671875 L 345.52423095703125 205.013671875 L 346.51336669921875 205.013671875 L 347.50250244140625 205.013671875 L 348.49163818359375 205.013671875 L 349.48077392578125 205.013671875 L 350.46990966796875 205.013671875 L 351.4590759277344 205.013671875 L 352.4482116699219 205.013671875 L 353.4373474121094 205.013671875 L 354.4264831542969 205.013671875 L 355.4156188964844 205.013671875 L 356.4047546386719 205.013671875 L 357.3938903808594 205.013671875 L 358.3830261230469 205.013671875 L 359.3721923828125 205.013671875 L 360.361328125 205.013671875 L 361.3504638671875 205.013671875 L 362.339599609375 205.013671875 L 363.3287353515625 205.013671875 L 364.31787109375 205.013671875 L 365.3070068359375 205.013671875 L 366.296142578125 205.013671875 L 367.2853088378906 205.013671875 L 368.2744445800781 205.013671875 L 369.2635803222656 205.013671875 L 370.2527160644531 205.013671875 L 371.2418518066406 205.013671875 L 372.2309875488281 205.013671875 L 373.2201232910156 205.013671875 L 374.2092590332031 205.013671875 L 375.19842529296875 205.013671875 L 376.18756103515625 205.013671875 L 377.17669677734375 205.013671875 L 378.16583251953125 205.013671875 L 379.15496826171875 205.013671875 L 380.14410400390625 205.013671875 L 381.13323974609375 205.013671875 L 382.12237548828125 205.013671875 L 383.1115417480469 205.013671875 L 384.1006774902344 205.013671875 L 385.0898132324219 205.013671875 L 386.0789489746094 205.013671875 L 387.0680847167969 205.013671875 L 388.0572204589844 205.013671875 L 389.0463562011719 205.013671875 L 390.0354919433594 205.013671875 L 391.024658203125 205.013671875 L 392.0137939453125 205.013671875 L 393.0029296875 205.013671875 L 393.9920654296875 205.013671875 L 394.981201171875 205.013671875 L 395.9703369140625 205.013671875 L 396.95947265625 205.013671875 L 397.9486083984375 205.013671875 L 398.9377746582031 205.013671875 L 399.9269104003906 205.013671875 L 400.9160461425781 205.013671875 L 401.9051818847656 205.013671875 L 402.8943176269531 205.013671875 L 403.8834533691406 205.013671875 L 404.8725891113281 205.013671875 L 405.8617248535156 205.013671875 L 406.85089111328125 205.013671875 L 407.84002685546875 205.013671875 L 408.82916259765625 205.013671875 L 409.81829833984375 205.013671875 L 410.80743408203125 205.013671875 L 411.79656982421875 205.013671875 L 412.78570556640625 205.013671875 L 413.77484130859375 205.013671875 L 414.7640075683594 205.013671875 L 415.7531433105469 205.013671875 L 416.7422790527344 205.013671875 L 417.7314147949219 205.013671875 L 418.7205505371094 205.013671875 L 419.7096862792969 205.013671875 L 420.6988220214844 205.013671875 L 421.6879577636719 205.013671875 L 422.6771240234375 205.013671875 L 423.666259765625 205.013671875 L 424.6553955078125 205.013671875 L 425.64453125 205.013671875 L 426.6336669921875 205.013671875 L 427.622802734375 205.013671875 L 428.6119384765625 205.013671875 L 429.60107421875 205.013671875 L 430.5902404785156 205.013671875 L 431.5793762207031 205.013671875 L 432.5685119628906 205.013671875 L 433.5576477050781 205.013671875 L 434.5467834472656 205.013671875 L 435.5359191894531 205.013671875 L 436.5250549316406 205.013671875 L 437.5141906738281 205.013671875 L 438.50335693359375 205.013671875 L 439.49249267578125 205.013671875 L 440.48162841796875 205.013671875 L 441.47076416015625 205.013671875 L 442.45989990234375 205.013671875 L 443.44903564453125 205.013671875 L 444.43817138671875 205.013671875 L 445.42730712890625 205.013671875 L 446.41644287109375 205.013671875 L 447.4056091308594 205.013671875 L 448.3947448730469 205.013671875 L 449.3838806152344 205.013671875 L 450.3730163574219 205.013671875 L 451.3621520996094 205.013671875 L 452.3512878417969 205.013671875 L 453.3404235839844 205.013671875 L 454.3295593261719 205.013671875 L 455.3187255859375 205.013671875 L 456.307861328125 205.013671875 L 457.2969970703125 205.013671875 L 458.2861328125 205.013671875 L 459.2752685546875 205.013671875 L 460.264404296875 205.013671875 L 461.2535400390625 205.013671875 L 462.24267578125 205.013671875 L 463.2318420410156 205.013671875 L 464.2209777832031 205.013671875 L 465.2101135253906 205.013671875 L 466.1992492675781 205.013671875 L 467.1883850097656 205.013671875 L 468.1775207519531 205.013671875 L 469.1666564941406 205.013671875" stroke-opacity="0.8" stroke-linejoin="bevel" stroke-miterlimit="10" stroke-width="3" stroke-dasharray="" clip-path="url(#qTuZxPVUwaaJ)"/><path fill="none" stroke="rgb(0,0,0)" paint-order="fill" d="M 74.5 233.5 L 370.5 233.5" stroke-opacity="1" stroke-linejoin="bevel" stroke-miterlimit="10" stroke-dasharray=""/><path fill="none" stroke="rgb(0,0,0)" paint-order="fill" d="M 74.5 239.5 L 74.5 231.5 M 123.5 239.5 L 123.5 231.5 M 173.5 239.5 L 173.5 231.5 M 222.5 239.5 L 222.5 231.5 M 271.5 239.5 L 271.5 231.5 M 321.5 239.5 L 321.5 231.5 M 370.5 239.5 L 370.5 231.5" stroke-opacity="1" stroke-linejoin="bevel" stroke-miterlimit="10" stroke-dasharray=""/><path fill="none" stroke="rgb(0,0,0)" paint-order="fill" d="M 74.5 237.5 L 74.5 233.5 M 84.5 237.5 L 84.5 233.5 M 94.5 237.5 L 94.5 233.5 M 104.5 237.5 L 104.5 233.5 M 113.5 237.5 L 113.5 233.5 M 123.5 237.5 L 123.5 233.5 M 133.5 237.5 L 133.5 233.5 M 143.5 237.5 L 143.5 233.5 M 153.5 237.5 L 153.5 233.5 M 163.5 237.5 L 163.5 233.5 M 173.5 237.5 L 173.5 233.5 M 183.5 237.5 L 183.5 233.5 M 192.5 237.5 L 192.5 233.5 M 202.5 237.5 L 202.5 233.5 M 212.5 237.5 L 212.5 233.5 M 222.5 237.5 L 222.5 233.5 M 232.5 237.5 L 232.5 233.5 M 242.5 237.5 L 242.5 233.5 M 252.5 237.5 L 252.5 233.5 M 261.5 237.5 L 261.5 233.5 M 271.5 237.5 L 271.5 233.5 M 281.5 237.5 L 281.5 233.5 M 291.5 237.5 L 291.5 233.5 M 301.5 237.5 L 301.5 233.5 M 311.5 237.5 L 311.5 233.5 M 321.5 237.5 L 321.5 233.5 M 331.5 237.5 L 331.5 233.5 M 340.5 237.5 L 340.5 233.5 M 350.5 237.5 L 350.5 233.5 M 360.5 237.5 L 360.5 233.5 M 370.5 237.5 L 370.5 233.5" stroke-opacity="1" stroke-linejoin="bevel" stroke-miterlimit="10" stroke-dasharray=""/><text fill="rgb(68,68,68)" stroke="none" font-family="Work Sans" font-size="15pt" font-style="normal" font-weight="normal" text-decoration="normal" x="69" y="257" text-anchor="start" dominant-baseline="alphabetic" transform="matrix(1, 0, 0, 1, 0.5, 0.5)" fill-opacity="1">0</text><text fill="rgb(68,68,68)" stroke="none" font-family="Work Sans" font-size="15pt" font-style="normal" font-weight="normal" text-decoration="normal" x="110.83333587646484" y="257" text-anchor="start" dominant-baseline="alphabetic" transform="matrix(1, 0, 0, 1, 0.5, 0.5)" fill-opacity="1">0.5</text><text fill="rgb(68,68,68)" stroke="none" font-family="Work Sans" font-size="15pt" font-style="normal" font-weight="normal" text-decoration="normal" x="167.6666717529297" y="257" text-anchor="start" dominant-baseline="alphabetic" transform="matrix(1, 0, 0, 1, 0.5, 0.5)" fill-opacity="1">1</text><text fill="rgb(68,68,68)" stroke="none" font-family="Work Sans" font-size="15pt" font-style="normal" font-weight="normal" text-decoration="normal" x="209.5" y="257" text-anchor="start" dominant-baseline="alphabetic" transform="matrix(1, 0, 0, 1, 0.5, 0.5)" fill-opacity="1">1.5</text><text fill="rgb(68,68,68)" stroke="none" font-family="Work Sans" font-size="15pt" font-style="normal" font-weight="normal" text-decoration="normal" x="266.3333435058594" y="257" text-anchor="start" dominant-baseline="alphabetic" transform="matrix(1, 0, 0, 1, 0.5, 0.5)" fill-opacity="1">2</text><text fill="rgb(68,68,68)" stroke="none" font-family="Work Sans" font-size="15pt" font-style="normal" font-weight="normal" text-decoration="normal" x="308.1666564941406" y="257" text-anchor="start" dominant-baseline="alphabetic" transform="matrix(1, 0, 0, 1, 0.5, 0.5)" fill-opacity="1">2.5</text><text fill="rgb(68,68,68)" stroke="none" font-family="Work Sans" font-size="15pt" font-style="normal" font-weight="normal" text-decoration="normal" x="365" y="257" text-anchor="start" dominant-baseline="alphabetic" transform="matrix(1, 0, 0, 1, 0.5, 0.5)" fill-opacity="1">3</text><text fill="rgb(68,68,68)" stroke="none" font-family="helvetica" font-size="15pt" font-style="normal" font-weight="normal" text-decoration="normal" x="165.6962890625" y="293" text-anchor="start" dominant-baseline="alphabetic" transform="matrix(1, 0, 0, 1, 0.5, 0.5)" fill-opacity="1">Time (hours)</text><path fill="none" stroke="rgb(0,0,0)" paint-order="fill" d="M 74.5 233.5 L 74.5 5.5" stroke-opacity="1" stroke-linejoin="bevel" stroke-miterlimit="10" stroke-dasharray=""/><path fill="none" stroke="rgb(0,0,0)" paint-order="fill" d="M 68.5 233.5 L 76.5 233.5 M 68.5 205.5 L 76.5 205.5 M 68.5 176.5 L 76.5 176.5 M 68.5 148.5 L 76.5 148.5 M 68.5 119.5 L 76.5 119.5 M 68.5 91.5 L 76.5 91.5 M 68.5 62.5 L 76.5 62.5 M 68.5 34.5 L 76.5 34.5 M 68.5 5.5 L 76.5 5.5" stroke-opacity="1" stroke-linejoin="bevel" stroke-miterlimit="10" stroke-dasharray=""/><path fill="none" stroke="rgb(0,0,0)" paint-order="fill" d="M 70.5 233.5 L 74.5 233.5 M 70.5 227.5 L 74.5 227.5 M 70.5 222.5 L 74.5 222.5 M 70.5 216.5 L 74.5 216.5 M 70.5 210.5 L 74.5 210.5 M 70.5 205.5 L 74.5 205.5 M 70.5 199.5 L 74.5 199.5 M 70.5 193.5 L 74.5 193.5 M 70.5 187.5 L 74.5 187.5 M 70.5 182.5 L 74.5 182.5 M 70.5 176.5 L 74.5 176.5 M 70.5 170.5 L 74.5 170.5 M 70.5 165.5 L 74.5 165.5 M 70.5 159.5 L 74.5 159.5 M 70.5 153.5 L 74.5 153.5 M 70.5 148.5 L 74.5 148.5 M 70.5 142.5 L 74.5 142.5 M 70.5 136.5 L 74.5 136.5 M 70.5 130.5 L 74.5 130.5 M 70.5 125.5 L 74.5 125.5 M 70.5 119.5 L 74.5 119.5 M 70.5 113.5 L 74.5 113.5 M 70.5 108.5 L 74.5 108.5 M 70.5 102.5 L 74.5 102.5 M 70.5 96.5 L 74.5 96.5 M 70.5 91.5 L 74.5 91.5 M 70.5 85.5 L 74.5 85.5 M 70.5 79.5 L 74.5 79.5 M 70.5 73.5 L 74.5 73.5 M 70.5 68.5 L 74.5 68.5 M 70.5 62.5 L 74.5 62.5 M 70.5 56.5 L 74.5 56.5 M 70.5 51.5 L 74.5 51.5 M 70.5 45.5 L 74.5 45.5 M 70.5 39.5 L 74.5 39.5 M 70.5 34.5 L 74.5 34.5 M 70.5 28.5 L 74.5 28.5 M 70.5 22.5 L 74.5 22.5 M 70.5 16.5 L 74.5 16.5 M 70.5 11.5 L 74.5 11.5 M 70.5 5.5 L 74.5 5.5" stroke-opacity="1" stroke-linejoin="bevel" stroke-miterlimit="10" stroke-dasharray=""/><text fill="rgb(68,68,68)" stroke="none" font-family="Work Sans" font-size="15pt" font-style="normal" font-weight="normal" text-decoration="normal" x="53" y="239.5" text-anchor="start" dominant-baseline="alphabetic" transform="matrix(1, 0, 0, 1, 0.5, 0.5)" fill-opacity="1">0</text><text fill="rgb(68,68,68)" stroke="none" font-family="Work Sans" font-size="15pt" font-style="normal" font-weight="normal" text-decoration="normal" x="53" y="211" text-anchor="start" dominant-baseline="alphabetic" transform="matrix(1, 0, 0, 1, 0.5, 0.5)" fill-opacity="1">5</text><text fill="rgb(68,68,68)" stroke="none" font-family="Work Sans" font-size="15pt" font-style="normal" font-weight="normal" text-decoration="normal" x="43" y="182.5" text-anchor="start" dominant-baseline="alphabetic" transform="matrix(1, 0, 0, 1, 0.5, 0.5)" fill-opacity="1">10</text><text fill="rgb(68,68,68)" stroke="none" font-family="Work Sans" font-size="15pt" font-style="normal" font-weight="normal" text-decoration="normal" x="43" y="154" text-anchor="start" dominant-baseline="alphabetic" transform="matrix(1, 0, 0, 1, 0.5, 0.5)" fill-opacity="1">15</text><text fill="rgb(68,68,68)" stroke="none" font-family="Work Sans" font-size="15pt" font-style="normal" font-weight="normal" text-decoration="normal" x="43" y="125.5" text-anchor="start" dominant-baseline="alphabetic" transform="matrix(1, 0, 0, 1, 0.5, 0.5)" fill-opacity="1">20</text><text fill="rgb(68,68,68)" stroke="none" font-family="Work Sans" font-size="15pt" font-style="normal" font-weight="normal" text-decoration="normal" x="43" y="97" text-anchor="start" dominant-baseline="alphabetic" transform="matrix(1, 0, 0, 1, 0.5, 0.5)" fill-opacity="1">25</text><text fill="rgb(68,68,68)" stroke="none" font-family="Work Sans" font-size="15pt" font-style="normal" font-weight="normal" text-decoration="normal" x="43" y="68.5" text-anchor="start" dominant-baseline="alphabetic" transform="matrix(1, 0, 0, 1, 0.5, 0.5)" fill-opacity="1">30</text><text fill="rgb(68,68,68)" stroke="none" font-family="Work Sans" font-size="15pt" font-style="normal" font-weight="normal" text-decoration="normal" x="43" y="40" text-anchor="start" dominant-baseline="alphabetic" transform="matrix(1, 0, 0, 1, 0.5, 0.5)" fill-opacity="1">35</text><text fill="rgb(68,68,68)" stroke="none" font-family="Work Sans" font-size="15pt" font-style="normal" font-weight="normal" text-decoration="normal" x="43" y="13" text-anchor="start" dominant-baseline="alphabetic" transform="matrix(1, 0, 0, 1, 0.5, 0.5)" fill-opacity="1">40</text><text fill="rgb(68,68,68)" stroke="none" font-family="helvetica" font-size="15pt" font-style="normal" font-weight="normal" text-decoration="normal" x="-19.6435546875" y="115" text-anchor="start" dominant-baseline="alphabetic" transform="matrix(6.123233995736766e-17, -1, 1, 6.123233995736766e-17, -93.5, 144.5)" fill-opacity="1">RNA (M)</text><path fill="rgb(255,255,255)" stroke="none" paint-order="stroke" d="M 84.5 15.5 L 142.43441772460938 15.5 L 142.43441772460938 120.5 L 84.5 120.5 L 84.5 15.5" fill-opacity="0.9490196078431372" clip-path="url(#hSZUVVtxxolv)"/><text fill="rgb(68,68,68)" stroke="none" font-family="helvetica" font-size="10pt" font-style="normal" font-weight="normal" text-decoration="normal" x="109" y="25" text-anchor="start" dominant-baseline="central" clip-path="url(#hSZUVVtxxolv)" transform="matrix(1, 0, 0, 1, 0.5, 0.5)" fill-opacity="1">10^0</text><path fill="none" stroke="rgb(255,0,255)" paint-order="fill" d="M 84.5 25.5 L 104.5 25.5" stroke-opacity="0.8" stroke-linejoin="bevel" stroke-miterlimit="10" stroke-width="3" stroke-dasharray="" clip-path="url(#hSZUVVtxxolv)"/><text fill="rgb(68,68,68)" stroke="none" font-family="helvetica" font-size="10pt" font-style="normal" font-weight="normal" text-decoration="normal" x="109" y="42" text-anchor="start" dominant-baseline="central" clip-path="url(#hSZUVVtxxolv)" transform="matrix(1, 0, 0, 1, 0.5, 0.5)" fill-opacity="1">10^-1</text><path fill="none" stroke="rgb(1,100,80)" paint-order="fill" d="M 84.5 42.5 L 104.5 42.5" stroke-opacity="0.8" stroke-linejoin="bevel" stroke-miterlimit="10" stroke-width="3" stroke-dasharray="2,4" clip-path="url(#hSZUVVtxxolv)"/><text fill="rgb(68,68,68)" stroke="none" font-family="helvetica" font-size="10pt" font-style="normal" font-weight="normal" text-decoration="normal" x="109" y="59" text-anchor="start" dominant-baseline="central" clip-path="url(#hSZUVVtxxolv)" transform="matrix(1, 0, 0, 1, 0.5, 0.5)" fill-opacity="1">10^-2</text><path fill="none" stroke="rgb(2,129,138)" paint-order="fill" d="M 84.5 59.5 L 104.5 59.5" stroke-opacity="0.8" stroke-linejoin="bevel" stroke-miterlimit="10" stroke-width="3" stroke-dasharray="2,4,6,4" clip-path="url(#hSZUVVtxxolv)"/><text fill="rgb(68,68,68)" stroke="none" font-family="helvetica" font-size="10pt" font-style="normal" font-weight="normal" text-decoration="normal" x="109" y="76" text-anchor="start" dominant-baseline="central" clip-path="url(#hSZUVVtxxolv)" transform="matrix(1, 0, 0, 1, 0.5, 0.5)" fill-opacity="1">10^-3</text><path fill="none" stroke="rgb(54,144,192)" paint-order="fill" d="M 84.5 76.5 L 104.5 76.5" stroke-opacity="0.8" stroke-linejoin="bevel" stroke-miterlimit="10" stroke-width="3" stroke-dasharray="6,4,2,4" clip-path="url(#hSZUVVtxxolv)"/><text fill="rgb(68,68,68)" stroke="none" font-family="helvetica" font-size="10pt" font-style="normal" font-weight="normal" text-decoration="normal" x="109" y="93" text-anchor="start" dominant-baseline="central" clip-path="url(#hSZUVVtxxolv)" transform="matrix(1, 0, 0, 1, 0.5, 0.5)" fill-opacity="1">10^-4</text><path fill="none" stroke="rgb(103,169,207)" paint-order="fill" d="M 84.5 93.5 L 104.5 93.5" stroke-opacity="0.8" stroke-linejoin="bevel" stroke-miterlimit="10" stroke-width="3" stroke-dasharray="6" clip-path="url(#hSZUVVtxxolv)"/><text fill="rgb(68,68,68)" stroke="none" font-family="helvetica" font-size="10pt" font-style="normal" font-weight="normal" text-decoration="normal" x="109" y="110" text-anchor="start" dominant-baseline="central" clip-path="url(#hSZUVVtxxolv)" transform="matrix(1, 0, 0, 1, 0.5, 0.5)" fill-opacity="1">10^-5</text><path fill="none" stroke="rgb(166,189,219)" paint-order="fill" d="M 84.5 110.5 L 104.5 110.5" stroke-opacity="0.8" stroke-linejoin="bevel" stroke-miterlimit="10" stroke-width="3" stroke-dasharray="" clip-path="url(#hSZUVVtxxolv)"/></svg>