<svg version="1.1" xmlns="http://www.w3.org/2000/svg" width="450" height="300"><defs><clipPath id="pgecnIDIccBS"><path fill="none" stroke="none" d="M 73.5 5.5 L 445.5 5.5 L 445.5 185.5 L 73.5 185.5 L 73.5 5.5"/></clipPath><clipPath id="ODLhChXoATtw"><path fill="none" stroke="none" d="M 73.5 5.5 L 445.5 5.5 L 445.5 185.5 L 73.5 185.5 L 73.5 5.5"/></clipPath><clipPath id="gBzhcBLBPEln"><path fill="none" stroke="none" d="M 73.5 5.5 L 445.5 5.5 L 445.5 185.5 L 73.5 185.5 L 73.5 5.5"/></clipPath></defs><path fill="rgb(255,255,255)" stroke="none" paint-order="stroke" d="M 0.5 0.5 L 450.5 0.5 L 450.5 300.5 L 0.5 300.5 L 0.5 0.5" fill-opacity="1"/><rect fill="#FFFFFF" stroke="none" x="73" y="5" width="372" height="180" transform="matrix(1, 0, 0, 1, 0.5, 0.5)"/><path fill="rgb(255,255,255)" stroke="none" paint-order="stroke" d="M 73.5 5.5 L 445.5 5.5 L 445.5 185.5 L 73.5 185.5 L 73.5 5.5" fill-opacity="1"/><path fill="rgb(255,0,255)" stroke="none" paint-order="stroke" d="M 91.00870513916016 34.831268310546875 L 101.8017349243164 34.831268310546875 L 101.8017349243164 185.5 L 91.00870513916016 185.5 L 91.00870513916016 34.831268310546875" fill-opacity="0.5019607843137255" clip-path="url(#gBzhcBLBPEln)"/><path fill="rgb(1,100,80)" stroke="none" paint-order="stroke" d="M 103.00096893310547 34.74844741821289 L 113.79399871826172 34.74844741821289 L 113.79399871826172 185.5 L 103.00096893310547 185.5 L 103.00096893310547 34.74844741821289" fill-opacity="0.5019607843137255" clip-path="url(#gBzhcBLBPEln)"/><path fill="rgb(2,129,138)" stroke="none" paint-order="stroke" d="M 114.99323272705078 34.06640625 L 125.78626251220703 34.06640625 L 125.78626251220703 185.5 L 114.99323272705078 185.5 L 114.99323272705078 34.06640625" fill-opacity="0.5019607843137255" clip-path="url(#gBzhcBLBPEln)"/><path fill="rgb(54,144,192)" stroke="none" paint-order="stroke" d="M 126.98550415039062 31.863994598388672 L 137.77853393554688 31.863994598388672 L 137.77853393554688 185.5 L 126.98550415039062 185.5 L 126.98550415039062 31.863994598388672" fill-opacity="0.5019607843137255" clip-path="url(#gBzhcBLBPEln)"/><path fill="rgb(103,169,207)" stroke="none" paint-order="stroke" d="M 138.97775268554688 36.828895568847656 L 149.77078247070312 36.828895568847656 L 149.77078247070312 185.5 L 138.97775268554688 185.5 L 138.97775268554688 36.828895568847656" fill-opacity="0.5019607843137255" clip-path="url(#gBzhcBLBPEln)"/><path fill="rgb(166,189,219)" stroke="none" paint-order="stroke" d="M 150.9700164794922 43.145263671875 L 161.76304626464844 43.145263671875 L 161.76304626464844 185.5 L 150.9700164794922 185.5 L 150.9700164794922 43.145263671875" fill-opacity="0.5019607843137255" clip-path="url(#gBzhcBLBPEln)"/><path fill="rgb(255,0,255)" stroke="none" paint-order="stroke" d="M 179.75144958496094 14.071428298950195 L 190.5444793701172 14.071428298950195 L 190.5444793701172 185.5 L 179.75144958496094 185.5 L 179.75144958496094 14.071428298950195" fill-opacity="0.5019607843137255" clip-path="url(#gBzhcBLBPEln)"/><path fill="rgb(1,100,80)" stroke="none" paint-order="stroke" d="M 191.74371337890625 14.071429252624512 L 202.5367431640625 14.071429252624512 L 202.5367431640625 185.5 L 191.74371337890625 185.5 L 191.74371337890625 14.071429252624512" fill-opacity="0.5019607843137255" clip-path="url(#gBzhcBLBPEln)"/><path fill="rgb(2,129,138)" stroke="none" paint-order="stroke" d="M 203.73597717285156 14.071429252624512 L 214.5290069580078 14.071429252624512 L 214.5290069580078 185.5 L 203.73597717285156 185.5 L 203.73597717285156 14.071429252624512" fill-opacity="0.5019607843137255" clip-path="url(#gBzhcBLBPEln)"/><path fill="rgb(54,144,192)" stroke="none" paint-order="stroke" d="M 215.72824096679688 14.071429252624512 L 226.52127075195312 14.071429252624512 L 226.52127075195312 185.5 L 215.72824096679688 185.5 L 215.72824096679688 14.071429252624512" fill-opacity="0.5019607843137255" clip-path="url(#gBzhcBLBPEln)"/><path fill="rgb(103,169,207)" stroke="none" paint-order="stroke" d="M 227.7205047607422 14.071429252624512 L 238.51353454589844 14.071429252624512 L 238.51353454589844 185.5 L 227.7205047607422 185.5 L 227.7205047607422 14.071429252624512" fill-opacity="0.5019607843137255" clip-path="url(#gBzhcBLBPEln)"/><path fill="rgb(166,189,219)" stroke="none" paint-order="stroke" d="M 239.7127685546875 14.071429252624512 L 250.50579833984375 14.071429252624512 L 250.50579833984375 185.5 L 239.7127685546875 185.5 L 239.7127685546875 14.071429252624512" fill-opacity="0.5019607843137255" clip-path="url(#gBzhcBLBPEln)"/><path fill="rgb(255,0,255)" stroke="none" paint-order="stroke" d="M 268.49420166015625 99.32374572753906 L 279.2872314453125 99.32374572753906 L 279.2872314453125 185.5 L 268.49420166015625 185.5 L 268.49420166015625 99.32374572753906" fill-opacity="0.5019607843137255" clip-path="url(#gBzhcBLBPEln)"/><path fill="rgb(1,100,80)" stroke="none" paint-order="stroke" d="M 280.4864501953125 99.32374572753906 L 291.27947998046875 99.32374572753906 L 291.27947998046875 185.5 L 280.4864501953125 185.5 L 280.4864501953125 99.32374572753906" fill-opacity="0.5019607843137255" clip-path="url(#gBzhcBLBPEln)"/><path fill="rgb(2,129,138)" stroke="none" paint-order="stroke" d="M 292.4787292480469 99.32374572753906 L 303.2717590332031 99.32374572753906 L 303.2717590332031 185.5 L 292.4787292480469 185.5 L 292.4787292480469 99.32374572753906" fill-opacity="0.5019607843137255" clip-path="url(#gBzhcBLBPEln)"/><path fill="rgb(54,144,192)" stroke="none" paint-order="stroke" d="M 304.4709777832031 99.32374572753906 L 315.2640075683594 99.32374572753906 L 315.2640075683594 185.5 L 304.4709777832031 185.5 L 304.4709777832031 99.32374572753906" fill-opacity="0.5019607843137255" clip-path="url(#gBzhcBLBPEln)"/><path fill="rgb(103,169,207)" stroke="none" paint-order="stroke" d="M 316.4632568359375 99.32374572753906 L 327.25628662109375 99.32374572753906 L 327.25628662109375 185.5 L 316.4632568359375 185.5 L 316.4632568359375 99.32374572753906" fill-opacity="0.5019607843137255" clip-path="url(#gBzhcBLBPEln)"/><path fill="rgb(166,189,219)" stroke="none" paint-order="stroke" d="M 328.45550537109375 99.32374572753906 L 339.24853515625 99.32374572753906 L 339.24853515625 185.5 L 328.45550537109375 185.5 L 328.45550537109375 99.32374572753906" fill-opacity="0.5019607843137255" clip-path="url(#gBzhcBLBPEln)"/><path fill="rgb(255,0,255)" stroke="none" paint-order="stroke" d="M 357.2369689941406 151.03125 L 368.0299987792969 151.03125 L 368.0299987792969 185.5 L 357.2369689941406 185.5 L 357.2369689941406 151.03125" fill-opacity="0.5019607843137255" clip-path="url(#gBzhcBLBPEln)"/><path fill="rgb(1,100,80)" stroke="none" paint-order="stroke" d="M 369.2292175292969 151.03125 L 380.0222473144531 151.03125 L 380.0222473144531 185.5 L 369.2292175292969 185.5 L 369.2292175292969 151.03125" fill-opacity="0.5019607843137255" clip-path="url(#gBzhcBLBPEln)"/><path fill="rgb(2,129,138)" stroke="none" paint-order="stroke" d="M 381.22149658203125 151.03125 L 392.0145263671875 151.03125 L 392.0145263671875 185.5 L 381.22149658203125 185.5 L 381.22149658203125 151.03125" fill-opacity="0.5019607843137255" clip-path="url(#gBzhcBLBPEln)"/><path fill="rgb(54,144,192)" stroke="none" paint-order="stroke" d="M 393.2137451171875 151.03125 L 404.00677490234375 151.03125 L 404.00677490234375 185.5 L 393.2137451171875 185.5 L 393.2137451171875 151.03125" fill-opacity="0.5019607843137255" clip-path="url(#gBzhcBLBPEln)"/><path fill="rgb(103,169,207)" stroke="none" paint-order="stroke" d="M 405.20599365234375 151.03125 L 415.9990234375 151.03125 L 415.9990234375 185.5 L 405.20599365234375 185.5 L 405.20599365234375 151.03125" fill-opacity="0.5019607843137255" clip-path="url(#gBzhcBLBPEln)"/><path fill="rgb(166,189,219)" stroke="none" paint-order="stroke" d="M 417.1982727050781 151.03125 L 427.9913024902344 151.03125 L 427.9913024902344 185.5 L 417.1982727050781 185.5 L 417.1982727050781 151.03125" fill-opacity="0.5019607843137255" clip-path="url(#gBzhcBLBPEln)"/><path fill="none" stroke="rgb(0,0,0)" paint-order="fill" d="M 73.5 185.5 L 445.5 185.5" stroke-opacity="1" stroke-linejoin="bevel" stroke-miterlimit="10" stroke-dasharray=""/><path fill="none" stroke="rgb(0,0,0)" paint-order="fill" d="M 96.5 191.5 L 96.5 183.5 M 108.5 191.5 L 108.5 183.5 M 120.5 191.5 L 120.5 183.5 M 132.5 191.5 L 132.5 183.5 M 144.5 191.5 L 144.5 183.5 M 156.5 191.5 L 156.5 183.5 M 185.5 191.5 L 185.5 183.5 M 197.5 191.5 L 197.5 183.5 M 209.5 191.5 L 209.5 183.5 M 221.5 191.5 L 221.5 183.5 M 233.5 191.5 L 233.5 183.5 M 245.5 191.5 L 245.5 183.5 M 273.5 191.5 L 273.5 183.5 M 285.5 191.5 L 285.5 183.5 M 297.5 191.5 L 297.5 183.5 M 309.5 191.5 L 309.5 183.5 M 321.5 191.5 L 321.5 183.5 M 333.5 191.5 L 333.5 183.5 M 362.5 191.5 L 362.5 183.5 M 374.5 191.5 L 374.5 183.5 M 386.5 191.5 L 386.5 183.5 M 398.5 191.5 L 398.5 183.5 M 410.5 191.5 L 410.5 183.5 M 422.5 191.5 L 422.5 183.5" stroke-opacity="1" stroke-linejoin="bevel" stroke-miterlimit="10" stroke-dasharray=""/><path fill="none" stroke="rgb(0,0,0)" paint-order="fill" d="" stroke-opacity="1" stroke-linejoin="bevel" stroke-miterlimit="10" stroke-dasharray=""/><text fill="rgb(68,68,68)" stroke="none" font-family="helvetica" font-size="13px" font-style="normal" font-weight="normal" text-decoration="normal" x="74.21527862548828" y="201" text-anchor="start" dominant-baseline="alphabetic" transform="matrix(0.5403023058681398, -0.8414709848078965, 0.8414709848078965, 0.5403023058681398, -120.34090451854894, 171.30220799816942)" fill-opacity="1">1e0</text><text fill="rgb(68,68,68)" stroke="none" font-family="helvetica" font-size="13px" font-style="normal" font-weight="normal" text-decoration="normal" x="81.8784408569336" y="201" text-anchor="start" dominant-baseline="alphabetic" transform="matrix(0.5403023058681398, -0.8414709848078965, 0.8414709848078965, 0.5403023058681398, -114.82808850505128, 181.39335002293666)" fill-opacity="1">1e-1</text><text fill="rgb(68,68,68)" stroke="none" font-family="helvetica" font-size="13px" font-style="normal" font-weight="normal" text-decoration="normal" x="93.8707046508789" y="201" text-anchor="start" dominant-baseline="alphabetic" transform="matrix(0.5403023058681398, -0.8414709848078965, 0.8414709848078965, 0.5403023058681398, -109.31527249155363, 191.4844920477039)" fill-opacity="1">1e-2</text><text fill="rgb(68,68,68)" stroke="none" font-family="helvetica" font-size="13px" font-style="normal" font-weight="normal" text-decoration="normal" x="105.86297607421875" y="201" text-anchor="start" dominant-baseline="alphabetic" transform="matrix(0.5403023058681398, -0.8414709848078965, 0.8414709848078965, 0.5403023058681398, -103.80245297084087, 201.57564049238528)" fill-opacity="1">1e-3</text><text fill="rgb(68,68,68)" stroke="none" font-family="helvetica" font-size="13px" font-style="normal" font-weight="normal" text-decoration="normal" x="117.855224609375" y="201" text-anchor="start" dominant-baseline="alphabetic" transform="matrix(0.5403023058681398, -0.8414709848078965, 0.8414709848078965, 0.5403023058681398, -98.28964397177339, 211.66676967732428)" fill-opacity="1">1e-4</text><text fill="rgb(68,68,68)" stroke="none" font-family="helvetica" font-size="13px" font-style="normal" font-weight="normal" text-decoration="normal" x="129.8474884033203" y="201" text-anchor="start" dominant-baseline="alphabetic" transform="matrix(0.5403023058681398, -0.8414709848078965, 0.8414709848078965, 0.5403023058681398, -92.77682795827573, 221.75791170209152)" fill-opacity="1">1e-5</text><text fill="rgb(68,68,68)" stroke="none" font-family="helvetica" font-size="13px" font-style="normal" font-weight="normal" text-decoration="normal" x="162.95802307128906" y="201" text-anchor="start" dominant-baseline="alphabetic" transform="matrix(0.5403023058681398, -0.8414709848078965, 0.8414709848078965, 0.5403023058681398, -79.54606952588136, 245.9766525615329)" fill-opacity="1">1e0</text><text fill="rgb(68,68,68)" stroke="none" font-family="helvetica" font-size="13px" font-style="normal" font-weight="normal" text-decoration="normal" x="170.62118530273438" y="201" text-anchor="start" dominant-baseline="alphabetic" transform="matrix(0.5403023058681398, -0.8414709848078965, 0.8414709848078965, 0.5403023058681398, -74.03325351238368, 256.0677945863001)" fill-opacity="1">1e-1</text><text fill="rgb(68,68,68)" stroke="none" font-family="helvetica" font-size="13px" font-style="normal" font-weight="normal" text-decoration="normal" x="182.6134490966797" y="201" text-anchor="start" dominant-baseline="alphabetic" transform="matrix(0.5403023058681398, -0.8414709848078965, 0.8414709848078965, 0.5403023058681398, -68.52043749888605, 266.15893661106736)" fill-opacity="1">1e-2</text><text fill="rgb(68,68,68)" stroke="none" font-family="helvetica" font-size="13px" font-style="normal" font-weight="normal" text-decoration="normal" x="194.605712890625" y="201" text-anchor="start" dominant-baseline="alphabetic" transform="matrix(0.5403023058681398, -0.8414709848078965, 0.8414709848078965, 0.5403023058681398, -63.00762148538843, 276.2500786358346)" fill-opacity="1">1e-3</text><text fill="rgb(68,68,68)" stroke="none" font-family="helvetica" font-size="13px" font-style="normal" font-weight="normal" text-decoration="normal" x="206.5979766845703" y="201" text-anchor="start" dominant-baseline="alphabetic" transform="matrix(0.5403023058681398, -0.8414709848078965, 0.8414709848078965, 0.5403023058681398, -57.49480547189074, 286.34122066060183)" fill-opacity="1">1e-4</text><text fill="rgb(68,68,68)" stroke="none" font-family="helvetica" font-size="13px" font-style="normal" font-weight="normal" text-decoration="normal" x="218.59024047851562" y="201" text-anchor="start" dominant-baseline="alphabetic" transform="matrix(0.5403023058681398, -0.8414709848078965, 0.8414709848078965, 0.5403023058681398, -51.98198945839306, 296.4323626853691)" fill-opacity="1">1e-5</text><text fill="rgb(68,68,68)" stroke="none" font-family="helvetica" font-size="13px" font-style="normal" font-weight="normal" text-decoration="normal" x="251.70077514648438" y="201" text-anchor="start" dominant-baseline="alphabetic" transform="matrix(0.5403023058681398, -0.8414709848078965, 0.8414709848078965, 0.5403023058681398, -38.75123102599872, 320.6511035448105)" fill-opacity="1">1e0</text><text fill="rgb(68,68,68)" stroke="none" font-family="helvetica" font-size="13px" font-style="normal" font-weight="normal" text-decoration="normal" x="259.3639221191406" y="201" text-anchor="start" dominant-baseline="alphabetic" transform="matrix(0.5403023058681398, -0.8414709848078965, 0.8414709848078965, 0.5403023058681398, -33.238422026931175, 330.7422327297495)" fill-opacity="1">1e-1</text><text fill="rgb(68,68,68)" stroke="none" font-family="helvetica" font-size="13px" font-style="normal" font-weight="normal" text-decoration="normal" x="271.356201171875" y="201" text-anchor="start" dominant-baseline="alphabetic" transform="matrix(0.5403023058681398, -0.8414709848078965, 0.8414709848078965, 0.5403023058681398, -27.72559899900341, 340.833387594345)" fill-opacity="1">1e-2</text><text fill="rgb(68,68,68)" stroke="none" font-family="helvetica" font-size="13px" font-style="normal" font-weight="normal" text-decoration="normal" x="283.34844970703125" y="201" text-anchor="start" dominant-baseline="alphabetic" transform="matrix(0.5403023058681398, -0.8414709848078965, 0.8414709848078965, 0.5403023058681398, -22.21278999993592, 350.924516779284)" fill-opacity="1">1e-3</text><text fill="rgb(68,68,68)" stroke="none" font-family="helvetica" font-size="13px" font-style="normal" font-weight="normal" text-decoration="normal" x="295.3407287597656" y="201" text-anchor="start" dominant-baseline="alphabetic" transform="matrix(0.5403023058681398, -0.8414709848078965, 0.8414709848078965, 0.5403023058681398, -16.6999669720081, 361.0156716438795)" fill-opacity="1">1e-4</text><text fill="rgb(68,68,68)" stroke="none" font-family="helvetica" font-size="13px" font-style="normal" font-weight="normal" text-decoration="normal" x="307.3329772949219" y="201" text-anchor="start" dominant-baseline="alphabetic" transform="matrix(0.5403023058681398, -0.8414709848078965, 0.8414709848078965, 0.5403023058681398, -11.18715797294061, 371.10680082881845)" fill-opacity="1">1e-5</text><text fill="rgb(68,68,68)" stroke="none" font-family="helvetica" font-size="13px" font-style="normal" font-weight="normal" text-decoration="normal" x="340.4435119628906" y="201" text-anchor="start" dominant-baseline="alphabetic" transform="matrix(0.5403023058681398, -0.8414709848078965, 0.8414709848078965, 0.5403023058681398, 2.043600459453728, 395.3255416882598)" fill-opacity="1">1e0</text><text fill="rgb(68,68,68)" stroke="none" font-family="helvetica" font-size="13px" font-style="normal" font-weight="normal" text-decoration="normal" x="348.106689453125" y="201" text-anchor="start" dominant-baseline="alphabetic" transform="matrix(0.5403023058681398, -0.8414709848078965, 0.8414709848078965, 0.5403023058681398, 7.556423487381608, 405.41669655285534)" fill-opacity="1">1e-1</text><text fill="rgb(68,68,68)" stroke="none" font-family="helvetica" font-size="13px" font-style="normal" font-weight="normal" text-decoration="normal" x="360.09893798828125" y="201" text-anchor="start" dominant-baseline="alphabetic" transform="matrix(0.5403023058681398, -0.8414709848078965, 0.8414709848078965, 0.5403023058681398, 13.069232486449096, 415.5078257377943)" fill-opacity="1">1e-2</text><text fill="rgb(68,68,68)" stroke="none" font-family="helvetica" font-size="13px" font-style="normal" font-weight="normal" text-decoration="normal" x="372.0912170410156" y="201" text-anchor="start" dominant-baseline="alphabetic" transform="matrix(0.5403023058681398, -0.8414709848078965, 0.8414709848078965, 0.5403023058681398, 18.58205551437686, 425.5989806023898)" fill-opacity="1">1e-3</text><text fill="rgb(68,68,68)" stroke="none" font-family="helvetica" font-size="13px" font-style="normal" font-weight="normal" text-decoration="normal" x="384.0834655761719" y="201" text-anchor="start" dominant-baseline="alphabetic" transform="matrix(0.5403023058681398, -0.8414709848078965, 0.8414709848078965, 0.5403023058681398, 24.09486451344435, 435.69010978732877)" fill-opacity="1">1e-4</text><text fill="rgb(68,68,68)" stroke="none" font-family="helvetica" font-size="13px" font-style="normal" font-weight="normal" text-decoration="normal" x="396.07574462890625" y="201" text-anchor="start" dominant-baseline="alphabetic" transform="matrix(0.5403023058681398, -0.8414709848078965, 0.8414709848078965, 0.5403023058681398, 29.60768754137223, 445.7812646519243)" fill-opacity="1">1e-5</text><text fill="rgb(128,128,128)" stroke="none" font-family="helvetica" font-size="13px" font-style="normal" font-weight="bold" text-decoration="normal" x="103.84999084472656" y="243.29729276935444" text-anchor="start" dominant-baseline="alphabetic" transform="matrix(1, 0, 0, 1, 0.5, 0.5)" fill-opacity="1">Shared</text><text fill="rgb(128,128,128)" stroke="none" font-family="helvetica" font-size="13px" font-style="normal" font-weight="bold" text-decoration="normal" x="178.14547729492188" y="243.29729276935444" text-anchor="start" dominant-baseline="alphabetic" transform="matrix(1, 0, 0, 1, 0.5, 0.5)" fill-opacity="1">Split (50/50)</text><text fill="rgb(128,128,128)" stroke="none" font-family="helvetica" font-size="13px" font-style="normal" font-weight="bold" text-decoration="normal" x="266.8882141113281" y="243.29729276935444" text-anchor="start" dominant-baseline="alphabetic" transform="matrix(1, 0, 0, 1, 0.5, 0.5)" fill-opacity="1">Split (25/75)</text><text fill="rgb(128,128,128)" stroke="none" font-family="helvetica" font-size="13px" font-style="normal" font-weight="bold" text-decoration="normal" x="355.6309509277344" y="243.29729276935444" text-anchor="start" dominant-baseline="alphabetic" transform="matrix(1, 0, 0, 1, 0.5, 0.5)" fill-opacity="1">Split (10/90)</text><text fill="rgb(68,68,68)" stroke="none" font-family="helvetica" font-size="12pt" font-style="normal" font-weight="normal" text-decoration="normal" x="228.05078125" y="273.29729276935444" text-anchor="start" dominant-baseline="alphabetic" transform="matrix(1, 0, 0, 1, 0.5, 0.5)" fill-opacity="1">ğ‘˜_ğ‘™ğ‘–ğ‘›ğ‘˜ğ‘’ğ‘Ÿ</text><text fill="rgb(68,68,68)" stroke="none" font-family="helvetica" font-size="12pt" font-style="normal" font-weight="normal" text-decoration="normal" x="158.51953125" y="293.6972927693544" text-anchor="start" dominant-baseline="alphabetic" transform="matrix(1, 0, 0, 1, 0.5, 0.5)" fill-opacity="1">Resource Allocation (TX/TL)</text><path fill="none" stroke="rgb(211,211,211)" paint-order="fill" d="M 170.5 237.5 L 170.5 188.5 M 259.5 237.5 L 259.5 188.5 M 348.5 237.5 L 348.5 188.5" stroke-opacity="1" stroke-linejoin="bevel" stroke-miterlimit="10" stroke-width="2" stroke-dasharray=""/><path fill="none" stroke="rgb(0,0,0)" paint-order="fill" d="M 73.5 185.5 L 73.5 5.5" stroke-opacity="1" stroke-linejoin="bevel" stroke-miterlimit="10" stroke-dasharray=""/><path fill="none" stroke="rgb(0,0,0)" paint-order="fill" d="M 67.5 185.5 L 75.5 185.5 M 67.5 156.5 L 75.5 156.5 M 67.5 128.5 L 75.5 128.5 M 67.5 99.5 L 75.5 99.5 M 67.5 70.5 L 75.5 70.5 M 67.5 41.5 L 75.5 41.5 M 67.5 13.5 L 75.5 13.5" stroke-opacity="1" stroke-linejoin="bevel" stroke-miterlimit="10" stroke-dasharray=""/><path fill="none" stroke="rgb(0,0,0)" paint-order="fill" d="M 69.5 185.5 L 73.5 185.5 M 69.5 179.5 L 73.5 179.5 M 69.5 174.5 L 73.5 174.5 M 69.5 168.5 L 73.5 168.5 M 69.5 162.5 L 73.5 162.5 M 69.5 156.5 L 73.5 156.5 M 69.5 151.5 L 73.5 151.5 M 69.5 145.5 L 73.5 145.5 M 69.5 139.5 L 73.5 139.5 M 69.5 133.5 L 73.5 133.5 M 69.5 128.5 L 73.5 128.5 M 69.5 122.5 L 73.5 122.5 M 69.5 116.5 L 73.5 116.5 M 69.5 110.5 L 73.5 110.5 M 69.5 105.5 L 73.5 105.5 M 69.5 99.5 L 73.5 99.5 M 69.5 93.5 L 73.5 93.5 M 69.5 87.5 L 73.5 87.5 M 69.5 82.5 L 73.5 82.5 M 69.5 76.5 L 73.5 76.5 M 69.5 70.5 L 73.5 70.5 M 69.5 64.5 L 73.5 64.5 M 69.5 59.5 L 73.5 59.5 M 69.5 53.5 L 73.5 53.5 M 69.5 47.5 L 73.5 47.5 M 69.5 41.5 L 73.5 41.5 M 69.5 36.5 L 73.5 36.5 M 69.5 30.5 L 73.5 30.5 M 69.5 24.5 L 73.5 24.5 M 69.5 18.5 L 73.5 18.5 M 69.5 13.5 L 73.5 13.5 M 69.5 7.5 L 73.5 7.5" stroke-opacity="1" stroke-linejoin="bevel" stroke-miterlimit="10" stroke-dasharray=""/><text fill="rgb(68,68,68)" stroke="none" font-family="helvetica" font-size="13pt" font-style="normal" font-weight="normal" text-decoration="normal" x="52.36189270019531" y="191" text-anchor="start" dominant-baseline="alphabetic" transform="matrix(1, 0, 0, 1, 0.5, 0.5)" fill-opacity="1">0</text><text fill="rgb(68,68,68)" stroke="none" font-family="helvetica" font-size="13pt" font-style="normal" font-weight="normal" text-decoration="normal" x="37.908966064453125" y="162.2736053466797" text-anchor="start" dominant-baseline="alphabetic" transform="matrix(1, 0, 0, 1, 0.5, 0.5)" fill-opacity="1">0.1</text><text fill="rgb(68,68,68)" stroke="none" font-family="helvetica" font-size="13pt" font-style="normal" font-weight="normal" text-decoration="normal" x="37.908966064453125" y="133.54721069335938" text-anchor="start" dominant-baseline="alphabetic" transform="matrix(1, 0, 0, 1, 0.5, 0.5)" fill-opacity="1">0.2</text><text fill="rgb(68,68,68)" stroke="none" font-family="helvetica" font-size="13pt" font-style="normal" font-weight="normal" text-decoration="normal" x="37.908966064453125" y="104.82081604003906" text-anchor="start" dominant-baseline="alphabetic" transform="matrix(1, 0, 0, 1, 0.5, 0.5)" fill-opacity="1">0.3</text><text fill="rgb(68,68,68)" stroke="none" font-family="helvetica" font-size="13pt" font-style="normal" font-weight="normal" text-decoration="normal" x="37.908966064453125" y="76.09442138671875" text-anchor="start" dominant-baseline="alphabetic" transform="matrix(1, 0, 0, 1, 0.5, 0.5)" fill-opacity="1">0.4</text><text fill="rgb(68,68,68)" stroke="none" font-family="helvetica" font-size="13pt" font-style="normal" font-weight="normal" text-decoration="normal" x="37.908966064453125" y="47.3680305480957" text-anchor="start" dominant-baseline="alphabetic" transform="matrix(1, 0, 0, 1, 0.5, 0.5)" fill-opacity="1">0.5</text><text fill="rgb(68,68,68)" stroke="none" font-family="helvetica" font-size="13pt" font-style="normal" font-weight="normal" text-decoration="normal" x="37.908966064453125" y="18.641634941101074" text-anchor="start" dominant-baseline="alphabetic" transform="matrix(1, 0, 0, 1, 0.5, 0.5)" fill-opacity="1">0.6</text><text fill="rgb(68,68,68)" stroke="none" font-family="helvetica" font-size="15pt" font-style="normal" font-weight="normal" text-decoration="normal" x="-21.746307373046875" y="91" text-anchor="start" dominant-baseline="alphabetic" transform="matrix(6.123233995736766e-17, -1, 1, 6.123233995736766e-17, -69.59103393554688, 120.40896606445312)" fill-opacity="1">GTP (mM)</text></svg>