<svg version="1.1" xmlns="http://www.w3.org/2000/svg" width="700" height="300"><defs><clipPath id="opbUArlAJeph"><path fill="none" stroke="none" d="M 73.5 5.5 L 695.5 5.5 L 695.5 229.5 L 73.5 229.5 L 73.5 5.5"/></clipPath><clipPath id="sVTeyeMatTKJ"><path fill="none" stroke="none" d="M 73.5 5.5 L 695.5 5.5 L 695.5 229.5 L 73.5 229.5 L 73.5 5.5"/></clipPath><clipPath id="xDBAUQpWozHd"><path fill="none" stroke="none" d="M 73.5 5.5 L 695.5 5.5 L 695.5 229.5 L 73.5 229.5 L 73.5 5.5"/></clipPath></defs><path fill="rgb(255,255,255)" stroke="none" paint-order="stroke" d="M 0.5 0.5 L 700.5 0.5 L 700.5 300.5 L 0.5 300.5 L 0.5 0.5" fill-opacity="1"/><rect fill="#FFFFFF" stroke="none" x="73" y="5" width="622" height="224" transform="matrix(1, 0, 0, 1, 0.5, 0.5)"/><path fill="rgb(255,255,255)" stroke="none" paint-order="stroke" d="M 73.5 5.5 L 695.5 5.5 L 695.5 229.5 L 73.5 229.5 L 73.5 5.5" fill-opacity="1"/><path fill="rgb(31,119,180)" stroke="rgb(31,119,180)" paint-order="fill" d="M 81.2750015258789 229.5 L 96.82500457763672 229.5 L 96.82500457763672 229.5 L 81.2750015258789 229.5 L 81.2750015258789 229.5" fill-opacity="1" clip-path="url(#xDBAUQpWozHd)" stroke-opacity="1" stroke-linejoin="bevel" stroke-miterlimit="10" stroke-dasharray=""/><path fill="rgb(31,119,180)" stroke="rgb(31,119,180)" paint-order="fill" d="M 112.375 117.5 L 127.92500305175781 117.5 L 127.92500305175781 229.5 L 112.375 229.5 L 112.375 117.5" fill-opacity="1" clip-path="url(#xDBAUQpWozHd)" stroke-opacity="1" stroke-linejoin="bevel" stroke-miterlimit="10" stroke-dasharray=""/><path fill="rgb(31,119,180)" stroke="rgb(31,119,180)" paint-order="fill" d="M 143.47500610351562 229.5 L 159.02499389648438 229.5 L 159.02499389648438 229.5 L 143.47500610351562 229.5 L 143.47500610351562 229.5" fill-opacity="1" clip-path="url(#xDBAUQpWozHd)" stroke-opacity="1" stroke-linejoin="bevel" stroke-miterlimit="10" stroke-dasharray=""/><path fill="rgb(31,119,180)" stroke="rgb(31,119,180)" paint-order="fill" d="M 174.57501220703125 229.5 L 190.125 229.5 L 190.125 229.5 L 174.57501220703125 229.5 L 174.57501220703125 229.5" fill-opacity="1" clip-path="url(#xDBAUQpWozHd)" stroke-opacity="1" stroke-linejoin="bevel" stroke-miterlimit="10" stroke-dasharray=""/><path fill="rgb(31,119,180)" stroke="rgb(31,119,180)" paint-order="fill" d="M 205.6750030517578 229.5 L 221.22499084472656 229.5 L 221.22499084472656 229.5 L 205.6750030517578 229.5 L 205.6750030517578 229.5" fill-opacity="1" clip-path="url(#xDBAUQpWozHd)" stroke-opacity="1" stroke-linejoin="bevel" stroke-miterlimit="10" stroke-dasharray=""/><path fill="rgb(31,119,180)" stroke="rgb(31,119,180)" paint-order="fill" d="M 236.77500915527344 229.5 L 252.3249969482422 229.5 L 252.3249969482422 229.5 L 236.77500915527344 229.5 L 236.77500915527344 229.5" fill-opacity="1" clip-path="url(#xDBAUQpWozHd)" stroke-opacity="1" stroke-linejoin="bevel" stroke-miterlimit="10" stroke-dasharray=""/><path fill="rgb(31,119,180)" stroke="rgb(31,119,180)" paint-order="fill" d="M 267.875 229.5 L 283.42498779296875 229.5 L 283.42498779296875 229.5 L 267.875 229.5 L 267.875 229.5" fill-opacity="1" clip-path="url(#xDBAUQpWozHd)" stroke-opacity="1" stroke-linejoin="bevel" stroke-miterlimit="10" stroke-dasharray=""/><path fill="rgb(31,119,180)" stroke="rgb(31,119,180)" paint-order="fill" d="M 298.9750061035156 117.5 L 314.5249938964844 117.5 L 314.5249938964844 229.5 L 298.9750061035156 229.5 L 298.9750061035156 117.5" fill-opacity="1" clip-path="url(#xDBAUQpWozHd)" stroke-opacity="1" stroke-linejoin="bevel" stroke-miterlimit="10" stroke-dasharray=""/><path fill="rgb(31,119,180)" stroke="rgb(31,119,180)" paint-order="fill" d="M 330.07501220703125 229.5 L 345.625 229.5 L 345.625 229.5 L 330.07501220703125 229.5 L 330.07501220703125 229.5" fill-opacity="1" clip-path="url(#xDBAUQpWozHd)" stroke-opacity="1" stroke-linejoin="bevel" stroke-miterlimit="10" stroke-dasharray=""/><path fill="rgb(31,119,180)" stroke="rgb(31,119,180)" paint-order="fill" d="M 361.1750183105469 117.5 L 376.7250061035156 117.5 L 376.7250061035156 229.5 L 361.1750183105469 229.5 L 361.1750183105469 117.5" fill-opacity="1" clip-path="url(#xDBAUQpWozHd)" stroke-opacity="1" stroke-linejoin="bevel" stroke-miterlimit="10" stroke-dasharray=""/><path fill="rgb(31,119,180)" stroke="rgb(31,119,180)" paint-order="fill" d="M 392.2749938964844 117.5 L 407.8249816894531 117.5 L 407.8249816894531 229.5 L 392.2749938964844 229.5 L 392.2749938964844 117.5" fill-opacity="1" clip-path="url(#xDBAUQpWozHd)" stroke-opacity="1" stroke-linejoin="bevel" stroke-miterlimit="10" stroke-dasharray=""/><path fill="rgb(31,119,180)" stroke="rgb(31,119,180)" paint-order="fill" d="M 423.375 5.5 L 438.92498779296875 5.5 L 438.92498779296875 229.5 L 423.375 229.5 L 423.375 5.5" fill-opacity="1" clip-path="url(#xDBAUQpWozHd)" stroke-opacity="1" stroke-linejoin="bevel" stroke-miterlimit="10" stroke-dasharray=""/><path fill="rgb(31,119,180)" stroke="rgb(31,119,180)" paint-order="fill" d="M 454.4750061035156 117.5 L 470.0249938964844 117.5 L 470.0249938964844 229.5 L 454.4750061035156 229.5 L 454.4750061035156 117.5" fill-opacity="1" clip-path="url(#xDBAUQpWozHd)" stroke-opacity="1" stroke-linejoin="bevel" stroke-miterlimit="10" stroke-dasharray=""/><path fill="rgb(31,119,180)" stroke="rgb(31,119,180)" paint-order="fill" d="M 485.57501220703125 117.5 L 501.125 117.5 L 501.125 229.5 L 485.57501220703125 229.5 L 485.57501220703125 117.5" fill-opacity="1" clip-path="url(#xDBAUQpWozHd)" stroke-opacity="1" stroke-linejoin="bevel" stroke-miterlimit="10" stroke-dasharray=""/><path fill="rgb(31,119,180)" stroke="rgb(31,119,180)" paint-order="fill" d="M 516.6749877929688 229.5 L 532.2250366210938 229.5 L 532.2250366210938 229.5 L 516.6749877929688 229.5 L 516.6749877929688 229.5" fill-opacity="1" clip-path="url(#xDBAUQpWozHd)" stroke-opacity="1" stroke-linejoin="bevel" stroke-miterlimit="10" stroke-dasharray=""/><path fill="rgb(31,119,180)" stroke="rgb(31,119,180)" paint-order="fill" d="M 547.7749633789062 5.5 L 563.3250122070312 5.5 L 563.3250122070312 229.5 L 547.7749633789062 229.5 L 547.7749633789062 5.5" fill-opacity="1" clip-path="url(#xDBAUQpWozHd)" stroke-opacity="1" stroke-linejoin="bevel" stroke-miterlimit="10" stroke-dasharray=""/><path fill="rgb(31,119,180)" stroke="rgb(31,119,180)" paint-order="fill" d="M 578.875 229.5 L 594.425048828125 229.5 L 594.425048828125 229.5 L 578.875 229.5 L 578.875 229.5" fill-opacity="1" clip-path="url(#xDBAUQpWozHd)" stroke-opacity="1" stroke-linejoin="bevel" stroke-miterlimit="10" stroke-dasharray=""/><path fill="rgb(31,119,180)" stroke="rgb(31,119,180)" paint-order="fill" d="M 609.9749755859375 117.5 L 625.5250244140625 117.5 L 625.5250244140625 229.5 L 609.9749755859375 229.5 L 609.9749755859375 117.5" fill-opacity="1" clip-path="url(#xDBAUQpWozHd)" stroke-opacity="1" stroke-linejoin="bevel" stroke-miterlimit="10" stroke-dasharray=""/><path fill="rgb(31,119,180)" stroke="rgb(31,119,180)" paint-order="fill" d="M 641.074951171875 229.5 L 656.625 229.5 L 656.625 229.5 L 641.074951171875 229.5 L 641.074951171875 229.5" fill-opacity="1" clip-path="url(#xDBAUQpWozHd)" stroke-opacity="1" stroke-linejoin="bevel" stroke-miterlimit="10" stroke-dasharray=""/><path fill="rgb(31,119,180)" stroke="rgb(31,119,180)" paint-order="fill" d="M 672.1749877929688 117.5 L 687.7250366210938 117.5 L 687.7250366210938 229.5 L 672.1749877929688 229.5 L 672.1749877929688 117.5" fill-opacity="1" clip-path="url(#xDBAUQpWozHd)" stroke-opacity="1" stroke-linejoin="bevel" stroke-miterlimit="10" stroke-dasharray=""/><path fill="none" stroke="rgb(0,0,0)" paint-order="fill" d="M 73.5 229.5 L 695.5 229.5" stroke-opacity="1" stroke-linejoin="bevel" stroke-miterlimit="10" stroke-dasharray=""/><path fill="none" stroke="rgb(0,0,0)" paint-order="fill" d="M 89.5 235.5 L 89.5 227.5 M 120.5 235.5 L 120.5 227.5 M 151.5 235.5 L 151.5 227.5 M 182.5 235.5 L 182.5 227.5 M 213.5 235.5 L 213.5 227.5 M 244.5 235.5 L 244.5 227.5 M 275.5 235.5 L 275.5 227.5 M 306.5 235.5 L 306.5 227.5 M 337.5 235.5 L 337.5 227.5 M 368.5 235.5 L 368.5 227.5 M 400.5 235.5 L 400.5 227.5 M 431.5 235.5 L 431.5 227.5 M 462.5 235.5 L 462.5 227.5 M 493.5 235.5 L 493.5 227.5 M 524.5 235.5 L 524.5 227.5 M 555.5 235.5 L 555.5 227.5 M 586.5 235.5 L 586.5 227.5 M 617.5 235.5 L 617.5 227.5 M 648.5 235.5 L 648.5 227.5 M 679.5 235.5 L 679.5 227.5" stroke-opacity="1" stroke-linejoin="bevel" stroke-miterlimit="10" stroke-dasharray=""/><path fill="none" stroke="rgb(0,0,0)" paint-order="fill" d="" stroke-opacity="1" stroke-linejoin="bevel" stroke-miterlimit="10" stroke-dasharray=""/><text fill="rgb(68,68,68)" stroke="none" font-family="helvetica" font-size="13px" font-style="normal" font-weight="normal" text-decoration="normal" x="69.76094055175781" y="244.5" text-anchor="start" dominant-baseline="alphabetic" transform="matrix(0.3623577544766736, -0.9320390859672263, 0.9320390859672263, 0.3623577544766736, -166.72615784511407, 236.06620283235378)" fill-opacity="1">Ala</text><text fill="rgb(68,68,68)" stroke="none" font-family="helvetica" font-size="13px" font-style="normal" font-weight="normal" text-decoration="normal" x="99.4200210571289" y="244.5" text-anchor="start" dominant-baseline="alphabetic" transform="matrix(0.3623577544766736, -0.9320390859672263, 0.9320390859672263, 0.3623577544766736, -146.89548498230346, 265.05261698375574)" fill-opacity="1">Arg</text><text fill="rgb(68,68,68)" stroke="none" font-family="helvetica" font-size="13px" font-style="normal" font-weight="normal" text-decoration="normal" x="128.34912109375" y="244.5" text-anchor="start" dominant-baseline="alphabetic" transform="matrix(0.3623577544766736, -0.9320390859672263, 0.9320390859672263, 0.3623577544766736, -127.06481211949284, 294.0390311351577)" fill-opacity="1">Asn</text><text fill="rgb(68,68,68)" stroke="none" font-family="helvetica" font-size="13px" font-style="normal" font-weight="normal" text-decoration="normal" x="159.44912719726562" y="244.5" text-anchor="start" dominant-baseline="alphabetic" transform="matrix(0.3623577544766736, -0.9320390859672263, 0.9320390859672263, 0.3623577544766736, -107.23413439185799, 323.02545239745353)" fill-opacity="1">Asp</text><text fill="rgb(68,68,68)" stroke="none" font-family="helvetica" font-size="13px" font-style="normal" font-weight="normal" text-decoration="normal" x="190.5618133544922" y="244.5" text-anchor="start" dominant-baseline="alphabetic" transform="matrix(0.3623577544766736, -0.9320390859672263, 0.9320390859672263, 0.3623577544766736, -87.40346639387167, 352.0118594379616)" fill-opacity="1">Cys</text><text fill="rgb(68,68,68)" stroke="none" font-family="helvetica" font-size="13px" font-style="normal" font-weight="normal" text-decoration="normal" x="223.8200225830078" y="244.5" text-anchor="start" dominant-baseline="alphabetic" transform="matrix(0.3623577544766736, -0.9320390859672263, 0.9320390859672263, 0.3623577544766736, -67.57278866623682, 380.99828070025745)" fill-opacity="1">Gln</text><text fill="rgb(68,68,68)" stroke="none" font-family="helvetica" font-size="13px" font-style="normal" font-weight="normal" text-decoration="normal" x="254.92001342773438" y="244.5" text-anchor="start" dominant-baseline="alphabetic" transform="matrix(0.3623577544766736, -0.9320390859672263, 0.9320390859672263, 0.3623577544766736, -47.74212066825049, 409.9846877407655)" fill-opacity="1">Glu</text><text fill="rgb(68,68,68)" stroke="none" font-family="helvetica" font-size="13px" font-style="normal" font-weight="normal" text-decoration="normal" x="286.75" y="244.5" text-anchor="start" dominant-baseline="alphabetic" transform="matrix(0.3623577544766736, -0.9320390859672263, 0.9320390859672263, 0.3623577544766736, -27.911442940615643, 438.9711090030614)" fill-opacity="1">Gly</text><text fill="rgb(68,68,68)" stroke="none" font-family="helvetica" font-size="13px" font-style="normal" font-weight="normal" text-decoration="normal" x="318.5736389160156" y="244.5" text-anchor="start" dominant-baseline="alphabetic" transform="matrix(0.3623577544766736, -0.9320390859672263, 0.9320390859672263, 0.3623577544766736, -8.080765212980737, 467.9575302653572)" fill-opacity="1">His</text><text fill="rgb(68,68,68)" stroke="none" font-family="helvetica" font-size="13px" font-style="normal" font-weight="normal" text-decoration="normal" x="354.72003173828125" y="244.5" text-anchor="start" dominant-baseline="alphabetic" transform="matrix(0.3623577544766736, -0.9320390859672263, 0.9320390859672263, 0.3623577544766736, 11.749912514654113, 496.9439515276531)" fill-opacity="1">Ile</text><text fill="rgb(68,68,68)" stroke="none" font-family="helvetica" font-size="13px" font-style="normal" font-weight="normal" text-decoration="normal" x="377.86004638671875" y="244.5" text-anchor="start" dominant-baseline="alphabetic" transform="matrix(0.3623577544766736, -0.9320390859672263, 0.9320390859672263, 0.3623577544766736, 31.580570782991913, 525.9303443463733)" fill-opacity="1">Leu</text><text fill="rgb(68,68,68)" stroke="none" font-family="helvetica" font-size="13px" font-style="normal" font-weight="normal" text-decoration="normal" x="410.9024353027344" y="244.5" text-anchor="start" dominant-baseline="alphabetic" transform="matrix(0.3623577544766736, -0.9320390859672263, 0.9320390859672263, 0.3623577544766736, 51.41124851062682, 554.9167656086693)" fill-opacity="1">Lys</text><text fill="rgb(68,68,68)" stroke="none" font-family="helvetica" font-size="13px" font-style="normal" font-weight="normal" text-decoration="normal" x="440.0791015625" y="244.5" text-anchor="start" dominant-baseline="alphabetic" transform="matrix(0.3623577544766736, -0.9320390859672263, 0.9320390859672263, 0.3623577544766736, 71.24192623826161, 583.9031868709651)" fill-opacity="1">Met</text><text fill="rgb(68,68,68)" stroke="none" font-family="helvetica" font-size="13px" font-style="normal" font-weight="normal" text-decoration="normal" x="469.7191467285156" y="244.5" text-anchor="start" dominant-baseline="alphabetic" transform="matrix(0.3623577544766736, -0.9320390859672263, 0.9320390859672263, 0.3623577544766736, 91.07260396589652, 612.8896081332609)" fill-opacity="1">Phe</text><text fill="rgb(68,68,68)" stroke="none" font-family="helvetica" font-size="13px" font-style="normal" font-weight="normal" text-decoration="normal" x="503.72003173828125" y="244.5" text-anchor="start" dominant-baseline="alphabetic" transform="matrix(0.3623577544766736, -0.9320390859672263, 0.9320390859672263, 0.3623577544766736, 110.90328169353137, 641.8760293955568)" fill-opacity="1">Pro</text><text fill="rgb(68,68,68)" stroke="none" font-family="helvetica" font-size="13px" font-style="normal" font-weight="normal" text-decoration="normal" x="534.8200073242188" y="244.5" text-anchor="start" dominant-baseline="alphabetic" transform="matrix(0.3623577544766736, -0.9320390859672263, 0.9320390859672263, 0.3623577544766736, 130.73393996186917, 670.862422214277)" fill-opacity="1">Ser</text><text fill="rgb(68,68,68)" stroke="none" font-family="helvetica" font-size="13px" font-style="normal" font-weight="normal" text-decoration="normal" x="566.6500244140625" y="244.5" text-anchor="start" dominant-baseline="alphabetic" transform="matrix(0.3623577544766736, -0.9320390859672263, 0.9320390859672263, 0.3623577544766736, 150.56463714880107, 699.8488719201486)" fill-opacity="1">Thr</text><text fill="rgb(68,68,68)" stroke="none" font-family="helvetica" font-size="13px" font-style="normal" font-weight="normal" text-decoration="normal" x="598.232421875" y="244.5" text-anchor="start" dominant-baseline="alphabetic" transform="matrix(0.3623577544766736, -0.9320390859672263, 0.9320390859672263, 0.3623577544766736, 170.39529541713887, 728.8352647388688)" fill-opacity="1">Trp</text><text fill="rgb(68,68,68)" stroke="none" font-family="helvetica" font-size="13px" font-style="normal" font-weight="normal" text-decoration="normal" x="630.2972412109375" y="244.5" text-anchor="start" dominant-baseline="alphabetic" transform="matrix(0.3623577544766736, -0.9320390859672263, 0.9320390859672263, 0.3623577544766736, 190.22595368547672, 757.821657557589)" fill-opacity="1">Tyr</text><text fill="rgb(68,68,68)" stroke="none" font-family="helvetica" font-size="13px" font-style="normal" font-weight="normal" text-decoration="normal" x="661.6257934570312" y="244.5" text-anchor="start" dominant-baseline="alphabetic" transform="matrix(0.3623577544766736, -0.9320390859672263, 0.9320390859672263, 0.3623577544766736, 210.05665087240857, 786.8081072634604)" fill-opacity="1">Val</text><text fill="rgb(68,68,68)" stroke="none" font-family="helvetica" font-size="12pt" font-style="normal" font-weight="normal" text-decoration="normal" x="343.5390625" y="293.99423134666154" text-anchor="start" dominant-baseline="alphabetic" transform="matrix(1, 0, 0, 1, 0.5, 0.5)" fill-opacity="1">Amino Acid</text><path fill="none" stroke="rgb(0,0,0)" paint-order="fill" d="M 73.5 229.5 L 73.5 5.5" stroke-opacity="1" stroke-linejoin="bevel" stroke-miterlimit="10" stroke-dasharray=""/><path fill="none" stroke="rgb(0,0,0)" paint-order="fill" d="M 67.5 229.5 L 75.5 229.5 M 67.5 173.5 L 75.5 173.5 M 67.5 117.5 L 75.5 117.5 M 67.5 61.5 L 75.5 61.5 M 67.5 5.5 L 75.5 5.5" stroke-opacity="1" stroke-linejoin="bevel" stroke-miterlimit="10" stroke-dasharray=""/><path fill="none" stroke="rgb(0,0,0)" paint-order="fill" d="M 69.5 229.5 L 73.5 229.5 M 69.5 218.5 L 73.5 218.5 M 69.5 207.5 L 73.5 207.5 M 69.5 195.5 L 73.5 195.5 M 69.5 184.5 L 73.5 184.5 M 69.5 173.5 L 73.5 173.5 M 69.5 162.5 L 73.5 162.5 M 69.5 151.5 L 73.5 151.5 M 69.5 139.5 L 73.5 139.5 M 69.5 128.5 L 73.5 128.5 M 69.5 117.5 L 73.5 117.5 M 69.5 106.5 L 73.5 106.5 M 69.5 95.5 L 73.5 95.5 M 69.5 83.5 L 73.5 83.5 M 69.5 72.5 L 73.5 72.5 M 69.5 61.5 L 73.5 61.5 M 69.5 50.5 L 73.5 50.5 M 69.5 39.5 L 73.5 39.5 M 69.5 27.5 L 73.5 27.5 M 69.5 16.5 L 73.5 16.5 M 69.5 5.5 L 73.5 5.5" stroke-opacity="1" stroke-linejoin="bevel" stroke-miterlimit="10" stroke-dasharray=""/><text fill="rgb(68,68,68)" stroke="none" font-family="helvetica" font-size="13pt" font-style="normal" font-weight="normal" text-decoration="normal" x="52.36189270019531" y="235" text-anchor="start" dominant-baseline="alphabetic" transform="matrix(1, 0, 0, 1, 0.5, 0.5)" fill-opacity="1">0</text><text fill="rgb(68,68,68)" stroke="none" font-family="helvetica" font-size="13pt" font-style="normal" font-weight="normal" text-decoration="normal" x="37.908966064453125" y="179" text-anchor="start" dominant-baseline="alphabetic" transform="matrix(1, 0, 0, 1, 0.5, 0.5)" fill-opacity="1">0.5</text><text fill="rgb(68,68,68)" stroke="none" font-family="helvetica" font-size="13pt" font-style="normal" font-weight="normal" text-decoration="normal" x="52.36189270019531" y="123" text-anchor="start" dominant-baseline="alphabetic" transform="matrix(1, 0, 0, 1, 0.5, 0.5)" fill-opacity="1">1</text><text fill="rgb(68,68,68)" stroke="none" font-family="helvetica" font-size="13pt" font-style="normal" font-weight="normal" text-decoration="normal" x="37.908966064453125" y="67" text-anchor="start" dominant-baseline="alphabetic" transform="matrix(1, 0, 0, 1, 0.5, 0.5)" fill-opacity="1">1.5</text><text fill="rgb(68,68,68)" stroke="none" font-family="helvetica" font-size="13pt" font-style="normal" font-weight="normal" text-decoration="normal" x="52.36189270019531" y="12" text-anchor="start" dominant-baseline="alphabetic" transform="matrix(1, 0, 0, 1, 0.5, 0.5)" fill-opacity="1">2</text><text fill="rgb(68,68,68)" stroke="none" font-family="helvetica" font-size="15pt" font-style="normal" font-weight="normal" text-decoration="normal" x="-1.775604248046875" y="113" text-anchor="start" dominant-baseline="alphabetic" transform="matrix(6.123233995736766e-17, -1, 1, 6.123233995736766e-17, -91.59103393554688, 142.40896606445312)" fill-opacity="1">Count</text></svg>