<svg version="1.1" xmlns="http://www.w3.org/2000/svg" width="450" height="300"><defs><clipPath id="qXuHwuAQgwyw"><path fill="none" stroke="none" d="M 83.5 5.5 L 445.5 5.5 L 445.5 185.5 L 83.5 185.5 L 83.5 5.5"/></clipPath><clipPath id="lBXfPGSAPBvq"><path fill="none" stroke="none" d="M 83.5 5.5 L 445.5 5.5 L 445.5 185.5 L 83.5 185.5 L 83.5 5.5"/></clipPath><clipPath id="hEdtLETQsCVn"><path fill="none" stroke="none" d="M 83.5 5.5 L 445.5 5.5 L 445.5 185.5 L 83.5 185.5 L 83.5 5.5"/></clipPath></defs><path fill="rgb(255,255,255)" stroke="none" paint-order="stroke" d="M 0.5 0.5 L 450.5 0.5 L 450.5 300.5 L 0.5 300.5 L 0.5 0.5" fill-opacity="1"/><rect fill="#FFFFFF" stroke="none" x="83" y="5" width="362" height="180" transform="matrix(1, 0, 0, 1, 0.5, 0.5)"/><path fill="rgb(255,255,255)" stroke="none" paint-order="stroke" d="M 83.5 5.5 L 445.5 5.5 L 445.5 185.5 L 83.5 185.5 L 83.5 5.5" fill-opacity="1"/><path fill="rgb(255,0,255)" stroke="none" paint-order="stroke" d="M 100.53804016113281 28.265199661254883 L 111.04093933105469 28.265199661254883 L 111.04093933105469 185.5 L 100.53804016113281 185.5 L 100.53804016113281 28.265199661254883" fill-opacity="0.5019607843137255" clip-path="url(#hEdtLETQsCVn)"/><path fill="rgb(1,100,80)" stroke="none" paint-order="stroke" d="M 112.20793151855469 28.178781509399414 L 122.71083068847656 28.178781509399414 L 122.71083068847656 185.5 L 112.20793151855469 185.5 L 112.20793151855469 28.178781509399414" fill-opacity="0.5019607843137255" clip-path="url(#hEdtLETQsCVn)"/><path fill="rgb(2,129,138)" stroke="none" paint-order="stroke" d="M 123.87782287597656 27.46709632873535 L 134.38072204589844 27.46709632873535 L 134.38072204589844 185.5 L 123.87782287597656 185.5 L 123.87782287597656 27.46709632873535" fill-opacity="0.5019607843137255" clip-path="url(#hEdtLETQsCVn)"/><path fill="rgb(54,144,192)" stroke="none" paint-order="stroke" d="M 135.54771423339844 25.169395446777344 L 146.0506134033203 25.169395446777344 L 146.0506134033203 185.5 L 135.54771423339844 185.5 L 135.54771423339844 25.169395446777344" fill-opacity="0.5019607843137255" clip-path="url(#hEdtLETQsCVn)"/><path fill="rgb(103,169,207)" stroke="none" paint-order="stroke" d="M 147.2176055908203 30.34983253479004 L 157.7205047607422 30.34983253479004 L 157.7205047607422 185.5 L 147.2176055908203 185.5 L 147.2176055908203 30.34983253479004" fill-opacity="0.5019607843137255" clip-path="url(#hEdtLETQsCVn)"/><path fill="rgb(166,189,219)" stroke="none" paint-order="stroke" d="M 158.8874969482422 36.94050979614258 L 169.39039611816406 36.94050979614258 L 169.39039611816406 185.5 L 158.8874969482422 185.5 L 158.8874969482422 36.94050979614258" fill-opacity="0.5019607843137255" clip-path="url(#hEdtLETQsCVn)"/><path fill="rgb(255,0,255)" stroke="none" paint-order="stroke" d="M 186.89523315429688 14.071428298950195 L 197.39813232421875 14.071428298950195 L 197.39813232421875 185.5 L 186.89523315429688 185.5 L 186.89523315429688 14.071428298950195" fill-opacity="0.5019607843137255" clip-path="url(#hEdtLETQsCVn)"/><path fill="rgb(1,100,80)" stroke="none" paint-order="stroke" d="M 198.5651092529297 14.071429252624512 L 209.06800842285156 14.071429252624512 L 209.06800842285156 185.5 L 198.5651092529297 185.5 L 198.5651092529297 14.071429252624512" fill-opacity="0.5019607843137255" clip-path="url(#hEdtLETQsCVn)"/><path fill="rgb(2,129,138)" stroke="none" paint-order="stroke" d="M 210.23500061035156 14.071429252624512 L 220.73789978027344 14.071429252624512 L 220.73789978027344 185.5 L 210.23500061035156 185.5 L 210.23500061035156 14.071429252624512" fill-opacity="0.5019607843137255" clip-path="url(#hEdtLETQsCVn)"/><path fill="rgb(54,144,192)" stroke="none" paint-order="stroke" d="M 221.90489196777344 14.071429252624512 L 232.4077911376953 14.071429252624512 L 232.4077911376953 185.5 L 221.90489196777344 185.5 L 221.90489196777344 14.071429252624512" fill-opacity="0.5019607843137255" clip-path="url(#hEdtLETQsCVn)"/><path fill="rgb(103,169,207)" stroke="none" paint-order="stroke" d="M 233.5747833251953 14.071429252624512 L 244.0776824951172 14.071429252624512 L 244.0776824951172 185.5 L 233.5747833251953 185.5 L 233.5747833251953 14.071429252624512" fill-opacity="0.5019607843137255" clip-path="url(#hEdtLETQsCVn)"/><path fill="rgb(166,189,219)" stroke="none" paint-order="stroke" d="M 245.2446746826172 14.071429252624512 L 255.74757385253906 14.071429252624512 L 255.74757385253906 185.5 L 245.2446746826172 185.5 L 245.2446746826172 14.071429252624512" fill-opacity="0.5019607843137255" clip-path="url(#hEdtLETQsCVn)"/><path fill="rgb(255,0,255)" stroke="none" paint-order="stroke" d="M 273.2524108886719 99.323974609375 L 283.7553405761719 99.323974609375 L 283.7553405761719 185.5 L 273.2524108886719 185.5 L 273.2524108886719 99.323974609375" fill-opacity="0.5019607843137255" clip-path="url(#hEdtLETQsCVn)"/><path fill="rgb(1,100,80)" stroke="none" paint-order="stroke" d="M 284.9222717285156 99.323974609375 L 295.4252014160156 99.323974609375 L 295.4252014160156 185.5 L 284.9222717285156 185.5 L 284.9222717285156 99.323974609375" fill-opacity="0.5019607843137255" clip-path="url(#hEdtLETQsCVn)"/><path fill="rgb(2,129,138)" stroke="none" paint-order="stroke" d="M 296.5921630859375 99.323974609375 L 307.0950927734375 99.323974609375 L 307.0950927734375 185.5 L 296.5921630859375 185.5 L 296.5921630859375 99.323974609375" fill-opacity="0.5019607843137255" clip-path="url(#hEdtLETQsCVn)"/><path fill="rgb(54,144,192)" stroke="none" paint-order="stroke" d="M 308.2620544433594 99.323974609375 L 318.7649841308594 99.323974609375 L 318.7649841308594 185.5 L 308.2620544433594 185.5 L 308.2620544433594 99.323974609375" fill-opacity="0.5019607843137255" clip-path="url(#hEdtLETQsCVn)"/><path fill="rgb(103,169,207)" stroke="none" paint-order="stroke" d="M 319.93194580078125 99.323974609375 L 330.43487548828125 99.323974609375 L 330.43487548828125 185.5 L 319.93194580078125 185.5 L 319.93194580078125 99.323974609375" fill-opacity="0.5019607843137255" clip-path="url(#hEdtLETQsCVn)"/><path fill="rgb(166,189,219)" stroke="none" paint-order="stroke" d="M 331.6018371582031 99.323974609375 L 342.1047668457031 99.323974609375 L 342.1047668457031 185.5 L 331.6018371582031 185.5 L 331.6018371582031 99.323974609375" fill-opacity="0.5019607843137255" clip-path="url(#hEdtLETQsCVn)"/><path fill="rgb(255,0,255)" stroke="none" paint-order="stroke" d="M 359.6095886230469 151.03170776367188 L 370.1125183105469 151.03170776367188 L 370.1125183105469 185.5 L 359.6095886230469 185.5 L 359.6095886230469 151.03170776367188" fill-opacity="0.5019607843137255" clip-path="url(#hEdtLETQsCVn)"/><path fill="rgb(1,100,80)" stroke="none" paint-order="stroke" d="M 371.27947998046875 151.03170776367188 L 381.78240966796875 151.03170776367188 L 381.78240966796875 185.5 L 371.27947998046875 185.5 L 371.27947998046875 151.03170776367188" fill-opacity="0.5019607843137255" clip-path="url(#hEdtLETQsCVn)"/><path fill="rgb(2,129,138)" stroke="none" paint-order="stroke" d="M 382.9493713378906 151.03170776367188 L 393.4523010253906 151.03170776367188 L 393.4523010253906 185.5 L 382.9493713378906 185.5 L 382.9493713378906 151.03170776367188" fill-opacity="0.5019607843137255" clip-path="url(#hEdtLETQsCVn)"/><path fill="rgb(54,144,192)" stroke="none" paint-order="stroke" d="M 394.6192626953125 151.03170776367188 L 405.1221923828125 151.03170776367188 L 405.1221923828125 185.5 L 394.6192626953125 185.5 L 394.6192626953125 151.03170776367188" fill-opacity="0.5019607843137255" clip-path="url(#hEdtLETQsCVn)"/><path fill="rgb(103,169,207)" stroke="none" paint-order="stroke" d="M 406.2891540527344 151.03170776367188 L 416.7920837402344 151.03170776367188 L 416.7920837402344 185.5 L 406.2891540527344 185.5 L 406.2891540527344 151.03170776367188" fill-opacity="0.5019607843137255" clip-path="url(#hEdtLETQsCVn)"/><path fill="rgb(166,189,219)" stroke="none" paint-order="stroke" d="M 417.95904541015625 151.03170776367188 L 428.46197509765625 151.03170776367188 L 428.46197509765625 185.5 L 417.95904541015625 185.5 L 417.95904541015625 151.03170776367188" fill-opacity="0.5019607843137255" clip-path="url(#hEdtLETQsCVn)"/><path fill="none" stroke="rgb(0,0,0)" paint-order="fill" d="M 83.5 185.5 L 445.5 185.5" stroke-opacity="1" stroke-linejoin="bevel" stroke-miterlimit="10" stroke-dasharray=""/><path fill="none" stroke="rgb(0,0,0)" paint-order="fill" d="M 105.5 191.5 L 105.5 183.5 M 117.5 191.5 L 117.5 183.5 M 129.5 191.5 L 129.5 183.5 M 140.5 191.5 L 140.5 183.5 M 152.5 191.5 L 152.5 183.5 M 164.5 191.5 L 164.5 183.5 M 192.5 191.5 L 192.5 183.5 M 203.5 191.5 L 203.5 183.5 M 215.5 191.5 L 215.5 183.5 M 227.5 191.5 L 227.5 183.5 M 238.5 191.5 L 238.5 183.5 M 250.5 191.5 L 250.5 183.5 M 278.5 191.5 L 278.5 183.5 M 290.5 191.5 L 290.5 183.5 M 301.5 191.5 L 301.5 183.5 M 313.5 191.5 L 313.5 183.5 M 325.5 191.5 L 325.5 183.5 M 336.5 191.5 L 336.5 183.5 M 364.5 191.5 L 364.5 183.5 M 376.5 191.5 L 376.5 183.5 M 388.5 191.5 L 388.5 183.5 M 399.5 191.5 L 399.5 183.5 M 411.5 191.5 L 411.5 183.5 M 423.5 191.5 L 423.5 183.5" stroke-opacity="1" stroke-linejoin="bevel" stroke-miterlimit="10" stroke-dasharray=""/><path fill="none" stroke="rgb(0,0,0)" paint-order="fill" d="" stroke-opacity="1" stroke-linejoin="bevel" stroke-miterlimit="10" stroke-dasharray=""/><text fill="rgb(68,68,68)" stroke="none" font-family="helvetica" font-size="13px" font-style="normal" font-weight="normal" text-decoration="normal" x="83.59954833984375" y="201" text-anchor="start" dominant-baseline="alphabetic" transform="matrix(0.5403023058681398, -0.8414709848078965, 0.8414709848078965, 0.5403023058681398, -116.02697736974827, 179.19879867641106)" fill-opacity="1">1e0</text><text fill="rgb(68,68,68)" stroke="none" font-family="helvetica" font-size="13px" font-style="normal" font-weight="normal" text-decoration="normal" x="90.94033813476562" y="201" text-anchor="start" dominant-baseline="alphabetic" transform="matrix(0.5403023058681398, -0.8414709848078965, 0.8414709848078965, 0.5403023058681398, -110.66235522197212, 189.018673649542)" fill-opacity="1">1e-1</text><text fill="rgb(68,68,68)" stroke="none" font-family="helvetica" font-size="13px" font-style="normal" font-weight="normal" text-decoration="normal" x="102.6102294921875" y="201" text-anchor="start" dominant-baseline="alphabetic" transform="matrix(0.5403023058681398, -0.8414709848078965, 0.8414709848078965, 0.5403023058681398, -105.29773307419595, 198.83854862267293)" fill-opacity="1">1e-2</text><text fill="rgb(68,68,68)" stroke="none" font-family="helvetica" font-size="13px" font-style="normal" font-weight="normal" text-decoration="normal" x="114.28012084960938" y="201" text-anchor="start" dominant-baseline="alphabetic" transform="matrix(0.5403023058681398, -0.8414709848078965, 0.8414709848078965, 0.5403023058681398, -99.93311092641977, 208.65842359580387)" fill-opacity="1">1e-3</text><text fill="rgb(68,68,68)" stroke="none" font-family="helvetica" font-size="13px" font-style="normal" font-weight="normal" text-decoration="normal" x="125.95001220703125" y="201" text-anchor="start" dominant-baseline="alphabetic" transform="matrix(0.5403023058681398, -0.8414709848078965, 0.8414709848078965, 0.5403023058681398, -94.56848877864363, 218.4782985689348)" fill-opacity="1">1e-4</text><text fill="rgb(68,68,68)" stroke="none" font-family="helvetica" font-size="13px" font-style="normal" font-weight="normal" text-decoration="normal" x="137.61990356445312" y="201" text-anchor="start" dominant-baseline="alphabetic" transform="matrix(0.5403023058681398, -0.8414709848078965, 0.8414709848078965, 0.5403023058681398, -89.20386663086748, 228.29817354206577)" fill-opacity="1">1e-5</text><text fill="rgb(68,68,68)" stroke="none" font-family="helvetica" font-size="13px" font-style="normal" font-weight="normal" text-decoration="normal" x="169.9567413330078" y="201" text-anchor="start" dominant-baseline="alphabetic" transform="matrix(0.5403023058681398, -0.8414709848078965, 0.8414709848078965, 0.5403023058681398, -76.3287748790907, 251.8658709096144)" fill-opacity="1">1e0</text><text fill="rgb(68,68,68)" stroke="none" font-family="helvetica" font-size="13px" font-style="normal" font-weight="normal" text-decoration="normal" x="177.2975311279297" y="201" text-anchor="start" dominant-baseline="alphabetic" transform="matrix(0.5403023058681398, -0.8414709848078965, 0.8414709848078965, 0.5403023058681398, -70.96415273131458, 261.6857458827453)" fill-opacity="1">1e-1</text><text fill="rgb(68,68,68)" stroke="none" font-family="helvetica" font-size="13px" font-style="normal" font-weight="normal" text-decoration="normal" x="188.96742248535156" y="201" text-anchor="start" dominant-baseline="alphabetic" transform="matrix(0.5403023058681398, -0.8414709848078965, 0.8414709848078965, 0.5403023058681398, -65.59953058353841, 271.50562085587626)" fill-opacity="1">1e-2</text><text fill="rgb(68,68,68)" stroke="none" font-family="helvetica" font-size="13px" font-style="normal" font-weight="normal" text-decoration="normal" x="200.63731384277344" y="201" text-anchor="start" dominant-baseline="alphabetic" transform="matrix(0.5403023058681398, -0.8414709848078965, 0.8414709848078965, 0.5403023058681398, -60.234908435762236, 281.3254958290072)" fill-opacity="1">1e-3</text><text fill="rgb(68,68,68)" stroke="none" font-family="helvetica" font-size="13px" font-style="normal" font-weight="normal" text-decoration="normal" x="212.3072052001953" y="201" text-anchor="start" dominant-baseline="alphabetic" transform="matrix(0.5403023058681398, -0.8414709848078965, 0.8414709848078965, 0.5403023058681398, -54.87028628798606, 291.14537080213813)" fill-opacity="1">1e-4</text><text fill="rgb(68,68,68)" stroke="none" font-family="helvetica" font-size="13px" font-style="normal" font-weight="normal" text-decoration="normal" x="223.97708129882812" y="201" text-anchor="start" dominant-baseline="alphabetic" transform="matrix(0.5403023058681398, -0.8414709848078965, 0.8414709848078965, 0.5403023058681398, -49.50567115464003, 300.96523293544084)" fill-opacity="1">1e-5</text><text fill="rgb(68,68,68)" stroke="none" font-family="helvetica" font-size="13px" font-style="normal" font-weight="normal" text-decoration="normal" x="256.3139343261719" y="201" text-anchor="start" dominant-baseline="alphabetic" transform="matrix(0.5403023058681398, -0.8414709848078965, 0.8414709848078965, 0.5403023058681398, -36.630572388433166, 324.5329431428177)" fill-opacity="1">1e0</text><text fill="rgb(68,68,68)" stroke="none" font-family="helvetica" font-size="13px" font-style="normal" font-weight="normal" text-decoration="normal" x="263.65472412109375" y="201" text-anchor="start" dominant-baseline="alphabetic" transform="matrix(0.5403023058681398, -0.8414709848078965, 0.8414709848078965, 0.5403023058681398, -31.26595024065699, 334.3528181159487)" fill-opacity="1">1e-1</text><text fill="rgb(68,68,68)" stroke="none" font-family="helvetica" font-size="13px" font-style="normal" font-weight="normal" text-decoration="normal" x="275.3246154785156" y="201" text-anchor="start" dominant-baseline="alphabetic" transform="matrix(0.5403023058681398, -0.8414709848078965, 0.8414709848078965, 0.5403023058681398, -25.901328092880817, 344.17269308907964)" fill-opacity="1">1e-2</text><text fill="rgb(68,68,68)" stroke="none" font-family="helvetica" font-size="13px" font-style="normal" font-weight="normal" text-decoration="normal" x="286.9945068359375" y="201" text-anchor="start" dominant-baseline="alphabetic" transform="matrix(0.5403023058681398, -0.8414709848078965, 0.8414709848078965, 0.5403023058681398, -20.5367059451047, 353.9925680622106)" fill-opacity="1">1e-3</text><text fill="rgb(68,68,68)" stroke="none" font-family="helvetica" font-size="13px" font-style="normal" font-weight="normal" text-decoration="normal" x="298.6643981933594" y="201" text-anchor="start" dominant-baseline="alphabetic" transform="matrix(0.5403023058681398, -0.8414709848078965, 0.8414709848078965, 0.5403023058681398, -15.172083797328526, 363.8124430353415)" fill-opacity="1">1e-4</text><text fill="rgb(68,68,68)" stroke="none" font-family="helvetica" font-size="13px" font-style="normal" font-weight="normal" text-decoration="normal" x="310.33428955078125" y="201" text-anchor="start" dominant-baseline="alphabetic" transform="matrix(0.5403023058681398, -0.8414709848078965, 0.8414709848078965, 0.5403023058681398, -9.807461649552351, 373.63231800847245)" fill-opacity="1">1e-5</text><text fill="rgb(68,68,68)" stroke="none" font-family="helvetica" font-size="13px" font-style="normal" font-weight="normal" text-decoration="normal" x="342.6711120605469" y="201" text-anchor="start" dominant-baseline="alphabetic" transform="matrix(0.5403023058681398, -0.8414709848078965, 0.8414709848078965, 0.5403023058681398, 3.0676230877942317, 397.20000253619276)" fill-opacity="1">1e0</text><text fill="rgb(68,68,68)" stroke="none" font-family="helvetica" font-size="13px" font-style="normal" font-weight="normal" text-decoration="normal" x="350.01190185546875" y="201" text-anchor="start" dominant-baseline="alphabetic" transform="matrix(0.5403023058681398, -0.8414709848078965, 0.8414709848078965, 0.5403023058681398, 8.432245235570406, 407.0198775093238)" fill-opacity="1">1e-1</text><text fill="rgb(68,68,68)" stroke="none" font-family="helvetica" font-size="13px" font-style="normal" font-weight="normal" text-decoration="normal" x="361.6817932128906" y="201" text-anchor="start" dominant-baseline="alphabetic" transform="matrix(0.5403023058681398, -0.8414709848078965, 0.8414709848078965, 0.5403023058681398, 13.79686738334658, 416.83975248245474)" fill-opacity="1">1e-2</text><text fill="rgb(68,68,68)" stroke="none" font-family="helvetica" font-size="13px" font-style="normal" font-weight="normal" text-decoration="normal" x="373.3516845703125" y="201" text-anchor="start" dominant-baseline="alphabetic" transform="matrix(0.5403023058681398, -0.8414709848078965, 0.8414709848078965, 0.5403023058681398, 19.161489531122697, 426.6596274555857)" fill-opacity="1">1e-3</text><text fill="rgb(68,68,68)" stroke="none" font-family="helvetica" font-size="13px" font-style="normal" font-weight="normal" text-decoration="normal" x="385.0215759277344" y="201" text-anchor="start" dominant-baseline="alphabetic" transform="matrix(0.5403023058681398, -0.8414709848078965, 0.8414709848078965, 0.5403023058681398, 24.52611167889893, 436.4795024287166)" fill-opacity="1">1e-4</text><text fill="rgb(68,68,68)" stroke="none" font-family="helvetica" font-size="13px" font-style="normal" font-weight="normal" text-decoration="normal" x="396.69146728515625" y="201" text-anchor="start" dominant-baseline="alphabetic" transform="matrix(0.5403023058681398, -0.8414709848078965, 0.8414709848078965, 0.5403023058681398, 29.890733826675046, 446.29937740184755)" fill-opacity="1">1e-5</text><text fill="rgb(128,128,128)" stroke="none" font-family="helvetica" font-size="13px" font-style="normal" font-weight="bold" text-decoration="normal" x="112.42832946777344" y="243.29729276935444" text-anchor="start" dominant-baseline="alphabetic" transform="matrix(1, 0, 0, 1, 0.5, 0.5)" fill-opacity="1">Shared</text><text fill="rgb(128,128,128)" stroke="none" font-family="helvetica" font-size="13px" font-style="normal" font-weight="bold" text-decoration="normal" x="184.3382568359375" y="243.29729276935444" text-anchor="start" dominant-baseline="alphabetic" transform="matrix(1, 0, 0, 1, 0.5, 0.5)" fill-opacity="1">Split (50/50)</text><text fill="rgb(128,128,128)" stroke="none" font-family="helvetica" font-size="13px" font-style="normal" font-weight="bold" text-decoration="normal" x="270.6954345703125" y="243.29729276935444" text-anchor="start" dominant-baseline="alphabetic" transform="matrix(1, 0, 0, 1, 0.5, 0.5)" fill-opacity="1">Split (25/75)</text><text fill="rgb(128,128,128)" stroke="none" font-family="helvetica" font-size="13px" font-style="normal" font-weight="bold" text-decoration="normal" x="357.0526428222656" y="243.29729276935444" text-anchor="start" dominant-baseline="alphabetic" transform="matrix(1, 0, 0, 1, 0.5, 0.5)" fill-opacity="1">Split (10/90)</text><text fill="rgb(68,68,68)" stroke="none" font-family="helvetica" font-size="12pt" font-style="normal" font-weight="normal" text-decoration="normal" x="233.05078125" y="273.29729276935444" text-anchor="start" dominant-baseline="alphabetic" transform="matrix(1, 0, 0, 1, 0.5, 0.5)" fill-opacity="1">ğ‘˜_ğ‘™ğ‘–ğ‘›ğ‘˜ğ‘’ğ‘Ÿ</text><text fill="rgb(68,68,68)" stroke="none" font-family="helvetica" font-size="12pt" font-style="normal" font-weight="normal" text-decoration="normal" x="163.51953125" y="293.6972927693544" text-anchor="start" dominant-baseline="alphabetic" transform="matrix(1, 0, 0, 1, 0.5, 0.5)" fill-opacity="1">Resource Allocation (TX/TL)</text><path fill="none" stroke="rgb(211,211,211)" paint-order="fill" d="M 178.5 237.5 L 178.5 188.5 M 264.5 237.5 L 264.5 188.5 M 350.5 237.5 L 350.5 188.5" stroke-opacity="1" stroke-linejoin="bevel" stroke-miterlimit="10" stroke-width="2" stroke-dasharray=""/><path fill="none" stroke="rgb(0,0,0)" paint-order="fill" d="M 83.5 185.5 L 83.5 5.5" stroke-opacity="1" stroke-linejoin="bevel" stroke-miterlimit="10" stroke-dasharray=""/><path fill="none" stroke="rgb(0,0,0)" paint-order="fill" d="M 77.5 185.5 L 85.5 185.5 M 77.5 147.5 L 85.5 147.5 M 77.5 108.5 L 85.5 108.5 M 77.5 70.5 L 85.5 70.5 M 77.5 32.5 L 85.5 32.5" stroke-opacity="1" stroke-linejoin="bevel" stroke-miterlimit="10" stroke-dasharray=""/><path fill="none" stroke="rgb(0,0,0)" paint-order="fill" d="M 79.5 185.5 L 83.5 185.5 M 79.5 177.5 L 83.5 177.5 M 79.5 170.5 L 83.5 170.5 M 79.5 162.5 L 83.5 162.5 M 79.5 154.5 L 83.5 154.5 M 79.5 147.5 L 83.5 147.5 M 79.5 139.5 L 83.5 139.5 M 79.5 131.5 L 83.5 131.5 M 79.5 124.5 L 83.5 124.5 M 79.5 116.5 L 83.5 116.5 M 79.5 108.5 L 83.5 108.5 M 79.5 101.5 L 83.5 101.5 M 79.5 93.5 L 83.5 93.5 M 79.5 85.5 L 83.5 85.5 M 79.5 78.5 L 83.5 78.5 M 79.5 70.5 L 83.5 70.5 M 79.5 62.5 L 83.5 62.5 M 79.5 55.5 L 83.5 55.5 M 79.5 47.5 L 83.5 47.5 M 79.5 39.5 L 83.5 39.5 M 79.5 32.5 L 83.5 32.5 M 79.5 24.5 L 83.5 24.5 M 79.5 16.5 L 83.5 16.5 M 79.5 9.5 L 83.5 9.5" stroke-opacity="1" stroke-linejoin="bevel" stroke-miterlimit="10" stroke-dasharray=""/><text fill="rgb(68,68,68)" stroke="none" font-family="helvetica" font-size="13pt" font-style="normal" font-weight="normal" text-decoration="normal" x="62.36189270019531" y="191" text-anchor="start" dominant-baseline="alphabetic" transform="matrix(1, 0, 0, 1, 0.5, 0.5)" fill-opacity="1">0</text><text fill="rgb(68,68,68)" stroke="none" font-family="helvetica" font-size="13pt" font-style="normal" font-weight="normal" text-decoration="normal" x="38.27085876464844" y="152.69798278808594" text-anchor="start" dominant-baseline="alphabetic" transform="matrix(1, 0, 0, 1, 0.5, 0.5)" fill-opacity="1">0.05</text><text fill="rgb(68,68,68)" stroke="none" font-family="helvetica" font-size="13pt" font-style="normal" font-weight="normal" text-decoration="normal" x="47.908966064453125" y="114.39595794677734" text-anchor="start" dominant-baseline="alphabetic" transform="matrix(1, 0, 0, 1, 0.5, 0.5)" fill-opacity="1">0.1</text><text fill="rgb(68,68,68)" stroke="none" font-family="helvetica" font-size="13pt" font-style="normal" font-weight="normal" text-decoration="normal" x="38.27085876464844" y="76.09394073486328" text-anchor="start" dominant-baseline="alphabetic" transform="matrix(1, 0, 0, 1, 0.5, 0.5)" fill-opacity="1">0.15</text><text fill="rgb(68,68,68)" stroke="none" font-family="helvetica" font-size="13pt" font-style="normal" font-weight="normal" text-decoration="normal" x="47.908966064453125" y="37.791921615600586" text-anchor="start" dominant-baseline="alphabetic" transform="matrix(1, 0, 0, 1, 0.5, 0.5)" fill-opacity="1">0.2</text><text fill="rgb(68,68,68)" stroke="none" font-family="helvetica" font-size="15pt" font-style="normal" font-weight="normal" text-decoration="normal" x="-20.827774047851562" y="91" text-anchor="start" dominant-baseline="alphabetic" transform="matrix(6.123233995736766e-17, -1, 1, 6.123233995736766e-17, -69.22914123535156, 120.77085876464844)" fill-opacity="1">CTP (mM)</text></svg>