<svg version="1.1" xmlns="http://www.w3.org/2000/svg" width="400" height="400"><defs><clipPath id="RfTMZMVGDkor"><path fill="none" stroke="none" d="M 84.5 5.5 L 390.5 5.5 L 390.5 333.5 L 84.5 333.5 L 84.5 5.5"/></clipPath><clipPath id="eEXCnSqdyTBC"><path fill="none" stroke="none" d="M 84.5 5.5 L 390.5 5.5 L 390.5 333.5 L 84.5 333.5 L 84.5 5.5"/></clipPath><clipPath id="tscDcBUMutgW"><path fill="none" stroke="none" d="M 84.5 5.5 L 390.5 5.5 L 390.5 333.5 L 84.5 333.5 L 84.5 5.5"/></clipPath><clipPath id="aFQnxhqDoBrh"><path fill="none" stroke="none" d="M 84.5 5.5 L 390.5 5.5 L 390.5 333.5 L 84.5 333.5 L 84.5 5.5"/></clipPath></defs><path fill="rgb(255,255,255)" stroke="none" paint-order="stroke" d="M 0.5 0.5 L 400.5 0.5 L 400.5 400.5 L 0.5 400.5 L 0.5 0.5" fill-opacity="1"/><rect fill="#FFFFFF" stroke="none" x="84" y="5" width="306" height="328" transform="matrix(1, 0, 0, 1, 0.5, 0.5)"/><path fill="rgb(255,255,255)" stroke="none" paint-order="stroke" d="M 84.5 5.5 L 390.5 5.5 L 390.5 333.5 L 84.5 333.5 L 84.5 5.5" fill-opacity="1"/><path fill="none" stroke="rgb(255,0,255)" paint-order="fill" d="M 84.5 333.5 L 85.5225601196289 333.5 L 86.54511260986328 333.5 L 87.56767272949219 333.5 L 88.59022521972656 333.5 L 89.61278533935547 333.5 L 90.63533782958984 333.5 L 91.65789794921875 333.5 L 92.68045043945312 333.5 L 93.70301055908203 333.5 L 94.7255630493164 333.5 L 95.74812316894531 333.5 L 96.77067565917969 333.5 L 97.7932357788086 333.5 L 98.81578826904297 333.5 L 99.83834838867188 333.5 L 100.86090087890625 333.5 L 101.88346099853516 333.5 L 102.90601348876953 333.5 L 103.92857360839844 333.5 L 104.95112609863281 333.5 L 105.97368621826172 333.5 L 106.9962387084961 333.5 L 108.018798828125 333.5 L 109.04135131835938 333.5 L 110.06391143798828 333.5 L 111.08646392822266 333.5 L 112.10902404785156 333.5 L 113.13157653808594 333.5 L 114.15413665771484 333.5 L 115.17668914794922 333.5 L 116.19924926757812 333.5 L 117.2218017578125 333.5 L 118.2443618774414 333.5 L 119.26691436767578 333.5 L 120.28947448730469 333.5 L 121.31202697753906 333.5 L 122.33458709716797 333.5 L 123.35713958740234 333.5 L 124.37969970703125 333.5 L 125.40225219726562 333.5 L 126.42481231689453 333.5 L 127.4473648071289 333.5 L 128.4699249267578 333.5 L 129.4924774169922 333.5 L 130.51504516601562 333.5 L 131.53759765625 333.5 L 132.56015014648438 333.5 L 133.58270263671875 333.5 L 134.6052703857422 333.5 L 135.62782287597656 333.5 L 136.65037536621094 333.5 L 137.6729278564453 333.5 L 138.69549560546875 333.5 L 139.71804809570312 333.5 L 140.7406005859375 333.5 L 141.76315307617188 333.5 L 142.7857208251953 333.5 L 143.8082733154297 333.5 L 144.83082580566406 333.5 L 145.85337829589844 333.5 L 146.87594604492188 333.5 L 147.89849853515625 333.5 L 148.92105102539062 333.5 L 149.943603515625 333.5 L 150.96617126464844 333.5 L 151.9887237548828 333.5 L 153.0112762451172 333.5 L 154.03382873535156 333.5 L 155.056396484375 333.5 L 156.07894897460938 333.5 L 157.10150146484375 333.5 L 158.12405395507812 333.5 L 159.14662170410156 333.5 L 160.16917419433594 333.5 L 161.1917266845703 333.5 L 162.2142791748047 333.5 L 163.23684692382812 333.5 L 164.2593994140625 333.5 L 165.28195190429688 333.5 L 166.30450439453125 333.5 L 167.3270721435547 333.5 L 168.34962463378906 333.5 L 169.37217712402344 333.5 L 170.3947296142578 333.5 L 171.41729736328125 333.5 L 172.43984985351562 333.5 L 173.46240234375 333.5 L 174.48495483398438 333.5 L 175.5075225830078 333.5 L 176.5300750732422 333.5 L 177.55262756347656 333.5 L 178.5751953125 333.5 L 179.59774780273438 333.5 L 180.62030029296875 333.5 L 181.64285278320312 333.5 L 182.66542053222656 333.5 L 183.68797302246094 333.5 L 184.7105255126953 333.5 L 185.7330780029297 333.5 L 186.75564575195312 333.5 L 187.7781982421875 333.5 L 188.80075073242188 333.5 L 189.82330322265625 333.5 L 190.8458709716797 333.5 L 191.86842346191406 333.5 L 192.89097595214844 333.5 L 193.9135284423828 333.5 L 194.93609619140625 333.5 L 195.95864868164062 333.5 L 196.981201171875 333.5 L 198.00375366210938 333.5 L 199.0263214111328 333.5 L 200.0488739013672 333.5 L 201.07142639160156 333.5 L 202.09397888183594 333.5 L 203.11654663085938 333.5 L 204.13909912109375 333.5 L 205.16165161132812 333.5 L 206.1842041015625 333.5 L 207.20677185058594 333.5 L 208.2293243408203 333.5 L 209.2518768310547 333.5 L 210.27442932128906 333.5 L 211.2969970703125 333.5 L 212.31954956054688 333.5 L 213.34210205078125 333.5 L 214.36465454101562 333.5 L 215.38722229003906 333.5 L 216.40977478027344 333.5 L 217.4323272705078 333.5 L 218.4548797607422 333.5 L 219.47744750976562 333.5 L 220.5 333.5 L 221.52255249023438 333.5 L 222.5451202392578 333.5 L 223.5676727294922 333.5 L 224.59022521972656 333.5 L 225.61277770996094 333.5 L 226.63534545898438 333.5 L 227.65789794921875 333.5 L 228.68045043945312 333.5 L 229.7030029296875 333.5 L 230.72557067871094 333.5 L 231.7481231689453 333.5 L 232.7706756591797 333.5 L 233.79322814941406 333.5 L 234.8157958984375 333.5 L 235.83834838867188 333.5 L 236.86090087890625 333.5 L 237.88345336914062 333.5 L 238.90602111816406 333.5 L 239.92857360839844 333.5 L 240.9511260986328 333.5 L 241.9736785888672 333.5 L 242.99624633789062 333.5 L 244.018798828125 333.5 L 245.04135131835938 333.5 L 246.06390380859375 333.5 L 247.0864715576172 333.5 L 248.10902404785156 333.5 L 249.13157653808594 333.5 L 250.1541290283203 333.5 L 251.17669677734375 333.5 L 252.19924926757812 333.5 L 253.2218017578125 333.5 L 254.24435424804688 333.5 L 255.2669219970703 333.5 L 256.2894744873047 333.5 L 257.3120422363281 333.5 L 258.3345947265625 333.5 L 259.3571472167969 333.5 L 260.37969970703125 333.5 L 261.4022521972656 333.5 L 262.4248046875 333.5 L 263.4473571777344 333.5 L 264.46990966796875 333.5 L 265.49249267578125 333.5 L 266.5150451660156 333.5 L 267.53759765625 333.5 L 268.5601501464844 333.5 L 269.58270263671875 333.5 L 270.6052551269531 333.5 L 271.6278076171875 333.5 L 272.650390625 333.5 L 273.6729431152344 333.5 L 274.69549560546875 333.5 L 275.7180480957031 333.5 L 276.7406005859375 333.5 L 277.7631530761719 333.5 L 278.78570556640625 333.5 L 279.8082580566406 333.5 L 280.8308410644531 333.5 L 281.8533935546875 333.5 L 282.8759460449219 333.5 L 283.89849853515625 333.5 L 284.9210510253906 333.5 L 285.943603515625 333.5 L 286.9661560058594 333.5 L 287.98870849609375 333.5 L 289.01129150390625 333.5 L 290.0338439941406 333.5 L 291.056396484375 333.5 L 292.0789489746094 333.5 L 293.10150146484375 333.5 L 294.1240539550781 333.5 L 295.1466064453125 333.5 L 296.1691589355469 333.5 L 297.1917419433594 333.5 L 298.21429443359375 333.5 L 299.2368469238281 333.5 L 300.2593994140625 333.5 L 301.2819519042969 333.5 L 302.30450439453125 333.5 L 303.3270568847656 333.5 L 304.349609375 333.5 L 305.3721923828125 333.5 L 306.3947448730469 333.5 L 307.41729736328125 333.5 L 308.4398498535156 333.5 L 309.46240234375 333.5 L 310.4849548339844 333.5 L 311.50750732421875 333.5 L 312.53009033203125 333.5 L 313.5526428222656 333.5 L 314.5751953125 333.5 L 315.5977478027344 333.5 L 316.62030029296875 333.5 L 317.6428527832031 333.5 L 318.6654052734375 333.5 L 319.6879577636719 333.5 L 320.7105407714844 333.5 L 321.73309326171875 333.5 L 322.7556457519531 333.5 L 323.7781982421875 333.5 L 324.8007507324219 333.5 L 325.82330322265625 333.5 L 326.8458557128906 333.5 L 327.868408203125 333.5 L 328.8909912109375 333.5 L 329.9135437011719 333.5 L 330.93609619140625 333.5 L 331.9586486816406 333.5 L 332.981201171875 333.5 L 334.0037536621094 333.5 L 335.02630615234375 333.5 L 336.0488586425781 333.5 L 337.0714416503906 333.5 L 338.093994140625 333.5 L 339.1165466308594 333.5 L 340.13909912109375 333.5 L 341.1616516113281 333.5 L 342.1842041015625 333.5 L 343.2067565917969 333.5 L 344.22930908203125 333.5 L 345.25189208984375 333.5 L 346.2744445800781 333.5 L 347.2969970703125 333.5 L 348.3195495605469 333.5 L 349.34210205078125 333.5 L 350.3646545410156 333.5 L 351.38720703125 333.5 L 352.4097595214844 333.5 L 353.4323425292969 333.5 L 354.45489501953125 333.5 L 355.4774475097656 333.5 L 356.5 333.5 L 357.5225524902344 333.5 L 358.54510498046875 333.5 L 359.5676574707031 333.5 L 360.5902404785156 333.5 L 361.61279296875 333.5 L 362.6353454589844 333.5 L 363.65789794921875 333.5 L 364.6804504394531 333.5 L 365.7030029296875 333.5 L 366.7255554199219 333.5 L 367.74810791015625 333.5 L 368.77069091796875 333.5 L 369.7932434082031 333.5 L 370.8157958984375 333.5 L 371.8383483886719 333.5 L 372.86090087890625 333.5 L 373.8834533691406 333.5 L 374.906005859375 333.5 L 375.9285583496094 333.5 L 376.9511413574219 333.5 L 377.97369384765625 333.5 L 378.9962463378906 333.5 L 380.018798828125 333.5 L 381.0413513183594 333.5 L 382.06390380859375 333.5 L 383.0864562988281 333.5 L 384.1090087890625 333.5 L 385.131591796875 333.5 L 386.1541442871094 333.5 L 387.17669677734375 333.5 L 388.1992492675781 333.5 L 389.2218017578125 333.5 L 390.2443542480469 333.5 L 391.26690673828125 333.5 L 392.2894592285156 333.5 L 393.3120422363281 333.5 L 394.3345947265625 333.5 L 395.3571472167969 333.5 L 396.37969970703125 333.5 L 397.4022521972656 333.5 L 398.4248046875 333.5 L 399.4473571777344 333.5 L 400.46990966796875 333.5 L 401.49249267578125 333.5 L 402.5150451660156 333.5 L 403.53759765625 333.5 L 404.5601501464844 333.5 L 405.58270263671875 333.5 L 406.6052551269531 333.5 L 407.6278076171875 333.5 L 408.650390625 333.5 L 409.6729431152344 333.5 L 410.69549560546875 333.5 L 411.7180480957031 333.5 L 412.7406005859375 333.5 L 413.7631530761719 333.5 L 414.78570556640625 333.5 L 415.8082580566406 333.5 L 416.8308410644531 333.5 L 417.8533935546875 333.5 L 418.8759460449219 333.5 L 419.89849853515625 333.5 L 420.9210510253906 333.5 L 421.943603515625 333.5 L 422.9661560058594 333.5 L 423.98870849609375 333.5 L 425.01129150390625 333.5 L 426.0338439941406 333.5 L 427.056396484375 333.5 L 428.0789489746094 333.5 L 429.10150146484375 333.5 L 430.1240539550781 333.5 L 431.1466064453125 333.5 L 432.1691589355469 333.5 L 433.1917419433594 333.5 L 434.21429443359375 333.5 L 435.2368469238281 333.5 L 436.2593994140625 333.5 L 437.2819519042969 333.5 L 438.30450439453125 333.5 L 439.3270568847656 333.5 L 440.349609375 333.5 L 441.3721923828125 333.5 L 442.3947448730469 333.5 L 443.41729736328125 333.5 L 444.4398498535156 333.5 L 445.46240234375 333.5 L 446.4849548339844 333.5 L 447.50750732421875 333.5 L 448.53009033203125 333.5 L 449.5526428222656 333.5 L 450.5751953125 333.5 L 451.5977478027344 333.5 L 452.62030029296875 333.5 L 453.6428527832031 333.5 L 454.6654052734375 333.5 L 455.6879577636719 333.5 L 456.7105407714844 333.5 L 457.73309326171875 333.5 L 458.7556457519531 333.5 L 459.7781982421875 333.5 L 460.8007507324219 333.5 L 461.82330322265625 333.5 L 462.8458557128906 333.5 L 463.868408203125 333.5 L 464.8909912109375 333.5 L 465.9135437011719 333.5 L 466.93609619140625 333.5 L 467.9586486816406 333.5 L 468.981201171875 333.5 L 470.0037536621094 333.5 L 471.02630615234375 333.5 L 472.0488586425781 333.5 L 473.0714416503906 333.5 L 474.093994140625 333.5 L 475.1165466308594 333.5 L 476.13909912109375 333.5 L 477.1616516113281 333.5 L 478.1842041015625 333.5 L 479.2067565917969 333.5 L 480.22930908203125 333.5 L 481.25189208984375 333.5 L 482.2744445800781 333.5 L 483.2969970703125 333.5 L 484.3195495605469 333.5 L 485.34210205078125 333.5 L 486.3646545410156 333.5 L 487.38720703125 333.5 L 488.4097595214844 333.5 L 489.4323425292969 333.5 L 490.45489501953125 333.5 L 491.4774475097656 333.5 L 492.5 333.5" stroke-opacity="0.30196078431372547" stroke-linejoin="bevel" stroke-miterlimit="10" stroke-width="3" stroke-dasharray="" clip-path="url(#tscDcBUMutgW)"/><path fill="none" stroke="rgb(0,0,0)" paint-order="fill" d="M 84.5 333.5 L 390.5 333.5" stroke-opacity="1" stroke-linejoin="bevel" stroke-miterlimit="10" stroke-dasharray=""/><path fill="none" stroke="rgb(0,0,0)" paint-order="fill" d="M 84.5 339.5 L 84.5 331.5 M 135.5 339.5 L 135.5 331.5 M 186.5 339.5 L 186.5 331.5 M 237.5 339.5 L 237.5 331.5 M 288.5 339.5 L 288.5 331.5 M 339.5 339.5 L 339.5 331.5 M 390.5 339.5 L 390.5 331.5" stroke-opacity="1" stroke-linejoin="bevel" stroke-miterlimit="10" stroke-dasharray=""/><path fill="none" stroke="rgb(0,0,0)" paint-order="fill" d="M 84.5 337.5 L 84.5 333.5 M 94.5 337.5 L 94.5 333.5 M 104.5 337.5 L 104.5 333.5 M 115.5 337.5 L 115.5 333.5 M 125.5 337.5 L 125.5 333.5 M 135.5 337.5 L 135.5 333.5 M 145.5 337.5 L 145.5 333.5 M 155.5 337.5 L 155.5 333.5 M 166.5 337.5 L 166.5 333.5 M 176.5 337.5 L 176.5 333.5 M 186.5 337.5 L 186.5 333.5 M 196.5 337.5 L 196.5 333.5 M 206.5 337.5 L 206.5 333.5 M 217.5 337.5 L 217.5 333.5 M 227.5 337.5 L 227.5 333.5 M 237.5 337.5 L 237.5 333.5 M 247.5 337.5 L 247.5 333.5 M 257.5 337.5 L 257.5 333.5 M 268.5 337.5 L 268.5 333.5 M 278.5 337.5 L 278.5 333.5 M 288.5 337.5 L 288.5 333.5 M 298.5 337.5 L 298.5 333.5 M 308.5 337.5 L 308.5 333.5 M 319.5 337.5 L 319.5 333.5 M 329.5 337.5 L 329.5 333.5 M 339.5 337.5 L 339.5 333.5 M 349.5 337.5 L 349.5 333.5 M 359.5 337.5 L 359.5 333.5 M 370.5 337.5 L 370.5 333.5 M 380.5 337.5 L 380.5 333.5 M 390.5 337.5 L 390.5 333.5" stroke-opacity="1" stroke-linejoin="bevel" stroke-miterlimit="10" stroke-dasharray=""/><text fill="rgb(68,68,68)" stroke="none" font-family="Work Sans" font-size="15pt" font-style="normal" font-weight="normal" text-decoration="normal" x="79" y="357" text-anchor="start" dominant-baseline="alphabetic" transform="matrix(1, 0, 0, 1, 0.5, 0.5)" fill-opacity="1">0</text><text fill="rgb(68,68,68)" stroke="none" font-family="Work Sans" font-size="15pt" font-style="normal" font-weight="normal" text-decoration="normal" x="122.5" y="357" text-anchor="start" dominant-baseline="alphabetic" transform="matrix(1, 0, 0, 1, 0.5, 0.5)" fill-opacity="1">0.5</text><text fill="rgb(68,68,68)" stroke="none" font-family="Work Sans" font-size="15pt" font-style="normal" font-weight="normal" text-decoration="normal" x="181" y="357" text-anchor="start" dominant-baseline="alphabetic" transform="matrix(1, 0, 0, 1, 0.5, 0.5)" fill-opacity="1">1</text><text fill="rgb(68,68,68)" stroke="none" font-family="Work Sans" font-size="15pt" font-style="normal" font-weight="normal" text-decoration="normal" x="224.5" y="357" text-anchor="start" dominant-baseline="alphabetic" transform="matrix(1, 0, 0, 1, 0.5, 0.5)" fill-opacity="1">1.5</text><text fill="rgb(68,68,68)" stroke="none" font-family="Work Sans" font-size="15pt" font-style="normal" font-weight="normal" text-decoration="normal" x="283" y="357" text-anchor="start" dominant-baseline="alphabetic" transform="matrix(1, 0, 0, 1, 0.5, 0.5)" fill-opacity="1">2</text><text fill="rgb(68,68,68)" stroke="none" font-family="Work Sans" font-size="15pt" font-style="normal" font-weight="normal" text-decoration="normal" x="326.5" y="357" text-anchor="start" dominant-baseline="alphabetic" transform="matrix(1, 0, 0, 1, 0.5, 0.5)" fill-opacity="1">2.5</text><text fill="rgb(68,68,68)" stroke="none" font-family="Work Sans" font-size="15pt" font-style="normal" font-weight="normal" text-decoration="normal" x="385" y="357" text-anchor="start" dominant-baseline="alphabetic" transform="matrix(1, 0, 0, 1, 0.5, 0.5)" fill-opacity="1">3</text><text fill="rgb(68,68,68)" stroke="none" font-family="helvetica" font-size="15pt" font-style="normal" font-weight="normal" text-decoration="normal" x="180.6962890625" y="393" text-anchor="start" dominant-baseline="alphabetic" transform="matrix(1, 0, 0, 1, 0.5, 0.5)" fill-opacity="1">Time (hours)</text><path fill="none" stroke="rgb(0,0,0)" paint-order="fill" d="M 84.5 333.5 L 84.5 5.5" stroke-opacity="1" stroke-linejoin="bevel" stroke-miterlimit="10" stroke-dasharray=""/><path fill="none" stroke="rgb(0,0,0)" paint-order="fill" d="M 78.5 333.5 L 86.5 333.5 M 78.5 283.5 L 86.5 283.5 M 78.5 232.5 L 86.5 232.5 M 78.5 182.5 L 86.5 182.5 M 78.5 131.5 L 86.5 131.5 M 78.5 81.5 L 86.5 81.5 M 78.5 30.5 L 86.5 30.5" stroke-opacity="1" stroke-linejoin="bevel" stroke-miterlimit="10" stroke-dasharray=""/><path fill="none" stroke="rgb(0,0,0)" paint-order="fill" d="M 80.5 333.5 L 84.5 333.5 M 80.5 323.5 L 84.5 323.5 M 80.5 313.5 L 84.5 313.5 M 80.5 303.5 L 84.5 303.5 M 80.5 293.5 L 84.5 293.5 M 80.5 283.5 L 84.5 283.5 M 80.5 272.5 L 84.5 272.5 M 80.5 262.5 L 84.5 262.5 M 80.5 252.5 L 84.5 252.5 M 80.5 242.5 L 84.5 242.5 M 80.5 232.5 L 84.5 232.5 M 80.5 222.5 L 84.5 222.5 M 80.5 212.5 L 84.5 212.5 M 80.5 202.5 L 84.5 202.5 M 80.5 192.5 L 84.5 192.5 M 80.5 182.5 L 84.5 182.5 M 80.5 172.5 L 84.5 172.5 M 80.5 161.5 L 84.5 161.5 M 80.5 151.5 L 84.5 151.5 M 80.5 141.5 L 84.5 141.5 M 80.5 131.5 L 84.5 131.5 M 80.5 121.5 L 84.5 121.5 M 80.5 111.5 L 84.5 111.5 M 80.5 101.5 L 84.5 101.5 M 80.5 91.5 L 84.5 91.5 M 80.5 81.5 L 84.5 81.5 M 80.5 71.5 L 84.5 71.5 M 80.5 61.5 L 84.5 61.5 M 80.5 50.5 L 84.5 50.5 M 80.5 40.5 L 84.5 40.5 M 80.5 30.5 L 84.5 30.5 M 80.5 20.5 L 84.5 20.5 M 80.5 10.5 L 84.5 10.5" stroke-opacity="1" stroke-linejoin="bevel" stroke-miterlimit="10" stroke-dasharray=""/><text fill="rgb(68,68,68)" stroke="none" font-family="Work Sans" font-size="15pt" font-style="normal" font-weight="normal" text-decoration="normal" x="63" y="339.5" text-anchor="start" dominant-baseline="alphabetic" transform="matrix(1, 0, 0, 1, 0.5, 0.5)" fill-opacity="1">0</text><text fill="rgb(68,68,68)" stroke="none" font-family="Work Sans" font-size="15pt" font-style="normal" font-weight="normal" text-decoration="normal" x="53" y="289.0384521484375" text-anchor="start" dominant-baseline="alphabetic" transform="matrix(1, 0, 0, 1, 0.5, 0.5)" fill-opacity="1">20</text><text fill="rgb(68,68,68)" stroke="none" font-family="Work Sans" font-size="15pt" font-style="normal" font-weight="normal" text-decoration="normal" x="53" y="238.57691955566406" text-anchor="start" dominant-baseline="alphabetic" transform="matrix(1, 0, 0, 1, 0.5, 0.5)" fill-opacity="1">40</text><text fill="rgb(68,68,68)" stroke="none" font-family="Work Sans" font-size="15pt" font-style="normal" font-weight="normal" text-decoration="normal" x="53" y="188.11538696289062" text-anchor="start" dominant-baseline="alphabetic" transform="matrix(1, 0, 0, 1, 0.5, 0.5)" fill-opacity="1">60</text><text fill="rgb(68,68,68)" stroke="none" font-family="Work Sans" font-size="15pt" font-style="normal" font-weight="normal" text-decoration="normal" x="53" y="137.65383911132812" text-anchor="start" dominant-baseline="alphabetic" transform="matrix(1, 0, 0, 1, 0.5, 0.5)" fill-opacity="1">80</text><text fill="rgb(68,68,68)" stroke="none" font-family="Work Sans" font-size="15pt" font-style="normal" font-weight="normal" text-decoration="normal" x="43" y="87.19230651855469" text-anchor="start" dominant-baseline="alphabetic" transform="matrix(1, 0, 0, 1, 0.5, 0.5)" fill-opacity="1">100</text><text fill="rgb(68,68,68)" stroke="none" font-family="Work Sans" font-size="15pt" font-style="normal" font-weight="normal" text-decoration="normal" x="43" y="36.730770111083984" text-anchor="start" dominant-baseline="alphabetic" transform="matrix(1, 0, 0, 1, 0.5, 0.5)" fill-opacity="1">120</text><text fill="rgb(68,68,68)" stroke="none" font-family="helvetica" font-size="15pt" font-style="normal" font-weight="normal" text-decoration="normal" x="-22.9736328125" y="165" text-anchor="start" dominant-baseline="alphabetic" transform="matrix(6.123233995736766e-17, -1, 1, 6.123233995736766e-17, -143.5, 194.5)" fill-opacity="1">HiBiT (μM)</text></svg>