<svg version="1.1" xmlns="http://www.w3.org/2000/svg" width="400" height="400"><defs><clipPath id="TroVbNwxQIWO"><path fill="none" stroke="none" d="M 74.5 5.5 L 390.5 5.5 L 390.5 333.5 L 74.5 333.5 L 74.5 5.5"/></clipPath><clipPath id="FQnZezfhuHrr"><path fill="none" stroke="none" d="M 74.5 5.5 L 390.5 5.5 L 390.5 333.5 L 74.5 333.5 L 74.5 5.5"/></clipPath><clipPath id="WMtSGGnhucLL"><path fill="none" stroke="none" d="M 74.5 5.5 L 390.5 5.5 L 390.5 333.5 L 74.5 333.5 L 74.5 5.5"/></clipPath><clipPath id="brFRtioRLqHD"><path fill="none" stroke="none" d="M 74.5 5.5 L 390.5 5.5 L 390.5 333.5 L 74.5 333.5 L 74.5 5.5"/></clipPath><clipPath id="cHimuOvZOePK"><path fill="none" stroke="none" d="M 74.5 5.5 L 390.5 5.5 L 390.5 333.5 L 74.5 333.5 L 74.5 5.5"/></clipPath><clipPath id="SiCsJVOossGy"><path fill="none" stroke="none" d="M 74.5 5.5 L 390.5 5.5 L 390.5 333.5 L 74.5 333.5 L 74.5 5.5"/></clipPath></defs><path fill="rgb(255,255,255)" stroke="none" paint-order="stroke" d="M 0.5 0.5 L 400.5 0.5 L 400.5 400.5 L 0.5 400.5 L 0.5 0.5" fill-opacity="1"/><rect fill="#FFFFFF" stroke="none" x="74" y="5" width="316" height="328" transform="matrix(1, 0, 0, 1, 0.5, 0.5)"/><path fill="rgb(255,255,255)" stroke="none" paint-order="stroke" d="M 74.5 5.5 L 390.5 5.5 L 390.5 333.5 L 74.5 333.5 L 74.5 5.5" fill-opacity="1"/><path fill="none" stroke="rgb(255,0,255)" paint-order="fill" d="M 74.5 333.5 L 75.55597686767578 333.5 L 76.61194610595703 333.5 L 77.66792297363281 333.5 L 78.72389221191406 333.5 L 79.77986907958984 333.5 L 80.8358383178711 333.5 L 81.89181518554688 333.5 L 82.94778442382812 333.5 L 84.0037612915039 333.5 L 85.05973052978516 333.5 L 86.11570739746094 333.5 L 87.17167663574219 333.5 L 88.22765350341797 333.5 L 89.28362274169922 333.5 L 90.339599609375 333.5 L 91.39556884765625 333.5 L 92.45154571533203 333.5 L 93.50752258300781 333.5 L 94.56349182128906 333.5 L 95.61946868896484 333.5 L 96.6754379272461 333.5 L 97.73141479492188 333.5 L 98.78738403320312 333.5 L 99.8433609008789 333.5 L 100.89933013916016 333.5 L 101.95530700683594 333.5 L 103.01127624511719 333.5 L 104.06725311279297 333.5 L 105.12322235107422 333.5 L 106.17919921875 333.5 L 107.23516845703125 333.5 L 108.29114532470703 333.5 L 109.34711456298828 333.5 L 110.40309143066406 333.5 L 111.45906066894531 333.5 L 112.5150375366211 333.5 L 113.57101440429688 333.5 L 114.62698364257812 333.5 L 115.6829605102539 333.5 L 116.73892974853516 333.5 L 117.79490661621094 333.5 L 118.85087585449219 333.5 L 119.90685272216797 333.5 L 120.96282196044922 333.5 L 122.018798828125 333.5 L 123.07476806640625 333.5 L 124.13074493408203 333.5 L 125.18671417236328 333.5 L 126.24269104003906 333.5 L 127.29866027832031 333.5 L 128.3546371459961 333.5 L 129.41061401367188 333.5 L 130.46658325195312 333.5 L 131.52255249023438 333.5 L 132.5785369873047 333.5 L 133.63450622558594 333.5 L 134.6904754638672 333.5 L 135.74644470214844 333.5 L 136.80242919921875 333.5 L 137.8583984375 333.5 L 138.91436767578125 333.5 L 139.9703369140625 333.5 L 141.0263214111328 333.5 L 142.08229064941406 333.5 L 143.1382598876953 333.5 L 144.19422912597656 333.5 L 145.25021362304688 333.5 L 146.30618286132812 333.5 L 147.36215209960938 333.5 L 148.41812133789062 333.5 L 149.47410583496094 333.5 L 150.5300750732422 333.5 L 151.58604431152344 333.5 L 152.64202880859375 333.5 L 153.697998046875 333.5 L 154.75396728515625 333.5 L 155.8099365234375 333.5 L 156.8659210205078 333.5 L 157.92189025878906 333.5 L 158.9778594970703 333.5 L 160.03382873535156 333.5 L 161.08981323242188 333.5 L 162.14578247070312 333.5 L 163.20175170898438 333.5 L 164.25772094726562 333.5 L 165.31370544433594 333.5 L 166.3696746826172 333.5 L 167.42564392089844 333.5 L 168.4816131591797 333.5 L 169.53759765625 333.5 L 170.59356689453125 333.5 L 171.6495361328125 333.5 L 172.7055206298828 333.5 L 173.76148986816406 333.5 L 174.8174591064453 333.5 L 175.87342834472656 333.5 L 176.92941284179688 333.5 L 177.98538208007812 333.5 L 179.04135131835938 333.5 L 180.09732055664062 333.5 L 181.15330505371094 333.5 L 182.2092742919922 333.5 L 183.26524353027344 333.5 L 184.3212127685547 333.5 L 185.377197265625 333.5 L 186.43316650390625 333.5 L 187.4891357421875 333.5 L 188.5451202392578 333.5 L 189.60108947753906 333.5 L 190.6570587158203 333.5 L 191.71302795410156 333.5 L 192.76901245117188 333.5 L 193.82498168945312 333.5 L 194.88095092773438 333.5 L 195.93692016601562 333.5 L 196.99290466308594 333.5 L 198.0488739013672 333.5 L 199.10484313964844 333.5 L 200.1608123779297 333.5 L 201.216796875 333.5 L 202.27276611328125 333.5 L 203.3287353515625 333.5 L 204.38470458984375 333.5 L 205.44068908691406 333.5 L 206.4966583251953 333.5 L 207.55262756347656 333.5 L 208.60861206054688 333.5 L 209.66458129882812 333.5 L 210.72055053710938 333.5 L 211.77651977539062 333.5 L 212.83250427246094 333.5 L 213.8884735107422 333.5 L 214.94444274902344 333.5 L 216.0004119873047 333.5 L 217.056396484375 333.5 L 218.11236572265625 333.5 L 219.1683349609375 333.5 L 220.22430419921875 333.5 L 221.28028869628906 333.5 L 222.3362579345703 333.5 L 223.39222717285156 333.5 L 224.4481964111328 333.5 L 225.50418090820312 333.5 L 226.56015014648438 333.5 L 227.61611938476562 333.5 L 228.67210388183594 333.5 L 229.7280731201172 333.5 L 230.78404235839844 333.5 L 231.8400115966797 333.5 L 232.89599609375 333.5 L 233.95196533203125 333.5 L 235.0079345703125 333.5 L 236.06390380859375 333.5 L 237.11988830566406 333.5 L 238.1758575439453 333.5 L 239.23182678222656 333.5 L 240.2877960205078 333.5 L 241.34378051757812 333.5 L 242.39974975585938 333.5 L 243.45571899414062 333.5 L 244.51170349121094 333.5 L 245.5676727294922 333.5 L 246.62364196777344 333.5 L 247.6796112060547 333.5 L 248.735595703125 333.5 L 249.79156494140625 333.5 L 250.8475341796875 333.5 L 251.90350341796875 333.5 L 252.95948791503906 333.5 L 254.0154571533203 333.5 L 255.07142639160156 333.5 L 256.1273956298828 333.5 L 257.1833801269531 333.5 L 258.2393493652344 333.5 L 259.2953186035156 333.5 L 260.3512878417969 333.5 L 261.4072570800781 333.5 L 262.4632263183594 333.5 L 263.51922607421875 333.5 L 264.5751953125 333.5 L 265.63116455078125 333.5 L 266.6871337890625 333.5 L 267.74310302734375 333.5 L 268.799072265625 333.5 L 269.85504150390625 333.5 L 270.9110412597656 333.5 L 271.9670104980469 333.5 L 273.0229797363281 333.5 L 274.0789489746094 333.5 L 275.1349182128906 333.5 L 276.1908874511719 333.5 L 277.2468566894531 333.5 L 278.3028259277344 333.5 L 279.35882568359375 333.5 L 280.414794921875 333.5 L 281.47076416015625 333.5 L 282.5267333984375 333.5 L 283.58270263671875 333.5 L 284.638671875 333.5 L 285.69464111328125 333.5 L 286.7506408691406 333.5 L 287.8066101074219 333.5 L 288.8625793457031 333.5 L 289.9185485839844 333.5 L 290.9745178222656 333.5 L 292.0304870605469 333.5 L 293.0864562988281 333.5 L 294.1424255371094 333.5 L 295.19842529296875 333.5 L 296.25439453125 333.5 L 297.31036376953125 333.5 L 298.3663330078125 333.5 L 299.42230224609375 333.5 L 300.478271484375 333.5 L 301.53424072265625 333.5 L 302.5902404785156 333.5 L 303.6462097167969 333.5 L 304.7021789550781 333.5 L 305.7581481933594 333.5 L 306.8141174316406 333.5 L 307.8700866699219 333.5 L 308.9260559082031 333.5 L 309.9820251464844 333.5 L 311.03802490234375 333.5 L 312.093994140625 333.5 L 313.14996337890625 333.5 L 314.2059326171875 333.5 L 315.26190185546875 333.5 L 316.31787109375 333.5 L 317.37384033203125 333.5 L 318.4298095703125 333.5 L 319.4858093261719 333.5 L 320.5417785644531 333.5 L 321.5977478027344 333.5 L 322.6537170410156 333.5 L 323.7096862792969 333.5 L 324.7656555175781 333.5 L 325.8216247558594 333.5 L 326.87762451171875 333.5 L 327.93359375 333.5 L 328.98956298828125 333.5 L 330.0455322265625 333.5 L 331.10150146484375 333.5 L 332.157470703125 333.5 L 333.21343994140625 333.5 L 334.2694091796875 333.5 L 335.3254089355469 333.5 L 336.3813781738281 333.5 L 337.4373474121094 333.5 L 338.4933166503906 333.5 L 339.5492858886719 333.5 L 340.6052551269531 333.5 L 341.6612243652344 333.5 L 342.71722412109375 333.5 L 343.773193359375 333.5 L 344.82916259765625 333.5 L 345.8851318359375 333.5 L 346.94110107421875 333.5 L 347.9970703125 333.5 L 349.05303955078125 333.5 L 350.1090087890625 333.5 L 351.1650085449219 333.5 L 352.2209777832031 333.5 L 353.2769470214844 333.5 L 354.3329162597656 333.5 L 355.3888854980469 333.5 L 356.4448547363281 333.5 L 357.5008239746094 333.5 L 358.55682373046875 333.5 L 359.61279296875 333.5 L 360.66876220703125 333.5 L 361.7247314453125 333.5 L 362.78070068359375 333.5 L 363.836669921875 333.5 L 364.89263916015625 333.5 L 365.9486083984375 333.5 L 367.0046081542969 333.5 L 368.0605773925781 333.5 L 369.1165466308594 333.5 L 370.1725158691406 333.5 L 371.2284851074219 333.5 L 372.2844543457031 333.5 L 373.3404235839844 333.5 L 374.3963928222656 333.5 L 375.452392578125 333.5 L 376.50836181640625 333.5 L 377.5643310546875 333.5 L 378.62030029296875 333.5 L 379.67626953125 333.5 L 380.73223876953125 333.5 L 381.7882080078125 333.5 L 382.8442077636719 333.5 L 383.9001770019531 333.5 L 384.9561462402344 333.5 L 386.0121154785156 333.5 L 387.0680847167969 333.5 L 388.1240539550781 333.5 L 389.1800231933594 333.5 L 390.2359924316406 333.5 L 391.2919921875 333.5 L 392.34796142578125 333.5 L 393.4039306640625 333.5 L 394.45989990234375 333.5 L 395.515869140625 333.5 L 396.57183837890625 333.5 L 397.6278076171875 333.5 L 398.6838073730469 333.5 L 399.7397766113281 333.5 L 400.7957458496094 333.5 L 401.8517150878906 333.5 L 402.9076843261719 333.5 L 403.9636535644531 333.5 L 405.0196228027344 333.5 L 406.0755920410156 333.5 L 407.131591796875 333.5 L 408.18756103515625 333.5 L 409.2435302734375 333.5 L 410.29949951171875 333.5 L 411.35546875 333.5 L 412.41143798828125 333.5 L 413.4674072265625 333.5 L 414.5234069824219 333.5 L 415.5793762207031 333.5 L 416.6353454589844 333.5 L 417.6913146972656 333.5 L 418.7472839355469 333.5 L 419.8032531738281 333.5 L 420.8592224121094 333.5 L 421.9151916503906 333.5 L 422.97119140625 333.5 L 424.02716064453125 333.5 L 425.0831298828125 333.5 L 426.13909912109375 333.5 L 427.195068359375 333.5 L 428.25103759765625 333.5 L 429.3070068359375 333.5 L 430.36297607421875 333.5 L 431.4189758300781 333.5 L 432.4749450683594 333.5 L 433.5309143066406 333.5 L 434.5868835449219 333.5 L 435.6428527832031 333.5 L 436.6988220214844 333.5 L 437.7547912597656 333.5 L 438.810791015625 333.5 L 439.86676025390625 333.5 L 440.9227294921875 333.5 L 441.97869873046875 333.5 L 443.03466796875 333.5 L 444.09063720703125 333.5 L 445.1466064453125 333.5 L 446.20257568359375 333.5 L 447.2585754394531 333.5 L 448.3145446777344 333.5 L 449.3705139160156 333.5 L 450.4264831542969 333.5 L 451.4824523925781 333.5 L 452.5384216308594 333.5 L 453.5943908691406 333.5 L 454.650390625 333.5 L 455.70635986328125 333.5 L 456.7623291015625 333.5 L 457.81829833984375 333.5 L 458.874267578125 333.5 L 459.93023681640625 333.5 L 460.9862060546875 333.5 L 462.04217529296875 333.5 L 463.0981750488281 333.5 L 464.1541442871094 333.5 L 465.2101135253906 333.5 L 466.2660827636719 333.5 L 467.3220520019531 333.5 L 468.3780212402344 333.5 L 469.4339904785156 333.5 L 470.4899597167969 333.5 L 471.54595947265625 333.5 L 472.6019287109375 333.5 L 473.65789794921875 333.5 L 474.7138671875 333.5 L 475.76983642578125 333.5 L 476.8258056640625 333.5 L 477.88177490234375 333.5 L 478.9377746582031 333.5 L 479.9937438964844 333.5 L 481.0497131347656 333.5 L 482.1056823730469 333.5 L 483.1616516113281 333.5 L 484.2176208496094 333.5 L 485.2735900878906 333.5 L 486.3295593261719 333.5 L 487.38555908203125 333.5 L 488.4415283203125 333.5 L 489.49749755859375 333.5 L 490.553466796875 333.5 L 491.60943603515625 333.5 L 492.6654052734375 333.5 L 493.72137451171875 333.5 L 494.7773742675781 333.5 L 495.8333435058594 333.5" stroke-opacity="0.30196078431372547" stroke-linejoin="bevel" stroke-miterlimit="10" stroke-width="3" stroke-dasharray="" clip-path="url(#WMtSGGnhucLL)"/><path fill="none" stroke="rgb(128,128,128)" paint-order="fill" d="M 74.5 333.5 L 75.55597686767578 333.5 L 76.61194610595703 333.5 L 77.66792297363281 333.5 L 78.72389221191406 333.5 L 79.77986907958984 333.5 L 80.8358383178711 333.5 L 81.89181518554688 333.5 L 82.94778442382812 333.5 L 84.0037612915039 333.5 L 85.05973052978516 333.5 L 86.11570739746094 333.5 L 87.17167663574219 333.5 L 88.22765350341797 333.5 L 89.28362274169922 333.5 L 90.339599609375 333.5 L 91.39556884765625 333.5 L 92.45154571533203 333.5 L 93.50752258300781 333.5 L 94.56349182128906 333.5 L 95.61946868896484 333.5 L 96.6754379272461 333.5 L 97.73141479492188 333.5 L 98.78738403320312 333.5 L 99.8433609008789 333.5 L 100.89933013916016 333.5 L 101.95530700683594 333.5 L 103.01127624511719 333.5 L 104.06725311279297 333.5 L 105.12322235107422 333.5 L 106.17919921875 333.5 L 107.23516845703125 333.5 L 108.29114532470703 333.5 L 109.34711456298828 333.5 L 110.40309143066406 333.5 L 111.45906066894531 333.5 L 112.5150375366211 333.5 L 113.57101440429688 333.5 L 114.62698364257812 333.5 L 115.6829605102539 333.5 L 116.73892974853516 333.5 L 117.79490661621094 333.5 L 118.85087585449219 333.5 L 119.90685272216797 333.5 L 120.96282196044922 333.5 L 122.018798828125 333.5 L 123.07476806640625 333.5 L 124.13074493408203 333.5 L 125.18671417236328 333.5 L 126.24269104003906 333.5 L 127.29866027832031 333.5 L 128.3546371459961 333.5 L 129.41061401367188 333.5 L 130.46658325195312 333.5 L 131.52255249023438 333.5 L 132.5785369873047 333.5 L 133.63450622558594 333.5 L 134.6904754638672 333.5 L 135.74644470214844 333.5 L 136.80242919921875 333.5 L 137.8583984375 333.5 L 138.91436767578125 333.5 L 139.9703369140625 333.5 L 141.0263214111328 333.5 L 142.08229064941406 333.5 L 143.1382598876953 333.5 L 144.19422912597656 333.5 L 145.25021362304688 333.5 L 146.30618286132812 333.5 L 147.36215209960938 333.5 L 148.41812133789062 333.5 L 149.47410583496094 333.5 L 150.5300750732422 333.5 L 151.58604431152344 333.5 L 152.64202880859375 333.5 L 153.697998046875 333.5 L 154.75396728515625 333.5 L 155.8099365234375 333.5 L 156.8659210205078 333.5 L 157.92189025878906 333.5 L 158.9778594970703 333.5 L 160.03382873535156 333.5 L 161.08981323242188 333.5 L 162.14578247070312 333.5 L 163.20175170898438 333.5 L 164.25772094726562 333.5 L 165.31370544433594 333.5 L 166.3696746826172 333.5 L 167.42564392089844 333.5 L 168.4816131591797 333.5 L 169.53759765625 333.5 L 170.59356689453125 333.5 L 171.6495361328125 333.5 L 172.7055206298828 333.5 L 173.76148986816406 333.5 L 174.8174591064453 333.5 L 175.87342834472656 333.5 L 176.92941284179688 333.5 L 177.98538208007812 333.5 L 179.04135131835938 333.5 L 180.09732055664062 333.5 L 181.15330505371094 333.5 L 182.2092742919922 333.5 L 183.26524353027344 333.5 L 184.3212127685547 333.5 L 185.377197265625 333.5 L 186.43316650390625 333.5 L 187.4891357421875 333.5 L 188.5451202392578 333.5 L 189.60108947753906 333.5 L 190.6570587158203 333.5 L 191.71302795410156 333.5 L 192.76901245117188 333.5 L 193.82498168945312 333.5 L 194.88095092773438 333.5 L 195.93692016601562 333.5 L 196.99290466308594 333.5 L 198.0488739013672 333.5 L 199.10484313964844 333.5 L 200.1608123779297 333.5 L 201.216796875 333.5 L 202.27276611328125 333.5 L 203.3287353515625 333.5 L 204.38470458984375 333.5 L 205.44068908691406 333.5 L 206.4966583251953 333.5 L 207.55262756347656 333.5 L 208.60861206054688 333.5 L 209.66458129882812 333.5 L 210.72055053710938 333.5 L 211.77651977539062 333.5 L 212.83250427246094 333.5 L 213.8884735107422 333.5 L 214.94444274902344 333.5 L 216.0004119873047 333.5 L 217.056396484375 333.5 L 218.11236572265625 333.5 L 219.1683349609375 333.5 L 220.22430419921875 333.5 L 221.28028869628906 333.5 L 222.3362579345703 333.5 L 223.39222717285156 333.5 L 224.4481964111328 333.5 L 225.50418090820312 333.5 L 226.56015014648438 333.5 L 227.61611938476562 333.5 L 228.67210388183594 333.5 L 229.7280731201172 333.5 L 230.78404235839844 333.5 L 231.8400115966797 333.5 L 232.89599609375 333.5 L 233.95196533203125 333.5 L 235.0079345703125 333.5 L 236.06390380859375 333.5 L 237.11988830566406 333.5 L 238.1758575439453 333.5 L 239.23182678222656 333.5 L 240.2877960205078 333.5 L 241.34378051757812 333.5 L 242.39974975585938 333.5 L 243.45571899414062 333.5 L 244.51170349121094 333.5 L 245.5676727294922 333.5 L 246.62364196777344 333.5 L 247.6796112060547 333.5 L 248.735595703125 333.5 L 249.79156494140625 333.5 L 250.8475341796875 333.5 L 251.90350341796875 333.5 L 252.95948791503906 333.5 L 254.0154571533203 333.5 L 255.07142639160156 333.5 L 256.1273956298828 333.5 L 257.1833801269531 333.5 L 258.2393493652344 333.5 L 259.2953186035156 333.5 L 260.3512878417969 333.5 L 261.4072570800781 333.5 L 262.4632263183594 333.5 L 263.51922607421875 333.5 L 264.5751953125 333.5 L 265.63116455078125 333.5 L 266.6871337890625 333.5 L 267.74310302734375 333.5 L 268.799072265625 333.5 L 269.85504150390625 333.5 L 270.9110412597656 333.5 L 271.9670104980469 333.5 L 273.0229797363281 333.5 L 274.0789489746094 333.5 L 275.1349182128906 333.5 L 276.1908874511719 333.5 L 277.2468566894531 333.5 L 278.3028259277344 333.5 L 279.35882568359375 333.5 L 280.414794921875 333.5 L 281.47076416015625 333.5 L 282.5267333984375 333.5 L 283.58270263671875 333.5 L 284.638671875 333.5 L 285.69464111328125 333.5 L 286.7506408691406 333.5 L 287.8066101074219 333.5 L 288.8625793457031 333.5 L 289.9185485839844 333.5 L 290.9745178222656 333.5 L 292.0304870605469 333.5 L 293.0864562988281 333.5 L 294.1424255371094 333.5 L 295.19842529296875 333.5 L 296.25439453125 333.5 L 297.31036376953125 333.5 L 298.3663330078125 333.5 L 299.42230224609375 333.5 L 300.478271484375 333.5 L 301.53424072265625 333.5 L 302.5902404785156 333.5 L 303.6462097167969 333.5 L 304.7021789550781 333.5 L 305.7581481933594 333.5 L 306.8141174316406 333.5 L 307.8700866699219 333.5 L 308.9260559082031 333.5 L 309.9820251464844 333.5 L 311.03802490234375 333.5 L 312.093994140625 333.5 L 313.14996337890625 333.5 L 314.2059326171875 333.5 L 315.26190185546875 333.5 L 316.31787109375 333.5 L 317.37384033203125 333.5 L 318.4298095703125 333.5 L 319.4858093261719 333.5 L 320.5417785644531 333.5 L 321.5977478027344 333.5 L 322.6537170410156 333.5 L 323.7096862792969 333.5 L 324.7656555175781 333.5 L 325.8216247558594 333.5 L 326.87762451171875 333.5 L 327.93359375 333.5 L 328.98956298828125 333.5 L 330.0455322265625 333.5 L 331.10150146484375 333.5 L 332.157470703125 333.5 L 333.21343994140625 333.5 L 334.2694091796875 333.5 L 335.3254089355469 333.5 L 336.3813781738281 333.5 L 337.4373474121094 333.5 L 338.4933166503906 333.5 L 339.5492858886719 333.5 L 340.6052551269531 333.5 L 341.6612243652344 333.5 L 342.71722412109375 333.5 L 343.773193359375 333.5 L 344.82916259765625 333.5 L 345.8851318359375 333.5 L 346.94110107421875 333.5 L 347.9970703125 333.5 L 349.05303955078125 333.5 L 350.1090087890625 333.5 L 351.1650085449219 333.5 L 352.2209777832031 333.5 L 353.2769470214844 333.5 L 354.3329162597656 333.5 L 355.3888854980469 333.5 L 356.4448547363281 333.5 L 357.5008239746094 333.5 L 358.55682373046875 333.5 L 359.61279296875 333.5 L 360.66876220703125 333.5 L 361.7247314453125 333.5 L 362.78070068359375 333.5 L 363.836669921875 333.5 L 364.89263916015625 333.5 L 365.9486083984375 333.5 L 367.0046081542969 333.5 L 368.0605773925781 333.5 L 369.1165466308594 333.5 L 370.1725158691406 333.5 L 371.2284851074219 333.5 L 372.2844543457031 333.5 L 373.3404235839844 333.5 L 374.3963928222656 333.5 L 375.452392578125 333.5 L 376.50836181640625 333.5 L 377.5643310546875 333.5 L 378.62030029296875 333.5 L 379.67626953125 333.5 L 380.73223876953125 333.5 L 381.7882080078125 333.5 L 382.8442077636719 333.5 L 383.9001770019531 333.5 L 384.9561462402344 333.5 L 386.0121154785156 333.5 L 387.0680847167969 333.5 L 388.1240539550781 333.5 L 389.1800231933594 333.5 L 390.2359924316406 333.5 L 391.2919921875 333.5 L 392.34796142578125 333.5 L 393.4039306640625 333.5 L 394.45989990234375 333.5 L 395.515869140625 333.5 L 396.57183837890625 333.5 L 397.6278076171875 333.5 L 398.6838073730469 333.5 L 399.7397766113281 333.5 L 400.7957458496094 333.5 L 401.8517150878906 333.5 L 402.9076843261719 333.5 L 403.9636535644531 333.5 L 405.0196228027344 333.5 L 406.0755920410156 333.5 L 407.131591796875 333.5 L 408.18756103515625 333.5 L 409.2435302734375 333.5 L 410.29949951171875 333.5 L 411.35546875 333.5 L 412.41143798828125 333.5 L 413.4674072265625 333.5 L 414.5234069824219 333.5 L 415.5793762207031 333.5 L 416.6353454589844 333.5 L 417.6913146972656 333.5 L 418.7472839355469 333.5 L 419.8032531738281 333.5 L 420.8592224121094 333.5 L 421.9151916503906 333.5 L 422.97119140625 333.5 L 424.02716064453125 333.5 L 425.0831298828125 333.5 L 426.13909912109375 333.5 L 427.195068359375 333.5 L 428.25103759765625 333.5 L 429.3070068359375 333.5 L 430.36297607421875 333.5 L 431.4189758300781 333.5 L 432.4749450683594 333.5 L 433.5309143066406 333.5 L 434.5868835449219 333.5 L 435.6428527832031 333.5 L 436.6988220214844 333.5 L 437.7547912597656 333.5 L 438.810791015625 333.5 L 439.86676025390625 333.5 L 440.9227294921875 333.5 L 441.97869873046875 333.5 L 443.03466796875 333.5 L 444.09063720703125 333.5 L 445.1466064453125 333.5 L 446.20257568359375 333.5 L 447.2585754394531 333.5 L 448.3145446777344 333.5 L 449.3705139160156 333.5 L 450.4264831542969 333.5 L 451.4824523925781 333.5 L 452.5384216308594 333.5 L 453.5943908691406 333.5 L 454.650390625 333.5 L 455.70635986328125 333.5 L 456.7623291015625 333.5 L 457.81829833984375 333.5 L 458.874267578125 333.5 L 459.93023681640625 333.5 L 460.9862060546875 333.5 L 462.04217529296875 333.5 L 463.0981750488281 333.5 L 464.1541442871094 333.5 L 465.2101135253906 333.5 L 466.2660827636719 333.5 L 467.3220520019531 333.5 L 468.3780212402344 333.5 L 469.4339904785156 333.5 L 470.4899597167969 333.5 L 471.54595947265625 333.5 L 472.6019287109375 333.5 L 473.65789794921875 333.5 L 474.7138671875 333.5 L 475.76983642578125 333.5 L 476.8258056640625 333.5 L 477.88177490234375 333.5 L 478.9377746582031 333.5 L 479.9937438964844 333.5 L 481.0497131347656 333.5 L 482.1056823730469 333.5 L 483.1616516113281 333.5 L 484.2176208496094 333.5 L 485.2735900878906 333.5 L 486.3295593261719 333.5 L 487.38555908203125 333.5 L 488.4415283203125 333.5 L 489.49749755859375 333.5 L 490.553466796875 333.5 L 491.60943603515625 333.5 L 492.6654052734375 333.5 L 493.72137451171875 333.5 L 494.7773742675781 333.5 L 495.8333435058594 333.5" stroke-opacity="0.6" stroke-linejoin="bevel" stroke-miterlimit="10" stroke-width="3" stroke-dasharray="6" clip-path="url(#brFRtioRLqHD)"/><path fill="none" stroke="rgb(0,0,0)" paint-order="fill" d="M 74.5 333.5 L 390.5 333.5" stroke-opacity="1" stroke-linejoin="bevel" stroke-miterlimit="10" stroke-dasharray=""/><path fill="none" stroke="rgb(0,0,0)" paint-order="fill" d="M 74.5 339.5 L 74.5 331.5 M 127.5 339.5 L 127.5 331.5 M 179.5 339.5 L 179.5 331.5 M 232.5 339.5 L 232.5 331.5 M 285.5 339.5 L 285.5 331.5 M 337.5 339.5 L 337.5 331.5 M 390.5 339.5 L 390.5 331.5" stroke-opacity="1" stroke-linejoin="bevel" stroke-miterlimit="10" stroke-dasharray=""/><path fill="none" stroke="rgb(0,0,0)" paint-order="fill" d="M 74.5 337.5 L 74.5 333.5 M 85.5 337.5 L 85.5 333.5 M 95.5 337.5 L 95.5 333.5 M 106.5 337.5 L 106.5 333.5 M 116.5 337.5 L 116.5 333.5 M 127.5 337.5 L 127.5 333.5 M 137.5 337.5 L 137.5 333.5 M 148.5 337.5 L 148.5 333.5 M 158.5 337.5 L 158.5 333.5 M 169.5 337.5 L 169.5 333.5 M 179.5 337.5 L 179.5 333.5 M 190.5 337.5 L 190.5 333.5 M 200.5 337.5 L 200.5 333.5 M 211.5 337.5 L 211.5 333.5 M 221.5 337.5 L 221.5 333.5 M 232.5 337.5 L 232.5 333.5 M 243.5 337.5 L 243.5 333.5 M 253.5 337.5 L 253.5 333.5 M 264.5 337.5 L 264.5 333.5 M 274.5 337.5 L 274.5 333.5 M 285.5 337.5 L 285.5 333.5 M 295.5 337.5 L 295.5 333.5 M 306.5 337.5 L 306.5 333.5 M 316.5 337.5 L 316.5 333.5 M 327.5 337.5 L 327.5 333.5 M 337.5 337.5 L 337.5 333.5 M 348.5 337.5 L 348.5 333.5 M 358.5 337.5 L 358.5 333.5 M 369.5 337.5 L 369.5 333.5 M 379.5 337.5 L 379.5 333.5 M 390.5 337.5 L 390.5 333.5" stroke-opacity="1" stroke-linejoin="bevel" stroke-miterlimit="10" stroke-dasharray=""/><text fill="rgb(68,68,68)" stroke="none" font-family="Work Sans" font-size="15pt" font-style="normal" font-weight="normal" text-decoration="normal" x="69" y="357" text-anchor="start" dominant-baseline="alphabetic" transform="matrix(1, 0, 0, 1, 0.5, 0.5)" fill-opacity="1">0</text><text fill="rgb(68,68,68)" stroke="none" font-family="Work Sans" font-size="15pt" font-style="normal" font-weight="normal" text-decoration="normal" x="114.16666412353516" y="357" text-anchor="start" dominant-baseline="alphabetic" transform="matrix(1, 0, 0, 1, 0.5, 0.5)" fill-opacity="1">0.5</text><text fill="rgb(68,68,68)" stroke="none" font-family="Work Sans" font-size="15pt" font-style="normal" font-weight="normal" text-decoration="normal" x="174.3333282470703" y="357" text-anchor="start" dominant-baseline="alphabetic" transform="matrix(1, 0, 0, 1, 0.5, 0.5)" fill-opacity="1">1</text><text fill="rgb(68,68,68)" stroke="none" font-family="Work Sans" font-size="15pt" font-style="normal" font-weight="normal" text-decoration="normal" x="219.5" y="357" text-anchor="start" dominant-baseline="alphabetic" transform="matrix(1, 0, 0, 1, 0.5, 0.5)" fill-opacity="1">1.5</text><text fill="rgb(68,68,68)" stroke="none" font-family="Work Sans" font-size="15pt" font-style="normal" font-weight="normal" text-decoration="normal" x="279.6666564941406" y="357" text-anchor="start" dominant-baseline="alphabetic" transform="matrix(1, 0, 0, 1, 0.5, 0.5)" fill-opacity="1">2</text><text fill="rgb(68,68,68)" stroke="none" font-family="Work Sans" font-size="15pt" font-style="normal" font-weight="normal" text-decoration="normal" x="324.8333435058594" y="357" text-anchor="start" dominant-baseline="alphabetic" transform="matrix(1, 0, 0, 1, 0.5, 0.5)" fill-opacity="1">2.5</text><text fill="rgb(68,68,68)" stroke="none" font-family="Work Sans" font-size="15pt" font-style="normal" font-weight="normal" text-decoration="normal" x="385" y="357" text-anchor="start" dominant-baseline="alphabetic" transform="matrix(1, 0, 0, 1, 0.5, 0.5)" fill-opacity="1">3</text><text fill="rgb(68,68,68)" stroke="none" font-family="helvetica" font-size="15pt" font-style="normal" font-weight="normal" text-decoration="normal" x="175.6962890625" y="393" text-anchor="start" dominant-baseline="alphabetic" transform="matrix(1, 0, 0, 1, 0.5, 0.5)" fill-opacity="1">Time (hours)</text><path fill="none" stroke="rgb(0,0,0)" paint-order="fill" d="M 74.5 333.5 L 74.5 5.5" stroke-opacity="1" stroke-linejoin="bevel" stroke-miterlimit="10" stroke-dasharray=""/><path fill="none" stroke="rgb(0,0,0)" paint-order="fill" d="M 68.5 333.5 L 76.5 333.5 M 68.5 292.5 L 76.5 292.5 M 68.5 251.5 L 76.5 251.5 M 68.5 210.5 L 76.5 210.5 M 68.5 169.5 L 76.5 169.5 M 68.5 128.5 L 76.5 128.5 M 68.5 87.5 L 76.5 87.5 M 68.5 46.5 L 76.5 46.5 M 68.5 5.5 L 76.5 5.5" stroke-opacity="1" stroke-linejoin="bevel" stroke-miterlimit="10" stroke-dasharray=""/><path fill="none" stroke="rgb(0,0,0)" paint-order="fill" d="M 70.5 333.5 L 74.5 333.5 M 70.5 325.5 L 74.5 325.5 M 70.5 317.5 L 74.5 317.5 M 70.5 308.5 L 74.5 308.5 M 70.5 300.5 L 74.5 300.5 M 70.5 292.5 L 74.5 292.5 M 70.5 284.5 L 74.5 284.5 M 70.5 276.5 L 74.5 276.5 M 70.5 267.5 L 74.5 267.5 M 70.5 259.5 L 74.5 259.5 M 70.5 251.5 L 74.5 251.5 M 70.5 243.5 L 74.5 243.5 M 70.5 235.5 L 74.5 235.5 M 70.5 226.5 L 74.5 226.5 M 70.5 218.5 L 74.5 218.5 M 70.5 210.5 L 74.5 210.5 M 70.5 202.5 L 74.5 202.5 M 70.5 194.5 L 74.5 194.5 M 70.5 185.5 L 74.5 185.5 M 70.5 177.5 L 74.5 177.5 M 70.5 169.5 L 74.5 169.5 M 70.5 161.5 L 74.5 161.5 M 70.5 153.5 L 74.5 153.5 M 70.5 144.5 L 74.5 144.5 M 70.5 136.5 L 74.5 136.5 M 70.5 128.5 L 74.5 128.5 M 70.5 120.5 L 74.5 120.5 M 70.5 112.5 L 74.5 112.5 M 70.5 103.5 L 74.5 103.5 M 70.5 95.5 L 74.5 95.5 M 70.5 87.5 L 74.5 87.5 M 70.5 79.5 L 74.5 79.5 M 70.5 71.5 L 74.5 71.5 M 70.5 62.5 L 74.5 62.5 M 70.5 54.5 L 74.5 54.5 M 70.5 46.5 L 74.5 46.5 M 70.5 38.5 L 74.5 38.5 M 70.5 30.5 L 74.5 30.5 M 70.5 21.5 L 74.5 21.5 M 70.5 13.5 L 74.5 13.5 M 70.5 5.5 L 74.5 5.5" stroke-opacity="1" stroke-linejoin="bevel" stroke-miterlimit="10" stroke-dasharray=""/><text fill="rgb(68,68,68)" stroke="none" font-family="Work Sans" font-size="15pt" font-style="normal" font-weight="normal" text-decoration="normal" x="53" y="339.5" text-anchor="start" dominant-baseline="alphabetic" transform="matrix(1, 0, 0, 1, 0.5, 0.5)" fill-opacity="1">0</text><text fill="rgb(68,68,68)" stroke="none" font-family="Work Sans" font-size="15pt" font-style="normal" font-weight="normal" text-decoration="normal" x="53" y="298.5" text-anchor="start" dominant-baseline="alphabetic" transform="matrix(1, 0, 0, 1, 0.5, 0.5)" fill-opacity="1">5</text><text fill="rgb(68,68,68)" stroke="none" font-family="Work Sans" font-size="15pt" font-style="normal" font-weight="normal" text-decoration="normal" x="43" y="257.5" text-anchor="start" dominant-baseline="alphabetic" transform="matrix(1, 0, 0, 1, 0.5, 0.5)" fill-opacity="1">10</text><text fill="rgb(68,68,68)" stroke="none" font-family="Work Sans" font-size="15pt" font-style="normal" font-weight="normal" text-decoration="normal" x="43" y="216.5" text-anchor="start" dominant-baseline="alphabetic" transform="matrix(1, 0, 0, 1, 0.5, 0.5)" fill-opacity="1">15</text><text fill="rgb(68,68,68)" stroke="none" font-family="Work Sans" font-size="15pt" font-style="normal" font-weight="normal" text-decoration="normal" x="43" y="175.5" text-anchor="start" dominant-baseline="alphabetic" transform="matrix(1, 0, 0, 1, 0.5, 0.5)" fill-opacity="1">20</text><text fill="rgb(68,68,68)" stroke="none" font-family="Work Sans" font-size="15pt" font-style="normal" font-weight="normal" text-decoration="normal" x="43" y="134.5" text-anchor="start" dominant-baseline="alphabetic" transform="matrix(1, 0, 0, 1, 0.5, 0.5)" fill-opacity="1">25</text><text fill="rgb(68,68,68)" stroke="none" font-family="Work Sans" font-size="15pt" font-style="normal" font-weight="normal" text-decoration="normal" x="43" y="93.5" text-anchor="start" dominant-baseline="alphabetic" transform="matrix(1, 0, 0, 1, 0.5, 0.5)" fill-opacity="1">30</text><text fill="rgb(68,68,68)" stroke="none" font-family="Work Sans" font-size="15pt" font-style="normal" font-weight="normal" text-decoration="normal" x="43" y="52.5" text-anchor="start" dominant-baseline="alphabetic" transform="matrix(1, 0, 0, 1, 0.5, 0.5)" fill-opacity="1">35</text><text fill="rgb(68,68,68)" stroke="none" font-family="Work Sans" font-size="15pt" font-style="normal" font-weight="normal" text-decoration="normal" x="43" y="13" text-anchor="start" dominant-baseline="alphabetic" transform="matrix(1, 0, 0, 1, 0.5, 0.5)" fill-opacity="1">40</text><text fill="rgb(68,68,68)" stroke="none" font-family="helvetica" font-size="15pt" font-style="normal" font-weight="normal" text-decoration="normal" x="-19.6435546875" y="165" text-anchor="start" dominant-baseline="alphabetic" transform="matrix(6.123233995736766e-17, -1, 1, 6.123233995736766e-17, -143.5, 194.5)" fill-opacity="1">RNA (μM)</text><path fill="rgb(255,255,255)" stroke="none" paint-order="stroke" d="M 84.5 15.5 L 215.2265625 15.5 L 215.2265625 58.5 L 84.5 58.5 L 84.5 15.5" fill-opacity="0.9490196078431372" clip-path="url(#cHimuOvZOePK)"/><text fill="rgb(68,68,68)" stroke="none" font-family="helvetica" font-size="13px" font-style="normal" font-weight="normal" text-decoration="normal" x="109" y="25" text-anchor="start" dominant-baseline="central" clip-path="url(#cHimuOvZOePK)" transform="matrix(1, 0, 0, 1, 0.5, 0.5)" fill-opacity="1">Transcribed RNA</text><path fill="none" stroke="rgb(255,0,255)" paint-order="fill" d="M 84.5 25.5 L 104.5 25.5" stroke-opacity="0.30196078431372547" stroke-linejoin="bevel" stroke-miterlimit="10" stroke-width="3" stroke-dasharray="" clip-path="url(#cHimuOvZOePK)"/><text fill="rgb(68,68,68)" stroke="none" font-family="helvetica" font-size="13px" font-style="normal" font-weight="normal" text-decoration="normal" x="109" y="48" text-anchor="start" dominant-baseline="central" clip-path="url(#cHimuOvZOePK)" transform="matrix(1, 0, 0, 1, 0.5, 0.5)" fill-opacity="1">Translocated RNA</text><path fill="none" stroke="rgb(128,128,128)" paint-order="fill" d="M 84.5 48.5 L 104.5 48.5" stroke-opacity="0.6" stroke-linejoin="bevel" stroke-miterlimit="10" stroke-width="3" stroke-dasharray="6" clip-path="url(#cHimuOvZOePK)"/></svg>