<svg version="1.1" xmlns="http://www.w3.org/2000/svg" width="500" height="400"><defs><clipPath id="BROvmepheTAJ"><path fill="none" stroke="none" d="M 74.5 5.5 L 470.5 5.5 L 470.5 333.5 L 74.5 333.5 L 74.5 5.5"/></clipPath><clipPath id="vyOZBIrGmyDO"><path fill="none" stroke="none" d="M 74.5 5.5 L 470.5 5.5 L 470.5 333.5 L 74.5 333.5 L 74.5 5.5"/></clipPath><clipPath id="tbVWwBEOadKn"><path fill="none" stroke="none" d="M 74.5 5.5 L 470.5 5.5 L 470.5 333.5 L 74.5 333.5 L 74.5 5.5"/></clipPath><clipPath id="bxksNLsTOGZD"><path fill="none" stroke="none" d="M 74.5 5.5 L 470.5 5.5 L 470.5 333.5 L 74.5 333.5 L 74.5 5.5"/></clipPath><clipPath id="JHxxzgGeXyeu"><path fill="none" stroke="none" d="M 74.5 5.5 L 470.5 5.5 L 470.5 333.5 L 74.5 333.5 L 74.5 5.5"/></clipPath><clipPath id="kUFeQCIRzVix"><path fill="none" stroke="none" d="M 74.5 5.5 L 470.5 5.5 L 470.5 333.5 L 74.5 333.5 L 74.5 5.5"/></clipPath></defs><path fill="rgb(255,255,255)" stroke="none" paint-order="stroke" d="M 0.5 0.5 L 500.5 0.5 L 500.5 400.5 L 0.5 400.5 L 0.5 0.5" fill-opacity="1"/><rect fill="#FFFFFF" stroke="none" x="74" y="5" width="396" height="328" transform="matrix(1, 0, 0, 1, 0.5, 0.5)"/><path fill="rgb(255,255,255)" stroke="none" paint-order="stroke" d="M 74.5 5.5 L 470.5 5.5 L 470.5 333.5 L 74.5 333.5 L 74.5 5.5" fill-opacity="1"/><path fill="none" stroke="rgb(255,0,255)" paint-order="fill" d="M 74.5 333.5 L 75.82331085205078 333.5 L 77.14661407470703 333.5 L 78.46992492675781 333.5 L 79.7932357788086 333.5 L 81.11653900146484 333.5 L 82.43984985351562 333.5 L 83.7631607055664 333.5 L 85.08646392822266 333.5 L 86.40977478027344 333.5 L 87.73308563232422 333.5 L 89.05638885498047 333.5 L 90.37969970703125 333.5 L 91.70301055908203 333.5 L 93.02631378173828 333.5 L 94.34962463378906 333.5 L 95.67293548583984 333.5 L 96.9962387084961 333.5 L 98.31954956054688 333.5 L 99.64286041259766 333.5 L 100.9661636352539 333.5 L 102.28947448730469 333.5 L 103.61278533935547 333.5 L 104.93608856201172 333.5 L 106.2593994140625 333.5 L 107.58271026611328 333.5 L 108.90601348876953 333.5 L 110.22932434082031 333.5 L 111.5526351928711 333.5 L 112.87593841552734 333.5 L 114.19924926757812 333.5 L 115.5225601196289 333.5 L 116.84586334228516 333.5 L 118.16917419433594 333.5 L 119.49247741699219 333.5 L 120.81578826904297 333.5 L 122.13909912109375 333.5 L 123.46240234375 333.5 L 124.78571319580078 333.5 L 126.10902404785156 333.5 L 127.43232727050781 333.5 L 128.75564575195312 333.5 L 130.07894897460938 333.5 L 131.40225219726562 333.5 L 132.72557067871094 333.5 L 134.0488739013672 333.5 L 135.37217712402344 333.5 L 136.69549560546875 333.5 L 138.018798828125 333.5 L 139.34210205078125 333.5 L 140.66542053222656 333.5 L 141.9887237548828 333.5 L 143.31202697753906 333.5 L 144.63534545898438 333.5 L 145.95864868164062 333.5 L 147.28195190429688 333.5 L 148.6052703857422 333.5 L 149.92857360839844 333.5 L 151.2518768310547 333.5 L 152.5751953125 333.5 L 153.89849853515625 333.5 L 155.2218017578125 333.5 L 156.5451202392578 333.5 L 157.86842346191406 333.5 L 159.1917266845703 333.5 L 160.51504516601562 333.5 L 161.83834838867188 333.5 L 163.16165161132812 333.5 L 164.48495483398438 333.5 L 165.8082733154297 333.5 L 167.13157653808594 333.5 L 168.4548797607422 333.5 L 169.7781982421875 333.5 L 171.10150146484375 333.5 L 172.4248046875 333.5 L 173.7481231689453 333.5 L 175.07142639160156 333.5 L 176.3947296142578 333.5 L 177.71804809570312 333.5 L 179.04135131835938 333.5 L 180.36465454101562 333.5 L 181.68797302246094 333.5 L 183.0112762451172 333.5 L 184.33457946777344 333.5 L 185.65789794921875 333.5 L 186.981201171875 333.5 L 188.30450439453125 333.5 L 189.62782287597656 333.5 L 190.9511260986328 333.5 L 192.27442932128906 333.5 L 193.59774780273438 333.5 L 194.92105102539062 333.5 L 196.24435424804688 333.5 L 197.5676727294922 333.5 L 198.89097595214844 333.5 L 200.2142791748047 333.5 L 201.53759765625 333.5 L 202.86090087890625 333.5 L 204.1842041015625 333.5 L 205.5075225830078 333.5 L 206.83082580566406 333.5 L 208.1541290283203 333.5 L 209.47744750976562 333.5 L 210.80075073242188 333.5 L 212.12405395507812 333.5 L 213.44737243652344 333.5 L 214.7706756591797 333.5 L 216.09397888183594 333.5 L 217.41729736328125 333.5 L 218.7406005859375 333.5 L 220.06390380859375 333.5 L 221.38722229003906 333.5 L 222.7105255126953 333.5 L 224.03382873535156 333.5 L 225.35714721679688 333.5 L 226.68045043945312 333.5 L 228.00375366210938 333.5 L 229.3270721435547 333.5 L 230.65037536621094 333.5 L 231.9736785888672 333.5 L 233.2969970703125 333.5 L 234.62030029296875 333.5 L 235.943603515625 333.5 L 237.2669219970703 333.5 L 238.59022521972656 333.5 L 239.9135284423828 333.5 L 241.23684692382812 333.5 L 242.56015014648438 333.5 L 243.88345336914062 333.5 L 245.20677185058594 333.5 L 246.5300750732422 333.5 L 247.85337829589844 333.5 L 249.17669677734375 333.5 L 250.5 333.5 L 251.82330322265625 333.5 L 253.14662170410156 333.5 L 254.4699249267578 333.5 L 255.79322814941406 333.5 L 257.1165466308594 333.5 L 258.4398498535156 333.5 L 259.7631530761719 333.5 L 261.0864562988281 333.5 L 262.4097595214844 333.5 L 263.73309326171875 333.5 L 265.056396484375 333.5 L 266.37969970703125 333.5 L 267.7030029296875 333.5 L 269.02630615234375 333.5 L 270.349609375 333.5 L 271.6729431152344 333.5 L 272.9962463378906 333.5 L 274.3195495605469 333.5 L 275.6428527832031 333.5 L 276.9661560058594 333.5 L 278.2894592285156 333.5 L 279.61279296875 333.5 L 280.93609619140625 333.5 L 282.2593994140625 333.5 L 283.58270263671875 333.5 L 284.906005859375 333.5 L 286.22930908203125 333.5 L 287.5526428222656 333.5 L 288.8759460449219 333.5 L 290.1992492675781 333.5 L 291.5225524902344 333.5 L 292.8458557128906 333.5 L 294.1691589355469 333.5 L 295.49249267578125 333.5 L 296.8157958984375 333.5 L 298.13909912109375 333.5 L 299.46240234375 333.5 L 300.78570556640625 333.5 L 302.1090087890625 333.5 L 303.4323425292969 333.5 L 304.7556457519531 333.5 L 306.0789489746094 333.5 L 307.4022521972656 333.5 L 308.7255554199219 333.5 L 310.0488586425781 333.5 L 311.3721923828125 333.5 L 312.69549560546875 333.5 L 314.018798828125 333.5 L 315.34210205078125 333.5 L 316.6654052734375 333.5 L 317.98870849609375 333.5 L 319.3120422363281 333.5 L 320.6353454589844 333.5 L 321.9586486816406 333.5 L 323.2819519042969 333.5 L 324.6052551269531 333.5 L 325.9285583496094 333.5 L 327.25189208984375 333.5 L 328.5751953125 333.5 L 329.89849853515625 333.5 L 331.2218017578125 333.5 L 332.54510498046875 333.5 L 333.868408203125 333.5 L 335.1917419433594 333.5 L 336.5150451660156 333.5 L 337.8383483886719 333.5 L 339.1616516113281 333.5 L 340.4849548339844 333.5 L 341.8082580566406 333.5 L 343.131591796875 333.5 L 344.45489501953125 333.5 L 345.7781982421875 333.5 L 347.10150146484375 333.5 L 348.4248046875 333.5 L 349.74810791015625 333.5 L 351.0714416503906 333.5 L 352.3947448730469 333.5 L 353.7180480957031 333.5 L 355.0413513183594 333.5 L 356.3646545410156 333.5 L 357.6879577636719 333.5 L 359.01129150390625 333.5 L 360.3345947265625 333.5 L 361.65789794921875 333.5 L 362.981201171875 333.5 L 364.30450439453125 333.5 L 365.6278076171875 333.5 L 366.9511413574219 333.5 L 368.2744445800781 333.5 L 369.5977478027344 333.5 L 370.9210510253906 333.5 L 372.2443542480469 333.5 L 373.5676574707031 333.5 L 374.8909912109375 333.5 L 376.21429443359375 333.5 L 377.53759765625 333.5 L 378.86090087890625 333.5 L 380.1842041015625 333.5 L 381.50750732421875 333.5 L 382.8308410644531 333.5 L 384.1541442871094 333.5 L 385.4774475097656 333.5 L 386.8007507324219 333.5 L 388.1240539550781 333.5 L 389.4473571777344 333.5 L 390.77069091796875 333.5 L 392.093994140625 333.5 L 393.41729736328125 333.5 L 394.7406005859375 333.5 L 396.06390380859375 333.5 L 397.38720703125 333.5 L 398.7105407714844 333.5 L 400.0338439941406 333.5 L 401.3571472167969 333.5 L 402.6804504394531 333.5 L 404.0037536621094 333.5 L 405.3270568847656 333.5 L 406.650390625 333.5 L 407.97369384765625 333.5 L 409.2969970703125 333.5 L 410.62030029296875 333.5 L 411.943603515625 333.5 L 413.26690673828125 333.5 L 414.5902404785156 333.5 L 415.9135437011719 333.5 L 417.2368469238281 333.5 L 418.5601501464844 333.5 L 419.8834533691406 333.5 L 421.2067565917969 333.5 L 422.53009033203125 333.5 L 423.8533935546875 333.5 L 425.17669677734375 333.5 L 426.5 333.5 L 427.82330322265625 333.5 L 429.1466064453125 333.5 L 430.46990966796875 333.5 L 431.7932434082031 333.5 L 433.1165466308594 333.5 L 434.4398498535156 333.5 L 435.7631530761719 333.5 L 437.0864562988281 333.5 L 438.4097595214844 333.5 L 439.73309326171875 333.5 L 441.056396484375 333.5 L 442.37969970703125 333.5 L 443.7030029296875 333.5 L 445.02630615234375 333.5 L 446.349609375 333.5 L 447.6729431152344 333.5 L 448.9962463378906 333.5 L 450.3195495605469 333.5 L 451.6428527832031 333.5 L 452.9661560058594 333.5 L 454.2894592285156 333.5 L 455.61279296875 333.5 L 456.93609619140625 333.5 L 458.2593994140625 333.5 L 459.58270263671875 333.5 L 460.906005859375 333.5 L 462.22930908203125 333.5 L 463.5526428222656 333.5 L 464.8759460449219 333.5 L 466.1992492675781 333.5 L 467.5225524902344 333.5 L 468.8458557128906 333.5 L 470.1691589355469 333.5 L 471.49249267578125 333.5 L 472.8157958984375 333.5 L 474.13909912109375 333.5 L 475.46240234375 333.5 L 476.78570556640625 333.5 L 478.1090087890625 333.5 L 479.4323425292969 333.5 L 480.7556457519531 333.5 L 482.0789489746094 333.5 L 483.4022521972656 333.5 L 484.7255554199219 333.5 L 486.0488586425781 333.5 L 487.3721923828125 333.5 L 488.69549560546875 333.5 L 490.018798828125 333.5 L 491.34210205078125 333.5 L 492.6654052734375 333.5 L 493.98870849609375 333.5 L 495.3120422363281 333.5 L 496.6353454589844 333.5 L 497.9586486816406 333.5 L 499.2819519042969 333.5 L 500.6052551269531 333.5 L 501.9285583496094 333.5 L 503.25189208984375 333.5 L 504.5751953125 333.5 L 505.89849853515625 333.5 L 507.2218017578125 333.5 L 508.54510498046875 333.5 L 509.868408203125 333.5 L 511.1917419433594 333.5 L 512.5150146484375 333.5 L 513.8383178710938 333.5 L 515.1616821289062 333.5 L 516.4849853515625 333.5 L 517.8082885742188 333.5 L 519.131591796875 333.5 L 520.4548950195312 333.5 L 521.7781982421875 333.5 L 523.1015014648438 333.5 L 524.4248046875 333.5 L 525.7481079101562 333.5 L 527.0714111328125 333.5 L 528.3947143554688 333.5 L 529.718017578125 333.5 L 531.0413818359375 333.5 L 532.3646850585938 333.5 L 533.68798828125 333.5 L 535.0112915039062 333.5 L 536.3345947265625 333.5 L 537.6578979492188 333.5 L 538.981201171875 333.5 L 540.3045043945312 333.5 L 541.6278076171875 333.5 L 542.9511108398438 333.5 L 544.2744140625 333.5 L 545.5977172851562 333.5 L 546.9210815429688 333.5 L 548.244384765625 333.5 L 549.5676879882812 333.5 L 550.8909912109375 333.5 L 552.2142944335938 333.5 L 553.53759765625 333.5 L 554.8609008789062 333.5 L 556.1842041015625 333.5 L 557.5075073242188 333.5 L 558.830810546875 333.5 L 560.1541137695312 333.5 L 561.4774169921875 333.5 L 562.80078125 333.5 L 564.1240844726562 333.5 L 565.4473876953125 333.5 L 566.7706909179688 333.5 L 568.093994140625 333.5 L 569.4172973632812 333.5 L 570.7406005859375 333.5 L 572.0639038085938 333.5 L 573.38720703125 333.5 L 574.7105102539062 333.5 L 576.0338134765625 333.5 L 577.3571166992188 333.5 L 578.6804809570312 333.5 L 580.0037841796875 333.5 L 581.3270874023438 333.5 L 582.650390625 333.5 L 583.9736938476562 333.5 L 585.2969970703125 333.5 L 586.6203002929688 333.5 L 587.943603515625 333.5 L 589.2669067382812 333.5 L 590.5902099609375 333.5 L 591.9135131835938 333.5 L 593.23681640625 333.5 L 594.5601806640625 333.5 L 595.8834838867188 333.5 L 597.206787109375 333.5 L 598.5300903320312 333.5 L 599.8533935546875 333.5 L 601.1766967773438 333.5 L 602.5 333.5" stroke-opacity="0.30196078431372547" stroke-linejoin="bevel" stroke-miterlimit="10" stroke-width="3" stroke-dasharray="" clip-path="url(#tbVWwBEOadKn)"/><path fill="none" stroke="rgb(128,128,128)" paint-order="fill" d="M 74.5 333.5 L 75.82331085205078 333.5 L 77.14661407470703 333.5 L 78.46992492675781 333.5 L 79.7932357788086 333.5 L 81.11653900146484 333.5 L 82.43984985351562 333.5 L 83.7631607055664 333.5 L 85.08646392822266 333.5 L 86.40977478027344 333.5 L 87.73308563232422 333.5 L 89.05638885498047 333.5 L 90.37969970703125 333.5 L 91.70301055908203 333.5 L 93.02631378173828 333.5 L 94.34962463378906 333.5 L 95.67293548583984 333.5 L 96.9962387084961 333.5 L 98.31954956054688 333.5 L 99.64286041259766 333.5 L 100.9661636352539 333.5 L 102.28947448730469 333.5 L 103.61278533935547 333.5 L 104.93608856201172 333.5 L 106.2593994140625 333.5 L 107.58271026611328 333.5 L 108.90601348876953 333.5 L 110.22932434082031 333.5 L 111.5526351928711 333.5 L 112.87593841552734 333.5 L 114.19924926757812 333.5 L 115.5225601196289 333.5 L 116.84586334228516 333.5 L 118.16917419433594 333.5 L 119.49247741699219 333.5 L 120.81578826904297 333.5 L 122.13909912109375 333.5 L 123.46240234375 333.5 L 124.78571319580078 333.5 L 126.10902404785156 333.5 L 127.43232727050781 333.5 L 128.75564575195312 333.5 L 130.07894897460938 333.5 L 131.40225219726562 333.5 L 132.72557067871094 333.5 L 134.0488739013672 333.5 L 135.37217712402344 333.5 L 136.69549560546875 333.5 L 138.018798828125 333.5 L 139.34210205078125 333.5 L 140.66542053222656 333.5 L 141.9887237548828 333.5 L 143.31202697753906 333.5 L 144.63534545898438 333.5 L 145.95864868164062 333.5 L 147.28195190429688 333.5 L 148.6052703857422 333.5 L 149.92857360839844 333.5 L 151.2518768310547 333.5 L 152.5751953125 333.5 L 153.89849853515625 333.5 L 155.2218017578125 333.5 L 156.5451202392578 333.5 L 157.86842346191406 333.5 L 159.1917266845703 333.5 L 160.51504516601562 333.5 L 161.83834838867188 333.5 L 163.16165161132812 333.5 L 164.48495483398438 333.5 L 165.8082733154297 333.5 L 167.13157653808594 333.5 L 168.4548797607422 333.5 L 169.7781982421875 333.5 L 171.10150146484375 333.5 L 172.4248046875 333.5 L 173.7481231689453 333.5 L 175.07142639160156 333.5 L 176.3947296142578 333.5 L 177.71804809570312 333.5 L 179.04135131835938 333.5 L 180.36465454101562 333.5 L 181.68797302246094 333.5 L 183.0112762451172 333.5 L 184.33457946777344 333.5 L 185.65789794921875 333.5 L 186.981201171875 333.5 L 188.30450439453125 333.5 L 189.62782287597656 333.5 L 190.9511260986328 333.5 L 192.27442932128906 333.5 L 193.59774780273438 333.5 L 194.92105102539062 333.5 L 196.24435424804688 333.5 L 197.5676727294922 333.5 L 198.89097595214844 333.5 L 200.2142791748047 333.5 L 201.53759765625 333.5 L 202.86090087890625 333.5 L 204.1842041015625 333.5 L 205.5075225830078 333.5 L 206.83082580566406 333.5 L 208.1541290283203 333.5 L 209.47744750976562 333.5 L 210.80075073242188 333.5 L 212.12405395507812 333.5 L 213.44737243652344 333.5 L 214.7706756591797 333.5 L 216.09397888183594 333.5 L 217.41729736328125 333.5 L 218.7406005859375 333.5 L 220.06390380859375 333.5 L 221.38722229003906 333.5 L 222.7105255126953 333.5 L 224.03382873535156 333.5 L 225.35714721679688 333.5 L 226.68045043945312 333.5 L 228.00375366210938 333.5 L 229.3270721435547 333.5 L 230.65037536621094 333.5 L 231.9736785888672 333.5 L 233.2969970703125 333.5 L 234.62030029296875 333.5 L 235.943603515625 333.5 L 237.2669219970703 333.5 L 238.59022521972656 333.5 L 239.9135284423828 333.5 L 241.23684692382812 333.5 L 242.56015014648438 333.5 L 243.88345336914062 333.5 L 245.20677185058594 333.5 L 246.5300750732422 333.5 L 247.85337829589844 333.5 L 249.17669677734375 333.5 L 250.5 333.5 L 251.82330322265625 333.5 L 253.14662170410156 333.5 L 254.4699249267578 333.5 L 255.79322814941406 333.5 L 257.1165466308594 333.5 L 258.4398498535156 333.5 L 259.7631530761719 333.5 L 261.0864562988281 333.5 L 262.4097595214844 333.5 L 263.73309326171875 333.5 L 265.056396484375 333.5 L 266.37969970703125 333.5 L 267.7030029296875 333.5 L 269.02630615234375 333.5 L 270.349609375 333.5 L 271.6729431152344 333.5 L 272.9962463378906 333.5 L 274.3195495605469 333.5 L 275.6428527832031 333.5 L 276.9661560058594 333.5 L 278.2894592285156 333.5 L 279.61279296875 333.5 L 280.93609619140625 333.5 L 282.2593994140625 333.5 L 283.58270263671875 333.5 L 284.906005859375 333.5 L 286.22930908203125 333.5 L 287.5526428222656 333.5 L 288.8759460449219 333.5 L 290.1992492675781 333.5 L 291.5225524902344 333.5 L 292.8458557128906 333.5 L 294.1691589355469 333.5 L 295.49249267578125 333.5 L 296.8157958984375 333.5 L 298.13909912109375 333.5 L 299.46240234375 333.5 L 300.78570556640625 333.5 L 302.1090087890625 333.5 L 303.4323425292969 333.5 L 304.7556457519531 333.5 L 306.0789489746094 333.5 L 307.4022521972656 333.5 L 308.7255554199219 333.5 L 310.0488586425781 333.5 L 311.3721923828125 333.5 L 312.69549560546875 333.5 L 314.018798828125 333.5 L 315.34210205078125 333.5 L 316.6654052734375 333.5 L 317.98870849609375 333.5 L 319.3120422363281 333.5 L 320.6353454589844 333.5 L 321.9586486816406 333.5 L 323.2819519042969 333.5 L 324.6052551269531 333.5 L 325.9285583496094 333.5 L 327.25189208984375 333.5 L 328.5751953125 333.5 L 329.89849853515625 333.5 L 331.2218017578125 333.5 L 332.54510498046875 333.5 L 333.868408203125 333.5 L 335.1917419433594 333.5 L 336.5150451660156 333.5 L 337.8383483886719 333.5 L 339.1616516113281 333.5 L 340.4849548339844 333.5 L 341.8082580566406 333.5 L 343.131591796875 333.5 L 344.45489501953125 333.5 L 345.7781982421875 333.5 L 347.10150146484375 333.5 L 348.4248046875 333.5 L 349.74810791015625 333.5 L 351.0714416503906 333.5 L 352.3947448730469 333.5 L 353.7180480957031 333.5 L 355.0413513183594 333.5 L 356.3646545410156 333.5 L 357.6879577636719 333.5 L 359.01129150390625 333.5 L 360.3345947265625 333.5 L 361.65789794921875 333.5 L 362.981201171875 333.5 L 364.30450439453125 333.5 L 365.6278076171875 333.5 L 366.9511413574219 333.5 L 368.2744445800781 333.5 L 369.5977478027344 333.5 L 370.9210510253906 333.5 L 372.2443542480469 333.5 L 373.5676574707031 333.5 L 374.8909912109375 333.5 L 376.21429443359375 333.5 L 377.53759765625 333.5 L 378.86090087890625 333.5 L 380.1842041015625 333.5 L 381.50750732421875 333.5 L 382.8308410644531 333.5 L 384.1541442871094 333.5 L 385.4774475097656 333.5 L 386.8007507324219 333.5 L 388.1240539550781 333.5 L 389.4473571777344 333.5 L 390.77069091796875 333.5 L 392.093994140625 333.5 L 393.41729736328125 333.5 L 394.7406005859375 333.5 L 396.06390380859375 333.5 L 397.38720703125 333.5 L 398.7105407714844 333.5 L 400.0338439941406 333.5 L 401.3571472167969 333.5 L 402.6804504394531 333.5 L 404.0037536621094 333.5 L 405.3270568847656 333.5 L 406.650390625 333.5 L 407.97369384765625 333.5 L 409.2969970703125 333.5 L 410.62030029296875 333.5 L 411.943603515625 333.5 L 413.26690673828125 333.5 L 414.5902404785156 333.5 L 415.9135437011719 333.5 L 417.2368469238281 333.5 L 418.5601501464844 333.5 L 419.8834533691406 333.5 L 421.2067565917969 333.5 L 422.53009033203125 333.5 L 423.8533935546875 333.5 L 425.17669677734375 333.5 L 426.5 333.5 L 427.82330322265625 333.5 L 429.1466064453125 333.5 L 430.46990966796875 333.5 L 431.7932434082031 333.5 L 433.1165466308594 333.5 L 434.4398498535156 333.5 L 435.7631530761719 333.5 L 437.0864562988281 333.5 L 438.4097595214844 333.5 L 439.73309326171875 333.5 L 441.056396484375 333.5 L 442.37969970703125 333.5 L 443.7030029296875 333.5 L 445.02630615234375 333.5 L 446.349609375 333.5 L 447.6729431152344 333.5 L 448.9962463378906 333.5 L 450.3195495605469 333.5 L 451.6428527832031 333.5 L 452.9661560058594 333.5 L 454.2894592285156 333.5 L 455.61279296875 333.5 L 456.93609619140625 333.5 L 458.2593994140625 333.5 L 459.58270263671875 333.5 L 460.906005859375 333.5 L 462.22930908203125 333.5 L 463.5526428222656 333.5 L 464.8759460449219 333.5 L 466.1992492675781 333.5 L 467.5225524902344 333.5 L 468.8458557128906 333.5 L 470.1691589355469 333.5 L 471.49249267578125 333.5 L 472.8157958984375 333.5 L 474.13909912109375 333.5 L 475.46240234375 333.5 L 476.78570556640625 333.5 L 478.1090087890625 333.5 L 479.4323425292969 333.5 L 480.7556457519531 333.5 L 482.0789489746094 333.5 L 483.4022521972656 333.5 L 484.7255554199219 333.5 L 486.0488586425781 333.5 L 487.3721923828125 333.5 L 488.69549560546875 333.5 L 490.018798828125 333.5 L 491.34210205078125 333.5 L 492.6654052734375 333.5 L 493.98870849609375 333.5 L 495.3120422363281 333.5 L 496.6353454589844 333.5 L 497.9586486816406 333.5 L 499.2819519042969 333.5 L 500.6052551269531 333.5 L 501.9285583496094 333.5 L 503.25189208984375 333.5 L 504.5751953125 333.5 L 505.89849853515625 333.5 L 507.2218017578125 333.5 L 508.54510498046875 333.5 L 509.868408203125 333.5 L 511.1917419433594 333.5 L 512.5150146484375 333.5 L 513.8383178710938 333.5 L 515.1616821289062 333.5 L 516.4849853515625 333.5 L 517.8082885742188 333.5 L 519.131591796875 333.5 L 520.4548950195312 333.5 L 521.7781982421875 333.5 L 523.1015014648438 333.5 L 524.4248046875 333.5 L 525.7481079101562 333.5 L 527.0714111328125 333.5 L 528.3947143554688 333.5 L 529.718017578125 333.5 L 531.0413818359375 333.5 L 532.3646850585938 333.5 L 533.68798828125 333.5 L 535.0112915039062 333.5 L 536.3345947265625 333.5 L 537.6578979492188 333.5 L 538.981201171875 333.5 L 540.3045043945312 333.5 L 541.6278076171875 333.5 L 542.9511108398438 333.5 L 544.2744140625 333.5 L 545.5977172851562 333.5 L 546.9210815429688 333.5 L 548.244384765625 333.5 L 549.5676879882812 333.5 L 550.8909912109375 333.5 L 552.2142944335938 333.5 L 553.53759765625 333.5 L 554.8609008789062 333.5 L 556.1842041015625 333.5 L 557.5075073242188 333.5 L 558.830810546875 333.5 L 560.1541137695312 333.5 L 561.4774169921875 333.5 L 562.80078125 333.5 L 564.1240844726562 333.5 L 565.4473876953125 333.5 L 566.7706909179688 333.5 L 568.093994140625 333.5 L 569.4172973632812 333.5 L 570.7406005859375 333.5 L 572.0639038085938 333.5 L 573.38720703125 333.5 L 574.7105102539062 333.5 L 576.0338134765625 333.5 L 577.3571166992188 333.5 L 578.6804809570312 333.5 L 580.0037841796875 333.5 L 581.3270874023438 333.5 L 582.650390625 333.5 L 583.9736938476562 333.5 L 585.2969970703125 333.5 L 586.6203002929688 333.5 L 587.943603515625 333.5 L 589.2669067382812 333.5 L 590.5902099609375 333.5 L 591.9135131835938 333.5 L 593.23681640625 333.5 L 594.5601806640625 333.5 L 595.8834838867188 333.5 L 597.206787109375 333.5 L 598.5300903320312 333.5 L 599.8533935546875 333.5 L 601.1766967773438 333.5 L 602.5 333.5" stroke-opacity="0.6" stroke-linejoin="bevel" stroke-miterlimit="10" stroke-width="3" stroke-dasharray="6" clip-path="url(#bxksNLsTOGZD)"/><path fill="none" stroke="rgb(0,0,0)" paint-order="fill" d="M 74.5 333.5 L 470.5 333.5" stroke-opacity="1" stroke-linejoin="bevel" stroke-miterlimit="10" stroke-dasharray=""/><path fill="none" stroke="rgb(0,0,0)" paint-order="fill" d="M 74.5 339.5 L 74.5 331.5 M 140.5 339.5 L 140.5 331.5 M 206.5 339.5 L 206.5 331.5 M 272.5 339.5 L 272.5 331.5 M 338.5 339.5 L 338.5 331.5 M 404.5 339.5 L 404.5 331.5 M 470.5 339.5 L 470.5 331.5" stroke-opacity="1" stroke-linejoin="bevel" stroke-miterlimit="10" stroke-dasharray=""/><path fill="none" stroke="rgb(0,0,0)" paint-order="fill" d="M 74.5 337.5 L 74.5 333.5 M 87.5 337.5 L 87.5 333.5 M 100.5 337.5 L 100.5 333.5 M 114.5 337.5 L 114.5 333.5 M 127.5 337.5 L 127.5 333.5 M 140.5 337.5 L 140.5 333.5 M 153.5 337.5 L 153.5 333.5 M 166.5 337.5 L 166.5 333.5 M 180.5 337.5 L 180.5 333.5 M 193.5 337.5 L 193.5 333.5 M 206.5 337.5 L 206.5 333.5 M 219.5 337.5 L 219.5 333.5 M 232.5 337.5 L 232.5 333.5 M 246.5 337.5 L 246.5 333.5 M 259.5 337.5 L 259.5 333.5 M 272.5 337.5 L 272.5 333.5 M 285.5 337.5 L 285.5 333.5 M 298.5 337.5 L 298.5 333.5 M 312.5 337.5 L 312.5 333.5 M 325.5 337.5 L 325.5 333.5 M 338.5 337.5 L 338.5 333.5 M 351.5 337.5 L 351.5 333.5 M 364.5 337.5 L 364.5 333.5 M 378.5 337.5 L 378.5 333.5 M 391.5 337.5 L 391.5 333.5 M 404.5 337.5 L 404.5 333.5 M 417.5 337.5 L 417.5 333.5 M 430.5 337.5 L 430.5 333.5 M 444.5 337.5 L 444.5 333.5 M 457.5 337.5 L 457.5 333.5 M 470.5 337.5 L 470.5 333.5" stroke-opacity="1" stroke-linejoin="bevel" stroke-miterlimit="10" stroke-dasharray=""/><text fill="rgb(68,68,68)" stroke="none" font-family="Work Sans" font-size="15pt" font-style="normal" font-weight="normal" text-decoration="normal" x="69" y="357" text-anchor="start" dominant-baseline="alphabetic" transform="matrix(1, 0, 0, 1, 0.5, 0.5)" fill-opacity="1">0</text><text fill="rgb(68,68,68)" stroke="none" font-family="Work Sans" font-size="15pt" font-style="normal" font-weight="normal" text-decoration="normal" x="127.5" y="357" text-anchor="start" dominant-baseline="alphabetic" transform="matrix(1, 0, 0, 1, 0.5, 0.5)" fill-opacity="1">0.5</text><text fill="rgb(68,68,68)" stroke="none" font-family="Work Sans" font-size="15pt" font-style="normal" font-weight="normal" text-decoration="normal" x="201" y="357" text-anchor="start" dominant-baseline="alphabetic" transform="matrix(1, 0, 0, 1, 0.5, 0.5)" fill-opacity="1">1</text><text fill="rgb(68,68,68)" stroke="none" font-family="Work Sans" font-size="15pt" font-style="normal" font-weight="normal" text-decoration="normal" x="259.5" y="357" text-anchor="start" dominant-baseline="alphabetic" transform="matrix(1, 0, 0, 1, 0.5, 0.5)" fill-opacity="1">1.5</text><text fill="rgb(68,68,68)" stroke="none" font-family="Work Sans" font-size="15pt" font-style="normal" font-weight="normal" text-decoration="normal" x="333" y="357" text-anchor="start" dominant-baseline="alphabetic" transform="matrix(1, 0, 0, 1, 0.5, 0.5)" fill-opacity="1">2</text><text fill="rgb(68,68,68)" stroke="none" font-family="Work Sans" font-size="15pt" font-style="normal" font-weight="normal" text-decoration="normal" x="391.5" y="357" text-anchor="start" dominant-baseline="alphabetic" transform="matrix(1, 0, 0, 1, 0.5, 0.5)" fill-opacity="1">2.5</text><text fill="rgb(68,68,68)" stroke="none" font-family="Work Sans" font-size="15pt" font-style="normal" font-weight="normal" text-decoration="normal" x="465" y="357" text-anchor="start" dominant-baseline="alphabetic" transform="matrix(1, 0, 0, 1, 0.5, 0.5)" fill-opacity="1">3</text><text fill="rgb(68,68,68)" stroke="none" font-family="helvetica" font-size="15pt" font-style="normal" font-weight="normal" text-decoration="normal" x="215.6962890625" y="393" text-anchor="start" dominant-baseline="alphabetic" transform="matrix(1, 0, 0, 1, 0.5, 0.5)" fill-opacity="1">Time (hours)</text><path fill="none" stroke="rgb(0,0,0)" paint-order="fill" d="M 74.5 333.5 L 74.5 5.5" stroke-opacity="1" stroke-linejoin="bevel" stroke-miterlimit="10" stroke-dasharray=""/><path fill="none" stroke="rgb(0,0,0)" paint-order="fill" d="M 68.5 333.5 L 76.5 333.5 M 68.5 292.5 L 76.5 292.5 M 68.5 251.5 L 76.5 251.5 M 68.5 210.5 L 76.5 210.5 M 68.5 169.5 L 76.5 169.5 M 68.5 128.5 L 76.5 128.5 M 68.5 87.5 L 76.5 87.5 M 68.5 46.5 L 76.5 46.5 M 68.5 5.5 L 76.5 5.5" stroke-opacity="1" stroke-linejoin="bevel" stroke-miterlimit="10" stroke-dasharray=""/><path fill="none" stroke="rgb(0,0,0)" paint-order="fill" d="M 70.5 333.5 L 74.5 333.5 M 70.5 325.5 L 74.5 325.5 M 70.5 317.5 L 74.5 317.5 M 70.5 308.5 L 74.5 308.5 M 70.5 300.5 L 74.5 300.5 M 70.5 292.5 L 74.5 292.5 M 70.5 284.5 L 74.5 284.5 M 70.5 276.5 L 74.5 276.5 M 70.5 267.5 L 74.5 267.5 M 70.5 259.5 L 74.5 259.5 M 70.5 251.5 L 74.5 251.5 M 70.5 243.5 L 74.5 243.5 M 70.5 235.5 L 74.5 235.5 M 70.5 226.5 L 74.5 226.5 M 70.5 218.5 L 74.5 218.5 M 70.5 210.5 L 74.5 210.5 M 70.5 202.5 L 74.5 202.5 M 70.5 194.5 L 74.5 194.5 M 70.5 185.5 L 74.5 185.5 M 70.5 177.5 L 74.5 177.5 M 70.5 169.5 L 74.5 169.5 M 70.5 161.5 L 74.5 161.5 M 70.5 153.5 L 74.5 153.5 M 70.5 144.5 L 74.5 144.5 M 70.5 136.5 L 74.5 136.5 M 70.5 128.5 L 74.5 128.5 M 70.5 120.5 L 74.5 120.5 M 70.5 112.5 L 74.5 112.5 M 70.5 103.5 L 74.5 103.5 M 70.5 95.5 L 74.5 95.5 M 70.5 87.5 L 74.5 87.5 M 70.5 79.5 L 74.5 79.5 M 70.5 71.5 L 74.5 71.5 M 70.5 62.5 L 74.5 62.5 M 70.5 54.5 L 74.5 54.5 M 70.5 46.5 L 74.5 46.5 M 70.5 38.5 L 74.5 38.5 M 70.5 30.5 L 74.5 30.5 M 70.5 21.5 L 74.5 21.5 M 70.5 13.5 L 74.5 13.5 M 70.5 5.5 L 74.5 5.5" stroke-opacity="1" stroke-linejoin="bevel" stroke-miterlimit="10" stroke-dasharray=""/><text fill="rgb(68,68,68)" stroke="none" font-family="Work Sans" font-size="15pt" font-style="normal" font-weight="normal" text-decoration="normal" x="53" y="339.5" text-anchor="start" dominant-baseline="alphabetic" transform="matrix(1, 0, 0, 1, 0.5, 0.5)" fill-opacity="1">0</text><text fill="rgb(68,68,68)" stroke="none" font-family="Work Sans" font-size="15pt" font-style="normal" font-weight="normal" text-decoration="normal" x="53" y="298.5" text-anchor="start" dominant-baseline="alphabetic" transform="matrix(1, 0, 0, 1, 0.5, 0.5)" fill-opacity="1">5</text><text fill="rgb(68,68,68)" stroke="none" font-family="Work Sans" font-size="15pt" font-style="normal" font-weight="normal" text-decoration="normal" x="43" y="257.5" text-anchor="start" dominant-baseline="alphabetic" transform="matrix(1, 0, 0, 1, 0.5, 0.5)" fill-opacity="1">10</text><text fill="rgb(68,68,68)" stroke="none" font-family="Work Sans" font-size="15pt" font-style="normal" font-weight="normal" text-decoration="normal" x="43" y="216.5" text-anchor="start" dominant-baseline="alphabetic" transform="matrix(1, 0, 0, 1, 0.5, 0.5)" fill-opacity="1">15</text><text fill="rgb(68,68,68)" stroke="none" font-family="Work Sans" font-size="15pt" font-style="normal" font-weight="normal" text-decoration="normal" x="43" y="175.5" text-anchor="start" dominant-baseline="alphabetic" transform="matrix(1, 0, 0, 1, 0.5, 0.5)" fill-opacity="1">20</text><text fill="rgb(68,68,68)" stroke="none" font-family="Work Sans" font-size="15pt" font-style="normal" font-weight="normal" text-decoration="normal" x="43" y="134.5" text-anchor="start" dominant-baseline="alphabetic" transform="matrix(1, 0, 0, 1, 0.5, 0.5)" fill-opacity="1">25</text><text fill="rgb(68,68,68)" stroke="none" font-family="Work Sans" font-size="15pt" font-style="normal" font-weight="normal" text-decoration="normal" x="43" y="93.5" text-anchor="start" dominant-baseline="alphabetic" transform="matrix(1, 0, 0, 1, 0.5, 0.5)" fill-opacity="1">30</text><text fill="rgb(68,68,68)" stroke="none" font-family="Work Sans" font-size="15pt" font-style="normal" font-weight="normal" text-decoration="normal" x="43" y="52.5" text-anchor="start" dominant-baseline="alphabetic" transform="matrix(1, 0, 0, 1, 0.5, 0.5)" fill-opacity="1">35</text><text fill="rgb(68,68,68)" stroke="none" font-family="Work Sans" font-size="15pt" font-style="normal" font-weight="normal" text-decoration="normal" x="43" y="13" text-anchor="start" dominant-baseline="alphabetic" transform="matrix(1, 0, 0, 1, 0.5, 0.5)" fill-opacity="1">40</text><text fill="rgb(68,68,68)" stroke="none" font-family="helvetica" font-size="15pt" font-style="normal" font-weight="normal" text-decoration="normal" x="-19.6435546875" y="165" text-anchor="start" dominant-baseline="alphabetic" transform="matrix(6.123233995736766e-17, -1, 1, 6.123233995736766e-17, -143.5, 194.5)" fill-opacity="1">RNA (μM)</text><path fill="rgb(255,255,255)" stroke="none" paint-order="stroke" d="M 84.5 15.5 L 215.2265625 15.5 L 215.2265625 58.5 L 84.5 58.5 L 84.5 15.5" fill-opacity="0.9490196078431372" clip-path="url(#JHxxzgGeXyeu)"/><text fill="rgb(68,68,68)" stroke="none" font-family="helvetica" font-size="13px" font-style="normal" font-weight="normal" text-decoration="normal" x="109" y="25" text-anchor="start" dominant-baseline="central" clip-path="url(#JHxxzgGeXyeu)" transform="matrix(1, 0, 0, 1, 0.5, 0.5)" fill-opacity="1">Transcribed RNA</text><path fill="none" stroke="rgb(255,0,255)" paint-order="fill" d="M 84.5 25.5 L 104.5 25.5" stroke-opacity="0.30196078431372547" stroke-linejoin="bevel" stroke-miterlimit="10" stroke-width="3" stroke-dasharray="" clip-path="url(#JHxxzgGeXyeu)"/><text fill="rgb(68,68,68)" stroke="none" font-family="helvetica" font-size="13px" font-style="normal" font-weight="normal" text-decoration="normal" x="109" y="48" text-anchor="start" dominant-baseline="central" clip-path="url(#JHxxzgGeXyeu)" transform="matrix(1, 0, 0, 1, 0.5, 0.5)" fill-opacity="1">Translocated RNA</text><path fill="none" stroke="rgb(128,128,128)" paint-order="fill" d="M 84.5 48.5 L 104.5 48.5" stroke-opacity="0.6" stroke-linejoin="bevel" stroke-miterlimit="10" stroke-width="3" stroke-dasharray="6" clip-path="url(#JHxxzgGeXyeu)"/></svg>