<svg version="1.1" xmlns="http://www.w3.org/2000/svg" width="500" height="400"><defs><clipPath id="JsRaHPJoxkhG"><path fill="none" stroke="none" d="M 84.5 5.5 L 470.5 5.5 L 470.5 333.5 L 84.5 333.5 L 84.5 5.5"/></clipPath><clipPath id="ArcoFPHdIQiC"><path fill="none" stroke="none" d="M 84.5 5.5 L 470.5 5.5 L 470.5 333.5 L 84.5 333.5 L 84.5 5.5"/></clipPath><clipPath id="IXVcxTblIGtW"><path fill="none" stroke="none" d="M 84.5 5.5 L 470.5 5.5 L 470.5 333.5 L 84.5 333.5 L 84.5 5.5"/></clipPath><clipPath id="xmIdhTFUTaJb"><path fill="none" stroke="none" d="M 84.5 5.5 L 470.5 5.5 L 470.5 333.5 L 84.5 333.5 L 84.5 5.5"/></clipPath></defs><path fill="rgb(255,255,255)" stroke="none" paint-order="stroke" d="M 0.5 0.5 L 500.5 0.5 L 500.5 400.5 L 0.5 400.5 L 0.5 0.5" fill-opacity="1"/><rect fill="#FFFFFF" stroke="none" x="84" y="5" width="386" height="328" transform="matrix(1, 0, 0, 1, 0.5, 0.5)"/><path fill="rgb(255,255,255)" stroke="none" paint-order="stroke" d="M 84.5 5.5 L 470.5 5.5 L 470.5 333.5 L 84.5 333.5 L 84.5 5.5" fill-opacity="1"/><path fill="none" stroke="rgb(255,0,255)" paint-order="fill" d="M 84.5 333.5 L 85.7898941040039 333.5 L 87.07978057861328 333.5 L 88.36967468261719 333.5 L 89.6595687866211 333.5 L 90.94945526123047 333.5 L 92.23934936523438 333.5 L 93.52924346923828 333.5 L 94.81912994384766 333.5 L 96.10902404785156 333.5 L 97.39891052246094 333.5 L 98.68880462646484 333.5 L 99.97869873046875 333.5 L 101.26858520507812 333.5 L 102.55847930908203 333.5 L 103.84837341308594 333.5 L 105.13825988769531 333.5 L 106.42815399169922 333.5 L 107.71804809570312 333.5 L 109.0079345703125 333.5 L 110.2978286743164 333.5 L 111.58772277832031 333.5 L 112.87760925292969 333.5 L 114.1675033569336 333.5 L 115.45738983154297 333.5 L 116.74728393554688 333.5 L 118.03717803955078 333.5 L 119.32706451416016 333.5 L 120.61695861816406 333.5 L 121.90685272216797 333.5 L 123.19673919677734 333.5 L 124.48663330078125 333.5 L 125.77652740478516 333.5 L 127.06641387939453 333.5 L 128.35630798339844 333.5 L 129.6461944580078 333.5 L 130.93609619140625 333.5 L 132.22598266601562 333.5 L 133.515869140625 333.5 L 134.80577087402344 333.5 L 136.0956573486328 333.5 L 137.3855438232422 333.5 L 138.67544555664062 333.5 L 139.96533203125 333.5 L 141.25521850585938 333.5 L 142.5451202392578 333.5 L 143.8350067138672 333.5 L 145.12489318847656 333.5 L 146.41477966308594 333.5 L 147.70468139648438 333.5 L 148.99456787109375 333.5 L 150.28445434570312 333.5 L 151.57435607910156 333.5 L 152.86424255371094 333.5 L 154.1541290283203 333.5 L 155.44403076171875 333.5 L 156.73391723632812 333.5 L 158.0238037109375 333.5 L 159.31370544433594 333.5 L 160.6035919189453 333.5 L 161.8934783935547 333.5 L 163.18338012695312 333.5 L 164.4732666015625 333.5 L 165.76315307617188 333.5 L 167.0530548095703 333.5 L 168.3429412841797 333.5 L 169.63282775878906 333.5 L 170.9227294921875 333.5 L 172.21261596679688 333.5 L 173.50250244140625 333.5 L 174.7924041748047 333.5 L 176.08229064941406 333.5 L 177.37217712402344 333.5 L 178.66207885742188 333.5 L 179.95196533203125 333.5 L 181.24185180664062 333.5 L 182.53175354003906 333.5 L 183.82164001464844 333.5 L 185.1115264892578 333.5 L 186.4014129638672 333.5 L 187.69131469726562 333.5 L 188.981201171875 333.5 L 190.27108764648438 333.5 L 191.5609893798828 333.5 L 192.8508758544922 333.5 L 194.14076232910156 333.5 L 195.4306640625 333.5 L 196.72055053710938 333.5 L 198.01043701171875 333.5 L 199.3003387451172 333.5 L 200.59022521972656 333.5 L 201.88011169433594 333.5 L 203.17001342773438 333.5 L 204.45989990234375 333.5 L 205.74978637695312 333.5 L 207.03968811035156 333.5 L 208.32957458496094 333.5 L 209.6194610595703 333.5 L 210.90936279296875 333.5 L 212.19924926757812 333.5 L 213.4891357421875 333.5 L 214.77903747558594 333.5 L 216.0689239501953 333.5 L 217.3588104248047 333.5 L 218.64871215820312 333.5 L 219.9385986328125 333.5 L 221.22848510742188 333.5 L 222.5183868408203 333.5 L 223.8082733154297 333.5 L 225.09815979003906 333.5 L 226.38804626464844 333.5 L 227.67794799804688 333.5 L 228.96783447265625 333.5 L 230.25772094726562 333.5 L 231.54762268066406 333.5 L 232.83750915527344 333.5 L 234.1273956298828 333.5 L 235.41729736328125 333.5 L 236.70718383789062 333.5 L 237.9970703125 333.5 L 239.28697204589844 333.5 L 240.5768585205078 333.5 L 241.8667449951172 333.5 L 243.15664672851562 333.5 L 244.446533203125 333.5 L 245.73641967773438 333.5 L 247.0263214111328 333.5 L 248.3162078857422 333.5 L 249.60609436035156 333.5 L 250.89599609375 333.5 L 252.18588256835938 333.5 L 253.47576904296875 333.5 L 254.7656707763672 333.5 L 256.05555725097656 333.5 L 257.345458984375 333.5 L 258.6353454589844 333.5 L 259.92523193359375 333.5 L 261.2151184082031 333.5 L 262.5050048828125 333.5 L 263.7948913574219 333.5 L 265.0848083496094 333.5 L 266.37469482421875 333.5 L 267.6645812988281 333.5 L 268.9544677734375 333.5 L 270.2443542480469 333.5 L 271.53424072265625 333.5 L 272.82415771484375 333.5 L 274.1140441894531 333.5 L 275.4039306640625 333.5 L 276.6938171386719 333.5 L 277.98370361328125 333.5 L 279.2735900878906 333.5 L 280.5635070800781 333.5 L 281.8533935546875 333.5 L 283.1432800292969 333.5 L 284.43316650390625 333.5 L 285.7230529785156 333.5 L 287.012939453125 333.5 L 288.3028259277344 333.5 L 289.5927429199219 333.5 L 290.88262939453125 333.5 L 292.1725158691406 333.5 L 293.46240234375 333.5 L 294.7522888183594 333.5 L 296.04217529296875 333.5 L 297.33209228515625 333.5 L 298.6219787597656 333.5 L 299.911865234375 333.5 L 301.2017517089844 333.5 L 302.49163818359375 333.5 L 303.7815246582031 333.5 L 305.0714416503906 333.5 L 306.361328125 333.5 L 307.6512145996094 333.5 L 308.94110107421875 333.5 L 310.2309875488281 333.5 L 311.5208740234375 333.5 L 312.810791015625 333.5 L 314.1006774902344 333.5 L 315.39056396484375 333.5 L 316.6804504394531 333.5 L 317.9703369140625 333.5 L 319.2602233886719 333.5 L 320.5501403808594 333.5 L 321.84002685546875 333.5 L 323.1299133300781 333.5 L 324.4197998046875 333.5 L 325.7096862792969 333.5 L 326.99957275390625 333.5 L 328.2894592285156 333.5 L 329.5793762207031 333.5 L 330.8692626953125 333.5 L 332.1591491699219 333.5 L 333.44903564453125 333.5 L 334.7389221191406 333.5 L 336.02880859375 333.5 L 337.3187255859375 333.5 L 338.6086120605469 333.5 L 339.89849853515625 333.5 L 341.1883850097656 333.5 L 342.478271484375 333.5 L 343.7681579589844 333.5 L 345.0580749511719 333.5 L 346.34796142578125 333.5 L 347.6378479003906 333.5 L 348.927734375 333.5 L 350.2176208496094 333.5 L 351.50750732421875 333.5 L 352.79742431640625 333.5 L 354.0873107910156 333.5 L 355.377197265625 333.5 L 356.6670837402344 333.5 L 357.95697021484375 333.5 L 359.2468566894531 333.5 L 360.5367736816406 333.5 L 361.82666015625 333.5 L 363.1165466308594 333.5 L 364.40643310546875 333.5 L 365.6963195800781 333.5 L 366.9862060546875 333.5 L 368.2760925292969 333.5 L 369.5660095214844 333.5 L 370.85589599609375 333.5 L 372.1457824707031 333.5 L 373.4356689453125 333.5 L 374.7255554199219 333.5 L 376.01544189453125 333.5 L 377.30535888671875 333.5 L 378.5952453613281 333.5 L 379.8851318359375 333.5 L 381.1750183105469 333.5 L 382.46490478515625 333.5 L 383.7547912597656 333.5 L 385.0447082519531 333.5 L 386.3345947265625 333.5 L 387.6244812011719 333.5 L 388.91436767578125 333.5 L 390.2042541503906 333.5 L 391.494140625 333.5 L 392.7840576171875 333.5 L 394.0739440917969 333.5 L 395.36383056640625 333.5 L 396.6537170410156 333.5 L 397.943603515625 333.5 L 399.2334899902344 333.5 L 400.5234069824219 333.5 L 401.81329345703125 333.5 L 403.1031799316406 333.5 L 404.39306640625 333.5 L 405.6829528808594 333.5 L 406.97283935546875 333.5 L 408.2627258300781 333.5 L 409.5526428222656 333.5 L 410.842529296875 333.5 L 412.1324157714844 333.5 L 413.42230224609375 333.5 L 414.7121887207031 333.5 L 416.0020751953125 333.5 L 417.2919921875 333.5 L 418.5818786621094 333.5 L 419.87176513671875 333.5 L 421.1616516113281 333.5 L 422.4515380859375 333.5 L 423.7414245605469 333.5 L 425.0313415527344 333.5 L 426.32122802734375 333.5 L 427.6111145019531 333.5 L 428.9010009765625 333.5 L 430.1908874511719 333.5 L 431.48077392578125 333.5 L 432.77069091796875 333.5 L 434.0605773925781 333.5 L 435.3504638671875 333.5 L 436.6403503417969 333.5 L 437.93023681640625 333.5 L 439.2201232910156 333.5 L 440.5100402832031 333.5 L 441.7999267578125 333.5 L 443.0898132324219 333.5 L 444.37969970703125 333.5 L 445.6695861816406 333.5 L 446.95947265625 333.5 L 448.2493591308594 333.5 L 449.5392761230469 333.5 L 450.82916259765625 333.5 L 452.1190490722656 333.5 L 453.408935546875 333.5 L 454.6988220214844 333.5 L 455.98870849609375 333.5 L 457.27862548828125 333.5 L 458.5685119628906 333.5 L 459.8583984375 333.5 L 461.1482849121094 333.5 L 462.43817138671875 333.5 L 463.7280578613281 333.5 L 465.0179748535156 333.5 L 466.307861328125 333.5 L 467.5977478027344 333.5 L 468.88763427734375 333.5 L 470.1775207519531 333.5 L 471.4674072265625 333.5 L 472.75732421875 333.5 L 474.0472106933594 333.5 L 475.33709716796875 333.5 L 476.6269836425781 333.5 L 477.9168701171875 333.5 L 479.2067565917969 333.5 L 480.49664306640625 333.5 L 481.78656005859375 333.5 L 483.0764465332031 333.5 L 484.3663330078125 333.5 L 485.6562194824219 333.5 L 486.94610595703125 333.5 L 488.2359924316406 333.5 L 489.5259094238281 333.5 L 490.8157958984375 333.5 L 492.1056823730469 333.5 L 493.39556884765625 333.5 L 494.6854553222656 333.5 L 495.975341796875 333.5 L 497.2652587890625 333.5 L 498.5551452636719 333.5 L 499.84503173828125 333.5 L 501.1349182128906 333.5 L 502.4248046875 333.5 L 503.7146911621094 333.5 L 505.0046081542969 333.5 L 506.29449462890625 333.5 L 507.5843811035156 333.5 L 508.874267578125 333.5 L 510.1641540527344 333.5 L 511.45404052734375 333.5 L 512.7439575195312 333.5 L 514.0338134765625 333.5 L 515.32373046875 333.5 L 516.6136474609375 333.5 L 517.9035034179688 333.5 L 519.1934204101562 333.5 L 520.4832763671875 333.5 L 521.773193359375 333.5 L 523.0630493164062 333.5 L 524.3529663085938 333.5 L 525.6428833007812 333.5 L 526.9327392578125 333.5 L 528.22265625 333.5 L 529.5125122070312 333.5 L 530.8024291992188 333.5 L 532.09228515625 333.5 L 533.3822021484375 333.5 L 534.672119140625 333.5 L 535.9619750976562 333.5 L 537.2518920898438 333.5 L 538.541748046875 333.5 L 539.8316650390625 333.5 L 541.12158203125 333.5 L 542.4114379882812 333.5 L 543.7013549804688 333.5 L 544.9912109375 333.5 L 546.2811279296875 333.5 L 547.5709838867188 333.5 L 548.8609008789062 333.5 L 550.1508178710938 333.5 L 551.440673828125 333.5 L 552.7305908203125 333.5 L 554.0204467773438 333.5 L 555.3103637695312 333.5 L 556.6002807617188 333.5 L 557.89013671875 333.5 L 559.1800537109375 333.5 L 560.4699096679688 333.5 L 561.7598266601562 333.5 L 563.0496826171875 333.5 L 564.339599609375 333.5 L 565.6295166015625 333.5 L 566.9193725585938 333.5 L 568.2092895507812 333.5 L 569.4991455078125 333.5 L 570.7890625 333.5 L 572.0789184570312 333.5 L 573.3688354492188 333.5 L 574.6587524414062 333.5 L 575.9486083984375 333.5 L 577.238525390625 333.5 L 578.5283813476562 333.5 L 579.8182983398438 333.5 L 581.1082153320312 333.5 L 582.3980712890625 333.5 L 583.68798828125 333.5 L 584.9778442382812 333.5 L 586.2677612304688 333.5 L 587.5576171875 333.5 L 588.8475341796875 333.5 L 590.137451171875 333.5 L 591.4273071289062 333.5 L 592.7172241210938 333.5 L 594.007080078125 333.5 L 595.2969970703125 333.5 L 596.5869140625 333.5 L 597.8767700195312 333.5 L 599.1666870117188 333.5" stroke-opacity="0.30196078431372547" stroke-linejoin="bevel" stroke-miterlimit="10" stroke-width="3" stroke-dasharray="" clip-path="url(#IXVcxTblIGtW)"/><path fill="none" stroke="rgb(0,0,0)" paint-order="fill" d="M 84.5 333.5 L 470.5 333.5" stroke-opacity="1" stroke-linejoin="bevel" stroke-miterlimit="10" stroke-dasharray=""/><path fill="none" stroke="rgb(0,0,0)" paint-order="fill" d="M 84.5 339.5 L 84.5 331.5 M 148.5 339.5 L 148.5 331.5 M 213.5 339.5 L 213.5 331.5 M 277.5 339.5 L 277.5 331.5 M 341.5 339.5 L 341.5 331.5 M 406.5 339.5 L 406.5 331.5 M 470.5 339.5 L 470.5 331.5" stroke-opacity="1" stroke-linejoin="bevel" stroke-miterlimit="10" stroke-dasharray=""/><path fill="none" stroke="rgb(0,0,0)" paint-order="fill" d="M 84.5 337.5 L 84.5 333.5 M 97.5 337.5 L 97.5 333.5 M 110.5 337.5 L 110.5 333.5 M 123.5 337.5 L 123.5 333.5 M 135.5 337.5 L 135.5 333.5 M 148.5 337.5 L 148.5 333.5 M 161.5 337.5 L 161.5 333.5 M 174.5 337.5 L 174.5 333.5 M 187.5 337.5 L 187.5 333.5 M 200.5 337.5 L 200.5 333.5 M 213.5 337.5 L 213.5 333.5 M 226.5 337.5 L 226.5 333.5 M 238.5 337.5 L 238.5 333.5 M 251.5 337.5 L 251.5 333.5 M 264.5 337.5 L 264.5 333.5 M 277.5 337.5 L 277.5 333.5 M 290.5 337.5 L 290.5 333.5 M 303.5 337.5 L 303.5 333.5 M 316.5 337.5 L 316.5 333.5 M 328.5 337.5 L 328.5 333.5 M 341.5 337.5 L 341.5 333.5 M 354.5 337.5 L 354.5 333.5 M 367.5 337.5 L 367.5 333.5 M 380.5 337.5 L 380.5 333.5 M 393.5 337.5 L 393.5 333.5 M 406.5 337.5 L 406.5 333.5 M 419.5 337.5 L 419.5 333.5 M 431.5 337.5 L 431.5 333.5 M 444.5 337.5 L 444.5 333.5 M 457.5 337.5 L 457.5 333.5 M 470.5 337.5 L 470.5 333.5" stroke-opacity="1" stroke-linejoin="bevel" stroke-miterlimit="10" stroke-dasharray=""/><text fill="rgb(68,68,68)" stroke="none" font-family="Work Sans" font-size="15pt" font-style="normal" font-weight="normal" text-decoration="normal" x="79" y="357" text-anchor="start" dominant-baseline="alphabetic" transform="matrix(1, 0, 0, 1, 0.5, 0.5)" fill-opacity="1">0</text><text fill="rgb(68,68,68)" stroke="none" font-family="Work Sans" font-size="15pt" font-style="normal" font-weight="normal" text-decoration="normal" x="135.8333282470703" y="357" text-anchor="start" dominant-baseline="alphabetic" transform="matrix(1, 0, 0, 1, 0.5, 0.5)" fill-opacity="1">0.5</text><text fill="rgb(68,68,68)" stroke="none" font-family="Work Sans" font-size="15pt" font-style="normal" font-weight="normal" text-decoration="normal" x="207.6666717529297" y="357" text-anchor="start" dominant-baseline="alphabetic" transform="matrix(1, 0, 0, 1, 0.5, 0.5)" fill-opacity="1">1</text><text fill="rgb(68,68,68)" stroke="none" font-family="Work Sans" font-size="15pt" font-style="normal" font-weight="normal" text-decoration="normal" x="264.5" y="357" text-anchor="start" dominant-baseline="alphabetic" transform="matrix(1, 0, 0, 1, 0.5, 0.5)" fill-opacity="1">1.5</text><text fill="rgb(68,68,68)" stroke="none" font-family="Work Sans" font-size="15pt" font-style="normal" font-weight="normal" text-decoration="normal" x="336.3333435058594" y="357" text-anchor="start" dominant-baseline="alphabetic" transform="matrix(1, 0, 0, 1, 0.5, 0.5)" fill-opacity="1">2</text><text fill="rgb(68,68,68)" stroke="none" font-family="Work Sans" font-size="15pt" font-style="normal" font-weight="normal" text-decoration="normal" x="393.1666564941406" y="357" text-anchor="start" dominant-baseline="alphabetic" transform="matrix(1, 0, 0, 1, 0.5, 0.5)" fill-opacity="1">2.5</text><text fill="rgb(68,68,68)" stroke="none" font-family="Work Sans" font-size="15pt" font-style="normal" font-weight="normal" text-decoration="normal" x="465" y="357" text-anchor="start" dominant-baseline="alphabetic" transform="matrix(1, 0, 0, 1, 0.5, 0.5)" fill-opacity="1">3</text><text fill="rgb(68,68,68)" stroke="none" font-family="helvetica" font-size="15pt" font-style="normal" font-weight="normal" text-decoration="normal" x="220.6962890625" y="393" text-anchor="start" dominant-baseline="alphabetic" transform="matrix(1, 0, 0, 1, 0.5, 0.5)" fill-opacity="1">Time (hours)</text><path fill="none" stroke="rgb(0,0,0)" paint-order="fill" d="M 84.5 333.5 L 84.5 5.5" stroke-opacity="1" stroke-linejoin="bevel" stroke-miterlimit="10" stroke-dasharray=""/><path fill="none" stroke="rgb(0,0,0)" paint-order="fill" d="M 78.5 333.5 L 86.5 333.5 M 78.5 283.5 L 86.5 283.5 M 78.5 232.5 L 86.5 232.5 M 78.5 182.5 L 86.5 182.5 M 78.5 131.5 L 86.5 131.5 M 78.5 81.5 L 86.5 81.5 M 78.5 30.5 L 86.5 30.5" stroke-opacity="1" stroke-linejoin="bevel" stroke-miterlimit="10" stroke-dasharray=""/><path fill="none" stroke="rgb(0,0,0)" paint-order="fill" d="M 80.5 333.5 L 84.5 333.5 M 80.5 323.5 L 84.5 323.5 M 80.5 313.5 L 84.5 313.5 M 80.5 303.5 L 84.5 303.5 M 80.5 293.5 L 84.5 293.5 M 80.5 283.5 L 84.5 283.5 M 80.5 272.5 L 84.5 272.5 M 80.5 262.5 L 84.5 262.5 M 80.5 252.5 L 84.5 252.5 M 80.5 242.5 L 84.5 242.5 M 80.5 232.5 L 84.5 232.5 M 80.5 222.5 L 84.5 222.5 M 80.5 212.5 L 84.5 212.5 M 80.5 202.5 L 84.5 202.5 M 80.5 192.5 L 84.5 192.5 M 80.5 182.5 L 84.5 182.5 M 80.5 172.5 L 84.5 172.5 M 80.5 161.5 L 84.5 161.5 M 80.5 151.5 L 84.5 151.5 M 80.5 141.5 L 84.5 141.5 M 80.5 131.5 L 84.5 131.5 M 80.5 121.5 L 84.5 121.5 M 80.5 111.5 L 84.5 111.5 M 80.5 101.5 L 84.5 101.5 M 80.5 91.5 L 84.5 91.5 M 80.5 81.5 L 84.5 81.5 M 80.5 71.5 L 84.5 71.5 M 80.5 61.5 L 84.5 61.5 M 80.5 50.5 L 84.5 50.5 M 80.5 40.5 L 84.5 40.5 M 80.5 30.5 L 84.5 30.5 M 80.5 20.5 L 84.5 20.5 M 80.5 10.5 L 84.5 10.5" stroke-opacity="1" stroke-linejoin="bevel" stroke-miterlimit="10" stroke-dasharray=""/><text fill="rgb(68,68,68)" stroke="none" font-family="Work Sans" font-size="15pt" font-style="normal" font-weight="normal" text-decoration="normal" x="63" y="339.5" text-anchor="start" dominant-baseline="alphabetic" transform="matrix(1, 0, 0, 1, 0.5, 0.5)" fill-opacity="1">0</text><text fill="rgb(68,68,68)" stroke="none" font-family="Work Sans" font-size="15pt" font-style="normal" font-weight="normal" text-decoration="normal" x="53" y="289.0384521484375" text-anchor="start" dominant-baseline="alphabetic" transform="matrix(1, 0, 0, 1, 0.5, 0.5)" fill-opacity="1">20</text><text fill="rgb(68,68,68)" stroke="none" font-family="Work Sans" font-size="15pt" font-style="normal" font-weight="normal" text-decoration="normal" x="53" y="238.57691955566406" text-anchor="start" dominant-baseline="alphabetic" transform="matrix(1, 0, 0, 1, 0.5, 0.5)" fill-opacity="1">40</text><text fill="rgb(68,68,68)" stroke="none" font-family="Work Sans" font-size="15pt" font-style="normal" font-weight="normal" text-decoration="normal" x="53" y="188.11538696289062" text-anchor="start" dominant-baseline="alphabetic" transform="matrix(1, 0, 0, 1, 0.5, 0.5)" fill-opacity="1">60</text><text fill="rgb(68,68,68)" stroke="none" font-family="Work Sans" font-size="15pt" font-style="normal" font-weight="normal" text-decoration="normal" x="53" y="137.65383911132812" text-anchor="start" dominant-baseline="alphabetic" transform="matrix(1, 0, 0, 1, 0.5, 0.5)" fill-opacity="1">80</text><text fill="rgb(68,68,68)" stroke="none" font-family="Work Sans" font-size="15pt" font-style="normal" font-weight="normal" text-decoration="normal" x="43" y="87.19230651855469" text-anchor="start" dominant-baseline="alphabetic" transform="matrix(1, 0, 0, 1, 0.5, 0.5)" fill-opacity="1">100</text><text fill="rgb(68,68,68)" stroke="none" font-family="Work Sans" font-size="15pt" font-style="normal" font-weight="normal" text-decoration="normal" x="43" y="36.730770111083984" text-anchor="start" dominant-baseline="alphabetic" transform="matrix(1, 0, 0, 1, 0.5, 0.5)" fill-opacity="1">120</text><text fill="rgb(68,68,68)" stroke="none" font-family="helvetica" font-size="15pt" font-style="normal" font-weight="normal" text-decoration="normal" x="-22.9736328125" y="165" text-anchor="start" dominant-baseline="alphabetic" transform="matrix(6.123233995736766e-17, -1, 1, 6.123233995736766e-17, -143.5, 194.5)" fill-opacity="1">HiBiT (μM)</text></svg>