<svg version="1.1" xmlns="http://www.w3.org/2000/svg" width="400" height="300"><defs><clipPath id="FUEfxNHBnIWe"><path fill="none" stroke="none" d="M 64.5 5.5 L 390.5 5.5 L 390.5 233.5 L 64.5 233.5 L 64.5 5.5"/></clipPath><clipPath id="bcQVIiRlmFGF"><path fill="none" stroke="none" d="M 64.5 5.5 L 390.5 5.5 L 390.5 233.5 L 64.5 233.5 L 64.5 5.5"/></clipPath><clipPath id="KSInFgDtQCTz"><path fill="none" stroke="none" d="M 64.5 5.5 L 390.5 5.5 L 390.5 233.5 L 64.5 233.5 L 64.5 5.5"/></clipPath><clipPath id="uOZLkcVsUIUI"><path fill="none" stroke="none" d="M 64.5 5.5 L 390.5 5.5 L 390.5 233.5 L 64.5 233.5 L 64.5 5.5"/></clipPath><clipPath id="kTcwMIPGRKMd"><path fill="none" stroke="none" d="M 64.5 5.5 L 390.5 5.5 L 390.5 233.5 L 64.5 233.5 L 64.5 5.5"/></clipPath><clipPath id="anHMIpsCeLfT"><path fill="none" stroke="none" d="M 64.5 5.5 L 390.5 5.5 L 390.5 233.5 L 64.5 233.5 L 64.5 5.5"/></clipPath></defs><path fill="rgb(255,255,255)" stroke="none" paint-order="stroke" d="M 0.5 0.5 L 400.5 0.5 L 400.5 300.5 L 0.5 300.5 L 0.5 0.5" fill-opacity="1"/><rect fill="#FFFFFF" stroke="none" x="64" y="5" width="326" height="228" transform="matrix(1, 0, 0, 1, 0.5, 0.5)"/><path fill="rgb(255,255,255)" stroke="none" paint-order="stroke" d="M 64.5 5.5 L 390.5 5.5 L 390.5 233.5 L 64.5 233.5 L 64.5 5.5" fill-opacity="1"/><path fill="rgb(0,0,0)" stroke="rgb(0,0,0)" paint-order="fill" d="M 364.6424255371094 20.18292236328125 A 2.5 2.5 0 1 1 364.64242428710946 20.180422363697915" fill-opacity="0.5019607843137255" clip-path="url(#KSInFgDtQCTz)" stroke-opacity="1" stroke-linejoin="bevel" stroke-miterlimit="10" stroke-dasharray=""/><path fill="rgb(0,0,0)" stroke="rgb(0,0,0)" paint-order="fill" d="M 262.5245056152344 56.91863250732422 A 2.5 2.5 0 1 1 262.52450436523446 56.91613250774088" fill-opacity="0.5019607843137255" clip-path="url(#KSInFgDtQCTz)" stroke-opacity="1" stroke-linejoin="bevel" stroke-miterlimit="10" stroke-dasharray=""/><path fill="rgb(0,0,0)" stroke="rgb(0,0,0)" paint-order="fill" d="M 181.713623046875 95.90514373779297 A 2.5 2.5 0 1 1 181.71362179687512 95.90264373820963" fill-opacity="0.5019607843137255" clip-path="url(#KSInFgDtQCTz)" stroke-opacity="1" stroke-linejoin="bevel" stroke-miterlimit="10" stroke-dasharray=""/><path fill="rgb(0,0,0)" stroke="rgb(0,0,0)" paint-order="fill" d="M 139.5011749267578 132.26866149902344 A 2.5 2.5 0 1 1 139.50117367675793 132.2661614994401" fill-opacity="0.5019607843137255" clip-path="url(#KSInFgDtQCTz)" stroke-opacity="1" stroke-linejoin="bevel" stroke-miterlimit="10" stroke-dasharray=""/><path fill="rgb(0,0,0)" stroke="rgb(0,0,0)" paint-order="fill" d="M 112.67073822021484 164.23439025878906 A 2.5 2.5 0 1 1 112.67073697021495 164.23189025920573" fill-opacity="0.5019607843137255" clip-path="url(#KSInFgDtQCTz)" stroke-opacity="1" stroke-linejoin="bevel" stroke-miterlimit="10" stroke-dasharray=""/><path fill="rgb(0,0,0)" stroke="rgb(0,0,0)" paint-order="fill" d="M 90.65896606445312 190.95411682128906 A 2.5 2.5 0 1 1 90.65896481445323 190.95161682170573" fill-opacity="0.5019607843137255" clip-path="url(#KSInFgDtQCTz)" stroke-opacity="1" stroke-linejoin="bevel" stroke-miterlimit="10" stroke-dasharray=""/><path fill="none" stroke="rgb(0,0,0)" paint-order="fill" d="M 362.1424255371094 24.85957908630371 L 362.1424255371094 15.506264686584473" stroke-opacity="1" stroke-linejoin="bevel" stroke-miterlimit="10" stroke-dasharray="" clip-path="url(#uOZLkcVsUIUI)"/><path fill="none" stroke="rgb(0,0,0)" paint-order="fill" d="M 260.0245056152344 60.35922622680664 L 260.0245056152344 53.4780387878418" stroke-opacity="1" stroke-linejoin="bevel" stroke-miterlimit="10" stroke-dasharray="" clip-path="url(#uOZLkcVsUIUI)"/><path fill="none" stroke="rgb(0,0,0)" paint-order="fill" d="M 179.213623046875 98.08834838867188 L 179.213623046875 93.7219467163086" stroke-opacity="1" stroke-linejoin="bevel" stroke-miterlimit="10" stroke-dasharray="" clip-path="url(#uOZLkcVsUIUI)"/><path fill="none" stroke="rgb(0,0,0)" paint-order="fill" d="M 137.0011749267578 133.1316375732422 L 137.0011749267578 131.4056854248047" stroke-opacity="1" stroke-linejoin="bevel" stroke-miterlimit="10" stroke-dasharray="" clip-path="url(#uOZLkcVsUIUI)"/><path fill="none" stroke="rgb(0,0,0)" paint-order="fill" d="M 110.17073822021484 165.19068908691406 L 110.17073822021484 163.27809143066406" stroke-opacity="1" stroke-linejoin="bevel" stroke-miterlimit="10" stroke-dasharray="" clip-path="url(#uOZLkcVsUIUI)"/><path fill="none" stroke="rgb(0,0,0)" paint-order="fill" d="M 88.15896606445312 192.382080078125 L 88.15896606445312 189.5261688232422" stroke-opacity="1" stroke-linejoin="bevel" stroke-miterlimit="10" stroke-dasharray="" clip-path="url(#uOZLkcVsUIUI)"/><path fill="none" stroke="rgb(0,0,0)" paint-order="fill" d="M 354.2196044921875 20.18292236328125 L 370.0652160644531 20.18292236328125" stroke-opacity="1" stroke-linejoin="bevel" stroke-miterlimit="10" stroke-dasharray="" clip-path="url(#kTcwMIPGRKMd)"/><path fill="none" stroke="rgb(0,0,0)" paint-order="fill" d="M 253.00811767578125 56.91863250732422 L 267.0409240722656 56.91863250732422" stroke-opacity="1" stroke-linejoin="bevel" stroke-miterlimit="10" stroke-dasharray="" clip-path="url(#kTcwMIPGRKMd)"/><path fill="none" stroke="rgb(0,0,0)" paint-order="fill" d="M 171.1061248779297 95.90514373779297 L 187.3211212158203 95.90514373779297" stroke-opacity="1" stroke-linejoin="bevel" stroke-miterlimit="10" stroke-dasharray="" clip-path="url(#kTcwMIPGRKMd)"/><path fill="none" stroke="rgb(0,0,0)" paint-order="fill" d="M 135.41847229003906 132.26866149902344 L 138.5838623046875 132.26866149902344" stroke-opacity="1" stroke-linejoin="bevel" stroke-miterlimit="10" stroke-dasharray="" clip-path="url(#kTcwMIPGRKMd)"/><path fill="none" stroke="rgb(0,0,0)" paint-order="fill" d="M 107.89186096191406 164.23439025878906 L 112.4496078491211 164.23439025878906" stroke-opacity="1" stroke-linejoin="bevel" stroke-miterlimit="10" stroke-dasharray="" clip-path="url(#kTcwMIPGRKMd)"/><path fill="none" stroke="rgb(0,0,0)" paint-order="fill" d="M 87.6369857788086 190.95411682128906 L 88.68094635009766 190.95411682128906" stroke-opacity="1" stroke-linejoin="bevel" stroke-miterlimit="10" stroke-dasharray="" clip-path="url(#kTcwMIPGRKMd)"/><path fill="none" stroke="rgb(0,0,0)" paint-order="fill" d="M 64.5 233.5 L 390.5 233.5" stroke-opacity="1" stroke-linejoin="bevel" stroke-miterlimit="10" stroke-dasharray=""/><path fill="none" stroke="rgb(0,0,0)" paint-order="fill" d="M 64.5 239.5 L 64.5 231.5 M 129.5 239.5 L 129.5 231.5 M 194.5 239.5 L 194.5 231.5 M 260.5 239.5 L 260.5 231.5 M 325.5 239.5 L 325.5 231.5 M 390.5 239.5 L 390.5 231.5" stroke-opacity="1" stroke-linejoin="bevel" stroke-miterlimit="10" stroke-dasharray=""/><path fill="none" stroke="rgb(0,0,0)" paint-order="fill" d="M 64.5 237.5 L 64.5 233.5 M 77.5 237.5 L 77.5 233.5 M 90.5 237.5 L 90.5 233.5 M 103.5 237.5 L 103.5 233.5 M 116.5 237.5 L 116.5 233.5 M 129.5 237.5 L 129.5 233.5 M 142.5 237.5 L 142.5 233.5 M 155.5 237.5 L 155.5 233.5 M 168.5 237.5 L 168.5 233.5 M 181.5 237.5 L 181.5 233.5 M 194.5 237.5 L 194.5 233.5 M 207.5 237.5 L 207.5 233.5 M 220.5 237.5 L 220.5 233.5 M 234.5 237.5 L 234.5 233.5 M 247.5 237.5 L 247.5 233.5 M 260.5 237.5 L 260.5 233.5 M 273.5 237.5 L 273.5 233.5 M 286.5 237.5 L 286.5 233.5 M 299.5 237.5 L 299.5 233.5 M 312.5 237.5 L 312.5 233.5 M 325.5 237.5 L 325.5 233.5 M 338.5 237.5 L 338.5 233.5 M 351.5 237.5 L 351.5 233.5 M 364.5 237.5 L 364.5 233.5 M 377.5 237.5 L 377.5 233.5 M 390.5 237.5 L 390.5 233.5" stroke-opacity="1" stroke-linejoin="bevel" stroke-miterlimit="10" stroke-dasharray=""/><text fill="rgb(68,68,68)" stroke="none" font-family="Work Sans" font-size="15pt" font-style="normal" font-weight="normal" text-decoration="normal" x="59" y="257" text-anchor="start" dominant-baseline="alphabetic" transform="matrix(1, 0, 0, 1, 0.5, 0.5)" fill-opacity="1">0</text><text fill="rgb(68,68,68)" stroke="none" font-family="Work Sans" font-size="15pt" font-style="normal" font-weight="normal" text-decoration="normal" x="116.69999694824219" y="257" text-anchor="start" dominant-baseline="alphabetic" transform="matrix(1, 0, 0, 1, 0.5, 0.5)" fill-opacity="1">0.5</text><text fill="rgb(68,68,68)" stroke="none" font-family="Work Sans" font-size="15pt" font-style="normal" font-weight="normal" text-decoration="normal" x="189.39999389648438" y="257" text-anchor="start" dominant-baseline="alphabetic" transform="matrix(1, 0, 0, 1, 0.5, 0.5)" fill-opacity="1">1</text><text fill="rgb(68,68,68)" stroke="none" font-family="Work Sans" font-size="15pt" font-style="normal" font-weight="normal" text-decoration="normal" x="247.10000610351562" y="257" text-anchor="start" dominant-baseline="alphabetic" transform="matrix(1, 0, 0, 1, 0.5, 0.5)" fill-opacity="1">1.5</text><text fill="rgb(68,68,68)" stroke="none" font-family="Work Sans" font-size="15pt" font-style="normal" font-weight="normal" text-decoration="normal" x="319.79998779296875" y="257" text-anchor="start" dominant-baseline="alphabetic" transform="matrix(1, 0, 0, 1, 0.5, 0.5)" fill-opacity="1">2</text><text fill="rgb(68,68,68)" stroke="none" font-family="Work Sans" font-size="15pt" font-style="normal" font-weight="normal" text-decoration="normal" x="375" y="257" text-anchor="start" dominant-baseline="alphabetic" transform="matrix(1, 0, 0, 1, 0.5, 0.5)" fill-opacity="1">2.5</text><text fill="rgb(68,68,68)" stroke="none" font-family="helvetica" font-size="15pt" font-style="normal" font-weight="normal" text-decoration="normal" x="182.3564453125" y="293" text-anchor="start" dominant-baseline="alphabetic" transform="matrix(1, 0, 0, 1, 0.5, 0.5)" fill-opacity="1">RNA (μM)</text><path fill="none" stroke="rgb(0,0,0)" paint-order="fill" d="M 64.5 233.5 L 64.5 5.5" stroke-opacity="1" stroke-linejoin="bevel" stroke-miterlimit="10" stroke-dasharray=""/><path fill="none" stroke="rgb(0,0,0)" paint-order="fill" d="M 58.5 233.5 L 66.5 233.5 M 58.5 200.5 L 66.5 200.5 M 58.5 168.5 L 66.5 168.5 M 58.5 135.5 L 66.5 135.5 M 58.5 103.5 L 66.5 103.5 M 58.5 70.5 L 66.5 70.5 M 58.5 38.5 L 66.5 38.5 M 58.5 5.5 L 66.5 5.5" stroke-opacity="1" stroke-linejoin="bevel" stroke-miterlimit="10" stroke-dasharray=""/><path fill="none" stroke="rgb(0,0,0)" paint-order="fill" d="M 60.5 233.5 L 64.5 233.5 M 60.5 226.5 L 64.5 226.5 M 60.5 220.5 L 64.5 220.5 M 60.5 213.5 L 64.5 213.5 M 60.5 207.5 L 64.5 207.5 M 60.5 200.5 L 64.5 200.5 M 60.5 194.5 L 64.5 194.5 M 60.5 187.5 L 64.5 187.5 M 60.5 181.5 L 64.5 181.5 M 60.5 174.5 L 64.5 174.5 M 60.5 168.5 L 64.5 168.5 M 60.5 161.5 L 64.5 161.5 M 60.5 155.5 L 64.5 155.5 M 60.5 148.5 L 64.5 148.5 M 60.5 142.5 L 64.5 142.5 M 60.5 135.5 L 64.5 135.5 M 60.5 129.5 L 64.5 129.5 M 60.5 122.5 L 64.5 122.5 M 60.5 116.5 L 64.5 116.5 M 60.5 109.5 L 64.5 109.5 M 60.5 103.5 L 64.5 103.5 M 60.5 96.5 L 64.5 96.5 M 60.5 90.5 L 64.5 90.5 M 60.5 83.5 L 64.5 83.5 M 60.5 77.5 L 64.5 77.5 M 60.5 70.5 L 64.5 70.5 M 60.5 64.5 L 64.5 64.5 M 60.5 57.5 L 64.5 57.5 M 60.5 51.5 L 64.5 51.5 M 60.5 44.5 L 64.5 44.5 M 60.5 38.5 L 64.5 38.5 M 60.5 31.5 L 64.5 31.5 M 60.5 25.5 L 64.5 25.5 M 60.5 18.5 L 64.5 18.5 M 60.5 12.5 L 64.5 12.5 M 60.5 5.5 L 64.5 5.5" stroke-opacity="1" stroke-linejoin="bevel" stroke-miterlimit="10" stroke-dasharray=""/><text fill="rgb(68,68,68)" stroke="none" font-family="Work Sans" font-size="15pt" font-style="normal" font-weight="normal" text-decoration="normal" x="43" y="239.5" text-anchor="start" dominant-baseline="alphabetic" transform="matrix(1, 0, 0, 1, 0.5, 0.5)" fill-opacity="1">0</text><text fill="rgb(68,68,68)" stroke="none" font-family="Work Sans" font-size="15pt" font-style="normal" font-weight="normal" text-decoration="normal" x="43" y="206.92857360839844" text-anchor="start" dominant-baseline="alphabetic" transform="matrix(1, 0, 0, 1, 0.5, 0.5)" fill-opacity="1">1</text><text fill="rgb(68,68,68)" stroke="none" font-family="Work Sans" font-size="15pt" font-style="normal" font-weight="normal" text-decoration="normal" x="43" y="174.35714721679688" text-anchor="start" dominant-baseline="alphabetic" transform="matrix(1, 0, 0, 1, 0.5, 0.5)" fill-opacity="1">2</text><text fill="rgb(68,68,68)" stroke="none" font-family="Work Sans" font-size="15pt" font-style="normal" font-weight="normal" text-decoration="normal" x="43" y="141.7857208251953" text-anchor="start" dominant-baseline="alphabetic" transform="matrix(1, 0, 0, 1, 0.5, 0.5)" fill-opacity="1">3</text><text fill="rgb(68,68,68)" stroke="none" font-family="Work Sans" font-size="15pt" font-style="normal" font-weight="normal" text-decoration="normal" x="43" y="109.21428680419922" text-anchor="start" dominant-baseline="alphabetic" transform="matrix(1, 0, 0, 1, 0.5, 0.5)" fill-opacity="1">4</text><text fill="rgb(68,68,68)" stroke="none" font-family="Work Sans" font-size="15pt" font-style="normal" font-weight="normal" text-decoration="normal" x="43" y="76.64286041259766" text-anchor="start" dominant-baseline="alphabetic" transform="matrix(1, 0, 0, 1, 0.5, 0.5)" fill-opacity="1">5</text><text fill="rgb(68,68,68)" stroke="none" font-family="Work Sans" font-size="15pt" font-style="normal" font-weight="normal" text-decoration="normal" x="43" y="44.07143020629883" text-anchor="start" dominant-baseline="alphabetic" transform="matrix(1, 0, 0, 1, 0.5, 0.5)" fill-opacity="1">6</text><text fill="rgb(68,68,68)" stroke="none" font-family="Work Sans" font-size="15pt" font-style="normal" font-weight="normal" text-decoration="normal" x="43" y="13" text-anchor="start" dominant-baseline="alphabetic" transform="matrix(1, 0, 0, 1, 0.5, 0.5)" fill-opacity="1">7</text><text fill="rgb(68,68,68)" stroke="none" font-family="helvetica" font-size="15pt" font-style="normal" font-weight="normal" text-decoration="normal" x="-30.2099609375" y="115" text-anchor="start" dominant-baseline="alphabetic" transform="matrix(6.123233995736766e-17, -1, 1, 6.123233995736766e-17, -93.5, 144.5)" fill-opacity="1">deGFP (μM)</text></svg>