<svg version="1.1" xmlns="http://www.w3.org/2000/svg" width="400" height="300"><defs><clipPath id="DMvJlziOGydu"><path fill="none" stroke="none" d="M 79.5 5.5 L 390.5 5.5 L 390.5 233.5 L 79.5 233.5 L 79.5 5.5"/></clipPath><clipPath id="tWiTmiTSDLTs"><path fill="none" stroke="none" d="M 79.5 5.5 L 390.5 5.5 L 390.5 233.5 L 79.5 233.5 L 79.5 5.5"/></clipPath><clipPath id="aPukkuQCobfD"><path fill="none" stroke="none" d="M 79.5 5.5 L 390.5 5.5 L 390.5 233.5 L 79.5 233.5 L 79.5 5.5"/></clipPath><clipPath id="kfpxZHKivdCc"><path fill="none" stroke="none" d="M 79.5 5.5 L 390.5 5.5 L 390.5 233.5 L 79.5 233.5 L 79.5 5.5"/></clipPath><clipPath id="ypelfevBLTQo"><path fill="none" stroke="none" d="M 79.5 5.5 L 390.5 5.5 L 390.5 233.5 L 79.5 233.5 L 79.5 5.5"/></clipPath></defs><path fill="rgb(255,255,255)" stroke="none" paint-order="stroke" d="M 0.5 0.5 L 400.5 0.5 L 400.5 300.5 L 0.5 300.5 L 0.5 0.5" fill-opacity="1"/><rect fill="#FFFFFF" stroke="none" x="79" y="5" width="311" height="228" transform="matrix(1, 0, 0, 1, 0.5, 0.5)"/><path fill="rgb(255,255,255)" stroke="none" paint-order="stroke" d="M 79.5 5.5 L 390.5 5.5 L 390.5 233.5 L 79.5 233.5 L 79.5 5.5" fill-opacity="1"/><path fill="rgb(0,0,0)" stroke="rgb(0,0,0)" paint-order="fill" d="M 329.5559997558594 25.332910537719727 A 2.5 2.5 0 1 1 329.55599850585946 25.33041053813639" fill-opacity="0.5019607843137255" clip-path="url(#aPukkuQCobfD)" stroke-opacity="1" stroke-linejoin="bevel" stroke-miterlimit="10" stroke-dasharray=""/><path fill="rgb(0,0,0)" stroke="rgb(0,0,0)" paint-order="fill" d="M 213.86399841308594 96.75279235839844 A 2.5 2.5 0 1 1 213.86399716308605 96.7502923588151" fill-opacity="0.5019607843137255" clip-path="url(#aPukkuQCobfD)" stroke-opacity="1" stroke-linejoin="bevel" stroke-miterlimit="10" stroke-dasharray=""/><path fill="rgb(0,0,0)" stroke="rgb(0,0,0)" paint-order="fill" d="M 140.46800231933594 153.27084350585938 A 2.5 2.5 0 1 1 140.46800106933605 153.26834350627604" fill-opacity="0.5019607843137255" clip-path="url(#aPukkuQCobfD)" stroke-opacity="1" stroke-linejoin="bevel" stroke-miterlimit="10" stroke-dasharray=""/><path fill="rgb(0,0,0)" stroke="rgb(0,0,0)" paint-order="fill" d="M 114.34400177001953 182.7936553955078 A 2.5 2.5 0 1 1 114.34400052001963 182.79115539592448" fill-opacity="0.5019607843137255" clip-path="url(#aPukkuQCobfD)" stroke-opacity="1" stroke-linejoin="bevel" stroke-miterlimit="10" stroke-dasharray=""/><path fill="rgb(0,0,0)" stroke="rgb(0,0,0)" paint-order="fill" d="M 96.9280014038086 201.55850219726562 A 2.5 2.5 0 1 1 96.9280001538087 201.5560021976823" fill-opacity="0.5019607843137255" clip-path="url(#aPukkuQCobfD)" stroke-opacity="1" stroke-linejoin="bevel" stroke-miterlimit="10" stroke-dasharray=""/><path fill="rgb(0,0,0)" stroke="rgb(0,0,0)" paint-order="fill" d="M 90.70800018310547 216.95323181152344 A 2.5 2.5 0 1 1 90.70799893310557 216.9507318119401" fill-opacity="0.5019607843137255" clip-path="url(#aPukkuQCobfD)" stroke-opacity="1" stroke-linejoin="bevel" stroke-miterlimit="10" stroke-dasharray=""/><path fill="none" stroke="rgb(0,0,0)" paint-order="fill" d="M 327.0559997558594 30.8740177154541 L 327.0559997558594 19.79180335998535" stroke-opacity="1" stroke-linejoin="bevel" stroke-miterlimit="10" stroke-dasharray="" clip-path="url(#kfpxZHKivdCc)"/><path fill="none" stroke="rgb(0,0,0)" paint-order="fill" d="M 211.36399841308594 101.65996551513672 L 211.36399841308594 91.84561920166016" stroke-opacity="1" stroke-linejoin="bevel" stroke-miterlimit="10" stroke-dasharray="" clip-path="url(#kfpxZHKivdCc)"/><path fill="none" stroke="rgb(0,0,0)" paint-order="fill" d="M 137.96800231933594 158.9411163330078 L 137.96800231933594 147.60057067871094" stroke-opacity="1" stroke-linejoin="bevel" stroke-miterlimit="10" stroke-dasharray="" clip-path="url(#kfpxZHKivdCc)"/><path fill="none" stroke="rgb(0,0,0)" paint-order="fill" d="M 111.84400177001953 183.90057373046875 L 111.84400177001953 181.68673706054688" stroke-opacity="1" stroke-linejoin="bevel" stroke-miterlimit="10" stroke-dasharray="" clip-path="url(#kfpxZHKivdCc)"/><path fill="none" stroke="rgb(0,0,0)" paint-order="fill" d="M 94.4280014038086 203.15231323242188 L 94.4280014038086 199.96469116210938" stroke-opacity="1" stroke-linejoin="bevel" stroke-miterlimit="10" stroke-dasharray="" clip-path="url(#kfpxZHKivdCc)"/><path fill="none" stroke="rgb(0,0,0)" paint-order="fill" d="M 88.20800018310547 217.31829833984375 L 88.20800018310547 216.5881805419922" stroke-opacity="1" stroke-linejoin="bevel" stroke-miterlimit="10" stroke-dasharray="" clip-path="url(#kfpxZHKivdCc)"/><path fill="none" stroke="rgb(0,0,0)" paint-order="fill" d="M 79.5 233.5 L 390.5 233.5" stroke-opacity="1" stroke-linejoin="bevel" stroke-miterlimit="10" stroke-dasharray=""/><path fill="none" stroke="rgb(0,0,0)" paint-order="fill" d="M 79.5 239.5 L 79.5 231.5 M 141.5 239.5 L 141.5 231.5 M 203.5 239.5 L 203.5 231.5 M 266.5 239.5 L 266.5 231.5 M 328.5 239.5 L 328.5 231.5 M 390.5 239.5 L 390.5 231.5" stroke-opacity="1" stroke-linejoin="bevel" stroke-miterlimit="10" stroke-dasharray=""/><path fill="none" stroke="rgb(0,0,0)" paint-order="fill" d="M 79.5 237.5 L 79.5 233.5 M 91.5 237.5 L 91.5 233.5 M 104.5 237.5 L 104.5 233.5 M 116.5 237.5 L 116.5 233.5 M 129.5 237.5 L 129.5 233.5 M 141.5 237.5 L 141.5 233.5 M 154.5 237.5 L 154.5 233.5 M 166.5 237.5 L 166.5 233.5 M 179.5 237.5 L 179.5 233.5 M 191.5 237.5 L 191.5 233.5 M 203.5 237.5 L 203.5 233.5 M 216.5 237.5 L 216.5 233.5 M 228.5 237.5 L 228.5 233.5 M 241.5 237.5 L 241.5 233.5 M 253.5 237.5 L 253.5 233.5 M 266.5 237.5 L 266.5 233.5 M 278.5 237.5 L 278.5 233.5 M 290.5 237.5 L 290.5 233.5 M 303.5 237.5 L 303.5 233.5 M 315.5 237.5 L 315.5 233.5 M 328.5 237.5 L 328.5 233.5 M 340.5 237.5 L 340.5 233.5 M 353.5 237.5 L 353.5 233.5 M 365.5 237.5 L 365.5 233.5 M 378.5 237.5 L 378.5 233.5 M 390.5 237.5 L 390.5 233.5" stroke-opacity="1" stroke-linejoin="bevel" stroke-miterlimit="10" stroke-dasharray=""/><text fill="rgb(68,68,68)" stroke="none" font-family="Work Sans" font-size="15pt" font-style="normal" font-weight="normal" text-decoration="normal" x="74" y="257" text-anchor="start" dominant-baseline="alphabetic" transform="matrix(1, 0, 0, 1, 0.5, 0.5)" fill-opacity="1">0</text><text fill="rgb(68,68,68)" stroke="none" font-family="Work Sans" font-size="15pt" font-style="normal" font-weight="normal" text-decoration="normal" x="128.6999969482422" y="257" text-anchor="start" dominant-baseline="alphabetic" transform="matrix(1, 0, 0, 1, 0.5, 0.5)" fill-opacity="1">0.5</text><text fill="rgb(68,68,68)" stroke="none" font-family="Work Sans" font-size="15pt" font-style="normal" font-weight="normal" text-decoration="normal" x="198.39999389648438" y="257" text-anchor="start" dominant-baseline="alphabetic" transform="matrix(1, 0, 0, 1, 0.5, 0.5)" fill-opacity="1">1</text><text fill="rgb(68,68,68)" stroke="none" font-family="Work Sans" font-size="15pt" font-style="normal" font-weight="normal" text-decoration="normal" x="253.10000610351562" y="257" text-anchor="start" dominant-baseline="alphabetic" transform="matrix(1, 0, 0, 1, 0.5, 0.5)" fill-opacity="1">1.5</text><text fill="rgb(68,68,68)" stroke="none" font-family="Work Sans" font-size="15pt" font-style="normal" font-weight="normal" text-decoration="normal" x="322.79998779296875" y="257" text-anchor="start" dominant-baseline="alphabetic" transform="matrix(1, 0, 0, 1, 0.5, 0.5)" fill-opacity="1">2</text><text fill="rgb(68,68,68)" stroke="none" font-family="Work Sans" font-size="15pt" font-style="normal" font-weight="normal" text-decoration="normal" x="375" y="257" text-anchor="start" dominant-baseline="alphabetic" transform="matrix(1, 0, 0, 1, 0.5, 0.5)" fill-opacity="1">2.5</text><text fill="rgb(68,68,68)" stroke="none" font-family="helvetica" font-size="15pt" font-style="normal" font-weight="normal" text-decoration="normal" x="190.056640625" y="293" text-anchor="start" dominant-baseline="alphabetic" transform="matrix(1, 0, 0, 1, 0.5, 0.5)" fill-opacity="1">DNA (nM)</text><path fill="none" stroke="rgb(0,0,0)" paint-order="fill" d="M 79.5 233.5 L 79.5 5.5" stroke-opacity="1" stroke-linejoin="bevel" stroke-miterlimit="10" stroke-dasharray=""/><path fill="none" stroke="rgb(0,0,0)" paint-order="fill" d="M 73.5 233.5 L 81.5 233.5 M 73.5 187.5 L 81.5 187.5 M 73.5 142.5 L 81.5 142.5 M 73.5 96.5 L 81.5 96.5 M 73.5 51.5 L 81.5 51.5 M 73.5 5.5 L 81.5 5.5" stroke-opacity="1" stroke-linejoin="bevel" stroke-miterlimit="10" stroke-dasharray=""/><path fill="none" stroke="rgb(0,0,0)" paint-order="fill" d="M 75.5 233.5 L 79.5 233.5 M 75.5 224.5 L 79.5 224.5 M 75.5 215.5 L 79.5 215.5 M 75.5 206.5 L 79.5 206.5 M 75.5 197.5 L 79.5 197.5 M 75.5 187.5 L 79.5 187.5 M 75.5 178.5 L 79.5 178.5 M 75.5 169.5 L 79.5 169.5 M 75.5 160.5 L 79.5 160.5 M 75.5 151.5 L 79.5 151.5 M 75.5 142.5 L 79.5 142.5 M 75.5 133.5 L 79.5 133.5 M 75.5 124.5 L 79.5 124.5 M 75.5 114.5 L 79.5 114.5 M 75.5 105.5 L 79.5 105.5 M 75.5 96.5 L 79.5 96.5 M 75.5 87.5 L 79.5 87.5 M 75.5 78.5 L 79.5 78.5 M 75.5 69.5 L 79.5 69.5 M 75.5 60.5 L 79.5 60.5 M 75.5 51.5 L 79.5 51.5 M 75.5 41.5 L 79.5 41.5 M 75.5 32.5 L 79.5 32.5 M 75.5 23.5 L 79.5 23.5 M 75.5 14.5 L 79.5 14.5 M 75.5 5.5 L 79.5 5.5" stroke-opacity="1" stroke-linejoin="bevel" stroke-miterlimit="10" stroke-dasharray=""/><text fill="rgb(68,68,68)" stroke="none" font-family="Work Sans" font-size="15pt" font-style="normal" font-weight="normal" text-decoration="normal" x="58" y="239.5" text-anchor="start" dominant-baseline="alphabetic" transform="matrix(1, 0, 0, 1, 0.5, 0.5)" fill-opacity="1">0</text><text fill="rgb(68,68,68)" stroke="none" font-family="Work Sans" font-size="15pt" font-style="normal" font-weight="normal" text-decoration="normal" x="43" y="193.89999389648438" text-anchor="start" dominant-baseline="alphabetic" transform="matrix(1, 0, 0, 1, 0.5, 0.5)" fill-opacity="1">0.5</text><text fill="rgb(68,68,68)" stroke="none" font-family="Work Sans" font-size="15pt" font-style="normal" font-weight="normal" text-decoration="normal" x="58" y="148.3000030517578" text-anchor="start" dominant-baseline="alphabetic" transform="matrix(1, 0, 0, 1, 0.5, 0.5)" fill-opacity="1">1</text><text fill="rgb(68,68,68)" stroke="none" font-family="Work Sans" font-size="15pt" font-style="normal" font-weight="normal" text-decoration="normal" x="43" y="102.69999694824219" text-anchor="start" dominant-baseline="alphabetic" transform="matrix(1, 0, 0, 1, 0.5, 0.5)" fill-opacity="1">1.5</text><text fill="rgb(68,68,68)" stroke="none" font-family="Work Sans" font-size="15pt" font-style="normal" font-weight="normal" text-decoration="normal" x="58" y="57.099998474121094" text-anchor="start" dominant-baseline="alphabetic" transform="matrix(1, 0, 0, 1, 0.5, 0.5)" fill-opacity="1">2</text><text fill="rgb(68,68,68)" stroke="none" font-family="Work Sans" font-size="15pt" font-style="normal" font-weight="normal" text-decoration="normal" x="43" y="13" text-anchor="start" dominant-baseline="alphabetic" transform="matrix(1, 0, 0, 1, 0.5, 0.5)" fill-opacity="1">2.5</text><text fill="rgb(68,68,68)" stroke="none" font-family="helvetica" font-size="15pt" font-style="normal" font-weight="normal" text-decoration="normal" x="-28.5400390625" y="115" text-anchor="start" dominant-baseline="alphabetic" transform="matrix(6.123233995736766e-17, -1, 1, 6.123233995736766e-17, -93.5, 144.5)" fill-opacity="1">MGapt (μM)</text></svg>