<svg version="1.1" xmlns="http://www.w3.org/2000/svg" width="400" height="300"><defs><clipPath id="qCIDJrsBIDWb"><path fill="none" stroke="none" d="M 64.5 5.5 L 390.5 5.5 L 390.5 233.5 L 64.5 233.5 L 64.5 5.5"/></clipPath><clipPath id="ebTtpRAvRNcd"><path fill="none" stroke="none" d="M 64.5 5.5 L 390.5 5.5 L 390.5 233.5 L 64.5 233.5 L 64.5 5.5"/></clipPath><clipPath id="MVVhShhXQXwo"><path fill="none" stroke="none" d="M 64.5 5.5 L 390.5 5.5 L 390.5 233.5 L 64.5 233.5 L 64.5 5.5"/></clipPath><clipPath id="gsWrXmSuqXvU"><path fill="none" stroke="none" d="M 64.5 5.5 L 390.5 5.5 L 390.5 233.5 L 64.5 233.5 L 64.5 5.5"/></clipPath><clipPath id="CSIpEHvilPaL"><path fill="none" stroke="none" d="M 64.5 5.5 L 390.5 5.5 L 390.5 233.5 L 64.5 233.5 L 64.5 5.5"/></clipPath></defs><path fill="rgb(255,255,255)" stroke="none" paint-order="stroke" d="M 0.5 0.5 L 400.5 0.5 L 400.5 300.5 L 0.5 300.5 L 0.5 0.5" fill-opacity="1"/><rect fill="#FFFFFF" stroke="none" x="64" y="5" width="326" height="228" transform="matrix(1, 0, 0, 1, 0.5, 0.5)"/><path fill="rgb(255,255,255)" stroke="none" paint-order="stroke" d="M 64.5 5.5 L 390.5 5.5 L 390.5 233.5 L 64.5 233.5 L 64.5 5.5" fill-opacity="1"/><path fill="rgb(0,0,0)" stroke="rgb(0,0,0)" paint-order="fill" d="M 326.4960021972656 20.18292236328125 A 2.5 2.5 0 1 1 326.4960009472657 20.180422363697915" fill-opacity="0.5019607843137255" clip-path="url(#MVVhShhXQXwo)" stroke-opacity="1" stroke-linejoin="bevel" stroke-miterlimit="10" stroke-dasharray=""/><path fill="rgb(0,0,0)" stroke="rgb(0,0,0)" paint-order="fill" d="M 205.2239990234375 56.91863250732422 A 2.5 2.5 0 1 1 205.22399777343762 56.91613250774088" fill-opacity="0.5019607843137255" clip-path="url(#MVVhShhXQXwo)" stroke-opacity="1" stroke-linejoin="bevel" stroke-miterlimit="10" stroke-dasharray=""/><path fill="rgb(0,0,0)" stroke="rgb(0,0,0)" paint-order="fill" d="M 128.28800201416016 95.90514373779297 A 2.5 2.5 0 1 1 128.28800076416027 95.90264373820963" fill-opacity="0.5019607843137255" clip-path="url(#MVVhShhXQXwo)" stroke-opacity="1" stroke-linejoin="bevel" stroke-miterlimit="10" stroke-dasharray=""/><path fill="rgb(0,0,0)" stroke="rgb(0,0,0)" paint-order="fill" d="M 100.90399932861328 132.26866149902344 A 2.5 2.5 0 1 1 100.90399807861338 132.2661614994401" fill-opacity="0.5019607843137255" clip-path="url(#MVVhShhXQXwo)" stroke-opacity="1" stroke-linejoin="bevel" stroke-miterlimit="10" stroke-dasharray=""/><path fill="rgb(0,0,0)" stroke="rgb(0,0,0)" paint-order="fill" d="M 82.64800262451172 164.23439025878906 A 2.5 2.5 0 1 1 82.64800137451182 164.23189025920573" fill-opacity="0.5019607843137255" clip-path="url(#MVVhShhXQXwo)" stroke-opacity="1" stroke-linejoin="bevel" stroke-miterlimit="10" stroke-dasharray=""/><path fill="rgb(0,0,0)" stroke="rgb(0,0,0)" paint-order="fill" d="M 76.12799835205078 190.95411682128906 A 2.5 2.5 0 1 1 76.12799710205088 190.95161682170573" fill-opacity="0.5019607843137255" clip-path="url(#MVVhShhXQXwo)" stroke-opacity="1" stroke-linejoin="bevel" stroke-miterlimit="10" stroke-dasharray=""/><path fill="none" stroke="rgb(0,0,0)" paint-order="fill" d="M 323.9960021972656 24.85957908630371 L 323.9960021972656 15.506264686584473" stroke-opacity="1" stroke-linejoin="bevel" stroke-miterlimit="10" stroke-dasharray="" clip-path="url(#gsWrXmSuqXvU)"/><path fill="none" stroke="rgb(0,0,0)" paint-order="fill" d="M 202.7239990234375 60.35922622680664 L 202.7239990234375 53.4780387878418" stroke-opacity="1" stroke-linejoin="bevel" stroke-miterlimit="10" stroke-dasharray="" clip-path="url(#gsWrXmSuqXvU)"/><path fill="none" stroke="rgb(0,0,0)" paint-order="fill" d="M 125.78800201416016 98.08834838867188 L 125.78800201416016 93.7219467163086" stroke-opacity="1" stroke-linejoin="bevel" stroke-miterlimit="10" stroke-dasharray="" clip-path="url(#gsWrXmSuqXvU)"/><path fill="none" stroke="rgb(0,0,0)" paint-order="fill" d="M 98.40399932861328 133.1316375732422 L 98.40399932861328 131.4056854248047" stroke-opacity="1" stroke-linejoin="bevel" stroke-miterlimit="10" stroke-dasharray="" clip-path="url(#gsWrXmSuqXvU)"/><path fill="none" stroke="rgb(0,0,0)" paint-order="fill" d="M 80.14800262451172 165.19068908691406 L 80.14800262451172 163.27809143066406" stroke-opacity="1" stroke-linejoin="bevel" stroke-miterlimit="10" stroke-dasharray="" clip-path="url(#gsWrXmSuqXvU)"/><path fill="none" stroke="rgb(0,0,0)" paint-order="fill" d="M 73.62799835205078 192.382080078125 L 73.62799835205078 189.5261688232422" stroke-opacity="1" stroke-linejoin="bevel" stroke-miterlimit="10" stroke-dasharray="" clip-path="url(#gsWrXmSuqXvU)"/><path fill="none" stroke="rgb(0,0,0)" paint-order="fill" d="M 64.5 233.5 L 390.5 233.5" stroke-opacity="1" stroke-linejoin="bevel" stroke-miterlimit="10" stroke-dasharray=""/><path fill="none" stroke="rgb(0,0,0)" paint-order="fill" d="M 64.5 239.5 L 64.5 231.5 M 129.5 239.5 L 129.5 231.5 M 194.5 239.5 L 194.5 231.5 M 260.5 239.5 L 260.5 231.5 M 325.5 239.5 L 325.5 231.5 M 390.5 239.5 L 390.5 231.5" stroke-opacity="1" stroke-linejoin="bevel" stroke-miterlimit="10" stroke-dasharray=""/><path fill="none" stroke="rgb(0,0,0)" paint-order="fill" d="M 64.5 237.5 L 64.5 233.5 M 77.5 237.5 L 77.5 233.5 M 90.5 237.5 L 90.5 233.5 M 103.5 237.5 L 103.5 233.5 M 116.5 237.5 L 116.5 233.5 M 129.5 237.5 L 129.5 233.5 M 142.5 237.5 L 142.5 233.5 M 155.5 237.5 L 155.5 233.5 M 168.5 237.5 L 168.5 233.5 M 181.5 237.5 L 181.5 233.5 M 194.5 237.5 L 194.5 233.5 M 207.5 237.5 L 207.5 233.5 M 220.5 237.5 L 220.5 233.5 M 234.5 237.5 L 234.5 233.5 M 247.5 237.5 L 247.5 233.5 M 260.5 237.5 L 260.5 233.5 M 273.5 237.5 L 273.5 233.5 M 286.5 237.5 L 286.5 233.5 M 299.5 237.5 L 299.5 233.5 M 312.5 237.5 L 312.5 233.5 M 325.5 237.5 L 325.5 233.5 M 338.5 237.5 L 338.5 233.5 M 351.5 237.5 L 351.5 233.5 M 364.5 237.5 L 364.5 233.5 M 377.5 237.5 L 377.5 233.5 M 390.5 237.5 L 390.5 233.5" stroke-opacity="1" stroke-linejoin="bevel" stroke-miterlimit="10" stroke-dasharray=""/><text fill="rgb(68,68,68)" stroke="none" font-family="Work Sans" font-size="15pt" font-style="normal" font-weight="normal" text-decoration="normal" x="59" y="257" text-anchor="start" dominant-baseline="alphabetic" transform="matrix(1, 0, 0, 1, 0.5, 0.5)" fill-opacity="1">0</text><text fill="rgb(68,68,68)" stroke="none" font-family="Work Sans" font-size="15pt" font-style="normal" font-weight="normal" text-decoration="normal" x="116.69999694824219" y="257" text-anchor="start" dominant-baseline="alphabetic" transform="matrix(1, 0, 0, 1, 0.5, 0.5)" fill-opacity="1">0.5</text><text fill="rgb(68,68,68)" stroke="none" font-family="Work Sans" font-size="15pt" font-style="normal" font-weight="normal" text-decoration="normal" x="189.39999389648438" y="257" text-anchor="start" dominant-baseline="alphabetic" transform="matrix(1, 0, 0, 1, 0.5, 0.5)" fill-opacity="1">1</text><text fill="rgb(68,68,68)" stroke="none" font-family="Work Sans" font-size="15pt" font-style="normal" font-weight="normal" text-decoration="normal" x="247.10000610351562" y="257" text-anchor="start" dominant-baseline="alphabetic" transform="matrix(1, 0, 0, 1, 0.5, 0.5)" fill-opacity="1">1.5</text><text fill="rgb(68,68,68)" stroke="none" font-family="Work Sans" font-size="15pt" font-style="normal" font-weight="normal" text-decoration="normal" x="319.79998779296875" y="257" text-anchor="start" dominant-baseline="alphabetic" transform="matrix(1, 0, 0, 1, 0.5, 0.5)" fill-opacity="1">2</text><text fill="rgb(68,68,68)" stroke="none" font-family="Work Sans" font-size="15pt" font-style="normal" font-weight="normal" text-decoration="normal" x="375" y="257" text-anchor="start" dominant-baseline="alphabetic" transform="matrix(1, 0, 0, 1, 0.5, 0.5)" fill-opacity="1">2.5</text><text fill="rgb(68,68,68)" stroke="none" font-family="helvetica" font-size="15pt" font-style="normal" font-weight="normal" text-decoration="normal" x="182.556640625" y="293" text-anchor="start" dominant-baseline="alphabetic" transform="matrix(1, 0, 0, 1, 0.5, 0.5)" fill-opacity="1">DNA (nM)</text><path fill="none" stroke="rgb(0,0,0)" paint-order="fill" d="M 64.5 233.5 L 64.5 5.5" stroke-opacity="1" stroke-linejoin="bevel" stroke-miterlimit="10" stroke-dasharray=""/><path fill="none" stroke="rgb(0,0,0)" paint-order="fill" d="M 58.5 233.5 L 66.5 233.5 M 58.5 200.5 L 66.5 200.5 M 58.5 168.5 L 66.5 168.5 M 58.5 135.5 L 66.5 135.5 M 58.5 103.5 L 66.5 103.5 M 58.5 70.5 L 66.5 70.5 M 58.5 38.5 L 66.5 38.5 M 58.5 5.5 L 66.5 5.5" stroke-opacity="1" stroke-linejoin="bevel" stroke-miterlimit="10" stroke-dasharray=""/><path fill="none" stroke="rgb(0,0,0)" paint-order="fill" d="M 60.5 233.5 L 64.5 233.5 M 60.5 226.5 L 64.5 226.5 M 60.5 220.5 L 64.5 220.5 M 60.5 213.5 L 64.5 213.5 M 60.5 207.5 L 64.5 207.5 M 60.5 200.5 L 64.5 200.5 M 60.5 194.5 L 64.5 194.5 M 60.5 187.5 L 64.5 187.5 M 60.5 181.5 L 64.5 181.5 M 60.5 174.5 L 64.5 174.5 M 60.5 168.5 L 64.5 168.5 M 60.5 161.5 L 64.5 161.5 M 60.5 155.5 L 64.5 155.5 M 60.5 148.5 L 64.5 148.5 M 60.5 142.5 L 64.5 142.5 M 60.5 135.5 L 64.5 135.5 M 60.5 129.5 L 64.5 129.5 M 60.5 122.5 L 64.5 122.5 M 60.5 116.5 L 64.5 116.5 M 60.5 109.5 L 64.5 109.5 M 60.5 103.5 L 64.5 103.5 M 60.5 96.5 L 64.5 96.5 M 60.5 90.5 L 64.5 90.5 M 60.5 83.5 L 64.5 83.5 M 60.5 77.5 L 64.5 77.5 M 60.5 70.5 L 64.5 70.5 M 60.5 64.5 L 64.5 64.5 M 60.5 57.5 L 64.5 57.5 M 60.5 51.5 L 64.5 51.5 M 60.5 44.5 L 64.5 44.5 M 60.5 38.5 L 64.5 38.5 M 60.5 31.5 L 64.5 31.5 M 60.5 25.5 L 64.5 25.5 M 60.5 18.5 L 64.5 18.5 M 60.5 12.5 L 64.5 12.5 M 60.5 5.5 L 64.5 5.5" stroke-opacity="1" stroke-linejoin="bevel" stroke-miterlimit="10" stroke-dasharray=""/><text fill="rgb(68,68,68)" stroke="none" font-family="Work Sans" font-size="15pt" font-style="normal" font-weight="normal" text-decoration="normal" x="43" y="239.5" text-anchor="start" dominant-baseline="alphabetic" transform="matrix(1, 0, 0, 1, 0.5, 0.5)" fill-opacity="1">0</text><text fill="rgb(68,68,68)" stroke="none" font-family="Work Sans" font-size="15pt" font-style="normal" font-weight="normal" text-decoration="normal" x="43" y="206.92857360839844" text-anchor="start" dominant-baseline="alphabetic" transform="matrix(1, 0, 0, 1, 0.5, 0.5)" fill-opacity="1">1</text><text fill="rgb(68,68,68)" stroke="none" font-family="Work Sans" font-size="15pt" font-style="normal" font-weight="normal" text-decoration="normal" x="43" y="174.35714721679688" text-anchor="start" dominant-baseline="alphabetic" transform="matrix(1, 0, 0, 1, 0.5, 0.5)" fill-opacity="1">2</text><text fill="rgb(68,68,68)" stroke="none" font-family="Work Sans" font-size="15pt" font-style="normal" font-weight="normal" text-decoration="normal" x="43" y="141.7857208251953" text-anchor="start" dominant-baseline="alphabetic" transform="matrix(1, 0, 0, 1, 0.5, 0.5)" fill-opacity="1">3</text><text fill="rgb(68,68,68)" stroke="none" font-family="Work Sans" font-size="15pt" font-style="normal" font-weight="normal" text-decoration="normal" x="43" y="109.21428680419922" text-anchor="start" dominant-baseline="alphabetic" transform="matrix(1, 0, 0, 1, 0.5, 0.5)" fill-opacity="1">4</text><text fill="rgb(68,68,68)" stroke="none" font-family="Work Sans" font-size="15pt" font-style="normal" font-weight="normal" text-decoration="normal" x="43" y="76.64286041259766" text-anchor="start" dominant-baseline="alphabetic" transform="matrix(1, 0, 0, 1, 0.5, 0.5)" fill-opacity="1">5</text><text fill="rgb(68,68,68)" stroke="none" font-family="Work Sans" font-size="15pt" font-style="normal" font-weight="normal" text-decoration="normal" x="43" y="44.07143020629883" text-anchor="start" dominant-baseline="alphabetic" transform="matrix(1, 0, 0, 1, 0.5, 0.5)" fill-opacity="1">6</text><text fill="rgb(68,68,68)" stroke="none" font-family="Work Sans" font-size="15pt" font-style="normal" font-weight="normal" text-decoration="normal" x="43" y="13" text-anchor="start" dominant-baseline="alphabetic" transform="matrix(1, 0, 0, 1, 0.5, 0.5)" fill-opacity="1">7</text><text fill="rgb(68,68,68)" stroke="none" font-family="helvetica" font-size="15pt" font-style="normal" font-weight="normal" text-decoration="normal" x="-30.2099609375" y="115" text-anchor="start" dominant-baseline="alphabetic" transform="matrix(6.123233995736766e-17, -1, 1, 6.123233995736766e-17, -93.5, 144.5)" fill-opacity="1">deGFP (μM)</text></svg>