<svg version="1.1" xmlns="http://www.w3.org/2000/svg" width="500" height="400"><defs><clipPath id="sTbpszsDQMTS"><path fill="none" stroke="none" d="M 64.5 5.5 L 470.5 5.5 L 470.5 333.5 L 64.5 333.5 L 64.5 5.5"/></clipPath><clipPath id="wNLwTQVkeAFg"><path fill="none" stroke="none" d="M 64.5 5.5 L 470.5 5.5 L 470.5 333.5 L 64.5 333.5 L 64.5 5.5"/></clipPath><clipPath id="mUawEzoFzZdo"><path fill="none" stroke="none" d="M 64.5 5.5 L 470.5 5.5 L 470.5 333.5 L 64.5 333.5 L 64.5 5.5"/></clipPath><clipPath id="lFrptAoNOeUu"><path fill="none" stroke="none" d="M 64.5 5.5 L 470.5 5.5 L 470.5 333.5 L 64.5 333.5 L 64.5 5.5"/></clipPath><clipPath id="lFOtWTOUKxNA"><path fill="none" stroke="none" d="M 64.5 5.5 L 470.5 5.5 L 470.5 333.5 L 64.5 333.5 L 64.5 5.5"/></clipPath><clipPath id="TCIsObumyVhZ"><path fill="none" stroke="none" d="M 64.5 5.5 L 470.5 5.5 L 470.5 333.5 L 64.5 333.5 L 64.5 5.5"/></clipPath><clipPath id="nmJTEMwvXlWE"><path fill="none" stroke="none" d="M 64.5 5.5 L 470.5 5.5 L 470.5 333.5 L 64.5 333.5 L 64.5 5.5"/></clipPath></defs><path fill="rgb(255,255,255)" stroke="none" paint-order="stroke" d="M 0.5 0.5 L 500.5 0.5 L 500.5 400.5 L 0.5 400.5 L 0.5 0.5" fill-opacity="1"/><rect fill="#FFFFFF" stroke="none" x="64" y="5" width="406" height="328" transform="matrix(1, 0, 0, 1, 0.5, 0.5)"/><path fill="rgb(255,255,255)" stroke="none" paint-order="stroke" d="M 64.5 5.5 L 470.5 5.5 L 470.5 333.5 L 64.5 333.5 L 64.5 5.5" fill-opacity="1"/><path fill="rgb(0,0,0)" stroke="rgb(0,0,0)" paint-order="fill" d="M 67 333.5 A 2.5 2.5 0 1 1 66.9999987500001 333.49750000041666" fill-opacity="1" clip-path="url(#mUawEzoFzZdo)" stroke-opacity="1" stroke-linejoin="bevel" stroke-miterlimit="10" stroke-dasharray=""/><path fill="rgb(0,0,0)" stroke="rgb(0,0,0)" paint-order="fill" d="M 81.20999908447266 310.1755676269531 A 2.5 2.5 0 1 1 81.20999783447276 310.1730676273698" fill-opacity="1" clip-path="url(#mUawEzoFzZdo)" stroke-opacity="1" stroke-linejoin="bevel" stroke-miterlimit="10" stroke-dasharray=""/><path fill="rgb(0,0,0)" stroke="rgb(0,0,0)" paint-order="fill" d="M 162.41000366210938 203.75778198242188 A 2.5 2.5 0 1 1 162.4100024121095 203.75528198283854" fill-opacity="1" clip-path="url(#mUawEzoFzZdo)" stroke-opacity="1" stroke-linejoin="bevel" stroke-miterlimit="10" stroke-dasharray=""/><path fill="rgb(0,0,0)" stroke="rgb(0,0,0)" paint-order="fill" d="M 470.9700012207031 38.29999923706055 A 2.5 2.5 0 1 1 470.9699999707032 38.29749923747721" fill-opacity="1" clip-path="url(#mUawEzoFzZdo)" stroke-opacity="1" stroke-linejoin="bevel" stroke-miterlimit="10" stroke-dasharray=""/><path fill="none" stroke="rgb(0,0,0)" paint-order="fill" d="M 64.5 333.5 L 65.46373748779297 332.1835632324219 L 66.42747497558594 330.86712646484375 L 67.3912124633789 329.5506896972656 L 68.35494995117188 328.2342529296875 L 69.31868743896484 326.9178466796875 L 70.28242492675781 325.6014099121094 L 71.24616241455078 324.28497314453125 L 72.20989990234375 322.9685363769531 L 73.17363739013672 321.652099609375 L 74.13737487792969 320.3356628417969 L 75.10111236572266 319.01922607421875 L 76.06484985351562 317.7027893066406 L 77.0285873413086 316.3863830566406 L 77.99232482910156 315.0699462890625 L 78.95606231689453 313.7535095214844 L 79.9197998046875 312.43707275390625 L 80.88353729248047 311.1206359863281 L 81.84727478027344 309.80419921875 L 82.8110122680664 308.4877624511719 L 83.77474975585938 307.17132568359375 L 84.73848724365234 305.85491943359375 L 85.70222473144531 304.5384826660156 L 86.66596221923828 303.2220458984375 L 87.62969970703125 301.9056091308594 L 88.59343719482422 300.58917236328125 L 89.55717468261719 299.2727355957031 L 90.52091217041016 297.956298828125 L 91.48464965820312 296.6398620605469 L 92.4483871459961 295.3234558105469 L 93.41212463378906 294.00701904296875 L 94.37586212158203 292.6905822753906 L 95.339599609375 291.3741455078125 L 96.30333709716797 290.0577087402344 L 97.2670669555664 288.74127197265625 L 98.23080444335938 287.4248352050781 L 99.19454193115234 286.1083984375 L 100.15827941894531 284.7919921875 L 101.12201690673828 283.4755554199219 L 102.08575439453125 282.15911865234375 L 103.04949188232422 280.8426818847656 L 104.01322937011719 279.5262451171875 L 104.97696685791016 278.2098083496094 L 105.94070434570312 276.89337158203125 L 106.9044418334961 275.5769348144531 L 107.86817932128906 274.2605285644531 L 108.83191680908203 272.944091796875 L 109.795654296875 271.6276550292969 L 110.75939178466797 270.31121826171875 L 111.72312927246094 268.9947814941406 L 112.6868667602539 267.6783447265625 L 113.65060424804688 266.3619079589844 L 114.61434173583984 265.04547119140625 L 115.57807922363281 263.72906494140625 L 116.54181671142578 262.4126281738281 L 117.50555419921875 261.09619140625 L 118.46929168701172 259.7797546386719 L 119.43302917480469 258.46331787109375 L 120.39676666259766 257.1468811035156 L 121.36050415039062 255.83045959472656 L 122.3242416381836 254.51402282714844 L 123.28797912597656 253.1975860595703 L 124.25171661376953 251.8811492919922 L 125.2154541015625 250.56472778320312 L 126.17919158935547 249.248291015625 L 127.14292907714844 247.93185424804688 L 128.1066665649414 246.61541748046875 L 129.07040405273438 245.2989959716797 L 130.0341339111328 243.98255920410156 L 130.9978790283203 242.66612243652344 L 131.96160888671875 241.3496856689453 L 132.92535400390625 240.03326416015625 L 133.8890838623047 238.71682739257812 L 134.8528289794922 237.400390625 L 135.81655883789062 236.08395385742188 L 136.78030395507812 234.7675323486328 L 137.74403381347656 233.4510955810547 L 138.70777893066406 232.13465881347656 L 139.6715087890625 230.81822204589844 L 140.63525390625 229.50180053710938 L 141.59898376464844 228.18536376953125 L 142.56272888183594 226.86892700195312 L 143.52645874023438 225.552490234375 L 144.49020385742188 224.23606872558594 L 145.4539337158203 222.9196319580078 L 146.4176788330078 221.6031951904297 L 147.38140869140625 220.28675842285156 L 148.34515380859375 218.9703369140625 L 149.3088836669922 217.65390014648438 L 150.2726287841797 216.33746337890625 L 151.23635864257812 215.02102661132812 L 152.20010375976562 213.70460510253906 L 153.16383361816406 212.38816833496094 L 154.12757873535156 211.0717315673828 L 155.09130859375 209.7552947998047 L 156.0550537109375 208.43887329101562 L 157.01878356933594 207.1224365234375 L 157.98252868652344 205.80599975585938 L 158.94625854492188 204.48956298828125 L 159.91000366210938 203.1731414794922" stroke-opacity="0.5019607843137255" stroke-linejoin="bevel" stroke-miterlimit="10" stroke-width="2" stroke-dasharray="6" clip-path="url(#lFrptAoNOeUu)"/><path fill="none" stroke="rgb(128,128,128)" paint-order="fill" d="M 159.91000366210938 203.75595092773438 L 163.02676391601562 200.07064819335938 L 166.14353942871094 196.5001220703125 L 169.2602996826172 193.03744506835938 L 172.3770751953125 189.67628479003906 L 175.49383544921875 186.41087341308594 L 178.61061096191406 183.23590087890625 L 181.7273712158203 180.146484375 L 184.84414672851562 177.1381378173828 L 187.96090698242188 174.20672607421875 L 191.0776824951172 171.348388671875 L 194.19444274902344 168.55960083007812 L 197.31121826171875 165.83702087402344 L 200.427978515625 163.1776123046875 L 203.5447540283203 160.57850646972656 L 206.66151428222656 158.03700256347656 L 209.77828979492188 155.55062866210938 L 212.89505004882812 153.11703491210938 L 216.01182556152344 150.73402404785156 L 219.1285858154297 148.3995361328125 L 222.24534606933594 146.11163330078125 L 225.36212158203125 143.86849975585938 L 228.4788818359375 141.6684112548828 L 231.5956573486328 139.509765625 L 234.71241760253906 137.3909912109375 L 237.82919311523438 135.31068420410156 L 240.94595336914062 133.26744079589844 L 244.06272888183594 131.25997924804688 L 247.1794891357422 129.2870635986328 L 250.2962646484375 127.34752655029297 L 253.41302490234375 125.44025421142578 L 256.52978515625 123.56419372558594 L 259.6465759277344 121.71833801269531 L 262.7633361816406 119.9017333984375 L 265.8800964355469 118.11346435546875 L 268.9968566894531 116.3526611328125 L 272.1136474609375 114.61849212646484 L 275.23040771484375 112.91016387939453 L 278.34716796875 111.22691345214844 L 281.46392822265625 109.56802368164062 L 284.5807189941406 107.93280029296875 L 287.6974792480469 106.32056427001953 L 290.8142395019531 104.7306900024414 L 293.9309997558594 103.16255950927734 L 297.04779052734375 101.61559295654297 L 300.16455078125 100.08921813964844 L 303.28131103515625 98.58290100097656 L 306.3980712890625 97.09612274169922 L 309.5148620605469 95.62837219238281 L 312.6316223144531 94.1791763305664 L 315.7483825683594 92.74807739257812 L 318.8651428222656 91.3346176147461 L 321.98193359375 89.93836975097656 L 325.09869384765625 88.55892181396484 L 328.2154541015625 87.19587707519531 L 331.33221435546875 85.84884643554688 L 334.4490051269531 84.5174560546875 L 337.5657653808594 83.20135498046875 L 340.6825256347656 81.90018463134766 L 343.7992858886719 80.6136245727539 L 346.9160461425781 79.34133911132812 L 350.0328369140625 78.08301544189453 L 353.14959716796875 76.8383560180664 L 356.266357421875 75.6070556640625 L 359.38311767578125 74.38884735107422 L 362.4999084472656 73.1834487915039 L 365.6166687011719 71.99058532714844 L 368.7334289550781 70.81001281738281 L 371.8501892089844 69.64146423339844 L 374.96697998046875 68.48471069335938 L 378.083740234375 67.33951568603516 L 381.20050048828125 66.20564270019531 L 384.3172607421875 65.08287811279297 L 387.4340515136719 63.97099685668945 L 390.5508117675781 62.86980056762695 L 393.6675720214844 61.77907943725586 L 396.7843322753906 60.69863510131836 L 399.901123046875 59.62828063964844 L 403.01788330078125 58.56782531738281 L 406.1346435546875 57.51708984375 L 409.25140380859375 56.475894927978516 L 412.3681945800781 55.44407272338867 L 415.4849548339844 54.42145538330078 L 418.6017150878906 53.407875061035156 L 421.7184753417969 52.40317916870117 L 424.83526611328125 51.40721130371094 L 427.9520263671875 50.419822692871094 L 431.06878662109375 49.44086456298828 L 434.185546875 48.47019577026367 L 437.3023376464844 47.50767517089844 L 440.4190979003906 46.553165435791016 L 443.5358581542969 45.60654067993164 L 446.6526184082031 44.667667388916016 L 449.7694091796875 43.736419677734375 L 452.88616943359375 42.81267547607422 L 456.0029296875 41.89631652832031 L 459.11968994140625 40.987220764160156 L 462.2364501953125 40.08528137207031 L 465.3532409667969 39.19037628173828 L 468.4700012207031 38.302406311035156" stroke-opacity="0.5019607843137255" stroke-linejoin="bevel" stroke-miterlimit="10" stroke-width="2" stroke-dasharray="6" clip-path="url(#lFOtWTOUKxNA)"/><path fill="none" stroke="rgb(0,0,0)" paint-order="fill" d="M 64.5 333.5 L 470.5 333.5" stroke-opacity="1" stroke-linejoin="bevel" stroke-miterlimit="10" stroke-dasharray=""/><path fill="none" stroke="rgb(0,0,0)" paint-order="fill" d="M 64.5 339.5 L 64.5 331.5 M 166.5 339.5 L 166.5 331.5 M 267.5 339.5 L 267.5 331.5 M 369.5 339.5 L 369.5 331.5 M 470.5 339.5 L 470.5 331.5" stroke-opacity="1" stroke-linejoin="bevel" stroke-miterlimit="10" stroke-dasharray=""/><path fill="none" stroke="rgb(0,0,0)" paint-order="fill" d="M 64.5 337.5 L 64.5 333.5 M 84.5 337.5 L 84.5 333.5 M 105.5 337.5 L 105.5 333.5 M 125.5 337.5 L 125.5 333.5 M 145.5 337.5 L 145.5 333.5 M 166.5 337.5 L 166.5 333.5 M 186.5 337.5 L 186.5 333.5 M 206.5 337.5 L 206.5 333.5 M 226.5 337.5 L 226.5 333.5 M 247.5 337.5 L 247.5 333.5 M 267.5 337.5 L 267.5 333.5 M 287.5 337.5 L 287.5 333.5 M 308.5 337.5 L 308.5 333.5 M 328.5 337.5 L 328.5 333.5 M 348.5 337.5 L 348.5 333.5 M 369.5 337.5 L 369.5 333.5 M 389.5 337.5 L 389.5 333.5 M 409.5 337.5 L 409.5 333.5 M 429.5 337.5 L 429.5 333.5 M 450.5 337.5 L 450.5 333.5 M 470.5 337.5 L 470.5 333.5" stroke-opacity="1" stroke-linejoin="bevel" stroke-miterlimit="10" stroke-dasharray=""/><text fill="rgb(68,68,68)" stroke="none" font-family="Work Sans" font-size="15pt" font-style="normal" font-weight="normal" text-decoration="normal" x="59" y="357" text-anchor="start" dominant-baseline="alphabetic" transform="matrix(1, 0, 0, 1, 0.5, 0.5)" fill-opacity="1">0</text><text fill="rgb(68,68,68)" stroke="none" font-family="Work Sans" font-size="15pt" font-style="normal" font-weight="normal" text-decoration="normal" x="153" y="357" text-anchor="start" dominant-baseline="alphabetic" transform="matrix(1, 0, 0, 1, 0.5, 0.5)" fill-opacity="1">0.5</text><text fill="rgb(68,68,68)" stroke="none" font-family="Work Sans" font-size="15pt" font-style="normal" font-weight="normal" text-decoration="normal" x="262" y="357" text-anchor="start" dominant-baseline="alphabetic" transform="matrix(1, 0, 0, 1, 0.5, 0.5)" fill-opacity="1">1</text><text fill="rgb(68,68,68)" stroke="none" font-family="Work Sans" font-size="15pt" font-style="normal" font-weight="normal" text-decoration="normal" x="356" y="357" text-anchor="start" dominant-baseline="alphabetic" transform="matrix(1, 0, 0, 1, 0.5, 0.5)" fill-opacity="1">1.5</text><text fill="rgb(68,68,68)" stroke="none" font-family="Work Sans" font-size="15pt" font-style="normal" font-weight="normal" text-decoration="normal" x="465" y="357" text-anchor="start" dominant-baseline="alphabetic" transform="matrix(1, 0, 0, 1, 0.5, 0.5)" fill-opacity="1">2</text><text fill="rgb(68,68,68)" stroke="none" font-family="helvetica" font-size="15pt" font-style="normal" font-weight="normal" text-decoration="normal" x="222.556640625" y="393" text-anchor="start" dominant-baseline="alphabetic" transform="matrix(1, 0, 0, 1, 0.5, 0.5)" fill-opacity="1">DNA (nM)</text><path fill="none" stroke="rgb(0,0,0)" paint-order="fill" d="M 64.5 333.5 L 64.5 5.5" stroke-opacity="1" stroke-linejoin="bevel" stroke-miterlimit="10" stroke-dasharray=""/><path fill="none" stroke="rgb(0,0,0)" paint-order="fill" d="M 58.5 333.5 L 66.5 333.5 M 58.5 260.5 L 66.5 260.5 M 58.5 187.5 L 66.5 187.5 M 58.5 114.5 L 66.5 114.5 M 58.5 41.5 L 66.5 41.5" stroke-opacity="1" stroke-linejoin="bevel" stroke-miterlimit="10" stroke-dasharray=""/><path fill="none" stroke="rgb(0,0,0)" paint-order="fill" d="M 60.5 333.5 L 64.5 333.5 M 60.5 318.5 L 64.5 318.5 M 60.5 304.5 L 64.5 304.5 M 60.5 289.5 L 64.5 289.5 M 60.5 275.5 L 64.5 275.5 M 60.5 260.5 L 64.5 260.5 M 60.5 246.5 L 64.5 246.5 M 60.5 231.5 L 64.5 231.5 M 60.5 216.5 L 64.5 216.5 M 60.5 202.5 L 64.5 202.5 M 60.5 187.5 L 64.5 187.5 M 60.5 173.5 L 64.5 173.5 M 60.5 158.5 L 64.5 158.5 M 60.5 143.5 L 64.5 143.5 M 60.5 129.5 L 64.5 129.5 M 60.5 114.5 L 64.5 114.5 M 60.5 100.5 L 64.5 100.5 M 60.5 85.5 L 64.5 85.5 M 60.5 71.5 L 64.5 71.5 M 60.5 56.5 L 64.5 56.5 M 60.5 41.5 L 64.5 41.5 M 60.5 27.5 L 64.5 27.5 M 60.5 12.5 L 64.5 12.5" stroke-opacity="1" stroke-linejoin="bevel" stroke-miterlimit="10" stroke-dasharray=""/><text fill="rgb(68,68,68)" stroke="none" font-family="Work Sans" font-size="15pt" font-style="normal" font-weight="normal" text-decoration="normal" x="43" y="339.5" text-anchor="start" dominant-baseline="alphabetic" transform="matrix(1, 0, 0, 1, 0.5, 0.5)" fill-opacity="1">0</text><text fill="rgb(68,68,68)" stroke="none" font-family="Work Sans" font-size="15pt" font-style="normal" font-weight="normal" text-decoration="normal" x="43" y="266.6111145019531" text-anchor="start" dominant-baseline="alphabetic" transform="matrix(1, 0, 0, 1, 0.5, 0.5)" fill-opacity="1">1</text><text fill="rgb(68,68,68)" stroke="none" font-family="Work Sans" font-size="15pt" font-style="normal" font-weight="normal" text-decoration="normal" x="43" y="193.72222900390625" text-anchor="start" dominant-baseline="alphabetic" transform="matrix(1, 0, 0, 1, 0.5, 0.5)" fill-opacity="1">2</text><text fill="rgb(68,68,68)" stroke="none" font-family="Work Sans" font-size="15pt" font-style="normal" font-weight="normal" text-decoration="normal" x="43" y="120.83333587646484" text-anchor="start" dominant-baseline="alphabetic" transform="matrix(1, 0, 0, 1, 0.5, 0.5)" fill-opacity="1">3</text><text fill="rgb(68,68,68)" stroke="none" font-family="Work Sans" font-size="15pt" font-style="normal" font-weight="normal" text-decoration="normal" x="43" y="47.94444274902344" text-anchor="start" dominant-baseline="alphabetic" transform="matrix(1, 0, 0, 1, 0.5, 0.5)" fill-opacity="1">4</text><text fill="rgb(68,68,68)" stroke="none" font-family="helvetica" font-size="15pt" font-style="normal" font-weight="normal" text-decoration="normal" x="-60.390625" y="165" text-anchor="start" dominant-baseline="alphabetic" transform="matrix(6.123233995736766e-17, -1, 1, 6.123233995736766e-17, -143.5, 194.5)" fill-opacity="1">Effective DNA (nM)</text><path fill="rgb(255,255,255)" stroke="none" paint-order="stroke" d="M 74.5 15.5 L 228.4609375 15.5 L 228.4609375 52.5 L 74.5 52.5 L 74.5 15.5" fill-opacity="0.9490196078431372" clip-path="url(#TCIsObumyVhZ)"/><text fill="rgb(68,68,68)" stroke="none" font-family="helvetica" font-size="12pt" font-style="normal" font-weight="normal" text-decoration="normal" x="99" y="25" text-anchor="start" dominant-baseline="central" clip-path="url(#TCIsObumyVhZ)" transform="matrix(1, 0, 0, 1, 0.5, 0.5)" fill-opacity="1">Experimental data</text><path fill="rgb(0,0,0)" stroke="rgb(0,0,0)" paint-order="fill" d="M 88.5 25.5 A 4 4 0 1 1 88.49999800000016 25.496000000666665" fill-opacity="1" clip-path="url(#TCIsObumyVhZ)" stroke-opacity="1" stroke-linejoin="bevel" stroke-miterlimit="10" stroke-dasharray=""/><text fill="rgb(68,68,68)" stroke="none" font-family="helvetica" font-size="12pt" font-style="normal" font-weight="normal" text-decoration="normal" x="99" y="42" text-anchor="start" dominant-baseline="central" clip-path="url(#TCIsObumyVhZ)" transform="matrix(1, 0, 0, 1, 0.5, 0.5)" fill-opacity="1">Logarithmic fit</text><path fill="none" stroke="rgb(0,0,0)" paint-order="fill" d="M 74.5 42.5 L 94.5 42.5" stroke-opacity="0.5019607843137255" stroke-linejoin="bevel" stroke-miterlimit="10" stroke-width="2" stroke-dasharray="6" clip-path="url(#TCIsObumyVhZ)"/><path fill="none" stroke="rgb(128,128,128)" paint-order="fill" d="M 74.5 42.5 L 94.5 42.5" stroke-opacity="0.5019607843137255" stroke-linejoin="bevel" stroke-miterlimit="10" stroke-width="2" stroke-dasharray="6" clip-path="url(#TCIsObumyVhZ)"/></svg>